0, 0, Header, 0, 1, 96
1, 0, Start_track
1, 0, Tempo, 342857
1, 0, Title_t, "Made By"
1, 0, Control_c, 9, 10, 64
1, 0, Control_c, 9, 7, 100
1, 0, Pitch_bend_c, 9, 8192
1, 0, Control_c, 9, 101, 0
1, 0, Control_c, 9, 100, 0
1, 0, Control_c, 9, 6, 12
1, 0, Control_c, 9, 10, 64
1, 0, Control_c, 9, 7, 100
1, 0, Pitch_bend_c, 9, 8192
1, 0, Control_c, 9, 101, 0
1, 0, Control_c, 9, 100, 0
1, 0, Control_c, 9, 6, 12
1, 0, Control_c, 9, 10, 64
1, 0, Control_c, 9, 7, 100
1, 0, Pitch_bend_c, 9, 8192
1, 0, Control_c, 9, 101, 0
1, 0, Control_c, 9, 100, 0
1, 0, Control_c, 9, 6, 12
1, 0, Control_c, 9, 10, 64
1, 0, Control_c, 9, 7, 100
1, 0, Pitch_bend_c, 9, 8192
1, 0, Control_c, 1, 10, 64
1, 0, Control_c, 1, 7, 100
1, 0, Pitch_bend_c, 1, 8192
1, 0, Control_c, 1, 101, 0
1, 0, Control_c, 1, 100, 0
1, 0, Control_c, 1, 6, 12
1, 0, Control_c, 1, 10, 64
1, 0, Control_c, 1, 7, 100
1, 0, Pitch_bend_c, 1, 8192
1, 0, Program_c, 1, 81
1, 0, Control_c, 1, 101, 0
1, 0, Control_c, 1, 100, 0
1, 0, Control_c, 1, 6, 12
1, 0, Control_c, 1, 10, 64
1, 0, Control_c, 1, 7, 100
1, 0, Pitch_bend_c, 1, 8192
1, 0, Program_c, 1, 81
1, 0, Control_c, 1, 101, 0
1, 0, Control_c, 1, 100, 0
1, 0, Control_c, 1, 6, 12
1, 0, Control_c, 1, 10, 64
1, 0, Control_c, 1, 7, 100
1, 0, Pitch_bend_c, 1, 8192
1, 0, Program_c, 1, 81
1, 0, Note_on_c, 1, 67, 100
1, 0, Note_on_c, 1, 71, 100
1, 0, Control_c, 0, 10, 64
1, 0, Control_c, 0, 7, 100
1, 0, Pitch_bend_c, 0, 8192
1, 0, Control_c, 0, 101, 0
1, 0, Control_c, 0, 100, 0
1, 0, Control_c, 0, 6, 12
1, 0, Control_c, 0, 10, 64
1, 0, Control_c, 0, 7, 100
1, 0, Pitch_bend_c, 0, 8192
1, 0, Program_c, 0, 39
1, 0, Control_c, 0, 101, 0
1, 0, Control_c, 0, 100, 0
1, 0, Control_c, 0, 6, 12
1, 0, Control_c, 0, 10, 64
1, 0, Control_c, 0, 7, 100
1, 0, Pitch_bend_c, 0, 8192
1, 0, Program_c, 0, 39
1, 0, Control_c, 0, 101, 0
1, 0, Control_c, 0, 100, 0
1, 0, Control_c, 0, 6, 12
1, 0, Control_c, 0, 10, 64
1, 0, Control_c, 0, 7, 100
1, 0, Pitch_bend_c, 0, 8192
1, 0, Program_c, 0, 39
1, 0, Note_on_c, 0, 40, 100
1, 47, Note_off_c, 1, 67, 64
1, 47, Note_off_c, 1, 71, 64
1, 47, Note_off_c, 0, 40, 64
1, 48, Note_on_c, 0, 42, 100
1, 95, Note_off_c, 0, 42, 64
1, 96, Note_on_c, 0, 43, 100
1, 143, Note_off_c, 0, 43, 64
1, 144, Note_on_c, 0, 47, 100
1, 191, Note_off_c, 0, 47, 64
1, 192, Note_on_c, 0, 40, 100
1, 239, Note_off_c, 0, 40, 64
1, 240, Note_on_c, 0, 42, 100
1, 287, Note_off_c, 0, 42, 64
1, 288, Note_on_c, 1, 67, 100
1, 288, Note_on_c, 1, 71, 100
1, 288, Note_on_c, 0, 43, 100
1, 335, Note_off_c, 0, 43, 64
1, 336, Note_on_c, 0, 47, 100
1, 383, Note_off_c, 1, 71, 64
1, 383, Note_off_c, 1, 67, 64
1, 383, Note_off_c, 0, 47, 64
1, 384, Note_on_c, 1, 72, 100
1, 384, Note_on_c, 1, 67, 100
1, 384, Note_on_c, 0, 40, 100
1, 431, Note_off_c, 1, 67, 64
1, 431, Note_off_c, 1, 72, 64
1, 431, Note_off_c, 0, 40, 64
1, 432, Note_on_c, 0, 42, 100
1, 479, Note_off_c, 0, 42, 64
1, 480, Note_on_c, 0, 43, 100
1, 527, Note_off_c, 0, 43, 64
1, 528, Note_on_c, 0, 48, 100
1, 575, Note_off_c, 0, 48, 64
1, 576, Note_on_c, 0, 40, 100
1, 623, Note_off_c, 0, 40, 64
1, 624, Note_on_c, 0, 42, 100
1, 671, Note_off_c, 0, 42, 64
1, 672, Note_on_c, 1, 72, 100
1, 672, Note_on_c, 1, 67, 100
1, 672, Note_on_c, 0, 43, 100
1, 719, Note_off_c, 0, 43, 64
1, 720, Note_on_c, 0, 48, 100
1, 767, Note_off_c, 1, 67, 64
1, 767, Note_off_c, 1, 72, 64
1, 767, Note_off_c, 0, 48, 64
1, 768, Note_on_c, 1, 73, 100
1, 768, Note_on_c, 1, 67, 100
1, 768, Note_on_c, 0, 40, 100
1, 815, Note_off_c, 1, 67, 64
1, 815, Note_off_c, 1, 73, 64
1, 815, Note_off_c, 0, 40, 64
1, 816, Note_on_c, 0, 42, 100
1, 863, Note_off_c, 0, 42, 64
1, 864, Note_on_c, 0, 43, 100
1, 911, Note_off_c, 0, 43, 64
1, 912, Note_on_c, 0, 49, 100
1, 959, Note_off_c, 0, 49, 64
1, 960, Note_on_c, 0, 40, 100
1, 1007, Note_off_c, 0, 40, 64
1, 1008, Note_on_c, 0, 42, 100
1, 1055, Note_off_c, 0, 42, 64
1, 1056, Note_on_c, 1, 73, 100
1, 1056, Note_on_c, 1, 67, 100
1, 1056, Note_on_c, 0, 43, 100
1, 1103, Note_off_c, 0, 43, 64
1, 1104, Note_on_c, 0, 49, 100
1, 1151, Note_off_c, 1, 67, 64
1, 1151, Note_off_c, 1, 73, 64
1, 1151, Note_off_c, 0, 49, 64
1, 1152, Note_on_c, 1, 72, 100
1, 1152, Note_on_c, 1, 67, 100
1, 1152, Note_on_c, 0, 40, 100
1, 1199, Note_off_c, 1, 67, 64
1, 1199, Note_off_c, 1, 72, 64
1, 1199, Note_off_c, 0, 40, 64
1, 1200, Note_on_c, 0, 42, 100
1, 1247, Note_off_c, 0, 42, 64
1, 1248, Note_on_c, 0, 43, 100
1, 1295, Note_off_c, 0, 43, 64
1, 1296, Note_on_c, 0, 48, 100
1, 1343, Note_off_c, 0, 48, 64
1, 1344, Note_on_c, 0, 40, 100
1, 1391, Note_off_c, 0, 40, 64
1, 1392, Note_on_c, 0, 42, 100
1, 1439, Note_off_c, 0, 42, 64
1, 1440, Note_on_c, 1, 67, 100
1, 1440, Note_on_c, 1, 72, 100
1, 1440, Note_on_c, 0, 43, 100
1, 1487, Note_off_c, 0, 43, 64
1, 1488, Note_on_c, 0, 48, 100
1, 1535, Note_off_c, 1, 72, 64
1, 1535, Note_off_c, 1, 67, 64
1, 1535, Note_off_c, 0, 48, 64
1, 1536, Note_on_c, 1, 71, 100
1, 1536, Note_on_c, 1, 67, 100
1, 1536, Note_on_c, 0, 40, 100
1, 1583, Note_off_c, 1, 67, 64
1, 1583, Note_off_c, 1, 71, 64
1, 1583, Note_off_c, 0, 40, 64
1, 1584, Note_on_c, 0, 42, 100
1, 1631, Note_off_c, 0, 42, 64
1, 1632, Note_on_c, 0, 43, 100
1, 1679, Note_off_c, 0, 43, 64
1, 1680, Note_on_c, 0, 47, 100
1, 1727, Note_off_c, 0, 47, 64
1, 1728, Note_on_c, 0, 40, 100
1, 1775, Note_off_c, 0, 40, 64
1, 1776, Note_on_c, 0, 42, 100
1, 1823, Note_off_c, 0, 42, 64
1, 1824, Note_on_c, 1, 71, 100
1, 1824, Note_on_c, 1, 67, 100
1, 1824, Note_on_c, 0, 43, 100
1, 1871, Note_off_c, 0, 43, 64
1, 1872, Note_on_c, 0, 47, 100
1, 1919, Note_off_c, 1, 67, 64
1, 1919, Note_off_c, 1, 71, 64
1, 1919, Note_off_c, 0, 47, 64
1, 1920, Note_on_c, 1, 72, 100
1, 1920, Note_on_c, 1, 67, 100
1, 1920, Note_on_c, 0, 40, 100
1, 1967, Note_off_c, 1, 67, 64
1, 1967, Note_off_c, 1, 72, 64
1, 1967, Note_off_c, 0, 40, 64
1, 1968, Note_on_c, 0, 42, 100
1, 2015, Note_off_c, 0, 42, 64
1, 2016, Note_on_c, 0, 43, 100
1, 2063, Note_off_c, 0, 43, 64
1, 2064, Note_on_c, 0, 48, 100
1, 2111, Note_off_c, 0, 48, 64
1, 2112, Note_on_c, 0, 40, 100
1, 2159, Note_off_c, 0, 40, 64
1, 2160, Note_on_c, 0, 42, 100
1, 2207, Note_off_c, 0, 42, 64
1, 2208, Note_on_c, 1, 72, 100
1, 2208, Note_on_c, 1, 67, 100
1, 2208, Note_on_c, 0, 43, 100
1, 2255, Note_off_c, 0, 43, 64
1, 2256, Note_on_c, 0, 48, 100
1, 2303, Note_off_c, 1, 67, 64
1, 2303, Note_off_c, 1, 72, 64
1, 2303, Note_off_c, 0, 48, 64
1, 2304, Note_on_c, 1, 73, 100
1, 2304, Note_on_c, 1, 67, 100
1, 2304, Note_on_c, 0, 40, 100
1, 2351, Note_off_c, 1, 67, 64
1, 2351, Note_off_c, 1, 73, 64
1, 2351, Note_off_c, 0, 40, 64
1, 2352, Note_on_c, 0, 42, 100
1, 2399, Note_off_c, 0, 42, 64
1, 2400, Note_on_c, 0, 43, 100
1, 2447, Note_off_c, 0, 43, 64
1, 2448, Note_on_c, 0, 49, 100
1, 2495, Note_off_c, 0, 49, 64
1, 2496, Note_on_c, 0, 40, 100
1, 2543, Note_off_c, 0, 40, 64
1, 2544, Note_on_c, 0, 42, 100
1, 2591, Note_off_c, 0, 42, 64
1, 2592, Note_on_c, 1, 73, 100
1, 2592, Note_on_c, 1, 67, 100
1, 2592, Note_on_c, 0, 43, 100
1, 2639, Note_off_c, 0, 43, 64
1, 2640, Note_on_c, 0, 49, 100
1, 2687, Note_off_c, 1, 67, 64
1, 2687, Note_off_c, 1, 73, 64
1, 2687, Note_off_c, 0, 49, 64
1, 2688, Note_on_c, 1, 72, 100
1, 2688, Note_on_c, 1, 67, 100
1, 2688, Note_on_c, 0, 40, 100
1, 2735, Note_off_c, 1, 67, 64
1, 2735, Note_off_c, 1, 72, 64
1, 2735, Note_off_c, 0, 40, 64
1, 2736, Note_on_c, 0, 42, 100
1, 2783, Note_off_c, 0, 42, 64
1, 2784, Note_on_c, 0, 43, 100
1, 2831, Note_off_c, 0, 43, 64
1, 2832, Note_on_c, 0, 48, 100
1, 2879, Note_off_c, 0, 48, 64
1, 2880, Note_on_c, 0, 40, 100
1, 2927, Note_off_c, 0, 40, 64
1, 2928, Note_on_c, 0, 42, 100
1, 2975, Note_off_c, 0, 42, 64
1, 2976, Note_on_c, 1, 72, 100
1, 2976, Note_on_c, 1, 67, 100
1, 2976, Note_on_c, 0, 43, 100
1, 3023, Note_off_c, 0, 43, 64
1, 3024, Note_on_c, 0, 48, 100
1, 3071, Note_off_c, 1, 67, 64
1, 3071, Note_off_c, 1, 72, 64
1, 3071, Note_off_c, 0, 48, 64
1, 3072, Note_on_c, 1, 72, 100
1, 3072, Note_on_c, 1, 76, 100
1, 3072, Note_on_c, 0, 45, 100
1, 3119, Note_off_c, 1, 76, 64
1, 3119, Note_off_c, 1, 72, 64
1, 3119, Note_off_c, 0, 45, 64
1, 3120, Note_on_c, 0, 47, 100
1, 3167, Note_off_c, 0, 47, 64
1, 3168, Note_on_c, 0, 48, 100
1, 3215, Note_off_c, 0, 48, 64
1, 3216, Note_on_c, 0, 52, 100
1, 3263, Note_off_c, 0, 52, 64
1, 3264, Note_on_c, 0, 45, 100
1, 3311, Note_off_c, 0, 45, 64
1, 3312, Note_on_c, 0, 47, 100
1, 3359, Note_off_c, 0, 47, 64
1, 3360, Note_on_c, 1, 72, 100
1, 3360, Note_on_c, 1, 76, 100
1, 3360, Note_on_c, 0, 48, 100
1, 3407, Note_off_c, 0, 48, 64
1, 3408, Note_on_c, 0, 52, 100
1, 3455, Note_off_c, 1, 76, 64
1, 3455, Note_off_c, 1, 72, 64
1, 3455, Note_off_c, 0, 52, 64
1, 3456, Note_on_c, 1, 77, 100
1, 3456, Note_on_c, 1, 72, 100
1, 3456, Note_on_c, 0, 45, 100
1, 3503, Note_off_c, 1, 72, 64
1, 3503, Note_off_c, 1, 77, 64
1, 3503, Note_off_c, 0, 45, 64
1, 3504, Note_on_c, 0, 47, 100
1, 3551, Note_off_c, 0, 47, 64
1, 3552, Note_on_c, 0, 48, 100
1, 3599, Note_off_c, 0, 48, 64
1, 3600, Note_on_c, 0, 53, 100
1, 3647, Note_off_c, 0, 53, 64
1, 3648, Note_on_c, 0, 45, 100
1, 3695, Note_off_c, 0, 45, 64
1, 3696, Note_on_c, 0, 47, 100
1, 3743, Note_off_c, 0, 47, 64
1, 3744, Note_on_c, 1, 77, 100
1, 3744, Note_on_c, 1, 72, 100
1, 3744, Note_on_c, 0, 48, 100
1, 3791, Note_off_c, 0, 48, 64
1, 3792, Note_on_c, 0, 53, 100
1, 3839, Note_off_c, 1, 72, 64
1, 3839, Note_off_c, 1, 77, 64
1, 3839, Note_off_c, 0, 53, 64
1, 3840, Note_on_c, 1, 78, 100
1, 3840, Note_on_c, 1, 72, 100
1, 3840, Note_on_c, 0, 45, 100
1, 3887, Note_off_c, 1, 72, 64
1, 3887, Note_off_c, 1, 78, 64
1, 3887, Note_off_c, 0, 45, 64
1, 3888, Note_on_c, 0, 47, 100
1, 3935, Note_off_c, 0, 47, 64
1, 3936, Note_on_c, 0, 48, 100
1, 3983, Note_off_c, 0, 48, 64
1, 3984, Note_on_c, 0, 54, 100
1, 4031, Note_off_c, 0, 54, 64
1, 4032, Note_on_c, 0, 45, 100
1, 4079, Note_off_c, 0, 45, 64
1, 4080, Note_on_c, 0, 47, 100
1, 4127, Note_off_c, 0, 47, 64
1, 4128, Note_on_c, 1, 78, 100
1, 4128, Note_on_c, 1, 72, 100
1, 4128, Note_on_c, 0, 48, 100
1, 4175, Note_off_c, 0, 48, 64
1, 4176, Note_on_c, 0, 54, 100
1, 4223, Note_off_c, 1, 72, 64
1, 4223, Note_off_c, 1, 78, 64
1, 4223, Note_off_c, 0, 54, 64
1, 4224, Note_on_c, 1, 77, 100
1, 4224, Note_on_c, 1, 72, 100
1, 4224, Note_on_c, 0, 45, 100
1, 4271, Note_off_c, 1, 72, 64
1, 4271, Note_off_c, 1, 77, 64
1, 4271, Note_off_c, 0, 45, 64
1, 4272, Note_on_c, 0, 47, 100
1, 4319, Note_off_c, 0, 47, 64
1, 4320, Note_on_c, 0, 48, 100
1, 4367, Note_off_c, 0, 48, 64
1, 4368, Note_on_c, 0, 53, 100
1, 4415, Note_off_c, 0, 53, 64
1, 4416, Note_on_c, 0, 45, 100
1, 4463, Note_off_c, 0, 45, 64
1, 4464, Note_on_c, 0, 47, 100
1, 4511, Note_off_c, 0, 47, 64
1, 4512, Note_on_c, 1, 72, 100
1, 4512, Note_on_c, 1, 77, 100
1, 4512, Note_on_c, 0, 48, 100
1, 4559, Note_off_c, 0, 48, 64
1, 4560, Note_on_c, 0, 53, 100
1, 4607, Note_off_c, 1, 77, 64
1, 4607, Note_off_c, 1, 72, 64
1, 4607, Note_off_c, 0, 53, 64
1, 4608, Note_on_c, 1, 76, 100
1, 4608, Note_on_c, 1, 72, 100
1, 4608, Note_on_c, 0, 45, 100
1, 4655, Note_off_c, 1, 72, 64
1, 4655, Note_off_c, 1, 76, 64
1, 4655, Note_off_c, 0, 45, 64
1, 4656, Note_on_c, 0, 47, 100
1, 4703, Note_off_c, 0, 47, 64
1, 4704, Note_on_c, 0, 48, 100
1, 4751, Note_off_c, 0, 48, 64
1, 4752, Note_on_c, 0, 52, 100
1, 4799, Note_off_c, 0, 52, 64
1, 4800, Note_on_c, 0, 45, 100
1, 4847, Note_off_c, 0, 45, 64
1, 4848, Note_on_c, 0, 47, 100
1, 4895, Note_off_c, 0, 47, 64
1, 4896, Note_on_c, 1, 76, 100
1, 4896, Note_on_c, 1, 72, 100
1, 4896, Note_on_c, 0, 48, 100
1, 4943, Note_off_c, 0, 48, 64
1, 4944, Note_on_c, 0, 52, 100
1, 4991, Note_off_c, 1, 72, 64
1, 4991, Note_off_c, 1, 76, 64
1, 4991, Note_off_c, 0, 52, 64
1, 4992, Note_on_c, 1, 77, 100
1, 4992, Note_on_c, 1, 72, 100
1, 4992, Note_on_c, 0, 45, 100
1, 5039, Note_off_c, 1, 72, 64
1, 5039, Note_off_c, 1, 77, 64
1, 5039, Note_off_c, 0, 45, 64
1, 5040, Note_on_c, 0, 47, 100
1, 5087, Note_off_c, 0, 47, 64
1, 5088, Note_on_c, 0, 48, 100
1, 5135, Note_off_c, 0, 48, 64
1, 5136, Note_on_c, 0, 53, 100
1, 5183, Note_off_c, 0, 53, 64
1, 5184, Note_on_c, 0, 45, 100
1, 5231, Note_off_c, 0, 45, 64
1, 5232, Note_on_c, 0, 47, 100
1, 5279, Note_off_c, 0, 47, 64
1, 5280, Note_on_c, 1, 77, 100
1, 5280, Note_on_c, 1, 72, 100
1, 5280, Note_on_c, 0, 48, 100
1, 5327, Note_off_c, 0, 48, 64
1, 5328, Note_on_c, 0, 53, 100
1, 5375, Note_off_c, 1, 72, 64
1, 5375, Note_off_c, 1, 77, 64
1, 5375, Note_off_c, 0, 53, 64
1, 5376, Note_on_c, 1, 78, 100
1, 5376, Note_on_c, 1, 72, 100
1, 5376, Note_on_c, 0, 45, 100
1, 5423, Note_off_c, 1, 72, 64
1, 5423, Note_off_c, 1, 78, 64
1, 5423, Note_off_c, 0, 45, 64
1, 5424, Note_on_c, 0, 47, 100
1, 5471, Note_off_c, 0, 47, 64
1, 5472, Note_on_c, 0, 48, 100
1, 5519, Note_off_c, 0, 48, 64
1, 5520, Note_on_c, 0, 54, 100
1, 5567, Note_off_c, 0, 54, 64
1, 5568, Note_on_c, 0, 45, 100
1, 5615, Note_off_c, 0, 45, 64
1, 5616, Note_on_c, 0, 47, 100
1, 5663, Note_off_c, 0, 47, 64
1, 5664, Note_on_c, 1, 78, 100
1, 5664, Note_on_c, 1, 72, 100
1, 5664, Note_on_c, 0, 48, 100
1, 5711, Note_off_c, 0, 48, 64
1, 5712, Note_on_c, 0, 54, 100
1, 5759, Note_off_c, 1, 72, 64
1, 5759, Note_off_c, 1, 78, 64
1, 5759, Note_off_c, 0, 54, 64
1, 5760, Note_on_c, 1, 77, 100
1, 5760, Note_on_c, 1, 72, 100
1, 5760, Note_on_c, 0, 45, 100
1, 5807, Note_off_c, 1, 72, 64
1, 5807, Note_off_c, 1, 77, 64
1, 5807, Note_off_c, 0, 45, 64
1, 5808, Note_on_c, 0, 47, 100
1, 5855, Note_off_c, 0, 47, 64
1, 5856, Note_on_c, 0, 48, 100
1, 5903, Note_off_c, 0, 48, 64
1, 5904, Note_on_c, 0, 53, 100
1, 5951, Note_off_c, 0, 53, 64
1, 5952, Note_on_c, 0, 45, 100
1, 5999, Note_off_c, 0, 45, 64
1, 6000, Note_on_c, 0, 47, 100
1, 6047, Note_off_c, 0, 47, 64
1, 6048, Note_on_c, 1, 77, 100
1, 6048, Note_on_c, 1, 72, 100
1, 6048, Note_on_c, 0, 48, 100
1, 6095, Note_off_c, 0, 48, 64
1, 6096, Note_on_c, 0, 53, 100
1, 6143, Note_off_c, 1, 72, 64
1, 6143, Note_off_c, 1, 77, 64
1, 6143, Note_off_c, 0, 53, 64
1, 6144, Note_on_c, 9, 57, 100
1, 6144, Note_on_c, 9, 44, 100
1, 6144, Note_on_c, 9, 36, 100
1, 6144, Note_on_c, 1, 83, 100
1, 6144, Note_on_c, 0, 35, 100
1, 6167, Note_off_c, 9, 36, 64
1, 6167, Note_off_c, 9, 57, 64
1, 6167, Note_off_c, 9, 44, 64
1, 6167, Note_off_c, 1, 83, 64
1, 6168, Note_on_c, 1, 83, 100
1, 6191, Note_off_c, 1, 83, 64
1, 6191, Note_off_c, 0, 35, 64
1, 6192, Note_on_c, 9, 44, 100
1, 6192, Note_on_c, 1, 83, 100
1, 6192, Note_on_c, 0, 35, 100
1, 6215, Note_off_c, 9, 44, 64
1, 6215, Note_off_c, 1, 83, 64
1, 6216, Note_on_c, 9, 44, 100
1, 6216, Note_on_c, 1, 83, 100
1, 6239, Note_off_c, 9, 44, 64
1, 6239, Note_off_c, 1, 83, 64
1, 6239, Note_off_c, 0, 35, 64
1, 6240, Note_on_c, 9, 44, 100
1, 6240, Note_on_c, 9, 38, 100
1, 6240, Note_on_c, 1, 79, 100
1, 6240, Note_on_c, 0, 43, 100
1, 6263, Note_off_c, 9, 38, 64
1, 6263, Note_off_c, 9, 44, 64
1, 6263, Note_off_c, 1, 79, 64
1, 6264, Note_on_c, 1, 79, 100
1, 6287, Note_off_c, 1, 79, 64
1, 6287, Note_off_c, 0, 43, 64
1, 6288, Note_on_c, 9, 44, 100
1, 6288, Note_on_c, 1, 79, 100
1, 6288, Note_on_c, 0, 35, 100
1, 6311, Note_off_c, 9, 44, 64
1, 6311, Note_off_c, 1, 79, 64
1, 6312, Note_on_c, 1, 79, 100
1, 6335, Note_off_c, 1, 79, 64
1, 6335, Note_off_c, 0, 35, 64
1, 6336, Note_on_c, 9, 44, 100
1, 6336, Note_on_c, 9, 36, 100
1, 6336, Note_on_c, 1, 76, 100
1, 6336, Note_on_c, 0, 35, 100
1, 6359, Note_off_c, 9, 44, 64
1, 6359, Note_off_c, 9, 36, 64
1, 6359, Note_off_c, 1, 76, 64
1, 6360, Note_on_c, 1, 76, 100
1, 6383, Note_off_c, 1, 76, 64
1, 6383, Note_off_c, 0, 35, 64
1, 6384, Note_on_c, 9, 44, 100
1, 6384, Note_on_c, 1, 76, 100
1, 6384, Note_on_c, 0, 43, 100
1, 6407, Note_off_c, 9, 44, 64
1, 6407, Note_off_c, 1, 76, 64
1, 6408, Note_on_c, 9, 44, 100
1, 6408, Note_on_c, 1, 76, 100
1, 6431, Note_off_c, 9, 44, 64
1, 6431, Note_off_c, 1, 76, 64
1, 6431, Note_off_c, 0, 43, 64
1, 6432, Note_on_c, 9, 44, 100
1, 6432, Note_on_c, 9, 38, 100
1, 6432, Note_on_c, 1, 72, 100
1, 6432, Note_on_c, 0, 35, 100
1, 6455, Note_off_c, 9, 38, 64
1, 6455, Note_off_c, 9, 44, 64
1, 6455, Note_off_c, 1, 72, 64
1, 6456, Note_on_c, 1, 72, 100
1, 6479, Note_off_c, 1, 72, 64
1, 6479, Note_off_c, 0, 35, 64
1, 6480, Note_on_c, 9, 44, 100
1, 6480, Note_on_c, 9, 36, 100
1, 6480, Note_on_c, 1, 72, 100
1, 6480, Note_on_c, 0, 43, 100
1, 6503, Note_off_c, 9, 44, 64
1, 6503, Note_off_c, 9, 36, 64
1, 6503, Note_off_c, 1, 72, 64
1, 6504, Note_on_c, 1, 72, 100
1, 6527, Note_off_c, 1, 72, 64
1, 6527, Note_off_c, 0, 43, 64
1, 6528, Note_on_c, 9, 44, 100
1, 6528, Note_on_c, 9, 36, 100
1, 6528, Note_on_c, 1, 71, 100
1, 6528, Note_on_c, 0, 36, 100
1, 6551, Note_off_c, 9, 36, 64
1, 6551, Note_off_c, 9, 44, 64
1, 6551, Note_off_c, 1, 71, 64
1, 6552, Note_on_c, 1, 71, 100
1, 6575, Note_off_c, 1, 71, 64
1, 6575, Note_off_c, 0, 36, 64
1, 6576, Note_on_c, 9, 44, 100
1, 6576, Note_on_c, 1, 71, 100
1, 6576, Note_on_c, 0, 36, 100
1, 6599, Note_off_c, 9, 44, 64
1, 6599, Note_off_c, 1, 71, 64
1, 6600, Note_on_c, 9, 44, 100
1, 6600, Note_on_c, 1, 71, 100
1, 6623, Note_off_c, 9, 44, 64
1, 6623, Note_off_c, 1, 71, 64
1, 6623, Note_off_c, 0, 36, 64
1, 6624, Note_on_c, 9, 44, 100
1, 6624, Note_on_c, 9, 38, 100
1, 6624, Note_on_c, 1, 67, 100
1, 6624, Note_on_c, 0, 43, 100
1, 6647, Note_off_c, 9, 38, 64
1, 6647, Note_off_c, 9, 44, 64
1, 6647, Note_off_c, 1, 67, 64
1, 6648, Note_on_c, 1, 67, 100
1, 6671, Note_off_c, 1, 67, 64
1, 6671, Note_off_c, 0, 43, 64
1, 6672, Note_on_c, 9, 44, 100
1, 6672, Note_on_c, 1, 67, 100
1, 6672, Note_on_c, 0, 36, 100
1, 6695, Note_off_c, 9, 44, 64
1, 6695, Note_off_c, 1, 67, 64
1, 6696, Note_on_c, 1, 67, 100
1, 6719, Note_off_c, 1, 67, 64
1, 6719, Note_off_c, 0, 36, 64
1, 6720, Note_on_c, 9, 44, 100
1, 6720, Note_on_c, 9, 36, 100
1, 6720, Note_on_c, 1, 64, 100
1, 6720, Note_on_c, 0, 36, 100
1, 6743, Note_off_c, 9, 36, 64
1, 6743, Note_off_c, 9, 44, 64
1, 6743, Note_off_c, 1, 64, 64
1, 6744, Note_on_c, 1, 64, 100
1, 6767, Note_off_c, 1, 64, 64
1, 6767, Note_off_c, 0, 36, 64
1, 6768, Note_on_c, 9, 44, 100
1, 6768, Note_on_c, 1, 64, 100
1, 6768, Note_on_c, 0, 43, 100
1, 6791, Note_off_c, 9, 44, 64
1, 6791, Note_off_c, 1, 64, 64
1, 6792, Note_on_c, 9, 44, 100
1, 6792, Note_on_c, 1, 64, 100
1, 6815, Note_off_c, 9, 44, 64
1, 6815, Note_off_c, 1, 64, 64
1, 6815, Note_off_c, 0, 43, 64
1, 6816, Note_on_c, 9, 44, 100
1, 6816, Note_on_c, 9, 38, 100
1, 6816, Note_on_c, 1, 60, 100
1, 6816, Note_on_c, 0, 36, 100
1, 6839, Note_off_c, 9, 38, 64
1, 6839, Note_off_c, 9, 44, 64
1, 6839, Note_off_c, 1, 60, 64
1, 6840, Note_on_c, 1, 60, 100
1, 6863, Note_off_c, 1, 60, 64
1, 6863, Note_off_c, 0, 36, 64
1, 6864, Note_on_c, 9, 44, 100
1, 6864, Note_on_c, 9, 36, 100
1, 6864, Note_on_c, 1, 60, 100
1, 6864, Note_on_c, 0, 43, 100
1, 6887, Note_off_c, 9, 36, 64
1, 6887, Note_off_c, 9, 44, 64
1, 6887, Note_off_c, 1, 60, 64
1, 6888, Note_on_c, 1, 60, 100
1, 6911, Note_off_c, 1, 60, 64
1, 6911, Note_off_c, 0, 43, 64
1, 6912, Note_on_c, 9, 44, 100
1, 6912, Note_on_c, 9, 36, 100
1, 6912, Note_on_c, 1, 61, 100
1, 6912, Note_on_c, 0, 37, 100
1, 6935, Note_off_c, 9, 36, 64
1, 6935, Note_off_c, 9, 44, 64
1, 6935, Note_off_c, 1, 61, 64
1, 6936, Note_on_c, 1, 61, 100
1, 6959, Note_off_c, 1, 61, 64
1, 6959, Note_off_c, 0, 37, 64
1, 6960, Note_on_c, 9, 44, 100
1, 6960, Note_on_c, 1, 61, 100
1, 6960, Note_on_c, 0, 37, 100
1, 6983, Note_off_c, 9, 44, 64
1, 6983, Note_off_c, 1, 61, 64
1, 6984, Note_on_c, 9, 44, 100
1, 6984, Note_on_c, 1, 61, 100
1, 7007, Note_off_c, 9, 44, 64
1, 7007, Note_off_c, 1, 61, 64
1, 7007, Note_off_c, 0, 37, 64
1, 7008, Note_on_c, 9, 44, 100
1, 7008, Note_on_c, 9, 38, 100
1, 7008, Note_on_c, 1, 64, 100
1, 7008, Note_on_c, 0, 43, 100
1, 7031, Note_off_c, 9, 38, 64
1, 7031, Note_off_c, 9, 44, 64
1, 7031, Note_off_c, 1, 64, 64
1, 7032, Note_on_c, 1, 64, 100
1, 7055, Note_off_c, 1, 64, 64
1, 7055, Note_off_c, 0, 43, 64
1, 7056, Note_on_c, 9, 44, 100
1, 7056, Note_on_c, 1, 64, 100
1, 7056, Note_on_c, 0, 37, 100
1, 7079, Note_off_c, 9, 44, 64
1, 7079, Note_off_c, 1, 64, 64
1, 7080, Note_on_c, 1, 64, 100
1, 7103, Note_off_c, 1, 64, 64
1, 7103, Note_off_c, 0, 37, 64
1, 7104, Note_on_c, 9, 44, 100
1, 7104, Note_on_c, 9, 36, 100
1, 7104, Note_on_c, 1, 67, 100
1, 7104, Note_on_c, 0, 37, 100
1, 7127, Note_off_c, 9, 36, 64
1, 7127, Note_off_c, 9, 44, 64
1, 7127, Note_off_c, 1, 67, 64
1, 7128, Note_on_c, 1, 67, 100
1, 7151, Note_off_c, 1, 67, 64
1, 7151, Note_off_c, 0, 37, 64
1, 7152, Note_on_c, 9, 44, 100
1, 7152, Note_on_c, 1, 67, 100
1, 7152, Note_on_c, 0, 43, 100
1, 7175, Note_off_c, 9, 44, 64
1, 7175, Note_off_c, 1, 67, 64
1, 7176, Note_on_c, 9, 44, 100
1, 7176, Note_on_c, 1, 67, 100
1, 7199, Note_off_c, 9, 44, 64
1, 7199, Note_off_c, 1, 67, 64
1, 7199, Note_off_c, 0, 43, 64
1, 7200, Note_on_c, 9, 44, 100
1, 7200, Note_on_c, 9, 38, 100
1, 7200, Note_on_c, 1, 71, 100
1, 7200, Note_on_c, 0, 37, 100
1, 7223, Note_off_c, 9, 38, 64
1, 7223, Note_off_c, 9, 44, 64
1, 7223, Note_off_c, 1, 71, 64
1, 7224, Note_on_c, 1, 71, 100
1, 7247, Note_off_c, 1, 71, 64
1, 7247, Note_off_c, 0, 37, 64
1, 7248, Note_on_c, 9, 44, 100
1, 7248, Note_on_c, 9, 36, 100
1, 7248, Note_on_c, 1, 71, 100
1, 7248, Note_on_c, 0, 43, 100
1, 7271, Note_off_c, 9, 36, 64
1, 7271, Note_off_c, 9, 44, 64
1, 7271, Note_off_c, 1, 71, 64
1, 7272, Note_on_c, 1, 71, 100
1, 7295, Note_off_c, 1, 71, 64
1, 7295, Note_off_c, 0, 43, 64
1, 7296, Note_on_c, 9, 44, 100
1, 7296, Note_on_c, 9, 36, 100
1, 7296, Note_on_c, 1, 72, 100
1, 7296, Note_on_c, 0, 36, 100
1, 7319, Note_off_c, 9, 36, 64
1, 7319, Note_off_c, 9, 44, 64
1, 7319, Note_off_c, 1, 72, 64
1, 7320, Note_on_c, 1, 64, 100
1, 7343, Note_off_c, 1, 64, 64
1, 7343, Note_off_c, 0, 36, 64
1, 7344, Note_on_c, 9, 44, 100
1, 7344, Note_on_c, 1, 66, 100
1, 7344, Note_on_c, 0, 36, 100
1, 7367, Note_off_c, 9, 44, 64
1, 7367, Note_off_c, 1, 66, 64
1, 7368, Note_on_c, 9, 44, 100
1, 7368, Note_on_c, 1, 67, 100
1, 7391, Note_off_c, 9, 44, 64
1, 7391, Note_off_c, 1, 67, 64
1, 7391, Note_off_c, 0, 36, 64
1, 7392, Note_on_c, 9, 44, 100
1, 7392, Note_on_c, 9, 38, 100
1, 7392, Note_on_c, 1, 72, 100
1, 7392, Note_on_c, 0, 43, 100
1, 7415, Note_off_c, 9, 38, 64
1, 7415, Note_off_c, 9, 44, 64
1, 7415, Note_off_c, 1, 72, 64
1, 7416, Note_on_c, 1, 67, 100
1, 7439, Note_off_c, 1, 67, 64
1, 7439, Note_off_c, 0, 43, 64
1, 7440, Note_on_c, 9, 44, 100
1, 7440, Note_on_c, 1, 72, 100
1, 7440, Note_on_c, 0, 36, 100
1, 7463, Note_off_c, 9, 44, 64
1, 7463, Note_off_c, 1, 72, 64
1, 7464, Note_on_c, 1, 74, 100
1, 7487, Note_off_c, 1, 74, 64
1, 7487, Note_off_c, 0, 36, 64
1, 7488, Note_on_c, 9, 44, 100
1, 7488, Note_on_c, 9, 36, 100
1, 7488, Note_on_c, 1, 76, 100
1, 7488, Note_on_c, 0, 36, 100
1, 7511, Note_off_c, 9, 36, 64
1, 7511, Note_off_c, 9, 44, 64
1, 7511, Note_off_c, 1, 76, 64
1, 7512, Note_on_c, 1, 72, 100
1, 7535, Note_off_c, 1, 72, 64
1, 7535, Note_off_c, 0, 36, 64
1, 7536, Note_on_c, 9, 44, 100
1, 7536, Note_on_c, 1, 74, 100
1, 7536, Note_on_c, 0, 43, 100
1, 7559, Note_off_c, 9, 44, 64
1, 7559, Note_off_c, 1, 74, 64
1, 7560, Note_on_c, 9, 44, 100
1, 7560, Note_on_c, 1, 76, 100
1, 7583, Note_off_c, 9, 44, 64
1, 7583, Note_off_c, 1, 76, 64
1, 7583, Note_off_c, 0, 43, 64
1, 7584, Note_on_c, 9, 44, 100
1, 7584, Note_on_c, 9, 38, 100
1, 7584, Note_on_c, 1, 79, 100
1, 7584, Note_on_c, 0, 36, 100
1, 7607, Note_off_c, 9, 38, 64
1, 7607, Note_off_c, 9, 44, 64
1, 7607, Note_off_c, 1, 79, 64
1, 7608, Note_on_c, 1, 76, 100
1, 7631, Note_off_c, 1, 76, 64
1, 7631, Note_off_c, 0, 36, 64
1, 7632, Note_on_c, 9, 44, 100
1, 7632, Note_on_c, 9, 36, 100
1, 7632, Note_on_c, 1, 79, 100
1, 7632, Note_on_c, 0, 43, 100
1, 7655, Note_off_c, 9, 36, 64
1, 7655, Note_off_c, 9, 44, 64
1, 7655, Note_off_c, 1, 79, 64
1, 7656, Note_on_c, 1, 84, 100
1, 7679, Note_off_c, 1, 84, 64
1, 7679, Note_off_c, 0, 43, 64
1, 7680, Note_on_c, 9, 44, 100
1, 7680, Note_on_c, 9, 36, 100
1, 7680, Note_on_c, 1, 83, 100
1, 7680, Note_on_c, 0, 35, 100
1, 7703, Note_off_c, 9, 36, 64
1, 7703, Note_off_c, 9, 44, 64
1, 7703, Note_off_c, 1, 83, 64
1, 7704, Note_on_c, 1, 83, 100
1, 7727, Note_off_c, 1, 83, 64
1, 7727, Note_off_c, 0, 35, 64
1, 7728, Note_on_c, 9, 44, 100
1, 7728, Note_on_c, 1, 83, 100
1, 7728, Note_on_c, 0, 35, 100
1, 7751, Note_off_c, 9, 44, 64
1, 7751, Note_off_c, 1, 83, 64
1, 7752, Note_on_c, 9, 44, 100
1, 7752, Note_on_c, 1, 83, 100
1, 7775, Note_off_c, 9, 44, 64
1, 7775, Note_off_c, 1, 83, 64
1, 7775, Note_off_c, 0, 35, 64
1, 7776, Note_on_c, 9, 44, 100
1, 7776, Note_on_c, 9, 38, 100
1, 7776, Note_on_c, 1, 79, 100
1, 7776, Note_on_c, 0, 43, 100
1, 7799, Note_off_c, 9, 38, 64
1, 7799, Note_off_c, 9, 44, 64
1, 7799, Note_off_c, 1, 79, 64
1, 7800, Note_on_c, 1, 79, 100
1, 7823, Note_off_c, 1, 79, 64
1, 7823, Note_off_c, 0, 43, 64
1, 7824, Note_on_c, 9, 44, 100
1, 7824, Note_on_c, 1, 79, 100
1, 7824, Note_on_c, 0, 35, 100
1, 7847, Note_off_c, 9, 44, 64
1, 7847, Note_off_c, 1, 79, 64
1, 7848, Note_on_c, 1, 79, 100
1, 7871, Note_off_c, 1, 79, 64
1, 7871, Note_off_c, 0, 35, 64
1, 7872, Note_on_c, 9, 44, 100
1, 7872, Note_on_c, 9, 36, 100
1, 7872, Note_on_c, 1, 76, 100
1, 7872, Note_on_c, 0, 35, 100
1, 7895, Note_off_c, 9, 36, 64
1, 7895, Note_off_c, 9, 44, 64
1, 7895, Note_off_c, 1, 76, 64
1, 7896, Note_on_c, 1, 76, 100
1, 7919, Note_off_c, 1, 76, 64
1, 7919, Note_off_c, 0, 35, 64
1, 7920, Note_on_c, 9, 44, 100
1, 7920, Note_on_c, 1, 76, 100
1, 7920, Note_on_c, 0, 43, 100
1, 7943, Note_off_c, 9, 44, 64
1, 7943, Note_off_c, 1, 76, 64
1, 7944, Note_on_c, 9, 44, 100
1, 7944, Note_on_c, 1, 76, 100
1, 7967, Note_off_c, 9, 44, 64
1, 7967, Note_off_c, 1, 76, 64
1, 7967, Note_off_c, 0, 43, 64
1, 7968, Note_on_c, 9, 44, 100
1, 7968, Note_on_c, 9, 38, 100
1, 7968, Note_on_c, 1, 72, 100
1, 7968, Note_on_c, 0, 35, 100
1, 7991, Note_off_c, 9, 38, 64
1, 7991, Note_off_c, 9, 44, 64
1, 7991, Note_off_c, 1, 72, 64
1, 7992, Note_on_c, 1, 72, 100
1, 8015, Note_off_c, 1, 72, 64
1, 8015, Note_off_c, 0, 35, 64
1, 8016, Note_on_c, 9, 44, 100
1, 8016, Note_on_c, 9, 36, 100
1, 8016, Note_on_c, 1, 72, 100
1, 8016, Note_on_c, 0, 43, 100
1, 8039, Note_off_c, 9, 36, 64
1, 8039, Note_off_c, 9, 44, 64
1, 8039, Note_off_c, 1, 72, 64
1, 8040, Note_on_c, 1, 72, 100
1, 8063, Note_off_c, 1, 72, 64
1, 8063, Note_off_c, 0, 43, 64
1, 8064, Note_on_c, 9, 44, 100
1, 8064, Note_on_c, 9, 36, 100
1, 8064, Note_on_c, 1, 71, 100
1, 8064, Note_on_c, 0, 36, 100
1, 8087, Note_off_c, 9, 36, 64
1, 8087, Note_off_c, 9, 44, 64
1, 8087, Note_off_c, 1, 71, 64
1, 8088, Note_on_c, 1, 71, 100
1, 8111, Note_off_c, 1, 71, 64
1, 8111, Note_off_c, 0, 36, 64
1, 8112, Note_on_c, 9, 44, 100
1, 8112, Note_on_c, 1, 71, 100
1, 8112, Note_on_c, 0, 36, 100
1, 8135, Note_off_c, 9, 44, 64
1, 8135, Note_off_c, 1, 71, 64
1, 8136, Note_on_c, 9, 44, 100
1, 8136, Note_on_c, 1, 71, 100
1, 8159, Note_off_c, 9, 44, 64
1, 8159, Note_off_c, 1, 71, 64
1, 8159, Note_off_c, 0, 36, 64
1, 8160, Note_on_c, 9, 44, 100
1, 8160, Note_on_c, 9, 38, 100
1, 8160, Note_on_c, 1, 67, 100
1, 8160, Note_on_c, 0, 43, 100
1, 8183, Note_off_c, 9, 38, 64
1, 8183, Note_off_c, 9, 44, 64
1, 8183, Note_off_c, 1, 67, 64
1, 8184, Note_on_c, 1, 67, 100
1, 8207, Note_off_c, 1, 67, 64
1, 8207, Note_off_c, 0, 43, 64
1, 8208, Note_on_c, 9, 44, 100
1, 8208, Note_on_c, 1, 67, 100
1, 8208, Note_on_c, 0, 36, 100
1, 8231, Note_off_c, 9, 44, 64
1, 8231, Note_off_c, 1, 67, 64
1, 8232, Note_on_c, 1, 67, 100
1, 8255, Note_off_c, 1, 67, 64
1, 8255, Note_off_c, 0, 36, 64
1, 8256, Note_on_c, 9, 44, 100
1, 8256, Note_on_c, 9, 36, 100
1, 8256, Note_on_c, 1, 64, 100
1, 8256, Note_on_c, 0, 36, 100
1, 8279, Note_off_c, 9, 36, 64
1, 8279, Note_off_c, 9, 44, 64
1, 8279, Note_off_c, 1, 64, 64
1, 8280, Note_on_c, 1, 64, 100
1, 8303, Note_off_c, 1, 64, 64
1, 8303, Note_off_c, 0, 36, 64
1, 8304, Note_on_c, 9, 44, 100
1, 8304, Note_on_c, 1, 64, 100
1, 8304, Note_on_c, 0, 43, 100
1, 8327, Note_off_c, 9, 44, 64
1, 8327, Note_off_c, 1, 64, 64
1, 8328, Note_on_c, 9, 44, 100
1, 8328, Note_on_c, 1, 64, 100
1, 8351, Note_off_c, 9, 44, 64
1, 8351, Note_off_c, 1, 64, 64
1, 8351, Note_off_c, 0, 43, 64
1, 8352, Note_on_c, 9, 44, 100
1, 8352, Note_on_c, 9, 38, 100
1, 8352, Note_on_c, 1, 60, 100
1, 8352, Note_on_c, 0, 36, 100
1, 8375, Note_off_c, 9, 38, 64
1, 8375, Note_off_c, 9, 44, 64
1, 8375, Note_off_c, 1, 60, 64
1, 8376, Note_on_c, 1, 60, 100
1, 8399, Note_off_c, 1, 60, 64
1, 8399, Note_off_c, 0, 36, 64
1, 8400, Note_on_c, 9, 44, 100
1, 8400, Note_on_c, 9, 36, 100
1, 8400, Note_on_c, 1, 60, 100
1, 8400, Note_on_c, 0, 43, 100
1, 8423, Note_off_c, 9, 36, 64
1, 8423, Note_off_c, 9, 44, 64
1, 8423, Note_off_c, 1, 60, 64
1, 8424, Note_on_c, 1, 60, 100
1, 8447, Note_off_c, 1, 60, 64
1, 8447, Note_off_c, 0, 43, 64
1, 8448, Note_on_c, 9, 44, 100
1, 8448, Note_on_c, 9, 36, 100
1, 8448, Note_on_c, 1, 61, 100
1, 8448, Note_on_c, 0, 37, 100
1, 8471, Note_off_c, 9, 36, 64
1, 8471, Note_off_c, 9, 44, 64
1, 8471, Note_off_c, 1, 61, 64
1, 8472, Note_on_c, 1, 61, 100
1, 8495, Note_off_c, 1, 61, 64
1, 8495, Note_off_c, 0, 37, 64
1, 8496, Note_on_c, 9, 44, 100
1, 8496, Note_on_c, 1, 61, 100
1, 8496, Note_on_c, 0, 37, 100
1, 8519, Note_off_c, 9, 44, 64
1, 8519, Note_off_c, 1, 61, 64
1, 8520, Note_on_c, 9, 44, 100
1, 8520, Note_on_c, 1, 61, 100
1, 8543, Note_off_c, 9, 44, 64
1, 8543, Note_off_c, 1, 61, 64
1, 8543, Note_off_c, 0, 37, 64
1, 8544, Note_on_c, 9, 44, 100
1, 8544, Note_on_c, 9, 38, 100
1, 8544, Note_on_c, 1, 64, 100
1, 8544, Note_on_c, 0, 43, 100
1, 8567, Note_off_c, 9, 38, 64
1, 8567, Note_off_c, 9, 44, 64
1, 8567, Note_off_c, 1, 64, 64
1, 8568, Note_on_c, 1, 64, 100
1, 8591, Note_off_c, 1, 64, 64
1, 8591, Note_off_c, 0, 43, 64
1, 8592, Note_on_c, 9, 44, 100
1, 8592, Note_on_c, 1, 64, 100
1, 8592, Note_on_c, 0, 37, 100
1, 8615, Note_off_c, 9, 44, 64
1, 8615, Note_off_c, 1, 64, 64
1, 8616, Note_on_c, 1, 64, 100
1, 8639, Note_off_c, 1, 64, 64
1, 8639, Note_off_c, 0, 37, 64
1, 8640, Note_on_c, 9, 44, 100
1, 8640, Note_on_c, 9, 36, 100
1, 8640, Note_on_c, 1, 67, 100
1, 8640, Note_on_c, 0, 37, 100
1, 8663, Note_off_c, 9, 36, 64
1, 8663, Note_off_c, 9, 44, 64
1, 8663, Note_off_c, 1, 67, 64
1, 8664, Note_on_c, 1, 67, 100
1, 8687, Note_off_c, 1, 67, 64
1, 8687, Note_off_c, 0, 37, 64
1, 8688, Note_on_c, 9, 44, 100
1, 8688, Note_on_c, 1, 67, 100
1, 8688, Note_on_c, 0, 43, 100
1, 8711, Note_off_c, 9, 44, 64
1, 8711, Note_off_c, 1, 67, 64
1, 8712, Note_on_c, 9, 44, 100
1, 8712, Note_on_c, 1, 67, 100
1, 8735, Note_off_c, 9, 44, 64
1, 8735, Note_off_c, 1, 67, 64
1, 8735, Note_off_c, 0, 43, 64
1, 8736, Note_on_c, 9, 44, 100
1, 8736, Note_on_c, 9, 38, 100
1, 8736, Note_on_c, 1, 71, 100
1, 8736, Note_on_c, 0, 37, 100
1, 8759, Note_off_c, 9, 38, 64
1, 8759, Note_off_c, 9, 44, 64
1, 8759, Note_off_c, 1, 71, 64
1, 8760, Note_on_c, 1, 71, 100
1, 8783, Note_off_c, 1, 71, 64
1, 8783, Note_off_c, 0, 37, 64
1, 8784, Note_on_c, 9, 44, 100
1, 8784, Note_on_c, 9, 36, 100
1, 8784, Note_on_c, 1, 71, 100
1, 8784, Note_on_c, 0, 43, 100
1, 8807, Note_off_c, 9, 36, 64
1, 8807, Note_off_c, 9, 44, 64
1, 8807, Note_off_c, 1, 71, 64
1, 8808, Note_on_c, 1, 71, 100
1, 8831, Note_off_c, 1, 71, 64
1, 8831, Note_off_c, 0, 43, 64
1, 8832, Note_on_c, 9, 44, 100
1, 8832, Note_on_c, 9, 36, 100
1, 8832, Note_on_c, 1, 72, 100
1, 8832, Note_on_c, 0, 36, 100
1, 8855, Note_off_c, 9, 36, 64
1, 8855, Note_off_c, 9, 44, 64
1, 8855, Note_off_c, 1, 72, 64
1, 8856, Note_on_c, 1, 64, 100
1, 8879, Note_off_c, 1, 64, 64
1, 8879, Note_off_c, 0, 36, 64
1, 8880, Note_on_c, 9, 44, 100
1, 8880, Note_on_c, 1, 66, 100
1, 8880, Note_on_c, 0, 36, 100
1, 8903, Note_off_c, 9, 44, 64
1, 8903, Note_off_c, 1, 66, 64
1, 8904, Note_on_c, 9, 44, 100
1, 8904, Note_on_c, 1, 67, 100
1, 8927, Note_off_c, 9, 44, 64
1, 8927, Note_off_c, 1, 67, 64
1, 8927, Note_off_c, 0, 36, 64
1, 8928, Note_on_c, 9, 44, 100
1, 8928, Note_on_c, 9, 38, 100
1, 8928, Note_on_c, 1, 72, 100
1, 8928, Note_on_c, 0, 43, 100
1, 8951, Note_off_c, 9, 38, 64
1, 8951, Note_off_c, 9, 44, 64
1, 8951, Note_off_c, 1, 72, 64
1, 8952, Note_on_c, 1, 67, 100
1, 8975, Note_off_c, 1, 67, 64
1, 8975, Note_off_c, 0, 43, 64
1, 8976, Note_on_c, 9, 44, 100
1, 8976, Note_on_c, 1, 72, 100
1, 8976, Note_on_c, 0, 36, 100
1, 8999, Note_off_c, 9, 44, 64
1, 8999, Note_off_c, 1, 72, 64
1, 9000, Note_on_c, 1, 74, 100
1, 9023, Note_off_c, 1, 74, 64
1, 9023, Note_off_c, 0, 36, 64
1, 9024, Note_on_c, 9, 44, 100
1, 9024, Note_on_c, 9, 36, 100
1, 9024, Note_on_c, 1, 76, 100
1, 9024, Note_on_c, 0, 36, 100
1, 9047, Note_off_c, 9, 36, 64
1, 9047, Note_off_c, 9, 44, 64
1, 9047, Note_off_c, 1, 76, 64
1, 9048, Note_on_c, 1, 72, 100
1, 9071, Note_off_c, 1, 72, 64
1, 9071, Note_off_c, 0, 36, 64
1, 9072, Note_on_c, 9, 44, 100
1, 9072, Note_on_c, 1, 74, 100
1, 9072, Note_on_c, 0, 43, 100
1, 9095, Note_off_c, 9, 44, 64
1, 9095, Note_off_c, 1, 74, 64
1, 9096, Note_on_c, 9, 44, 100
1, 9096, Note_on_c, 1, 76, 100
1, 9119, Note_off_c, 9, 44, 64
1, 9119, Note_off_c, 1, 76, 64
1, 9119, Note_off_c, 0, 43, 64
1, 9120, Note_on_c, 9, 44, 100
1, 9120, Note_on_c, 9, 38, 100
1, 9120, Note_on_c, 1, 79, 100
1, 9120, Note_on_c, 0, 36, 100
1, 9143, Note_off_c, 9, 38, 64
1, 9143, Note_off_c, 9, 44, 64
1, 9143, Note_off_c, 1, 79, 64
1, 9144, Note_on_c, 1, 76, 100
1, 9167, Note_off_c, 1, 76, 64
1, 9167, Note_off_c, 0, 36, 64
1, 9168, Note_on_c, 9, 44, 100
1, 9168, Note_on_c, 9, 36, 100
1, 9168, Note_on_c, 1, 79, 100
1, 9168, Note_on_c, 0, 43, 100
1, 9191, Note_off_c, 9, 36, 64
1, 9191, Note_off_c, 9, 44, 64
1, 9191, Note_off_c, 1, 79, 64
1, 9192, Note_on_c, 1, 84, 100
1, 9215, Note_off_c, 1, 84, 64
1, 9215, Note_off_c, 0, 43, 64
1, 9216, Note_on_c, 1, 67, 100
1, 9216, Note_on_c, 1, 71, 100
1, 9216, Note_on_c, 0, 40, 100
1, 9263, Note_off_c, 1, 71, 64
1, 9263, Note_off_c, 1, 67, 64
1, 9263, Note_off_c, 0, 40, 64
1, 9264, Note_on_c, 0, 42, 100
1, 9311, Note_off_c, 0, 42, 64
1, 9312, Note_on_c, 0, 43, 100
1, 9359, Note_off_c, 0, 43, 64
1, 9360, Note_on_c, 0, 47, 100
1, 9407, Note_off_c, 0, 47, 64
1, 9408, Note_on_c, 0, 40, 100
1, 9455, Note_off_c, 0, 40, 64
1, 9456, Note_on_c, 0, 42, 100
1, 9503, Note_off_c, 0, 42, 64
1, 9504, Note_on_c, 1, 67, 100
1, 9504, Note_on_c, 1, 71, 100
1, 9504, Note_on_c, 0, 43, 100
1, 9551, Note_off_c, 0, 43, 64
1, 9552, Note_on_c, 0, 47, 100
1, 9599, Note_off_c, 1, 71, 64
1, 9599, Note_off_c, 1, 67, 64
1, 9599, Note_off_c, 0, 47, 64
1, 9600, Note_on_c, 1, 72, 100
1, 9600, Note_on_c, 1, 67, 100
1, 9600, Note_on_c, 0, 40, 100
1, 9647, Note_off_c, 1, 67, 64
1, 9647, Note_off_c, 1, 72, 64
1, 9647, Note_off_c, 0, 40, 64
1, 9648, Note_on_c, 0, 42, 100
1, 9695, Note_off_c, 0, 42, 64
1, 9696, Note_on_c, 0, 43, 100
1, 9743, Note_off_c, 0, 43, 64
1, 9744, Note_on_c, 0, 48, 100
1, 9791, Note_off_c, 0, 48, 64
1, 9792, Note_on_c, 0, 40, 100
1, 9839, Note_off_c, 0, 40, 64
1, 9840, Note_on_c, 0, 42, 100
1, 9887, Note_off_c, 0, 42, 64
1, 9888, Note_on_c, 1, 72, 100
1, 9888, Note_on_c, 1, 67, 100
1, 9888, Note_on_c, 0, 43, 100
1, 9935, Note_off_c, 0, 43, 64
1, 9936, Note_on_c, 0, 48, 100
1, 9983, Note_off_c, 1, 67, 64
1, 9983, Note_off_c, 1, 72, 64
1, 9983, Note_off_c, 0, 48, 64
1, 9984, Note_on_c, 1, 73, 100
1, 9984, Note_on_c, 1, 67, 100
1, 9984, Note_on_c, 0, 40, 100
1, 10031, Note_off_c, 1, 67, 64
1, 10031, Note_off_c, 1, 73, 64
1, 10031, Note_off_c, 0, 40, 64
1, 10032, Note_on_c, 0, 42, 100
1, 10079, Note_off_c, 0, 42, 64
1, 10080, Note_on_c, 0, 43, 100
1, 10127, Note_off_c, 0, 43, 64
1, 10128, Note_on_c, 0, 49, 100
1, 10175, Note_off_c, 0, 49, 64
1, 10176, Note_on_c, 0, 40, 100
1, 10223, Note_off_c, 0, 40, 64
1, 10224, Note_on_c, 0, 42, 100
1, 10271, Note_off_c, 0, 42, 64
1, 10272, Note_on_c, 1, 73, 100
1, 10272, Note_on_c, 1, 67, 100
1, 10272, Note_on_c, 0, 43, 100
1, 10319, Note_off_c, 0, 43, 64
1, 10320, Note_on_c, 0, 49, 100
1, 10367, Note_off_c, 1, 67, 64
1, 10367, Note_off_c, 1, 73, 64
1, 10367, Note_off_c, 0, 49, 64
1, 10368, Note_on_c, 1, 72, 100
1, 10368, Note_on_c, 1, 67, 100
1, 10368, Note_on_c, 0, 40, 100
1, 10415, Note_off_c, 1, 67, 64
1, 10415, Note_off_c, 1, 72, 64
1, 10415, Note_off_c, 0, 40, 64
1, 10416, Note_on_c, 0, 42, 100
1, 10463, Note_off_c, 0, 42, 64
1, 10464, Note_on_c, 0, 43, 100
1, 10511, Note_off_c, 0, 43, 64
1, 10512, Note_on_c, 0, 48, 100
1, 10559, Note_off_c, 0, 48, 64
1, 10560, Note_on_c, 0, 40, 100
1, 10607, Note_off_c, 0, 40, 64
1, 10608, Note_on_c, 0, 42, 100
1, 10655, Note_off_c, 0, 42, 64
1, 10656, Note_on_c, 1, 67, 100
1, 10656, Note_on_c, 1, 72, 100
1, 10656, Note_on_c, 0, 43, 100
1, 10703, Note_off_c, 0, 43, 64
1, 10704, Note_on_c, 0, 48, 100
1, 10751, Note_off_c, 1, 72, 64
1, 10751, Note_off_c, 1, 67, 64
1, 10751, Note_off_c, 0, 48, 64
1, 10752, Note_on_c, 1, 71, 100
1, 10752, Note_on_c, 1, 67, 100
1, 10752, Note_on_c, 0, 40, 100
1, 10799, Note_off_c, 1, 67, 64
1, 10799, Note_off_c, 1, 71, 64
1, 10799, Note_off_c, 0, 40, 64
1, 10800, Note_on_c, 0, 42, 100
1, 10847, Note_off_c, 0, 42, 64
1, 10848, Note_on_c, 0, 43, 100
1, 10895, Note_off_c, 0, 43, 64
1, 10896, Note_on_c, 0, 47, 100
1, 10943, Note_off_c, 0, 47, 64
1, 10944, Note_on_c, 0, 40, 100
1, 10991, Note_off_c, 0, 40, 64
1, 10992, Note_on_c, 0, 42, 100
1, 11039, Note_off_c, 0, 42, 64
1, 11040, Note_on_c, 1, 71, 100
1, 11040, Note_on_c, 1, 67, 100
1, 11040, Note_on_c, 0, 43, 100
1, 11087, Note_off_c, 0, 43, 64
1, 11088, Note_on_c, 0, 47, 100
1, 11135, Note_off_c, 1, 67, 64
1, 11135, Note_off_c, 1, 71, 64
1, 11135, Note_off_c, 0, 47, 64
1, 11136, Note_on_c, 1, 72, 100
1, 11136, Note_on_c, 1, 67, 100
1, 11136, Note_on_c, 0, 40, 100
1, 11183, Note_off_c, 1, 67, 64
1, 11183, Note_off_c, 1, 72, 64
1, 11183, Note_off_c, 0, 40, 64
1, 11184, Note_on_c, 0, 42, 100
1, 11231, Note_off_c, 0, 42, 64
1, 11232, Note_on_c, 0, 43, 100
1, 11279, Note_off_c, 0, 43, 64
1, 11280, Note_on_c, 0, 48, 100
1, 11327, Note_off_c, 0, 48, 64
1, 11328, Note_on_c, 0, 40, 100
1, 11375, Note_off_c, 0, 40, 64
1, 11376, Note_on_c, 0, 42, 100
1, 11423, Note_off_c, 0, 42, 64
1, 11424, Note_on_c, 1, 72, 100
1, 11424, Note_on_c, 1, 67, 100
1, 11424, Note_on_c, 0, 43, 100
1, 11471, Note_off_c, 0, 43, 64
1, 11472, Note_on_c, 0, 48, 100
1, 11519, Note_off_c, 1, 67, 64
1, 11519, Note_off_c, 1, 72, 64
1, 11519, Note_off_c, 0, 48, 64
1, 11520, Note_on_c, 1, 73, 100
1, 11520, Note_on_c, 1, 67, 100
1, 11520, Note_on_c, 0, 40, 100
1, 11567, Note_off_c, 1, 67, 64
1, 11567, Note_off_c, 1, 73, 64
1, 11567, Note_off_c, 0, 40, 64
1, 11568, Note_on_c, 0, 42, 100
1, 11615, Note_off_c, 0, 42, 64
1, 11616, Note_on_c, 0, 43, 100
1, 11663, Note_off_c, 0, 43, 64
1, 11664, Note_on_c, 0, 49, 100
1, 11711, Note_off_c, 0, 49, 64
1, 11712, Note_on_c, 0, 40, 100
1, 11759, Note_off_c, 0, 40, 64
1, 11760, Note_on_c, 0, 42, 100
1, 11807, Note_off_c, 0, 42, 64
1, 11808, Note_on_c, 1, 73, 100
1, 11808, Note_on_c, 1, 67, 100
1, 11808, Note_on_c, 0, 43, 100
1, 11855, Note_off_c, 0, 43, 64
1, 11856, Note_on_c, 0, 49, 100
1, 11903, Note_off_c, 1, 67, 64
1, 11903, Note_off_c, 1, 73, 64
1, 11903, Note_off_c, 0, 49, 64
1, 11904, Note_on_c, 1, 72, 100
1, 11904, Note_on_c, 1, 67, 100
1, 11904, Note_on_c, 0, 40, 100
1, 11951, Note_off_c, 1, 67, 64
1, 11951, Note_off_c, 1, 72, 64
1, 11951, Note_off_c, 0, 40, 64
1, 11952, Note_on_c, 0, 42, 100
1, 11999, Note_off_c, 0, 42, 64
1, 12000, Note_on_c, 0, 43, 100
1, 12047, Note_off_c, 0, 43, 64
1, 12048, Note_on_c, 0, 48, 100
1, 12095, Note_off_c, 0, 48, 64
1, 12096, Note_on_c, 0, 40, 100
1, 12143, Note_off_c, 0, 40, 64
1, 12144, Note_on_c, 0, 42, 100
1, 12191, Note_off_c, 0, 42, 64
1, 12192, Note_on_c, 1, 72, 100
1, 12192, Note_on_c, 1, 67, 100
1, 12192, Note_on_c, 0, 43, 100
1, 12239, Note_off_c, 0, 43, 64
1, 12240, Note_on_c, 0, 48, 100
1, 12287, Note_off_c, 1, 67, 64
1, 12287, Note_off_c, 1, 72, 64
1, 12287, Note_off_c, 0, 48, 64
1, 12288, Note_on_c, 1, 72, 100
1, 12288, Note_on_c, 1, 76, 100
1, 12288, Note_on_c, 0, 45, 100
1, 12335, Note_off_c, 1, 76, 64
1, 12335, Note_off_c, 1, 72, 64
1, 12335, Note_off_c, 0, 45, 64
1, 12336, Note_on_c, 0, 47, 100
1, 12383, Note_off_c, 0, 47, 64
1, 12384, Note_on_c, 0, 48, 100
1, 12431, Note_off_c, 0, 48, 64
1, 12432, Note_on_c, 0, 52, 100
1, 12479, Note_off_c, 0, 52, 64
1, 12480, Note_on_c, 0, 45, 100
1, 12527, Note_off_c, 0, 45, 64
1, 12528, Note_on_c, 0, 47, 100
1, 12575, Note_off_c, 0, 47, 64
1, 12576, Note_on_c, 1, 72, 100
1, 12576, Note_on_c, 1, 76, 100
1, 12576, Note_on_c, 0, 48, 100
1, 12623, Note_off_c, 0, 48, 64
1, 12624, Note_on_c, 0, 52, 100
1, 12671, Note_off_c, 1, 76, 64
1, 12671, Note_off_c, 1, 72, 64
1, 12671, Note_off_c, 0, 52, 64
1, 12672, Note_on_c, 1, 77, 100
1, 12672, Note_on_c, 1, 72, 100
1, 12672, Note_on_c, 0, 45, 100
1, 12719, Note_off_c, 1, 72, 64
1, 12719, Note_off_c, 1, 77, 64
1, 12719, Note_off_c, 0, 45, 64
1, 12720, Note_on_c, 0, 47, 100
1, 12767, Note_off_c, 0, 47, 64
1, 12768, Note_on_c, 0, 48, 100
1, 12815, Note_off_c, 0, 48, 64
1, 12816, Note_on_c, 0, 53, 100
1, 12863, Note_off_c, 0, 53, 64
1, 12864, Note_on_c, 0, 45, 100
1, 12911, Note_off_c, 0, 45, 64
1, 12912, Note_on_c, 0, 47, 100
1, 12959, Note_off_c, 0, 47, 64
1, 12960, Note_on_c, 1, 77, 100
1, 12960, Note_on_c, 1, 72, 100
1, 12960, Note_on_c, 0, 48, 100
1, 13007, Note_off_c, 0, 48, 64
1, 13008, Note_on_c, 0, 53, 100
1, 13055, Note_off_c, 1, 72, 64
1, 13055, Note_off_c, 1, 77, 64
1, 13055, Note_off_c, 0, 53, 64
1, 13056, Note_on_c, 1, 78, 100
1, 13056, Note_on_c, 1, 72, 100
1, 13056, Note_on_c, 0, 45, 100
1, 13103, Note_off_c, 1, 72, 64
1, 13103, Note_off_c, 1, 78, 64
1, 13103, Note_off_c, 0, 45, 64
1, 13104, Note_on_c, 0, 47, 100
1, 13151, Note_off_c, 0, 47, 64
1, 13152, Note_on_c, 0, 48, 100
1, 13199, Note_off_c, 0, 48, 64
1, 13200, Note_on_c, 0, 54, 100
1, 13247, Note_off_c, 0, 54, 64
1, 13248, Note_on_c, 0, 45, 100
1, 13295, Note_off_c, 0, 45, 64
1, 13296, Note_on_c, 0, 47, 100
1, 13343, Note_off_c, 0, 47, 64
1, 13344, Note_on_c, 1, 78, 100
1, 13344, Note_on_c, 1, 72, 100
1, 13344, Note_on_c, 0, 48, 100
1, 13391, Note_off_c, 0, 48, 64
1, 13392, Note_on_c, 0, 54, 100
1, 13439, Note_off_c, 1, 72, 64
1, 13439, Note_off_c, 1, 78, 64
1, 13439, Note_off_c, 0, 54, 64
1, 13440, Note_on_c, 1, 77, 100
1, 13440, Note_on_c, 1, 72, 100
1, 13440, Note_on_c, 0, 45, 100
1, 13487, Note_off_c, 1, 72, 64
1, 13487, Note_off_c, 1, 77, 64
1, 13487, Note_off_c, 0, 45, 64
1, 13488, Note_on_c, 0, 47, 100
1, 13535, Note_off_c, 0, 47, 64
1, 13536, Note_on_c, 0, 48, 100
1, 13583, Note_off_c, 0, 48, 64
1, 13584, Note_on_c, 0, 53, 100
1, 13631, Note_off_c, 0, 53, 64
1, 13632, Note_on_c, 0, 45, 100
1, 13679, Note_off_c, 0, 45, 64
1, 13680, Note_on_c, 0, 47, 100
1, 13727, Note_off_c, 0, 47, 64
1, 13728, Note_on_c, 1, 72, 100
1, 13728, Note_on_c, 1, 77, 100
1, 13728, Note_on_c, 0, 48, 100
1, 13775, Note_off_c, 0, 48, 64
1, 13776, Note_on_c, 0, 53, 100
1, 13823, Note_off_c, 1, 77, 64
1, 13823, Note_off_c, 1, 72, 64
1, 13823, Note_off_c, 0, 53, 64
1, 13824, Note_on_c, 1, 76, 100
1, 13824, Note_on_c, 1, 72, 100
1, 13824, Note_on_c, 0, 45, 100
1, 13871, Note_off_c, 1, 72, 64
1, 13871, Note_off_c, 1, 76, 64
1, 13871, Note_off_c, 0, 45, 64
1, 13872, Note_on_c, 0, 47, 100
1, 13919, Note_off_c, 0, 47, 64
1, 13920, Note_on_c, 0, 48, 100
1, 13967, Note_off_c, 0, 48, 64
1, 13968, Note_on_c, 0, 52, 100
1, 14015, Note_off_c, 0, 52, 64
1, 14016, Note_on_c, 0, 45, 100
1, 14063, Note_off_c, 0, 45, 64
1, 14064, Note_on_c, 0, 47, 100
1, 14111, Note_off_c, 0, 47, 64
1, 14112, Note_on_c, 1, 76, 100
1, 14112, Note_on_c, 1, 72, 100
1, 14112, Note_on_c, 0, 48, 100
1, 14159, Note_off_c, 0, 48, 64
1, 14160, Note_on_c, 0, 52, 100
1, 14207, Note_off_c, 1, 72, 64
1, 14207, Note_off_c, 1, 76, 64
1, 14207, Note_off_c, 0, 52, 64
1, 14208, Note_on_c, 1, 77, 100
1, 14208, Note_on_c, 1, 72, 100
1, 14208, Note_on_c, 0, 45, 100
1, 14255, Note_off_c, 1, 72, 64
1, 14255, Note_off_c, 1, 77, 64
1, 14255, Note_off_c, 0, 45, 64
1, 14256, Note_on_c, 0, 47, 100
1, 14303, Note_off_c, 0, 47, 64
1, 14304, Note_on_c, 0, 48, 100
1, 14351, Note_off_c, 0, 48, 64
1, 14352, Note_on_c, 0, 53, 100
1, 14399, Note_off_c, 0, 53, 64
1, 14400, Note_on_c, 0, 45, 100
1, 14447, Note_off_c, 0, 45, 64
1, 14448, Note_on_c, 0, 47, 100
1, 14495, Note_off_c, 0, 47, 64
1, 14496, Note_on_c, 1, 77, 100
1, 14496, Note_on_c, 1, 72, 100
1, 14496, Note_on_c, 0, 48, 100
1, 14543, Note_off_c, 0, 48, 64
1, 14544, Note_on_c, 0, 53, 100
1, 14591, Note_off_c, 1, 72, 64
1, 14591, Note_off_c, 1, 77, 64
1, 14591, Note_off_c, 0, 53, 64
1, 14592, Note_on_c, 1, 78, 100
1, 14592, Note_on_c, 1, 72, 100
1, 14592, Note_on_c, 0, 45, 100
1, 14639, Note_off_c, 1, 72, 64
1, 14639, Note_off_c, 1, 78, 64
1, 14639, Note_off_c, 0, 45, 64
1, 14640, Note_on_c, 0, 47, 100
1, 14687, Note_off_c, 0, 47, 64
1, 14688, Note_on_c, 0, 48, 100
1, 14735, Note_off_c, 0, 48, 64
1, 14736, Note_on_c, 0, 54, 100
1, 14783, Note_off_c, 0, 54, 64
1, 14784, Note_on_c, 0, 45, 100
1, 14831, Note_off_c, 0, 45, 64
1, 14832, Note_on_c, 0, 47, 100
1, 14879, Note_off_c, 0, 47, 64
1, 14880, Note_on_c, 1, 78, 100
1, 14880, Note_on_c, 1, 72, 100
1, 14880, Note_on_c, 0, 48, 100
1, 14927, Note_off_c, 0, 48, 64
1, 14928, Note_on_c, 0, 54, 100
1, 14975, Note_off_c, 1, 72, 64
1, 14975, Note_off_c, 1, 78, 64
1, 14975, Note_off_c, 0, 54, 64
1, 14976, Note_on_c, 1, 77, 100
1, 14976, Note_on_c, 1, 72, 100
1, 14976, Note_on_c, 0, 45, 100
1, 15023, Note_off_c, 1, 72, 64
1, 15023, Note_off_c, 1, 77, 64
1, 15023, Note_off_c, 0, 45, 64
1, 15024, Note_on_c, 0, 47, 100
1, 15071, Note_off_c, 0, 47, 64
1, 15072, Note_on_c, 0, 48, 100
1, 15119, Note_off_c, 0, 48, 64
1, 15120, Note_on_c, 0, 53, 100
1, 15167, Note_off_c, 0, 53, 64
1, 15168, Note_on_c, 0, 45, 100
1, 15215, Note_off_c, 0, 45, 64
1, 15216, Note_on_c, 0, 47, 100
1, 15263, Note_off_c, 0, 47, 64
1, 15264, Note_on_c, 1, 77, 100
1, 15264, Note_on_c, 1, 72, 100
1, 15264, Note_on_c, 0, 48, 100
1, 15311, Note_off_c, 0, 48, 64
1, 15312, Note_on_c, 0, 53, 100
1, 15359, Note_off_c, 1, 72, 64
1, 15359, Note_off_c, 1, 77, 64
1, 15359, Note_off_c, 0, 53, 64
1, 15360, Note_on_c, 9, 57, 100
1, 15360, Note_on_c, 9, 44, 100
1, 15360, Note_on_c, 9, 36, 100
1, 15360, Note_on_c, 1, 83, 100
1, 15360, Note_on_c, 0, 35, 100
1, 15383, Note_off_c, 9, 36, 64
1, 15383, Note_off_c, 9, 57, 64
1, 15383, Note_off_c, 9, 44, 64
1, 15383, Note_off_c, 1, 83, 64
1, 15384, Note_on_c, 1, 83, 100
1, 15407, Note_off_c, 1, 83, 64
1, 15407, Note_off_c, 0, 35, 64
1, 15408, Note_on_c, 9, 44, 100
1, 15408, Note_on_c, 1, 83, 100
1, 15408, Note_on_c, 0, 35, 100
1, 15431, Note_off_c, 9, 44, 64
1, 15431, Note_off_c, 1, 83, 64
1, 15432, Note_on_c, 9, 44, 100
1, 15432, Note_on_c, 1, 83, 100
1, 15455, Note_off_c, 9, 44, 64
1, 15455, Note_off_c, 1, 83, 64
1, 15455, Note_off_c, 0, 35, 64
1, 15456, Note_on_c, 9, 44, 100
1, 15456, Note_on_c, 9, 38, 100
1, 15456, Note_on_c, 1, 79, 100
1, 15456, Note_on_c, 0, 43, 100
1, 15479, Note_off_c, 9, 38, 64
1, 15479, Note_off_c, 9, 44, 64
1, 15479, Note_off_c, 1, 79, 64
1, 15480, Note_on_c, 1, 79, 100
1, 15503, Note_off_c, 1, 79, 64
1, 15503, Note_off_c, 0, 43, 64
1, 15504, Note_on_c, 9, 44, 100
1, 15504, Note_on_c, 1, 79, 100
1, 15504, Note_on_c, 0, 35, 100
1, 15527, Note_off_c, 9, 44, 64
1, 15527, Note_off_c, 1, 79, 64
1, 15528, Note_on_c, 1, 79, 100
1, 15551, Note_off_c, 1, 79, 64
1, 15551, Note_off_c, 0, 35, 64
1, 15552, Note_on_c, 9, 44, 100
1, 15552, Note_on_c, 9, 36, 100
1, 15552, Note_on_c, 1, 76, 100
1, 15552, Note_on_c, 0, 35, 100
1, 15575, Note_off_c, 9, 44, 64
1, 15575, Note_off_c, 9, 36, 64
1, 15575, Note_off_c, 1, 76, 64
1, 15576, Note_on_c, 1, 76, 100
1, 15599, Note_off_c, 1, 76, 64
1, 15599, Note_off_c, 0, 35, 64
1, 15600, Note_on_c, 9, 44, 100
1, 15600, Note_on_c, 1, 76, 100
1, 15600, Note_on_c, 0, 43, 100
1, 15623, Note_off_c, 9, 44, 64
1, 15623, Note_off_c, 1, 76, 64
1, 15624, Note_on_c, 9, 44, 100
1, 15624, Note_on_c, 1, 76, 100
1, 15647, Note_off_c, 9, 44, 64
1, 15647, Note_off_c, 1, 76, 64
1, 15647, Note_off_c, 0, 43, 64
1, 15648, Note_on_c, 9, 44, 100
1, 15648, Note_on_c, 9, 38, 100
1, 15648, Note_on_c, 1, 72, 100
1, 15648, Note_on_c, 0, 35, 100
1, 15671, Note_off_c, 9, 38, 64
1, 15671, Note_off_c, 9, 44, 64
1, 15671, Note_off_c, 1, 72, 64
1, 15672, Note_on_c, 1, 72, 100
1, 15695, Note_off_c, 1, 72, 64
1, 15695, Note_off_c, 0, 35, 64
1, 15696, Note_on_c, 9, 44, 100
1, 15696, Note_on_c, 9, 36, 100
1, 15696, Note_on_c, 1, 72, 100
1, 15696, Note_on_c, 0, 43, 100
1, 15719, Note_off_c, 9, 44, 64
1, 15719, Note_off_c, 9, 36, 64
1, 15719, Note_off_c, 1, 72, 64
1, 15720, Note_on_c, 1, 72, 100
1, 15743, Note_off_c, 1, 72, 64
1, 15743, Note_off_c, 0, 43, 64
1, 15744, Note_on_c, 9, 44, 100
1, 15744, Note_on_c, 9, 36, 100
1, 15744, Note_on_c, 1, 71, 100
1, 15744, Note_on_c, 0, 36, 100
1, 15767, Note_off_c, 9, 36, 64
1, 15767, Note_off_c, 9, 44, 64
1, 15767, Note_off_c, 1, 71, 64
1, 15768, Note_on_c, 1, 71, 100
1, 15791, Note_off_c, 1, 71, 64
1, 15791, Note_off_c, 0, 36, 64
1, 15792, Note_on_c, 9, 44, 100
1, 15792, Note_on_c, 1, 71, 100
1, 15792, Note_on_c, 0, 36, 100
1, 15815, Note_off_c, 9, 44, 64
1, 15815, Note_off_c, 1, 71, 64
1, 15816, Note_on_c, 9, 44, 100
1, 15816, Note_on_c, 1, 71, 100
1, 15839, Note_off_c, 9, 44, 64
1, 15839, Note_off_c, 1, 71, 64
1, 15839, Note_off_c, 0, 36, 64
1, 15840, Note_on_c, 9, 44, 100
1, 15840, Note_on_c, 9, 38, 100
1, 15840, Note_on_c, 1, 67, 100
1, 15840, Note_on_c, 0, 43, 100
1, 15863, Note_off_c, 9, 38, 64
1, 15863, Note_off_c, 9, 44, 64
1, 15863, Note_off_c, 1, 67, 64
1, 15864, Note_on_c, 1, 67, 100
1, 15887, Note_off_c, 1, 67, 64
1, 15887, Note_off_c, 0, 43, 64
1, 15888, Note_on_c, 9, 44, 100
1, 15888, Note_on_c, 1, 67, 100
1, 15888, Note_on_c, 0, 36, 100
1, 15911, Note_off_c, 9, 44, 64
1, 15911, Note_off_c, 1, 67, 64
1, 15912, Note_on_c, 1, 67, 100
1, 15935, Note_off_c, 1, 67, 64
1, 15935, Note_off_c, 0, 36, 64
1, 15936, Note_on_c, 9, 44, 100
1, 15936, Note_on_c, 9, 36, 100
1, 15936, Note_on_c, 1, 64, 100
1, 15936, Note_on_c, 0, 36, 100
1, 15959, Note_off_c, 9, 36, 64
1, 15959, Note_off_c, 9, 44, 64
1, 15959, Note_off_c, 1, 64, 64
1, 15960, Note_on_c, 1, 64, 100
1, 15983, Note_off_c, 1, 64, 64
1, 15983, Note_off_c, 0, 36, 64
1, 15984, Note_on_c, 9, 44, 100
1, 15984, Note_on_c, 1, 64, 100
1, 15984, Note_on_c, 0, 43, 100
1, 16007, Note_off_c, 9, 44, 64
1, 16007, Note_off_c, 1, 64, 64
1, 16008, Note_on_c, 9, 44, 100
1, 16008, Note_on_c, 1, 64, 100
1, 16031, Note_off_c, 9, 44, 64
1, 16031, Note_off_c, 1, 64, 64
1, 16031, Note_off_c, 0, 43, 64
1, 16032, Note_on_c, 9, 44, 100
1, 16032, Note_on_c, 9, 38, 100
1, 16032, Note_on_c, 1, 60, 100
1, 16032, Note_on_c, 0, 36, 100
1, 16055, Note_off_c, 9, 38, 64
1, 16055, Note_off_c, 9, 44, 64
1, 16055, Note_off_c, 1, 60, 64
1, 16056, Note_on_c, 1, 60, 100
1, 16079, Note_off_c, 1, 60, 64
1, 16079, Note_off_c, 0, 36, 64
1, 16080, Note_on_c, 9, 44, 100
1, 16080, Note_on_c, 9, 36, 100
1, 16080, Note_on_c, 1, 60, 100
1, 16080, Note_on_c, 0, 43, 100
1, 16103, Note_off_c, 9, 36, 64
1, 16103, Note_off_c, 9, 44, 64
1, 16103, Note_off_c, 1, 60, 64
1, 16104, Note_on_c, 1, 60, 100
1, 16127, Note_off_c, 1, 60, 64
1, 16127, Note_off_c, 0, 43, 64
1, 16128, Note_on_c, 9, 44, 100
1, 16128, Note_on_c, 9, 36, 100
1, 16128, Note_on_c, 1, 61, 100
1, 16128, Note_on_c, 0, 37, 100
1, 16151, Note_off_c, 9, 36, 64
1, 16151, Note_off_c, 9, 44, 64
1, 16151, Note_off_c, 1, 61, 64
1, 16152, Note_on_c, 1, 61, 100
1, 16175, Note_off_c, 1, 61, 64
1, 16175, Note_off_c, 0, 37, 64
1, 16176, Note_on_c, 9, 44, 100
1, 16176, Note_on_c, 1, 61, 100
1, 16176, Note_on_c, 0, 37, 100
1, 16199, Note_off_c, 9, 44, 64
1, 16199, Note_off_c, 1, 61, 64
1, 16200, Note_on_c, 9, 44, 100
1, 16200, Note_on_c, 1, 61, 100
1, 16223, Note_off_c, 9, 44, 64
1, 16223, Note_off_c, 1, 61, 64
1, 16223, Note_off_c, 0, 37, 64
1, 16224, Note_on_c, 9, 44, 100
1, 16224, Note_on_c, 9, 38, 100
1, 16224, Note_on_c, 1, 64, 100
1, 16224, Note_on_c, 0, 43, 100
1, 16247, Note_off_c, 9, 38, 64
1, 16247, Note_off_c, 9, 44, 64
1, 16247, Note_off_c, 1, 64, 64
1, 16248, Note_on_c, 1, 64, 100
1, 16271, Note_off_c, 1, 64, 64
1, 16271, Note_off_c, 0, 43, 64
1, 16272, Note_on_c, 9, 44, 100
1, 16272, Note_on_c, 1, 64, 100
1, 16272, Note_on_c, 0, 37, 100
1, 16295, Note_off_c, 9, 44, 64
1, 16295, Note_off_c, 1, 64, 64
1, 16296, Note_on_c, 1, 64, 100
1, 16319, Note_off_c, 1, 64, 64
1, 16319, Note_off_c, 0, 37, 64
1, 16320, Note_on_c, 9, 44, 100
1, 16320, Note_on_c, 9, 36, 100
1, 16320, Note_on_c, 1, 67, 100
1, 16320, Note_on_c, 0, 37, 100
1, 16343, Note_off_c, 9, 36, 64
1, 16343, Note_off_c, 9, 44, 64
1, 16343, Note_off_c, 1, 67, 64
1, 16344, Note_on_c, 1, 67, 100
1, 16367, Note_off_c, 1, 67, 64
1, 16367, Note_off_c, 0, 37, 64
1, 16368, Note_on_c, 9, 44, 100
1, 16368, Note_on_c, 1, 67, 100
1, 16368, Note_on_c, 0, 43, 100
1, 16391, Note_off_c, 9, 44, 64
1, 16391, Note_off_c, 1, 67, 64
1, 16392, Note_on_c, 9, 44, 100
1, 16392, Note_on_c, 1, 67, 100
1, 16415, Note_off_c, 9, 44, 64
1, 16415, Note_off_c, 1, 67, 64
1, 16415, Note_off_c, 0, 43, 64
1, 16416, Note_on_c, 9, 44, 100
1, 16416, Note_on_c, 9, 38, 100
1, 16416, Note_on_c, 1, 71, 100
1, 16416, Note_on_c, 0, 37, 100
1, 16439, Note_off_c, 9, 38, 64
1, 16439, Note_off_c, 9, 44, 64
1, 16439, Note_off_c, 1, 71, 64
1, 16440, Note_on_c, 1, 71, 100
1, 16463, Note_off_c, 1, 71, 64
1, 16463, Note_off_c, 0, 37, 64
1, 16464, Note_on_c, 9, 44, 100
1, 16464, Note_on_c, 9, 36, 100
1, 16464, Note_on_c, 1, 71, 100
1, 16464, Note_on_c, 0, 43, 100
1, 16487, Note_off_c, 9, 36, 64
1, 16487, Note_off_c, 9, 44, 64
1, 16487, Note_off_c, 1, 71, 64
1, 16488, Note_on_c, 1, 71, 100
1, 16511, Note_off_c, 1, 71, 64
1, 16511, Note_off_c, 0, 43, 64
1, 16512, Note_on_c, 9, 44, 100
1, 16512, Note_on_c, 9, 36, 100
1, 16512, Note_on_c, 1, 72, 100
1, 16512, Note_on_c, 0, 36, 100
1, 16535, Note_off_c, 9, 36, 64
1, 16535, Note_off_c, 9, 44, 64
1, 16535, Note_off_c, 1, 72, 64
1, 16536, Note_on_c, 1, 64, 100
1, 16559, Note_off_c, 1, 64, 64
1, 16559, Note_off_c, 0, 36, 64
1, 16560, Note_on_c, 9, 44, 100
1, 16560, Note_on_c, 1, 66, 100
1, 16560, Note_on_c, 0, 36, 100
1, 16583, Note_off_c, 9, 44, 64
1, 16583, Note_off_c, 1, 66, 64
1, 16584, Note_on_c, 9, 44, 100
1, 16584, Note_on_c, 1, 67, 100
1, 16607, Note_off_c, 9, 44, 64
1, 16607, Note_off_c, 1, 67, 64
1, 16607, Note_off_c, 0, 36, 64
1, 16608, Note_on_c, 9, 44, 100
1, 16608, Note_on_c, 9, 38, 100
1, 16608, Note_on_c, 1, 72, 100
1, 16608, Note_on_c, 0, 43, 100
1, 16631, Note_off_c, 9, 38, 64
1, 16631, Note_off_c, 9, 44, 64
1, 16631, Note_off_c, 1, 72, 64
1, 16632, Note_on_c, 1, 67, 100
1, 16655, Note_off_c, 1, 67, 64
1, 16655, Note_off_c, 0, 43, 64
1, 16656, Note_on_c, 9, 44, 100
1, 16656, Note_on_c, 1, 72, 100
1, 16656, Note_on_c, 0, 36, 100
1, 16679, Note_off_c, 9, 44, 64
1, 16679, Note_off_c, 1, 72, 64
1, 16680, Note_on_c, 1, 74, 100
1, 16703, Note_off_c, 1, 74, 64
1, 16703, Note_off_c, 0, 36, 64
1, 16704, Note_on_c, 9, 44, 100
1, 16704, Note_on_c, 9, 36, 100
1, 16704, Note_on_c, 1, 76, 100
1, 16704, Note_on_c, 0, 36, 100
1, 16727, Note_off_c, 9, 36, 64
1, 16727, Note_off_c, 9, 44, 64
1, 16727, Note_off_c, 1, 76, 64
1, 16728, Note_on_c, 1, 72, 100
1, 16751, Note_off_c, 1, 72, 64
1, 16751, Note_off_c, 0, 36, 64
1, 16752, Note_on_c, 9, 44, 100
1, 16752, Note_on_c, 1, 74, 100
1, 16752, Note_on_c, 0, 43, 100
1, 16775, Note_off_c, 9, 44, 64
1, 16775, Note_off_c, 1, 74, 64
1, 16776, Note_on_c, 9, 44, 100
1, 16776, Note_on_c, 1, 76, 100
1, 16799, Note_off_c, 9, 44, 64
1, 16799, Note_off_c, 1, 76, 64
1, 16799, Note_off_c, 0, 43, 64
1, 16800, Note_on_c, 9, 44, 100
1, 16800, Note_on_c, 9, 38, 100
1, 16800, Note_on_c, 1, 79, 100
1, 16800, Note_on_c, 0, 36, 100
1, 16823, Note_off_c, 9, 38, 64
1, 16823, Note_off_c, 9, 44, 64
1, 16823, Note_off_c, 1, 79, 64
1, 16824, Note_on_c, 1, 76, 100
1, 16847, Note_off_c, 1, 76, 64
1, 16847, Note_off_c, 0, 36, 64
1, 16848, Note_on_c, 9, 44, 100
1, 16848, Note_on_c, 9, 36, 100
1, 16848, Note_on_c, 1, 79, 100
1, 16848, Note_on_c, 0, 43, 100
1, 16871, Note_off_c, 9, 36, 64
1, 16871, Note_off_c, 9, 44, 64
1, 16871, Note_off_c, 1, 79, 64
1, 16872, Note_on_c, 1, 84, 100
1, 16895, Note_off_c, 1, 84, 64
1, 16895, Note_off_c, 0, 43, 64
1, 16896, Note_on_c, 9, 44, 100
1, 16896, Note_on_c, 9, 36, 100
1, 16896, Note_on_c, 1, 83, 100
1, 16896, Note_on_c, 0, 35, 100
1, 16919, Note_off_c, 9, 36, 64
1, 16919, Note_off_c, 9, 44, 64
1, 16919, Note_off_c, 1, 83, 64
1, 16920, Note_on_c, 1, 83, 100
1, 16943, Note_off_c, 1, 83, 64
1, 16943, Note_off_c, 0, 35, 64
1, 16944, Note_on_c, 9, 44, 100
1, 16944, Note_on_c, 1, 83, 100
1, 16944, Note_on_c, 0, 35, 100
1, 16967, Note_off_c, 9, 44, 64
1, 16967, Note_off_c, 1, 83, 64
1, 16968, Note_on_c, 9, 44, 100
1, 16968, Note_on_c, 1, 83, 100
1, 16991, Note_off_c, 9, 44, 64
1, 16991, Note_off_c, 1, 83, 64
1, 16991, Note_off_c, 0, 35, 64
1, 16992, Note_on_c, 9, 44, 100
1, 16992, Note_on_c, 9, 38, 100
1, 16992, Note_on_c, 1, 79, 100
1, 16992, Note_on_c, 0, 43, 100
1, 17015, Note_off_c, 9, 38, 64
1, 17015, Note_off_c, 9, 44, 64
1, 17015, Note_off_c, 1, 79, 64
1, 17016, Note_on_c, 1, 79, 100
1, 17039, Note_off_c, 1, 79, 64
1, 17039, Note_off_c, 0, 43, 64
1, 17040, Note_on_c, 9, 44, 100
1, 17040, Note_on_c, 1, 79, 100
1, 17040, Note_on_c, 0, 35, 100
1, 17063, Note_off_c, 9, 44, 64
1, 17063, Note_off_c, 1, 79, 64
1, 17064, Note_on_c, 1, 79, 100
1, 17087, Note_off_c, 1, 79, 64
1, 17087, Note_off_c, 0, 35, 64
1, 17088, Note_on_c, 9, 44, 100
1, 17088, Note_on_c, 9, 36, 100
1, 17088, Note_on_c, 1, 76, 100
1, 17088, Note_on_c, 0, 35, 100
1, 17111, Note_off_c, 9, 36, 64
1, 17111, Note_off_c, 9, 44, 64
1, 17111, Note_off_c, 1, 76, 64
1, 17112, Note_on_c, 1, 76, 100
1, 17135, Note_off_c, 1, 76, 64
1, 17135, Note_off_c, 0, 35, 64
1, 17136, Note_on_c, 9, 44, 100
1, 17136, Note_on_c, 1, 76, 100
1, 17136, Note_on_c, 0, 43, 100
1, 17159, Note_off_c, 9, 44, 64
1, 17159, Note_off_c, 1, 76, 64
1, 17160, Note_on_c, 9, 44, 100
1, 17160, Note_on_c, 1, 76, 100
1, 17183, Note_off_c, 9, 44, 64
1, 17183, Note_off_c, 1, 76, 64
1, 17183, Note_off_c, 0, 43, 64
1, 17184, Note_on_c, 9, 44, 100
1, 17184, Note_on_c, 9, 38, 100
1, 17184, Note_on_c, 1, 72, 100
1, 17184, Note_on_c, 0, 35, 100
1, 17207, Note_off_c, 9, 38, 64
1, 17207, Note_off_c, 9, 44, 64
1, 17207, Note_off_c, 1, 72, 64
1, 17208, Note_on_c, 1, 72, 100
1, 17231, Note_off_c, 1, 72, 64
1, 17231, Note_off_c, 0, 35, 64
1, 17232, Note_on_c, 9, 44, 100
1, 17232, Note_on_c, 9, 36, 100
1, 17232, Note_on_c, 1, 72, 100
1, 17232, Note_on_c, 0, 43, 100
1, 17255, Note_off_c, 9, 36, 64
1, 17255, Note_off_c, 9, 44, 64
1, 17255, Note_off_c, 1, 72, 64
1, 17256, Note_on_c, 1, 72, 100
1, 17279, Note_off_c, 1, 72, 64
1, 17279, Note_off_c, 0, 43, 64
1, 17280, Note_on_c, 9, 44, 100
1, 17280, Note_on_c, 9, 36, 100
1, 17280, Note_on_c, 1, 71, 100
1, 17280, Note_on_c, 0, 36, 100
1, 17303, Note_off_c, 9, 36, 64
1, 17303, Note_off_c, 9, 44, 64
1, 17303, Note_off_c, 1, 71, 64
1, 17304, Note_on_c, 1, 71, 100
1, 17327, Note_off_c, 1, 71, 64
1, 17327, Note_off_c, 0, 36, 64
1, 17328, Note_on_c, 9, 44, 100
1, 17328, Note_on_c, 1, 71, 100
1, 17328, Note_on_c, 0, 36, 100
1, 17351, Note_off_c, 9, 44, 64
1, 17351, Note_off_c, 1, 71, 64
1, 17352, Note_on_c, 9, 44, 100
1, 17352, Note_on_c, 1, 71, 100
1, 17375, Note_off_c, 9, 44, 64
1, 17375, Note_off_c, 1, 71, 64
1, 17375, Note_off_c, 0, 36, 64
1, 17376, Note_on_c, 9, 44, 100
1, 17376, Note_on_c, 9, 38, 100
1, 17376, Note_on_c, 1, 67, 100
1, 17376, Note_on_c, 0, 43, 100
1, 17399, Note_off_c, 9, 38, 64
1, 17399, Note_off_c, 9, 44, 64
1, 17399, Note_off_c, 1, 67, 64
1, 17400, Note_on_c, 1, 67, 100
1, 17423, Note_off_c, 1, 67, 64
1, 17423, Note_off_c, 0, 43, 64
1, 17424, Note_on_c, 9, 44, 100
1, 17424, Note_on_c, 1, 67, 100
1, 17424, Note_on_c, 0, 36, 100
1, 17447, Note_off_c, 9, 44, 64
1, 17447, Note_off_c, 1, 67, 64
1, 17448, Note_on_c, 1, 67, 100
1, 17471, Note_off_c, 1, 67, 64
1, 17471, Note_off_c, 0, 36, 64
1, 17472, Note_on_c, 9, 44, 100
1, 17472, Note_on_c, 9, 36, 100
1, 17472, Note_on_c, 1, 64, 100
1, 17472, Note_on_c, 0, 36, 100
1, 17495, Note_off_c, 9, 36, 64
1, 17495, Note_off_c, 9, 44, 64
1, 17495, Note_off_c, 1, 64, 64
1, 17496, Note_on_c, 1, 64, 100
1, 17519, Note_off_c, 1, 64, 64
1, 17519, Note_off_c, 0, 36, 64
1, 17520, Note_on_c, 9, 44, 100
1, 17520, Note_on_c, 1, 64, 100
1, 17520, Note_on_c, 0, 43, 100
1, 17543, Note_off_c, 9, 44, 64
1, 17543, Note_off_c, 1, 64, 64
1, 17544, Note_on_c, 9, 44, 100
1, 17544, Note_on_c, 1, 64, 100
1, 17567, Note_off_c, 9, 44, 64
1, 17567, Note_off_c, 1, 64, 64
1, 17567, Note_off_c, 0, 43, 64
1, 17568, Note_on_c, 9, 44, 100
1, 17568, Note_on_c, 9, 38, 100
1, 17568, Note_on_c, 1, 60, 100
1, 17568, Note_on_c, 0, 36, 100
1, 17591, Note_off_c, 9, 38, 64
1, 17591, Note_off_c, 9, 44, 64
1, 17591, Note_off_c, 1, 60, 64
1, 17592, Note_on_c, 1, 60, 100
1, 17615, Note_off_c, 1, 60, 64
1, 17615, Note_off_c, 0, 36, 64
1, 17616, Note_on_c, 9, 44, 100
1, 17616, Note_on_c, 9, 36, 100
1, 17616, Note_on_c, 1, 60, 100
1, 17616, Note_on_c, 0, 43, 100
1, 17639, Note_off_c, 9, 36, 64
1, 17639, Note_off_c, 9, 44, 64
1, 17639, Note_off_c, 1, 60, 64
1, 17640, Note_on_c, 1, 60, 100
1, 17663, Note_off_c, 1, 60, 64
1, 17663, Note_off_c, 0, 43, 64
1, 17664, Note_on_c, 9, 44, 100
1, 17664, Note_on_c, 9, 36, 100
1, 17664, Note_on_c, 1, 61, 100
1, 17664, Note_on_c, 0, 37, 100
1, 17687, Note_off_c, 9, 36, 64
1, 17687, Note_off_c, 9, 44, 64
1, 17687, Note_off_c, 1, 61, 64
1, 17688, Note_on_c, 1, 61, 100
1, 17711, Note_off_c, 1, 61, 64
1, 17711, Note_off_c, 0, 37, 64
1, 17712, Note_on_c, 9, 44, 100
1, 17712, Note_on_c, 1, 61, 100
1, 17712, Note_on_c, 0, 37, 100
1, 17735, Note_off_c, 9, 44, 64
1, 17735, Note_off_c, 1, 61, 64
1, 17736, Note_on_c, 9, 44, 100
1, 17736, Note_on_c, 1, 61, 100
1, 17759, Note_off_c, 9, 44, 64
1, 17759, Note_off_c, 1, 61, 64
1, 17759, Note_off_c, 0, 37, 64
1, 17760, Note_on_c, 9, 44, 100
1, 17760, Note_on_c, 9, 38, 100
1, 17760, Note_on_c, 1, 64, 100
1, 17760, Note_on_c, 0, 43, 100
1, 17783, Note_off_c, 9, 38, 64
1, 17783, Note_off_c, 9, 44, 64
1, 17783, Note_off_c, 1, 64, 64
1, 17784, Note_on_c, 1, 64, 100
1, 17807, Note_off_c, 1, 64, 64
1, 17807, Note_off_c, 0, 43, 64
1, 17808, Note_on_c, 9, 44, 100
1, 17808, Note_on_c, 1, 64, 100
1, 17808, Note_on_c, 0, 37, 100
1, 17831, Note_off_c, 9, 44, 64
1, 17831, Note_off_c, 1, 64, 64
1, 17832, Note_on_c, 1, 64, 100
1, 17855, Note_off_c, 1, 64, 64
1, 17855, Note_off_c, 0, 37, 64
1, 17856, Note_on_c, 9, 44, 100
1, 17856, Note_on_c, 9, 36, 100
1, 17856, Note_on_c, 1, 67, 100
1, 17856, Note_on_c, 0, 37, 100
1, 17879, Note_off_c, 9, 36, 64
1, 17879, Note_off_c, 9, 44, 64
1, 17879, Note_off_c, 1, 67, 64
1, 17880, Note_on_c, 1, 67, 100
1, 17903, Note_off_c, 1, 67, 64
1, 17903, Note_off_c, 0, 37, 64
1, 17904, Note_on_c, 9, 44, 100
1, 17904, Note_on_c, 1, 67, 100
1, 17904, Note_on_c, 0, 43, 100
1, 17927, Note_off_c, 9, 44, 64
1, 17927, Note_off_c, 1, 67, 64
1, 17928, Note_on_c, 9, 44, 100
1, 17928, Note_on_c, 1, 67, 100
1, 17951, Note_off_c, 9, 44, 64
1, 17951, Note_off_c, 1, 67, 64
1, 17951, Note_off_c, 0, 43, 64
1, 17952, Note_on_c, 9, 44, 100
1, 17952, Note_on_c, 9, 38, 100
1, 17952, Note_on_c, 1, 71, 100
1, 17952, Note_on_c, 0, 37, 100
1, 17975, Note_off_c, 9, 38, 64
1, 17975, Note_off_c, 9, 44, 64
1, 17975, Note_off_c, 1, 71, 64
1, 17976, Note_on_c, 1, 71, 100
1, 17999, Note_off_c, 1, 71, 64
1, 17999, Note_off_c, 0, 37, 64
1, 18000, Note_on_c, 9, 44, 100
1, 18000, Note_on_c, 9, 36, 100
1, 18000, Note_on_c, 1, 71, 100
1, 18000, Note_on_c, 0, 43, 100
1, 18023, Note_off_c, 9, 36, 64
1, 18023, Note_off_c, 9, 44, 64
1, 18023, Note_off_c, 1, 71, 64
1, 18024, Note_on_c, 1, 71, 100
1, 18047, Note_off_c, 1, 71, 64
1, 18047, Note_off_c, 0, 43, 64
1, 18048, Note_on_c, 9, 44, 100
1, 18048, Note_on_c, 9, 36, 100
1, 18048, Note_on_c, 1, 72, 100
1, 18048, Note_on_c, 0, 36, 100
1, 18071, Note_off_c, 9, 36, 64
1, 18071, Note_off_c, 9, 44, 64
1, 18071, Note_off_c, 1, 72, 64
1, 18072, Note_on_c, 1, 64, 100
1, 18095, Note_off_c, 1, 64, 64
1, 18095, Note_off_c, 0, 36, 64
1, 18096, Note_on_c, 9, 44, 100
1, 18096, Note_on_c, 1, 66, 100
1, 18096, Note_on_c, 0, 36, 100
1, 18119, Note_off_c, 9, 44, 64
1, 18119, Note_off_c, 1, 66, 64
1, 18120, Note_on_c, 9, 44, 100
1, 18120, Note_on_c, 1, 67, 100
1, 18143, Note_off_c, 9, 44, 64
1, 18143, Note_off_c, 1, 67, 64
1, 18143, Note_off_c, 0, 36, 64
1, 18144, Note_on_c, 9, 44, 100
1, 18144, Note_on_c, 9, 38, 100
1, 18144, Note_on_c, 1, 72, 100
1, 18144, Note_on_c, 0, 43, 100
1, 18167, Note_off_c, 9, 38, 64
1, 18167, Note_off_c, 9, 44, 64
1, 18167, Note_off_c, 1, 72, 64
1, 18168, Note_on_c, 1, 67, 100
1, 18191, Note_off_c, 1, 67, 64
1, 18191, Note_off_c, 0, 43, 64
1, 18192, Note_on_c, 9, 44, 100
1, 18192, Note_on_c, 1, 72, 100
1, 18192, Note_on_c, 0, 36, 100
1, 18215, Note_off_c, 9, 44, 64
1, 18215, Note_off_c, 1, 72, 64
1, 18216, Note_on_c, 1, 74, 100
1, 18239, Note_off_c, 1, 74, 64
1, 18239, Note_off_c, 0, 36, 64
1, 18240, Note_on_c, 9, 44, 100
1, 18240, Note_on_c, 9, 36, 100
1, 18240, Note_on_c, 1, 76, 100
1, 18240, Note_on_c, 0, 36, 100
1, 18263, Note_off_c, 9, 36, 64
1, 18263, Note_off_c, 9, 44, 64
1, 18263, Note_off_c, 1, 76, 64
1, 18264, Note_on_c, 1, 72, 100
1, 18287, Note_off_c, 1, 72, 64
1, 18287, Note_off_c, 0, 36, 64
1, 18288, Note_on_c, 9, 44, 100
1, 18288, Note_on_c, 1, 74, 100
1, 18288, Note_on_c, 0, 43, 100
1, 18311, Note_off_c, 9, 44, 64
1, 18311, Note_off_c, 1, 74, 64
1, 18312, Note_on_c, 9, 44, 100
1, 18312, Note_on_c, 1, 76, 100
1, 18335, Note_off_c, 9, 44, 64
1, 18335, Note_off_c, 1, 76, 64
1, 18335, Note_off_c, 0, 43, 64
1, 18336, Note_on_c, 9, 44, 100
1, 18336, Note_on_c, 9, 38, 100
1, 18336, Note_on_c, 1, 79, 100
1, 18336, Note_on_c, 0, 36, 100
1, 18359, Note_off_c, 9, 38, 64
1, 18359, Note_off_c, 9, 44, 64
1, 18359, Note_off_c, 1, 79, 64
1, 18360, Note_on_c, 1, 76, 100
1, 18383, Note_off_c, 1, 76, 64
1, 18383, Note_off_c, 0, 36, 64
1, 18384, Note_on_c, 9, 44, 100
1, 18384, Note_on_c, 9, 36, 100
1, 18384, Note_on_c, 1, 79, 100
1, 18384, Note_on_c, 0, 43, 100
1, 18407, Note_off_c, 9, 36, 64
1, 18407, Note_off_c, 9, 44, 64
1, 18407, Note_off_c, 1, 79, 64
1, 18408, Note_on_c, 1, 84, 100
1, 18431, Note_off_c, 1, 84, 64
1, 18431, Note_off_c, 0, 43, 64
1, 18432, Control_c, 9, 101, 0
1, 18432, Control_c, 9, 100, 0
1, 18432, Control_c, 9, 6, 12
1, 18432, Control_c, 9, 10, 64
1, 18432, Control_c, 9, 7, 100
1, 18432, Pitch_bend_c, 9, 8192
1, 18432, Control_c, 1, 101, 0
1, 18432, Control_c, 1, 100, 0
1, 18432, Control_c, 1, 6, 12
1, 18432, Control_c, 1, 10, 64
1, 18432, Control_c, 1, 7, 100
1, 18432, Pitch_bend_c, 1, 8192
1, 18432, Program_c, 1, 81
1, 18432, Control_c, 0, 101, 0
1, 18432, Control_c, 0, 100, 0
1, 18432, Control_c, 0, 6, 12
1, 18432, Control_c, 0, 10, 64
1, 18432, Control_c, 0, 7, 100
1, 18432, Pitch_bend_c, 0, 8192
1, 18432, Program_c, 0, 39
1, 18433, Control_c, 9, 101, 0
1, 18433, Control_c, 9, 100, 0
1, 18433, Control_c, 9, 6, 12
1, 18433, Control_c, 9, 10, 64
1, 18433, Control_c, 9, 7, 100
1, 18433, Pitch_bend_c, 9, 8192
1, 18433, Control_c, 9, 101, 0
1, 18433, Control_c, 9, 100, 0
1, 18433, Control_c, 9, 6, 12
1, 18433, Control_c, 9, 10, 64
1, 18433, Control_c, 9, 7, 100
1, 18433, Pitch_bend_c, 9, 8192
1, 18433, Control_c, 1, 101, 0
1, 18433, Control_c, 1, 100, 0
1, 18433, Control_c, 1, 6, 12
1, 18433, Control_c, 1, 10, 64
1, 18433, Control_c, 1, 7, 100
1, 18433, Pitch_bend_c, 1, 8192
1, 18433, Program_c, 1, 81
1, 18433, Control_c, 1, 101, 0
1, 18433, Control_c, 1, 100, 0
1, 18433, Control_c, 1, 6, 12
1, 18433, Control_c, 1, 10, 64
1, 18433, Control_c, 1, 7, 100
1, 18433, Pitch_bend_c, 1, 8192
1, 18433, Program_c, 1, 81
1, 18433, Control_c, 0, 101, 0
1, 18433, Control_c, 0, 100, 0
1, 18433, Control_c, 0, 6, 12
1, 18433, Control_c, 0, 10, 64
1, 18433, Control_c, 0, 7, 100
1, 18433, Pitch_bend_c, 0, 8192
1, 18433, Program_c, 0, 39
1, 18433, Control_c, 0, 101, 0
1, 18433, Control_c, 0, 100, 0
1, 18433, Control_c, 0, 6, 12
1, 18433, Control_c, 0, 10, 64
1, 18433, Control_c, 0, 7, 100
1, 18433, Pitch_bend_c, 0, 8192
1, 18433, Program_c, 0, 39
1, 18433, End_track
0, 0, End_of_file