0, 0, Header, 1, 4, 96
1, 0, Start_track
1, 0, Tempo, 342857
1, 0, End_track
2, 0, Start_track
2, 0, Title_t, "Made By"
2, 0, Control_c, 9, 10, 64
2, 0, Control_c, 9, 7, 100
2, 0, Pitch_bend_c, 9, 8192
2, 0, Control_c, 9, 101, 0
2, 0, Control_c, 9, 100, 0
2, 0, Control_c, 9, 6, 12
2, 0, Control_c, 9, 10, 64
2, 0, Control_c, 9, 7, 100
2, 0, Pitch_bend_c, 9, 8192
2, 0, Control_c, 9, 101, 0
2, 0, Control_c, 9, 100, 0
2, 0, Control_c, 9, 6, 12
2, 0, Control_c, 9, 10, 64
2, 0, Control_c, 9, 7, 100
2, 0, Pitch_bend_c, 9, 8192
2, 0, Control_c, 9, 101, 0
2, 0, Control_c, 9, 100, 0
2, 0, Control_c, 9, 6, 12
2, 0, Control_c, 9, 10, 64
2, 0, Control_c, 9, 7, 100
2, 0, Pitch_bend_c, 9, 8192
2, 6144, Note_on_c, 9, 57, 100
2, 6144, Note_on_c, 9, 44, 100
2, 6144, Note_on_c, 9, 36, 100
2, 6167, Note_off_c, 9, 36, 64
2, 6167, Note_off_c, 9, 57, 64
2, 6167, Note_off_c, 9, 44, 64
2, 6192, Note_on_c, 9, 44, 100
2, 6215, Note_off_c, 9, 44, 64
2, 6216, Note_on_c, 9, 44, 100
2, 6239, Note_off_c, 9, 44, 64
2, 6240, Note_on_c, 9, 44, 100
2, 6240, Note_on_c, 9, 38, 100
2, 6263, Note_off_c, 9, 38, 64
2, 6263, Note_off_c, 9, 44, 64
2, 6288, Note_on_c, 9, 44, 100
2, 6311, Note_off_c, 9, 44, 64
2, 6336, Note_on_c, 9, 44, 100
2, 6336, Note_on_c, 9, 36, 100
2, 6359, Note_off_c, 9, 44, 64
2, 6359, Note_off_c, 9, 36, 64
2, 6384, Note_on_c, 9, 44, 100
2, 6407, Note_off_c, 9, 44, 64
2, 6408, Note_on_c, 9, 44, 100
2, 6431, Note_off_c, 9, 44, 64
2, 6432, Note_on_c, 9, 44, 100
2, 6432, Note_on_c, 9, 38, 100
2, 6455, Note_off_c, 9, 38, 64
2, 6455, Note_off_c, 9, 44, 64
2, 6480, Note_on_c, 9, 44, 100
2, 6480, Note_on_c, 9, 36, 100
2, 6503, Note_off_c, 9, 44, 64
2, 6503, Note_off_c, 9, 36, 64
2, 6528, Note_on_c, 9, 44, 100
2, 6528, Note_on_c, 9, 36, 100
2, 6551, Note_off_c, 9, 36, 64
2, 6551, Note_off_c, 9, 44, 64
2, 6576, Note_on_c, 9, 44, 100
2, 6599, Note_off_c, 9, 44, 64
2, 6600, Note_on_c, 9, 44, 100
2, 6623, Note_off_c, 9, 44, 64
2, 6624, Note_on_c, 9, 44, 100
2, 6624, Note_on_c, 9, 38, 100
2, 6647, Note_off_c, 9, 38, 64
2, 6647, Note_off_c, 9, 44, 64
2, 6672, Note_on_c, 9, 44, 100
2, 6695, Note_off_c, 9, 44, 64
2, 6720, Note_on_c, 9, 44, 100
2, 6720, Note_on_c, 9, 36, 100
2, 6743, Note_off_c, 9, 36, 64
2, 6743, Note_off_c, 9, 44, 64
2, 6768, Note_on_c, 9, 44, 100
2, 6791, Note_off_c, 9, 44, 64
2, 6792, Note_on_c, 9, 44, 100
2, 6815, Note_off_c, 9, 44, 64
2, 6816, Note_on_c, 9, 44, 100
2, 6816, Note_on_c, 9, 38, 100
2, 6839, Note_off_c, 9, 38, 64
2, 6839, Note_off_c, 9, 44, 64
2, 6864, Note_on_c, 9, 44, 100
2, 6864, Note_on_c, 9, 36, 100
2, 6887, Note_off_c, 9, 36, 64
2, 6887, Note_off_c, 9, 44, 64
2, 6912, Note_on_c, 9, 44, 100
2, 6912, Note_on_c, 9, 36, 100
2, 6935, Note_off_c, 9, 36, 64
2, 6935, Note_off_c, 9, 44, 64
2, 6960, Note_on_c, 9, 44, 100
2, 6983, Note_off_c, 9, 44, 64
2, 6984, Note_on_c, 9, 44, 100
2, 7007, Note_off_c, 9, 44, 64
2, 7008, Note_on_c, 9, 44, 100
2, 7008, Note_on_c, 9, 38, 100
2, 7031, Note_off_c, 9, 38, 64
2, 7031, Note_off_c, 9, 44, 64
2, 7056, Note_on_c, 9, 44, 100
2, 7079, Note_off_c, 9, 44, 64
2, 7104, Note_on_c, 9, 44, 100
2, 7104, Note_on_c, 9, 36, 100
2, 7127, Note_off_c, 9, 36, 64
2, 7127, Note_off_c, 9, 44, 64
2, 7152, Note_on_c, 9, 44, 100
2, 7175, Note_off_c, 9, 44, 64
2, 7176, Note_on_c, 9, 44, 100
2, 7199, Note_off_c, 9, 44, 64
2, 7200, Note_on_c, 9, 44, 100
2, 7200, Note_on_c, 9, 38, 100
2, 7223, Note_off_c, 9, 38, 64
2, 7223, Note_off_c, 9, 44, 64
2, 7248, Note_on_c, 9, 44, 100
2, 7248, Note_on_c, 9, 36, 100
2, 7271, Note_off_c, 9, 36, 64
2, 7271, Note_off_c, 9, 44, 64
2, 7296, Note_on_c, 9, 44, 100
2, 7296, Note_on_c, 9, 36, 100
2, 7319, Note_off_c, 9, 36, 64
2, 7319, Note_off_c, 9, 44, 64
2, 7344, Note_on_c, 9, 44, 100
2, 7367, Note_off_c, 9, 44, 64
2, 7368, Note_on_c, 9, 44, 100
2, 7391, Note_off_c, 9, 44, 64
2, 7392, Note_on_c, 9, 44, 100
2, 7392, Note_on_c, 9, 38, 100
2, 7415, Note_off_c, 9, 38, 64
2, 7415, Note_off_c, 9, 44, 64
2, 7440, Note_on_c, 9, 44, 100
2, 7463, Note_off_c, 9, 44, 64
2, 7488, Note_on_c, 9, 44, 100
2, 7488, Note_on_c, 9, 36, 100
2, 7511, Note_off_c, 9, 36, 64
2, 7511, Note_off_c, 9, 44, 64
2, 7536, Note_on_c, 9, 44, 100
2, 7559, Note_off_c, 9, 44, 64
2, 7560, Note_on_c, 9, 44, 100
2, 7583, Note_off_c, 9, 44, 64
2, 7584, Note_on_c, 9, 44, 100
2, 7584, Note_on_c, 9, 38, 100
2, 7607, Note_off_c, 9, 38, 64
2, 7607, Note_off_c, 9, 44, 64
2, 7632, Note_on_c, 9, 44, 100
2, 7632, Note_on_c, 9, 36, 100
2, 7655, Note_off_c, 9, 36, 64
2, 7655, Note_off_c, 9, 44, 64
2, 7680, Note_on_c, 9, 44, 100
2, 7680, Note_on_c, 9, 36, 100
2, 7703, Note_off_c, 9, 36, 64
2, 7703, Note_off_c, 9, 44, 64
2, 7728, Note_on_c, 9, 44, 100
2, 7751, Note_off_c, 9, 44, 64
2, 7752, Note_on_c, 9, 44, 100
2, 7775, Note_off_c, 9, 44, 64
2, 7776, Note_on_c, 9, 44, 100
2, 7776, Note_on_c, 9, 38, 100
2, 7799, Note_off_c, 9, 38, 64
2, 7799, Note_off_c, 9, 44, 64
2, 7824, Note_on_c, 9, 44, 100
2, 7847, Note_off_c, 9, 44, 64
2, 7872, Note_on_c, 9, 44, 100
2, 7872, Note_on_c, 9, 36, 100
2, 7895, Note_off_c, 9, 36, 64
2, 7895, Note_off_c, 9, 44, 64
2, 7920, Note_on_c, 9, 44, 100
2, 7943, Note_off_c, 9, 44, 64
2, 7944, Note_on_c, 9, 44, 100
2, 7967, Note_off_c, 9, 44, 64
2, 7968, Note_on_c, 9, 44, 100
2, 7968, Note_on_c, 9, 38, 100
2, 7991, Note_off_c, 9, 38, 64
2, 7991, Note_off_c, 9, 44, 64
2, 8016, Note_on_c, 9, 44, 100
2, 8016, Note_on_c, 9, 36, 100
2, 8039, Note_off_c, 9, 36, 64
2, 8039, Note_off_c, 9, 44, 64
2, 8064, Note_on_c, 9, 44, 100
2, 8064, Note_on_c, 9, 36, 100
2, 8087, Note_off_c, 9, 36, 64
2, 8087, Note_off_c, 9, 44, 64
2, 8112, Note_on_c, 9, 44, 100
2, 8135, Note_off_c, 9, 44, 64
2, 8136, Note_on_c, 9, 44, 100
2, 8159, Note_off_c, 9, 44, 64
2, 8160, Note_on_c, 9, 44, 100
2, 8160, Note_on_c, 9, 38, 100
2, 8183, Note_off_c, 9, 38, 64
2, 8183, Note_off_c, 9, 44, 64
2, 8208, Note_on_c, 9, 44, 100
2, 8231, Note_off_c, 9, 44, 64
2, 8256, Note_on_c, 9, 44, 100
2, 8256, Note_on_c, 9, 36, 100
2, 8279, Note_off_c, 9, 36, 64
2, 8279, Note_off_c, 9, 44, 64
2, 8304, Note_on_c, 9, 44, 100
2, 8327, Note_off_c, 9, 44, 64
2, 8328, Note_on_c, 9, 44, 100
2, 8351, Note_off_c, 9, 44, 64
2, 8352, Note_on_c, 9, 44, 100
2, 8352, Note_on_c, 9, 38, 100
2, 8375, Note_off_c, 9, 38, 64
2, 8375, Note_off_c, 9, 44, 64
2, 8400, Note_on_c, 9, 44, 100
2, 8400, Note_on_c, 9, 36, 100
2, 8423, Note_off_c, 9, 36, 64
2, 8423, Note_off_c, 9, 44, 64
2, 8448, Note_on_c, 9, 44, 100
2, 8448, Note_on_c, 9, 36, 100
2, 8471, Note_off_c, 9, 36, 64
2, 8471, Note_off_c, 9, 44, 64
2, 8496, Note_on_c, 9, 44, 100
2, 8519, Note_off_c, 9, 44, 64
2, 8520, Note_on_c, 9, 44, 100
2, 8543, Note_off_c, 9, 44, 64
2, 8544, Note_on_c, 9, 44, 100
2, 8544, Note_on_c, 9, 38, 100
2, 8567, Note_off_c, 9, 38, 64
2, 8567, Note_off_c, 9, 44, 64
2, 8592, Note_on_c, 9, 44, 100
2, 8615, Note_off_c, 9, 44, 64
2, 8640, Note_on_c, 9, 44, 100
2, 8640, Note_on_c, 9, 36, 100
2, 8663, Note_off_c, 9, 36, 64
2, 8663, Note_off_c, 9, 44, 64
2, 8688, Note_on_c, 9, 44, 100
2, 8711, Note_off_c, 9, 44, 64
2, 8712, Note_on_c, 9, 44, 100
2, 8735, Note_off_c, 9, 44, 64
2, 8736, Note_on_c, 9, 44, 100
2, 8736, Note_on_c, 9, 38, 100
2, 8759, Note_off_c, 9, 38, 64
2, 8759, Note_off_c, 9, 44, 64
2, 8784, Note_on_c, 9, 44, 100
2, 8784, Note_on_c, 9, 36, 100
2, 8807, Note_off_c, 9, 36, 64
2, 8807, Note_off_c, 9, 44, 64
2, 8832, Note_on_c, 9, 44, 100
2, 8832, Note_on_c, 9, 36, 100
2, 8855, Note_off_c, 9, 36, 64
2, 8855, Note_off_c, 9, 44, 64
2, 8880, Note_on_c, 9, 44, 100
2, 8903, Note_off_c, 9, 44, 64
2, 8904, Note_on_c, 9, 44, 100
2, 8927, Note_off_c, 9, 44, 64
2, 8928, Note_on_c, 9, 44, 100
2, 8928, Note_on_c, 9, 38, 100
2, 8951, Note_off_c, 9, 38, 64
2, 8951, Note_off_c, 9, 44, 64
2, 8976, Note_on_c, 9, 44, 100
2, 8999, Note_off_c, 9, 44, 64
2, 9024, Note_on_c, 9, 44, 100
2, 9024, Note_on_c, 9, 36, 100
2, 9047, Note_off_c, 9, 36, 64
2, 9047, Note_off_c, 9, 44, 64
2, 9072, Note_on_c, 9, 44, 100
2, 9095, Note_off_c, 9, 44, 64
2, 9096, Note_on_c, 9, 44, 100
2, 9119, Note_off_c, 9, 44, 64
2, 9120, Note_on_c, 9, 44, 100
2, 9120, Note_on_c, 9, 38, 100
2, 9143, Note_off_c, 9, 38, 64
2, 9143, Note_off_c, 9, 44, 64
2, 9168, Note_on_c, 9, 44, 100
2, 9168, Note_on_c, 9, 36, 100
2, 9191, Note_off_c, 9, 36, 64
2, 9191, Note_off_c, 9, 44, 64
2, 15360, Note_on_c, 9, 57, 100
2, 15360, Note_on_c, 9, 44, 100
2, 15360, Note_on_c, 9, 36, 100
2, 15383, Note_off_c, 9, 36, 64
2, 15383, Note_off_c, 9, 57, 64
2, 15383, Note_off_c, 9, 44, 64
2, 15408, Note_on_c, 9, 44, 100
2, 15431, Note_off_c, 9, 44, 64
2, 15432, Note_on_c, 9, 44, 100
2, 15455, Note_off_c, 9, 44, 64
2, 15456, Note_on_c, 9, 44, 100
2, 15456, Note_on_c, 9, 38, 100
2, 15479, Note_off_c, 9, 38, 64
2, 15479, Note_off_c, 9, 44, 64
2, 15504, Note_on_c, 9, 44, 100
2, 15527, Note_off_c, 9, 44, 64
2, 15552, Note_on_c, 9, 44, 100
2, 15552, Note_on_c, 9, 36, 100
2, 15575, Note_off_c, 9, 44, 64
2, 15575, Note_off_c, 9, 36, 64
2, 15600, Note_on_c, 9, 44, 100
2, 15623, Note_off_c, 9, 44, 64
2, 15624, Note_on_c, 9, 44, 100
2, 15647, Note_off_c, 9, 44, 64
2, 15648, Note_on_c, 9, 44, 100
2, 15648, Note_on_c, 9, 38, 100
2, 15671, Note_off_c, 9, 38, 64
2, 15671, Note_off_c, 9, 44, 64
2, 15696, Note_on_c, 9, 44, 100
2, 15696, Note_on_c, 9, 36, 100
2, 15719, Note_off_c, 9, 44, 64
2, 15719, Note_off_c, 9, 36, 64
2, 15744, Note_on_c, 9, 44, 100
2, 15744, Note_on_c, 9, 36, 100
2, 15767, Note_off_c, 9, 36, 64
2, 15767, Note_off_c, 9, 44, 64
2, 15792, Note_on_c, 9, 44, 100
2, 15815, Note_off_c, 9, 44, 64
2, 15816, Note_on_c, 9, 44, 100
2, 15839, Note_off_c, 9, 44, 64
2, 15840, Note_on_c, 9, 44, 100
2, 15840, Note_on_c, 9, 38, 100
2, 15863, Note_off_c, 9, 38, 64
2, 15863, Note_off_c, 9, 44, 64
2, 15888, Note_on_c, 9, 44, 100
2, 15911, Note_off_c, 9, 44, 64
2, 15936, Note_on_c, 9, 44, 100
2, 15936, Note_on_c, 9, 36, 100
2, 15959, Note_off_c, 9, 36, 64
2, 15959, Note_off_c, 9, 44, 64
2, 15984, Note_on_c, 9, 44, 100
2, 16007, Note_off_c, 9, 44, 64
2, 16008, Note_on_c, 9, 44, 100
2, 16031, Note_off_c, 9, 44, 64
2, 16032, Note_on_c, 9, 44, 100
2, 16032, Note_on_c, 9, 38, 100
2, 16055, Note_off_c, 9, 38, 64
2, 16055, Note_off_c, 9, 44, 64
2, 16080, Note_on_c, 9, 44, 100
2, 16080, Note_on_c, 9, 36, 100
2, 16103, Note_off_c, 9, 36, 64
2, 16103, Note_off_c, 9, 44, 64
2, 16128, Note_on_c, 9, 44, 100
2, 16128, Note_on_c, 9, 36, 100
2, 16151, Note_off_c, 9, 36, 64
2, 16151, Note_off_c, 9, 44, 64
2, 16176, Note_on_c, 9, 44, 100
2, 16199, Note_off_c, 9, 44, 64
2, 16200, Note_on_c, 9, 44, 100
2, 16223, Note_off_c, 9, 44, 64
2, 16224, Note_on_c, 9, 44, 100
2, 16224, Note_on_c, 9, 38, 100
2, 16247, Note_off_c, 9, 38, 64
2, 16247, Note_off_c, 9, 44, 64
2, 16272, Note_on_c, 9, 44, 100
2, 16295, Note_off_c, 9, 44, 64
2, 16320, Note_on_c, 9, 44, 100
2, 16320, Note_on_c, 9, 36, 100
2, 16343, Note_off_c, 9, 36, 64
2, 16343, Note_off_c, 9, 44, 64
2, 16368, Note_on_c, 9, 44, 100
2, 16391, Note_off_c, 9, 44, 64
2, 16392, Note_on_c, 9, 44, 100
2, 16415, Note_off_c, 9, 44, 64
2, 16416, Note_on_c, 9, 44, 100
2, 16416, Note_on_c, 9, 38, 100
2, 16439, Note_off_c, 9, 38, 64
2, 16439, Note_off_c, 9, 44, 64
2, 16464, Note_on_c, 9, 44, 100
2, 16464, Note_on_c, 9, 36, 100
2, 16487, Note_off_c, 9, 36, 64
2, 16487, Note_off_c, 9, 44, 64
2, 16512, Note_on_c, 9, 44, 100
2, 16512, Note_on_c, 9, 36, 100
2, 16535, Note_off_c, 9, 36, 64
2, 16535, Note_off_c, 9, 44, 64
2, 16560, Note_on_c, 9, 44, 100
2, 16583, Note_off_c, 9, 44, 64
2, 16584, Note_on_c, 9, 44, 100
2, 16607, Note_off_c, 9, 44, 64
2, 16608, Note_on_c, 9, 44, 100
2, 16608, Note_on_c, 9, 38, 100
2, 16631, Note_off_c, 9, 38, 64
2, 16631, Note_off_c, 9, 44, 64
2, 16656, Note_on_c, 9, 44, 100
2, 16679, Note_off_c, 9, 44, 64
2, 16704, Note_on_c, 9, 44, 100
2, 16704, Note_on_c, 9, 36, 100
2, 16727, Note_off_c, 9, 36, 64
2, 16727, Note_off_c, 9, 44, 64
2, 16752, Note_on_c, 9, 44, 100
2, 16775, Note_off_c, 9, 44, 64
2, 16776, Note_on_c, 9, 44, 100
2, 16799, Note_off_c, 9, 44, 64
2, 16800, Note_on_c, 9, 44, 100
2, 16800, Note_on_c, 9, 38, 100
2, 16823, Note_off_c, 9, 38, 64
2, 16823, Note_off_c, 9, 44, 64
2, 16848, Note_on_c, 9, 44, 100
2, 16848, Note_on_c, 9, 36, 100
2, 16871, Note_off_c, 9, 36, 64
2, 16871, Note_off_c, 9, 44, 64
2, 16896, Note_on_c, 9, 44, 100
2, 16896, Note_on_c, 9, 36, 100
2, 16919, Note_off_c, 9, 36, 64
2, 16919, Note_off_c, 9, 44, 64
2, 16944, Note_on_c, 9, 44, 100
2, 16967, Note_off_c, 9, 44, 64
2, 16968, Note_on_c, 9, 44, 100
2, 16991, Note_off_c, 9, 44, 64
2, 16992, Note_on_c, 9, 44, 100
2, 16992, Note_on_c, 9, 38, 100
2, 17015, Note_off_c, 9, 38, 64
2, 17015, Note_off_c, 9, 44, 64
2, 17040, Note_on_c, 9, 44, 100
2, 17063, Note_off_c, 9, 44, 64
2, 17088, Note_on_c, 9, 44, 100
2, 17088, Note_on_c, 9, 36, 100
2, 17111, Note_off_c, 9, 36, 64
2, 17111, Note_off_c, 9, 44, 64
2, 17136, Note_on_c, 9, 44, 100
2, 17159, Note_off_c, 9, 44, 64
2, 17160, Note_on_c, 9, 44, 100
2, 17183, Note_off_c, 9, 44, 64
2, 17184, Note_on_c, 9, 44, 100
2, 17184, Note_on_c, 9, 38, 100
2, 17207, Note_off_c, 9, 38, 64
2, 17207, Note_off_c, 9, 44, 64
2, 17232, Note_on_c, 9, 44, 100
2, 17232, Note_on_c, 9, 36, 100
2, 17255, Note_off_c, 9, 36, 64
2, 17255, Note_off_c, 9, 44, 64
2, 17280, Note_on_c, 9, 44, 100
2, 17280, Note_on_c, 9, 36, 100
2, 17303, Note_off_c, 9, 36, 64
2, 17303, Note_off_c, 9, 44, 64
2, 17328, Note_on_c, 9, 44, 100
2, 17351, Note_off_c, 9, 44, 64
2, 17352, Note_on_c, 9, 44, 100
2, 17375, Note_off_c, 9, 44, 64
2, 17376, Note_on_c, 9, 44, 100
2, 17376, Note_on_c, 9, 38, 100
2, 17399, Note_off_c, 9, 38, 64
2, 17399, Note_off_c, 9, 44, 64
2, 17424, Note_on_c, 9, 44, 100
2, 17447, Note_off_c, 9, 44, 64
2, 17472, Note_on_c, 9, 44, 100
2, 17472, Note_on_c, 9, 36, 100
2, 17495, Note_off_c, 9, 36, 64
2, 17495, Note_off_c, 9, 44, 64
2, 17520, Note_on_c, 9, 44, 100
2, 17543, Note_off_c, 9, 44, 64
2, 17544, Note_on_c, 9, 44, 100
2, 17567, Note_off_c, 9, 44, 64
2, 17568, Note_on_c, 9, 44, 100
2, 17568, Note_on_c, 9, 38, 100
2, 17591, Note_off_c, 9, 38, 64
2, 17591, Note_off_c, 9, 44, 64
2, 17616, Note_on_c, 9, 44, 100
2, 17616, Note_on_c, 9, 36, 100
2, 17639, Note_off_c, 9, 36, 64
2, 17639, Note_off_c, 9, 44, 64
2, 17664, Note_on_c, 9, 44, 100
2, 17664, Note_on_c, 9, 36, 100
2, 17687, Note_off_c, 9, 36, 64
2, 17687, Note_off_c, 9, 44, 64
2, 17712, Note_on_c, 9, 44, 100
2, 17735, Note_off_c, 9, 44, 64
2, 17736, Note_on_c, 9, 44, 100
2, 17759, Note_off_c, 9, 44, 64
2, 17760, Note_on_c, 9, 44, 100
2, 17760, Note_on_c, 9, 38, 100
2, 17783, Note_off_c, 9, 38, 64
2, 17783, Note_off_c, 9, 44, 64
2, 17808, Note_on_c, 9, 44, 100
2, 17831, Note_off_c, 9, 44, 64
2, 17856, Note_on_c, 9, 44, 100
2, 17856, Note_on_c, 9, 36, 100
2, 17879, Note_off_c, 9, 36, 64
2, 17879, Note_off_c, 9, 44, 64
2, 17904, Note_on_c, 9, 44, 100
2, 17927, Note_off_c, 9, 44, 64
2, 17928, Note_on_c, 9, 44, 100
2, 17951, Note_off_c, 9, 44, 64
2, 17952, Note_on_c, 9, 44, 100
2, 17952, Note_on_c, 9, 38, 100
2, 17975, Note_off_c, 9, 38, 64
2, 17975, Note_off_c, 9, 44, 64
2, 18000, Note_on_c, 9, 44, 100
2, 18000, Note_on_c, 9, 36, 100
2, 18023, Note_off_c, 9, 36, 64
2, 18023, Note_off_c, 9, 44, 64
2, 18048, Note_on_c, 9, 44, 100
2, 18048, Note_on_c, 9, 36, 100
2, 18071, Note_off_c, 9, 36, 64
2, 18071, Note_off_c, 9, 44, 64
2, 18096, Note_on_c, 9, 44, 100
2, 18119, Note_off_c, 9, 44, 64
2, 18120, Note_on_c, 9, 44, 100
2, 18143, Note_off_c, 9, 44, 64
2, 18144, Note_on_c, 9, 44, 100
2, 18144, Note_on_c, 9, 38, 100
2, 18167, Note_off_c, 9, 38, 64
2, 18167, Note_off_c, 9, 44, 64
2, 18192, Note_on_c, 9, 44, 100
2, 18215, Note_off_c, 9, 44, 64
2, 18240, Note_on_c, 9, 44, 100
2, 18240, Note_on_c, 9, 36, 100
2, 18263, Note_off_c, 9, 36, 64
2, 18263, Note_off_c, 9, 44, 64
2, 18288, Note_on_c, 9, 44, 100
2, 18311, Note_off_c, 9, 44, 64
2, 18312, Note_on_c, 9, 44, 100
2, 18335, Note_off_c, 9, 44, 64
2, 18336, Note_on_c, 9, 44, 100
2, 18336, Note_on_c, 9, 38, 100
2, 18359, Note_off_c, 9, 38, 64
2, 18359, Note_off_c, 9, 44, 64
2, 18384, Note_on_c, 9, 44, 100
2, 18384, Note_on_c, 9, 36, 100
2, 18407, Note_off_c, 9, 36, 64
2, 18407, Note_off_c, 9, 44, 64
2, 18432, Control_c, 9, 101, 0
2, 18432, Control_c, 9, 100, 0
2, 18432, Control_c, 9, 6, 12
2, 18432, Control_c, 9, 10, 64
2, 18432, Control_c, 9, 7, 100
2, 18432, Pitch_bend_c, 9, 8192
2, 18433, Control_c, 9, 101, 0
2, 18433, Control_c, 9, 100, 0
2, 18433, Control_c, 9, 6, 12
2, 18433, Control_c, 9, 10, 64
2, 18433, Control_c, 9, 7, 100
2, 18433, Pitch_bend_c, 9, 8192
2, 18433, Control_c, 9, 101, 0
2, 18433, Control_c, 9, 100, 0
2, 18433, Control_c, 9, 6, 12
2, 18433, Control_c, 9, 10, 64
2, 18433, Control_c, 9, 7, 100
2, 18433, Pitch_bend_c, 9, 8192
2, 18433, End_track
3, 0, Start_track
3, 0, Title_t, "Electric"
3, 0, Control_c, 1, 10, 64
3, 0, Control_c, 1, 7, 100
3, 0, Pitch_bend_c, 1, 8192
3, 0, Control_c, 1, 101, 0
3, 0, Control_c, 1, 100, 0
3, 0, Control_c, 1, 6, 12
3, 0, Control_c, 1, 10, 64
3, 0, Control_c, 1, 7, 100
3, 0, Pitch_bend_c, 1, 8192
3, 0, Program_c, 1, 81
3, 0, Control_c, 1, 101, 0
3, 0, Control_c, 1, 100, 0
3, 0, Control_c, 1, 6, 12
3, 0, Control_c, 1, 10, 64
3, 0, Control_c, 1, 7, 100
3, 0, Pitch_bend_c, 1, 8192
3, 0, Program_c, 1, 81
3, 0, Control_c, 1, 101, 0
3, 0, Control_c, 1, 100, 0
3, 0, Control_c, 1, 6, 12
3, 0, Control_c, 1, 10, 64
3, 0, Control_c, 1, 7, 100
3, 0, Pitch_bend_c, 1, 8192
3, 0, Program_c, 1, 81
3, 0, Note_on_c, 1, 67, 100
3, 0, Note_on_c, 1, 71, 100
3, 47, Note_off_c, 1, 67, 64
3, 47, Note_off_c, 1, 71, 64
3, 288, Note_on_c, 1, 67, 100
3, 288, Note_on_c, 1, 71, 100
3, 383, Note_off_c, 1, 71, 64
3, 383, Note_off_c, 1, 67, 64
3, 384, Note_on_c, 1, 72, 100
3, 384, Note_on_c, 1, 67, 100
3, 431, Note_off_c, 1, 67, 64
3, 431, Note_off_c, 1, 72, 64
3, 672, Note_on_c, 1, 72, 100
3, 672, Note_on_c, 1, 67, 100
3, 767, Note_off_c, 1, 67, 64
3, 767, Note_off_c, 1, 72, 64
3, 768, Note_on_c, 1, 73, 100
3, 768, Note_on_c, 1, 67, 100
3, 815, Note_off_c, 1, 67, 64
3, 815, Note_off_c, 1, 73, 64
3, 1056, Note_on_c, 1, 73, 100
3, 1056, Note_on_c, 1, 67, 100
3, 1151, Note_off_c, 1, 67, 64
3, 1151, Note_off_c, 1, 73, 64
3, 1152, Note_on_c, 1, 72, 100
3, 1152, Note_on_c, 1, 67, 100
3, 1199, Note_off_c, 1, 67, 64
3, 1199, Note_off_c, 1, 72, 64
3, 1440, Note_on_c, 1, 67, 100
3, 1440, Note_on_c, 1, 72, 100
3, 1535, Note_off_c, 1, 72, 64
3, 1535, Note_off_c, 1, 67, 64
3, 1536, Note_on_c, 1, 71, 100
3, 1536, Note_on_c, 1, 67, 100
3, 1583, Note_off_c, 1, 67, 64
3, 1583, Note_off_c, 1, 71, 64
3, 1824, Note_on_c, 1, 71, 100
3, 1824, Note_on_c, 1, 67, 100
3, 1919, Note_off_c, 1, 67, 64
3, 1919, Note_off_c, 1, 71, 64
3, 1920, Note_on_c, 1, 72, 100
3, 1920, Note_on_c, 1, 67, 100
3, 1967, Note_off_c, 1, 67, 64
3, 1967, Note_off_c, 1, 72, 64
3, 2208, Note_on_c, 1, 72, 100
3, 2208, Note_on_c, 1, 67, 100
3, 2303, Note_off_c, 1, 67, 64
3, 2303, Note_off_c, 1, 72, 64
3, 2304, Note_on_c, 1, 73, 100
3, 2304, Note_on_c, 1, 67, 100
3, 2351, Note_off_c, 1, 67, 64
3, 2351, Note_off_c, 1, 73, 64
3, 2592, Note_on_c, 1, 73, 100
3, 2592, Note_on_c, 1, 67, 100
3, 2687, Note_off_c, 1, 67, 64
3, 2687, Note_off_c, 1, 73, 64
3, 2688, Note_on_c, 1, 72, 100
3, 2688, Note_on_c, 1, 67, 100
3, 2735, Note_off_c, 1, 67, 64
3, 2735, Note_off_c, 1, 72, 64
3, 2976, Note_on_c, 1, 72, 100
3, 2976, Note_on_c, 1, 67, 100
3, 3071, Note_off_c, 1, 67, 64
3, 3071, Note_off_c, 1, 72, 64
3, 3072, Note_on_c, 1, 72, 100
3, 3072, Note_on_c, 1, 76, 100
3, 3119, Note_off_c, 1, 76, 64
3, 3119, Note_off_c, 1, 72, 64
3, 3360, Note_on_c, 1, 72, 100
3, 3360, Note_on_c, 1, 76, 100
3, 3455, Note_off_c, 1, 76, 64
3, 3455, Note_off_c, 1, 72, 64
3, 3456, Note_on_c, 1, 77, 100
3, 3456, Note_on_c, 1, 72, 100
3, 3503, Note_off_c, 1, 72, 64
3, 3503, Note_off_c, 1, 77, 64
3, 3744, Note_on_c, 1, 77, 100
3, 3744, Note_on_c, 1, 72, 100
3, 3839, Note_off_c, 1, 72, 64
3, 3839, Note_off_c, 1, 77, 64
3, 3840, Note_on_c, 1, 78, 100
3, 3840, Note_on_c, 1, 72, 100
3, 3887, Note_off_c, 1, 72, 64
3, 3887, Note_off_c, 1, 78, 64
3, 4128, Note_on_c, 1, 78, 100
3, 4128, Note_on_c, 1, 72, 100
3, 4223, Note_off_c, 1, 72, 64
3, 4223, Note_off_c, 1, 78, 64
3, 4224, Note_on_c, 1, 77, 100
3, 4224, Note_on_c, 1, 72, 100
3, 4271, Note_off_c, 1, 72, 64
3, 4271, Note_off_c, 1, 77, 64
3, 4512, Note_on_c, 1, 72, 100
3, 4512, Note_on_c, 1, 77, 100
3, 4607, Note_off_c, 1, 77, 64
3, 4607, Note_off_c, 1, 72, 64
3, 4608, Note_on_c, 1, 76, 100
3, 4608, Note_on_c, 1, 72, 100
3, 4655, Note_off_c, 1, 72, 64
3, 4655, Note_off_c, 1, 76, 64
3, 4896, Note_on_c, 1, 76, 100
3, 4896, Note_on_c, 1, 72, 100
3, 4991, Note_off_c, 1, 72, 64
3, 4991, Note_off_c, 1, 76, 64
3, 4992, Note_on_c, 1, 77, 100
3, 4992, Note_on_c, 1, 72, 100
3, 5039, Note_off_c, 1, 72, 64
3, 5039, Note_off_c, 1, 77, 64
3, 5280, Note_on_c, 1, 77, 100
3, 5280, Note_on_c, 1, 72, 100
3, 5375, Note_off_c, 1, 72, 64
3, 5375, Note_off_c, 1, 77, 64
3, 5376, Note_on_c, 1, 78, 100
3, 5376, Note_on_c, 1, 72, 100
3, 5423, Note_off_c, 1, 72, 64
3, 5423, Note_off_c, 1, 78, 64
3, 5664, Note_on_c, 1, 78, 100
3, 5664, Note_on_c, 1, 72, 100
3, 5759, Note_off_c, 1, 72, 64
3, 5759, Note_off_c, 1, 78, 64
3, 5760, Note_on_c, 1, 77, 100
3, 5760, Note_on_c, 1, 72, 100
3, 5807, Note_off_c, 1, 72, 64
3, 5807, Note_off_c, 1, 77, 64
3, 6048, Note_on_c, 1, 77, 100
3, 6048, Note_on_c, 1, 72, 100
3, 6143, Note_off_c, 1, 72, 64
3, 6143, Note_off_c, 1, 77, 64
3, 6144, Note_on_c, 1, 83, 100
3, 6167, Note_off_c, 1, 83, 64
3, 6168, Note_on_c, 1, 83, 100
3, 6191, Note_off_c, 1, 83, 64
3, 6192, Note_on_c, 1, 83, 100
3, 6215, Note_off_c, 1, 83, 64
3, 6216, Note_on_c, 1, 83, 100
3, 6239, Note_off_c, 1, 83, 64
3, 6240, Note_on_c, 1, 79, 100
3, 6263, Note_off_c, 1, 79, 64
3, 6264, Note_on_c, 1, 79, 100
3, 6287, Note_off_c, 1, 79, 64
3, 6288, Note_on_c, 1, 79, 100
3, 6311, Note_off_c, 1, 79, 64
3, 6312, Note_on_c, 1, 79, 100
3, 6335, Note_off_c, 1, 79, 64
3, 6336, Note_on_c, 1, 76, 100
3, 6359, Note_off_c, 1, 76, 64
3, 6360, Note_on_c, 1, 76, 100
3, 6383, Note_off_c, 1, 76, 64
3, 6384, Note_on_c, 1, 76, 100
3, 6407, Note_off_c, 1, 76, 64
3, 6408, Note_on_c, 1, 76, 100
3, 6431, Note_off_c, 1, 76, 64
3, 6432, Note_on_c, 1, 72, 100
3, 6455, Note_off_c, 1, 72, 64
3, 6456, Note_on_c, 1, 72, 100
3, 6479, Note_off_c, 1, 72, 64
3, 6480, Note_on_c, 1, 72, 100
3, 6503, Note_off_c, 1, 72, 64
3, 6504, Note_on_c, 1, 72, 100
3, 6527, Note_off_c, 1, 72, 64
3, 6528, Note_on_c, 1, 71, 100
3, 6551, Note_off_c, 1, 71, 64
3, 6552, Note_on_c, 1, 71, 100
3, 6575, Note_off_c, 1, 71, 64
3, 6576, Note_on_c, 1, 71, 100
3, 6599, Note_off_c, 1, 71, 64
3, 6600, Note_on_c, 1, 71, 100
3, 6623, Note_off_c, 1, 71, 64
3, 6624, Note_on_c, 1, 67, 100
3, 6647, Note_off_c, 1, 67, 64
3, 6648, Note_on_c, 1, 67, 100
3, 6671, Note_off_c, 1, 67, 64
3, 6672, Note_on_c, 1, 67, 100
3, 6695, Note_off_c, 1, 67, 64
3, 6696, Note_on_c, 1, 67, 100
3, 6719, Note_off_c, 1, 67, 64
3, 6720, Note_on_c, 1, 64, 100
3, 6743, Note_off_c, 1, 64, 64
3, 6744, Note_on_c, 1, 64, 100
3, 6767, Note_off_c, 1, 64, 64
3, 6768, Note_on_c, 1, 64, 100
3, 6791, Note_off_c, 1, 64, 64
3, 6792, Note_on_c, 1, 64, 100
3, 6815, Note_off_c, 1, 64, 64
3, 6816, Note_on_c, 1, 60, 100
3, 6839, Note_off_c, 1, 60, 64
3, 6840, Note_on_c, 1, 60, 100
3, 6863, Note_off_c, 1, 60, 64
3, 6864, Note_on_c, 1, 60, 100
3, 6887, Note_off_c, 1, 60, 64
3, 6888, Note_on_c, 1, 60, 100
3, 6911, Note_off_c, 1, 60, 64
3, 6912, Note_on_c, 1, 61, 100
3, 6935, Note_off_c, 1, 61, 64
3, 6936, Note_on_c, 1, 61, 100
3, 6959, Note_off_c, 1, 61, 64
3, 6960, Note_on_c, 1, 61, 100
3, 6983, Note_off_c, 1, 61, 64
3, 6984, Note_on_c, 1, 61, 100
3, 7007, Note_off_c, 1, 61, 64
3, 7008, Note_on_c, 1, 64, 100
3, 7031, Note_off_c, 1, 64, 64
3, 7032, Note_on_c, 1, 64, 100
3, 7055, Note_off_c, 1, 64, 64
3, 7056, Note_on_c, 1, 64, 100
3, 7079, Note_off_c, 1, 64, 64
3, 7080, Note_on_c, 1, 64, 100
3, 7103, Note_off_c, 1, 64, 64
3, 7104, Note_on_c, 1, 67, 100
3, 7127, Note_off_c, 1, 67, 64
3, 7128, Note_on_c, 1, 67, 100
3, 7151, Note_off_c, 1, 67, 64
3, 7152, Note_on_c, 1, 67, 100
3, 7175, Note_off_c, 1, 67, 64
3, 7176, Note_on_c, 1, 67, 100
3, 7199, Note_off_c, 1, 67, 64
3, 7200, Note_on_c, 1, 71, 100
3, 7223, Note_off_c, 1, 71, 64
3, 7224, Note_on_c, 1, 71, 100
3, 7247, Note_off_c, 1, 71, 64
3, 7248, Note_on_c, 1, 71, 100
3, 7271, Note_off_c, 1, 71, 64
3, 7272, Note_on_c, 1, 71, 100
3, 7295, Note_off_c, 1, 71, 64
3, 7296, Note_on_c, 1, 72, 100
3, 7319, Note_off_c, 1, 72, 64
3, 7320, Note_on_c, 1, 64, 100
3, 7343, Note_off_c, 1, 64, 64
3, 7344, Note_on_c, 1, 66, 100
3, 7367, Note_off_c, 1, 66, 64
3, 7368, Note_on_c, 1, 67, 100
3, 7391, Note_off_c, 1, 67, 64
3, 7392, Note_on_c, 1, 72, 100
3, 7415, Note_off_c, 1, 72, 64
3, 7416, Note_on_c, 1, 67, 100
3, 7439, Note_off_c, 1, 67, 64
3, 7440, Note_on_c, 1, 72, 100
3, 7463, Note_off_c, 1, 72, 64
3, 7464, Note_on_c, 1, 74, 100
3, 7487, Note_off_c, 1, 74, 64
3, 7488, Note_on_c, 1, 76, 100
3, 7511, Note_off_c, 1, 76, 64
3, 7512, Note_on_c, 1, 72, 100
3, 7535, Note_off_c, 1, 72, 64
3, 7536, Note_on_c, 1, 74, 100
3, 7559, Note_off_c, 1, 74, 64
3, 7560, Note_on_c, 1, 76, 100
3, 7583, Note_off_c, 1, 76, 64
3, 7584, Note_on_c, 1, 79, 100
3, 7607, Note_off_c, 1, 79, 64
3, 7608, Note_on_c, 1, 76, 100
3, 7631, Note_off_c, 1, 76, 64
3, 7632, Note_on_c, 1, 79, 100
3, 7655, Note_off_c, 1, 79, 64
3, 7656, Note_on_c, 1, 84, 100
3, 7679, Note_off_c, 1, 84, 64
3, 7680, Note_on_c, 1, 83, 100
3, 7703, Note_off_c, 1, 83, 64
3, 7704, Note_on_c, 1, 83, 100
3, 7727, Note_off_c, 1, 83, 64
3, 7728, Note_on_c, 1, 83, 100
3, 7751, Note_off_c, 1, 83, 64
3, 7752, Note_on_c, 1, 83, 100
3, 7775, Note_off_c, 1, 83, 64
3, 7776, Note_on_c, 1, 79, 100
3, 7799, Note_off_c, 1, 79, 64
3, 7800, Note_on_c, 1, 79, 100
3, 7823, Note_off_c, 1, 79, 64
3, 7824, Note_on_c, 1, 79, 100
3, 7847, Note_off_c, 1, 79, 64
3, 7848, Note_on_c, 1, 79, 100
3, 7871, Note_off_c, 1, 79, 64
3, 7872, Note_on_c, 1, 76, 100
3, 7895, Note_off_c, 1, 76, 64
3, 7896, Note_on_c, 1, 76, 100
3, 7919, Note_off_c, 1, 76, 64
3, 7920, Note_on_c, 1, 76, 100
3, 7943, Note_off_c, 1, 76, 64
3, 7944, Note_on_c, 1, 76, 100
3, 7967, Note_off_c, 1, 76, 64
3, 7968, Note_on_c, 1, 72, 100
3, 7991, Note_off_c, 1, 72, 64
3, 7992, Note_on_c, 1, 72, 100
3, 8015, Note_off_c, 1, 72, 64
3, 8016, Note_on_c, 1, 72, 100
3, 8039, Note_off_c, 1, 72, 64
3, 8040, Note_on_c, 1, 72, 100
3, 8063, Note_off_c, 1, 72, 64
3, 8064, Note_on_c, 1, 71, 100
3, 8087, Note_off_c, 1, 71, 64
3, 8088, Note_on_c, 1, 71, 100
3, 8111, Note_off_c, 1, 71, 64
3, 8112, Note_on_c, 1, 71, 100
3, 8135, Note_off_c, 1, 71, 64
3, 8136, Note_on_c, 1, 71, 100
3, 8159, Note_off_c, 1, 71, 64
3, 8160, Note_on_c, 1, 67, 100
3, 8183, Note_off_c, 1, 67, 64
3, 8184, Note_on_c, 1, 67, 100
3, 8207, Note_off_c, 1, 67, 64
3, 8208, Note_on_c, 1, 67, 100
3, 8231, Note_off_c, 1, 67, 64
3, 8232, Note_on_c, 1, 67, 100
3, 8255, Note_off_c, 1, 67, 64
3, 8256, Note_on_c, 1, 64, 100
3, 8279, Note_off_c, 1, 64, 64
3, 8280, Note_on_c, 1, 64, 100
3, 8303, Note_off_c, 1, 64, 64
3, 8304, Note_on_c, 1, 64, 100
3, 8327, Note_off_c, 1, 64, 64
3, 8328, Note_on_c, 1, 64, 100
3, 8351, Note_off_c, 1, 64, 64
3, 8352, Note_on_c, 1, 60, 100
3, 8375, Note_off_c, 1, 60, 64
3, 8376, Note_on_c, 1, 60, 100
3, 8399, Note_off_c, 1, 60, 64
3, 8400, Note_on_c, 1, 60, 100
3, 8423, Note_off_c, 1, 60, 64
3, 8424, Note_on_c, 1, 60, 100
3, 8447, Note_off_c, 1, 60, 64
3, 8448, Note_on_c, 1, 61, 100
3, 8471, Note_off_c, 1, 61, 64
3, 8472, Note_on_c, 1, 61, 100
3, 8495, Note_off_c, 1, 61, 64
3, 8496, Note_on_c, 1, 61, 100
3, 8519, Note_off_c, 1, 61, 64
3, 8520, Note_on_c, 1, 61, 100
3, 8543, Note_off_c, 1, 61, 64
3, 8544, Note_on_c, 1, 64, 100
3, 8567, Note_off_c, 1, 64, 64
3, 8568, Note_on_c, 1, 64, 100
3, 8591, Note_off_c, 1, 64, 64
3, 8592, Note_on_c, 1, 64, 100
3, 8615, Note_off_c, 1, 64, 64
3, 8616, Note_on_c, 1, 64, 100
3, 8639, Note_off_c, 1, 64, 64
3, 8640, Note_on_c, 1, 67, 100
3, 8663, Note_off_c, 1, 67, 64
3, 8664, Note_on_c, 1, 67, 100
3, 8687, Note_off_c, 1, 67, 64
3, 8688, Note_on_c, 1, 67, 100
3, 8711, Note_off_c, 1, 67, 64
3, 8712, Note_on_c, 1, 67, 100
3, 8735, Note_off_c, 1, 67, 64
3, 8736, Note_on_c, 1, 71, 100
3, 8759, Note_off_c, 1, 71, 64
3, 8760, Note_on_c, 1, 71, 100
3, 8783, Note_off_c, 1, 71, 64
3, 8784, Note_on_c, 1, 71, 100
3, 8807, Note_off_c, 1, 71, 64
3, 8808, Note_on_c, 1, 71, 100
3, 8831, Note_off_c, 1, 71, 64
3, 8832, Note_on_c, 1, 72, 100
3, 8855, Note_off_c, 1, 72, 64
3, 8856, Note_on_c, 1, 64, 100
3, 8879, Note_off_c, 1, 64, 64
3, 8880, Note_on_c, 1, 66, 100
3, 8903, Note_off_c, 1, 66, 64
3, 8904, Note_on_c, 1, 67, 100
3, 8927, Note_off_c, 1, 67, 64
3, 8928, Note_on_c, 1, 72, 100
3, 8951, Note_off_c, 1, 72, 64
3, 8952, Note_on_c, 1, 67, 100
3, 8975, Note_off_c, 1, 67, 64
3, 8976, Note_on_c, 1, 72, 100
3, 8999, Note_off_c, 1, 72, 64
3, 9000, Note_on_c, 1, 74, 100
3, 9023, Note_off_c, 1, 74, 64
3, 9024, Note_on_c, 1, 76, 100
3, 9047, Note_off_c, 1, 76, 64
3, 9048, Note_on_c, 1, 72, 100
3, 9071, Note_off_c, 1, 72, 64
3, 9072, Note_on_c, 1, 74, 100
3, 9095, Note_off_c, 1, 74, 64
3, 9096, Note_on_c, 1, 76, 100
3, 9119, Note_off_c, 1, 76, 64
3, 9120, Note_on_c, 1, 79, 100
3, 9143, Note_off_c, 1, 79, 64
3, 9144, Note_on_c, 1, 76, 100
3, 9167, Note_off_c, 1, 76, 64
3, 9168, Note_on_c, 1, 79, 100
3, 9191, Note_off_c, 1, 79, 64
3, 9192, Note_on_c, 1, 84, 100
3, 9215, Note_off_c, 1, 84, 64
3, 9216, Note_on_c, 1, 67, 100
3, 9216, Note_on_c, 1, 71, 100
3, 9263, Note_off_c, 1, 71, 64
3, 9263, Note_off_c, 1, 67, 64
3, 9504, Note_on_c, 1, 67, 100
3, 9504, Note_on_c, 1, 71, 100
3, 9599, Note_off_c, 1, 71, 64
3, 9599, Note_off_c, 1, 67, 64
3, 9600, Note_on_c, 1, 72, 100
3, 9600, Note_on_c, 1, 67, 100
3, 9647, Note_off_c, 1, 67, 64
3, 9647, Note_off_c, 1, 72, 64
3, 9888, Note_on_c, 1, 72, 100
3, 9888, Note_on_c, 1, 67, 100
3, 9983, Note_off_c, 1, 67, 64
3, 9983, Note_off_c, 1, 72, 64
3, 9984, Note_on_c, 1, 73, 100
3, 9984, Note_on_c, 1, 67, 100
3, 10031, Note_off_c, 1, 67, 64
3, 10031, Note_off_c, 1, 73, 64
3, 10272, Note_on_c, 1, 73, 100
3, 10272, Note_on_c, 1, 67, 100
3, 10367, Note_off_c, 1, 67, 64
3, 10367, Note_off_c, 1, 73, 64
3, 10368, Note_on_c, 1, 72, 100
3, 10368, Note_on_c, 1, 67, 100
3, 10415, Note_off_c, 1, 67, 64
3, 10415, Note_off_c, 1, 72, 64
3, 10656, Note_on_c, 1, 67, 100
3, 10656, Note_on_c, 1, 72, 100
3, 10751, Note_off_c, 1, 72, 64
3, 10751, Note_off_c, 1, 67, 64
3, 10752, Note_on_c, 1, 71, 100
3, 10752, Note_on_c, 1, 67, 100
3, 10799, Note_off_c, 1, 67, 64
3, 10799, Note_off_c, 1, 71, 64
3, 11040, Note_on_c, 1, 71, 100
3, 11040, Note_on_c, 1, 67, 100
3, 11135, Note_off_c, 1, 67, 64
3, 11135, Note_off_c, 1, 71, 64
3, 11136, Note_on_c, 1, 72, 100
3, 11136, Note_on_c, 1, 67, 100
3, 11183, Note_off_c, 1, 67, 64
3, 11183, Note_off_c, 1, 72, 64
3, 11424, Note_on_c, 1, 72, 100
3, 11424, Note_on_c, 1, 67, 100
3, 11519, Note_off_c, 1, 67, 64
3, 11519, Note_off_c, 1, 72, 64
3, 11520, Note_on_c, 1, 73, 100
3, 11520, Note_on_c, 1, 67, 100
3, 11567, Note_off_c, 1, 67, 64
3, 11567, Note_off_c, 1, 73, 64
3, 11808, Note_on_c, 1, 73, 100
3, 11808, Note_on_c, 1, 67, 100
3, 11903, Note_off_c, 1, 67, 64
3, 11903, Note_off_c, 1, 73, 64
3, 11904, Note_on_c, 1, 72, 100
3, 11904, Note_on_c, 1, 67, 100
3, 11951, Note_off_c, 1, 67, 64
3, 11951, Note_off_c, 1, 72, 64
3, 12192, Note_on_c, 1, 72, 100
3, 12192, Note_on_c, 1, 67, 100
3, 12287, Note_off_c, 1, 67, 64
3, 12287, Note_off_c, 1, 72, 64
3, 12288, Note_on_c, 1, 72, 100
3, 12288, Note_on_c, 1, 76, 100
3, 12335, Note_off_c, 1, 76, 64
3, 12335, Note_off_c, 1, 72, 64
3, 12576, Note_on_c, 1, 72, 100
3, 12576, Note_on_c, 1, 76, 100
3, 12671, Note_off_c, 1, 76, 64
3, 12671, Note_off_c, 1, 72, 64
3, 12672, Note_on_c, 1, 77, 100
3, 12672, Note_on_c, 1, 72, 100
3, 12719, Note_off_c, 1, 72, 64
3, 12719, Note_off_c, 1, 77, 64
3, 12960, Note_on_c, 1, 77, 100
3, 12960, Note_on_c, 1, 72, 100
3, 13055, Note_off_c, 1, 72, 64
3, 13055, Note_off_c, 1, 77, 64
3, 13056, Note_on_c, 1, 78, 100
3, 13056, Note_on_c, 1, 72, 100
3, 13103, Note_off_c, 1, 72, 64
3, 13103, Note_off_c, 1, 78, 64
3, 13344, Note_on_c, 1, 78, 100
3, 13344, Note_on_c, 1, 72, 100
3, 13439, Note_off_c, 1, 72, 64
3, 13439, Note_off_c, 1, 78, 64
3, 13440, Note_on_c, 1, 77, 100
3, 13440, Note_on_c, 1, 72, 100
3, 13487, Note_off_c, 1, 72, 64
3, 13487, Note_off_c, 1, 77, 64
3, 13728, Note_on_c, 1, 72, 100
3, 13728, Note_on_c, 1, 77, 100
3, 13823, Note_off_c, 1, 77, 64
3, 13823, Note_off_c, 1, 72, 64
3, 13824, Note_on_c, 1, 76, 100
3, 13824, Note_on_c, 1, 72, 100
3, 13871, Note_off_c, 1, 72, 64
3, 13871, Note_off_c, 1, 76, 64
3, 14112, Note_on_c, 1, 76, 100
3, 14112, Note_on_c, 1, 72, 100
3, 14207, Note_off_c, 1, 72, 64
3, 14207, Note_off_c, 1, 76, 64
3, 14208, Note_on_c, 1, 77, 100
3, 14208, Note_on_c, 1, 72, 100
3, 14255, Note_off_c, 1, 72, 64
3, 14255, Note_off_c, 1, 77, 64
3, 14496, Note_on_c, 1, 77, 100
3, 14496, Note_on_c, 1, 72, 100
3, 14591, Note_off_c, 1, 72, 64
3, 14591, Note_off_c, 1, 77, 64
3, 14592, Note_on_c, 1, 78, 100
3, 14592, Note_on_c, 1, 72, 100
3, 14639, Note_off_c, 1, 72, 64
3, 14639, Note_off_c, 1, 78, 64
3, 14880, Note_on_c, 1, 78, 100
3, 14880, Note_on_c, 1, 72, 100
3, 14975, Note_off_c, 1, 72, 64
3, 14975, Note_off_c, 1, 78, 64
3, 14976, Note_on_c, 1, 77, 100
3, 14976, Note_on_c, 1, 72, 100
3, 15023, Note_off_c, 1, 72, 64
3, 15023, Note_off_c, 1, 77, 64
3, 15264, Note_on_c, 1, 77, 100
3, 15264, Note_on_c, 1, 72, 100
3, 15359, Note_off_c, 1, 72, 64
3, 15359, Note_off_c, 1, 77, 64
3, 15360, Note_on_c, 1, 83, 100
3, 15383, Note_off_c, 1, 83, 64
3, 15384, Note_on_c, 1, 83, 100
3, 15407, Note_off_c, 1, 83, 64
3, 15408, Note_on_c, 1, 83, 100
3, 15431, Note_off_c, 1, 83, 64
3, 15432, Note_on_c, 1, 83, 100
3, 15455, Note_off_c, 1, 83, 64
3, 15456, Note_on_c, 1, 79, 100
3, 15479, Note_off_c, 1, 79, 64
3, 15480, Note_on_c, 1, 79, 100
3, 15503, Note_off_c, 1, 79, 64
3, 15504, Note_on_c, 1, 79, 100
3, 15527, Note_off_c, 1, 79, 64
3, 15528, Note_on_c, 1, 79, 100
3, 15551, Note_off_c, 1, 79, 64
3, 15552, Note_on_c, 1, 76, 100
3, 15575, Note_off_c, 1, 76, 64
3, 15576, Note_on_c, 1, 76, 100
3, 15599, Note_off_c, 1, 76, 64
3, 15600, Note_on_c, 1, 76, 100
3, 15623, Note_off_c, 1, 76, 64
3, 15624, Note_on_c, 1, 76, 100
3, 15647, Note_off_c, 1, 76, 64
3, 15648, Note_on_c, 1, 72, 100
3, 15671, Note_off_c, 1, 72, 64
3, 15672, Note_on_c, 1, 72, 100
3, 15695, Note_off_c, 1, 72, 64
3, 15696, Note_on_c, 1, 72, 100
3, 15719, Note_off_c, 1, 72, 64
3, 15720, Note_on_c, 1, 72, 100
3, 15743, Note_off_c, 1, 72, 64
3, 15744, Note_on_c, 1, 71, 100
3, 15767, Note_off_c, 1, 71, 64
3, 15768, Note_on_c, 1, 71, 100
3, 15791, Note_off_c, 1, 71, 64
3, 15792, Note_on_c, 1, 71, 100
3, 15815, Note_off_c, 1, 71, 64
3, 15816, Note_on_c, 1, 71, 100
3, 15839, Note_off_c, 1, 71, 64
3, 15840, Note_on_c, 1, 67, 100
3, 15863, Note_off_c, 1, 67, 64
3, 15864, Note_on_c, 1, 67, 100
3, 15887, Note_off_c, 1, 67, 64
3, 15888, Note_on_c, 1, 67, 100
3, 15911, Note_off_c, 1, 67, 64
3, 15912, Note_on_c, 1, 67, 100
3, 15935, Note_off_c, 1, 67, 64
3, 15936, Note_on_c, 1, 64, 100
3, 15959, Note_off_c, 1, 64, 64
3, 15960, Note_on_c, 1, 64, 100
3, 15983, Note_off_c, 1, 64, 64
3, 15984, Note_on_c, 1, 64, 100
3, 16007, Note_off_c, 1, 64, 64
3, 16008, Note_on_c, 1, 64, 100
3, 16031, Note_off_c, 1, 64, 64
3, 16032, Note_on_c, 1, 60, 100
3, 16055, Note_off_c, 1, 60, 64
3, 16056, Note_on_c, 1, 60, 100
3, 16079, Note_off_c, 1, 60, 64
3, 16080, Note_on_c, 1, 60, 100
3, 16103, Note_off_c, 1, 60, 64
3, 16104, Note_on_c, 1, 60, 100
3, 16127, Note_off_c, 1, 60, 64
3, 16128, Note_on_c, 1, 61, 100
3, 16151, Note_off_c, 1, 61, 64
3, 16152, Note_on_c, 1, 61, 100
3, 16175, Note_off_c, 1, 61, 64
3, 16176, Note_on_c, 1, 61, 100
3, 16199, Note_off_c, 1, 61, 64
3, 16200, Note_on_c, 1, 61, 100
3, 16223, Note_off_c, 1, 61, 64
3, 16224, Note_on_c, 1, 64, 100
3, 16247, Note_off_c, 1, 64, 64
3, 16248, Note_on_c, 1, 64, 100
3, 16271, Note_off_c, 1, 64, 64
3, 16272, Note_on_c, 1, 64, 100
3, 16295, Note_off_c, 1, 64, 64
3, 16296, Note_on_c, 1, 64, 100
3, 16319, Note_off_c, 1, 64, 64
3, 16320, Note_on_c, 1, 67, 100
3, 16343, Note_off_c, 1, 67, 64
3, 16344, Note_on_c, 1, 67, 100
3, 16367, Note_off_c, 1, 67, 64
3, 16368, Note_on_c, 1, 67, 100
3, 16391, Note_off_c, 1, 67, 64
3, 16392, Note_on_c, 1, 67, 100
3, 16415, Note_off_c, 1, 67, 64
3, 16416, Note_on_c, 1, 71, 100
3, 16439, Note_off_c, 1, 71, 64
3, 16440, Note_on_c, 1, 71, 100
3, 16463, Note_off_c, 1, 71, 64
3, 16464, Note_on_c, 1, 71, 100
3, 16487, Note_off_c, 1, 71, 64
3, 16488, Note_on_c, 1, 71, 100
3, 16511, Note_off_c, 1, 71, 64
3, 16512, Note_on_c, 1, 72, 100
3, 16535, Note_off_c, 1, 72, 64
3, 16536, Note_on_c, 1, 64, 100
3, 16559, Note_off_c, 1, 64, 64
3, 16560, Note_on_c, 1, 66, 100
3, 16583, Note_off_c, 1, 66, 64
3, 16584, Note_on_c, 1, 67, 100
3, 16607, Note_off_c, 1, 67, 64
3, 16608, Note_on_c, 1, 72, 100
3, 16631, Note_off_c, 1, 72, 64
3, 16632, Note_on_c, 1, 67, 100
3, 16655, Note_off_c, 1, 67, 64
3, 16656, Note_on_c, 1, 72, 100
3, 16679, Note_off_c, 1, 72, 64
3, 16680, Note_on_c, 1, 74, 100
3, 16703, Note_off_c, 1, 74, 64
3, 16704, Note_on_c, 1, 76, 100
3, 16727, Note_off_c, 1, 76, 64
3, 16728, Note_on_c, 1, 72, 100
3, 16751, Note_off_c, 1, 72, 64
3, 16752, Note_on_c, 1, 74, 100
3, 16775, Note_off_c, 1, 74, 64
3, 16776, Note_on_c, 1, 76, 100
3, 16799, Note_off_c, 1, 76, 64
3, 16800, Note_on_c, 1, 79, 100
3, 16823, Note_off_c, 1, 79, 64
3, 16824, Note_on_c, 1, 76, 100
3, 16847, Note_off_c, 1, 76, 64
3, 16848, Note_on_c, 1, 79, 100
3, 16871, Note_off_c, 1, 79, 64
3, 16872, Note_on_c, 1, 84, 100
3, 16895, Note_off_c, 1, 84, 64
3, 16896, Note_on_c, 1, 83, 100
3, 16919, Note_off_c, 1, 83, 64
3, 16920, Note_on_c, 1, 83, 100
3, 16943, Note_off_c, 1, 83, 64
3, 16944, Note_on_c, 1, 83, 100
3, 16967, Note_off_c, 1, 83, 64
3, 16968, Note_on_c, 1, 83, 100
3, 16991, Note_off_c, 1, 83, 64
3, 16992, Note_on_c, 1, 79, 100
3, 17015, Note_off_c, 1, 79, 64
3, 17016, Note_on_c, 1, 79, 100
3, 17039, Note_off_c, 1, 79, 64
3, 17040, Note_on_c, 1, 79, 100
3, 17063, Note_off_c, 1, 79, 64
3, 17064, Note_on_c, 1, 79, 100
3, 17087, Note_off_c, 1, 79, 64
3, 17088, Note_on_c, 1, 76, 100
3, 17111, Note_off_c, 1, 76, 64
3, 17112, Note_on_c, 1, 76, 100
3, 17135, Note_off_c, 1, 76, 64
3, 17136, Note_on_c, 1, 76, 100
3, 17159, Note_off_c, 1, 76, 64
3, 17160, Note_on_c, 1, 76, 100
3, 17183, Note_off_c, 1, 76, 64
3, 17184, Note_on_c, 1, 72, 100
3, 17207, Note_off_c, 1, 72, 64
3, 17208, Note_on_c, 1, 72, 100
3, 17231, Note_off_c, 1, 72, 64
3, 17232, Note_on_c, 1, 72, 100
3, 17255, Note_off_c, 1, 72, 64
3, 17256, Note_on_c, 1, 72, 100
3, 17279, Note_off_c, 1, 72, 64
3, 17280, Note_on_c, 1, 71, 100
3, 17303, Note_off_c, 1, 71, 64
3, 17304, Note_on_c, 1, 71, 100
3, 17327, Note_off_c, 1, 71, 64
3, 17328, Note_on_c, 1, 71, 100
3, 17351, Note_off_c, 1, 71, 64
3, 17352, Note_on_c, 1, 71, 100
3, 17375, Note_off_c, 1, 71, 64
3, 17376, Note_on_c, 1, 67, 100
3, 17399, Note_off_c, 1, 67, 64
3, 17400, Note_on_c, 1, 67, 100
3, 17423, Note_off_c, 1, 67, 64
3, 17424, Note_on_c, 1, 67, 100
3, 17447, Note_off_c, 1, 67, 64
3, 17448, Note_on_c, 1, 67, 100
3, 17471, Note_off_c, 1, 67, 64
3, 17472, Note_on_c, 1, 64, 100
3, 17495, Note_off_c, 1, 64, 64
3, 17496, Note_on_c, 1, 64, 100
3, 17519, Note_off_c, 1, 64, 64
3, 17520, Note_on_c, 1, 64, 100
3, 17543, Note_off_c, 1, 64, 64
3, 17544, Note_on_c, 1, 64, 100
3, 17567, Note_off_c, 1, 64, 64
3, 17568, Note_on_c, 1, 60, 100
3, 17591, Note_off_c, 1, 60, 64
3, 17592, Note_on_c, 1, 60, 100
3, 17615, Note_off_c, 1, 60, 64
3, 17616, Note_on_c, 1, 60, 100
3, 17639, Note_off_c, 1, 60, 64
3, 17640, Note_on_c, 1, 60, 100
3, 17663, Note_off_c, 1, 60, 64
3, 17664, Note_on_c, 1, 61, 100
3, 17687, Note_off_c, 1, 61, 64
3, 17688, Note_on_c, 1, 61, 100
3, 17711, Note_off_c, 1, 61, 64
3, 17712, Note_on_c, 1, 61, 100
3, 17735, Note_off_c, 1, 61, 64
3, 17736, Note_on_c, 1, 61, 100
3, 17759, Note_off_c, 1, 61, 64
3, 17760, Note_on_c, 1, 64, 100
3, 17783, Note_off_c, 1, 64, 64
3, 17784, Note_on_c, 1, 64, 100
3, 17807, Note_off_c, 1, 64, 64
3, 17808, Note_on_c, 1, 64, 100
3, 17831, Note_off_c, 1, 64, 64
3, 17832, Note_on_c, 1, 64, 100
3, 17855, Note_off_c, 1, 64, 64
3, 17856, Note_on_c, 1, 67, 100
3, 17879, Note_off_c, 1, 67, 64
3, 17880, Note_on_c, 1, 67, 100
3, 17903, Note_off_c, 1, 67, 64
3, 17904, Note_on_c, 1, 67, 100
3, 17927, Note_off_c, 1, 67, 64
3, 17928, Note_on_c, 1, 67, 100
3, 17951, Note_off_c, 1, 67, 64
3, 17952, Note_on_c, 1, 71, 100
3, 17975, Note_off_c, 1, 71, 64
3, 17976, Note_on_c, 1, 71, 100
3, 17999, Note_off_c, 1, 71, 64
3, 18000, Note_on_c, 1, 71, 100
3, 18023, Note_off_c, 1, 71, 64
3, 18024, Note_on_c, 1, 71, 100
3, 18047, Note_off_c, 1, 71, 64
3, 18048, Note_on_c, 1, 72, 100
3, 18071, Note_off_c, 1, 72, 64
3, 18072, Note_on_c, 1, 64, 100
3, 18095, Note_off_c, 1, 64, 64
3, 18096, Note_on_c, 1, 66, 100
3, 18119, Note_off_c, 1, 66, 64
3, 18120, Note_on_c, 1, 67, 100
3, 18143, Note_off_c, 1, 67, 64
3, 18144, Note_on_c, 1, 72, 100
3, 18167, Note_off_c, 1, 72, 64
3, 18168, Note_on_c, 1, 67, 100
3, 18191, Note_off_c, 1, 67, 64
3, 18192, Note_on_c, 1, 72, 100
3, 18215, Note_off_c, 1, 72, 64
3, 18216, Note_on_c, 1, 74, 100
3, 18239, Note_off_c, 1, 74, 64
3, 18240, Note_on_c, 1, 76, 100
3, 18263, Note_off_c, 1, 76, 64
3, 18264, Note_on_c, 1, 72, 100
3, 18287, Note_off_c, 1, 72, 64
3, 18288, Note_on_c, 1, 74, 100
3, 18311, Note_off_c, 1, 74, 64
3, 18312, Note_on_c, 1, 76, 100
3, 18335, Note_off_c, 1, 76, 64
3, 18336, Note_on_c, 1, 79, 100
3, 18359, Note_off_c, 1, 79, 64
3, 18360, Note_on_c, 1, 76, 100
3, 18383, Note_off_c, 1, 76, 64
3, 18384, Note_on_c, 1, 79, 100
3, 18407, Note_off_c, 1, 79, 64
3, 18408, Note_on_c, 1, 84, 100
3, 18431, Note_off_c, 1, 84, 64
3, 18432, Control_c, 1, 101, 0
3, 18432, Control_c, 1, 100, 0
3, 18432, Control_c, 1, 6, 12
3, 18432, Control_c, 1, 10, 64
3, 18432, Control_c, 1, 7, 100
3, 18432, Pitch_bend_c, 1, 8192
3, 18432, Program_c, 1, 81
3, 18433, Control_c, 1, 101, 0
3, 18433, Control_c, 1, 100, 0
3, 18433, Control_c, 1, 6, 12
3, 18433, Control_c, 1, 10, 64
3, 18433, Control_c, 1, 7, 100
3, 18433, Pitch_bend_c, 1, 8192
3, 18433, Program_c, 1, 81
3, 18433, Control_c, 1, 101, 0
3, 18433, Control_c, 1, 100, 0
3, 18433, Control_c, 1, 6, 12
3, 18433, Control_c, 1, 10, 64
3, 18433, Control_c, 1, 7, 100
3, 18433, Pitch_bend_c, 1, 8192
3, 18433, Program_c, 1, 81
3, 18433, End_track
4, 0, Start_track
4, 0, Title_t, "Concerto"
4, 0, Control_c, 0, 10, 64
4, 0, Control_c, 0, 7, 100
4, 0, Pitch_bend_c, 0, 8192
4, 0, Control_c, 0, 101, 0
4, 0, Control_c, 0, 100, 0
4, 0, Control_c, 0, 6, 12
4, 0, Control_c, 0, 10, 64
4, 0, Control_c, 0, 7, 100
4, 0, Pitch_bend_c, 0, 8192
4, 0, Program_c, 0, 39
4, 0, Control_c, 0, 101, 0
4, 0, Control_c, 0, 100, 0
4, 0, Control_c, 0, 6, 12
4, 0, Control_c, 0, 10, 64
4, 0, Control_c, 0, 7, 100
4, 0, Pitch_bend_c, 0, 8192
4, 0, Program_c, 0, 39
4, 0, Control_c, 0, 101, 0
4, 0, Control_c, 0, 100, 0
4, 0, Control_c, 0, 6, 12
4, 0, Control_c, 0, 10, 64
4, 0, Control_c, 0, 7, 100
4, 0, Pitch_bend_c, 0, 8192
4, 0, Program_c, 0, 39
4, 0, Note_on_c, 0, 40, 100
4, 47, Note_off_c, 0, 40, 64
4, 48, Note_on_c, 0, 42, 100
4, 95, Note_off_c, 0, 42, 64
4, 96, Note_on_c, 0, 43, 100
4, 143, Note_off_c, 0, 43, 64
4, 144, Note_on_c, 0, 47, 100
4, 191, Note_off_c, 0, 47, 64
4, 192, Note_on_c, 0, 40, 100
4, 239, Note_off_c, 0, 40, 64
4, 240, Note_on_c, 0, 42, 100
4, 287, Note_off_c, 0, 42, 64
4, 288, Note_on_c, 0, 43, 100
4, 335, Note_off_c, 0, 43, 64
4, 336, Note_on_c, 0, 47, 100
4, 383, Note_off_c, 0, 47, 64
4, 384, Note_on_c, 0, 40, 100
4, 431, Note_off_c, 0, 40, 64
4, 432, Note_on_c, 0, 42, 100
4, 479, Note_off_c, 0, 42, 64
4, 480, Note_on_c, 0, 43, 100
4, 527, Note_off_c, 0, 43, 64
4, 528, Note_on_c, 0, 48, 100
4, 575, Note_off_c, 0, 48, 64
4, 576, Note_on_c, 0, 40, 100
4, 623, Note_off_c, 0, 40, 64
4, 624, Note_on_c, 0, 42, 100
4, 671, Note_off_c, 0, 42, 64
4, 672, Note_on_c, 0, 43, 100
4, 719, Note_off_c, 0, 43, 64
4, 720, Note_on_c, 0, 48, 100
4, 767, Note_off_c, 0, 48, 64
4, 768, Note_on_c, 0, 40, 100
4, 815, Note_off_c, 0, 40, 64
4, 816, Note_on_c, 0, 42, 100
4, 863, Note_off_c, 0, 42, 64
4, 864, Note_on_c, 0, 43, 100
4, 911, Note_off_c, 0, 43, 64
4, 912, Note_on_c, 0, 49, 100
4, 959, Note_off_c, 0, 49, 64
4, 960, Note_on_c, 0, 40, 100
4, 1007, Note_off_c, 0, 40, 64
4, 1008, Note_on_c, 0, 42, 100
4, 1055, Note_off_c, 0, 42, 64
4, 1056, Note_on_c, 0, 43, 100
4, 1103, Note_off_c, 0, 43, 64
4, 1104, Note_on_c, 0, 49, 100
4, 1151, Note_off_c, 0, 49, 64
4, 1152, Note_on_c, 0, 40, 100
4, 1199, Note_off_c, 0, 40, 64
4, 1200, Note_on_c, 0, 42, 100
4, 1247, Note_off_c, 0, 42, 64
4, 1248, Note_on_c, 0, 43, 100
4, 1295, Note_off_c, 0, 43, 64
4, 1296, Note_on_c, 0, 48, 100
4, 1343, Note_off_c, 0, 48, 64
4, 1344, Note_on_c, 0, 40, 100
4, 1391, Note_off_c, 0, 40, 64
4, 1392, Note_on_c, 0, 42, 100
4, 1439, Note_off_c, 0, 42, 64
4, 1440, Note_on_c, 0, 43, 100
4, 1487, Note_off_c, 0, 43, 64
4, 1488, Note_on_c, 0, 48, 100
4, 1535, Note_off_c, 0, 48, 64
4, 1536, Note_on_c, 0, 40, 100
4, 1583, Note_off_c, 0, 40, 64
4, 1584, Note_on_c, 0, 42, 100
4, 1631, Note_off_c, 0, 42, 64
4, 1632, Note_on_c, 0, 43, 100
4, 1679, Note_off_c, 0, 43, 64
4, 1680, Note_on_c, 0, 47, 100
4, 1727, Note_off_c, 0, 47, 64
4, 1728, Note_on_c, 0, 40, 100
4, 1775, Note_off_c, 0, 40, 64
4, 1776, Note_on_c, 0, 42, 100
4, 1823, Note_off_c, 0, 42, 64
4, 1824, Note_on_c, 0, 43, 100
4, 1871, Note_off_c, 0, 43, 64
4, 1872, Note_on_c, 0, 47, 100
4, 1919, Note_off_c, 0, 47, 64
4, 1920, Note_on_c, 0, 40, 100
4, 1967, Note_off_c, 0, 40, 64
4, 1968, Note_on_c, 0, 42, 100
4, 2015, Note_off_c, 0, 42, 64
4, 2016, Note_on_c, 0, 43, 100
4, 2063, Note_off_c, 0, 43, 64
4, 2064, Note_on_c, 0, 48, 100
4, 2111, Note_off_c, 0, 48, 64
4, 2112, Note_on_c, 0, 40, 100
4, 2159, Note_off_c, 0, 40, 64
4, 2160, Note_on_c, 0, 42, 100
4, 2207, Note_off_c, 0, 42, 64
4, 2208, Note_on_c, 0, 43, 100
4, 2255, Note_off_c, 0, 43, 64
4, 2256, Note_on_c, 0, 48, 100
4, 2303, Note_off_c, 0, 48, 64
4, 2304, Note_on_c, 0, 40, 100
4, 2351, Note_off_c, 0, 40, 64
4, 2352, Note_on_c, 0, 42, 100
4, 2399, Note_off_c, 0, 42, 64
4, 2400, Note_on_c, 0, 43, 100
4, 2447, Note_off_c, 0, 43, 64
4, 2448, Note_on_c, 0, 49, 100
4, 2495, Note_off_c, 0, 49, 64
4, 2496, Note_on_c, 0, 40, 100
4, 2543, Note_off_c, 0, 40, 64
4, 2544, Note_on_c, 0, 42, 100
4, 2591, Note_off_c, 0, 42, 64
4, 2592, Note_on_c, 0, 43, 100
4, 2639, Note_off_c, 0, 43, 64
4, 2640, Note_on_c, 0, 49, 100
4, 2687, Note_off_c, 0, 49, 64
4, 2688, Note_on_c, 0, 40, 100
4, 2735, Note_off_c, 0, 40, 64
4, 2736, Note_on_c, 0, 42, 100
4, 2783, Note_off_c, 0, 42, 64
4, 2784, Note_on_c, 0, 43, 100
4, 2831, Note_off_c, 0, 43, 64
4, 2832, Note_on_c, 0, 48, 100
4, 2879, Note_off_c, 0, 48, 64
4, 2880, Note_on_c, 0, 40, 100
4, 2927, Note_off_c, 0, 40, 64
4, 2928, Note_on_c, 0, 42, 100
4, 2975, Note_off_c, 0, 42, 64
4, 2976, Note_on_c, 0, 43, 100
4, 3023, Note_off_c, 0, 43, 64
4, 3024, Note_on_c, 0, 48, 100
4, 3071, Note_off_c, 0, 48, 64
4, 3072, Note_on_c, 0, 45, 100
4, 3119, Note_off_c, 0, 45, 64
4, 3120, Note_on_c, 0, 47, 100
4, 3167, Note_off_c, 0, 47, 64
4, 3168, Note_on_c, 0, 48, 100
4, 3215, Note_off_c, 0, 48, 64
4, 3216, Note_on_c, 0, 52, 100
4, 3263, Note_off_c, 0, 52, 64
4, 3264, Note_on_c, 0, 45, 100
4, 3311, Note_off_c, 0, 45, 64
4, 3312, Note_on_c, 0, 47, 100
4, 3359, Note_off_c, 0, 47, 64
4, 3360, Note_on_c, 0, 48, 100
4, 3407, Note_off_c, 0, 48, 64
4, 3408, Note_on_c, 0, 52, 100
4, 3455, Note_off_c, 0, 52, 64
4, 3456, Note_on_c, 0, 45, 100
4, 3503, Note_off_c, 0, 45, 64
4, 3504, Note_on_c, 0, 47, 100
4, 3551, Note_off_c, 0, 47, 64
4, 3552, Note_on_c, 0, 48, 100
4, 3599, Note_off_c, 0, 48, 64
4, 3600, Note_on_c, 0, 53, 100
4, 3647, Note_off_c, 0, 53, 64
4, 3648, Note_on_c, 0, 45, 100
4, 3695, Note_off_c, 0, 45, 64
4, 3696, Note_on_c, 0, 47, 100
4, 3743, Note_off_c, 0, 47, 64
4, 3744, Note_on_c, 0, 48, 100
4, 3791, Note_off_c, 0, 48, 64
4, 3792, Note_on_c, 0, 53, 100
4, 3839, Note_off_c, 0, 53, 64
4, 3840, Note_on_c, 0, 45, 100
4, 3887, Note_off_c, 0, 45, 64
4, 3888, Note_on_c, 0, 47, 100
4, 3935, Note_off_c, 0, 47, 64
4, 3936, Note_on_c, 0, 48, 100
4, 3983, Note_off_c, 0, 48, 64
4, 3984, Note_on_c, 0, 54, 100
4, 4031, Note_off_c, 0, 54, 64
4, 4032, Note_on_c, 0, 45, 100
4, 4079, Note_off_c, 0, 45, 64
4, 4080, Note_on_c, 0, 47, 100
4, 4127, Note_off_c, 0, 47, 64
4, 4128, Note_on_c, 0, 48, 100
4, 4175, Note_off_c, 0, 48, 64
4, 4176, Note_on_c, 0, 54, 100
4, 4223, Note_off_c, 0, 54, 64
4, 4224, Note_on_c, 0, 45, 100
4, 4271, Note_off_c, 0, 45, 64
4, 4272, Note_on_c, 0, 47, 100
4, 4319, Note_off_c, 0, 47, 64
4, 4320, Note_on_c, 0, 48, 100
4, 4367, Note_off_c, 0, 48, 64
4, 4368, Note_on_c, 0, 53, 100
4, 4415, Note_off_c, 0, 53, 64
4, 4416, Note_on_c, 0, 45, 100
4, 4463, Note_off_c, 0, 45, 64
4, 4464, Note_on_c, 0, 47, 100
4, 4511, Note_off_c, 0, 47, 64
4, 4512, Note_on_c, 0, 48, 100
4, 4559, Note_off_c, 0, 48, 64
4, 4560, Note_on_c, 0, 53, 100
4, 4607, Note_off_c, 0, 53, 64
4, 4608, Note_on_c, 0, 45, 100
4, 4655, Note_off_c, 0, 45, 64
4, 4656, Note_on_c, 0, 47, 100
4, 4703, Note_off_c, 0, 47, 64
4, 4704, Note_on_c, 0, 48, 100
4, 4751, Note_off_c, 0, 48, 64
4, 4752, Note_on_c, 0, 52, 100
4, 4799, Note_off_c, 0, 52, 64
4, 4800, Note_on_c, 0, 45, 100
4, 4847, Note_off_c, 0, 45, 64
4, 4848, Note_on_c, 0, 47, 100
4, 4895, Note_off_c, 0, 47, 64
4, 4896, Note_on_c, 0, 48, 100
4, 4943, Note_off_c, 0, 48, 64
4, 4944, Note_on_c, 0, 52, 100
4, 4991, Note_off_c, 0, 52, 64
4, 4992, Note_on_c, 0, 45, 100
4, 5039, Note_off_c, 0, 45, 64
4, 5040, Note_on_c, 0, 47, 100
4, 5087, Note_off_c, 0, 47, 64
4, 5088, Note_on_c, 0, 48, 100
4, 5135, Note_off_c, 0, 48, 64
4, 5136, Note_on_c, 0, 53, 100
4, 5183, Note_off_c, 0, 53, 64
4, 5184, Note_on_c, 0, 45, 100
4, 5231, Note_off_c, 0, 45, 64
4, 5232, Note_on_c, 0, 47, 100
4, 5279, Note_off_c, 0, 47, 64
4, 5280, Note_on_c, 0, 48, 100
4, 5327, Note_off_c, 0, 48, 64
4, 5328, Note_on_c, 0, 53, 100
4, 5375, Note_off_c, 0, 53, 64
4, 5376, Note_on_c, 0, 45, 100
4, 5423, Note_off_c, 0, 45, 64
4, 5424, Note_on_c, 0, 47, 100
4, 5471, Note_off_c, 0, 47, 64
4, 5472, Note_on_c, 0, 48, 100
4, 5519, Note_off_c, 0, 48, 64
4, 5520, Note_on_c, 0, 54, 100
4, 5567, Note_off_c, 0, 54, 64
4, 5568, Note_on_c, 0, 45, 100
4, 5615, Note_off_c, 0, 45, 64
4, 5616, Note_on_c, 0, 47, 100
4, 5663, Note_off_c, 0, 47, 64
4, 5664, Note_on_c, 0, 48, 100
4, 5711, Note_off_c, 0, 48, 64
4, 5712, Note_on_c, 0, 54, 100
4, 5759, Note_off_c, 0, 54, 64
4, 5760, Note_on_c, 0, 45, 100
4, 5807, Note_off_c, 0, 45, 64
4, 5808, Note_on_c, 0, 47, 100
4, 5855, Note_off_c, 0, 47, 64
4, 5856, Note_on_c, 0, 48, 100
4, 5903, Note_off_c, 0, 48, 64
4, 5904, Note_on_c, 0, 53, 100
4, 5951, Note_off_c, 0, 53, 64
4, 5952, Note_on_c, 0, 45, 100
4, 5999, Note_off_c, 0, 45, 64
4, 6000, Note_on_c, 0, 47, 100
4, 6047, Note_off_c, 0, 47, 64
4, 6048, Note_on_c, 0, 48, 100
4, 6095, Note_off_c, 0, 48, 64
4, 6096, Note_on_c, 0, 53, 100
4, 6143, Note_off_c, 0, 53, 64
4, 6144, Note_on_c, 0, 35, 100
4, 6191, Note_off_c, 0, 35, 64
4, 6192, Note_on_c, 0, 35, 100
4, 6239, Note_off_c, 0, 35, 64
4, 6240, Note_on_c, 0, 43, 100
4, 6287, Note_off_c, 0, 43, 64
4, 6288, Note_on_c, 0, 35, 100
4, 6335, Note_off_c, 0, 35, 64
4, 6336, Note_on_c, 0, 35, 100
4, 6383, Note_off_c, 0, 35, 64
4, 6384, Note_on_c, 0, 43, 100
4, 6431, Note_off_c, 0, 43, 64
4, 6432, Note_on_c, 0, 35, 100
4, 6479, Note_off_c, 0, 35, 64
4, 6480, Note_on_c, 0, 43, 100
4, 6527, Note_off_c, 0, 43, 64
4, 6528, Note_on_c, 0, 36, 100
4, 6575, Note_off_c, 0, 36, 64
4, 6576, Note_on_c, 0, 36, 100
4, 6623, Note_off_c, 0, 36, 64
4, 6624, Note_on_c, 0, 43, 100
4, 6671, Note_off_c, 0, 43, 64
4, 6672, Note_on_c, 0, 36, 100
4, 6719, Note_off_c, 0, 36, 64
4, 6720, Note_on_c, 0, 36, 100
4, 6767, Note_off_c, 0, 36, 64
4, 6768, Note_on_c, 0, 43, 100
4, 6815, Note_off_c, 0, 43, 64
4, 6816, Note_on_c, 0, 36, 100
4, 6863, Note_off_c, 0, 36, 64
4, 6864, Note_on_c, 0, 43, 100
4, 6911, Note_off_c, 0, 43, 64
4, 6912, Note_on_c, 0, 37, 100
4, 6959, Note_off_c, 0, 37, 64
4, 6960, Note_on_c, 0, 37, 100
4, 7007, Note_off_c, 0, 37, 64
4, 7008, Note_on_c, 0, 43, 100
4, 7055, Note_off_c, 0, 43, 64
4, 7056, Note_on_c, 0, 37, 100
4, 7103, Note_off_c, 0, 37, 64
4, 7104, Note_on_c, 0, 37, 100
4, 7151, Note_off_c, 0, 37, 64
4, 7152, Note_on_c, 0, 43, 100
4, 7199, Note_off_c, 0, 43, 64
4, 7200, Note_on_c, 0, 37, 100
4, 7247, Note_off_c, 0, 37, 64
4, 7248, Note_on_c, 0, 43, 100
4, 7295, Note_off_c, 0, 43, 64
4, 7296, Note_on_c, 0, 36, 100
4, 7343, Note_off_c, 0, 36, 64
4, 7344, Note_on_c, 0, 36, 100
4, 7391, Note_off_c, 0, 36, 64
4, 7392, Note_on_c, 0, 43, 100
4, 7439, Note_off_c, 0, 43, 64
4, 7440, Note_on_c, 0, 36, 100
4, 7487, Note_off_c, 0, 36, 64
4, 7488, Note_on_c, 0, 36, 100
4, 7535, Note_off_c, 0, 36, 64
4, 7536, Note_on_c, 0, 43, 100
4, 7583, Note_off_c, 0, 43, 64
4, 7584, Note_on_c, 0, 36, 100
4, 7631, Note_off_c, 0, 36, 64
4, 7632, Note_on_c, 0, 43, 100
4, 7679, Note_off_c, 0, 43, 64
4, 7680, Note_on_c, 0, 35, 100
4, 7727, Note_off_c, 0, 35, 64
4, 7728, Note_on_c, 0, 35, 100
4, 7775, Note_off_c, 0, 35, 64
4, 7776, Note_on_c, 0, 43, 100
4, 7823, Note_off_c, 0, 43, 64
4, 7824, Note_on_c, 0, 35, 100
4, 7871, Note_off_c, 0, 35, 64
4, 7872, Note_on_c, 0, 35, 100
4, 7919, Note_off_c, 0, 35, 64
4, 7920, Note_on_c, 0, 43, 100
4, 7967, Note_off_c, 0, 43, 64
4, 7968, Note_on_c, 0, 35, 100
4, 8015, Note_off_c, 0, 35, 64
4, 8016, Note_on_c, 0, 43, 100
4, 8063, Note_off_c, 0, 43, 64
4, 8064, Note_on_c, 0, 36, 100
4, 8111, Note_off_c, 0, 36, 64
4, 8112, Note_on_c, 0, 36, 100
4, 8159, Note_off_c, 0, 36, 64
4, 8160, Note_on_c, 0, 43, 100
4, 8207, Note_off_c, 0, 43, 64
4, 8208, Note_on_c, 0, 36, 100
4, 8255, Note_off_c, 0, 36, 64
4, 8256, Note_on_c, 0, 36, 100
4, 8303, Note_off_c, 0, 36, 64
4, 8304, Note_on_c, 0, 43, 100
4, 8351, Note_off_c, 0, 43, 64
4, 8352, Note_on_c, 0, 36, 100
4, 8399, Note_off_c, 0, 36, 64
4, 8400, Note_on_c, 0, 43, 100
4, 8447, Note_off_c, 0, 43, 64
4, 8448, Note_on_c, 0, 37, 100
4, 8495, Note_off_c, 0, 37, 64
4, 8496, Note_on_c, 0, 37, 100
4, 8543, Note_off_c, 0, 37, 64
4, 8544, Note_on_c, 0, 43, 100
4, 8591, Note_off_c, 0, 43, 64
4, 8592, Note_on_c, 0, 37, 100
4, 8639, Note_off_c, 0, 37, 64
4, 8640, Note_on_c, 0, 37, 100
4, 8687, Note_off_c, 0, 37, 64
4, 8688, Note_on_c, 0, 43, 100
4, 8735, Note_off_c, 0, 43, 64
4, 8736, Note_on_c, 0, 37, 100
4, 8783, Note_off_c, 0, 37, 64
4, 8784, Note_on_c, 0, 43, 100
4, 8831, Note_off_c, 0, 43, 64
4, 8832, Note_on_c, 0, 36, 100
4, 8879, Note_off_c, 0, 36, 64
4, 8880, Note_on_c, 0, 36, 100
4, 8927, Note_off_c, 0, 36, 64
4, 8928, Note_on_c, 0, 43, 100
4, 8975, Note_off_c, 0, 43, 64
4, 8976, Note_on_c, 0, 36, 100
4, 9023, Note_off_c, 0, 36, 64
4, 9024, Note_on_c, 0, 36, 100
4, 9071, Note_off_c, 0, 36, 64
4, 9072, Note_on_c, 0, 43, 100
4, 9119, Note_off_c, 0, 43, 64
4, 9120, Note_on_c, 0, 36, 100
4, 9167, Note_off_c, 0, 36, 64
4, 9168, Note_on_c, 0, 43, 100
4, 9215, Note_off_c, 0, 43, 64
4, 9216, Note_on_c, 0, 40, 100
4, 9263, Note_off_c, 0, 40, 64
4, 9264, Note_on_c, 0, 42, 100
4, 9311, Note_off_c, 0, 42, 64
4, 9312, Note_on_c, 0, 43, 100
4, 9359, Note_off_c, 0, 43, 64
4, 9360, Note_on_c, 0, 47, 100
4, 9407, Note_off_c, 0, 47, 64
4, 9408, Note_on_c, 0, 40, 100
4, 9455, Note_off_c, 0, 40, 64
4, 9456, Note_on_c, 0, 42, 100
4, 9503, Note_off_c, 0, 42, 64
4, 9504, Note_on_c, 0, 43, 100
4, 9551, Note_off_c, 0, 43, 64
4, 9552, Note_on_c, 0, 47, 100
4, 9599, Note_off_c, 0, 47, 64
4, 9600, Note_on_c, 0, 40, 100
4, 9647, Note_off_c, 0, 40, 64
4, 9648, Note_on_c, 0, 42, 100
4, 9695, Note_off_c, 0, 42, 64
4, 9696, Note_on_c, 0, 43, 100
4, 9743, Note_off_c, 0, 43, 64
4, 9744, Note_on_c, 0, 48, 100
4, 9791, Note_off_c, 0, 48, 64
4, 9792, Note_on_c, 0, 40, 100
4, 9839, Note_off_c, 0, 40, 64
4, 9840, Note_on_c, 0, 42, 100
4, 9887, Note_off_c, 0, 42, 64
4, 9888, Note_on_c, 0, 43, 100
4, 9935, Note_off_c, 0, 43, 64
4, 9936, Note_on_c, 0, 48, 100
4, 9983, Note_off_c, 0, 48, 64
4, 9984, Note_on_c, 0, 40, 100
4, 10031, Note_off_c, 0, 40, 64
4, 10032, Note_on_c, 0, 42, 100
4, 10079, Note_off_c, 0, 42, 64
4, 10080, Note_on_c, 0, 43, 100
4, 10127, Note_off_c, 0, 43, 64
4, 10128, Note_on_c, 0, 49, 100
4, 10175, Note_off_c, 0, 49, 64
4, 10176, Note_on_c, 0, 40, 100
4, 10223, Note_off_c, 0, 40, 64
4, 10224, Note_on_c, 0, 42, 100
4, 10271, Note_off_c, 0, 42, 64
4, 10272, Note_on_c, 0, 43, 100
4, 10319, Note_off_c, 0, 43, 64
4, 10320, Note_on_c, 0, 49, 100
4, 10367, Note_off_c, 0, 49, 64
4, 10368, Note_on_c, 0, 40, 100
4, 10415, Note_off_c, 0, 40, 64
4, 10416, Note_on_c, 0, 42, 100
4, 10463, Note_off_c, 0, 42, 64
4, 10464, Note_on_c, 0, 43, 100
4, 10511, Note_off_c, 0, 43, 64
4, 10512, Note_on_c, 0, 48, 100
4, 10559, Note_off_c, 0, 48, 64
4, 10560, Note_on_c, 0, 40, 100
4, 10607, Note_off_c, 0, 40, 64
4, 10608, Note_on_c, 0, 42, 100
4, 10655, Note_off_c, 0, 42, 64
4, 10656, Note_on_c, 0, 43, 100
4, 10703, Note_off_c, 0, 43, 64
4, 10704, Note_on_c, 0, 48, 100
4, 10751, Note_off_c, 0, 48, 64
4, 10752, Note_on_c, 0, 40, 100
4, 10799, Note_off_c, 0, 40, 64
4, 10800, Note_on_c, 0, 42, 100
4, 10847, Note_off_c, 0, 42, 64
4, 10848, Note_on_c, 0, 43, 100
4, 10895, Note_off_c, 0, 43, 64
4, 10896, Note_on_c, 0, 47, 100
4, 10943, Note_off_c, 0, 47, 64
4, 10944, Note_on_c, 0, 40, 100
4, 10991, Note_off_c, 0, 40, 64
4, 10992, Note_on_c, 0, 42, 100
4, 11039, Note_off_c, 0, 42, 64
4, 11040, Note_on_c, 0, 43, 100
4, 11087, Note_off_c, 0, 43, 64
4, 11088, Note_on_c, 0, 47, 100
4, 11135, Note_off_c, 0, 47, 64
4, 11136, Note_on_c, 0, 40, 100
4, 11183, Note_off_c, 0, 40, 64
4, 11184, Note_on_c, 0, 42, 100
4, 11231, Note_off_c, 0, 42, 64
4, 11232, Note_on_c, 0, 43, 100
4, 11279, Note_off_c, 0, 43, 64
4, 11280, Note_on_c, 0, 48, 100
4, 11327, Note_off_c, 0, 48, 64
4, 11328, Note_on_c, 0, 40, 100
4, 11375, Note_off_c, 0, 40, 64
4, 11376, Note_on_c, 0, 42, 100
4, 11423, Note_off_c, 0, 42, 64
4, 11424, Note_on_c, 0, 43, 100
4, 11471, Note_off_c, 0, 43, 64
4, 11472, Note_on_c, 0, 48, 100
4, 11519, Note_off_c, 0, 48, 64
4, 11520, Note_on_c, 0, 40, 100
4, 11567, Note_off_c, 0, 40, 64
4, 11568, Note_on_c, 0, 42, 100
4, 11615, Note_off_c, 0, 42, 64
4, 11616, Note_on_c, 0, 43, 100
4, 11663, Note_off_c, 0, 43, 64
4, 11664, Note_on_c, 0, 49, 100
4, 11711, Note_off_c, 0, 49, 64
4, 11712, Note_on_c, 0, 40, 100
4, 11759, Note_off_c, 0, 40, 64
4, 11760, Note_on_c, 0, 42, 100
4, 11807, Note_off_c, 0, 42, 64
4, 11808, Note_on_c, 0, 43, 100
4, 11855, Note_off_c, 0, 43, 64
4, 11856, Note_on_c, 0, 49, 100
4, 11903, Note_off_c, 0, 49, 64
4, 11904, Note_on_c, 0, 40, 100
4, 11951, Note_off_c, 0, 40, 64
4, 11952, Note_on_c, 0, 42, 100
4, 11999, Note_off_c, 0, 42, 64
4, 12000, Note_on_c, 0, 43, 100
4, 12047, Note_off_c, 0, 43, 64
4, 12048, Note_on_c, 0, 48, 100
4, 12095, Note_off_c, 0, 48, 64
4, 12096, Note_on_c, 0, 40, 100
4, 12143, Note_off_c, 0, 40, 64
4, 12144, Note_on_c, 0, 42, 100
4, 12191, Note_off_c, 0, 42, 64
4, 12192, Note_on_c, 0, 43, 100
4, 12239, Note_off_c, 0, 43, 64
4, 12240, Note_on_c, 0, 48, 100
4, 12287, Note_off_c, 0, 48, 64
4, 12288, Note_on_c, 0, 45, 100
4, 12335, Note_off_c, 0, 45, 64
4, 12336, Note_on_c, 0, 47, 100
4, 12383, Note_off_c, 0, 47, 64
4, 12384, Note_on_c, 0, 48, 100
4, 12431, Note_off_c, 0, 48, 64
4, 12432, Note_on_c, 0, 52, 100
4, 12479, Note_off_c, 0, 52, 64
4, 12480, Note_on_c, 0, 45, 100
4, 12527, Note_off_c, 0, 45, 64
4, 12528, Note_on_c, 0, 47, 100
4, 12575, Note_off_c, 0, 47, 64
4, 12576, Note_on_c, 0, 48, 100
4, 12623, Note_off_c, 0, 48, 64
4, 12624, Note_on_c, 0, 52, 100
4, 12671, Note_off_c, 0, 52, 64
4, 12672, Note_on_c, 0, 45, 100
4, 12719, Note_off_c, 0, 45, 64
4, 12720, Note_on_c, 0, 47, 100
4, 12767, Note_off_c, 0, 47, 64
4, 12768, Note_on_c, 0, 48, 100
4, 12815, Note_off_c, 0, 48, 64
4, 12816, Note_on_c, 0, 53, 100
4, 12863, Note_off_c, 0, 53, 64
4, 12864, Note_on_c, 0, 45, 100
4, 12911, Note_off_c, 0, 45, 64
4, 12912, Note_on_c, 0, 47, 100
4, 12959, Note_off_c, 0, 47, 64
4, 12960, Note_on_c, 0, 48, 100
4, 13007, Note_off_c, 0, 48, 64
4, 13008, Note_on_c, 0, 53, 100
4, 13055, Note_off_c, 0, 53, 64
4, 13056, Note_on_c, 0, 45, 100
4, 13103, Note_off_c, 0, 45, 64
4, 13104, Note_on_c, 0, 47, 100
4, 13151, Note_off_c, 0, 47, 64
4, 13152, Note_on_c, 0, 48, 100
4, 13199, Note_off_c, 0, 48, 64
4, 13200, Note_on_c, 0, 54, 100
4, 13247, Note_off_c, 0, 54, 64
4, 13248, Note_on_c, 0, 45, 100
4, 13295, Note_off_c, 0, 45, 64
4, 13296, Note_on_c, 0, 47, 100
4, 13343, Note_off_c, 0, 47, 64
4, 13344, Note_on_c, 0, 48, 100
4, 13391, Note_off_c, 0, 48, 64
4, 13392, Note_on_c, 0, 54, 100
4, 13439, Note_off_c, 0, 54, 64
4, 13440, Note_on_c, 0, 45, 100
4, 13487, Note_off_c, 0, 45, 64
4, 13488, Note_on_c, 0, 47, 100
4, 13535, Note_off_c, 0, 47, 64
4, 13536, Note_on_c, 0, 48, 100
4, 13583, Note_off_c, 0, 48, 64
4, 13584, Note_on_c, 0, 53, 100
4, 13631, Note_off_c, 0, 53, 64
4, 13632, Note_on_c, 0, 45, 100
4, 13679, Note_off_c, 0, 45, 64
4, 13680, Note_on_c, 0, 47, 100
4, 13727, Note_off_c, 0, 47, 64
4, 13728, Note_on_c, 0, 48, 100
4, 13775, Note_off_c, 0, 48, 64
4, 13776, Note_on_c, 0, 53, 100
4, 13823, Note_off_c, 0, 53, 64
4, 13824, Note_on_c, 0, 45, 100
4, 13871, Note_off_c, 0, 45, 64
4, 13872, Note_on_c, 0, 47, 100
4, 13919, Note_off_c, 0, 47, 64
4, 13920, Note_on_c, 0, 48, 100
4, 13967, Note_off_c, 0, 48, 64
4, 13968, Note_on_c, 0, 52, 100
4, 14015, Note_off_c, 0, 52, 64
4, 14016, Note_on_c, 0, 45, 100
4, 14063, Note_off_c, 0, 45, 64
4, 14064, Note_on_c, 0, 47, 100
4, 14111, Note_off_c, 0, 47, 64
4, 14112, Note_on_c, 0, 48, 100
4, 14159, Note_off_c, 0, 48, 64
4, 14160, Note_on_c, 0, 52, 100
4, 14207, Note_off_c, 0, 52, 64
4, 14208, Note_on_c, 0, 45, 100
4, 14255, Note_off_c, 0, 45, 64
4, 14256, Note_on_c, 0, 47, 100
4, 14303, Note_off_c, 0, 47, 64
4, 14304, Note_on_c, 0, 48, 100
4, 14351, Note_off_c, 0, 48, 64
4, 14352, Note_on_c, 0, 53, 100
4, 14399, Note_off_c, 0, 53, 64
4, 14400, Note_on_c, 0, 45, 100
4, 14447, Note_off_c, 0, 45, 64
4, 14448, Note_on_c, 0, 47, 100
4, 14495, Note_off_c, 0, 47, 64
4, 14496, Note_on_c, 0, 48, 100
4, 14543, Note_off_c, 0, 48, 64
4, 14544, Note_on_c, 0, 53, 100
4, 14591, Note_off_c, 0, 53, 64
4, 14592, Note_on_c, 0, 45, 100
4, 14639, Note_off_c, 0, 45, 64
4, 14640, Note_on_c, 0, 47, 100
4, 14687, Note_off_c, 0, 47, 64
4, 14688, Note_on_c, 0, 48, 100
4, 14735, Note_off_c, 0, 48, 64
4, 14736, Note_on_c, 0, 54, 100
4, 14783, Note_off_c, 0, 54, 64
4, 14784, Note_on_c, 0, 45, 100
4, 14831, Note_off_c, 0, 45, 64
4, 14832, Note_on_c, 0, 47, 100
4, 14879, Note_off_c, 0, 47, 64
4, 14880, Note_on_c, 0, 48, 100
4, 14927, Note_off_c, 0, 48, 64
4, 14928, Note_on_c, 0, 54, 100
4, 14975, Note_off_c, 0, 54, 64
4, 14976, Note_on_c, 0, 45, 100
4, 15023, Note_off_c, 0, 45, 64
4, 15024, Note_on_c, 0, 47, 100
4, 15071, Note_off_c, 0, 47, 64
4, 15072, Note_on_c, 0, 48, 100
4, 15119, Note_off_c, 0, 48, 64
4, 15120, Note_on_c, 0, 53, 100
4, 15167, Note_off_c, 0, 53, 64
4, 15168, Note_on_c, 0, 45, 100
4, 15215, Note_off_c, 0, 45, 64
4, 15216, Note_on_c, 0, 47, 100
4, 15263, Note_off_c, 0, 47, 64
4, 15264, Note_on_c, 0, 48, 100
4, 15311, Note_off_c, 0, 48, 64
4, 15312, Note_on_c, 0, 53, 100
4, 15359, Note_off_c, 0, 53, 64
4, 15360, Note_on_c, 0, 35, 100
4, 15407, Note_off_c, 0, 35, 64
4, 15408, Note_on_c, 0, 35, 100
4, 15455, Note_off_c, 0, 35, 64
4, 15456, Note_on_c, 0, 43, 100
4, 15503, Note_off_c, 0, 43, 64
4, 15504, Note_on_c, 0, 35, 100
4, 15551, Note_off_c, 0, 35, 64
4, 15552, Note_on_c, 0, 35, 100
4, 15599, Note_off_c, 0, 35, 64
4, 15600, Note_on_c, 0, 43, 100
4, 15647, Note_off_c, 0, 43, 64
4, 15648, Note_on_c, 0, 35, 100
4, 15695, Note_off_c, 0, 35, 64
4, 15696, Note_on_c, 0, 43, 100
4, 15743, Note_off_c, 0, 43, 64
4, 15744, Note_on_c, 0, 36, 100
4, 15791, Note_off_c, 0, 36, 64
4, 15792, Note_on_c, 0, 36, 100
4, 15839, Note_off_c, 0, 36, 64
4, 15840, Note_on_c, 0, 43, 100
4, 15887, Note_off_c, 0, 43, 64
4, 15888, Note_on_c, 0, 36, 100
4, 15935, Note_off_c, 0, 36, 64
4, 15936, Note_on_c, 0, 36, 100
4, 15983, Note_off_c, 0, 36, 64
4, 15984, Note_on_c, 0, 43, 100
4, 16031, Note_off_c, 0, 43, 64
4, 16032, Note_on_c, 0, 36, 100
4, 16079, Note_off_c, 0, 36, 64
4, 16080, Note_on_c, 0, 43, 100
4, 16127, Note_off_c, 0, 43, 64
4, 16128, Note_on_c, 0, 37, 100
4, 16175, Note_off_c, 0, 37, 64
4, 16176, Note_on_c, 0, 37, 100
4, 16223, Note_off_c, 0, 37, 64
4, 16224, Note_on_c, 0, 43, 100
4, 16271, Note_off_c, 0, 43, 64
4, 16272, Note_on_c, 0, 37, 100
4, 16319, Note_off_c, 0, 37, 64
4, 16320, Note_on_c, 0, 37, 100
4, 16367, Note_off_c, 0, 37, 64
4, 16368, Note_on_c, 0, 43, 100
4, 16415, Note_off_c, 0, 43, 64
4, 16416, Note_on_c, 0, 37, 100
4, 16463, Note_off_c, 0, 37, 64
4, 16464, Note_on_c, 0, 43, 100
4, 16511, Note_off_c, 0, 43, 64
4, 16512, Note_on_c, 0, 36, 100
4, 16559, Note_off_c, 0, 36, 64
4, 16560, Note_on_c, 0, 36, 100
4, 16607, Note_off_c, 0, 36, 64
4, 16608, Note_on_c, 0, 43, 100
4, 16655, Note_off_c, 0, 43, 64
4, 16656, Note_on_c, 0, 36, 100
4, 16703, Note_off_c, 0, 36, 64
4, 16704, Note_on_c, 0, 36, 100
4, 16751, Note_off_c, 0, 36, 64
4, 16752, Note_on_c, 0, 43, 100
4, 16799, Note_off_c, 0, 43, 64
4, 16800, Note_on_c, 0, 36, 100
4, 16847, Note_off_c, 0, 36, 64
4, 16848, Note_on_c, 0, 43, 100
4, 16895, Note_off_c, 0, 43, 64
4, 16896, Note_on_c, 0, 35, 100
4, 16943, Note_off_c, 0, 35, 64
4, 16944, Note_on_c, 0, 35, 100
4, 16991, Note_off_c, 0, 35, 64
4, 16992, Note_on_c, 0, 43, 100
4, 17039, Note_off_c, 0, 43, 64
4, 17040, Note_on_c, 0, 35, 100
4, 17087, Note_off_c, 0, 35, 64
4, 17088, Note_on_c, 0, 35, 100
4, 17135, Note_off_c, 0, 35, 64
4, 17136, Note_on_c, 0, 43, 100
4, 17183, Note_off_c, 0, 43, 64
4, 17184, Note_on_c, 0, 35, 100
4, 17231, Note_off_c, 0, 35, 64
4, 17232, Note_on_c, 0, 43, 100
4, 17279, Note_off_c, 0, 43, 64
4, 17280, Note_on_c, 0, 36, 100
4, 17327, Note_off_c, 0, 36, 64
4, 17328, Note_on_c, 0, 36, 100
4, 17375, Note_off_c, 0, 36, 64
4, 17376, Note_on_c, 0, 43, 100
4, 17423, Note_off_c, 0, 43, 64
4, 17424, Note_on_c, 0, 36, 100
4, 17471, Note_off_c, 0, 36, 64
4, 17472, Note_on_c, 0, 36, 100
4, 17519, Note_off_c, 0, 36, 64
4, 17520, Note_on_c, 0, 43, 100
4, 17567, Note_off_c, 0, 43, 64
4, 17568, Note_on_c, 0, 36, 100
4, 17615, Note_off_c, 0, 36, 64
4, 17616, Note_on_c, 0, 43, 100
4, 17663, Note_off_c, 0, 43, 64
4, 17664, Note_on_c, 0, 37, 100
4, 17711, Note_off_c, 0, 37, 64
4, 17712, Note_on_c, 0, 37, 100
4, 17759, Note_off_c, 0, 37, 64
4, 17760, Note_on_c, 0, 43, 100
4, 17807, Note_off_c, 0, 43, 64
4, 17808, Note_on_c, 0, 37, 100
4, 17855, Note_off_c, 0, 37, 64
4, 17856, Note_on_c, 0, 37, 100
4, 17903, Note_off_c, 0, 37, 64
4, 17904, Note_on_c, 0, 43, 100
4, 17951, Note_off_c, 0, 43, 64
4, 17952, Note_on_c, 0, 37, 100
4, 17999, Note_off_c, 0, 37, 64
4, 18000, Note_on_c, 0, 43, 100
4, 18047, Note_off_c, 0, 43, 64
4, 18048, Note_on_c, 0, 36, 100
4, 18095, Note_off_c, 0, 36, 64
4, 18096, Note_on_c, 0, 36, 100
4, 18143, Note_off_c, 0, 36, 64
4, 18144, Note_on_c, 0, 43, 100
4, 18191, Note_off_c, 0, 43, 64
4, 18192, Note_on_c, 0, 36, 100
4, 18239, Note_off_c, 0, 36, 64
4, 18240, Note_on_c, 0, 36, 100
4, 18287, Note_off_c, 0, 36, 64
4, 18288, Note_on_c, 0, 43, 100
4, 18335, Note_off_c, 0, 43, 64
4, 18336, Note_on_c, 0, 36, 100
4, 18383, Note_off_c, 0, 36, 64
4, 18384, Note_on_c, 0, 43, 100
4, 18431, Note_off_c, 0, 43, 64
4, 18432, Control_c, 0, 101, 0
4, 18432, Control_c, 0, 100, 0
4, 18432, Control_c, 0, 6, 12
4, 18432, Control_c, 0, 10, 64
4, 18432, Control_c, 0, 7, 100
4, 18432, Pitch_bend_c, 0, 8192
4, 18432, Program_c, 0, 39
4, 18433, Control_c, 0, 101, 0
4, 18433, Control_c, 0, 100, 0
4, 18433, Control_c, 0, 6, 12
4, 18433, Control_c, 0, 10, 64
4, 18433, Control_c, 0, 7, 100
4, 18433, Pitch_bend_c, 0, 8192
4, 18433, Program_c, 0, 39
4, 18433, Control_c, 0, 101, 0
4, 18433, Control_c, 0, 100, 0
4, 18433, Control_c, 0, 6, 12
4, 18433, Control_c, 0, 10, 64
4, 18433, Control_c, 0, 7, 100
4, 18433, Pitch_bend_c, 0, 8192
4, 18433, Program_c, 0, 39
4, 18433, End_track
0, 0, End_of_file