0, 0, Header, 1, 11, 480
1, 0, Start_track
1, 0, Title_t, ""
1, 0, Time_signature, 4, 2, 24, 8
1, 0, Key_signature, -1, "major"
1, 0, Tempo, 500000
1, 1920, Tempo, 461538
1, 1920, End_track
2, 0, Start_track
2, 0, Title_t, ""
2, 0, MIDI_port, 0
2, 0, Control_c, 0, 10, 75
2, 0, Control_c, 0, 91, 90
2, 0, Control_c, 0, 94, 10
2, 30, Control_c, 0, 11, 100
2, 30, Control_c, 0, 10, 75
2, 30, Control_c, 0, 91, 90
2, 30, Control_c, 0, 94, 10
2, 60, Control_c, 0, 11, 100
2, 60, Control_c, 0, 10, 75
2, 60, Control_c, 0, 91, 90
2, 60, Control_c, 0, 94, 10
2, 90, Control_c, 0, 11, 100
2, 90, Control_c, 0, 10, 75
2, 90, Control_c, 0, 91, 90
2, 90, Control_c, 0, 94, 10
2, 120, Control_c, 0, 11, 101
2, 120, Control_c, 0, 10, 75
2, 120, Control_c, 0, 91, 90
2, 120, Control_c, 0, 94, 10
2, 150, Control_c, 0, 11, 101
2, 150, Control_c, 0, 10, 75
2, 150, Control_c, 0, 91, 90
2, 150, Control_c, 0, 94, 10
2, 180, Control_c, 0, 11, 102
2, 180, Control_c, 0, 10, 75
2, 180, Control_c, 0, 94, 10
2, 210, Control_c, 0, 11, 102
2, 210, Control_c, 0, 10, 75
2, 240, Control_c, 0, 11, 102
2, 240, Control_c, 0, 10, 75
2, 270, Control_c, 0, 11, 103
2, 270, Control_c, 0, 10, 75
2, 300, Control_c, 0, 11, 103
2, 300, Control_c, 0, 10, 75
2, 330, Control_c, 0, 11, 104
2, 330, Control_c, 0, 10, 75
2, 360, Control_c, 0, 11, 104
2, 360, Control_c, 0, 10, 75
2, 390, Control_c, 0, 11, 105
2, 390, Control_c, 0, 10, 75
2, 420, Control_c, 0, 11, 105
2, 420, Control_c, 0, 10, 75
2, 450, Control_c, 0, 11, 105
2, 450, Control_c, 0, 10, 75
2, 480, Control_c, 0, 11, 106
2, 480, Control_c, 0, 10, 75
2, 510, Control_c, 0, 11, 106
2, 510, Control_c, 0, 10, 75
2, 540, Control_c, 0, 11, 107
2, 540, Control_c, 0, 10, 75
2, 570, Control_c, 0, 11, 107
2, 570, Control_c, 0, 10, 75
2, 600, Control_c, 0, 11, 108
2, 600, Control_c, 0, 10, 75
2, 630, Control_c, 0, 11, 108
2, 660, Control_c, 0, 11, 108
2, 690, Control_c, 0, 11, 109
2, 720, Control_c, 0, 11, 109
2, 750, Control_c, 0, 11, 110
2, 780, Control_c, 0, 11, 110
2, 810, Control_c, 0, 11, 111
2, 840, Control_c, 0, 11, 111
2, 870, Control_c, 0, 11, 111
2, 900, Control_c, 0, 11, 112
2, 930, Control_c, 0, 11, 112
2, 960, Control_c, 0, 11, 113
2, 990, Control_c, 0, 11, 113
2, 1020, Control_c, 0, 11, 114
2, 1050, Control_c, 0, 11, 114
2, 1080, Control_c, 0, 11, 114
2, 1110, Control_c, 0, 11, 115
2, 1140, Control_c, 0, 11, 115
2, 1170, Control_c, 0, 11, 116
2, 1200, Control_c, 0, 11, 116
2, 1230, Control_c, 0, 11, 116
2, 1260, Control_c, 0, 11, 117
2, 1290, Control_c, 0, 11, 117
2, 1320, Control_c, 0, 11, 118
2, 1350, Control_c, 0, 11, 118
2, 1380, Control_c, 0, 11, 119
2, 1410, Control_c, 0, 11, 119
2, 1440, Control_c, 0, 11, 119
2, 1470, Control_c, 0, 11, 120
2, 1500, Control_c, 0, 11, 120
2, 1530, Control_c, 0, 11, 121
2, 1560, Control_c, 0, 11, 121
2, 1590, Control_c, 0, 11, 122
2, 1620, Control_c, 0, 11, 122
2, 1650, Control_c, 0, 11, 122
2, 1680, Control_c, 0, 11, 123
2, 1710, Control_c, 0, 11, 123
2, 1740, Control_c, 0, 11, 124
2, 1770, Control_c, 0, 11, 124
2, 1800, Control_c, 0, 11, 125
2, 1830, Control_c, 0, 11, 125
2, 1860, Control_c, 0, 11, 125
2, 1890, Control_c, 0, 11, 126
2, 1920, Control_c, 0, 0, 0
2, 1920, Control_c, 0, 32, 0
2, 1920, Program_c, 0, 3
2, 1920, Control_c, 0, 7, 127
2, 1950, Control_c, 0, 7, 127
2, 1980, Control_c, 0, 7, 127
2, 1980, Control_c, 0, 11, 126
2, 2010, Control_c, 0, 7, 127
2, 2040, Control_c, 0, 7, 127
2, 2070, Control_c, 0, 7, 127
2, 2100, Control_c, 0, 7, 127
2, 2130, Control_c, 0, 7, 127
2, 2160, Control_c, 0, 7, 127
2, 2190, Control_c, 0, 7, 127
2, 2220, Control_c, 0, 7, 127
2, 2250, Control_c, 0, 7, 127
2, 2280, Control_c, 0, 7, 127
2, 2310, Control_c, 0, 7, 127
2, 2340, Control_c, 0, 7, 127
2, 2370, Control_c, 0, 7, 127
2, 2400, Control_c, 0, 7, 127
2, 2430, Control_c, 0, 7, 127
2, 2460, Control_c, 0, 7, 127
2, 2490, Control_c, 0, 7, 127
2, 2520, Control_c, 0, 7, 127
2, 2550, Control_c, 0, 7, 127
2, 2580, Control_c, 0, 7, 127
2, 5760, Note_on_c, 0, 67, 100
2, 5976, Note_on_c, 0, 67, 0
2, 6000, Note_on_c, 0, 74, 100
2, 6216, Note_on_c, 0, 74, 0
2, 6240, Note_on_c, 0, 72, 100
2, 6456, Note_on_c, 0, 72, 0
2, 6480, Note_on_c, 0, 70, 100
2, 6696, Note_on_c, 0, 70, 0
2, 6720, Note_on_c, 0, 77, 100
2, 6936, Note_on_c, 0, 77, 0
2, 6960, Note_on_c, 0, 76, 100
2, 7068, Note_on_c, 0, 76, 0
2, 7080, Note_on_c, 0, 74, 100
2, 7188, Note_on_c, 0, 74, 0
2, 7200, Note_on_c, 0, 72, 100
2, 7416, Note_on_c, 0, 72, 0
2, 7440, Note_on_c, 0, 74, 100
2, 7656, Note_on_c, 0, 74, 0
2, 7680, Note_on_c, 0, 70, 100
2, 7896, Note_on_c, 0, 70, 0
2, 7920, Note_on_c, 0, 69, 100
2, 8136, Note_on_c, 0, 69, 0
2, 8160, Note_on_c, 0, 70, 100
2, 8376, Note_on_c, 0, 70, 0
2, 8400, Note_on_c, 0, 67, 100
2, 8616, Note_on_c, 0, 67, 0
2, 8640, Note_on_c, 0, 65, 100
2, 8856, Note_on_c, 0, 65, 0
2, 8880, Note_on_c, 0, 67, 100
2, 9024, Note_on_c, 0, 67, 0
2, 9120, Note_on_c, 0, 67, 100
2, 9336, Note_on_c, 0, 67, 0
2, 13440, Note_on_c, 0, 67, 100
2, 13656, Note_on_c, 0, 67, 0
2, 13680, Note_on_c, 0, 74, 100
2, 13896, Note_on_c, 0, 74, 0
2, 13920, Note_on_c, 0, 72, 100
2, 14136, Note_on_c, 0, 72, 0
2, 14160, Note_on_c, 0, 70, 100
2, 14376, Note_on_c, 0, 70, 0
2, 14400, Note_on_c, 0, 77, 100
2, 14616, Note_on_c, 0, 77, 0
2, 14640, Note_on_c, 0, 76, 100
2, 14748, Note_on_c, 0, 76, 0
2, 14760, Note_on_c, 0, 74, 100
2, 14868, Note_on_c, 0, 74, 0
2, 14880, Note_on_c, 0, 72, 100
2, 15096, Note_on_c, 0, 72, 0
2, 15120, Note_on_c, 0, 74, 100
2, 15336, Note_on_c, 0, 74, 0
2, 15360, Note_on_c, 0, 70, 100
2, 15576, Note_on_c, 0, 70, 0
2, 15600, Note_on_c, 0, 69, 100
2, 15816, Note_on_c, 0, 69, 0
2, 15840, Note_on_c, 0, 70, 100
2, 16056, Note_on_c, 0, 70, 0
2, 16080, Note_on_c, 0, 67, 100
2, 16296, Note_on_c, 0, 67, 0
2, 16320, Note_on_c, 0, 65, 100
2, 16536, Note_on_c, 0, 65, 0
2, 16560, Note_on_c, 0, 67, 100
2, 16704, Note_on_c, 0, 67, 0
2, 16800, Note_on_c, 0, 67, 100
2, 17016, Note_on_c, 0, 67, 0
2, 17280, Note_on_c, 0, 67, 100
2, 17496, Note_on_c, 0, 67, 0
2, 17520, Note_on_c, 0, 74, 100
2, 17736, Note_on_c, 0, 74, 0
2, 17760, Note_on_c, 0, 72, 100
2, 17976, Note_on_c, 0, 72, 0
2, 18000, Note_on_c, 0, 70, 100
2, 18216, Note_on_c, 0, 70, 0
2, 18240, Note_on_c, 0, 77, 100
2, 18456, Note_on_c, 0, 77, 0
2, 18480, Note_on_c, 0, 76, 100
2, 18588, Note_on_c, 0, 76, 0
2, 18600, Note_on_c, 0, 74, 100
2, 18708, Note_on_c, 0, 74, 0
2, 18720, Note_on_c, 0, 72, 100
2, 18936, Note_on_c, 0, 72, 0
2, 18960, Note_on_c, 0, 74, 100
2, 19176, Note_on_c, 0, 74, 0
2, 19200, Note_on_c, 0, 70, 100
2, 19416, Note_on_c, 0, 70, 0
2, 19440, Note_on_c, 0, 72, 100
2, 19656, Note_on_c, 0, 72, 0
2, 19680, Note_on_c, 0, 69, 100
2, 19896, Note_on_c, 0, 69, 0
2, 19920, Note_on_c, 0, 70, 100
2, 20136, Note_on_c, 0, 70, 0
2, 20160, Note_on_c, 0, 67, 100
2, 20376, Note_on_c, 0, 67, 0
2, 20400, Note_on_c, 0, 70, 100
2, 20616, Note_on_c, 0, 70, 0
2, 20640, Note_on_c, 0, 69, 100
2, 20856, Note_on_c, 0, 69, 0
2, 20880, Note_on_c, 0, 67, 100
2, 21096, Note_on_c, 0, 67, 0
2, 21120, Note_on_c, 0, 65, 100
2, 21336, Note_on_c, 0, 65, 0
2, 21360, Note_on_c, 0, 67, 100
2, 21576, Note_on_c, 0, 67, 0
2, 21600, Note_on_c, 0, 67, 100
2, 22464, Note_on_c, 0, 67, 0
2, 22560, Note_on_c, 0, 74, 100
2, 22992, Note_on_c, 0, 74, 0
2, 23040, Note_on_c, 0, 67, 100
2, 24336, Note_on_c, 0, 67, 0
2, 24480, Note_on_c, 0, 74, 100
2, 24912, Note_on_c, 0, 74, 0
2, 24960, Note_on_c, 0, 67, 100
2, 26400, Note_on_c, 0, 72, 100
2, 26688, Note_on_c, 0, 67, 0
2, 26832, Note_on_c, 0, 72, 0
2, 26880, Note_on_c, 0, 70, 100
2, 27096, Note_on_c, 0, 70, 0
2, 27120, Note_on_c, 0, 69, 100
2, 27336, Note_on_c, 0, 69, 0
2, 27360, Note_on_c, 0, 70, 100
2, 27576, Note_on_c, 0, 70, 0
2, 27600, Note_on_c, 0, 72, 100
2, 27816, Note_on_c, 0, 72, 0
2, 27840, Note_on_c, 0, 74, 100
2, 28704, Note_on_c, 0, 74, 0
2, 28800, Note_on_c, 0, 67, 100
2, 30096, Note_on_c, 0, 67, 0
2, 30240, Note_on_c, 0, 74, 100
2, 30672, Note_on_c, 0, 74, 0
2, 30720, Note_on_c, 0, 67, 100
2, 32016, Note_on_c, 0, 67, 0
2, 32160, Note_on_c, 0, 74, 100
2, 32592, Note_on_c, 0, 74, 0
2, 32640, Note_on_c, 0, 67, 100
2, 34368, Note_on_c, 0, 67, 0
2, 36465, Control_c, 0, 10, 75
2, 36480, Note_on_c, 0, 77, 100
2, 36495, Control_c, 0, 10, 75
2, 36525, Control_c, 0, 10, 74
2, 36555, Control_c, 0, 10, 73
2, 36585, Control_c, 0, 10, 72
2, 36588, Note_on_c, 0, 77, 0
2, 36600, Note_on_c, 0, 76, 100
2, 36615, Control_c, 0, 10, 71
2, 36645, Control_c, 0, 10, 70
2, 36675, Control_c, 0, 10, 69
2, 36705, Control_c, 0, 10, 68
2, 36708, Note_on_c, 0, 76, 0
2, 36720, Note_on_c, 0, 74, 100
2, 36735, Control_c, 0, 10, 67
2, 36765, Control_c, 0, 10, 66
2, 36795, Control_c, 0, 10, 65
2, 36825, Control_c, 0, 10, 64
2, 36828, Note_on_c, 0, 74, 0
2, 36840, Note_on_c, 0, 72, 100
2, 36855, Control_c, 0, 10, 63
2, 36885, Control_c, 0, 10, 62
2, 36915, Control_c, 0, 10, 62
2, 36945, Control_c, 0, 10, 61
2, 36948, Note_on_c, 0, 72, 0
2, 36960, Note_on_c, 0, 70, 100
2, 36975, Control_c, 0, 10, 60
2, 37005, Control_c, 0, 10, 59
2, 37035, Control_c, 0, 10, 58
2, 37065, Control_c, 0, 10, 57
2, 37068, Note_on_c, 0, 70, 0
2, 37080, Note_on_c, 0, 72, 100
2, 37095, Control_c, 0, 10, 56
2, 37125, Control_c, 0, 10, 55
2, 37155, Control_c, 0, 10, 54
2, 37185, Control_c, 0, 10, 53
2, 37188, Note_on_c, 0, 72, 0
2, 37200, Note_on_c, 0, 70, 100
2, 37215, Control_c, 0, 10, 52
2, 37245, Control_c, 0, 10, 51
2, 37275, Control_c, 0, 10, 50
2, 37305, Control_c, 0, 10, 49
2, 37308, Note_on_c, 0, 70, 0
2, 37320, Note_on_c, 0, 69, 100
2, 37335, Control_c, 0, 10, 49
2, 37365, Control_c, 0, 10, 48
2, 37395, Control_c, 0, 10, 47
2, 37425, Control_c, 0, 10, 46
2, 37428, Note_on_c, 0, 69, 0
2, 37440, Note_on_c, 0, 70, 100
2, 37455, Control_c, 0, 10, 45
2, 37485, Control_c, 0, 10, 44
2, 37515, Control_c, 0, 10, 43
2, 37545, Control_c, 0, 10, 42
2, 37548, Note_on_c, 0, 70, 0
2, 37560, Note_on_c, 0, 72, 100
2, 37575, Control_c, 0, 10, 41
2, 37605, Control_c, 0, 10, 40
2, 37635, Control_c, 0, 10, 39
2, 37665, Control_c, 0, 10, 38
2, 37668, Note_on_c, 0, 72, 0
2, 37680, Note_on_c, 0, 70, 100
2, 37695, Control_c, 0, 10, 37
2, 37725, Control_c, 0, 10, 36
2, 37755, Control_c, 0, 10, 36
2, 37785, Control_c, 0, 10, 35
2, 37788, Note_on_c, 0, 70, 0
2, 37800, Note_on_c, 0, 69, 100
2, 37815, Control_c, 0, 10, 34
2, 37845, Control_c, 0, 10, 33
2, 37875, Control_c, 0, 10, 32
2, 37905, Control_c, 0, 10, 31
2, 37908, Note_on_c, 0, 69, 0
2, 37920, Note_on_c, 0, 67, 100
2, 37935, Control_c, 0, 10, 30
2, 37965, Control_c, 0, 10, 29
2, 37995, Control_c, 0, 10, 28
2, 38025, Control_c, 0, 10, 27
2, 38028, Note_on_c, 0, 67, 0
2, 38040, Note_on_c, 0, 69, 100
2, 38055, Control_c, 0, 10, 26
2, 38085, Control_c, 0, 10, 25
2, 38115, Control_c, 0, 10, 24
2, 38145, Control_c, 0, 10, 23
2, 38148, Note_on_c, 0, 69, 0
2, 38160, Note_on_c, 0, 67, 100
2, 38175, Control_c, 0, 10, 23
2, 38205, Control_c, 0, 10, 22
2, 38235, Control_c, 0, 10, 21
2, 38265, Control_c, 0, 10, 20
2, 38268, Note_on_c, 0, 67, 0
2, 38280, Note_on_c, 0, 65, 100
2, 38295, Control_c, 0, 10, 19
2, 38325, Control_c, 0, 10, 18
2, 38355, Control_c, 0, 10, 17
2, 38370, Control_c, 0, 10, 18
2, 38388, Note_on_c, 0, 65, 0
2, 38400, Note_on_c, 0, 67, 100
2, 38400, Control_c, 0, 10, 18
2, 38430, Control_c, 0, 10, 19
2, 38460, Control_c, 0, 10, 19
2, 38490, Control_c, 0, 10, 20
2, 38520, Control_c, 0, 10, 21
2, 38550, Control_c, 0, 10, 21
2, 38580, Control_c, 0, 10, 22
2, 38610, Control_c, 0, 10, 23
2, 38640, Control_c, 0, 10, 23
2, 38670, Control_c, 0, 10, 24
2, 38700, Control_c, 0, 10, 25
2, 38730, Control_c, 0, 10, 25
2, 38760, Control_c, 0, 10, 26
2, 38790, Control_c, 0, 10, 27
2, 38820, Control_c, 0, 10, 27
2, 38850, Control_c, 0, 10, 28
2, 38880, Control_c, 0, 10, 29
2, 38910, Control_c, 0, 10, 29
2, 38940, Control_c, 0, 10, 30
2, 38970, Control_c, 0, 10, 31
2, 39000, Control_c, 0, 10, 31
2, 39030, Control_c, 0, 10, 32
2, 39060, Control_c, 0, 10, 33
2, 39090, Control_c, 0, 10, 33
2, 39120, Control_c, 0, 10, 34
2, 39150, Control_c, 0, 10, 35
2, 39180, Control_c, 0, 10, 35
2, 39210, Control_c, 0, 10, 36
2, 39240, Control_c, 0, 10, 36
2, 39270, Control_c, 0, 10, 37
2, 39300, Control_c, 0, 10, 38
2, 39330, Control_c, 0, 10, 38
2, 39360, Control_c, 0, 10, 39
2, 39390, Control_c, 0, 10, 40
2, 39420, Control_c, 0, 10, 40
2, 39450, Control_c, 0, 10, 41
2, 39480, Control_c, 0, 10, 42
2, 39510, Control_c, 0, 10, 42
2, 39540, Control_c, 0, 10, 43
2, 39570, Control_c, 0, 10, 44
2, 39600, Control_c, 0, 10, 44
2, 39630, Control_c, 0, 10, 45
2, 39660, Control_c, 0, 10, 46
2, 39690, Control_c, 0, 10, 46
2, 39696, Note_on_c, 0, 67, 0
2, 39720, Control_c, 0, 10, 47
2, 39750, Control_c, 0, 10, 48
2, 39780, Control_c, 0, 10, 48
2, 39810, Control_c, 0, 10, 49
2, 39840, Note_on_c, 0, 65, 100
2, 39840, Control_c, 0, 10, 50
2, 39870, Control_c, 0, 10, 50
2, 39900, Control_c, 0, 10, 51
2, 39930, Control_c, 0, 10, 52
2, 39960, Control_c, 0, 10, 52
2, 39990, Control_c, 0, 10, 53
2, 40020, Control_c, 0, 10, 54
2, 40050, Control_c, 0, 10, 54
2, 40080, Control_c, 0, 10, 55
2, 40110, Control_c, 0, 10, 55
2, 40140, Control_c, 0, 10, 56
2, 40170, Control_c, 0, 10, 57
2, 40200, Control_c, 0, 10, 57
2, 40230, Control_c, 0, 10, 58
2, 40260, Control_c, 0, 10, 59
2, 40272, Note_on_c, 0, 65, 0
2, 40290, Control_c, 0, 10, 59
2, 40320, Note_on_c, 0, 67, 100
2, 40320, Control_c, 0, 10, 60
2, 40350, Control_c, 0, 10, 61
2, 40380, Control_c, 0, 10, 61
2, 40410, Control_c, 0, 10, 62
2, 40440, Control_c, 0, 10, 63
2, 40470, Control_c, 0, 10, 63
2, 40500, Control_c, 0, 10, 64
2, 40530, Control_c, 0, 10, 65
2, 40560, Control_c, 0, 10, 65
2, 40590, Control_c, 0, 10, 66
2, 40620, Control_c, 0, 10, 67
2, 40644, Note_on_c, 0, 67, 0
2, 40650, Control_c, 0, 10, 67
2, 40680, Note_on_c, 0, 74, 100
2, 40680, Control_c, 0, 10, 68
2, 40710, Control_c, 0, 10, 69
2, 40740, Control_c, 0, 10, 69
2, 40770, Control_c, 0, 10, 70
2, 40788, Note_on_c, 0, 74, 0
2, 40800, Note_on_c, 0, 74, 100
2, 40800, Control_c, 0, 10, 71
2, 40830, Control_c, 0, 10, 71
2, 40860, Control_c, 0, 10, 72
2, 40890, Control_c, 0, 10, 73
2, 40920, Control_c, 0, 10, 73
2, 40950, Control_c, 0, 10, 74
2, 40980, Control_c, 0, 10, 74
2, 41010, Control_c, 0, 10, 75
2, 43968, Note_on_c, 0, 74, 0
2, 44145, Control_c, 0, 10, 74
2, 44160, Note_on_c, 0, 77, 100
2, 44175, Control_c, 0, 10, 74
2, 44205, Control_c, 0, 10, 74
2, 44235, Control_c, 0, 10, 73
2, 44265, Control_c, 0, 10, 73
2, 44268, Note_on_c, 0, 77, 0
2, 44280, Note_on_c, 0, 76, 100
2, 44295, Control_c, 0, 10, 72
2, 44325, Control_c, 0, 10, 72
2, 44355, Control_c, 0, 10, 72
2, 44385, Control_c, 0, 10, 71
2, 44388, Note_on_c, 0, 76, 0
2, 44400, Note_on_c, 0, 74, 100
2, 44415, Control_c, 0, 10, 71
2, 44445, Control_c, 0, 10, 70
2, 44475, Control_c, 0, 10, 70
2, 44505, Control_c, 0, 10, 70
2, 44508, Note_on_c, 0, 74, 0
2, 44520, Note_on_c, 0, 72, 100
2, 44535, Control_c, 0, 10, 69
2, 44565, Control_c, 0, 10, 69
2, 44595, Control_c, 0, 10, 68
2, 44625, Control_c, 0, 10, 68
2, 44628, Note_on_c, 0, 72, 0
2, 44640, Note_on_c, 0, 70, 100
2, 44655, Control_c, 0, 10, 67
2, 44685, Control_c, 0, 10, 67
2, 44715, Control_c, 0, 10, 67
2, 44745, Control_c, 0, 10, 66
2, 44748, Note_on_c, 0, 70, 0
2, 44760, Note_on_c, 0, 72, 100
2, 44775, Control_c, 0, 10, 66
2, 44805, Control_c, 0, 10, 65
2, 44835, Control_c, 0, 10, 65
2, 44865, Control_c, 0, 10, 65
2, 44868, Note_on_c, 0, 72, 0
2, 44880, Note_on_c, 0, 70, 100
2, 44895, Control_c, 0, 10, 64
2, 44925, Control_c, 0, 10, 64
2, 44955, Control_c, 0, 10, 63
2, 44985, Control_c, 0, 10, 63
2, 44988, Note_on_c, 0, 70, 0
2, 45000, Note_on_c, 0, 69, 100
2, 45015, Control_c, 0, 10, 63
2, 45045, Control_c, 0, 10, 62
2, 45075, Control_c, 0, 10, 62
2, 45105, Control_c, 0, 10, 61
2, 45108, Note_on_c, 0, 69, 0
2, 45120, Note_on_c, 0, 70, 100
2, 45135, Control_c, 0, 10, 61
2, 45165, Control_c, 0, 10, 60
2, 45195, Control_c, 0, 10, 60
2, 45225, Control_c, 0, 10, 60
2, 45228, Note_on_c, 0, 70, 0
2, 45240, Note_on_c, 0, 72, 100
2, 45255, Control_c, 0, 10, 59
2, 45285, Control_c, 0, 10, 59
2, 45315, Control_c, 0, 10, 58
2, 45345, Control_c, 0, 10, 58
2, 45348, Note_on_c, 0, 72, 0
2, 45360, Note_on_c, 0, 74, 100
2, 45375, Control_c, 0, 10, 58
2, 45405, Control_c, 0, 10, 57
2, 45435, Control_c, 0, 10, 57
2, 45465, Control_c, 0, 10, 56
2, 45468, Note_on_c, 0, 74, 0
2, 45480, Note_on_c, 0, 70, 100
2, 45495, Control_c, 0, 10, 56
2, 45525, Control_c, 0, 10, 56
2, 45555, Control_c, 0, 10, 55
2, 45585, Control_c, 0, 10, 55
2, 45588, Note_on_c, 0, 70, 0
2, 45600, Note_on_c, 0, 69, 100
2, 45615, Control_c, 0, 10, 54
2, 45645, Control_c, 0, 10, 54
2, 45675, Control_c, 0, 10, 53
2, 45705, Control_c, 0, 10, 53
2, 45708, Note_on_c, 0, 69, 0
2, 45720, Note_on_c, 0, 70, 100
2, 45735, Control_c, 0, 10, 53
2, 45765, Control_c, 0, 10, 52
2, 45795, Control_c, 0, 10, 52
2, 45825, Control_c, 0, 10, 51
2, 45828, Note_on_c, 0, 70, 0
2, 45840, Note_on_c, 0, 69, 100
2, 45855, Control_c, 0, 10, 51
2, 45885, Control_c, 0, 10, 51
2, 45915, Control_c, 0, 10, 50
2, 45945, Control_c, 0, 10, 50
2, 45948, Note_on_c, 0, 69, 0
2, 45960, Note_on_c, 0, 65, 100
2, 45975, Control_c, 0, 10, 49
2, 46005, Control_c, 0, 10, 49
2, 46035, Control_c, 0, 10, 49
2, 46065, Control_c, 0, 10, 48
2, 46068, Note_on_c, 0, 65, 0
2, 46080, Note_on_c, 0, 67, 100
2, 46095, Control_c, 0, 10, 48
2, 46125, Control_c, 0, 10, 47
2, 46155, Control_c, 0, 10, 47
2, 46185, Control_c, 0, 10, 46
2, 46215, Control_c, 0, 10, 46
2, 46245, Control_c, 0, 10, 46
2, 46275, Control_c, 0, 10, 45
2, 46305, Control_c, 0, 10, 45
2, 46335, Control_c, 0, 10, 44
2, 46365, Control_c, 0, 10, 44
2, 46395, Control_c, 0, 10, 44
2, 46425, Control_c, 0, 10, 43
2, 46455, Control_c, 0, 10, 43
2, 46485, Control_c, 0, 10, 42
2, 46515, Control_c, 0, 10, 42
2, 46545, Control_c, 0, 10, 42
2, 46575, Control_c, 0, 10, 41
2, 46605, Control_c, 0, 10, 41
2, 46635, Control_c, 0, 10, 40
2, 46665, Control_c, 0, 10, 40
2, 46695, Control_c, 0, 10, 39
2, 46725, Control_c, 0, 10, 39
2, 46755, Control_c, 0, 10, 39
2, 46785, Control_c, 0, 10, 38
2, 46815, Control_c, 0, 10, 38
2, 46845, Control_c, 0, 10, 37
2, 46875, Control_c, 0, 10, 37
2, 46905, Control_c, 0, 10, 37
2, 46935, Control_c, 0, 10, 36
2, 46965, Control_c, 0, 10, 36
2, 46995, Control_c, 0, 10, 35
2, 47025, Control_c, 0, 10, 35
2, 47055, Control_c, 0, 10, 35
2, 47085, Control_c, 0, 10, 34
2, 47115, Control_c, 0, 10, 34
2, 47145, Control_c, 0, 10, 33
2, 47175, Control_c, 0, 10, 33
2, 47205, Control_c, 0, 10, 32
2, 47235, Control_c, 0, 10, 32
2, 47265, Control_c, 0, 10, 32
2, 47295, Control_c, 0, 10, 31
2, 47325, Control_c, 0, 10, 31
2, 47355, Control_c, 0, 10, 30
2, 47376, Note_on_c, 0, 67, 0
2, 47385, Control_c, 0, 10, 30
2, 47415, Control_c, 0, 10, 30
2, 47445, Control_c, 0, 10, 29
2, 47475, Control_c, 0, 10, 29
2, 47505, Control_c, 0, 10, 28
2, 47520, Note_on_c, 0, 65, 100
2, 47535, Control_c, 0, 10, 28
2, 47565, Control_c, 0, 10, 27
2, 47595, Control_c, 0, 10, 27
2, 47625, Control_c, 0, 10, 27
2, 47655, Control_c, 0, 10, 26
2, 47685, Control_c, 0, 10, 26
2, 47715, Control_c, 0, 10, 25
2, 47745, Control_c, 0, 10, 25
2, 47775, Control_c, 0, 10, 25
2, 47805, Control_c, 0, 10, 24
2, 47835, Control_c, 0, 10, 24
2, 47865, Control_c, 0, 10, 23
2, 47895, Control_c, 0, 10, 23
2, 47925, Control_c, 0, 10, 23
2, 47952, Note_on_c, 0, 65, 0
2, 47955, Control_c, 0, 10, 22
2, 47985, Control_c, 0, 10, 22
2, 48000, Note_on_c, 0, 67, 100
2, 48015, Control_c, 0, 10, 75
2, 48045, Control_c, 0, 10, 75
2, 48075, Control_c, 0, 10, 75
2, 48105, Control_c, 0, 10, 75
2, 51216, Note_on_c, 0, 67, 0
2, 51360, Note_on_c, 0, 65, 100
2, 51792, Note_on_c, 0, 65, 0
2, 51840, Note_on_c, 0, 67, 100
2, 55056, Note_on_c, 0, 67, 0
2, 55200, Note_on_c, 0, 65, 100
2, 55632, Note_on_c, 0, 65, 0
2, 55680, Note_on_c, 0, 67, 100
2, 58896, Note_on_c, 0, 67, 0
2, 59040, Note_on_c, 0, 65, 100
2, 59472, Note_on_c, 0, 65, 0
2, 59520, Note_on_c, 0, 67, 100
2, 59952, Note_on_c, 0, 67, 0
2, 60000, Note_on_c, 0, 67, 100
2, 60144, Note_on_c, 0, 67, 0
2, 60160, Note_on_c, 0, 67, 100
2, 60304, Note_on_c, 0, 67, 0
2, 60320, Note_on_c, 0, 67, 100
2, 60464, Note_on_c, 0, 67, 0
2, 60480, Note_on_c, 0, 67, 100
2, 60912, Note_on_c, 0, 67, 0
2, 60960, Note_on_c, 0, 67, 100
2, 61392, Note_on_c, 0, 67, 0
2, 61440, Note_on_c, 0, 67, 100
2, 61872, Note_on_c, 0, 67, 0
2, 61920, Note_on_c, 0, 67, 100
2, 62064, Note_on_c, 0, 67, 0
2, 62080, Note_on_c, 0, 67, 100
2, 62224, Note_on_c, 0, 67, 0
2, 62240, Note_on_c, 0, 67, 100
2, 62384, Note_on_c, 0, 67, 0
2, 62400, Note_on_c, 0, 67, 100
2, 62832, Note_on_c, 0, 67, 0
2, 63360, Note_on_c, 0, 67, 100
2, 63576, Note_on_c, 0, 67, 0
2, 63600, Note_on_c, 0, 74, 100
2, 63816, Note_on_c, 0, 74, 0
2, 63840, Note_on_c, 0, 72, 100
2, 64056, Note_on_c, 0, 72, 0
2, 64080, Note_on_c, 0, 70, 100
2, 64296, Note_on_c, 0, 70, 0
2, 64320, Note_on_c, 0, 77, 100
2, 64536, Note_on_c, 0, 77, 0
2, 64560, Note_on_c, 0, 76, 100
2, 64668, Note_on_c, 0, 76, 0
2, 64680, Note_on_c, 0, 74, 100
2, 64788, Note_on_c, 0, 74, 0
2, 64800, Note_on_c, 0, 72, 100
2, 65016, Note_on_c, 0, 72, 0
2, 65040, Note_on_c, 0, 74, 100
2, 65256, Note_on_c, 0, 74, 0
2, 65280, Note_on_c, 0, 70, 100
2, 65496, Note_on_c, 0, 70, 0
2, 65520, Note_on_c, 0, 69, 100
2, 65736, Note_on_c, 0, 69, 0
2, 65760, Note_on_c, 0, 70, 100
2, 65976, Note_on_c, 0, 70, 0
2, 66000, Note_on_c, 0, 67, 100
2, 66216, Note_on_c, 0, 67, 0
2, 66240, Note_on_c, 0, 65, 100
2, 66456, Note_on_c, 0, 65, 0
2, 66480, Note_on_c, 0, 67, 100
2, 66624, Note_on_c, 0, 67, 0
2, 66720, Note_on_c, 0, 67, 100
2, 66936, Note_on_c, 0, 67, 0
2, 71040, Note_on_c, 0, 67, 100
2, 71256, Note_on_c, 0, 67, 0
2, 71280, Note_on_c, 0, 74, 100
2, 71496, Note_on_c, 0, 74, 0
2, 71520, Note_on_c, 0, 72, 100
2, 71736, Note_on_c, 0, 72, 0
2, 71760, Note_on_c, 0, 70, 100
2, 71976, Note_on_c, 0, 70, 0
2, 72000, Note_on_c, 0, 77, 100
2, 72216, Note_on_c, 0, 77, 0
2, 72240, Note_on_c, 0, 76, 100
2, 72348, Note_on_c, 0, 76, 0
2, 72360, Note_on_c, 0, 74, 100
2, 72468, Note_on_c, 0, 74, 0
2, 72480, Note_on_c, 0, 72, 100
2, 72696, Note_on_c, 0, 72, 0
2, 72720, Note_on_c, 0, 74, 100
2, 72936, Note_on_c, 0, 74, 0
2, 72960, Note_on_c, 0, 70, 100
2, 73176, Note_on_c, 0, 70, 0
2, 73200, Note_on_c, 0, 69, 100
2, 73416, Note_on_c, 0, 69, 0
2, 73440, Note_on_c, 0, 70, 100
2, 73656, Note_on_c, 0, 70, 0
2, 73680, Note_on_c, 0, 67, 100
2, 73896, Note_on_c, 0, 67, 0
2, 73920, Note_on_c, 0, 65, 100
2, 74136, Note_on_c, 0, 65, 0
2, 74160, Note_on_c, 0, 67, 100
2, 74304, Note_on_c, 0, 67, 0
2, 74400, Note_on_c, 0, 67, 100
2, 74616, Note_on_c, 0, 67, 0
2, 74880, Note_on_c, 0, 67, 100
2, 75096, Note_on_c, 0, 67, 0
2, 75120, Note_on_c, 0, 74, 100
2, 75336, Note_on_c, 0, 74, 0
2, 75360, Note_on_c, 0, 72, 100
2, 75576, Note_on_c, 0, 72, 0
2, 75600, Note_on_c, 0, 70, 100
2, 75816, Note_on_c, 0, 70, 0
2, 75840, Note_on_c, 0, 77, 100
2, 76056, Note_on_c, 0, 77, 0
2, 76080, Note_on_c, 0, 76, 100
2, 76188, Note_on_c, 0, 76, 0
2, 76200, Note_on_c, 0, 74, 100
2, 76308, Note_on_c, 0, 74, 0
2, 76320, Note_on_c, 0, 72, 100
2, 76536, Note_on_c, 0, 72, 0
2, 76560, Note_on_c, 0, 74, 100
2, 76776, Note_on_c, 0, 74, 0
2, 76800, Note_on_c, 0, 70, 100
2, 77016, Note_on_c, 0, 70, 0
2, 77040, Note_on_c, 0, 72, 100
2, 77256, Note_on_c, 0, 72, 0
2, 77280, Note_on_c, 0, 69, 100
2, 77496, Note_on_c, 0, 69, 0
2, 77520, Note_on_c, 0, 70, 100
2, 77736, Note_on_c, 0, 70, 0
2, 77760, Note_on_c, 0, 67, 100
2, 77976, Note_on_c, 0, 67, 0
2, 78000, Note_on_c, 0, 70, 100
2, 78216, Note_on_c, 0, 70, 0
2, 78240, Note_on_c, 0, 69, 100
2, 78456, Note_on_c, 0, 69, 0
2, 78480, Note_on_c, 0, 67, 100
2, 78696, Note_on_c, 0, 67, 0
2, 78720, Note_on_c, 0, 65, 100
2, 78936, Note_on_c, 0, 65, 0
2, 78960, Note_on_c, 0, 67, 100
2, 79176, Note_on_c, 0, 67, 0
2, 79200, Note_on_c, 0, 67, 100
2, 80064, Note_on_c, 0, 67, 0
2, 80160, Note_on_c, 0, 74, 100
2, 80592, Note_on_c, 0, 74, 0
2, 80640, Note_on_c, 0, 67, 100
2, 81936, Note_on_c, 0, 67, 0
2, 82080, Note_on_c, 0, 74, 100
2, 82512, Note_on_c, 0, 74, 0
2, 82560, Note_on_c, 0, 67, 100
2, 84000, Note_on_c, 0, 72, 100
2, 84288, Note_on_c, 0, 67, 0
2, 84432, Note_on_c, 0, 72, 0
2, 84480, Note_on_c, 0, 70, 100
2, 84696, Note_on_c, 0, 70, 0
2, 84720, Note_on_c, 0, 69, 100
2, 84936, Note_on_c, 0, 69, 0
2, 84960, Note_on_c, 0, 70, 100
2, 85176, Note_on_c, 0, 70, 0
2, 85200, Note_on_c, 0, 72, 100
2, 85416, Note_on_c, 0, 72, 0
2, 85440, Note_on_c, 0, 74, 100
2, 86304, Note_on_c, 0, 74, 0
2, 86400, Note_on_c, 0, 67, 100
2, 87696, Note_on_c, 0, 67, 0
2, 87840, Note_on_c, 0, 74, 100
2, 88272, Note_on_c, 0, 74, 0
2, 88320, Note_on_c, 0, 67, 100
2, 89616, Note_on_c, 0, 67, 0
2, 89760, Note_on_c, 0, 74, 100
2, 90192, Note_on_c, 0, 74, 0
2, 90240, Note_on_c, 0, 67, 100
2, 91968, Note_on_c, 0, 67, 0
2, 94080, Note_on_c, 0, 77, 100
2, 94080, Control_c, 0, 10, 74
2, 94110, Control_c, 0, 10, 74
2, 94140, Control_c, 0, 10, 73
2, 94170, Control_c, 0, 10, 72
2, 94188, Note_on_c, 0, 77, 0
2, 94200, Note_on_c, 0, 76, 100
2, 94200, Control_c, 0, 10, 71
2, 94230, Control_c, 0, 10, 70
2, 94260, Control_c, 0, 10, 70
2, 94290, Control_c, 0, 10, 69
2, 94308, Note_on_c, 0, 76, 0
2, 94320, Note_on_c, 0, 74, 100
2, 94320, Control_c, 0, 10, 68
2, 94350, Control_c, 0, 10, 67
2, 94380, Control_c, 0, 10, 66
2, 94410, Control_c, 0, 10, 65
2, 94428, Note_on_c, 0, 74, 0
2, 94440, Note_on_c, 0, 72, 100
2, 94440, Control_c, 0, 10, 65
2, 94470, Control_c, 0, 10, 64
2, 94500, Control_c, 0, 10, 63
2, 94530, Control_c, 0, 10, 62
2, 94548, Note_on_c, 0, 72, 0
2, 94560, Note_on_c, 0, 70, 100
2, 94560, Control_c, 0, 10, 61
2, 94590, Control_c, 0, 10, 60
2, 94620, Control_c, 0, 10, 60
2, 94650, Control_c, 0, 10, 59
2, 94668, Note_on_c, 0, 70, 0
2, 94680, Note_on_c, 0, 72, 100
2, 94680, Control_c, 0, 10, 58
2, 94710, Control_c, 0, 10, 57
2, 94740, Control_c, 0, 10, 56
2, 94770, Control_c, 0, 10, 55
2, 94788, Note_on_c, 0, 72, 0
2, 94800, Note_on_c, 0, 70, 100
2, 94800, Control_c, 0, 10, 55
2, 94830, Control_c, 0, 10, 54
2, 94860, Control_c, 0, 10, 53
2, 94890, Control_c, 0, 10, 52
2, 94908, Note_on_c, 0, 70, 0
2, 94920, Note_on_c, 0, 69, 100
2, 94920, Control_c, 0, 10, 51
2, 94950, Control_c, 0, 10, 50
2, 94980, Control_c, 0, 10, 50
2, 95010, Control_c, 0, 10, 49
2, 95028, Note_on_c, 0, 69, 0
2, 95040, Note_on_c, 0, 70, 100
2, 95040, Control_c, 0, 10, 48
2, 95070, Control_c, 0, 10, 47
2, 95100, Control_c, 0, 10, 46
2, 95130, Control_c, 0, 10, 46
2, 95148, Note_on_c, 0, 70, 0
2, 95160, Note_on_c, 0, 72, 100
2, 95160, Control_c, 0, 10, 45
2, 95190, Control_c, 0, 10, 44
2, 95220, Control_c, 0, 10, 43
2, 95250, Control_c, 0, 10, 42
2, 95268, Note_on_c, 0, 72, 0
2, 95280, Note_on_c, 0, 70, 100
2, 95280, Control_c, 0, 10, 41
2, 95310, Control_c, 0, 10, 41
2, 95340, Control_c, 0, 10, 40
2, 95370, Control_c, 0, 10, 39
2, 95388, Note_on_c, 0, 70, 0
2, 95400, Note_on_c, 0, 69, 100
2, 95400, Control_c, 0, 10, 38
2, 95430, Control_c, 0, 10, 37
2, 95460, Control_c, 0, 10, 36
2, 95490, Control_c, 0, 10, 36
2, 95508, Note_on_c, 0, 69, 0
2, 95520, Note_on_c, 0, 67, 100
2, 95520, Control_c, 0, 10, 35
2, 95550, Control_c, 0, 10, 34
2, 95580, Control_c, 0, 10, 33
2, 95610, Control_c, 0, 10, 32
2, 95628, Note_on_c, 0, 67, 0
2, 95640, Note_on_c, 0, 69, 100
2, 95640, Control_c, 0, 10, 31
2, 95670, Control_c, 0, 10, 31
2, 95700, Control_c, 0, 10, 30
2, 95730, Control_c, 0, 10, 29
2, 95748, Note_on_c, 0, 69, 0
2, 95760, Note_on_c, 0, 67, 100
2, 95760, Control_c, 0, 10, 28
2, 95790, Control_c, 0, 10, 27
2, 95820, Control_c, 0, 10, 26
2, 95850, Control_c, 0, 10, 26
2, 95868, Note_on_c, 0, 67, 0
2, 95880, Note_on_c, 0, 65, 100
2, 95880, Control_c, 0, 10, 25
2, 95910, Control_c, 0, 10, 24
2, 95940, Control_c, 0, 10, 23
2, 95970, Control_c, 0, 10, 22
2, 95988, Note_on_c, 0, 65, 0
2, 96000, Note_on_c, 0, 67, 100
2, 96015, Control_c, 0, 10, 20
2, 96045, Control_c, 0, 10, 20
2, 96075, Control_c, 0, 10, 21
2, 96105, Control_c, 0, 10, 21
2, 96135, Control_c, 0, 10, 22
2, 96165, Control_c, 0, 10, 22
2, 96195, Control_c, 0, 10, 23
2, 96225, Control_c, 0, 10, 24
2, 96255, Control_c, 0, 10, 24
2, 96285, Control_c, 0, 10, 25
2, 96315, Control_c, 0, 10, 25
2, 96345, Control_c, 0, 10, 26
2, 96375, Control_c, 0, 10, 27
2, 96405, Control_c, 0, 10, 27
2, 96435, Control_c, 0, 10, 28
2, 96465, Control_c, 0, 10, 28
2, 96495, Control_c, 0, 10, 29
2, 96525, Control_c, 0, 10, 30
2, 96555, Control_c, 0, 10, 30
2, 96585, Control_c, 0, 10, 31
2, 96615, Control_c, 0, 10, 31
2, 96645, Control_c, 0, 10, 32
2, 96675, Control_c, 0, 10, 32
2, 96705, Control_c, 0, 10, 33
2, 96735, Control_c, 0, 10, 34
2, 96765, Control_c, 0, 10, 34
2, 96795, Control_c, 0, 10, 35
2, 96825, Control_c, 0, 10, 35
2, 96855, Control_c, 0, 10, 36
2, 96885, Control_c, 0, 10, 37
2, 96915, Control_c, 0, 10, 37
2, 96945, Control_c, 0, 10, 38
2, 96975, Control_c, 0, 10, 38
2, 97005, Control_c, 0, 10, 39
2, 97035, Control_c, 0, 10, 40
2, 97065, Control_c, 0, 10, 40
2, 97095, Control_c, 0, 10, 41
2, 97125, Control_c, 0, 10, 41
2, 97155, Control_c, 0, 10, 42
2, 97185, Control_c, 0, 10, 42
2, 97215, Control_c, 0, 10, 43
2, 97245, Control_c, 0, 10, 44
2, 97275, Control_c, 0, 10, 44
2, 97296, Note_on_c, 0, 67, 0
2, 97305, Control_c, 0, 10, 45
2, 97335, Control_c, 0, 10, 45
2, 97365, Control_c, 0, 10, 46
2, 97395, Control_c, 0, 10, 47
2, 97425, Control_c, 0, 10, 47
2, 97440, Note_on_c, 0, 65, 100
2, 97455, Control_c, 0, 10, 48
2, 97485, Control_c, 0, 10, 48
2, 97515, Control_c, 0, 10, 49
2, 97545, Control_c, 0, 10, 50
2, 97575, Control_c, 0, 10, 50
2, 97605, Control_c, 0, 10, 51
2, 97635, Control_c, 0, 10, 51
2, 97665, Control_c, 0, 10, 52
2, 97695, Control_c, 0, 10, 52
2, 97725, Control_c, 0, 10, 53
2, 97755, Control_c, 0, 10, 54
2, 97785, Control_c, 0, 10, 54
2, 97815, Control_c, 0, 10, 55
2, 97845, Control_c, 0, 10, 55
2, 97872, Note_on_c, 0, 65, 0
2, 97875, Control_c, 0, 10, 56
2, 97905, Control_c, 0, 10, 57
2, 97920, Note_on_c, 0, 67, 100
2, 97935, Control_c, 0, 10, 57
2, 97965, Control_c, 0, 10, 58
2, 97995, Control_c, 0, 10, 58
2, 98025, Control_c, 0, 10, 59
2, 98055, Control_c, 0, 10, 60
2, 98085, Control_c, 0, 10, 60
2, 98115, Control_c, 0, 10, 61
2, 98145, Control_c, 0, 10, 61
2, 98175, Control_c, 0, 10, 62
2, 98205, Control_c, 0, 10, 63
2, 98235, Control_c, 0, 10, 63
2, 98244, Note_on_c, 0, 67, 0
2, 98265, Control_c, 0, 10, 64
2, 98280, Note_on_c, 0, 74, 100
2, 98295, Control_c, 0, 10, 64
2, 98325, Control_c, 0, 10, 65
2, 98355, Control_c, 0, 10, 65
2, 98385, Control_c, 0, 10, 66
2, 98388, Note_on_c, 0, 74, 0
2, 98400, Note_on_c, 0, 74, 100
2, 98415, Control_c, 0, 10, 67
2, 98445, Control_c, 0, 10, 67
2, 98475, Control_c, 0, 10, 68
2, 98505, Control_c, 0, 10, 68
2, 98535, Control_c, 0, 10, 69
2, 98565, Control_c, 0, 10, 70
2, 98595, Control_c, 0, 10, 70
2, 98625, Control_c, 0, 10, 71
2, 98655, Control_c, 0, 10, 71
2, 98685, Control_c, 0, 10, 72
2, 98715, Control_c, 0, 10, 73
2, 98745, Control_c, 0, 10, 73
2, 98775, Control_c, 0, 10, 74
2, 98805, Control_c, 0, 10, 74
2, 98835, Control_c, 0, 10, 75
2, 101568, Note_on_c, 0, 74, 0
2, 101730, Control_c, 0, 10, 73
2, 101760, Note_on_c, 0, 77, 100
2, 101760, Control_c, 0, 10, 73
2, 101790, Control_c, 0, 10, 72
2, 101820, Control_c, 0, 10, 71
2, 101850, Control_c, 0, 10, 70
2, 101868, Note_on_c, 0, 77, 0
2, 101880, Note_on_c, 0, 76, 100
2, 101880, Control_c, 0, 10, 69
2, 101910, Control_c, 0, 10, 69
2, 101940, Control_c, 0, 10, 68
2, 101970, Control_c, 0, 10, 67
2, 101988, Note_on_c, 0, 76, 0
2, 102000, Note_on_c, 0, 74, 100
2, 102000, Control_c, 0, 10, 66
2, 102030, Control_c, 0, 10, 65
2, 102060, Control_c, 0, 10, 65
2, 102090, Control_c, 0, 10, 64
2, 102108, Note_on_c, 0, 74, 0
2, 102120, Note_on_c, 0, 72, 100
2, 102120, Control_c, 0, 10, 63
2, 102150, Control_c, 0, 10, 62
2, 102180, Control_c, 0, 10, 61
2, 102210, Control_c, 0, 10, 61
2, 102228, Note_on_c, 0, 72, 0
2, 102240, Note_on_c, 0, 70, 100
2, 102240, Control_c, 0, 10, 60
2, 102270, Control_c, 0, 10, 59
2, 102300, Control_c, 0, 10, 58
2, 102330, Control_c, 0, 10, 57
2, 102348, Note_on_c, 0, 70, 0
2, 102360, Note_on_c, 0, 72, 100
2, 102360, Control_c, 0, 10, 57
2, 102390, Control_c, 0, 10, 56
2, 102420, Control_c, 0, 10, 55
2, 102450, Control_c, 0, 10, 54
2, 102468, Note_on_c, 0, 72, 0
2, 102480, Note_on_c, 0, 70, 100
2, 102480, Control_c, 0, 10, 53
2, 102510, Control_c, 0, 10, 53
2, 102540, Control_c, 0, 10, 52
2, 102570, Control_c, 0, 10, 51
2, 102588, Note_on_c, 0, 70, 0
2, 102600, Note_on_c, 0, 69, 100
2, 102600, Control_c, 0, 10, 50
2, 102630, Control_c, 0, 10, 49
2, 102660, Control_c, 0, 10, 49
2, 102690, Control_c, 0, 10, 48
2, 102708, Note_on_c, 0, 69, 0
2, 102720, Note_on_c, 0, 70, 100
2, 102720, Control_c, 0, 10, 47
2, 102750, Control_c, 0, 10, 46
2, 102780, Control_c, 0, 10, 45
2, 102810, Control_c, 0, 10, 44
2, 102828, Note_on_c, 0, 70, 0
2, 102840, Note_on_c, 0, 72, 100
2, 102840, Control_c, 0, 10, 44
2, 102870, Control_c, 0, 10, 43
2, 102900, Control_c, 0, 10, 42
2, 102930, Control_c, 0, 10, 41
2, 102948, Note_on_c, 0, 72, 0
2, 102960, Note_on_c, 0, 74, 100
2, 102960, Control_c, 0, 10, 40
2, 102990, Control_c, 0, 10, 40
2, 103020, Control_c, 0, 10, 39
2, 103050, Control_c, 0, 10, 38
2, 103068, Note_on_c, 0, 74, 0
2, 103080, Note_on_c, 0, 70, 100
2, 103080, Control_c, 0, 10, 37
2, 103110, Control_c, 0, 10, 36
2, 103140, Control_c, 0, 10, 36
2, 103170, Control_c, 0, 10, 35
2, 103188, Note_on_c, 0, 70, 0
2, 103200, Note_on_c, 0, 69, 100
2, 103200, Control_c, 0, 10, 34
2, 103230, Control_c, 0, 10, 33
2, 103260, Control_c, 0, 10, 32
2, 103290, Control_c, 0, 10, 32
2, 103308, Note_on_c, 0, 69, 0
2, 103320, Note_on_c, 0, 70, 100
2, 103320, Control_c, 0, 10, 31
2, 103350, Control_c, 0, 10, 30
2, 103380, Control_c, 0, 10, 29
2, 103410, Control_c, 0, 10, 28
2, 103428, Note_on_c, 0, 70, 0
2, 103440, Note_on_c, 0, 69, 100
2, 103440, Control_c, 0, 10, 28
2, 103470, Control_c, 0, 10, 27
2, 103500, Control_c, 0, 10, 26
2, 103530, Control_c, 0, 10, 25
2, 103548, Note_on_c, 0, 69, 0
2, 103560, Note_on_c, 0, 65, 100
2, 103560, Control_c, 0, 10, 24
2, 103590, Control_c, 0, 10, 24
2, 103620, Control_c, 0, 10, 23
2, 103650, Control_c, 0, 10, 22
2, 103665, Control_c, 0, 10, 20
2, 103668, Note_on_c, 0, 65, 0
2, 103680, Note_on_c, 0, 67, 100
2, 103695, Control_c, 0, 10, 20
2, 103725, Control_c, 0, 10, 21
2, 103755, Control_c, 0, 10, 22
2, 103785, Control_c, 0, 10, 22
2, 103815, Control_c, 0, 10, 23
2, 103845, Control_c, 0, 10, 24
2, 103875, Control_c, 0, 10, 24
2, 103905, Control_c, 0, 10, 25
2, 103935, Control_c, 0, 10, 26
2, 103965, Control_c, 0, 10, 26
2, 103995, Control_c, 0, 10, 27
2, 104025, Control_c, 0, 10, 28
2, 104055, Control_c, 0, 10, 29
2, 104085, Control_c, 0, 10, 29
2, 104115, Control_c, 0, 10, 30
2, 104145, Control_c, 0, 10, 31
2, 104175, Control_c, 0, 10, 31
2, 104205, Control_c, 0, 10, 32
2, 104235, Control_c, 0, 10, 33
2, 104265, Control_c, 0, 10, 33
2, 104295, Control_c, 0, 10, 34
2, 104325, Control_c, 0, 10, 35
2, 104355, Control_c, 0, 10, 36
2, 104385, Control_c, 0, 10, 36
2, 104415, Control_c, 0, 10, 37
2, 104445, Control_c, 0, 10, 38
2, 104475, Control_c, 0, 10, 38
2, 104505, Control_c, 0, 10, 39
2, 104535, Control_c, 0, 10, 40
2, 104565, Control_c, 0, 10, 40
2, 104595, Control_c, 0, 10, 41
2, 104625, Control_c, 0, 10, 42
2, 104655, Control_c, 0, 10, 43
2, 104685, Control_c, 0, 10, 43
2, 104715, Control_c, 0, 10, 44
2, 104745, Control_c, 0, 10, 45
2, 104775, Control_c, 0, 10, 45
2, 104805, Control_c, 0, 10, 46
2, 104835, Control_c, 0, 10, 47
2, 104865, Control_c, 0, 10, 47
2, 104895, Control_c, 0, 10, 48
2, 104925, Control_c, 0, 10, 49
2, 104955, Control_c, 0, 10, 50
2, 104976, Note_on_c, 0, 67, 0
2, 104985, Control_c, 0, 10, 50
2, 105015, Control_c, 0, 10, 51
2, 105045, Control_c, 0, 10, 52
2, 105075, Control_c, 0, 10, 52
2, 105105, Control_c, 0, 10, 53
2, 105120, Note_on_c, 0, 65, 100
2, 105135, Control_c, 0, 10, 54
2, 105165, Control_c, 0, 10, 54
2, 105195, Control_c, 0, 10, 55
2, 105225, Control_c, 0, 10, 56
2, 105255, Control_c, 0, 10, 57
2, 105285, Control_c, 0, 10, 57
2, 105315, Control_c, 0, 10, 58
2, 105345, Control_c, 0, 10, 59
2, 105375, Control_c, 0, 10, 59
2, 105405, Control_c, 0, 10, 60
2, 105435, Control_c, 0, 10, 61
2, 105465, Control_c, 0, 10, 61
2, 105495, Control_c, 0, 10, 62
2, 105525, Control_c, 0, 10, 63
2, 105552, Note_on_c, 0, 65, 0
2, 105555, Control_c, 0, 10, 64
2, 105585, Control_c, 0, 10, 64
2, 105600, Note_on_c, 0, 67, 100
2, 105615, Control_c, 0, 10, 65
2, 105645, Control_c, 0, 10, 66
2, 105675, Control_c, 0, 10, 66
2, 105705, Control_c, 0, 10, 67
2, 105735, Control_c, 0, 10, 68
2, 105765, Control_c, 0, 10, 68
2, 105795, Control_c, 0, 10, 69
2, 105825, Control_c, 0, 10, 70
2, 105855, Control_c, 0, 10, 71
2, 105885, Control_c, 0, 10, 71
2, 105915, Control_c, 0, 10, 72
2, 105945, Control_c, 0, 10, 73
2, 105975, Control_c, 0, 10, 73
2, 106005, Control_c, 0, 10, 74
2, 106035, Control_c, 0, 10, 75
2, 108816, Note_on_c, 0, 67, 0
2, 108960, Note_on_c, 0, 65, 100
2, 109392, Note_on_c, 0, 65, 0
2, 109440, Note_on_c, 0, 67, 100
2, 112656, Note_on_c, 0, 67, 0
2, 112800, Note_on_c, 0, 65, 100
2, 113232, Note_on_c, 0, 65, 0
2, 113280, Note_on_c, 0, 67, 100
2, 116496, Note_on_c, 0, 67, 0
2, 116640, Note_on_c, 0, 65, 100
2, 117072, Note_on_c, 0, 65, 0
2, 117120, Note_on_c, 0, 67, 100
2, 117552, Note_on_c, 0, 67, 0
2, 117600, Note_on_c, 0, 67, 100
2, 117744, Note_on_c, 0, 67, 0
2, 117760, Note_on_c, 0, 67, 100
2, 117904, Note_on_c, 0, 67, 0
2, 117920, Note_on_c, 0, 67, 100
2, 118064, Note_on_c, 0, 67, 0
2, 118080, Note_on_c, 0, 67, 100
2, 118512, Note_on_c, 0, 67, 0
2, 118560, Note_on_c, 0, 67, 100
2, 118992, Note_on_c, 0, 67, 0
2, 119040, Note_on_c, 0, 67, 100
2, 119472, Note_on_c, 0, 67, 0
2, 119520, Note_on_c, 0, 67, 100
2, 119664, Note_on_c, 0, 67, 0
2, 119680, Note_on_c, 0, 67, 100
2, 119824, Note_on_c, 0, 67, 0
2, 119840, Note_on_c, 0, 67, 100
2, 119984, Note_on_c, 0, 67, 0
2, 120000, Note_on_c, 0, 67, 100
2, 120432, Note_on_c, 0, 67, 0
2, 120432, End_track
3, 0, Start_track
3, 0, Title_t, "Piano 2"
3, 0, MIDI_port, 0
3, 0, Control_c, 1, 11, 99
3, 0, Control_c, 1, 10, 55
3, 0, Control_c, 1, 91, 90
3, 0, Control_c, 1, 94, 10
3, 30, Control_c, 1, 11, 99
3, 30, Control_c, 1, 10, 55
3, 30, Control_c, 1, 91, 90
3, 30, Control_c, 1, 94, 10
3, 60, Control_c, 1, 11, 99
3, 60, Control_c, 1, 10, 55
3, 60, Control_c, 1, 91, 90
3, 60, Control_c, 1, 94, 10
3, 90, Control_c, 1, 11, 100
3, 90, Control_c, 1, 10, 55
3, 90, Control_c, 1, 91, 90
3, 90, Control_c, 1, 94, 10
3, 120, Control_c, 1, 11, 100
3, 120, Control_c, 1, 10, 55
3, 120, Control_c, 1, 91, 90
3, 120, Control_c, 1, 94, 10
3, 150, Control_c, 1, 11, 101
3, 150, Control_c, 1, 10, 55
3, 150, Control_c, 1, 91, 90
3, 150, Control_c, 1, 94, 10
3, 180, Control_c, 1, 11, 101
3, 180, Control_c, 1, 10, 55
3, 180, Control_c, 1, 91, 90
3, 210, Control_c, 1, 11, 102
3, 210, Control_c, 1, 10, 55
3, 210, Control_c, 1, 91, 90
3, 240, Control_c, 1, 11, 102
3, 240, Control_c, 1, 10, 55
3, 240, Control_c, 1, 91, 90
3, 270, Control_c, 1, 11, 103
3, 270, Control_c, 1, 10, 55
3, 270, Control_c, 1, 91, 90
3, 300, Control_c, 1, 11, 103
3, 300, Control_c, 1, 10, 55
3, 300, Control_c, 1, 91, 90
3, 330, Control_c, 1, 11, 103
3, 330, Control_c, 1, 10, 55
3, 360, Control_c, 1, 11, 104
3, 360, Control_c, 1, 10, 55
3, 390, Control_c, 1, 11, 104
3, 390, Control_c, 1, 10, 55
3, 420, Control_c, 1, 11, 105
3, 420, Control_c, 1, 10, 55
3, 450, Control_c, 1, 11, 105
3, 450, Control_c, 1, 10, 55
3, 480, Control_c, 1, 11, 106
3, 480, Control_c, 1, 10, 55
3, 510, Control_c, 1, 11, 106
3, 510, Control_c, 1, 10, 55
3, 540, Control_c, 1, 11, 107
3, 540, Control_c, 1, 10, 55
3, 570, Control_c, 1, 11, 107
3, 570, Control_c, 1, 10, 55
3, 600, Control_c, 1, 11, 108
3, 600, Control_c, 1, 10, 55
3, 630, Control_c, 1, 11, 108
3, 630, Control_c, 1, 10, 55
3, 660, Control_c, 1, 11, 108
3, 660, Control_c, 1, 10, 55
3, 690, Control_c, 1, 11, 109
3, 690, Control_c, 1, 10, 55
3, 720, Control_c, 1, 11, 109
3, 720, Control_c, 1, 10, 55
3, 750, Control_c, 1, 11, 110
3, 780, Control_c, 1, 11, 110
3, 810, Control_c, 1, 11, 111
3, 840, Control_c, 1, 11, 111
3, 870, Control_c, 1, 11, 112
3, 900, Control_c, 1, 11, 112
3, 930, Control_c, 1, 11, 113
3, 960, Control_c, 1, 11, 113
3, 990, Control_c, 1, 11, 113
3, 1020, Control_c, 1, 11, 114
3, 1050, Control_c, 1, 11, 114
3, 1080, Control_c, 1, 11, 115
3, 1110, Control_c, 1, 11, 115
3, 1140, Control_c, 1, 11, 116
3, 1170, Control_c, 1, 11, 116
3, 1200, Control_c, 1, 11, 117
3, 1230, Control_c, 1, 11, 117
3, 1260, Control_c, 1, 11, 118
3, 1290, Control_c, 1, 11, 118
3, 1320, Control_c, 1, 11, 118
3, 1350, Control_c, 1, 11, 119
3, 1380, Control_c, 1, 11, 119
3, 1410, Control_c, 1, 11, 120
3, 1440, Control_c, 1, 11, 120
3, 1470, Control_c, 1, 11, 121
3, 1500, Control_c, 1, 11, 121
3, 1530, Control_c, 1, 11, 122
3, 1560, Control_c, 1, 11, 122
3, 1590, Control_c, 1, 11, 123
3, 1620, Control_c, 1, 11, 123
3, 1650, Control_c, 1, 11, 123
3, 1680, Control_c, 1, 11, 124
3, 1710, Control_c, 1, 11, 124
3, 1740, Control_c, 1, 11, 125
3, 1770, Control_c, 1, 11, 125
3, 1800, Control_c, 1, 11, 126
3, 1830, Control_c, 1, 11, 126
3, 1860, Control_c, 1, 11, 127
3, 1890, Control_c, 1, 11, 127
3, 1920, Control_c, 1, 0, 0
3, 1920, Control_c, 1, 32, 0
3, 1920, Program_c, 1, 1
3, 1920, Control_c, 1, 7, 126
3, 1950, Control_c, 1, 7, 126
3, 1980, Control_c, 1, 7, 126
3, 2010, Control_c, 1, 7, 126
3, 2040, Control_c, 1, 7, 126
3, 2070, Control_c, 1, 7, 126
3, 2100, Control_c, 1, 7, 126
3, 2130, Control_c, 1, 7, 126
3, 2160, Control_c, 1, 7, 126
3, 2190, Control_c, 1, 7, 126
3, 2220, Control_c, 1, 7, 127
3, 2250, Control_c, 1, 7, 127
3, 2280, Control_c, 1, 7, 127
3, 2310, Control_c, 1, 7, 127
3, 2340, Control_c, 1, 7, 127
3, 2370, Control_c, 1, 7, 127
3, 2400, Control_c, 1, 7, 127
3, 2430, Control_c, 1, 7, 127
3, 2460, Control_c, 1, 7, 127
3, 2490, Control_c, 1, 7, 127
3, 9600, Note_on_c, 1, 67, 100
3, 9816, Note_on_c, 1, 67, 0
3, 9840, Note_on_c, 1, 74, 100
3, 10056, Note_on_c, 1, 74, 0
3, 10080, Note_on_c, 1, 72, 100
3, 10296, Note_on_c, 1, 72, 0
3, 10320, Note_on_c, 1, 70, 100
3, 10536, Note_on_c, 1, 70, 0
3, 10560, Note_on_c, 1, 77, 100
3, 10776, Note_on_c, 1, 77, 0
3, 10800, Note_on_c, 1, 76, 100
3, 10908, Note_on_c, 1, 76, 0
3, 10920, Note_on_c, 1, 74, 100
3, 11028, Note_on_c, 1, 74, 0
3, 11040, Note_on_c, 1, 72, 100
3, 11256, Note_on_c, 1, 72, 0
3, 11280, Note_on_c, 1, 74, 100
3, 11496, Note_on_c, 1, 74, 0
3, 11520, Note_on_c, 1, 70, 100
3, 11736, Note_on_c, 1, 70, 0
3, 11760, Note_on_c, 1, 69, 100
3, 11976, Note_on_c, 1, 69, 0
3, 12000, Note_on_c, 1, 70, 100
3, 12216, Note_on_c, 1, 70, 0
3, 12240, Note_on_c, 1, 67, 100
3, 12456, Note_on_c, 1, 67, 0
3, 12480, Note_on_c, 1, 65, 100
3, 12696, Note_on_c, 1, 65, 0
3, 12720, Note_on_c, 1, 67, 100
3, 12864, Note_on_c, 1, 67, 0
3, 12960, Note_on_c, 1, 67, 100
3, 13176, Note_on_c, 1, 67, 0
3, 17280, Note_on_c, 1, 62, 100
3, 17496, Note_on_c, 1, 62, 0
3, 17520, Note_on_c, 1, 69, 100
3, 17736, Note_on_c, 1, 69, 0
3, 17760, Note_on_c, 1, 67, 100
3, 17976, Note_on_c, 1, 67, 0
3, 18000, Note_on_c, 1, 65, 100
3, 18216, Note_on_c, 1, 65, 0
3, 18240, Note_on_c, 1, 72, 100
3, 18456, Note_on_c, 1, 72, 0
3, 18480, Note_on_c, 1, 71, 100
3, 18588, Note_on_c, 1, 71, 0
3, 18600, Note_on_c, 1, 69, 100
3, 18708, Note_on_c, 1, 69, 0
3, 18720, Note_on_c, 1, 67, 100
3, 18936, Note_on_c, 1, 67, 0
3, 18960, Note_on_c, 1, 69, 100
3, 19176, Note_on_c, 1, 69, 0
3, 19200, Note_on_c, 1, 65, 100
3, 19416, Note_on_c, 1, 65, 0
3, 19440, Note_on_c, 1, 67, 100
3, 19656, Note_on_c, 1, 67, 0
3, 19680, Note_on_c, 1, 64, 100
3, 19896, Note_on_c, 1, 64, 0
3, 19920, Note_on_c, 1, 65, 100
3, 20136, Note_on_c, 1, 65, 0
3, 20160, Note_on_c, 1, 62, 100
3, 20376, Note_on_c, 1, 62, 0
3, 20400, Note_on_c, 1, 65, 100
3, 20616, Note_on_c, 1, 65, 0
3, 20640, Note_on_c, 1, 64, 100
3, 20856, Note_on_c, 1, 64, 0
3, 20880, Note_on_c, 1, 62, 100
3, 21096, Note_on_c, 1, 62, 0
3, 21120, Note_on_c, 1, 62, 80
3, 21120, Note_on_c, 1, 67, 80
3, 21552, Note_on_c, 1, 62, 0
3, 21552, Note_on_c, 1, 67, 0
3, 21600, Note_on_c, 1, 62, 80
3, 21600, Note_on_c, 1, 67, 80
3, 21684, Note_on_c, 1, 62, 0
3, 21684, Note_on_c, 1, 67, 0
3, 21720, Note_on_c, 1, 67, 80
3, 21720, Note_on_c, 1, 62, 80
3, 21888, Note_on_c, 1, 67, 0
3, 21888, Note_on_c, 1, 62, 0
3, 21920, Note_on_c, 1, 62, 80
3, 21920, Note_on_c, 1, 67, 80
3, 22004, Note_on_c, 1, 62, 0
3, 22004, Note_on_c, 1, 67, 0
3, 22080, Note_on_c, 1, 62, 80
3, 22080, Note_on_c, 1, 67, 80
3, 22512, Note_on_c, 1, 62, 0
3, 22512, Note_on_c, 1, 67, 0
3, 22560, Note_on_c, 1, 60, 80
3, 22560, Note_on_c, 1, 65, 80
3, 22992, Note_on_c, 1, 60, 0
3, 22992, Note_on_c, 1, 65, 0
3, 23040, Note_on_c, 1, 62, 80
3, 23040, Note_on_c, 1, 67, 80
3, 24336, Note_on_c, 1, 62, 0
3, 24336, Note_on_c, 1, 67, 0
3, 24480, Note_on_c, 1, 60, 80
3, 24480, Note_on_c, 1, 65, 80
3, 24912, Note_on_c, 1, 60, 0
3, 24912, Note_on_c, 1, 65, 0
3, 24960, Note_on_c, 1, 62, 80
3, 24960, Note_on_c, 1, 67, 80
3, 26256, Note_on_c, 1, 62, 0
3, 26256, Note_on_c, 1, 67, 0
3, 28800, Note_on_c, 1, 62, 80
3, 28800, Note_on_c, 1, 67, 80
3, 29232, Note_on_c, 1, 62, 0
3, 29232, Note_on_c, 1, 67, 0
3, 29280, Note_on_c, 1, 62, 80
3, 29280, Note_on_c, 1, 67, 80
3, 29424, Note_on_c, 1, 62, 0
3, 29424, Note_on_c, 1, 67, 0
3, 29440, Note_on_c, 1, 62, 80
3, 29440, Note_on_c, 1, 67, 80
3, 29584, Note_on_c, 1, 62, 0
3, 29584, Note_on_c, 1, 67, 0
3, 29600, Note_on_c, 1, 62, 80
3, 29600, Note_on_c, 1, 67, 80
3, 29744, Note_on_c, 1, 62, 0
3, 29744, Note_on_c, 1, 67, 0
3, 29760, Note_on_c, 1, 62, 80
3, 29760, Note_on_c, 1, 67, 80
3, 30192, Note_on_c, 1, 62, 0
3, 30192, Note_on_c, 1, 67, 0
3, 30240, Note_on_c, 1, 60, 80
3, 30240, Note_on_c, 1, 65, 80
3, 30672, Note_on_c, 1, 60, 0
3, 30672, Note_on_c, 1, 65, 0
3, 30720, Note_on_c, 1, 62, 80
3, 30720, Note_on_c, 1, 67, 80
3, 32016, Note_on_c, 1, 62, 0
3, 32016, Note_on_c, 1, 67, 0
3, 32160, Note_on_c, 1, 60, 80
3, 32160, Note_on_c, 1, 65, 80
3, 32592, Note_on_c, 1, 60, 0
3, 32592, Note_on_c, 1, 65, 0
3, 32640, Note_on_c, 1, 62, 80
3, 32640, Note_on_c, 1, 67, 80
3, 33936, Note_on_c, 1, 62, 0
3, 33936, Note_on_c, 1, 67, 0
3, 36465, Control_c, 1, 10, 54
3, 36480, Note_on_c, 1, 72, 100
3, 36495, Control_c, 1, 10, 54
3, 36525, Control_c, 1, 10, 53
3, 36555, Control_c, 1, 10, 52
3, 36585, Control_c, 1, 10, 51
3, 36588, Note_on_c, 1, 72, 0
3, 36600, Note_on_c, 1, 70, 100
3, 36615, Control_c, 1, 10, 50
3, 36645, Control_c, 1, 10, 50
3, 36675, Control_c, 1, 10, 49
3, 36705, Note_on_c, 1, 70, 0
3, 36705, Control_c, 1, 10, 48
3, 36720, Note_on_c, 1, 69, 100
3, 36735, Control_c, 1, 10, 47
3, 36765, Control_c, 1, 10, 46
3, 36795, Control_c, 1, 10, 45
3, 36825, Control_c, 1, 10, 45
3, 36828, Note_on_c, 1, 69, 0
3, 36840, Note_on_c, 1, 67, 100
3, 36855, Control_c, 1, 10, 44
3, 36885, Control_c, 1, 10, 43
3, 36915, Control_c, 1, 10, 42
3, 36945, Control_c, 1, 10, 41
3, 36948, Note_on_c, 1, 67, 0
3, 36960, Note_on_c, 1, 65, 100
3, 36975, Control_c, 1, 10, 41
3, 37005, Control_c, 1, 10, 40
3, 37035, Control_c, 1, 10, 39
3, 37065, Control_c, 1, 10, 38
3, 37068, Note_on_c, 1, 65, 0
3, 37080, Note_on_c, 1, 67, 100
3, 37095, Control_c, 1, 10, 37
3, 37125, Control_c, 1, 10, 36
3, 37155, Control_c, 1, 10, 36
3, 37185, Control_c, 1, 10, 35
3, 37188, Note_on_c, 1, 67, 0
3, 37200, Note_on_c, 1, 65, 100
3, 37215, Control_c, 1, 10, 34
3, 37245, Control_c, 1, 10, 33
3, 37275, Control_c, 1, 10, 32
3, 37305, Control_c, 1, 10, 32
3, 37308, Note_on_c, 1, 65, 0
3, 37320, Note_on_c, 1, 64, 100
3, 37335, Control_c, 1, 10, 31
3, 37365, Control_c, 1, 10, 30
3, 37395, Control_c, 1, 10, 29
3, 37425, Control_c, 1, 10, 28
3, 37428, Note_on_c, 1, 64, 0
3, 37440, Note_on_c, 1, 65, 100
3, 37455, Control_c, 1, 10, 27
3, 37485, Control_c, 1, 10, 27
3, 37515, Control_c, 1, 10, 26
3, 37545, Control_c, 1, 10, 25
3, 37548, Note_on_c, 1, 65, 0
3, 37560, Note_on_c, 1, 67, 100
3, 37575, Control_c, 1, 10, 24
3, 37605, Control_c, 1, 10, 23
3, 37635, Control_c, 1, 10, 22
3, 37665, Control_c, 1, 10, 22
3, 37668, Note_on_c, 1, 67, 0
3, 37680, Note_on_c, 1, 65, 100
3, 37695, Control_c, 1, 10, 21
3, 37725, Control_c, 1, 10, 20
3, 37755, Control_c, 1, 10, 19
3, 37785, Control_c, 1, 10, 18
3, 37788, Note_on_c, 1, 65, 0
3, 37800, Note_on_c, 1, 64, 100
3, 37815, Control_c, 1, 10, 18
3, 37845, Control_c, 1, 10, 17
3, 37875, Control_c, 1, 10, 16
3, 37905, Control_c, 1, 10, 15
3, 37908, Note_on_c, 1, 64, 0
3, 37920, Note_on_c, 1, 62, 100
3, 37935, Control_c, 1, 10, 14
3, 37965, Control_c, 1, 10, 13
3, 37995, Control_c, 1, 10, 13
3, 38025, Control_c, 1, 10, 12
3, 38028, Note_on_c, 1, 62, 0
3, 38040, Note_on_c, 1, 64, 100
3, 38055, Control_c, 1, 10, 11
3, 38085, Control_c, 1, 10, 10
3, 38115, Control_c, 1, 10, 9
3, 38145, Control_c, 1, 10, 9
3, 38148, Note_on_c, 1, 64, 0
3, 38160, Note_on_c, 1, 62, 100
3, 38175, Control_c, 1, 10, 8
3, 38205, Control_c, 1, 10, 7
3, 38235, Control_c, 1, 10, 6
3, 38265, Control_c, 1, 10, 5
3, 38268, Note_on_c, 1, 62, 0
3, 38280, Note_on_c, 1, 60, 100
3, 38295, Control_c, 1, 10, 4
3, 38325, Control_c, 1, 10, 4
3, 38355, Control_c, 1, 10, 3
3, 38385, Control_c, 1, 10, 2
3, 38388, Note_on_c, 1, 60, 0
3, 38400, Note_on_c, 1, 62, 100
3, 38415, Control_c, 1, 10, 2
3, 38445, Control_c, 1, 10, 3
3, 38475, Control_c, 1, 10, 4
3, 38505, Control_c, 1, 10, 4
3, 38535, Control_c, 1, 10, 5
3, 38565, Control_c, 1, 10, 6
3, 38595, Control_c, 1, 10, 6
3, 38625, Control_c, 1, 10, 7
3, 38655, Control_c, 1, 10, 8
3, 38685, Control_c, 1, 10, 8
3, 38715, Control_c, 1, 10, 9
3, 38745, Control_c, 1, 10, 10
3, 38775, Control_c, 1, 10, 10
3, 38805, Control_c, 1, 10, 11
3, 38835, Control_c, 1, 10, 12
3, 38865, Control_c, 1, 10, 12
3, 38895, Control_c, 1, 10, 13
3, 38925, Control_c, 1, 10, 14
3, 38955, Control_c, 1, 10, 14
3, 38985, Control_c, 1, 10, 15
3, 39015, Control_c, 1, 10, 16
3, 39045, Control_c, 1, 10, 16
3, 39075, Control_c, 1, 10, 17
3, 39105, Control_c, 1, 10, 18
3, 39135, Control_c, 1, 10, 18
3, 39165, Control_c, 1, 10, 19
3, 39195, Control_c, 1, 10, 20
3, 39225, Control_c, 1, 10, 20
3, 39255, Control_c, 1, 10, 21
3, 39285, Control_c, 1, 10, 22
3, 39315, Control_c, 1, 10, 22
3, 39345, Control_c, 1, 10, 23
3, 39375, Control_c, 1, 10, 24
3, 39405, Control_c, 1, 10, 24
3, 39435, Control_c, 1, 10, 25
3, 39465, Control_c, 1, 10, 26
3, 39495, Control_c, 1, 10, 26
3, 39525, Control_c, 1, 10, 27
3, 39555, Control_c, 1, 10, 28
3, 39585, Control_c, 1, 10, 28
3, 39615, Control_c, 1, 10, 29
3, 39645, Control_c, 1, 10, 30
3, 39675, Control_c, 1, 10, 30
3, 39696, Note_on_c, 1, 62, 0
3, 39705, Control_c, 1, 10, 31
3, 39735, Control_c, 1, 10, 32
3, 39765, Control_c, 1, 10, 32
3, 39795, Control_c, 1, 10, 33
3, 39825, Control_c, 1, 10, 34
3, 39840, Note_on_c, 1, 60, 100
3, 39855, Control_c, 1, 10, 34
3, 39885, Control_c, 1, 10, 35
3, 39915, Control_c, 1, 10, 36
3, 39945, Control_c, 1, 10, 36
3, 39975, Control_c, 1, 10, 37
3, 40005, Control_c, 1, 10, 38
3, 40035, Control_c, 1, 10, 38
3, 40065, Control_c, 1, 10, 39
3, 40095, Control_c, 1, 10, 40
3, 40125, Control_c, 1, 10, 40
3, 40155, Control_c, 1, 10, 41
3, 40185, Control_c, 1, 10, 42
3, 40215, Control_c, 1, 10, 42
3, 40245, Control_c, 1, 10, 43
3, 40272, Note_on_c, 1, 60, 0
3, 40275, Control_c, 1, 10, 44
3, 40305, Control_c, 1, 10, 44
3, 40320, Note_on_c, 1, 62, 100
3, 40335, Control_c, 1, 10, 45
3, 40365, Control_c, 1, 10, 46
3, 40395, Control_c, 1, 10, 46
3, 40425, Control_c, 1, 10, 47
3, 40455, Control_c, 1, 10, 48
3, 40485, Control_c, 1, 10, 48
3, 40515, Control_c, 1, 10, 49
3, 40545, Control_c, 1, 10, 50
3, 40575, Control_c, 1, 10, 50
3, 40605, Control_c, 1, 10, 51
3, 40635, Control_c, 1, 10, 52
3, 40644, Note_on_c, 1, 62, 0
3, 40665, Control_c, 1, 10, 52
3, 40680, Note_on_c, 1, 69, 100
3, 40695, Control_c, 1, 10, 53
3, 40725, Control_c, 1, 10, 54
3, 40755, Control_c, 1, 10, 54
3, 40785, Control_c, 1, 10, 55
3, 40788, Note_on_c, 1, 69, 0
3, 40800, Note_on_c, 1, 69, 100
3, 43968, Note_on_c, 1, 69, 0
3, 44160, Note_on_c, 1, 72, 100
3, 44160, Control_c, 1, 10, 53
3, 44190, Control_c, 1, 10, 53
3, 44220, Control_c, 1, 10, 53
3, 44250, Control_c, 1, 10, 52
3, 44268, Note_on_c, 1, 72, 0
3, 44280, Note_on_c, 1, 70, 100
3, 44280, Control_c, 1, 10, 52
3, 44310, Control_c, 1, 10, 51
3, 44340, Control_c, 1, 10, 51
3, 44370, Control_c, 1, 10, 51
3, 44385, Note_on_c, 1, 70, 0
3, 44400, Note_on_c, 1, 69, 100
3, 44400, Control_c, 1, 10, 50
3, 44430, Control_c, 1, 10, 50
3, 44460, Control_c, 1, 10, 49
3, 44490, Control_c, 1, 10, 49
3, 44508, Note_on_c, 1, 69, 0
3, 44520, Note_on_c, 1, 67, 100
3, 44520, Control_c, 1, 10, 49
3, 44550, Control_c, 1, 10, 48
3, 44580, Control_c, 1, 10, 48
3, 44610, Control_c, 1, 10, 47
3, 44628, Note_on_c, 1, 67, 0
3, 44640, Note_on_c, 1, 65, 100
3, 44640, Control_c, 1, 10, 47
3, 44670, Control_c, 1, 10, 47
3, 44700, Control_c, 1, 10, 46
3, 44730, Control_c, 1, 10, 46
3, 44748, Note_on_c, 1, 65, 0
3, 44760, Note_on_c, 1, 67, 100
3, 44760, Control_c, 1, 10, 45
3, 44790, Control_c, 1, 10, 45
3, 44820, Control_c, 1, 10, 44
3, 44850, Control_c, 1, 10, 44
3, 44868, Note_on_c, 1, 67, 0
3, 44880, Note_on_c, 1, 65, 100
3, 44880, Control_c, 1, 10, 44
3, 44910, Control_c, 1, 10, 43
3, 44940, Control_c, 1, 10, 43
3, 44970, Control_c, 1, 10, 42
3, 44988, Note_on_c, 1, 65, 0
3, 45000, Note_on_c, 1, 63, 100
3, 45000, Control_c, 1, 10, 42
3, 45030, Control_c, 1, 10, 42
3, 45060, Control_c, 1, 10, 41
3, 45090, Control_c, 1, 10, 41
3, 45108, Note_on_c, 1, 63, 0
3, 45120, Note_on_c, 1, 65, 100
3, 45120, Control_c, 1, 10, 40
3, 45150, Control_c, 1, 10, 40
3, 45180, Control_c, 1, 10, 40
3, 45210, Control_c, 1, 10, 39
3, 45228, Note_on_c, 1, 65, 0
3, 45240, Note_on_c, 1, 67, 100
3, 45240, Control_c, 1, 10, 39
3, 45270, Control_c, 1, 10, 38
3, 45300, Control_c, 1, 10, 38
3, 45330, Control_c, 1, 10, 38
3, 45348, Note_on_c, 1, 67, 0
3, 45360, Note_on_c, 1, 69, 100
3, 45360, Control_c, 1, 10, 37
3, 45390, Control_c, 1, 10, 37
3, 45420, Control_c, 1, 10, 36
3, 45450, Control_c, 1, 10, 36
3, 45468, Note_on_c, 1, 69, 0
3, 45480, Note_on_c, 1, 65, 100
3, 45480, Control_c, 1, 10, 35
3, 45510, Control_c, 1, 10, 35
3, 45540, Control_c, 1, 10, 35
3, 45570, Control_c, 1, 10, 34
3, 45588, Note_on_c, 1, 65, 0
3, 45600, Note_on_c, 1, 63, 100
3, 45600, Control_c, 1, 10, 34
3, 45630, Control_c, 1, 10, 33
3, 45660, Control_c, 1, 10, 33
3, 45690, Control_c, 1, 10, 33
3, 45708, Note_on_c, 1, 63, 0
3, 45720, Note_on_c, 1, 65, 100
3, 45720, Control_c, 1, 10, 32
3, 45750, Control_c, 1, 10, 32
3, 45780, Control_c, 1, 10, 31
3, 45810, Control_c, 1, 10, 31
3, 45828, Note_on_c, 1, 65, 0
3, 45840, Note_on_c, 1, 63, 100
3, 45840, Control_c, 1, 10, 31
3, 45870, Control_c, 1, 10, 30
3, 45900, Control_c, 1, 10, 30
3, 45930, Control_c, 1, 10, 29
3, 45948, Note_on_c, 1, 63, 0
3, 45960, Note_on_c, 1, 60, 100
3, 45960, Control_c, 1, 10, 29
3, 45990, Control_c, 1, 10, 29
3, 46020, Control_c, 1, 10, 28
3, 46050, Control_c, 1, 10, 28
3, 46068, Note_on_c, 1, 60, 0
3, 46080, Note_on_c, 1, 62, 100
3, 46080, Control_c, 1, 10, 27
3, 46110, Control_c, 1, 10, 27
3, 46140, Control_c, 1, 10, 26
3, 46170, Control_c, 1, 10, 26
3, 46200, Control_c, 1, 10, 26
3, 46230, Control_c, 1, 10, 25
3, 46260, Control_c, 1, 10, 25
3, 46290, Control_c, 1, 10, 24
3, 46320, Control_c, 1, 10, 24
3, 46350, Control_c, 1, 10, 24
3, 46380, Control_c, 1, 10, 23
3, 46410, Control_c, 1, 10, 23
3, 46440, Control_c, 1, 10, 22
3, 46470, Control_c, 1, 10, 22
3, 46500, Control_c, 1, 10, 22
3, 46530, Control_c, 1, 10, 21
3, 46560, Control_c, 1, 10, 21
3, 46590, Control_c, 1, 10, 20
3, 46620, Control_c, 1, 10, 20
3, 46650, Control_c, 1, 10, 20
3, 46680, Control_c, 1, 10, 19
3, 46710, Control_c, 1, 10, 19
3, 46740, Control_c, 1, 10, 18
3, 46770, Control_c, 1, 10, 18
3, 46800, Control_c, 1, 10, 17
3, 46830, Control_c, 1, 10, 17
3, 46860, Control_c, 1, 10, 17
3, 46890, Control_c, 1, 10, 16
3, 46920, Control_c, 1, 10, 16
3, 46950, Control_c, 1, 10, 15
3, 46980, Control_c, 1, 10, 15
3, 47010, Control_c, 1, 10, 15
3, 47040, Control_c, 1, 10, 14
3, 47070, Control_c, 1, 10, 14
3, 47100, Control_c, 1, 10, 13
3, 47130, Control_c, 1, 10, 13
3, 47160, Control_c, 1, 10, 13
3, 47190, Control_c, 1, 10, 12
3, 47220, Control_c, 1, 10, 12
3, 47250, Control_c, 1, 10, 11
3, 47280, Control_c, 1, 10, 11
3, 47310, Control_c, 1, 10, 11
3, 47340, Control_c, 1, 10, 10
3, 47370, Control_c, 1, 10, 10
3, 47376, Note_on_c, 1, 62, 0
3, 47400, Control_c, 1, 10, 9
3, 47430, Control_c, 1, 10, 9
3, 47460, Control_c, 1, 10, 8
3, 47490, Control_c, 1, 10, 8
3, 47520, Note_on_c, 1, 60, 100
3, 47520, Control_c, 1, 10, 8
3, 47550, Control_c, 1, 10, 7
3, 47580, Control_c, 1, 10, 7
3, 47610, Control_c, 1, 10, 6
3, 47640, Control_c, 1, 10, 6
3, 47670, Control_c, 1, 10, 6
3, 47700, Control_c, 1, 10, 5
3, 47730, Control_c, 1, 10, 5
3, 47760, Control_c, 1, 10, 4
3, 47790, Control_c, 1, 10, 4
3, 47820, Control_c, 1, 10, 4
3, 47850, Control_c, 1, 10, 3
3, 47880, Control_c, 1, 10, 3
3, 47910, Control_c, 1, 10, 2
3, 47940, Control_c, 1, 10, 2
3, 47952, Note_on_c, 1, 60, 0
3, 48000, Note_on_c, 1, 62, 100
3, 48015, Control_c, 1, 10, 55
3, 48045, Control_c, 1, 10, 55
3, 48075, Control_c, 1, 10, 55
3, 51216, Note_on_c, 1, 62, 0
3, 51360, Note_on_c, 1, 60, 100
3, 51792, Note_on_c, 1, 60, 0
3, 51840, Note_on_c, 1, 62, 100
3, 55056, Note_on_c, 1, 62, 0
3, 55200, Note_on_c, 1, 60, 100
3, 55632, Note_on_c, 1, 60, 0
3, 55680, Note_on_c, 1, 62, 100
3, 58896, Note_on_c, 1, 62, 0
3, 59040, Note_on_c, 1, 60, 100
3, 59472, Note_on_c, 1, 60, 0
3, 59520, Note_on_c, 1, 62, 100
3, 59520, Note_on_c, 1, 67, 100
3, 59952, Note_on_c, 1, 62, 0
3, 59952, Note_on_c, 1, 67, 0
3, 60000, Note_on_c, 1, 62, 100
3, 60000, Note_on_c, 1, 67, 100
3, 60144, Note_on_c, 1, 62, 0
3, 60144, Note_on_c, 1, 67, 0
3, 60160, Note_on_c, 1, 62, 100
3, 60160, Note_on_c, 1, 67, 100
3, 60304, Note_on_c, 1, 62, 0
3, 60304, Note_on_c, 1, 67, 0
3, 60320, Note_on_c, 1, 62, 100
3, 60320, Note_on_c, 1, 67, 100
3, 60464, Note_on_c, 1, 62, 0
3, 60464, Note_on_c, 1, 67, 0
3, 60480, Note_on_c, 1, 62, 100
3, 60480, Note_on_c, 1, 67, 100
3, 60912, Note_on_c, 1, 62, 0
3, 60912, Note_on_c, 1, 67, 0
3, 60960, Note_on_c, 1, 62, 100
3, 60960, Note_on_c, 1, 67, 100
3, 61392, Note_on_c, 1, 62, 0
3, 61392, Note_on_c, 1, 67, 0
3, 61440, Note_on_c, 1, 62, 100
3, 61440, Note_on_c, 1, 67, 100
3, 61872, Note_on_c, 1, 62, 0
3, 61872, Note_on_c, 1, 67, 0
3, 61920, Note_on_c, 1, 62, 100
3, 61920, Note_on_c, 1, 67, 100
3, 62064, Note_on_c, 1, 62, 0
3, 62064, Note_on_c, 1, 67, 0
3, 62080, Note_on_c, 1, 62, 100
3, 62080, Note_on_c, 1, 67, 100
3, 62224, Note_on_c, 1, 62, 0
3, 62224, Note_on_c, 1, 67, 0
3, 62240, Note_on_c, 1, 62, 100
3, 62240, Note_on_c, 1, 67, 100
3, 62384, Note_on_c, 1, 62, 0
3, 62384, Note_on_c, 1, 67, 0
3, 62400, Note_on_c, 1, 62, 100
3, 62400, Note_on_c, 1, 67, 100
3, 62832, Note_on_c, 1, 62, 0
3, 62832, Note_on_c, 1, 67, 0
3, 67200, Note_on_c, 1, 67, 100
3, 67416, Note_on_c, 1, 67, 0
3, 67440, Note_on_c, 1, 74, 100
3, 67656, Note_on_c, 1, 74, 0
3, 67680, Note_on_c, 1, 72, 100
3, 67896, Note_on_c, 1, 72, 0
3, 67920, Note_on_c, 1, 70, 100
3, 68136, Note_on_c, 1, 70, 0
3, 68160, Note_on_c, 1, 77, 100
3, 68376, Note_on_c, 1, 77, 0
3, 68400, Note_on_c, 1, 76, 100
3, 68508, Note_on_c, 1, 76, 0
3, 68520, Note_on_c, 1, 74, 100
3, 68628, Note_on_c, 1, 74, 0
3, 68640, Note_on_c, 1, 72, 100
3, 68856, Note_on_c, 1, 72, 0
3, 68880, Note_on_c, 1, 74, 100
3, 69096, Note_on_c, 1, 74, 0
3, 69120, Note_on_c, 1, 70, 100
3, 69336, Note_on_c, 1, 70, 0
3, 69360, Note_on_c, 1, 69, 100
3, 69576, Note_on_c, 1, 69, 0
3, 69600, Note_on_c, 1, 70, 100
3, 69816, Note_on_c, 1, 70, 0
3, 69840, Note_on_c, 1, 67, 100
3, 70056, Note_on_c, 1, 67, 0
3, 70080, Note_on_c, 1, 65, 100
3, 70296, Note_on_c, 1, 65, 0
3, 70320, Note_on_c, 1, 67, 100
3, 70464, Note_on_c, 1, 67, 0
3, 70560, Note_on_c, 1, 67, 100
3, 70776, Note_on_c, 1, 67, 0
3, 74880, Note_on_c, 1, 62, 100
3, 75096, Note_on_c, 1, 62, 0
3, 75120, Note_on_c, 1, 69, 100
3, 75336, Note_on_c, 1, 69, 0
3, 75360, Note_on_c, 1, 67, 100
3, 75576, Note_on_c, 1, 67, 0
3, 75600, Note_on_c, 1, 65, 100
3, 75816, Note_on_c, 1, 65, 0
3, 75840, Note_on_c, 1, 72, 100
3, 76056, Note_on_c, 1, 72, 0
3, 76080, Note_on_c, 1, 71, 100
3, 76188, Note_on_c, 1, 71, 0
3, 76200, Note_on_c, 1, 69, 100
3, 76308, Note_on_c, 1, 69, 0
3, 76320, Note_on_c, 1, 67, 100
3, 76536, Note_on_c, 1, 67, 0
3, 76560, Note_on_c, 1, 69, 100
3, 76776, Note_on_c, 1, 69, 0
3, 76800, Note_on_c, 1, 65, 100
3, 77016, Note_on_c, 1, 65, 0
3, 77040, Note_on_c, 1, 67, 100
3, 77256, Note_on_c, 1, 67, 0
3, 77280, Note_on_c, 1, 64, 100
3, 77496, Note_on_c, 1, 64, 0
3, 77520, Note_on_c, 1, 65, 100
3, 77736, Note_on_c, 1, 65, 0
3, 77760, Note_on_c, 1, 62, 100
3, 77976, Note_on_c, 1, 62, 0
3, 78000, Note_on_c, 1, 65, 100
3, 78216, Note_on_c, 1, 65, 0
3, 78240, Note_on_c, 1, 64, 100
3, 78456, Note_on_c, 1, 64, 0
3, 78480, Note_on_c, 1, 62, 100
3, 78696, Note_on_c, 1, 62, 0
3, 78720, Note_on_c, 1, 62, 80
3, 78720, Note_on_c, 1, 67, 80
3, 79152, Note_on_c, 1, 62, 0
3, 79152, Note_on_c, 1, 67, 0
3, 79200, Note_on_c, 1, 62, 80
3, 79200, Note_on_c, 1, 67, 80
3, 79284, Note_on_c, 1, 62, 0
3, 79284, Note_on_c, 1, 67, 0
3, 79320, Note_on_c, 1, 67, 80
3, 79320, Note_on_c, 1, 62, 80
3, 79488, Note_on_c, 1, 67, 0
3, 79488, Note_on_c, 1, 62, 0
3, 79520, Note_on_c, 1, 62, 80
3, 79520, Note_on_c, 1, 67, 80
3, 79604, Note_on_c, 1, 62, 0
3, 79604, Note_on_c, 1, 67, 0
3, 79680, Note_on_c, 1, 62, 80
3, 79680, Note_on_c, 1, 67, 80
3, 80112, Note_on_c, 1, 62, 0
3, 80112, Note_on_c, 1, 67, 0
3, 80160, Note_on_c, 1, 60, 80
3, 80160, Note_on_c, 1, 65, 80
3, 80592, Note_on_c, 1, 60, 0
3, 80592, Note_on_c, 1, 65, 0
3, 80640, Note_on_c, 1, 62, 80
3, 80640, Note_on_c, 1, 67, 80
3, 81936, Note_on_c, 1, 62, 0
3, 81936, Note_on_c, 1, 67, 0
3, 82080, Note_on_c, 1, 60, 80
3, 82080, Note_on_c, 1, 65, 80
3, 82512, Note_on_c, 1, 60, 0
3, 82512, Note_on_c, 1, 65, 0
3, 82560, Note_on_c, 1, 62, 80
3, 82560, Note_on_c, 1, 67, 80
3, 83856, Note_on_c, 1, 62, 0
3, 83856, Note_on_c, 1, 67, 0
3, 86400, Note_on_c, 1, 62, 80
3, 86400, Note_on_c, 1, 67, 80
3, 86832, Note_on_c, 1, 62, 0
3, 86832, Note_on_c, 1, 67, 0
3, 86880, Note_on_c, 1, 62, 80
3, 86880, Note_on_c, 1, 67, 80
3, 86964, Note_on_c, 1, 62, 0
3, 86964, Note_on_c, 1, 67, 0
3, 87000, Note_on_c, 1, 62, 80
3, 87000, Note_on_c, 1, 67, 80
3, 87168, Note_on_c, 1, 62, 0
3, 87168, Note_on_c, 1, 67, 0
3, 87200, Note_on_c, 1, 62, 80
3, 87200, Note_on_c, 1, 67, 80
3, 87284, Note_on_c, 1, 62, 0
3, 87284, Note_on_c, 1, 67, 0
3, 87360, Note_on_c, 1, 62, 80
3, 87360, Note_on_c, 1, 67, 80
3, 87792, Note_on_c, 1, 62, 0
3, 87792, Note_on_c, 1, 67, 0
3, 87840, Note_on_c, 1, 60, 80
3, 87840, Note_on_c, 1, 65, 80
3, 88272, Note_on_c, 1, 60, 0
3, 88272, Note_on_c, 1, 65, 0
3, 88320, Note_on_c, 1, 62, 80
3, 88320, Note_on_c, 1, 67, 80
3, 89616, Note_on_c, 1, 62, 0
3, 89616, Note_on_c, 1, 67, 0
3, 89760, Note_on_c, 1, 60, 80
3, 89760, Note_on_c, 1, 65, 80
3, 90192, Note_on_c, 1, 60, 0
3, 90192, Note_on_c, 1, 65, 0
3, 90240, Note_on_c, 1, 62, 80
3, 90240, Note_on_c, 1, 67, 80
3, 91536, Note_on_c, 1, 62, 0
3, 91536, Note_on_c, 1, 67, 0
3, 94080, Note_on_c, 1, 72, 100
3, 94080, Control_c, 1, 10, 54
3, 94110, Control_c, 1, 10, 54
3, 94140, Control_c, 1, 10, 53
3, 94170, Control_c, 1, 10, 52
3, 94188, Note_on_c, 1, 72, 0
3, 94200, Note_on_c, 1, 70, 100
3, 94200, Control_c, 1, 10, 51
3, 94230, Control_c, 1, 10, 50
3, 94260, Control_c, 1, 10, 50
3, 94290, Control_c, 1, 10, 49
3, 94305, Note_on_c, 1, 70, 0
3, 94320, Note_on_c, 1, 69, 100
3, 94320, Control_c, 1, 10, 48
3, 94350, Control_c, 1, 10, 47
3, 94380, Control_c, 1, 10, 46
3, 94410, Control_c, 1, 10, 46
3, 94428, Note_on_c, 1, 69, 0
3, 94440, Note_on_c, 1, 67, 100
3, 94440, Control_c, 1, 10, 45
3, 94470, Control_c, 1, 10, 44
3, 94500, Control_c, 1, 10, 43
3, 94530, Control_c, 1, 10, 42
3, 94548, Note_on_c, 1, 67, 0
3, 94560, Note_on_c, 1, 65, 100
3, 94560, Control_c, 1, 10, 42
3, 94590, Control_c, 1, 10, 41
3, 94620, Control_c, 1, 10, 40
3, 94650, Control_c, 1, 10, 39
3, 94668, Note_on_c, 1, 65, 0
3, 94680, Note_on_c, 1, 67, 100
3, 94680, Control_c, 1, 10, 38
3, 94710, Control_c, 1, 10, 38
3, 94740, Control_c, 1, 10, 37
3, 94770, Control_c, 1, 10, 36
3, 94788, Note_on_c, 1, 67, 0
3, 94800, Note_on_c, 1, 65, 100
3, 94800, Control_c, 1, 10, 35
3, 94830, Control_c, 1, 10, 34
3, 94860, Control_c, 1, 10, 34
3, 94890, Control_c, 1, 10, 33
3, 94908, Note_on_c, 1, 65, 0
3, 94920, Note_on_c, 1, 64, 100
3, 94920, Control_c, 1, 10, 32
3, 94950, Control_c, 1, 10, 31
3, 94980, Control_c, 1, 10, 30
3, 95010, Control_c, 1, 10, 30
3, 95028, Note_on_c, 1, 64, 0
3, 95040, Note_on_c, 1, 65, 100
3, 95040, Control_c, 1, 10, 29
3, 95070, Control_c, 1, 10, 28
3, 95100, Control_c, 1, 10, 27
3, 95130, Control_c, 1, 10, 26
3, 95148, Note_on_c, 1, 65, 0
3, 95160, Note_on_c, 1, 67, 100
3, 95160, Control_c, 1, 10, 26
3, 95190, Control_c, 1, 10, 25
3, 95220, Control_c, 1, 10, 24
3, 95250, Control_c, 1, 10, 23
3, 95268, Note_on_c, 1, 67, 0
3, 95280, Note_on_c, 1, 65, 100
3, 95280, Control_c, 1, 10, 22
3, 95310, Control_c, 1, 10, 22
3, 95340, Control_c, 1, 10, 21
3, 95370, Control_c, 1, 10, 20
3, 95388, Note_on_c, 1, 65, 0
3, 95400, Note_on_c, 1, 64, 100
3, 95400, Control_c, 1, 10, 19
3, 95430, Control_c, 1, 10, 18
3, 95460, Control_c, 1, 10, 18
3, 95490, Control_c, 1, 10, 17
3, 95508, Note_on_c, 1, 64, 0
3, 95520, Note_on_c, 1, 62, 100
3, 95520, Control_c, 1, 10, 16
3, 95550, Control_c, 1, 10, 15
3, 95580, Control_c, 1, 10, 14
3, 95610, Control_c, 1, 10, 14
3, 95628, Note_on_c, 1, 62, 0
3, 95640, Note_on_c, 1, 64, 100
3, 95640, Control_c, 1, 10, 13
3, 95670, Control_c, 1, 10, 12
3, 95700, Control_c, 1, 10, 11
3, 95730, Control_c, 1, 10, 10
3, 95748, Note_on_c, 1, 64, 0
3, 95760, Note_on_c, 1, 62, 100
3, 95760, Control_c, 1, 10, 10
3, 95790, Control_c, 1, 10, 9
3, 95820, Control_c, 1, 10, 8
3, 95850, Control_c, 1, 10, 7
3, 95868, Note_on_c, 1, 62, 0
3, 95880, Note_on_c, 1, 60, 100
3, 95880, Control_c, 1, 10, 6
3, 95910, Control_c, 1, 10, 6
3, 95940, Control_c, 1, 10, 5
3, 95970, Control_c, 1, 10, 4
3, 95985, Control_c, 1, 10, 2
3, 95988, Note_on_c, 1, 60, 0
3, 96000, Note_on_c, 1, 62, 100
3, 96015, Control_c, 1, 10, 2
3, 96045, Control_c, 1, 10, 3
3, 96075, Control_c, 1, 10, 3
3, 96105, Control_c, 1, 10, 4
3, 96135, Control_c, 1, 10, 4
3, 96165, Control_c, 1, 10, 5
3, 96195, Control_c, 1, 10, 5
3, 96225, Control_c, 1, 10, 6
3, 96255, Control_c, 1, 10, 7
3, 96285, Control_c, 1, 10, 7
3, 96315, Control_c, 1, 10, 8
3, 96345, Control_c, 1, 10, 8
3, 96375, Control_c, 1, 10, 9
3, 96405, Control_c, 1, 10, 9
3, 96435, Control_c, 1, 10, 10
3, 96465, Control_c, 1, 10, 10
3, 96495, Control_c, 1, 10, 11
3, 96525, Control_c, 1, 10, 12
3, 96555, Control_c, 1, 10, 12
3, 96585, Control_c, 1, 10, 13
3, 96615, Control_c, 1, 10, 13
3, 96645, Control_c, 1, 10, 14
3, 96675, Control_c, 1, 10, 14
3, 96705, Control_c, 1, 10, 15
3, 96735, Control_c, 1, 10, 15
3, 96765, Control_c, 1, 10, 16
3, 96795, Control_c, 1, 10, 17
3, 96825, Control_c, 1, 10, 17
3, 96855, Control_c, 1, 10, 18
3, 96885, Control_c, 1, 10, 18
3, 96915, Control_c, 1, 10, 19
3, 96945, Control_c, 1, 10, 19
3, 96975, Control_c, 1, 10, 20
3, 97005, Control_c, 1, 10, 21
3, 97035, Control_c, 1, 10, 21
3, 97065, Control_c, 1, 10, 22
3, 97095, Control_c, 1, 10, 22
3, 97125, Control_c, 1, 10, 23
3, 97155, Control_c, 1, 10, 23
3, 97185, Control_c, 1, 10, 24
3, 97215, Control_c, 1, 10, 24
3, 97245, Control_c, 1, 10, 25
3, 97275, Control_c, 1, 10, 26
3, 97296, Note_on_c, 1, 62, 0
3, 97305, Control_c, 1, 10, 26
3, 97335, Control_c, 1, 10, 27
3, 97365, Control_c, 1, 10, 27
3, 97395, Control_c, 1, 10, 28
3, 97425, Control_c, 1, 10, 28
3, 97440, Note_on_c, 1, 60, 100
3, 97455, Control_c, 1, 10, 29
3, 97485, Control_c, 1, 10, 29
3, 97515, Control_c, 1, 10, 30
3, 97545, Control_c, 1, 10, 31
3, 97575, Control_c, 1, 10, 31
3, 97605, Control_c, 1, 10, 32
3, 97635, Control_c, 1, 10, 32
3, 97665, Control_c, 1, 10, 33
3, 97695, Control_c, 1, 10, 33
3, 97725, Control_c, 1, 10, 34
3, 97755, Control_c, 1, 10, 35
3, 97785, Control_c, 1, 10, 35
3, 97815, Control_c, 1, 10, 36
3, 97845, Control_c, 1, 10, 36
3, 97872, Note_on_c, 1, 60, 0
3, 97875, Control_c, 1, 10, 37
3, 97905, Control_c, 1, 10, 37
3, 97920, Note_on_c, 1, 62, 100
3, 97935, Control_c, 1, 10, 38
3, 97965, Control_c, 1, 10, 38
3, 97995, Control_c, 1, 10, 39
3, 98025, Control_c, 1, 10, 40
3, 98055, Control_c, 1, 10, 40
3, 98085, Control_c, 1, 10, 41
3, 98115, Control_c, 1, 10, 41
3, 98145, Control_c, 1, 10, 42
3, 98175, Control_c, 1, 10, 42
3, 98205, Control_c, 1, 10, 43
3, 98235, Control_c, 1, 10, 43
3, 98244, Note_on_c, 1, 62, 0
3, 98265, Control_c, 1, 10, 44
3, 98280, Note_on_c, 1, 69, 100
3, 98295, Control_c, 1, 10, 45
3, 98325, Control_c, 1, 10, 45
3, 98355, Control_c, 1, 10, 46
3, 98385, Control_c, 1, 10, 46
3, 98388, Note_on_c, 1, 69, 0
3, 98400, Note_on_c, 1, 69, 100
3, 98415, Control_c, 1, 10, 47
3, 98445, Control_c, 1, 10, 47
3, 98475, Control_c, 1, 10, 48
3, 98505, Control_c, 1, 10, 48
3, 98535, Control_c, 1, 10, 49
3, 98565, Control_c, 1, 10, 50
3, 98595, Control_c, 1, 10, 50
3, 98625, Control_c, 1, 10, 51
3, 98655, Control_c, 1, 10, 51
3, 98685, Control_c, 1, 10, 52
3, 98715, Control_c, 1, 10, 52
3, 98745, Control_c, 1, 10, 53
3, 98775, Control_c, 1, 10, 54
3, 98805, Control_c, 1, 10, 54
3, 98835, Control_c, 1, 10, 55
3, 98865, Control_c, 1, 10, 55
3, 101568, Note_on_c, 1, 69, 0
3, 101760, Note_on_c, 1, 72, 100
3, 101775, Control_c, 1, 10, 55
3, 101805, Control_c, 1, 10, 55
3, 101835, Control_c, 1, 10, 54
3, 101865, Control_c, 1, 10, 53
3, 101868, Note_on_c, 1, 72, 0
3, 101880, Note_on_c, 1, 70, 100
3, 101895, Control_c, 1, 10, 52
3, 101925, Control_c, 1, 10, 51
3, 101955, Control_c, 1, 10, 50
3, 101985, Note_on_c, 1, 70, 0
3, 101985, Control_c, 1, 10, 50
3, 102000, Note_on_c, 1, 69, 100
3, 102015, Control_c, 1, 10, 49
3, 102045, Control_c, 1, 10, 48
3, 102075, Control_c, 1, 10, 47
3, 102105, Control_c, 1, 10, 46
3, 102108, Note_on_c, 1, 69, 0
3, 102120, Note_on_c, 1, 67, 100
3, 102135, Control_c, 1, 10, 45
3, 102165, Control_c, 1, 10, 44
3, 102195, Control_c, 1, 10, 44
3, 102225, Control_c, 1, 10, 43
3, 102228, Note_on_c, 1, 67, 0
3, 102240, Note_on_c, 1, 65, 100
3, 102255, Control_c, 1, 10, 42
3, 102285, Control_c, 1, 10, 41
3, 102315, Control_c, 1, 10, 40
3, 102345, Control_c, 1, 10, 39
3, 102348, Note_on_c, 1, 65, 0
3, 102360, Note_on_c, 1, 67, 100
3, 102375, Control_c, 1, 10, 38
3, 102405, Control_c, 1, 10, 38
3, 102435, Control_c, 1, 10, 37
3, 102465, Control_c, 1, 10, 36
3, 102468, Note_on_c, 1, 67, 0
3, 102480, Note_on_c, 1, 65, 100
3, 102495, Control_c, 1, 10, 35
3, 102525, Control_c, 1, 10, 34
3, 102555, Control_c, 1, 10, 33
3, 102585, Control_c, 1, 10, 32
3, 102588, Note_on_c, 1, 65, 0
3, 102600, Note_on_c, 1, 63, 100
3, 102615, Control_c, 1, 10, 32
3, 102645, Control_c, 1, 10, 31
3, 102675, Control_c, 1, 10, 30
3, 102705, Control_c, 1, 10, 29
3, 102708, Note_on_c, 1, 63, 0
3, 102720, Note_on_c, 1, 65, 100
3, 102735, Control_c, 1, 10, 28
3, 102765, Control_c, 1, 10, 27
3, 102795, Control_c, 1, 10, 26
3, 102825, Control_c, 1, 10, 26
3, 102828, Note_on_c, 1, 65, 0
3, 102840, Note_on_c, 1, 67, 100
3, 102855, Control_c, 1, 10, 25
3, 102885, Control_c, 1, 10, 24
3, 102915, Control_c, 1, 10, 23
3, 102945, Control_c, 1, 10, 22
3, 102948, Note_on_c, 1, 67, 0
3, 102960, Note_on_c, 1, 69, 100
3, 102975, Control_c, 1, 10, 21
3, 103005, Control_c, 1, 10, 20
3, 103035, Control_c, 1, 10, 20
3, 103065, Control_c, 1, 10, 19
3, 103068, Note_on_c, 1, 69, 0
3, 103080, Note_on_c, 1, 65, 100
3, 103095, Control_c, 1, 10, 18
3, 103125, Control_c, 1, 10, 17
3, 103155, Control_c, 1, 10, 16
3, 103185, Control_c, 1, 10, 15
3, 103188, Note_on_c, 1, 65, 0
3, 103200, Note_on_c, 1, 63, 100
3, 103215, Control_c, 1, 10, 14
3, 103245, Control_c, 1, 10, 14
3, 103275, Control_c, 1, 10, 13
3, 103305, Control_c, 1, 10, 12
3, 103308, Note_on_c, 1, 63, 0
3, 103320, Note_on_c, 1, 65, 100
3, 103335, Control_c, 1, 10, 11
3, 103365, Control_c, 1, 10, 10
3, 103395, Control_c, 1, 10, 9
3, 103425, Control_c, 1, 10, 8
3, 103428, Note_on_c, 1, 65, 0
3, 103440, Note_on_c, 1, 63, 100
3, 103455, Control_c, 1, 10, 8
3, 103485, Control_c, 1, 10, 7
3, 103515, Control_c, 1, 10, 6
3, 103545, Control_c, 1, 10, 5
3, 103548, Note_on_c, 1, 63, 0
3, 103560, Note_on_c, 1, 60, 100
3, 103575, Control_c, 1, 10, 4
3, 103605, Control_c, 1, 10, 3
3, 103635, Control_c, 1, 10, 2
3, 103650, Control_c, 1, 10, 3
3, 103668, Note_on_c, 1, 60, 0
3, 103680, Note_on_c, 1, 62, 100
3, 103680, Control_c, 1, 10, 3
3, 103710, Control_c, 1, 10, 4
3, 103740, Control_c, 1, 10, 5
3, 103770, Control_c, 1, 10, 6
3, 103800, Control_c, 1, 10, 7
3, 103830, Control_c, 1, 10, 7
3, 103860, Control_c, 1, 10, 8
3, 103890, Control_c, 1, 10, 9
3, 103920, Control_c, 1, 10, 10
3, 103950, Control_c, 1, 10, 11
3, 103980, Control_c, 1, 10, 11
3, 104010, Control_c, 1, 10, 12
3, 104040, Control_c, 1, 10, 13
3, 104070, Control_c, 1, 10, 14
3, 104100, Control_c, 1, 10, 15
3, 104130, Control_c, 1, 10, 16
3, 104160, Control_c, 1, 10, 16
3, 104190, Control_c, 1, 10, 17
3, 104220, Control_c, 1, 10, 18
3, 104250, Control_c, 1, 10, 19
3, 104280, Control_c, 1, 10, 20
3, 104310, Control_c, 1, 10, 20
3, 104340, Control_c, 1, 10, 21
3, 104370, Control_c, 1, 10, 22
3, 104400, Control_c, 1, 10, 23
3, 104430, Control_c, 1, 10, 24
3, 104460, Control_c, 1, 10, 25
3, 104490, Control_c, 1, 10, 25
3, 104520, Control_c, 1, 10, 26
3, 104550, Control_c, 1, 10, 27
3, 104580, Control_c, 1, 10, 28
3, 104610, Control_c, 1, 10, 29
3, 104640, Control_c, 1, 10, 29
3, 104670, Control_c, 1, 10, 30
3, 104700, Control_c, 1, 10, 31
3, 104730, Control_c, 1, 10, 32
3, 104760, Control_c, 1, 10, 33
3, 104790, Control_c, 1, 10, 33
3, 104820, Control_c, 1, 10, 34
3, 104850, Control_c, 1, 10, 35
3, 104880, Control_c, 1, 10, 36
3, 104910, Control_c, 1, 10, 37
3, 104940, Control_c, 1, 10, 38
3, 104970, Control_c, 1, 10, 38
3, 104976, Note_on_c, 1, 62, 0
3, 105000, Control_c, 1, 10, 39
3, 105030, Control_c, 1, 10, 40
3, 105060, Control_c, 1, 10, 41
3, 105090, Control_c, 1, 10, 42
3, 105120, Note_on_c, 1, 60, 100
3, 105120, Control_c, 1, 10, 42
3, 105150, Control_c, 1, 10, 43
3, 105180, Control_c, 1, 10, 44
3, 105210, Control_c, 1, 10, 45
3, 105240, Control_c, 1, 10, 46
3, 105270, Control_c, 1, 10, 47
3, 105300, Control_c, 1, 10, 47
3, 105330, Control_c, 1, 10, 48
3, 105360, Control_c, 1, 10, 49
3, 105390, Control_c, 1, 10, 50
3, 105420, Control_c, 1, 10, 51
3, 105450, Control_c, 1, 10, 51
3, 105480, Control_c, 1, 10, 52
3, 105510, Control_c, 1, 10, 53
3, 105540, Control_c, 1, 10, 54
3, 105552, Note_on_c, 1, 60, 0
3, 105570, Control_c, 1, 10, 55
3, 105600, Note_on_c, 1, 62, 100
3, 108816, Note_on_c, 1, 62, 0
3, 108960, Note_on_c, 1, 60, 100
3, 109392, Note_on_c, 1, 60, 0
3, 109440, Note_on_c, 1, 62, 100
3, 112656, Note_on_c, 1, 62, 0
3, 112800, Note_on_c, 1, 60, 100
3, 113232, Note_on_c, 1, 60, 0
3, 113280, Note_on_c, 1, 62, 100
3, 116496, Note_on_c, 1, 62, 0
3, 116640, Note_on_c, 1, 60, 100
3, 117072, Note_on_c, 1, 60, 0
3, 117120, Note_on_c, 1, 62, 100
3, 117120, Note_on_c, 1, 67, 100
3, 117552, Note_on_c, 1, 62, 0
3, 117552, Note_on_c, 1, 67, 0
3, 117600, Note_on_c, 1, 62, 100
3, 117600, Note_on_c, 1, 67, 100
3, 117744, Note_on_c, 1, 62, 0
3, 117744, Note_on_c, 1, 67, 0
3, 117760, Note_on_c, 1, 62, 100
3, 117760, Note_on_c, 1, 67, 100
3, 117904, Note_on_c, 1, 62, 0
3, 117904, Note_on_c, 1, 67, 0
3, 117920, Note_on_c, 1, 62, 100
3, 117920, Note_on_c, 1, 67, 100
3, 118064, Note_on_c, 1, 62, 0
3, 118064, Note_on_c, 1, 67, 0
3, 118080, Note_on_c, 1, 62, 100
3, 118080, Note_on_c, 1, 67, 100
3, 118512, Note_on_c, 1, 62, 0
3, 118512, Note_on_c, 1, 67, 0
3, 118560, Note_on_c, 1, 62, 100
3, 118560, Note_on_c, 1, 67, 100
3, 118992, Note_on_c, 1, 62, 0
3, 118992, Note_on_c, 1, 67, 0
3, 119040, Note_on_c, 1, 62, 100
3, 119040, Note_on_c, 1, 67, 100
3, 119472, Note_on_c, 1, 62, 0
3, 119472, Note_on_c, 1, 67, 0
3, 119520, Note_on_c, 1, 62, 100
3, 119520, Note_on_c, 1, 67, 100
3, 119664, Note_on_c, 1, 62, 0
3, 119664, Note_on_c, 1, 67, 0
3, 119680, Note_on_c, 1, 62, 100
3, 119680, Note_on_c, 1, 67, 100
3, 119824, Note_on_c, 1, 62, 0
3, 119824, Note_on_c, 1, 67, 0
3, 119840, Note_on_c, 1, 62, 100
3, 119840, Note_on_c, 1, 67, 100
3, 119984, Note_on_c, 1, 62, 0
3, 119984, Note_on_c, 1, 67, 0
3, 120000, Note_on_c, 1, 62, 100
3, 120000, Note_on_c, 1, 67, 100
3, 120432, Note_on_c, 1, 62, 0
3, 120432, Note_on_c, 1, 67, 0
3, 120432, End_track
4, 0, Start_track
4, 0, Title_t, "Organ 1"
4, 0, MIDI_port, 0
4, 0, Control_c, 2, 11, 101
4, 0, Control_c, 2, 10, 110
4, 0, Control_c, 2, 91, 100
4, 30, Control_c, 2, 11, 101
4, 30, Control_c, 2, 10, 110
4, 30, Control_c, 2, 91, 100
4, 60, Control_c, 2, 11, 101
4, 60, Control_c, 2, 10, 110
4, 60, Control_c, 2, 91, 100
4, 90, Control_c, 2, 11, 102
4, 90, Control_c, 2, 10, 110
4, 90, Control_c, 2, 91, 100
4, 120, Control_c, 2, 11, 102
4, 120, Control_c, 2, 10, 110
4, 120, Control_c, 2, 91, 100
4, 150, Control_c, 2, 11, 103
4, 150, Control_c, 2, 10, 110
4, 150, Control_c, 2, 91, 100
4, 180, Control_c, 2, 11, 103
4, 180, Control_c, 2, 10, 110
4, 180, Control_c, 2, 91, 100
4, 210, Control_c, 2, 11, 103
4, 210, Control_c, 2, 10, 110
4, 210, Control_c, 2, 91, 100
4, 240, Control_c, 2, 11, 104
4, 240, Control_c, 2, 10, 110
4, 270, Control_c, 2, 11, 104
4, 270, Control_c, 2, 10, 110
4, 300, Control_c, 2, 11, 105
4, 300, Control_c, 2, 10, 110
4, 330, Control_c, 2, 11, 105
4, 330, Control_c, 2, 10, 110
4, 360, Control_c, 2, 11, 106
4, 360, Control_c, 2, 10, 110
4, 390, Control_c, 2, 11, 106
4, 390, Control_c, 2, 10, 110
4, 420, Control_c, 2, 11, 106
4, 420, Control_c, 2, 10, 110
4, 450, Control_c, 2, 11, 107
4, 450, Control_c, 2, 10, 110
4, 480, Control_c, 2, 11, 107
4, 480, Control_c, 2, 10, 110
4, 510, Control_c, 2, 11, 108
4, 510, Control_c, 2, 10, 110
4, 540, Control_c, 2, 11, 108
4, 540, Control_c, 2, 10, 110
4, 570, Control_c, 2, 11, 109
4, 570, Control_c, 2, 10, 110
4, 600, Control_c, 2, 11, 109
4, 600, Control_c, 2, 10, 110
4, 630, Control_c, 2, 11, 109
4, 630, Control_c, 2, 10, 110
4, 660, Control_c, 2, 11, 110
4, 660, Control_c, 2, 10, 110
4, 690, Control_c, 2, 11, 110
4, 690, Control_c, 2, 10, 110
4, 720, Control_c, 2, 11, 111
4, 720, Control_c, 2, 10, 110
4, 750, Control_c, 2, 11, 111
4, 750, Control_c, 2, 10, 110
4, 780, Control_c, 2, 11, 112
4, 780, Control_c, 2, 10, 110
4, 810, Control_c, 2, 11, 112
4, 810, Control_c, 2, 10, 110
4, 840, Control_c, 2, 11, 112
4, 840, Control_c, 2, 10, 110
4, 870, Control_c, 2, 11, 113
4, 870, Control_c, 2, 10, 110
4, 900, Control_c, 2, 11, 113
4, 930, Control_c, 2, 11, 114
4, 960, Control_c, 2, 11, 114
4, 990, Control_c, 2, 11, 115
4, 1020, Control_c, 2, 11, 115
4, 1050, Control_c, 2, 11, 115
4, 1080, Control_c, 2, 11, 116
4, 1110, Control_c, 2, 11, 116
4, 1140, Control_c, 2, 11, 117
4, 1170, Control_c, 2, 11, 117
4, 1200, Control_c, 2, 11, 118
4, 1230, Control_c, 2, 11, 118
4, 1260, Control_c, 2, 11, 118
4, 1290, Control_c, 2, 11, 119
4, 1320, Control_c, 2, 11, 119
4, 1350, Control_c, 2, 11, 120
4, 1380, Control_c, 2, 11, 120
4, 1410, Control_c, 2, 11, 121
4, 1440, Control_c, 2, 11, 121
4, 1470, Control_c, 2, 11, 121
4, 1500, Control_c, 2, 11, 122
4, 1530, Control_c, 2, 11, 122
4, 1560, Control_c, 2, 11, 123
4, 1590, Control_c, 2, 11, 123
4, 1620, Control_c, 2, 11, 124
4, 1650, Control_c, 2, 11, 124
4, 1680, Control_c, 2, 11, 124
4, 1710, Control_c, 2, 11, 125
4, 1740, Control_c, 2, 11, 125
4, 1770, Control_c, 2, 11, 126
4, 1800, Control_c, 2, 11, 126
4, 1830, Control_c, 2, 11, 127
4, 1860, Control_c, 2, 11, 127
4, 1920, Control_c, 2, 0, 0
4, 1920, Control_c, 2, 32, 0
4, 1920, Program_c, 2, 16
4, 9600, Note_on_c, 2, 55, 100
4, 9816, Note_on_c, 2, 55, 0
4, 9840, Note_on_c, 2, 62, 100
4, 10056, Note_on_c, 2, 62, 0
4, 10080, Note_on_c, 2, 60, 100
4, 10296, Note_on_c, 2, 60, 0
4, 10320, Note_on_c, 2, 58, 100
4, 10536, Note_on_c, 2, 58, 0
4, 10560, Note_on_c, 2, 65, 100
4, 10776, Note_on_c, 2, 65, 0
4, 10800, Note_on_c, 2, 64, 100
4, 10908, Note_on_c, 2, 64, 0
4, 10920, Note_on_c, 2, 62, 100
4, 11028, Note_on_c, 2, 62, 0
4, 11040, Note_on_c, 2, 60, 100
4, 11256, Note_on_c, 2, 60, 0
4, 11280, Note_on_c, 2, 62, 100
4, 11496, Note_on_c, 2, 62, 0
4, 11520, Note_on_c, 2, 58, 100
4, 11736, Note_on_c, 2, 58, 0
4, 11760, Note_on_c, 2, 57, 100
4, 11976, Note_on_c, 2, 57, 0
4, 12000, Note_on_c, 2, 58, 100
4, 12216, Note_on_c, 2, 58, 0
4, 12240, Note_on_c, 2, 55, 100
4, 12456, Note_on_c, 2, 55, 0
4, 12480, Note_on_c, 2, 53, 100
4, 12696, Note_on_c, 2, 53, 0
4, 12720, Note_on_c, 2, 55, 100
4, 12864, Note_on_c, 2, 55, 0
4, 12960, Note_on_c, 2, 55, 100
4, 13176, Note_on_c, 2, 55, 0
4, 13440, Note_on_c, 2, 62, 100
4, 13440, Note_on_c, 2, 55, 100
4, 13656, Note_on_c, 2, 62, 0
4, 13656, Note_on_c, 2, 55, 0
4, 13680, Note_on_c, 2, 69, 100
4, 13680, Note_on_c, 2, 62, 100
4, 13896, Note_on_c, 2, 69, 0
4, 13896, Note_on_c, 2, 62, 0
4, 13920, Note_on_c, 2, 67, 100
4, 13920, Note_on_c, 2, 60, 100
4, 14136, Note_on_c, 2, 67, 0
4, 14136, Note_on_c, 2, 60, 0
4, 14160, Note_on_c, 2, 65, 100
4, 14160, Note_on_c, 2, 58, 100
4, 14376, Note_on_c, 2, 65, 0
4, 14376, Note_on_c, 2, 58, 0
4, 14400, Note_on_c, 2, 72, 100
4, 14400, Note_on_c, 2, 65, 100
4, 14616, Note_on_c, 2, 72, 0
4, 14616, Note_on_c, 2, 65, 0
4, 14640, Note_on_c, 2, 71, 100
4, 14640, Note_on_c, 2, 64, 100
4, 14748, Note_on_c, 2, 71, 0
4, 14748, Note_on_c, 2, 64, 0
4, 14760, Note_on_c, 2, 69, 100
4, 14760, Note_on_c, 2, 62, 100
4, 14868, Note_on_c, 2, 69, 0
4, 14868, Note_on_c, 2, 62, 0
4, 14880, Note_on_c, 2, 67, 100
4, 14880, Note_on_c, 2, 60, 100
4, 15096, Note_on_c, 2, 67, 0
4, 15096, Note_on_c, 2, 60, 0
4, 15120, Note_on_c, 2, 69, 100
4, 15120, Note_on_c, 2, 62, 100
4, 15336, Note_on_c, 2, 69, 0
4, 15336, Note_on_c, 2, 62, 0
4, 15360, Note_on_c, 2, 65, 100
4, 15360, Note_on_c, 2, 58, 100
4, 15576, Note_on_c, 2, 65, 0
4, 15576, Note_on_c, 2, 58, 0
4, 15600, Note_on_c, 2, 64, 100
4, 15600, Note_on_c, 2, 57, 100
4, 15816, Note_on_c, 2, 64, 0
4, 15816, Note_on_c, 2, 57, 0
4, 15840, Note_on_c, 2, 65, 100
4, 15840, Note_on_c, 2, 58, 100
4, 16056, Note_on_c, 2, 65, 0
4, 16056, Note_on_c, 2, 58, 0
4, 16080, Note_on_c, 2, 62, 100
4, 16080, Note_on_c, 2, 55, 100
4, 16296, Note_on_c, 2, 62, 0
4, 16296, Note_on_c, 2, 55, 0
4, 16320, Note_on_c, 2, 60, 100
4, 16320, Note_on_c, 2, 53, 100
4, 16536, Note_on_c, 2, 60, 0
4, 16536, Note_on_c, 2, 53, 0
4, 16560, Note_on_c, 2, 62, 100
4, 16560, Note_on_c, 2, 55, 100
4, 16704, Note_on_c, 2, 62, 0
4, 16704, Note_on_c, 2, 55, 0
4, 16800, Note_on_c, 2, 62, 100
4, 16800, Note_on_c, 2, 55, 100
4, 17016, Note_on_c, 2, 62, 0
4, 17016, Note_on_c, 2, 55, 0
4, 17280, Note_on_c, 2, 55, 100
4, 17280, Note_on_c, 2, 62, 100
4, 17496, Note_on_c, 2, 55, 0
4, 17496, Note_on_c, 2, 62, 0
4, 17520, Note_on_c, 2, 62, 100
4, 17520, Note_on_c, 2, 69, 100
4, 17736, Note_on_c, 2, 62, 0
4, 17736, Note_on_c, 2, 69, 0
4, 17760, Note_on_c, 2, 60, 100
4, 17760, Note_on_c, 2, 67, 100
4, 17976, Note_on_c, 2, 60, 0
4, 17976, Note_on_c, 2, 67, 0
4, 18000, Note_on_c, 2, 58, 100
4, 18000, Note_on_c, 2, 65, 100
4, 18216, Note_on_c, 2, 58, 0
4, 18216, Note_on_c, 2, 65, 0
4, 18240, Note_on_c, 2, 65, 100
4, 18240, Note_on_c, 2, 72, 100
4, 18456, Note_on_c, 2, 65, 0
4, 18456, Note_on_c, 2, 72, 0
4, 18480, Note_on_c, 2, 64, 100
4, 18480, Note_on_c, 2, 71, 100
4, 18588, Note_on_c, 2, 64, 0
4, 18588, Note_on_c, 2, 71, 0
4, 18600, Note_on_c, 2, 62, 100
4, 18600, Note_on_c, 2, 69, 100
4, 18708, Note_on_c, 2, 62, 0
4, 18708, Note_on_c, 2, 69, 0
4, 18720, Note_on_c, 2, 60, 100
4, 18720, Note_on_c, 2, 67, 100
4, 18936, Note_on_c, 2, 60, 0
4, 18936, Note_on_c, 2, 67, 0
4, 18960, Note_on_c, 2, 62, 100
4, 18960, Note_on_c, 2, 69, 100
4, 19176, Note_on_c, 2, 62, 0
4, 19176, Note_on_c, 2, 69, 0
4, 19200, Note_on_c, 2, 58, 100
4, 19200, Note_on_c, 2, 65, 100
4, 19416, Note_on_c, 2, 58, 0
4, 19416, Note_on_c, 2, 65, 0
4, 19440, Note_on_c, 2, 60, 100
4, 19440, Note_on_c, 2, 67, 100
4, 19656, Note_on_c, 2, 60, 0
4, 19656, Note_on_c, 2, 67, 0
4, 19680, Note_on_c, 2, 57, 100
4, 19680, Note_on_c, 2, 64, 100
4, 19896, Note_on_c, 2, 57, 0
4, 19896, Note_on_c, 2, 64, 0
4, 19920, Note_on_c, 2, 58, 100
4, 19920, Note_on_c, 2, 65, 100
4, 20136, Note_on_c, 2, 58, 0
4, 20136, Note_on_c, 2, 65, 0
4, 20160, Note_on_c, 2, 55, 100
4, 20160, Note_on_c, 2, 62, 100
4, 20376, Note_on_c, 2, 55, 0
4, 20376, Note_on_c, 2, 62, 0
4, 20400, Note_on_c, 2, 58, 100
4, 20400, Note_on_c, 2, 65, 100
4, 20616, Note_on_c, 2, 58, 0
4, 20616, Note_on_c, 2, 65, 0
4, 20640, Note_on_c, 2, 57, 100
4, 20640, Note_on_c, 2, 64, 100
4, 20856, Note_on_c, 2, 57, 0
4, 20856, Note_on_c, 2, 64, 0
4, 20880, Note_on_c, 2, 55, 100
4, 20880, Note_on_c, 2, 62, 100
4, 21096, Note_on_c, 2, 55, 0
4, 21096, Note_on_c, 2, 62, 0
4, 21120, Note_on_c, 2, 60, 100
4, 21336, Note_on_c, 2, 60, 0
4, 21360, Note_on_c, 2, 62, 100
4, 21576, Note_on_c, 2, 62, 0
4, 21600, Note_on_c, 2, 62, 100
4, 22464, Note_on_c, 2, 62, 0
4, 22560, Note_on_c, 2, 69, 100
4, 22992, Note_on_c, 2, 69, 0
4, 23040, Note_on_c, 2, 62, 100
4, 24336, Note_on_c, 2, 62, 0
4, 24480, Note_on_c, 2, 69, 100
4, 24912, Note_on_c, 2, 69, 0
4, 24960, Note_on_c, 2, 62, 100
4, 26400, Note_on_c, 2, 67, 100
4, 26688, Note_on_c, 2, 62, 0
4, 26832, Note_on_c, 2, 67, 0
4, 26880, Note_on_c, 2, 67, 100
4, 27096, Note_on_c, 2, 67, 0
4, 27120, Note_on_c, 2, 65, 100
4, 27336, Note_on_c, 2, 65, 0
4, 27360, Note_on_c, 2, 67, 100
4, 27576, Note_on_c, 2, 67, 0
4, 27600, Note_on_c, 2, 69, 100
4, 27816, Note_on_c, 2, 69, 0
4, 27840, Note_on_c, 2, 70, 100
4, 28704, Note_on_c, 2, 70, 0
4, 28800, Note_on_c, 2, 62, 100
4, 30096, Note_on_c, 2, 62, 0
4, 30240, Note_on_c, 2, 69, 100
4, 30672, Note_on_c, 2, 69, 0
4, 30720, Note_on_c, 2, 62, 100
4, 32016, Note_on_c, 2, 62, 0
4, 32160, Note_on_c, 2, 69, 100
4, 32592, Note_on_c, 2, 69, 0
4, 32640, Note_on_c, 2, 62, 100
4, 34368, Note_on_c, 2, 62, 0
4, 36480, Note_on_c, 2, 62, 100
4, 36480, Note_on_c, 2, 67, 100
4, 36912, Note_on_c, 2, 62, 0
4, 36912, Note_on_c, 2, 67, 0
4, 36960, Note_on_c, 2, 62, 100
4, 36960, Note_on_c, 2, 67, 100
4, 37044, Note_on_c, 2, 62, 0
4, 37044, Note_on_c, 2, 67, 0
4, 37080, Note_on_c, 2, 62, 100
4, 37080, Note_on_c, 2, 67, 100
4, 37248, Note_on_c, 2, 62, 0
4, 37248, Note_on_c, 2, 67, 0
4, 37280, Note_on_c, 2, 62, 100
4, 37280, Note_on_c, 2, 67, 100
4, 37364, Note_on_c, 2, 62, 0
4, 37364, Note_on_c, 2, 67, 0
4, 37440, Note_on_c, 2, 62, 100
4, 37440, Note_on_c, 2, 67, 100
4, 37776, Note_on_c, 2, 62, 0
4, 37776, Note_on_c, 2, 67, 0
4, 37920, Note_on_c, 2, 60, 100
4, 37920, Note_on_c, 2, 65, 100
4, 38352, Note_on_c, 2, 60, 0
4, 38352, Note_on_c, 2, 65, 0
4, 38400, Note_on_c, 2, 62, 100
4, 38400, Note_on_c, 2, 67, 100
4, 39696, Note_on_c, 2, 62, 0
4, 39696, Note_on_c, 2, 67, 0
4, 39840, Note_on_c, 2, 60, 100
4, 39840, Note_on_c, 2, 65, 100
4, 40272, Note_on_c, 2, 60, 0
4, 40272, Note_on_c, 2, 65, 0
4, 40320, Note_on_c, 2, 62, 100
4, 40320, Note_on_c, 2, 67, 100
4, 42048, Note_on_c, 2, 62, 0
4, 42048, Note_on_c, 2, 67, 0
4, 42240, Note_on_c, 2, 65, 100
4, 42240, Control_c, 2, 10, 109
4, 42270, Control_c, 2, 10, 109
4, 42300, Control_c, 2, 10, 108
4, 42330, Control_c, 2, 10, 108
4, 42348, Note_on_c, 2, 65, 0
4, 42360, Note_on_c, 2, 64, 100
4, 42360, Control_c, 2, 10, 107
4, 42390, Control_c, 2, 10, 106
4, 42420, Control_c, 2, 10, 106
4, 42450, Control_c, 2, 10, 105
4, 42468, Note_on_c, 2, 64, 0
4, 42480, Note_on_c, 2, 62, 100
4, 42480, Control_c, 2, 10, 104
4, 42510, Control_c, 2, 10, 104
4, 42540, Control_c, 2, 10, 103
4, 42570, Control_c, 2, 10, 102
4, 42588, Note_on_c, 2, 62, 0
4, 42600, Note_on_c, 2, 60, 100
4, 42600, Control_c, 2, 10, 102
4, 42630, Control_c, 2, 10, 101
4, 42660, Control_c, 2, 10, 100
4, 42690, Control_c, 2, 10, 100
4, 42708, Note_on_c, 2, 60, 0
4, 42720, Note_on_c, 2, 58, 100
4, 42720, Control_c, 2, 10, 99
4, 42750, Control_c, 2, 10, 98
4, 42780, Control_c, 2, 10, 98
4, 42810, Control_c, 2, 10, 97
4, 42828, Note_on_c, 2, 58, 0
4, 42840, Note_on_c, 2, 60, 100
4, 42840, Control_c, 2, 10, 96
4, 42870, Control_c, 2, 10, 96
4, 42900, Control_c, 2, 10, 95
4, 42930, Control_c, 2, 10, 94
4, 42948, Note_on_c, 2, 60, 0
4, 42960, Note_on_c, 2, 58, 100
4, 42960, Control_c, 2, 10, 94
4, 42990, Control_c, 2, 10, 93
4, 43020, Control_c, 2, 10, 92
4, 43050, Control_c, 2, 10, 92
4, 43068, Note_on_c, 2, 58, 0
4, 43080, Note_on_c, 2, 57, 100
4, 43080, Control_c, 2, 10, 91
4, 43110, Control_c, 2, 10, 90
4, 43140, Control_c, 2, 10, 90
4, 43170, Control_c, 2, 10, 89
4, 43188, Note_on_c, 2, 57, 0
4, 43200, Note_on_c, 2, 58, 100
4, 43200, Control_c, 2, 10, 88
4, 43230, Control_c, 2, 10, 88
4, 43260, Control_c, 2, 10, 87
4, 43290, Control_c, 2, 10, 86
4, 43308, Note_on_c, 2, 58, 0
4, 43320, Note_on_c, 2, 60, 100
4, 43320, Control_c, 2, 10, 86
4, 43350, Control_c, 2, 10, 85
4, 43380, Control_c, 2, 10, 84
4, 43410, Control_c, 2, 10, 84
4, 43428, Note_on_c, 2, 60, 0
4, 43440, Note_on_c, 2, 58, 100
4, 43440, Control_c, 2, 10, 83
4, 43470, Control_c, 2, 10, 82
4, 43500, Control_c, 2, 10, 82
4, 43530, Control_c, 2, 10, 81
4, 43548, Note_on_c, 2, 58, 0
4, 43560, Note_on_c, 2, 57, 100
4, 43560, Control_c, 2, 10, 80
4, 43590, Control_c, 2, 10, 80
4, 43620, Control_c, 2, 10, 79
4, 43650, Control_c, 2, 10, 78
4, 43668, Note_on_c, 2, 57, 0
4, 43680, Note_on_c, 2, 55, 100
4, 43680, Control_c, 2, 10, 78
4, 43710, Control_c, 2, 10, 77
4, 43740, Control_c, 2, 10, 76
4, 43770, Control_c, 2, 10, 76
4, 43788, Note_on_c, 2, 55, 0
4, 43800, Note_on_c, 2, 57, 100
4, 43800, Control_c, 2, 10, 75
4, 43830, Control_c, 2, 10, 74
4, 43860, Control_c, 2, 10, 74
4, 43890, Control_c, 2, 10, 73
4, 43908, Note_on_c, 2, 57, 0
4, 43920, Note_on_c, 2, 55, 100
4, 43920, Control_c, 2, 10, 72
4, 43950, Control_c, 2, 10, 72
4, 43980, Control_c, 2, 10, 71
4, 44010, Control_c, 2, 10, 70
4, 44028, Note_on_c, 2, 55, 0
4, 44040, Note_on_c, 2, 53, 100
4, 44040, Control_c, 2, 10, 70
4, 44070, Control_c, 2, 10, 69
4, 44100, Control_c, 2, 10, 69
4, 44130, Control_c, 2, 10, 68
4, 44145, Control_c, 2, 10, 110
4, 44148, Note_on_c, 2, 53, 0
4, 44160, Note_on_c, 2, 62, 100
4, 44160, Note_on_c, 2, 67, 100
4, 44175, Control_c, 2, 10, 110
4, 44205, Control_c, 2, 10, 110
4, 44235, Control_c, 2, 10, 110
4, 44265, Control_c, 2, 10, 110
4, 44295, Control_c, 2, 10, 110
4, 44592, Note_on_c, 2, 62, 0
4, 44592, Note_on_c, 2, 67, 0
4, 44640, Note_on_c, 2, 62, 100
4, 44640, Note_on_c, 2, 67, 100
4, 44724, Note_on_c, 2, 62, 0
4, 44724, Note_on_c, 2, 67, 0
4, 44760, Note_on_c, 2, 67, 100
4, 44760, Note_on_c, 2, 62, 100
4, 44928, Note_on_c, 2, 67, 0
4, 44928, Note_on_c, 2, 62, 0
4, 44960, Note_on_c, 2, 62, 100
4, 44960, Note_on_c, 2, 67, 100
4, 45044, Note_on_c, 2, 62, 0
4, 45044, Note_on_c, 2, 67, 0
4, 45120, Note_on_c, 2, 62, 100
4, 45120, Note_on_c, 2, 67, 100
4, 45552, Note_on_c, 2, 62, 0
4, 45552, Note_on_c, 2, 67, 0
4, 45600, Note_on_c, 2, 60, 100
4, 45600, Note_on_c, 2, 65, 100
4, 46032, Note_on_c, 2, 60, 0
4, 46032, Note_on_c, 2, 65, 0
4, 46080, Note_on_c, 2, 62, 100
4, 46080, Note_on_c, 2, 67, 100
4, 47376, Note_on_c, 2, 62, 0
4, 47376, Note_on_c, 2, 67, 0
4, 47520, Note_on_c, 2, 60, 100
4, 47520, Note_on_c, 2, 65, 100
4, 47952, Note_on_c, 2, 60, 0
4, 47952, Note_on_c, 2, 65, 0
4, 48000, Note_on_c, 2, 62, 100
4, 48000, Note_on_c, 2, 67, 100
4, 48432, Note_on_c, 2, 62, 0
4, 48432, Note_on_c, 2, 67, 0
4, 48480, Note_on_c, 2, 62, 100
4, 48480, Note_on_c, 2, 67, 100
4, 48624, Note_on_c, 2, 62, 0
4, 48624, Note_on_c, 2, 67, 0
4, 48640, Note_on_c, 2, 62, 100
4, 48640, Note_on_c, 2, 67, 100
4, 48784, Note_on_c, 2, 62, 0
4, 48784, Note_on_c, 2, 67, 0
4, 48800, Note_on_c, 2, 62, 100
4, 48800, Note_on_c, 2, 67, 100
4, 48944, Note_on_c, 2, 62, 0
4, 48944, Note_on_c, 2, 67, 0
4, 48960, Note_on_c, 2, 62, 100
4, 48960, Note_on_c, 2, 67, 100
4, 49392, Note_on_c, 2, 62, 0
4, 49392, Note_on_c, 2, 67, 0
4, 49440, Note_on_c, 2, 62, 100
4, 49440, Note_on_c, 2, 67, 100
4, 49584, Note_on_c, 2, 62, 0
4, 49584, Note_on_c, 2, 67, 0
4, 49600, Note_on_c, 2, 62, 100
4, 49600, Note_on_c, 2, 67, 100
4, 49744, Note_on_c, 2, 62, 0
4, 49744, Note_on_c, 2, 67, 0
4, 49760, Note_on_c, 2, 62, 100
4, 49760, Note_on_c, 2, 67, 100
4, 49904, Note_on_c, 2, 62, 0
4, 49904, Note_on_c, 2, 67, 0
4, 49920, Note_on_c, 2, 62, 100
4, 49920, Note_on_c, 2, 67, 100
4, 51216, Note_on_c, 2, 62, 0
4, 51216, Note_on_c, 2, 67, 0
4, 51360, Note_on_c, 2, 60, 100
4, 51360, Note_on_c, 2, 65, 100
4, 51792, Note_on_c, 2, 60, 0
4, 51792, Note_on_c, 2, 65, 0
4, 51840, Note_on_c, 2, 67, 100
4, 51840, Note_on_c, 2, 62, 100
4, 52272, Note_on_c, 2, 67, 0
4, 52272, Note_on_c, 2, 62, 0
4, 52320, Note_on_c, 2, 67, 100
4, 52320, Note_on_c, 2, 62, 100
4, 52464, Note_on_c, 2, 67, 0
4, 52464, Note_on_c, 2, 62, 0
4, 52480, Note_on_c, 2, 62, 100
4, 52480, Note_on_c, 2, 67, 100
4, 52624, Note_on_c, 2, 62, 0
4, 52624, Note_on_c, 2, 67, 0
4, 52640, Note_on_c, 2, 62, 100
4, 52640, Note_on_c, 2, 67, 100
4, 52784, Note_on_c, 2, 62, 0
4, 52784, Note_on_c, 2, 67, 0
4, 52800, Note_on_c, 2, 62, 100
4, 52800, Note_on_c, 2, 67, 100
4, 53232, Note_on_c, 2, 62, 0
4, 53232, Note_on_c, 2, 67, 0
4, 53280, Note_on_c, 2, 62, 100
4, 53280, Note_on_c, 2, 67, 100
4, 53424, Note_on_c, 2, 62, 0
4, 53424, Note_on_c, 2, 67, 0
4, 53440, Note_on_c, 2, 62, 100
4, 53440, Note_on_c, 2, 67, 100
4, 53584, Note_on_c, 2, 62, 0
4, 53584, Note_on_c, 2, 67, 0
4, 53600, Note_on_c, 2, 62, 100
4, 53600, Note_on_c, 2, 67, 100
4, 53744, Note_on_c, 2, 62, 0
4, 53744, Note_on_c, 2, 67, 0
4, 53760, Note_on_c, 2, 62, 100
4, 53760, Note_on_c, 2, 67, 100
4, 55056, Note_on_c, 2, 62, 0
4, 55056, Note_on_c, 2, 67, 0
4, 55200, Note_on_c, 2, 60, 100
4, 55200, Note_on_c, 2, 65, 100
4, 55632, Note_on_c, 2, 60, 0
4, 55632, Note_on_c, 2, 65, 0
4, 55680, Note_on_c, 2, 67, 100
4, 55680, Note_on_c, 2, 62, 100
4, 56112, Note_on_c, 2, 67, 0
4, 56112, Note_on_c, 2, 62, 0
4, 56160, Note_on_c, 2, 67, 100
4, 56160, Note_on_c, 2, 62, 100
4, 56304, Note_on_c, 2, 67, 0
4, 56304, Note_on_c, 2, 62, 0
4, 56320, Note_on_c, 2, 62, 100
4, 56320, Note_on_c, 2, 67, 100
4, 56464, Note_on_c, 2, 62, 0
4, 56464, Note_on_c, 2, 67, 0
4, 56480, Note_on_c, 2, 62, 100
4, 56480, Note_on_c, 2, 67, 100
4, 56624, Note_on_c, 2, 62, 0
4, 56624, Note_on_c, 2, 67, 0
4, 56640, Note_on_c, 2, 62, 100
4, 56640, Note_on_c, 2, 67, 100
4, 57072, Note_on_c, 2, 62, 0
4, 57072, Note_on_c, 2, 67, 0
4, 57120, Note_on_c, 2, 62, 100
4, 57120, Note_on_c, 2, 67, 100
4, 57264, Note_on_c, 2, 62, 0
4, 57264, Note_on_c, 2, 67, 0
4, 57280, Note_on_c, 2, 62, 100
4, 57280, Note_on_c, 2, 67, 100
4, 57424, Note_on_c, 2, 62, 0
4, 57424, Note_on_c, 2, 67, 0
4, 57440, Note_on_c, 2, 62, 100
4, 57440, Note_on_c, 2, 67, 100
4, 57584, Note_on_c, 2, 62, 0
4, 57584, Note_on_c, 2, 67, 0
4, 57600, Note_on_c, 2, 62, 100
4, 57600, Note_on_c, 2, 67, 100
4, 58896, Note_on_c, 2, 62, 0
4, 58896, Note_on_c, 2, 67, 0
4, 59040, Note_on_c, 2, 60, 100
4, 59040, Note_on_c, 2, 65, 100
4, 59472, Note_on_c, 2, 60, 0
4, 59472, Note_on_c, 2, 65, 0
4, 59520, Note_on_c, 2, 62, 100
4, 59520, Note_on_c, 2, 67, 100
4, 61248, Note_on_c, 2, 62, 0
4, 61248, Note_on_c, 2, 67, 0
4, 67200, Note_on_c, 2, 55, 100
4, 67416, Note_on_c, 2, 55, 0
4, 67440, Note_on_c, 2, 62, 100
4, 67656, Note_on_c, 2, 62, 0
4, 67680, Note_on_c, 2, 60, 100
4, 67896, Note_on_c, 2, 60, 0
4, 67920, Note_on_c, 2, 58, 100
4, 68136, Note_on_c, 2, 58, 0
4, 68160, Note_on_c, 2, 65, 100
4, 68376, Note_on_c, 2, 65, 0
4, 68400, Note_on_c, 2, 64, 100
4, 68508, Note_on_c, 2, 64, 0
4, 68520, Note_on_c, 2, 62, 100
4, 68628, Note_on_c, 2, 62, 0
4, 68640, Note_on_c, 2, 60, 100
4, 68856, Note_on_c, 2, 60, 0
4, 68880, Note_on_c, 2, 62, 100
4, 69096, Note_on_c, 2, 62, 0
4, 69120, Note_on_c, 2, 58, 100
4, 69336, Note_on_c, 2, 58, 0
4, 69360, Note_on_c, 2, 57, 100
4, 69576, Note_on_c, 2, 57, 0
4, 69600, Note_on_c, 2, 58, 100
4, 69816, Note_on_c, 2, 58, 0
4, 69840, Note_on_c, 2, 55, 100
4, 70056, Note_on_c, 2, 55, 0
4, 70080, Note_on_c, 2, 53, 100
4, 70296, Note_on_c, 2, 53, 0
4, 70320, Note_on_c, 2, 55, 100
4, 70464, Note_on_c, 2, 55, 0
4, 70560, Note_on_c, 2, 55, 100
4, 70776, Note_on_c, 2, 55, 0
4, 71040, Note_on_c, 2, 62, 100
4, 71040, Note_on_c, 2, 55, 100
4, 71256, Note_on_c, 2, 62, 0
4, 71256, Note_on_c, 2, 55, 0
4, 71280, Note_on_c, 2, 69, 100
4, 71280, Note_on_c, 2, 62, 100
4, 71496, Note_on_c, 2, 69, 0
4, 71496, Note_on_c, 2, 62, 0
4, 71520, Note_on_c, 2, 67, 100
4, 71520, Note_on_c, 2, 60, 100
4, 71736, Note_on_c, 2, 67, 0
4, 71736, Note_on_c, 2, 60, 0
4, 71760, Note_on_c, 2, 65, 100
4, 71760, Note_on_c, 2, 58, 100
4, 71976, Note_on_c, 2, 65, 0
4, 71976, Note_on_c, 2, 58, 0
4, 72000, Note_on_c, 2, 72, 100
4, 72000, Note_on_c, 2, 65, 100
4, 72216, Note_on_c, 2, 72, 0
4, 72216, Note_on_c, 2, 65, 0
4, 72240, Note_on_c, 2, 71, 100
4, 72240, Note_on_c, 2, 64, 100
4, 72348, Note_on_c, 2, 71, 0
4, 72348, Note_on_c, 2, 64, 0
4, 72360, Note_on_c, 2, 69, 100
4, 72360, Note_on_c, 2, 62, 100
4, 72468, Note_on_c, 2, 69, 0
4, 72468, Note_on_c, 2, 62, 0
4, 72480, Note_on_c, 2, 67, 100
4, 72480, Note_on_c, 2, 60, 100
4, 72696, Note_on_c, 2, 67, 0
4, 72696, Note_on_c, 2, 60, 0
4, 72720, Note_on_c, 2, 69, 100
4, 72720, Note_on_c, 2, 62, 100
4, 72936, Note_on_c, 2, 69, 0
4, 72936, Note_on_c, 2, 62, 0
4, 72960, Note_on_c, 2, 65, 100
4, 72960, Note_on_c, 2, 58, 100
4, 73176, Note_on_c, 2, 65, 0
4, 73176, Note_on_c, 2, 58, 0
4, 73200, Note_on_c, 2, 64, 100
4, 73200, Note_on_c, 2, 57, 100
4, 73416, Note_on_c, 2, 64, 0
4, 73416, Note_on_c, 2, 57, 0
4, 73440, Note_on_c, 2, 65, 100
4, 73440, Note_on_c, 2, 58, 100
4, 73656, Note_on_c, 2, 65, 0
4, 73656, Note_on_c, 2, 58, 0
4, 73680, Note_on_c, 2, 62, 100
4, 73680, Note_on_c, 2, 55, 100
4, 73896, Note_on_c, 2, 62, 0
4, 73896, Note_on_c, 2, 55, 0
4, 73920, Note_on_c, 2, 60, 100
4, 73920, Note_on_c, 2, 53, 100
4, 74136, Note_on_c, 2, 60, 0
4, 74136, Note_on_c, 2, 53, 0
4, 74160, Note_on_c, 2, 62, 100
4, 74160, Note_on_c, 2, 55, 100
4, 74304, Note_on_c, 2, 62, 0
4, 74304, Note_on_c, 2, 55, 0
4, 74400, Note_on_c, 2, 62, 100
4, 74400, Note_on_c, 2, 55, 100
4, 74616, Note_on_c, 2, 62, 0
4, 74616, Note_on_c, 2, 55, 0
4, 74880, Note_on_c, 2, 55, 100
4, 74880, Note_on_c, 2, 62, 100
4, 75096, Note_on_c, 2, 55, 0
4, 75096, Note_on_c, 2, 62, 0
4, 75120, Note_on_c, 2, 62, 100
4, 75120, Note_on_c, 2, 69, 100
4, 75336, Note_on_c, 2, 62, 0
4, 75336, Note_on_c, 2, 69, 0
4, 75360, Note_on_c, 2, 60, 100
4, 75360, Note_on_c, 2, 67, 100
4, 75576, Note_on_c, 2, 60, 0
4, 75576, Note_on_c, 2, 67, 0
4, 75600, Note_on_c, 2, 58, 100
4, 75600, Note_on_c, 2, 65, 100
4, 75816, Note_on_c, 2, 58, 0
4, 75816, Note_on_c, 2, 65, 0
4, 75840, Note_on_c, 2, 65, 100
4, 75840, Note_on_c, 2, 72, 100
4, 76056, Note_on_c, 2, 65, 0
4, 76056, Note_on_c, 2, 72, 0
4, 76080, Note_on_c, 2, 64, 100
4, 76080, Note_on_c, 2, 71, 100
4, 76188, Note_on_c, 2, 64, 0
4, 76188, Note_on_c, 2, 71, 0
4, 76200, Note_on_c, 2, 62, 100
4, 76200, Note_on_c, 2, 69, 100
4, 76308, Note_on_c, 2, 62, 0
4, 76308, Note_on_c, 2, 69, 0
4, 76320, Note_on_c, 2, 60, 100
4, 76320, Note_on_c, 2, 67, 100
4, 76536, Note_on_c, 2, 60, 0
4, 76536, Note_on_c, 2, 67, 0
4, 76560, Note_on_c, 2, 62, 100
4, 76560, Note_on_c, 2, 69, 100
4, 76776, Note_on_c, 2, 62, 0
4, 76776, Note_on_c, 2, 69, 0
4, 76800, Note_on_c, 2, 58, 100
4, 76800, Note_on_c, 2, 65, 100
4, 77016, Note_on_c, 2, 58, 0
4, 77016, Note_on_c, 2, 65, 0
4, 77040, Note_on_c, 2, 60, 100
4, 77040, Note_on_c, 2, 67, 100
4, 77256, Note_on_c, 2, 60, 0
4, 77256, Note_on_c, 2, 67, 0
4, 77280, Note_on_c, 2, 57, 100
4, 77280, Note_on_c, 2, 64, 100
4, 77496, Note_on_c, 2, 57, 0
4, 77496, Note_on_c, 2, 64, 0
4, 77520, Note_on_c, 2, 58, 100
4, 77520, Note_on_c, 2, 65, 100
4, 77736, Note_on_c, 2, 58, 0
4, 77736, Note_on_c, 2, 65, 0
4, 77760, Note_on_c, 2, 55, 100
4, 77760, Note_on_c, 2, 62, 100
4, 77976, Note_on_c, 2, 55, 0
4, 77976, Note_on_c, 2, 62, 0
4, 78000, Note_on_c, 2, 58, 100
4, 78000, Note_on_c, 2, 65, 100
4, 78216, Note_on_c, 2, 58, 0
4, 78216, Note_on_c, 2, 65, 0
4, 78240, Note_on_c, 2, 57, 100
4, 78240, Note_on_c, 2, 64, 100
4, 78456, Note_on_c, 2, 57, 0
4, 78456, Note_on_c, 2, 64, 0
4, 78480, Note_on_c, 2, 55, 100
4, 78480, Note_on_c, 2, 62, 100
4, 78696, Note_on_c, 2, 55, 0
4, 78696, Note_on_c, 2, 62, 0
4, 78720, Note_on_c, 2, 60, 100
4, 78936, Note_on_c, 2, 60, 0
4, 78960, Note_on_c, 2, 62, 100
4, 79176, Note_on_c, 2, 62, 0
4, 79200, Note_on_c, 2, 62, 100
4, 80064, Note_on_c, 2, 62, 0
4, 80160, Note_on_c, 2, 69, 100
4, 80592, Note_on_c, 2, 69, 0
4, 80640, Note_on_c, 2, 62, 100
4, 81936, Note_on_c, 2, 62, 0
4, 82080, Note_on_c, 2, 69, 100
4, 82512, Note_on_c, 2, 69, 0
4, 82560, Note_on_c, 2, 62, 100
4, 84000, Note_on_c, 2, 67, 100
4, 84288, Note_on_c, 2, 62, 0
4, 84432, Note_on_c, 2, 67, 0
4, 84480, Note_on_c, 2, 67, 100
4, 84696, Note_on_c, 2, 67, 0
4, 84720, Note_on_c, 2, 65, 100
4, 84936, Note_on_c, 2, 65, 0
4, 84960, Note_on_c, 2, 67, 100
4, 85176, Note_on_c, 2, 67, 0
4, 85200, Note_on_c, 2, 69, 100
4, 85416, Note_on_c, 2, 69, 0
4, 85440, Note_on_c, 2, 70, 100
4, 86304, Note_on_c, 2, 70, 0
4, 86400, Note_on_c, 2, 62, 100
4, 87696, Note_on_c, 2, 62, 0
4, 87840, Note_on_c, 2, 69, 100
4, 88272, Note_on_c, 2, 69, 0
4, 88320, Note_on_c, 2, 62, 100
4, 89616, Note_on_c, 2, 62, 0
4, 89760, Note_on_c, 2, 69, 100
4, 90192, Note_on_c, 2, 69, 0
4, 90240, Note_on_c, 2, 62, 100
4, 91968, Note_on_c, 2, 62, 0
4, 94080, Note_on_c, 2, 62, 100
4, 94080, Note_on_c, 2, 67, 100
4, 94512, Note_on_c, 2, 62, 0
4, 94512, Note_on_c, 2, 67, 0
4, 94560, Note_on_c, 2, 62, 100
4, 94560, Note_on_c, 2, 67, 100
4, 94644, Note_on_c, 2, 62, 0
4, 94644, Note_on_c, 2, 67, 0
4, 94680, Note_on_c, 2, 62, 100
4, 94680, Note_on_c, 2, 67, 100
4, 94848, Note_on_c, 2, 62, 0
4, 94848, Note_on_c, 2, 67, 0
4, 94880, Note_on_c, 2, 62, 100
4, 94880, Note_on_c, 2, 67, 100
4, 94964, Note_on_c, 2, 62, 0
4, 94964, Note_on_c, 2, 67, 0
4, 95040, Note_on_c, 2, 62, 100
4, 95040, Note_on_c, 2, 67, 100
4, 95472, Note_on_c, 2, 62, 0
4, 95472, Note_on_c, 2, 67, 0
4, 95520, Note_on_c, 2, 60, 100
4, 95520, Note_on_c, 2, 65, 100
4, 95952, Note_on_c, 2, 60, 0
4, 95952, Note_on_c, 2, 65, 0
4, 96000, Note_on_c, 2, 62, 100
4, 96000, Note_on_c, 2, 67, 100
4, 97296, Note_on_c, 2, 62, 0
4, 97296, Note_on_c, 2, 67, 0
4, 97440, Note_on_c, 2, 60, 100
4, 97440, Note_on_c, 2, 65, 100
4, 97872, Note_on_c, 2, 60, 0
4, 97872, Note_on_c, 2, 65, 0
4, 97920, Note_on_c, 2, 62, 100
4, 97920, Note_on_c, 2, 67, 100
4, 99648, Note_on_c, 2, 62, 0
4, 99648, Note_on_c, 2, 67, 0
4, 99840, Note_on_c, 2, 65, 100
4, 99840, Control_c, 2, 10, 109
4, 99870, Control_c, 2, 10, 109
4, 99900, Control_c, 2, 10, 108
4, 99930, Control_c, 2, 10, 108
4, 99948, Note_on_c, 2, 65, 0
4, 99960, Note_on_c, 2, 64, 100
4, 99960, Control_c, 2, 10, 107
4, 99990, Control_c, 2, 10, 106
4, 100020, Control_c, 2, 10, 106
4, 100050, Control_c, 2, 10, 105
4, 100068, Note_on_c, 2, 64, 0
4, 100080, Note_on_c, 2, 62, 100
4, 100080, Control_c, 2, 10, 104
4, 100110, Control_c, 2, 10, 104
4, 100140, Control_c, 2, 10, 103
4, 100170, Control_c, 2, 10, 102
4, 100188, Note_on_c, 2, 62, 0
4, 100200, Note_on_c, 2, 60, 100
4, 100200, Control_c, 2, 10, 102
4, 100230, Control_c, 2, 10, 101
4, 100260, Control_c, 2, 10, 100
4, 100290, Control_c, 2, 10, 100
4, 100308, Note_on_c, 2, 60, 0
4, 100320, Note_on_c, 2, 58, 100
4, 100320, Control_c, 2, 10, 99
4, 100350, Control_c, 2, 10, 98
4, 100380, Control_c, 2, 10, 98
4, 100410, Control_c, 2, 10, 97
4, 100428, Note_on_c, 2, 58, 0
4, 100440, Note_on_c, 2, 60, 100
4, 100440, Control_c, 2, 10, 96
4, 100470, Control_c, 2, 10, 96
4, 100500, Control_c, 2, 10, 95
4, 100530, Control_c, 2, 10, 94
4, 100548, Note_on_c, 2, 60, 0
4, 100560, Note_on_c, 2, 58, 100
4, 100560, Control_c, 2, 10, 94
4, 100590, Control_c, 2, 10, 93
4, 100620, Control_c, 2, 10, 92
4, 100650, Control_c, 2, 10, 92
4, 100668, Note_on_c, 2, 58, 0
4, 100680, Note_on_c, 2, 57, 100
4, 100680, Control_c, 2, 10, 91
4, 100710, Control_c, 2, 10, 90
4, 100740, Control_c, 2, 10, 90
4, 100770, Control_c, 2, 10, 89
4, 100788, Note_on_c, 2, 57, 0
4, 100800, Note_on_c, 2, 58, 100
4, 100800, Control_c, 2, 10, 89
4, 100830, Control_c, 2, 10, 88
4, 100860, Control_c, 2, 10, 87
4, 100890, Control_c, 2, 10, 87
4, 100908, Note_on_c, 2, 58, 0
4, 100920, Note_on_c, 2, 60, 100
4, 100920, Control_c, 2, 10, 86
4, 100950, Control_c, 2, 10, 85
4, 100980, Control_c, 2, 10, 85
4, 101010, Control_c, 2, 10, 84
4, 101028, Note_on_c, 2, 60, 0
4, 101040, Note_on_c, 2, 58, 100
4, 101040, Control_c, 2, 10, 83
4, 101070, Control_c, 2, 10, 83
4, 101100, Control_c, 2, 10, 82
4, 101130, Control_c, 2, 10, 81
4, 101148, Note_on_c, 2, 58, 0
4, 101160, Note_on_c, 2, 57, 100
4, 101160, Control_c, 2, 10, 81
4, 101190, Control_c, 2, 10, 80
4, 101220, Control_c, 2, 10, 79
4, 101250, Control_c, 2, 10, 79
4, 101268, Note_on_c, 2, 57, 0
4, 101280, Note_on_c, 2, 55, 100
4, 101280, Control_c, 2, 10, 78
4, 101310, Control_c, 2, 10, 77
4, 101340, Control_c, 2, 10, 77
4, 101370, Control_c, 2, 10, 76
4, 101388, Note_on_c, 2, 55, 0
4, 101400, Note_on_c, 2, 57, 100
4, 101400, Control_c, 2, 10, 75
4, 101430, Control_c, 2, 10, 75
4, 101460, Control_c, 2, 10, 74
4, 101490, Control_c, 2, 10, 73
4, 101508, Note_on_c, 2, 57, 0
4, 101520, Note_on_c, 2, 55, 100
4, 101520, Control_c, 2, 10, 73
4, 101550, Control_c, 2, 10, 72
4, 101580, Control_c, 2, 10, 71
4, 101610, Control_c, 2, 10, 71
4, 101628, Note_on_c, 2, 55, 0
4, 101640, Note_on_c, 2, 53, 100
4, 101640, Control_c, 2, 10, 70
4, 101670, Control_c, 2, 10, 69
4, 101700, Control_c, 2, 10, 69
4, 101730, Control_c, 2, 10, 68
4, 101748, Note_on_c, 2, 53, 0
4, 101760, Note_on_c, 2, 62, 100
4, 101760, Note_on_c, 2, 67, 100
4, 101760, Control_c, 2, 10, 110
4, 101790, Control_c, 2, 10, 110
4, 101820, Control_c, 2, 10, 110
4, 101850, Control_c, 2, 10, 110
4, 101880, Control_c, 2, 10, 110
4, 102192, Note_on_c, 2, 62, 0
4, 102192, Note_on_c, 2, 67, 0
4, 102240, Note_on_c, 2, 62, 100
4, 102240, Note_on_c, 2, 67, 100
4, 102384, Note_on_c, 2, 62, 0
4, 102384, Note_on_c, 2, 67, 0
4, 102400, Note_on_c, 2, 62, 100
4, 102400, Note_on_c, 2, 67, 100
4, 102544, Note_on_c, 2, 62, 0
4, 102544, Note_on_c, 2, 67, 0
4, 102560, Note_on_c, 2, 62, 100
4, 102560, Note_on_c, 2, 67, 100
4, 102704, Note_on_c, 2, 62, 0
4, 102704, Note_on_c, 2, 67, 0
4, 102720, Note_on_c, 2, 62, 100
4, 102720, Note_on_c, 2, 67, 100
4, 103152, Note_on_c, 2, 62, 0
4, 103152, Note_on_c, 2, 67, 0
4, 103200, Note_on_c, 2, 60, 100
4, 103200, Note_on_c, 2, 65, 100
4, 103632, Note_on_c, 2, 60, 0
4, 103632, Note_on_c, 2, 65, 0
4, 103680, Note_on_c, 2, 62, 100
4, 103680, Note_on_c, 2, 67, 100
4, 104976, Note_on_c, 2, 62, 0
4, 104976, Note_on_c, 2, 67, 0
4, 105120, Note_on_c, 2, 60, 100
4, 105120, Note_on_c, 2, 65, 100
4, 105552, Note_on_c, 2, 60, 0
4, 105552, Note_on_c, 2, 65, 0
4, 105600, Note_on_c, 2, 62, 100
4, 105600, Note_on_c, 2, 67, 100
4, 106032, Note_on_c, 2, 62, 0
4, 106032, Note_on_c, 2, 67, 0
4, 106080, Note_on_c, 2, 62, 100
4, 106080, Note_on_c, 2, 67, 100
4, 106224, Note_on_c, 2, 62, 0
4, 106224, Note_on_c, 2, 67, 0
4, 106240, Note_on_c, 2, 62, 100
4, 106240, Note_on_c, 2, 67, 100
4, 106384, Note_on_c, 2, 62, 0
4, 106384, Note_on_c, 2, 67, 0
4, 106400, Note_on_c, 2, 62, 100
4, 106400, Note_on_c, 2, 67, 100
4, 106544, Note_on_c, 2, 62, 0
4, 106544, Note_on_c, 2, 67, 0
4, 106560, Note_on_c, 2, 62, 100
4, 106560, Note_on_c, 2, 67, 100
4, 106992, Note_on_c, 2, 62, 0
4, 106992, Note_on_c, 2, 67, 0
4, 107040, Note_on_c, 2, 62, 100
4, 107040, Note_on_c, 2, 67, 100
4, 107184, Note_on_c, 2, 62, 0
4, 107184, Note_on_c, 2, 67, 0
4, 107200, Note_on_c, 2, 62, 100
4, 107200, Note_on_c, 2, 67, 100
4, 107344, Note_on_c, 2, 62, 0
4, 107344, Note_on_c, 2, 67, 0
4, 107360, Note_on_c, 2, 62, 100
4, 107360, Note_on_c, 2, 67, 100
4, 107504, Note_on_c, 2, 62, 0
4, 107504, Note_on_c, 2, 67, 0
4, 107520, Note_on_c, 2, 62, 100
4, 107520, Note_on_c, 2, 67, 100
4, 108816, Note_on_c, 2, 62, 0
4, 108816, Note_on_c, 2, 67, 0
4, 108960, Note_on_c, 2, 60, 100
4, 108960, Note_on_c, 2, 65, 100
4, 109392, Note_on_c, 2, 60, 0
4, 109392, Note_on_c, 2, 65, 0
4, 109440, Note_on_c, 2, 67, 100
4, 109440, Note_on_c, 2, 62, 100
4, 109872, Note_on_c, 2, 67, 0
4, 109872, Note_on_c, 2, 62, 0
4, 109920, Note_on_c, 2, 67, 100
4, 109920, Note_on_c, 2, 62, 100
4, 110064, Note_on_c, 2, 67, 0
4, 110064, Note_on_c, 2, 62, 0
4, 110080, Note_on_c, 2, 62, 100
4, 110080, Note_on_c, 2, 67, 100
4, 110224, Note_on_c, 2, 62, 0
4, 110224, Note_on_c, 2, 67, 0
4, 110240, Note_on_c, 2, 62, 100
4, 110240, Note_on_c, 2, 67, 100
4, 110384, Note_on_c, 2, 62, 0
4, 110384, Note_on_c, 2, 67, 0
4, 110400, Note_on_c, 2, 62, 100
4, 110400, Note_on_c, 2, 67, 100
4, 110832, Note_on_c, 2, 62, 0
4, 110832, Note_on_c, 2, 67, 0
4, 110880, Note_on_c, 2, 62, 100
4, 110880, Note_on_c, 2, 67, 100
4, 111024, Note_on_c, 2, 62, 0
4, 111024, Note_on_c, 2, 67, 0
4, 111040, Note_on_c, 2, 62, 100
4, 111040, Note_on_c, 2, 67, 100
4, 111184, Note_on_c, 2, 62, 0
4, 111184, Note_on_c, 2, 67, 0
4, 111200, Note_on_c, 2, 62, 100
4, 111200, Note_on_c, 2, 67, 100
4, 111344, Note_on_c, 2, 62, 0
4, 111344, Note_on_c, 2, 67, 0
4, 111360, Note_on_c, 2, 62, 100
4, 111360, Note_on_c, 2, 67, 100
4, 112656, Note_on_c, 2, 62, 0
4, 112656, Note_on_c, 2, 67, 0
4, 112800, Note_on_c, 2, 60, 100
4, 112800, Note_on_c, 2, 65, 100
4, 113232, Note_on_c, 2, 60, 0
4, 113232, Note_on_c, 2, 65, 0
4, 113280, Note_on_c, 2, 67, 100
4, 113280, Note_on_c, 2, 62, 100
4, 113712, Note_on_c, 2, 67, 0
4, 113712, Note_on_c, 2, 62, 0
4, 113760, Note_on_c, 2, 67, 100
4, 113760, Note_on_c, 2, 62, 100
4, 113904, Note_on_c, 2, 67, 0
4, 113904, Note_on_c, 2, 62, 0
4, 113920, Note_on_c, 2, 62, 100
4, 113920, Note_on_c, 2, 67, 100
4, 114064, Note_on_c, 2, 62, 0
4, 114064, Note_on_c, 2, 67, 0
4, 114080, Note_on_c, 2, 62, 100
4, 114080, Note_on_c, 2, 67, 100
4, 114224, Note_on_c, 2, 62, 0
4, 114224, Note_on_c, 2, 67, 0
4, 114240, Note_on_c, 2, 62, 100
4, 114240, Note_on_c, 2, 67, 100
4, 114672, Note_on_c, 2, 62, 0
4, 114672, Note_on_c, 2, 67, 0
4, 114720, Note_on_c, 2, 62, 100
4, 114720, Note_on_c, 2, 67, 100
4, 114864, Note_on_c, 2, 62, 0
4, 114864, Note_on_c, 2, 67, 0
4, 114880, Note_on_c, 2, 62, 100
4, 114880, Note_on_c, 2, 67, 100
4, 115024, Note_on_c, 2, 62, 0
4, 115024, Note_on_c, 2, 67, 0
4, 115040, Note_on_c, 2, 62, 100
4, 115040, Note_on_c, 2, 67, 100
4, 115184, Note_on_c, 2, 62, 0
4, 115184, Note_on_c, 2, 67, 0
4, 115200, Note_on_c, 2, 62, 100
4, 115200, Note_on_c, 2, 67, 100
4, 116496, Note_on_c, 2, 62, 0
4, 116496, Note_on_c, 2, 67, 0
4, 116640, Note_on_c, 2, 60, 100
4, 116640, Note_on_c, 2, 65, 100
4, 117072, Note_on_c, 2, 60, 0
4, 117072, Note_on_c, 2, 65, 0
4, 117120, Note_on_c, 2, 62, 100
4, 117120, Note_on_c, 2, 67, 100
4, 118848, Note_on_c, 2, 62, 0
4, 118848, Note_on_c, 2, 67, 0
4, 118848, End_track
5, 0, Start_track
5, 0, Title_t, "Synth Bass 1"
5, 0, MIDI_port, 0
5, 0, Control_c, 3, 11, 99
5, 0, Control_c, 3, 10, 20
5, 30, Control_c, 3, 11, 99
5, 30, Control_c, 3, 10, 20
5, 60, Control_c, 3, 11, 99
5, 60, Control_c, 3, 10, 20
5, 90, Control_c, 3, 11, 100
5, 90, Control_c, 3, 10, 20
5, 120, Control_c, 3, 11, 100
5, 120, Control_c, 3, 10, 20
5, 150, Control_c, 3, 11, 101
5, 150, Control_c, 3, 10, 20
5, 180, Control_c, 3, 11, 101
5, 180, Control_c, 3, 10, 20
5, 210, Control_c, 3, 11, 102
5, 210, Control_c, 3, 10, 20
5, 240, Control_c, 3, 11, 102
5, 240, Control_c, 3, 10, 20
5, 270, Control_c, 3, 11, 103
5, 270, Control_c, 3, 10, 20
5, 300, Control_c, 3, 11, 103
5, 300, Control_c, 3, 10, 20
5, 330, Control_c, 3, 11, 103
5, 330, Control_c, 3, 10, 20
5, 360, Control_c, 3, 11, 104
5, 360, Control_c, 3, 10, 20
5, 390, Control_c, 3, 11, 104
5, 390, Control_c, 3, 10, 20
5, 420, Control_c, 3, 11, 105
5, 420, Control_c, 3, 10, 20
5, 450, Control_c, 3, 11, 105
5, 450, Control_c, 3, 10, 20
5, 480, Control_c, 3, 11, 106
5, 510, Control_c, 3, 11, 106
5, 540, Control_c, 3, 11, 107
5, 570, Control_c, 3, 11, 107
5, 600, Control_c, 3, 11, 108
5, 630, Control_c, 3, 11, 108
5, 660, Control_c, 3, 11, 108
5, 690, Control_c, 3, 11, 109
5, 720, Control_c, 3, 11, 109
5, 750, Control_c, 3, 11, 110
5, 780, Control_c, 3, 11, 110
5, 810, Control_c, 3, 11, 111
5, 840, Control_c, 3, 11, 111
5, 870, Control_c, 3, 11, 112
5, 900, Control_c, 3, 11, 112
5, 930, Control_c, 3, 11, 113
5, 960, Control_c, 3, 11, 113
5, 990, Control_c, 3, 11, 113
5, 1020, Control_c, 3, 11, 114
5, 1050, Control_c, 3, 11, 114
5, 1080, Control_c, 3, 11, 115
5, 1110, Control_c, 3, 11, 115
5, 1140, Control_c, 3, 11, 116
5, 1170, Control_c, 3, 11, 116
5, 1200, Control_c, 3, 11, 117
5, 1230, Control_c, 3, 11, 117
5, 1260, Control_c, 3, 11, 118
5, 1290, Control_c, 3, 11, 118
5, 1320, Control_c, 3, 11, 118
5, 1350, Control_c, 3, 11, 119
5, 1380, Control_c, 3, 11, 119
5, 1410, Control_c, 3, 11, 120
5, 1440, Control_c, 3, 11, 120
5, 1470, Control_c, 3, 11, 121
5, 1500, Control_c, 3, 11, 121
5, 1530, Control_c, 3, 11, 122
5, 1560, Control_c, 3, 11, 122
5, 1590, Control_c, 3, 11, 123
5, 1620, Control_c, 3, 11, 123
5, 1650, Control_c, 3, 11, 123
5, 1680, Control_c, 3, 11, 124
5, 1710, Control_c, 3, 11, 124
5, 1740, Control_c, 3, 11, 125
5, 1770, Control_c, 3, 11, 125
5, 1800, Control_c, 3, 11, 126
5, 1830, Control_c, 3, 11, 126
5, 1860, Control_c, 3, 11, 127
5, 1890, Control_c, 3, 11, 127
5, 1920, Control_c, 3, 0, 0
5, 1920, Control_c, 3, 32, 0
5, 1920, Program_c, 3, 38
5, 1920, Note_on_c, 3, 31, 100
5, 2136, Note_on_c, 3, 31, 0
5, 2160, Note_on_c, 3, 43, 100
5, 2376, Note_on_c, 3, 43, 0
5, 2400, Note_on_c, 3, 31, 100
5, 2616, Note_on_c, 3, 31, 0
5, 2640, Note_on_c, 3, 43, 100
5, 2856, Note_on_c, 3, 43, 0
5, 2880, Note_on_c, 3, 31, 100
5, 3096, Note_on_c, 3, 31, 0
5, 3120, Note_on_c, 3, 43, 100
5, 3336, Note_on_c, 3, 43, 0
5, 3360, Note_on_c, 3, 31, 100
5, 3576, Note_on_c, 3, 31, 0
5, 3600, Note_on_c, 3, 43, 100
5, 3816, Note_on_c, 3, 43, 0
5, 3840, Note_on_c, 3, 31, 100
5, 4056, Note_on_c, 3, 31, 0
5, 4080, Note_on_c, 3, 43, 100
5, 4296, Note_on_c, 3, 43, 0
5, 4320, Note_on_c, 3, 31, 100
5, 4536, Note_on_c, 3, 31, 0
5, 4560, Note_on_c, 3, 43, 100
5, 4776, Note_on_c, 3, 43, 0
5, 4800, Note_on_c, 3, 31, 100
5, 5016, Note_on_c, 3, 31, 0
5, 5040, Note_on_c, 3, 43, 100
5, 5256, Note_on_c, 3, 43, 0
5, 5280, Note_on_c, 3, 31, 100
5, 5496, Note_on_c, 3, 31, 0
5, 5520, Note_on_c, 3, 43, 100
5, 5736, Note_on_c, 3, 43, 0
5, 5760, Note_on_c, 3, 31, 100
5, 5976, Note_on_c, 3, 31, 0
5, 6000, Note_on_c, 3, 43, 100
5, 6216, Note_on_c, 3, 43, 0
5, 6240, Note_on_c, 3, 31, 100
5, 6456, Note_on_c, 3, 31, 0
5, 6480, Note_on_c, 3, 43, 100
5, 6696, Note_on_c, 3, 43, 0
5, 6720, Note_on_c, 3, 31, 100
5, 6936, Note_on_c, 3, 31, 0
5, 6960, Note_on_c, 3, 43, 100
5, 7176, Note_on_c, 3, 43, 0
5, 7200, Note_on_c, 3, 31, 100
5, 7416, Note_on_c, 3, 31, 0
5, 7440, Note_on_c, 3, 43, 100
5, 7656, Note_on_c, 3, 43, 0
5, 7680, Note_on_c, 3, 31, 100
5, 7896, Note_on_c, 3, 31, 0
5, 7920, Note_on_c, 3, 43, 100
5, 8136, Note_on_c, 3, 43, 0
5, 8160, Note_on_c, 3, 31, 100
5, 8376, Note_on_c, 3, 31, 0
5, 8400, Note_on_c, 3, 43, 100
5, 8616, Note_on_c, 3, 43, 0
5, 8640, Note_on_c, 3, 31, 100
5, 8856, Note_on_c, 3, 31, 0
5, 8880, Note_on_c, 3, 43, 100
5, 9096, Note_on_c, 3, 43, 0
5, 9120, Note_on_c, 3, 31, 100
5, 9336, Note_on_c, 3, 31, 0
5, 9360, Note_on_c, 3, 43, 100
5, 9576, Note_on_c, 3, 43, 0
5, 9600, Note_on_c, 3, 31, 100
5, 9816, Note_on_c, 3, 31, 0
5, 9840, Note_on_c, 3, 43, 100
5, 10056, Note_on_c, 3, 43, 0
5, 10080, Note_on_c, 3, 31, 100
5, 10296, Note_on_c, 3, 31, 0
5, 10320, Note_on_c, 3, 43, 100
5, 10536, Note_on_c, 3, 43, 0
5, 10560, Note_on_c, 3, 31, 100
5, 10776, Note_on_c, 3, 31, 0
5, 10800, Note_on_c, 3, 43, 100
5, 11016, Note_on_c, 3, 43, 0
5, 11040, Note_on_c, 3, 31, 100
5, 11256, Note_on_c, 3, 31, 0
5, 11280, Note_on_c, 3, 43, 100
5, 11496, Note_on_c, 3, 43, 0
5, 11520, Note_on_c, 3, 31, 100
5, 11736, Note_on_c, 3, 31, 0
5, 11760, Note_on_c, 3, 43, 100
5, 11976, Note_on_c, 3, 43, 0
5, 12000, Note_on_c, 3, 31, 100
5, 12216, Note_on_c, 3, 31, 0
5, 12240, Note_on_c, 3, 43, 100
5, 12456, Note_on_c, 3, 43, 0
5, 12480, Note_on_c, 3, 31, 100
5, 12696, Note_on_c, 3, 31, 0
5, 12720, Note_on_c, 3, 43, 100
5, 12936, Note_on_c, 3, 43, 0
5, 12960, Note_on_c, 3, 31, 100
5, 13176, Note_on_c, 3, 31, 0
5, 13200, Note_on_c, 3, 43, 100
5, 13416, Note_on_c, 3, 43, 0
5, 13440, Note_on_c, 3, 31, 100
5, 13656, Note_on_c, 3, 31, 0
5, 13680, Note_on_c, 3, 43, 100
5, 13896, Note_on_c, 3, 43, 0
5, 13920, Note_on_c, 3, 31, 100
5, 14136, Note_on_c, 3, 31, 0
5, 14160, Note_on_c, 3, 43, 100
5, 14376, Note_on_c, 3, 43, 0
5, 14400, Note_on_c, 3, 31, 100
5, 14616, Note_on_c, 3, 31, 0
5, 14640, Note_on_c, 3, 43, 100
5, 14856, Note_on_c, 3, 43, 0
5, 14880, Note_on_c, 3, 31, 100
5, 15096, Note_on_c, 3, 31, 0
5, 15120, Note_on_c, 3, 43, 100
5, 15336, Note_on_c, 3, 43, 0
5, 15360, Note_on_c, 3, 31, 100
5, 15576, Note_on_c, 3, 31, 0
5, 15600, Note_on_c, 3, 43, 100
5, 15816, Note_on_c, 3, 43, 0
5, 15840, Note_on_c, 3, 31, 100
5, 16056, Note_on_c, 3, 31, 0
5, 16080, Note_on_c, 3, 43, 100
5, 16296, Note_on_c, 3, 43, 0
5, 16320, Note_on_c, 3, 31, 100
5, 16536, Note_on_c, 3, 31, 0
5, 16560, Note_on_c, 3, 43, 100
5, 16776, Note_on_c, 3, 43, 0
5, 16800, Note_on_c, 3, 31, 100
5, 17016, Note_on_c, 3, 31, 0
5, 17040, Note_on_c, 3, 43, 100
5, 17256, Note_on_c, 3, 43, 0
5, 17280, Note_on_c, 3, 31, 100
5, 17496, Note_on_c, 3, 31, 0
5, 17520, Note_on_c, 3, 43, 100
5, 17736, Note_on_c, 3, 43, 0
5, 17760, Note_on_c, 3, 31, 100
5, 17976, Note_on_c, 3, 31, 0
5, 18000, Note_on_c, 3, 43, 100
5, 18216, Note_on_c, 3, 43, 0
5, 18240, Note_on_c, 3, 31, 100
5, 18456, Note_on_c, 3, 31, 0
5, 18480, Note_on_c, 3, 43, 100
5, 18696, Note_on_c, 3, 43, 0
5, 18720, Note_on_c, 3, 31, 100
5, 18936, Note_on_c, 3, 31, 0
5, 18960, Note_on_c, 3, 43, 100
5, 19176, Note_on_c, 3, 43, 0
5, 19200, Note_on_c, 3, 31, 100
5, 19416, Note_on_c, 3, 31, 0
5, 19440, Note_on_c, 3, 43, 100
5, 19656, Note_on_c, 3, 43, 0
5, 19680, Note_on_c, 3, 31, 100
5, 19896, Note_on_c, 3, 31, 0
5, 19920, Note_on_c, 3, 43, 100
5, 20136, Note_on_c, 3, 43, 0
5, 20160, Note_on_c, 3, 31, 100
5, 20376, Note_on_c, 3, 31, 0
5, 20400, Note_on_c, 3, 43, 100
5, 20616, Note_on_c, 3, 43, 0
5, 20640, Note_on_c, 3, 31, 100
5, 20856, Note_on_c, 3, 31, 0
5, 20880, Note_on_c, 3, 43, 100
5, 21096, Note_on_c, 3, 43, 0
5, 21120, Note_on_c, 3, 27, 100
5, 21336, Note_on_c, 3, 27, 0
5, 21360, Note_on_c, 3, 39, 100
5, 21576, Note_on_c, 3, 39, 0
5, 21600, Note_on_c, 3, 27, 100
5, 21816, Note_on_c, 3, 27, 0
5, 21840, Note_on_c, 3, 39, 100
5, 22056, Note_on_c, 3, 39, 0
5, 22080, Note_on_c, 3, 27, 100
5, 22296, Note_on_c, 3, 27, 0
5, 22320, Note_on_c, 3, 39, 100
5, 22536, Note_on_c, 3, 39, 0
5, 22560, Note_on_c, 3, 27, 100
5, 22776, Note_on_c, 3, 27, 0
5, 22800, Note_on_c, 3, 39, 100
5, 23016, Note_on_c, 3, 39, 0
5, 23040, Note_on_c, 3, 29, 100
5, 23256, Note_on_c, 3, 29, 0
5, 23280, Note_on_c, 3, 41, 100
5, 23496, Note_on_c, 3, 41, 0
5, 23520, Note_on_c, 3, 29, 100
5, 23736, Note_on_c, 3, 29, 0
5, 23760, Note_on_c, 3, 41, 100
5, 23976, Note_on_c, 3, 41, 0
5, 24000, Note_on_c, 3, 29, 100
5, 24216, Note_on_c, 3, 29, 0
5, 24240, Note_on_c, 3, 41, 100
5, 24456, Note_on_c, 3, 41, 0
5, 24480, Note_on_c, 3, 29, 100
5, 24696, Note_on_c, 3, 29, 0
5, 24720, Note_on_c, 3, 41, 100
5, 24936, Note_on_c, 3, 41, 0
5, 24960, Note_on_c, 3, 31, 100
5, 25176, Note_on_c, 3, 31, 0
5, 25200, Note_on_c, 3, 43, 100
5, 25416, Note_on_c, 3, 43, 0
5, 25440, Note_on_c, 3, 31, 100
5, 25656, Note_on_c, 3, 31, 0
5, 25680, Note_on_c, 3, 43, 100
5, 25896, Note_on_c, 3, 43, 0
5, 25920, Note_on_c, 3, 31, 100
5, 26136, Note_on_c, 3, 31, 0
5, 26160, Note_on_c, 3, 43, 100
5, 26376, Note_on_c, 3, 43, 0
5, 26400, Note_on_c, 3, 31, 100
5, 26616, Note_on_c, 3, 31, 0
5, 26640, Note_on_c, 3, 43, 100
5, 26856, Note_on_c, 3, 43, 0
5, 26880, Note_on_c, 3, 31, 100
5, 27096, Note_on_c, 3, 31, 0
5, 27120, Note_on_c, 3, 43, 100
5, 27336, Note_on_c, 3, 43, 0
5, 27360, Note_on_c, 3, 31, 100
5, 27576, Note_on_c, 3, 31, 0
5, 27600, Note_on_c, 3, 43, 100
5, 27816, Note_on_c, 3, 43, 0
5, 27840, Note_on_c, 3, 34, 100
5, 28056, Note_on_c, 3, 34, 0
5, 28080, Note_on_c, 3, 46, 100
5, 28296, Note_on_c, 3, 46, 0
5, 28320, Note_on_c, 3, 34, 100
5, 28536, Note_on_c, 3, 34, 0
5, 28560, Note_on_c, 3, 46, 100
5, 28776, Note_on_c, 3, 46, 0
5, 28800, Note_on_c, 3, 27, 100
5, 29016, Note_on_c, 3, 27, 0
5, 29040, Note_on_c, 3, 39, 100
5, 29256, Note_on_c, 3, 39, 0
5, 29280, Note_on_c, 3, 27, 100
5, 29496, Note_on_c, 3, 27, 0
5, 29520, Note_on_c, 3, 39, 100
5, 29736, Note_on_c, 3, 39, 0
5, 29760, Note_on_c, 3, 27, 100
5, 29976, Note_on_c, 3, 27, 0
5, 30000, Note_on_c, 3, 39, 100
5, 30216, Note_on_c, 3, 39, 0
5, 30240, Note_on_c, 3, 27, 100
5, 30456, Note_on_c, 3, 27, 0
5, 30480, Note_on_c, 3, 39, 100
5, 30696, Note_on_c, 3, 39, 0
5, 30720, Note_on_c, 3, 29, 100
5, 30936, Note_on_c, 3, 29, 0
5, 30960, Note_on_c, 3, 41, 100
5, 31176, Note_on_c, 3, 41, 0
5, 31200, Note_on_c, 3, 29, 100
5, 31416, Note_on_c, 3, 29, 0
5, 31440, Note_on_c, 3, 41, 100
5, 31656, Note_on_c, 3, 41, 0
5, 31680, Note_on_c, 3, 29, 100
5, 31896, Note_on_c, 3, 29, 0
5, 31920, Note_on_c, 3, 41, 100
5, 32136, Note_on_c, 3, 41, 0
5, 32160, Note_on_c, 3, 29, 100
5, 32376, Note_on_c, 3, 29, 0
5, 32400, Note_on_c, 3, 41, 100
5, 32616, Note_on_c, 3, 41, 0
5, 32640, Note_on_c, 3, 31, 100
5, 32856, Note_on_c, 3, 31, 0
5, 32880, Note_on_c, 3, 43, 100
5, 33096, Note_on_c, 3, 43, 0
5, 33120, Note_on_c, 3, 31, 100
5, 33336, Note_on_c, 3, 31, 0
5, 33360, Note_on_c, 3, 43, 100
5, 33576, Note_on_c, 3, 43, 0
5, 33600, Note_on_c, 3, 31, 100
5, 33816, Note_on_c, 3, 31, 0
5, 33840, Note_on_c, 3, 43, 100
5, 34056, Note_on_c, 3, 43, 0
5, 34080, Note_on_c, 3, 31, 100
5, 34296, Note_on_c, 3, 31, 0
5, 34320, Note_on_c, 3, 43, 100
5, 34536, Note_on_c, 3, 43, 0
5, 34560, Note_on_c, 3, 31, 100
5, 34776, Note_on_c, 3, 31, 0
5, 34800, Note_on_c, 3, 43, 100
5, 35016, Note_on_c, 3, 43, 0
5, 35040, Note_on_c, 3, 31, 100
5, 35256, Note_on_c, 3, 31, 0
5, 35280, Note_on_c, 3, 43, 100
5, 35496, Note_on_c, 3, 43, 0
5, 35520, Note_on_c, 3, 31, 100
5, 35736, Note_on_c, 3, 31, 0
5, 35760, Note_on_c, 3, 43, 100
5, 35976, Note_on_c, 3, 43, 0
5, 36000, Note_on_c, 3, 31, 100
5, 36216, Note_on_c, 3, 31, 0
5, 36240, Note_on_c, 3, 43, 100
5, 36456, Note_on_c, 3, 43, 0
5, 36480, Note_on_c, 3, 27, 100
5, 36696, Note_on_c, 3, 27, 0
5, 36720, Note_on_c, 3, 39, 100
5, 36936, Note_on_c, 3, 39, 0
5, 36960, Note_on_c, 3, 27, 100
5, 37176, Note_on_c, 3, 27, 0
5, 37200, Note_on_c, 3, 39, 100
5, 37416, Note_on_c, 3, 39, 0
5, 37440, Note_on_c, 3, 27, 100
5, 37656, Note_on_c, 3, 27, 0
5, 37680, Note_on_c, 3, 39, 100
5, 37896, Note_on_c, 3, 39, 0
5, 37920, Note_on_c, 3, 27, 100
5, 38136, Note_on_c, 3, 27, 0
5, 38160, Note_on_c, 3, 39, 100
5, 38376, Note_on_c, 3, 39, 0
5, 38400, Note_on_c, 3, 29, 100
5, 38616, Note_on_c, 3, 29, 0
5, 38640, Note_on_c, 3, 41, 100
5, 38856, Note_on_c, 3, 41, 0
5, 38880, Note_on_c, 3, 29, 100
5, 39096, Note_on_c, 3, 29, 0
5, 39120, Note_on_c, 3, 41, 100
5, 39336, Note_on_c, 3, 41, 0
5, 39360, Note_on_c, 3, 29, 100
5, 39576, Note_on_c, 3, 29, 0
5, 39600, Note_on_c, 3, 41, 100
5, 39816, Note_on_c, 3, 41, 0
5, 39840, Note_on_c, 3, 29, 100
5, 40056, Note_on_c, 3, 29, 0
5, 40080, Note_on_c, 3, 41, 100
5, 40296, Note_on_c, 3, 41, 0
5, 40320, Note_on_c, 3, 31, 100
5, 40536, Note_on_c, 3, 31, 0
5, 40560, Note_on_c, 3, 43, 100
5, 40776, Note_on_c, 3, 43, 0
5, 40800, Note_on_c, 3, 31, 100
5, 41016, Note_on_c, 3, 31, 0
5, 41040, Note_on_c, 3, 43, 100
5, 41256, Note_on_c, 3, 43, 0
5, 41280, Note_on_c, 3, 31, 100
5, 41496, Note_on_c, 3, 31, 0
5, 41520, Note_on_c, 3, 43, 100
5, 41736, Note_on_c, 3, 43, 0
5, 41760, Note_on_c, 3, 31, 100
5, 41976, Note_on_c, 3, 31, 0
5, 42000, Note_on_c, 3, 43, 100
5, 42216, Note_on_c, 3, 43, 0
5, 42240, Note_on_c, 3, 34, 100
5, 42456, Note_on_c, 3, 34, 0
5, 42480, Note_on_c, 3, 46, 100
5, 42696, Note_on_c, 3, 46, 0
5, 42720, Note_on_c, 3, 33, 100
5, 42936, Note_on_c, 3, 33, 0
5, 42960, Note_on_c, 3, 45, 100
5, 43176, Note_on_c, 3, 45, 0
5, 43200, Note_on_c, 3, 31, 100
5, 43416, Note_on_c, 3, 31, 0
5, 43440, Note_on_c, 3, 43, 100
5, 43656, Note_on_c, 3, 43, 0
5, 43680, Note_on_c, 3, 29, 100
5, 43896, Note_on_c, 3, 29, 0
5, 43920, Note_on_c, 3, 41, 100
5, 44136, Note_on_c, 3, 41, 0
5, 44160, Note_on_c, 3, 27, 100
5, 44376, Note_on_c, 3, 27, 0
5, 44400, Note_on_c, 3, 39, 100
5, 44616, Note_on_c, 3, 39, 0
5, 44640, Note_on_c, 3, 27, 100
5, 44856, Note_on_c, 3, 27, 0
5, 44880, Note_on_c, 3, 39, 100
5, 45096, Note_on_c, 3, 39, 0
5, 45120, Note_on_c, 3, 27, 100
5, 45336, Note_on_c, 3, 27, 0
5, 45360, Note_on_c, 3, 39, 100
5, 45576, Note_on_c, 3, 39, 0
5, 45600, Note_on_c, 3, 27, 100
5, 45816, Note_on_c, 3, 27, 0
5, 45840, Note_on_c, 3, 39, 100
5, 46056, Note_on_c, 3, 39, 0
5, 46080, Note_on_c, 3, 29, 100
5, 46296, Note_on_c, 3, 29, 0
5, 46320, Note_on_c, 3, 41, 100
5, 46536, Note_on_c, 3, 41, 0
5, 46560, Note_on_c, 3, 29, 100
5, 46776, Note_on_c, 3, 29, 0
5, 46800, Note_on_c, 3, 41, 100
5, 47016, Note_on_c, 3, 41, 0
5, 47040, Note_on_c, 3, 29, 100
5, 47256, Note_on_c, 3, 29, 0
5, 47280, Note_on_c, 3, 41, 100
5, 47496, Note_on_c, 3, 41, 0
5, 47520, Note_on_c, 3, 29, 100
5, 47736, Note_on_c, 3, 29, 0
5, 47760, Note_on_c, 3, 41, 100
5, 47976, Note_on_c, 3, 41, 0
5, 48000, Note_on_c, 3, 36, 100
5, 48216, Note_on_c, 3, 36, 0
5, 48240, Note_on_c, 3, 48, 100
5, 48456, Note_on_c, 3, 48, 0
5, 48480, Note_on_c, 3, 36, 100
5, 48696, Note_on_c, 3, 36, 0
5, 48720, Note_on_c, 3, 48, 100
5, 48936, Note_on_c, 3, 48, 0
5, 48960, Note_on_c, 3, 36, 100
5, 49176, Note_on_c, 3, 36, 0
5, 49200, Note_on_c, 3, 48, 100
5, 49416, Note_on_c, 3, 48, 0
5, 49440, Note_on_c, 3, 36, 100
5, 49656, Note_on_c, 3, 36, 0
5, 49680, Note_on_c, 3, 48, 100
5, 49896, Note_on_c, 3, 48, 0
5, 49920, Note_on_c, 3, 36, 100
5, 50136, Note_on_c, 3, 36, 0
5, 50160, Note_on_c, 3, 48, 100
5, 50376, Note_on_c, 3, 48, 0
5, 50400, Note_on_c, 3, 36, 100
5, 50616, Note_on_c, 3, 36, 0
5, 50640, Note_on_c, 3, 48, 100
5, 50856, Note_on_c, 3, 48, 0
5, 50880, Note_on_c, 3, 36, 100
5, 51096, Note_on_c, 3, 36, 0
5, 51120, Note_on_c, 3, 48, 100
5, 51336, Note_on_c, 3, 48, 0
5, 51360, Note_on_c, 3, 36, 100
5, 51576, Note_on_c, 3, 36, 0
5, 51600, Note_on_c, 3, 48, 100
5, 51816, Note_on_c, 3, 48, 0
5, 51840, Note_on_c, 3, 31, 100
5, 52056, Note_on_c, 3, 31, 0
5, 52080, Note_on_c, 3, 43, 100
5, 52296, Note_on_c, 3, 43, 0
5, 52320, Note_on_c, 3, 31, 100
5, 52536, Note_on_c, 3, 31, 0
5, 52560, Note_on_c, 3, 43, 100
5, 52776, Note_on_c, 3, 43, 0
5, 52800, Note_on_c, 3, 29, 100
5, 53016, Note_on_c, 3, 29, 0
5, 53040, Note_on_c, 3, 41, 100
5, 53256, Note_on_c, 3, 41, 0
5, 53280, Note_on_c, 3, 29, 100
5, 53496, Note_on_c, 3, 29, 0
5, 53520, Note_on_c, 3, 41, 100
5, 53736, Note_on_c, 3, 41, 0
5, 53760, Note_on_c, 3, 27, 100
5, 53976, Note_on_c, 3, 27, 0
5, 54000, Note_on_c, 3, 39, 100
5, 54216, Note_on_c, 3, 39, 0
5, 54240, Note_on_c, 3, 27, 100
5, 54456, Note_on_c, 3, 27, 0
5, 54480, Note_on_c, 3, 39, 100
5, 54696, Note_on_c, 3, 39, 0
5, 54720, Note_on_c, 3, 29, 100
5, 54936, Note_on_c, 3, 29, 0
5, 54960, Note_on_c, 3, 41, 100
5, 55176, Note_on_c, 3, 41, 0
5, 55200, Note_on_c, 3, 29, 100
5, 55416, Note_on_c, 3, 29, 0
5, 55440, Note_on_c, 3, 41, 100
5, 55656, Note_on_c, 3, 41, 0
5, 55680, Note_on_c, 3, 31, 100
5, 55896, Note_on_c, 3, 31, 0
5, 55920, Note_on_c, 3, 43, 100
5, 56136, Note_on_c, 3, 43, 0
5, 56160, Note_on_c, 3, 31, 100
5, 56376, Note_on_c, 3, 31, 0
5, 56400, Note_on_c, 3, 43, 100
5, 56616, Note_on_c, 3, 43, 0
5, 56640, Note_on_c, 3, 29, 100
5, 56856, Note_on_c, 3, 29, 0
5, 56880, Note_on_c, 3, 41, 100
5, 57096, Note_on_c, 3, 41, 0
5, 57120, Note_on_c, 3, 29, 100
5, 57336, Note_on_c, 3, 29, 0
5, 57360, Note_on_c, 3, 41, 100
5, 57576, Note_on_c, 3, 41, 0
5, 57600, Note_on_c, 3, 27, 100
5, 57816, Note_on_c, 3, 27, 0
5, 57840, Note_on_c, 3, 39, 100
5, 58056, Note_on_c, 3, 39, 0
5, 58080, Note_on_c, 3, 27, 100
5, 58296, Note_on_c, 3, 27, 0
5, 58320, Note_on_c, 3, 39, 100
5, 58536, Note_on_c, 3, 39, 0
5, 58560, Note_on_c, 3, 29, 100
5, 58776, Note_on_c, 3, 29, 0
5, 58800, Note_on_c, 3, 41, 100
5, 59016, Note_on_c, 3, 41, 0
5, 59040, Note_on_c, 3, 29, 100
5, 59256, Note_on_c, 3, 29, 0
5, 59280, Note_on_c, 3, 41, 100
5, 59496, Note_on_c, 3, 41, 0
5, 59520, Note_on_c, 3, 31, 100
5, 59952, Note_on_c, 3, 31, 0
5, 60000, Note_on_c, 3, 31, 100
5, 60144, Note_on_c, 3, 31, 0
5, 60160, Note_on_c, 3, 31, 100
5, 60304, Note_on_c, 3, 31, 0
5, 60320, Note_on_c, 3, 31, 100
5, 60464, Note_on_c, 3, 31, 0
5, 60480, Note_on_c, 3, 31, 100
5, 60912, Note_on_c, 3, 31, 0
5, 60960, Note_on_c, 3, 31, 100
5, 61392, Note_on_c, 3, 31, 0
5, 61440, Note_on_c, 3, 31, 100
5, 61872, Note_on_c, 3, 31, 0
5, 61920, Note_on_c, 3, 31, 100
5, 62064, Note_on_c, 3, 31, 0
5, 62080, Note_on_c, 3, 31, 100
5, 62224, Note_on_c, 3, 31, 0
5, 62240, Note_on_c, 3, 31, 100
5, 62384, Note_on_c, 3, 31, 0
5, 62400, Note_on_c, 3, 31, 100
5, 62832, Note_on_c, 3, 31, 0
5, 62880, Note_on_c, 3, 31, 100
5, 63312, Note_on_c, 3, 31, 0
5, 63360, Note_on_c, 3, 31, 100
5, 63576, Note_on_c, 3, 31, 0
5, 63600, Note_on_c, 3, 43, 100
5, 63816, Note_on_c, 3, 43, 0
5, 63840, Note_on_c, 3, 31, 100
5, 64056, Note_on_c, 3, 31, 0
5, 64080, Note_on_c, 3, 43, 100
5, 64296, Note_on_c, 3, 43, 0
5, 64320, Note_on_c, 3, 31, 100
5, 64536, Note_on_c, 3, 31, 0
5, 64560, Note_on_c, 3, 43, 100
5, 64776, Note_on_c, 3, 43, 0
5, 64800, Note_on_c, 3, 31, 100
5, 65016, Note_on_c, 3, 31, 0
5, 65040, Note_on_c, 3, 43, 100
5, 65256, Note_on_c, 3, 43, 0
5, 65280, Note_on_c, 3, 31, 100
5, 65496, Note_on_c, 3, 31, 0
5, 65520, Note_on_c, 3, 43, 100
5, 65736, Note_on_c, 3, 43, 0
5, 65760, Note_on_c, 3, 31, 100
5, 65976, Note_on_c, 3, 31, 0
5, 66000, Note_on_c, 3, 43, 100
5, 66216, Note_on_c, 3, 43, 0
5, 66240, Note_on_c, 3, 31, 100
5, 66456, Note_on_c, 3, 31, 0
5, 66480, Note_on_c, 3, 43, 100
5, 66696, Note_on_c, 3, 43, 0
5, 66720, Note_on_c, 3, 31, 100
5, 66936, Note_on_c, 3, 31, 0
5, 66960, Note_on_c, 3, 43, 100
5, 67176, Note_on_c, 3, 43, 0
5, 67200, Note_on_c, 3, 31, 100
5, 67416, Note_on_c, 3, 31, 0
5, 67440, Note_on_c, 3, 43, 100
5, 67656, Note_on_c, 3, 43, 0
5, 67680, Note_on_c, 3, 31, 100
5, 67896, Note_on_c, 3, 31, 0
5, 67920, Note_on_c, 3, 43, 100
5, 68136, Note_on_c, 3, 43, 0
5, 68160, Note_on_c, 3, 31, 100
5, 68376, Note_on_c, 3, 31, 0
5, 68400, Note_on_c, 3, 43, 100
5, 68616, Note_on_c, 3, 43, 0
5, 68640, Note_on_c, 3, 31, 100
5, 68856, Note_on_c, 3, 31, 0
5, 68880, Note_on_c, 3, 43, 100
5, 69096, Note_on_c, 3, 43, 0
5, 69120, Note_on_c, 3, 31, 100
5, 69336, Note_on_c, 3, 31, 0
5, 69360, Note_on_c, 3, 43, 100
5, 69576, Note_on_c, 3, 43, 0
5, 69600, Note_on_c, 3, 31, 100
5, 69816, Note_on_c, 3, 31, 0
5, 69840, Note_on_c, 3, 43, 100
5, 70056, Note_on_c, 3, 43, 0
5, 70080, Note_on_c, 3, 31, 100
5, 70296, Note_on_c, 3, 31, 0
5, 70320, Note_on_c, 3, 43, 100
5, 70536, Note_on_c, 3, 43, 0
5, 70560, Note_on_c, 3, 31, 100
5, 70776, Note_on_c, 3, 31, 0
5, 70800, Note_on_c, 3, 43, 100
5, 71016, Note_on_c, 3, 43, 0
5, 71040, Note_on_c, 3, 31, 100
5, 71256, Note_on_c, 3, 31, 0
5, 71280, Note_on_c, 3, 43, 100
5, 71496, Note_on_c, 3, 43, 0
5, 71520, Note_on_c, 3, 31, 100
5, 71736, Note_on_c, 3, 31, 0
5, 71760, Note_on_c, 3, 43, 100
5, 71976, Note_on_c, 3, 43, 0
5, 72000, Note_on_c, 3, 31, 100
5, 72216, Note_on_c, 3, 31, 0
5, 72240, Note_on_c, 3, 43, 100
5, 72456, Note_on_c, 3, 43, 0
5, 72480, Note_on_c, 3, 31, 100
5, 72696, Note_on_c, 3, 31, 0
5, 72720, Note_on_c, 3, 43, 100
5, 72936, Note_on_c, 3, 43, 0
5, 72960, Note_on_c, 3, 31, 100
5, 73176, Note_on_c, 3, 31, 0
5, 73200, Note_on_c, 3, 43, 100
5, 73416, Note_on_c, 3, 43, 0
5, 73440, Note_on_c, 3, 31, 100
5, 73656, Note_on_c, 3, 31, 0
5, 73680, Note_on_c, 3, 43, 100
5, 73896, Note_on_c, 3, 43, 0
5, 73920, Note_on_c, 3, 31, 100
5, 74136, Note_on_c, 3, 31, 0
5, 74160, Note_on_c, 3, 43, 100
5, 74376, Note_on_c, 3, 43, 0
5, 74400, Note_on_c, 3, 31, 100
5, 74616, Note_on_c, 3, 31, 0
5, 74640, Note_on_c, 3, 43, 100
5, 74856, Note_on_c, 3, 43, 0
5, 74880, Note_on_c, 3, 31, 100
5, 75096, Note_on_c, 3, 31, 0
5, 75120, Note_on_c, 3, 43, 100
5, 75336, Note_on_c, 3, 43, 0
5, 75360, Note_on_c, 3, 31, 100
5, 75576, Note_on_c, 3, 31, 0
5, 75600, Note_on_c, 3, 43, 100
5, 75816, Note_on_c, 3, 43, 0
5, 75840, Note_on_c, 3, 31, 100
5, 76056, Note_on_c, 3, 31, 0
5, 76080, Note_on_c, 3, 43, 100
5, 76296, Note_on_c, 3, 43, 0
5, 76320, Note_on_c, 3, 31, 100
5, 76536, Note_on_c, 3, 31, 0
5, 76560, Note_on_c, 3, 43, 100
5, 76776, Note_on_c, 3, 43, 0
5, 76800, Note_on_c, 3, 31, 100
5, 77016, Note_on_c, 3, 31, 0
5, 77040, Note_on_c, 3, 43, 100
5, 77256, Note_on_c, 3, 43, 0
5, 77280, Note_on_c, 3, 31, 100
5, 77496, Note_on_c, 3, 31, 0
5, 77520, Note_on_c, 3, 43, 100
5, 77736, Note_on_c, 3, 43, 0
5, 77760, Note_on_c, 3, 31, 100
5, 77976, Note_on_c, 3, 31, 0
5, 78000, Note_on_c, 3, 43, 100
5, 78216, Note_on_c, 3, 43, 0
5, 78240, Note_on_c, 3, 31, 100
5, 78456, Note_on_c, 3, 31, 0
5, 78480, Note_on_c, 3, 43, 100
5, 78696, Note_on_c, 3, 43, 0
5, 78720, Note_on_c, 3, 27, 100
5, 78936, Note_on_c, 3, 27, 0
5, 78960, Note_on_c, 3, 39, 100
5, 79176, Note_on_c, 3, 39, 0
5, 79200, Note_on_c, 3, 27, 100
5, 79416, Note_on_c, 3, 27, 0
5, 79440, Note_on_c, 3, 39, 100
5, 79656, Note_on_c, 3, 39, 0
5, 79680, Note_on_c, 3, 27, 100
5, 79896, Note_on_c, 3, 27, 0
5, 79920, Note_on_c, 3, 39, 100
5, 80136, Note_on_c, 3, 39, 0
5, 80160, Note_on_c, 3, 27, 100
5, 80376, Note_on_c, 3, 27, 0
5, 80400, Note_on_c, 3, 39, 100
5, 80616, Note_on_c, 3, 39, 0
5, 80640, Note_on_c, 3, 29, 100
5, 80856, Note_on_c, 3, 29, 0
5, 80880, Note_on_c, 3, 41, 100
5, 81096, Note_on_c, 3, 41, 0
5, 81120, Note_on_c, 3, 29, 100
5, 81336, Note_on_c, 3, 29, 0
5, 81360, Note_on_c, 3, 41, 100
5, 81576, Note_on_c, 3, 41, 0
5, 81600, Note_on_c, 3, 29, 100
5, 81816, Note_on_c, 3, 29, 0
5, 81840, Note_on_c, 3, 41, 100
5, 82056, Note_on_c, 3, 41, 0
5, 82080, Note_on_c, 3, 29, 100
5, 82296, Note_on_c, 3, 29, 0
5, 82320, Note_on_c, 3, 41, 100
5, 82536, Note_on_c, 3, 41, 0
5, 82560, Note_on_c, 3, 31, 100
5, 82776, Note_on_c, 3, 31, 0
5, 82800, Note_on_c, 3, 43, 100
5, 83016, Note_on_c, 3, 43, 0
5, 83040, Note_on_c, 3, 31, 100
5, 83256, Note_on_c, 3, 31, 0
5, 83280, Note_on_c, 3, 43, 100
5, 83496, Note_on_c, 3, 43, 0
5, 83520, Note_on_c, 3, 31, 100
5, 83736, Note_on_c, 3, 31, 0
5, 83760, Note_on_c, 3, 43, 100
5, 83976, Note_on_c, 3, 43, 0
5, 84000, Note_on_c, 3, 31, 100
5, 84216, Note_on_c, 3, 31, 0
5, 84240, Note_on_c, 3, 43, 100
5, 84456, Note_on_c, 3, 43, 0
5, 84480, Note_on_c, 3, 31, 100
5, 84696, Note_on_c, 3, 31, 0
5, 84720, Note_on_c, 3, 43, 100
5, 84936, Note_on_c, 3, 43, 0
5, 84960, Note_on_c, 3, 31, 100
5, 85176, Note_on_c, 3, 31, 0
5, 85200, Note_on_c, 3, 43, 100
5, 85416, Note_on_c, 3, 43, 0
5, 85440, Note_on_c, 3, 34, 100
5, 85656, Note_on_c, 3, 34, 0
5, 85680, Note_on_c, 3, 46, 100
5, 85896, Note_on_c, 3, 46, 0
5, 85920, Note_on_c, 3, 34, 100
5, 86136, Note_on_c, 3, 34, 0
5, 86160, Note_on_c, 3, 46, 100
5, 86376, Note_on_c, 3, 46, 0
5, 86400, Note_on_c, 3, 27, 100
5, 86616, Note_on_c, 3, 27, 0
5, 86640, Note_on_c, 3, 39, 100
5, 86856, Note_on_c, 3, 39, 0
5, 86880, Note_on_c, 3, 27, 100
5, 87096, Note_on_c, 3, 27, 0
5, 87120, Note_on_c, 3, 39, 100
5, 87336, Note_on_c, 3, 39, 0
5, 87360, Note_on_c, 3, 27, 100
5, 87576, Note_on_c, 3, 27, 0
5, 87600, Note_on_c, 3, 39, 100
5, 87816, Note_on_c, 3, 39, 0
5, 87840, Note_on_c, 3, 27, 100
5, 88056, Note_on_c, 3, 27, 0
5, 88080, Note_on_c, 3, 39, 100
5, 88296, Note_on_c, 3, 39, 0
5, 88320, Note_on_c, 3, 29, 100
5, 88536, Note_on_c, 3, 29, 0
5, 88560, Note_on_c, 3, 41, 100
5, 88776, Note_on_c, 3, 41, 0
5, 88800, Note_on_c, 3, 29, 100
5, 89016, Note_on_c, 3, 29, 0
5, 89040, Note_on_c, 3, 41, 100
5, 89256, Note_on_c, 3, 41, 0
5, 89280, Note_on_c, 3, 29, 100
5, 89496, Note_on_c, 3, 29, 0
5, 89520, Note_on_c, 3, 41, 100
5, 89736, Note_on_c, 3, 41, 0
5, 89760, Note_on_c, 3, 29, 100
5, 89976, Note_on_c, 3, 29, 0
5, 90000, Note_on_c, 3, 41, 100
5, 90216, Note_on_c, 3, 41, 0
5, 90240, Note_on_c, 3, 31, 100
5, 90456, Note_on_c, 3, 31, 0
5, 90480, Note_on_c, 3, 43, 100
5, 90696, Note_on_c, 3, 43, 0
5, 90720, Note_on_c, 3, 31, 100
5, 90936, Note_on_c, 3, 31, 0
5, 90960, Note_on_c, 3, 43, 100
5, 91176, Note_on_c, 3, 43, 0
5, 91200, Note_on_c, 3, 31, 100
5, 91416, Note_on_c, 3, 31, 0
5, 91440, Note_on_c, 3, 43, 100
5, 91656, Note_on_c, 3, 43, 0
5, 91680, Note_on_c, 3, 31, 100
5, 91896, Note_on_c, 3, 31, 0
5, 91920, Note_on_c, 3, 43, 100
5, 92136, Note_on_c, 3, 43, 0
5, 92160, Note_on_c, 3, 31, 100
5, 92376, Note_on_c, 3, 31, 0
5, 92400, Note_on_c, 3, 43, 100
5, 92616, Note_on_c, 3, 43, 0
5, 92640, Note_on_c, 3, 31, 100
5, 92856, Note_on_c, 3, 31, 0
5, 92880, Note_on_c, 3, 43, 100
5, 93096, Note_on_c, 3, 43, 0
5, 93120, Note_on_c, 3, 31, 100
5, 93336, Note_on_c, 3, 31, 0
5, 93360, Note_on_c, 3, 43, 100
5, 93576, Note_on_c, 3, 43, 0
5, 93600, Note_on_c, 3, 31, 100
5, 93816, Note_on_c, 3, 31, 0
5, 93840, Note_on_c, 3, 43, 100
5, 94056, Note_on_c, 3, 43, 0
5, 94080, Note_on_c, 3, 27, 100
5, 94296, Note_on_c, 3, 27, 0
5, 94320, Note_on_c, 3, 39, 100
5, 94536, Note_on_c, 3, 39, 0
5, 94560, Note_on_c, 3, 27, 100
5, 94776, Note_on_c, 3, 27, 0
5, 94800, Note_on_c, 3, 39, 100
5, 95016, Note_on_c, 3, 39, 0
5, 95040, Note_on_c, 3, 27, 100
5, 95256, Note_on_c, 3, 27, 0
5, 95280, Note_on_c, 3, 39, 100
5, 95496, Note_on_c, 3, 39, 0
5, 95520, Note_on_c, 3, 27, 100
5, 95736, Note_on_c, 3, 27, 0
5, 95760, Note_on_c, 3, 39, 100
5, 95976, Note_on_c, 3, 39, 0
5, 96000, Note_on_c, 3, 29, 100
5, 96216, Note_on_c, 3, 29, 0
5, 96240, Note_on_c, 3, 41, 100
5, 96456, Note_on_c, 3, 41, 0
5, 96480, Note_on_c, 3, 29, 100
5, 96696, Note_on_c, 3, 29, 0
5, 96720, Note_on_c, 3, 41, 100
5, 96936, Note_on_c, 3, 41, 0
5, 96960, Note_on_c, 3, 29, 100
5, 97176, Note_on_c, 3, 29, 0
5, 97200, Note_on_c, 3, 41, 100
5, 97416, Note_on_c, 3, 41, 0
5, 97440, Note_on_c, 3, 29, 100
5, 97656, Note_on_c, 3, 29, 0
5, 97680, Note_on_c, 3, 41, 100
5, 97896, Note_on_c, 3, 41, 0
5, 97920, Note_on_c, 3, 31, 100
5, 98136, Note_on_c, 3, 31, 0
5, 98160, Note_on_c, 3, 43, 100
5, 98376, Note_on_c, 3, 43, 0
5, 98400, Note_on_c, 3, 31, 100
5, 98616, Note_on_c, 3, 31, 0
5, 98640, Note_on_c, 3, 43, 100
5, 98856, Note_on_c, 3, 43, 0
5, 98880, Note_on_c, 3, 31, 100
5, 99096, Note_on_c, 3, 31, 0
5, 99120, Note_on_c, 3, 43, 100
5, 99336, Note_on_c, 3, 43, 0
5, 99360, Note_on_c, 3, 31, 100
5, 99576, Note_on_c, 3, 31, 0
5, 99600, Note_on_c, 3, 43, 100
5, 99816, Note_on_c, 3, 43, 0
5, 99840, Note_on_c, 3, 34, 100
5, 100056, Note_on_c, 3, 34, 0
5, 100080, Note_on_c, 3, 46, 100
5, 100296, Note_on_c, 3, 46, 0
5, 100320, Note_on_c, 3, 33, 100
5, 100536, Note_on_c, 3, 33, 0
5, 100560, Note_on_c, 3, 45, 100
5, 100776, Note_on_c, 3, 45, 0
5, 100800, Note_on_c, 3, 31, 100
5, 101016, Note_on_c, 3, 31, 0
5, 101040, Note_on_c, 3, 43, 100
5, 101256, Note_on_c, 3, 43, 0
5, 101280, Note_on_c, 3, 29, 100
5, 101496, Note_on_c, 3, 29, 0
5, 101520, Note_on_c, 3, 41, 100
5, 101736, Note_on_c, 3, 41, 0
5, 101760, Note_on_c, 3, 27, 100
5, 101976, Note_on_c, 3, 27, 0
5, 102000, Note_on_c, 3, 39, 100
5, 102216, Note_on_c, 3, 39, 0
5, 102240, Note_on_c, 3, 27, 100
5, 102456, Note_on_c, 3, 27, 0
5, 102480, Note_on_c, 3, 39, 100
5, 102696, Note_on_c, 3, 39, 0
5, 102720, Note_on_c, 3, 27, 100
5, 102936, Note_on_c, 3, 27, 0
5, 102960, Note_on_c, 3, 39, 100
5, 103176, Note_on_c, 3, 39, 0
5, 103200, Note_on_c, 3, 27, 100
5, 103416, Note_on_c, 3, 27, 0
5, 103440, Note_on_c, 3, 39, 100
5, 103656, Note_on_c, 3, 39, 0
5, 103680, Note_on_c, 3, 29, 100
5, 103896, Note_on_c, 3, 29, 0
5, 103920, Note_on_c, 3, 41, 100
5, 104136, Note_on_c, 3, 41, 0
5, 104160, Note_on_c, 3, 29, 100
5, 104376, Note_on_c, 3, 29, 0
5, 104400, Note_on_c, 3, 41, 100
5, 104616, Note_on_c, 3, 41, 0
5, 104640, Note_on_c, 3, 29, 100
5, 104856, Note_on_c, 3, 29, 0
5, 104880, Note_on_c, 3, 41, 100
5, 105096, Note_on_c, 3, 41, 0
5, 105120, Note_on_c, 3, 29, 100
5, 105336, Note_on_c, 3, 29, 0
5, 105360, Note_on_c, 3, 41, 100
5, 105576, Note_on_c, 3, 41, 0
5, 105600, Note_on_c, 3, 36, 100
5, 105816, Note_on_c, 3, 36, 0
5, 105840, Note_on_c, 3, 48, 100
5, 106056, Note_on_c, 3, 48, 0
5, 106080, Note_on_c, 3, 36, 100
5, 106296, Note_on_c, 3, 36, 0
5, 106320, Note_on_c, 3, 48, 100
5, 106536, Note_on_c, 3, 48, 0
5, 106560, Note_on_c, 3, 36, 100
5, 106776, Note_on_c, 3, 36, 0
5, 106800, Note_on_c, 3, 48, 100
5, 107016, Note_on_c, 3, 48, 0
5, 107040, Note_on_c, 3, 36, 100
5, 107256, Note_on_c, 3, 36, 0
5, 107280, Note_on_c, 3, 48, 100
5, 107496, Note_on_c, 3, 48, 0
5, 107520, Note_on_c, 3, 36, 100
5, 107736, Note_on_c, 3, 36, 0
5, 107760, Note_on_c, 3, 48, 100
5, 107976, Note_on_c, 3, 48, 0
5, 108000, Note_on_c, 3, 36, 100
5, 108216, Note_on_c, 3, 36, 0
5, 108240, Note_on_c, 3, 48, 100
5, 108456, Note_on_c, 3, 48, 0
5, 108480, Note_on_c, 3, 36, 100
5, 108696, Note_on_c, 3, 36, 0
5, 108720, Note_on_c, 3, 48, 100
5, 108936, Note_on_c, 3, 48, 0
5, 108960, Note_on_c, 3, 36, 100
5, 109176, Note_on_c, 3, 36, 0
5, 109200, Note_on_c, 3, 48, 100
5, 109416, Note_on_c, 3, 48, 0
5, 109440, Note_on_c, 3, 31, 100
5, 109656, Note_on_c, 3, 31, 0
5, 109680, Note_on_c, 3, 43, 100
5, 109896, Note_on_c, 3, 43, 0
5, 109920, Note_on_c, 3, 31, 100
5, 110136, Note_on_c, 3, 31, 0
5, 110160, Note_on_c, 3, 43, 100
5, 110376, Note_on_c, 3, 43, 0
5, 110400, Note_on_c, 3, 29, 100
5, 110616, Note_on_c, 3, 29, 0
5, 110640, Note_on_c, 3, 41, 100
5, 110856, Note_on_c, 3, 41, 0
5, 110880, Note_on_c, 3, 29, 100
5, 111096, Note_on_c, 3, 29, 0
5, 111120, Note_on_c, 3, 41, 100
5, 111336, Note_on_c, 3, 41, 0
5, 111360, Note_on_c, 3, 27, 100
5, 111576, Note_on_c, 3, 27, 0
5, 111600, Note_on_c, 3, 39, 100
5, 111816, Note_on_c, 3, 39, 0
5, 111840, Note_on_c, 3, 27, 100
5, 112056, Note_on_c, 3, 27, 0
5, 112080, Note_on_c, 3, 39, 100
5, 112296, Note_on_c, 3, 39, 0
5, 112320, Note_on_c, 3, 29, 100
5, 112536, Note_on_c, 3, 29, 0
5, 112560, Note_on_c, 3, 41, 100
5, 112776, Note_on_c, 3, 41, 0
5, 112800, Note_on_c, 3, 29, 100
5, 113016, Note_on_c, 3, 29, 0
5, 113040, Note_on_c, 3, 41, 100
5, 113256, Note_on_c, 3, 41, 0
5, 113280, Note_on_c, 3, 31, 100
5, 113496, Note_on_c, 3, 31, 0
5, 113520, Note_on_c, 3, 43, 100
5, 113736, Note_on_c, 3, 43, 0
5, 113760, Note_on_c, 3, 31, 100
5, 113976, Note_on_c, 3, 31, 0
5, 114000, Note_on_c, 3, 43, 100
5, 114216, Note_on_c, 3, 43, 0
5, 114240, Note_on_c, 3, 29, 100
5, 114456, Note_on_c, 3, 29, 0
5, 114480, Note_on_c, 3, 41, 100
5, 114696, Note_on_c, 3, 41, 0
5, 114720, Note_on_c, 3, 29, 100
5, 114936, Note_on_c, 3, 29, 0
5, 114960, Note_on_c, 3, 41, 100
5, 115176, Note_on_c, 3, 41, 0
5, 115200, Note_on_c, 3, 27, 100
5, 115416, Note_on_c, 3, 27, 0
5, 115440, Note_on_c, 3, 39, 100
5, 115656, Note_on_c, 3, 39, 0
5, 115680, Note_on_c, 3, 27, 100
5, 115896, Note_on_c, 3, 27, 0
5, 115920, Note_on_c, 3, 39, 100
5, 116136, Note_on_c, 3, 39, 0
5, 116160, Note_on_c, 3, 29, 100
5, 116376, Note_on_c, 3, 29, 0
5, 116400, Note_on_c, 3, 41, 100
5, 116616, Note_on_c, 3, 41, 0
5, 116640, Note_on_c, 3, 29, 100
5, 116856, Note_on_c, 3, 29, 0
5, 116880, Note_on_c, 3, 41, 100
5, 117096, Note_on_c, 3, 41, 0
5, 117120, Note_on_c, 3, 31, 100
5, 117552, Note_on_c, 3, 31, 0
5, 117600, Note_on_c, 3, 31, 100
5, 117744, Note_on_c, 3, 31, 0
5, 117760, Note_on_c, 3, 31, 100
5, 117904, Note_on_c, 3, 31, 0
5, 117920, Note_on_c, 3, 31, 100
5, 118064, Note_on_c, 3, 31, 0
5, 118080, Note_on_c, 3, 31, 100
5, 118512, Note_on_c, 3, 31, 0
5, 118560, Note_on_c, 3, 31, 100
5, 118992, Note_on_c, 3, 31, 0
5, 119040, Note_on_c, 3, 31, 100
5, 119472, Note_on_c, 3, 31, 0
5, 119520, Note_on_c, 3, 31, 100
5, 119664, Note_on_c, 3, 31, 0
5, 119680, Note_on_c, 3, 31, 100
5, 119824, Note_on_c, 3, 31, 0
5, 119840, Note_on_c, 3, 31, 100
5, 119984, Note_on_c, 3, 31, 0
5, 120000, Note_on_c, 3, 31, 100
5, 120432, Note_on_c, 3, 31, 0
5, 120480, Note_on_c, 3, 31, 100
5, 120912, Note_on_c, 3, 31, 0
5, 120912, End_track
6, 0, Start_track
6, 0, Title_t, "Synth Strings 1"
6, 0, MIDI_port, 0
6, 0, Control_c, 4, 11, 99
6, 0, Control_c, 4, 10, 40
6, 0, Control_c, 4, 91, 100
6, 30, Control_c, 4, 11, 99
6, 30, Control_c, 4, 10, 40
6, 30, Control_c, 4, 91, 100
6, 60, Control_c, 4, 11, 99
6, 60, Control_c, 4, 10, 40
6, 60, Control_c, 4, 91, 100
6, 90, Control_c, 4, 11, 100
6, 90, Control_c, 4, 10, 40
6, 90, Control_c, 4, 91, 100
6, 120, Control_c, 4, 11, 100
6, 120, Control_c, 4, 10, 40
6, 120, Control_c, 4, 91, 100
6, 150, Control_c, 4, 11, 101
6, 150, Control_c, 4, 10, 40
6, 150, Control_c, 4, 91, 100
6, 180, Control_c, 4, 11, 101
6, 180, Control_c, 4, 91, 100
6, 210, Control_c, 4, 11, 102
6, 210, Control_c, 4, 91, 100
6, 240, Control_c, 4, 11, 102
6, 240, Control_c, 4, 91, 100
6, 270, Control_c, 4, 11, 103
6, 270, Control_c, 4, 91, 100
6, 300, Control_c, 4, 11, 103
6, 300, Control_c, 4, 91, 100
6, 330, Control_c, 4, 11, 103
6, 330, Control_c, 4, 91, 100
6, 360, Control_c, 4, 11, 104
6, 360, Control_c, 4, 91, 100
6, 390, Control_c, 4, 11, 104
6, 390, Control_c, 4, 91, 100
6, 420, Control_c, 4, 11, 105
6, 420, Control_c, 4, 91, 100
6, 450, Control_c, 4, 11, 105
6, 450, Control_c, 4, 91, 100
6, 480, Control_c, 4, 11, 106
6, 480, Control_c, 4, 91, 100
6, 510, Control_c, 4, 11, 106
6, 540, Control_c, 4, 11, 107
6, 570, Control_c, 4, 11, 107
6, 600, Control_c, 4, 11, 108
6, 630, Control_c, 4, 11, 108
6, 660, Control_c, 4, 11, 108
6, 690, Control_c, 4, 11, 109
6, 720, Control_c, 4, 11, 109
6, 750, Control_c, 4, 11, 110
6, 780, Control_c, 4, 11, 110
6, 810, Control_c, 4, 11, 111
6, 840, Control_c, 4, 11, 111
6, 870, Control_c, 4, 11, 112
6, 900, Control_c, 4, 11, 112
6, 930, Control_c, 4, 11, 113
6, 960, Control_c, 4, 11, 113
6, 990, Control_c, 4, 11, 113
6, 1020, Control_c, 4, 11, 114
6, 1050, Control_c, 4, 11, 114
6, 1080, Control_c, 4, 11, 115
6, 1110, Control_c, 4, 11, 115
6, 1140, Control_c, 4, 11, 116
6, 1170, Control_c, 4, 11, 116
6, 1200, Control_c, 4, 11, 117
6, 1230, Control_c, 4, 11, 117
6, 1260, Control_c, 4, 11, 118
6, 1290, Control_c, 4, 11, 118
6, 1320, Control_c, 4, 11, 118
6, 1350, Control_c, 4, 11, 119
6, 1380, Control_c, 4, 11, 119
6, 1410, Control_c, 4, 11, 120
6, 1440, Control_c, 4, 11, 120
6, 1470, Control_c, 4, 11, 121
6, 1500, Control_c, 4, 11, 121
6, 1530, Control_c, 4, 11, 122
6, 1560, Control_c, 4, 11, 122
6, 1590, Control_c, 4, 11, 123
6, 1620, Control_c, 4, 11, 123
6, 1650, Control_c, 4, 11, 123
6, 1680, Control_c, 4, 11, 124
6, 1710, Control_c, 4, 11, 124
6, 1740, Control_c, 4, 11, 125
6, 1770, Control_c, 4, 11, 125
6, 1800, Control_c, 4, 11, 126
6, 1830, Control_c, 4, 11, 126
6, 1860, Control_c, 4, 11, 127
6, 1890, Control_c, 4, 11, 127
6, 1920, Control_c, 4, 0, 0
6, 1920, Control_c, 4, 32, 0
6, 1920, Program_c, 4, 50
6, 1920, Note_on_c, 4, 58, 100
6, 1920, Note_on_c, 4, 67, 100
6, 1920, Control_c, 4, 7, 80
6, 1950, Control_c, 4, 7, 80
6, 1980, Control_c, 4, 7, 80
6, 2010, Control_c, 4, 7, 80
6, 2040, Control_c, 4, 7, 80
6, 2070, Control_c, 4, 7, 80
6, 2100, Control_c, 4, 7, 80
6, 2130, Control_c, 4, 7, 80
6, 2160, Control_c, 4, 7, 80
6, 2190, Control_c, 4, 7, 80
6, 2220, Control_c, 4, 7, 80
6, 2250, Control_c, 4, 7, 80
6, 2280, Control_c, 4, 7, 80
6, 2310, Control_c, 4, 7, 80
6, 2340, Control_c, 4, 7, 80
6, 2370, Control_c, 4, 7, 80
6, 2400, Control_c, 4, 7, 80
6, 2430, Control_c, 4, 7, 80
6, 2460, Control_c, 4, 7, 80
6, 2490, Control_c, 4, 7, 80
6, 2520, Control_c, 4, 7, 80
6, 2550, Control_c, 4, 7, 80
6, 2580, Control_c, 4, 7, 80
6, 2610, Control_c, 4, 7, 80
6, 2640, Control_c, 4, 7, 80
6, 2670, Control_c, 4, 7, 80
6, 5760, Note_on_c, 4, 58, 0
6, 5760, Note_on_c, 4, 67, 0
6, 5760, Note_on_c, 4, 58, 100
6, 5760, Note_on_c, 4, 67, 100
6, 9600, Note_on_c, 4, 58, 0
6, 9600, Note_on_c, 4, 67, 0
6, 9600, Note_on_c, 4, 58, 100
6, 9600, Note_on_c, 4, 67, 100
6, 13440, Note_on_c, 4, 58, 0
6, 13440, Note_on_c, 4, 67, 0
6, 13440, Note_on_c, 4, 58, 100
6, 13440, Note_on_c, 4, 67, 100
6, 17280, Note_on_c, 4, 58, 0
6, 17280, Note_on_c, 4, 67, 0
6, 17280, Note_on_c, 4, 67, 100
6, 17280, Note_on_c, 4, 58, 100
6, 21120, Note_on_c, 4, 67, 0
6, 21120, Note_on_c, 4, 58, 0
6, 21120, Note_on_c, 4, 63, 100
6, 21120, Note_on_c, 4, 55, 100
6, 23040, Note_on_c, 4, 63, 0
6, 23040, Note_on_c, 4, 55, 0
6, 23040, Note_on_c, 4, 57, 100
6, 23040, Note_on_c, 4, 65, 100
6, 24960, Note_on_c, 4, 57, 0
6, 24960, Note_on_c, 4, 65, 0
6, 24960, Note_on_c, 4, 58, 100
6, 24960, Note_on_c, 4, 67, 100
6, 26880, Note_on_c, 4, 58, 0
6, 26880, Note_on_c, 4, 67, 0
6, 26880, Note_on_c, 4, 58, 100
6, 26880, Note_on_c, 4, 67, 100
6, 27744, Note_on_c, 4, 67, 0
6, 27840, Note_on_c, 4, 70, 100
6, 28608, Note_on_c, 4, 58, 0
6, 28704, Note_on_c, 4, 70, 0
6, 28800, Note_on_c, 4, 63, 100
6, 28800, Note_on_c, 4, 55, 100
6, 30720, Note_on_c, 4, 63, 0
6, 30720, Note_on_c, 4, 55, 0
6, 30720, Note_on_c, 4, 57, 100
6, 30720, Note_on_c, 4, 65, 100
6, 32640, Note_on_c, 4, 57, 0
6, 32640, Note_on_c, 4, 65, 0
6, 32640, Note_on_c, 4, 58, 100
6, 32640, Note_on_c, 4, 67, 100
6, 36480, Note_on_c, 4, 58, 0
6, 36480, Note_on_c, 4, 67, 0
6, 36480, Note_on_c, 4, 55, 100
6, 36480, Note_on_c, 4, 63, 100
6, 38400, Note_on_c, 4, 55, 0
6, 38400, Note_on_c, 4, 63, 0
6, 38400, Note_on_c, 4, 65, 100
6, 38400, Note_on_c, 4, 57, 100
6, 40320, Note_on_c, 4, 65, 0
6, 40320, Note_on_c, 4, 57, 0
6, 40320, Note_on_c, 4, 67, 100
6, 40320, Note_on_c, 4, 58, 100
6, 42240, Note_on_c, 4, 67, 0
6, 42240, Note_on_c, 4, 70, 100
6, 42720, Note_on_c, 4, 70, 0
6, 42720, Note_on_c, 4, 69, 100
6, 43200, Note_on_c, 4, 69, 0
6, 43200, Note_on_c, 4, 67, 100
6, 43680, Note_on_c, 4, 67, 0
6, 43680, Note_on_c, 4, 65, 100
6, 43968, Note_on_c, 4, 58, 0
6, 44160, Note_on_c, 4, 65, 0
6, 44160, Note_on_c, 4, 55, 100
6, 44160, Note_on_c, 4, 63, 100
6, 46080, Note_on_c, 4, 55, 0
6, 46080, Note_on_c, 4, 63, 0
6, 46080, Note_on_c, 4, 65, 100
6, 46080, Note_on_c, 4, 57, 100
6, 48000, Note_on_c, 4, 65, 0
6, 48000, Note_on_c, 4, 57, 0
6, 48000, Note_on_c, 4, 62, 100
6, 48000, Note_on_c, 4, 72, 100
6, 51648, Note_on_c, 4, 62, 0
6, 51648, Note_on_c, 4, 72, 0
6, 51840, Note_on_c, 4, 58, 100
6, 51840, Note_on_c, 4, 67, 100
6, 52704, Note_on_c, 4, 67, 0
6, 52800, Note_on_c, 4, 65, 100
6, 53664, Note_on_c, 4, 65, 0
6, 53760, Note_on_c, 4, 63, 100
6, 54624, Note_on_c, 4, 63, 0
6, 54720, Note_on_c, 4, 65, 100
6, 55488, Note_on_c, 4, 58, 0
6, 55584, Note_on_c, 4, 65, 0
6, 55680, Note_on_c, 4, 58, 100
6, 55680, Note_on_c, 4, 67, 100
6, 56544, Note_on_c, 4, 67, 0
6, 56640, Note_on_c, 4, 65, 100
6, 57504, Note_on_c, 4, 65, 0
6, 57600, Note_on_c, 4, 63, 100
6, 58464, Note_on_c, 4, 63, 0
6, 58560, Note_on_c, 4, 65, 100
6, 59328, Note_on_c, 4, 58, 0
6, 59424, Note_on_c, 4, 65, 0
6, 63360, Note_on_c, 4, 58, 100
6, 63360, Note_on_c, 4, 67, 100
6, 67200, Note_on_c, 4, 58, 0
6, 67200, Note_on_c, 4, 67, 0
6, 67200, Note_on_c, 4, 58, 100
6, 67200, Note_on_c, 4, 67, 100
6, 71040, Note_on_c, 4, 58, 0
6, 71040, Note_on_c, 4, 67, 0
6, 71040, Note_on_c, 4, 58, 100
6, 71040, Note_on_c, 4, 67, 100
6, 74880, Note_on_c, 4, 58, 0
6, 74880, Note_on_c, 4, 67, 0
6, 74880, Note_on_c, 4, 67, 100
6, 74880, Note_on_c, 4, 58, 100
6, 78720, Note_on_c, 4, 67, 0
6, 78720, Note_on_c, 4, 58, 0
6, 78720, Note_on_c, 4, 63, 100
6, 78720, Note_on_c, 4, 55, 100
6, 80640, Note_on_c, 4, 63, 0
6, 80640, Note_on_c, 4, 55, 0
6, 80640, Note_on_c, 4, 57, 100
6, 80640, Note_on_c, 4, 65, 100
6, 82560, Note_on_c, 4, 57, 0
6, 82560, Note_on_c, 4, 65, 0
6, 82560, Note_on_c, 4, 58, 100
6, 82560, Note_on_c, 4, 67, 100
6, 84480, Note_on_c, 4, 58, 0
6, 84480, Note_on_c, 4, 67, 0
6, 84480, Note_on_c, 4, 58, 100
6, 84480, Note_on_c, 4, 67, 100
6, 85344, Note_on_c, 4, 67, 0
6, 85440, Note_on_c, 4, 70, 100
6, 86208, Note_on_c, 4, 58, 0
6, 86304, Note_on_c, 4, 70, 0
6, 86400, Note_on_c, 4, 63, 100
6, 86400, Note_on_c, 4, 55, 100
6, 88320, Note_on_c, 4, 63, 0
6, 88320, Note_on_c, 4, 55, 0
6, 88320, Note_on_c, 4, 57, 100
6, 88320, Note_on_c, 4, 65, 100
6, 90240, Note_on_c, 4, 57, 0
6, 90240, Note_on_c, 4, 65, 0
6, 90240, Note_on_c, 4, 58, 100
6, 90240, Note_on_c, 4, 67, 100
6, 94080, Note_on_c, 4, 58, 0
6, 94080, Note_on_c, 4, 67, 0
6, 94080, Note_on_c, 4, 55, 100
6, 94080, Note_on_c, 4, 63, 100
6, 96000, Note_on_c, 4, 55, 0
6, 96000, Note_on_c, 4, 63, 0
6, 96000, Note_on_c, 4, 65, 100
6, 96000, Note_on_c, 4, 57, 100
6, 97920, Note_on_c, 4, 65, 0
6, 97920, Note_on_c, 4, 57, 0
6, 97920, Note_on_c, 4, 67, 100
6, 97920, Note_on_c, 4, 58, 100
6, 99840, Note_on_c, 4, 67, 0
6, 99840, Note_on_c, 4, 70, 100
6, 100320, Note_on_c, 4, 70, 0
6, 100320, Note_on_c, 4, 69, 100
6, 100800, Note_on_c, 4, 69, 0
6, 100800, Note_on_c, 4, 67, 100
6, 101280, Note_on_c, 4, 67, 0
6, 101280, Note_on_c, 4, 65, 100
6, 101568, Note_on_c, 4, 58, 0
6, 101760, Note_on_c, 4, 65, 0
6, 101760, Note_on_c, 4, 55, 100
6, 101760, Note_on_c, 4, 63, 100
6, 103680, Note_on_c, 4, 55, 0
6, 103680, Note_on_c, 4, 63, 0
6, 103680, Note_on_c, 4, 65, 100
6, 103680, Note_on_c, 4, 57, 100
6, 105600, Note_on_c, 4, 65, 0
6, 105600, Note_on_c, 4, 57, 0
6, 105600, Note_on_c, 4, 62, 100
6, 105600, Note_on_c, 4, 72, 100
6, 109248, Note_on_c, 4, 62, 0
6, 109248, Note_on_c, 4, 72, 0
6, 109440, Note_on_c, 4, 58, 100
6, 109440, Note_on_c, 4, 67, 100
6, 110304, Note_on_c, 4, 67, 0
6, 110400, Note_on_c, 4, 65, 100
6, 111264, Note_on_c, 4, 65, 0
6, 111360, Note_on_c, 4, 63, 100
6, 112224, Note_on_c, 4, 63, 0
6, 112320, Note_on_c, 4, 65, 100
6, 113088, Note_on_c, 4, 58, 0
6, 113184, Note_on_c, 4, 65, 0
6, 113280, Note_on_c, 4, 58, 100
6, 113280, Note_on_c, 4, 67, 100
6, 114144, Note_on_c, 4, 67, 0
6, 114240, Note_on_c, 4, 65, 100
6, 115104, Note_on_c, 4, 65, 0
6, 115200, Note_on_c, 4, 63, 100
6, 116064, Note_on_c, 4, 63, 0
6, 116160, Note_on_c, 4, 65, 100
6, 116928, Note_on_c, 4, 58, 0
6, 117024, Note_on_c, 4, 65, 0
6, 117024, End_track
7, 0, Start_track
7, 0, Title_t, ""
7, 0, MIDI_port, 0
7, 0, End_track
8, 0, Start_track
8, 0, Title_t, ""
8, 0, MIDI_port, 0
8, 0, End_track
9, 0, Start_track
9, 0, Title_t, ""
9, 0, MIDI_port, 0
9, 0, End_track
10, 0, Start_track
10, 0, Title_t, ""
10, 0, MIDI_port, 0
10, 0, End_track
11, 0, Start_track
11, 0, Title_t, ""
11, 0, MIDI_port, 0
11, 0, Control_c, 9, 11, 100
11, 30, Control_c, 9, 11, 100
11, 60, Control_c, 9, 11, 100
11, 90, Control_c, 9, 11, 101
11, 120, Control_c, 9, 11, 101
11, 150, Control_c, 9, 11, 102
11, 180, Control_c, 9, 11, 102
11, 210, Control_c, 9, 11, 103
11, 240, Control_c, 9, 11, 103
11, 270, Control_c, 9, 11, 103
11, 300, Control_c, 9, 11, 104
11, 330, Control_c, 9, 11, 104
11, 360, Control_c, 9, 11, 105
11, 390, Control_c, 9, 11, 105
11, 420, Control_c, 9, 11, 106
11, 450, Control_c, 9, 11, 106
11, 480, Control_c, 9, 11, 107
11, 510, Control_c, 9, 11, 107
11, 540, Control_c, 9, 11, 107
11, 570, Control_c, 9, 11, 108
11, 600, Control_c, 9, 11, 108
11, 630, Control_c, 9, 11, 109
11, 660, Control_c, 9, 11, 109
11, 690, Control_c, 9, 11, 110
11, 720, Control_c, 9, 11, 110
11, 750, Control_c, 9, 11, 111
11, 780, Control_c, 9, 11, 111
11, 810, Control_c, 9, 11, 111
11, 840, Control_c, 9, 11, 112
11, 870, Control_c, 9, 11, 112
11, 900, Control_c, 9, 11, 113
11, 930, Control_c, 9, 11, 113
11, 960, Control_c, 9, 11, 114
11, 990, Control_c, 9, 11, 114
11, 1020, Control_c, 9, 11, 115
11, 1050, Control_c, 9, 11, 115
11, 1080, Control_c, 9, 11, 115
11, 1110, Control_c, 9, 11, 116
11, 1140, Control_c, 9, 11, 116
11, 1170, Control_c, 9, 11, 117
11, 1200, Control_c, 9, 11, 117
11, 1230, Control_c, 9, 11, 118
11, 1260, Control_c, 9, 11, 118
11, 1290, Control_c, 9, 11, 119
11, 1320, Control_c, 9, 11, 119
11, 1350, Control_c, 9, 11, 119
11, 1380, Control_c, 9, 11, 120
11, 1410, Control_c, 9, 11, 120
11, 1440, Control_c, 9, 11, 121
11, 1470, Control_c, 9, 11, 121
11, 1500, Control_c, 9, 11, 122
11, 1530, Control_c, 9, 11, 122
11, 1560, Control_c, 9, 11, 123
11, 1590, Control_c, 9, 11, 123
11, 1620, Control_c, 9, 11, 123
11, 1650, Control_c, 9, 11, 124
11, 1680, Control_c, 9, 11, 124
11, 1710, Control_c, 9, 11, 125
11, 1740, Control_c, 9, 11, 125
11, 1770, Control_c, 9, 11, 126
11, 1800, Control_c, 9, 11, 126
11, 1830, Control_c, 9, 11, 127
11, 1860, Control_c, 9, 11, 127
11, 1920, Control_c, 9, 0, 0
11, 1920, Control_c, 9, 32, 0
11, 1920, Program_c, 9, 11
11, 1920, Note_on_c, 9, 51, 100
11, 1920, Note_on_c, 9, 10, 100
11, 1930, Note_on_c, 9, 51, 0
11, 1930, Note_on_c, 9, 10, 0
11, 2160, Note_on_c, 9, 36, 100
11, 2170, Note_on_c, 9, 36, 0
11, 2400, Note_on_c, 9, 51, 100
11, 2400, Note_on_c, 9, 10, 100
11, 2410, Note_on_c, 9, 51, 0
11, 2410, Note_on_c, 9, 10, 0
11, 2640, Note_on_c, 9, 36, 100
11, 2650, Note_on_c, 9, 36, 0
11, 2880, Note_on_c, 9, 51, 100
11, 2880, Note_on_c, 9, 10, 100
11, 2890, Note_on_c, 9, 51, 0
11, 2890, Note_on_c, 9, 10, 0
11, 3000, Note_on_c, 9, 10, 100
11, 3010, Note_on_c, 9, 10, 0
11, 3120, Note_on_c, 9, 36, 100
11, 3130, Note_on_c, 9, 36, 0
11, 3360, Note_on_c, 9, 51, 100
11, 3360, Note_on_c, 9, 10, 100
11, 3370, Note_on_c, 9, 51, 0
11, 3370, Note_on_c, 9, 10, 0
11, 3600, Note_on_c, 9, 36, 100
11, 3610, Note_on_c, 9, 36, 0
11, 3840, Note_on_c, 9, 51, 100
11, 3840, Note_on_c, 9, 10, 100
11, 3850, Note_on_c, 9, 51, 0
11, 3850, Note_on_c, 9, 10, 0
11, 4080, Note_on_c, 9, 36, 100
11, 4090, Note_on_c, 9, 36, 0
11, 4320, Note_on_c, 9, 51, 100
11, 4320, Note_on_c, 9, 10, 100
11, 4330, Note_on_c, 9, 51, 0
11, 4330, Note_on_c, 9, 10, 0
11, 4560, Note_on_c, 9, 36, 100
11, 4570, Note_on_c, 9, 36, 0
11, 4800, Note_on_c, 9, 51, 100
11, 4800, Note_on_c, 9, 10, 100
11, 4810, Note_on_c, 9, 51, 0
11, 4810, Note_on_c, 9, 10, 0
11, 4920, Note_on_c, 9, 10, 100
11, 4930, Note_on_c, 9, 10, 0
11, 5040, Note_on_c, 9, 36, 100
11, 5050, Note_on_c, 9, 36, 0
11, 5280, Note_on_c, 9, 51, 100
11, 5280, Note_on_c, 9, 10, 100
11, 5290, Note_on_c, 9, 51, 0
11, 5290, Note_on_c, 9, 10, 0
11, 5520, Note_on_c, 9, 36, 100
11, 5530, Note_on_c, 9, 36, 0
11, 5760, Note_on_c, 9, 10, 100
11, 5760, Note_on_c, 9, 51, 100
11, 5760, Note_on_c, 9, 44, 100
11, 5770, Note_on_c, 9, 10, 0
11, 5770, Note_on_c, 9, 51, 0
11, 5770, Note_on_c, 9, 44, 0
11, 5880, Note_on_c, 9, 44, 100
11, 5890, Note_on_c, 9, 44, 0
11, 6000, Note_on_c, 9, 44, 100
11, 6000, Note_on_c, 9, 36, 100
11, 6010, Note_on_c, 9, 44, 0
11, 6010, Note_on_c, 9, 36, 0
11, 6240, Note_on_c, 9, 44, 100
11, 6240, Note_on_c, 9, 10, 100
11, 6250, Note_on_c, 9, 44, 0
11, 6250, Note_on_c, 9, 10, 0
11, 6360, Note_on_c, 9, 44, 100
11, 6370, Note_on_c, 9, 44, 0
11, 6480, Note_on_c, 9, 44, 100
11, 6480, Note_on_c, 9, 36, 100
11, 6490, Note_on_c, 9, 44, 0
11, 6490, Note_on_c, 9, 36, 0
11, 6720, Note_on_c, 9, 44, 100
11, 6720, Note_on_c, 9, 10, 100
11, 6730, Note_on_c, 9, 44, 0
11, 6730, Note_on_c, 9, 10, 0
11, 6840, Note_on_c, 9, 44, 100
11, 6840, Note_on_c, 9, 10, 100
11, 6850, Note_on_c, 9, 44, 0
11, 6850, Note_on_c, 9, 10, 0
11, 6960, Note_on_c, 9, 44, 100
11, 6960, Note_on_c, 9, 36, 100
11, 6970, Note_on_c, 9, 44, 0
11, 6970, Note_on_c, 9, 36, 0
11, 7200, Note_on_c, 9, 44, 100
11, 7200, Note_on_c, 9, 10, 100
11, 7210, Note_on_c, 9, 44, 0
11, 7210, Note_on_c, 9, 10, 0
11, 7320, Note_on_c, 9, 44, 100
11, 7330, Note_on_c, 9, 44, 0
11, 7440, Note_on_c, 9, 44, 100
11, 7440, Note_on_c, 9, 36, 100
11, 7450, Note_on_c, 9, 44, 0
11, 7450, Note_on_c, 9, 36, 0
11, 7680, Note_on_c, 9, 10, 100
11, 7680, Note_on_c, 9, 44, 100
11, 7690, Note_on_c, 9, 10, 0
11, 7690, Note_on_c, 9, 44, 0
11, 7800, Note_on_c, 9, 44, 100
11, 7810, Note_on_c, 9, 44, 0
11, 7920, Note_on_c, 9, 44, 100
11, 7920, Note_on_c, 9, 36, 100
11, 7930, Note_on_c, 9, 44, 0
11, 7930, Note_on_c, 9, 36, 0
11, 8160, Note_on_c, 9, 44, 100
11, 8160, Note_on_c, 9, 10, 100
11, 8170, Note_on_c, 9, 44, 0
11, 8170, Note_on_c, 9, 10, 0
11, 8280, Note_on_c, 9, 44, 100
11, 8290, Note_on_c, 9, 44, 0
11, 8400, Note_on_c, 9, 44, 100
11, 8400, Note_on_c, 9, 36, 100
11, 8410, Note_on_c, 9, 44, 0
11, 8410, Note_on_c, 9, 36, 0
11, 8640, Note_on_c, 9, 10, 100
11, 8640, Note_on_c, 9, 51, 100
11, 8640, Note_on_c, 9, 44, 100
11, 8650, Note_on_c, 9, 10, 0
11, 8650, Note_on_c, 9, 51, 0
11, 8650, Note_on_c, 9, 44, 0
11, 8760, Note_on_c, 9, 44, 100
11, 8760, Note_on_c, 9, 10, 100
11, 8770, Note_on_c, 9, 44, 0
11, 8770, Note_on_c, 9, 10, 0
11, 8880, Note_on_c, 9, 44, 100
11, 8880, Note_on_c, 9, 36, 100
11, 8890, Note_on_c, 9, 44, 0
11, 8890, Note_on_c, 9, 36, 0
11, 9120, Note_on_c, 9, 10, 100
11, 9120, Note_on_c, 9, 51, 100
11, 9120, Note_on_c, 9, 44, 100
11, 9130, Note_on_c, 9, 10, 0
11, 9130, Note_on_c, 9, 51, 0
11, 9130, Note_on_c, 9, 44, 0
11, 9240, Note_on_c, 9, 44, 100
11, 9250, Note_on_c, 9, 44, 0
11, 9360, Note_on_c, 9, 44, 100
11, 9360, Note_on_c, 9, 36, 100
11, 9370, Note_on_c, 9, 44, 0
11, 9370, Note_on_c, 9, 36, 0
11, 9600, Note_on_c, 9, 51, 100
11, 9600, Note_on_c, 9, 44, 100
11, 9600, Note_on_c, 9, 10, 100
11, 9610, Note_on_c, 9, 51, 0
11, 9610, Note_on_c, 9, 44, 0
11, 9610, Note_on_c, 9, 10, 0
11, 9720, Note_on_c, 9, 44, 100
11, 9730, Note_on_c, 9, 44, 0
11, 9840, Note_on_c, 9, 36, 100
11, 9840, Note_on_c, 9, 44, 100
11, 9850, Note_on_c, 9, 36, 0
11, 9850, Note_on_c, 9, 44, 0
11, 10080, Note_on_c, 9, 10, 100
11, 10080, Note_on_c, 9, 44, 100
11, 10090, Note_on_c, 9, 10, 0
11, 10090, Note_on_c, 9, 44, 0
11, 10200, Note_on_c, 9, 44, 100
11, 10210, Note_on_c, 9, 44, 0
11, 10320, Note_on_c, 9, 36, 100
11, 10320, Note_on_c, 9, 44, 100
11, 10330, Note_on_c, 9, 36, 0
11, 10330, Note_on_c, 9, 44, 0
11, 10560, Note_on_c, 9, 10, 100
11, 10560, Note_on_c, 9, 44, 100
11, 10570, Note_on_c, 9, 10, 0
11, 10570, Note_on_c, 9, 44, 0
11, 10680, Note_on_c, 9, 10, 100
11, 10680, Note_on_c, 9, 44, 100
11, 10690, Note_on_c, 9, 10, 0
11, 10690, Note_on_c, 9, 44, 0
11, 10800, Note_on_c, 9, 36, 100
11, 10800, Note_on_c, 9, 44, 100
11, 10810, Note_on_c, 9, 36, 0
11, 10810, Note_on_c, 9, 44, 0
11, 11040, Note_on_c, 9, 10, 100
11, 11040, Note_on_c, 9, 44, 100
11, 11050, Note_on_c, 9, 10, 0
11, 11050, Note_on_c, 9, 44, 0
11, 11160, Note_on_c, 9, 44, 100
11, 11170, Note_on_c, 9, 44, 0
11, 11280, Note_on_c, 9, 36, 100
11, 11280, Note_on_c, 9, 44, 100
11, 11290, Note_on_c, 9, 36, 0
11, 11290, Note_on_c, 9, 44, 0
11, 11520, Note_on_c, 9, 44, 100
11, 11520, Note_on_c, 9, 10, 100
11, 11530, Note_on_c, 9, 44, 0
11, 11530, Note_on_c, 9, 10, 0
11, 11640, Note_on_c, 9, 44, 100
11, 11650, Note_on_c, 9, 44, 0
11, 11760, Note_on_c, 9, 36, 100
11, 11760, Note_on_c, 9, 44, 100
11, 11770, Note_on_c, 9, 36, 0
11, 11770, Note_on_c, 9, 44, 0
11, 12000, Note_on_c, 9, 10, 100
11, 12000, Note_on_c, 9, 44, 100
11, 12010, Note_on_c, 9, 10, 0
11, 12010, Note_on_c, 9, 44, 0
11, 12120, Note_on_c, 9, 44, 100
11, 12130, Note_on_c, 9, 44, 0
11, 12240, Note_on_c, 9, 36, 100
11, 12240, Note_on_c, 9, 44, 100
11, 12250, Note_on_c, 9, 36, 0
11, 12250, Note_on_c, 9, 44, 0
11, 12480, Note_on_c, 9, 51, 100
11, 12480, Note_on_c, 9, 44, 100
11, 12480, Note_on_c, 9, 10, 100
11, 12490, Note_on_c, 9, 51, 0
11, 12490, Note_on_c, 9, 44, 0
11, 12490, Note_on_c, 9, 10, 0
11, 12600, Note_on_c, 9, 10, 100
11, 12600, Note_on_c, 9, 44, 100
11, 12610, Note_on_c, 9, 10, 0
11, 12610, Note_on_c, 9, 44, 0
11, 12720, Note_on_c, 9, 36, 100
11, 12720, Note_on_c, 9, 44, 100
11, 12730, Note_on_c, 9, 36, 0
11, 12730, Note_on_c, 9, 44, 0
11, 12960, Note_on_c, 9, 51, 100
11, 12960, Note_on_c, 9, 44, 100
11, 12960, Note_on_c, 9, 10, 100
11, 12970, Note_on_c, 9, 51, 0
11, 12970, Note_on_c, 9, 44, 0
11, 12970, Note_on_c, 9, 10, 0
11, 13080, Note_on_c, 9, 44, 100
11, 13090, Note_on_c, 9, 44, 0
11, 13200, Note_on_c, 9, 36, 100
11, 13200, Note_on_c, 9, 44, 100
11, 13210, Note_on_c, 9, 36, 0
11, 13210, Note_on_c, 9, 44, 0
11, 13440, Note_on_c, 9, 44, 100
11, 13440, Note_on_c, 9, 10, 100
11, 13440, Note_on_c, 9, 51, 100
11, 13450, Note_on_c, 9, 44, 0
11, 13450, Note_on_c, 9, 10, 0
11, 13450, Note_on_c, 9, 51, 0
11, 13560, Note_on_c, 9, 44, 100
11, 13570, Note_on_c, 9, 44, 0
11, 13680, Note_on_c, 9, 44, 100
11, 13680, Note_on_c, 9, 36, 100
11, 13690, Note_on_c, 9, 44, 0
11, 13690, Note_on_c, 9, 36, 0
11, 13920, Note_on_c, 9, 44, 100
11, 13920, Note_on_c, 9, 10, 100
11, 13930, Note_on_c, 9, 44, 0
11, 13930, Note_on_c, 9, 10, 0
11, 14040, Note_on_c, 9, 44, 100
11, 14050, Note_on_c, 9, 44, 0
11, 14160, Note_on_c, 9, 44, 100
11, 14160, Note_on_c, 9, 36, 100
11, 14170, Note_on_c, 9, 44, 0
11, 14170, Note_on_c, 9, 36, 0
11, 14400, Note_on_c, 9, 44, 100
11, 14400, Note_on_c, 9, 10, 100
11, 14410, Note_on_c, 9, 44, 0
11, 14410, Note_on_c, 9, 10, 0
11, 14520, Note_on_c, 9, 44, 100
11, 14520, Note_on_c, 9, 10, 100
11, 14530, Note_on_c, 9, 44, 0
11, 14530, Note_on_c, 9, 10, 0
11, 14640, Note_on_c, 9, 44, 100
11, 14640, Note_on_c, 9, 36, 100
11, 14650, Note_on_c, 9, 44, 0
11, 14650, Note_on_c, 9, 36, 0
11, 14880, Note_on_c, 9, 44, 100
11, 14880, Note_on_c, 9, 10, 100
11, 14890, Note_on_c, 9, 44, 0
11, 14890, Note_on_c, 9, 10, 0
11, 15000, Note_on_c, 9, 44, 100
11, 15010, Note_on_c, 9, 44, 0
11, 15120, Note_on_c, 9, 44, 100
11, 15120, Note_on_c, 9, 36, 100
11, 15130, Note_on_c, 9, 44, 0
11, 15130, Note_on_c, 9, 36, 0
11, 15360, Note_on_c, 9, 10, 100
11, 15360, Note_on_c, 9, 44, 100
11, 15370, Note_on_c, 9, 10, 0
11, 15370, Note_on_c, 9, 44, 0
11, 15480, Note_on_c, 9, 44, 100
11, 15490, Note_on_c, 9, 44, 0
11, 15600, Note_on_c, 9, 44, 100
11, 15600, Note_on_c, 9, 36, 100
11, 15610, Note_on_c, 9, 44, 0
11, 15610, Note_on_c, 9, 36, 0
11, 15840, Note_on_c, 9, 44, 100
11, 15840, Note_on_c, 9, 10, 100
11, 15850, Note_on_c, 9, 44, 0
11, 15850, Note_on_c, 9, 10, 0
11, 15960, Note_on_c, 9, 44, 100
11, 15970, Note_on_c, 9, 44, 0
11, 16080, Note_on_c, 9, 44, 100
11, 16080, Note_on_c, 9, 36, 100
11, 16090, Note_on_c, 9, 44, 0
11, 16090, Note_on_c, 9, 36, 0
11, 16320, Note_on_c, 9, 44, 100
11, 16320, Note_on_c, 9, 10, 100
11, 16320, Note_on_c, 9, 51, 100
11, 16330, Note_on_c, 9, 44, 0
11, 16330, Note_on_c, 9, 10, 0
11, 16330, Note_on_c, 9, 51, 0
11, 16440, Note_on_c, 9, 44, 100
11, 16440, Note_on_c, 9, 10, 100
11, 16450, Note_on_c, 9, 44, 0
11, 16450, Note_on_c, 9, 10, 0
11, 16560, Note_on_c, 9, 44, 100
11, 16560, Note_on_c, 9, 36, 100
11, 16570, Note_on_c, 9, 44, 0
11, 16570, Note_on_c, 9, 36, 0
11, 16800, Note_on_c, 9, 44, 100
11, 16800, Note_on_c, 9, 10, 100
11, 16800, Note_on_c, 9, 51, 100
11, 16810, Note_on_c, 9, 44, 0
11, 16810, Note_on_c, 9, 10, 0
11, 16810, Note_on_c, 9, 51, 0
11, 16920, Note_on_c, 9, 44, 100
11, 16930, Note_on_c, 9, 44, 0
11, 17040, Note_on_c, 9, 44, 100
11, 17040, Note_on_c, 9, 36, 100
11, 17050, Note_on_c, 9, 44, 0
11, 17050, Note_on_c, 9, 36, 0
11, 17280, Note_on_c, 9, 10, 100
11, 17280, Note_on_c, 9, 51, 100
11, 17280, Note_on_c, 9, 44, 100
11, 17290, Note_on_c, 9, 10, 0
11, 17290, Note_on_c, 9, 51, 0
11, 17290, Note_on_c, 9, 44, 0
11, 17400, Note_on_c, 9, 44, 100
11, 17410, Note_on_c, 9, 44, 0
11, 17520, Note_on_c, 9, 36, 100
11, 17520, Note_on_c, 9, 44, 100
11, 17530, Note_on_c, 9, 36, 0
11, 17530, Note_on_c, 9, 44, 0
11, 17760, Note_on_c, 9, 10, 100
11, 17760, Note_on_c, 9, 44, 100
11, 17770, Note_on_c, 9, 10, 0
11, 17770, Note_on_c, 9, 44, 0
11, 17880, Note_on_c, 9, 44, 100
11, 17890, Note_on_c, 9, 44, 0
11, 18000, Note_on_c, 9, 36, 100
11, 18000, Note_on_c, 9, 44, 100
11, 18010, Note_on_c, 9, 36, 0
11, 18010, Note_on_c, 9, 44, 0
11, 18240, Note_on_c, 9, 10, 100
11, 18240, Note_on_c, 9, 44, 100
11, 18250, Note_on_c, 9, 10, 0
11, 18250, Note_on_c, 9, 44, 0
11, 18360, Note_on_c, 9, 10, 100
11, 18360, Note_on_c, 9, 44, 100
11, 18370, Note_on_c, 9, 10, 0
11, 18370, Note_on_c, 9, 44, 0
11, 18480, Note_on_c, 9, 36, 100
11, 18480, Note_on_c, 9, 44, 100
11, 18490, Note_on_c, 9, 36, 0
11, 18490, Note_on_c, 9, 44, 0
11, 18720, Note_on_c, 9, 10, 100
11, 18720, Note_on_c, 9, 44, 100
11, 18730, Note_on_c, 9, 10, 0
11, 18730, Note_on_c, 9, 44, 0
11, 18840, Note_on_c, 9, 44, 100
11, 18850, Note_on_c, 9, 44, 0
11, 18960, Note_on_c, 9, 36, 100
11, 18960, Note_on_c, 9, 44, 100
11, 18970, Note_on_c, 9, 36, 0
11, 18970, Note_on_c, 9, 44, 0
11, 19200, Note_on_c, 9, 44, 100
11, 19200, Note_on_c, 9, 10, 100
11, 19210, Note_on_c, 9, 44, 0
11, 19210, Note_on_c, 9, 10, 0
11, 19320, Note_on_c, 9, 44, 100
11, 19330, Note_on_c, 9, 44, 0
11, 19440, Note_on_c, 9, 36, 100
11, 19440, Note_on_c, 9, 44, 100
11, 19450, Note_on_c, 9, 36, 0
11, 19450, Note_on_c, 9, 44, 0
11, 19680, Note_on_c, 9, 10, 100
11, 19680, Note_on_c, 9, 44, 100
11, 19690, Note_on_c, 9, 10, 0
11, 19690, Note_on_c, 9, 44, 0
11, 19800, Note_on_c, 9, 44, 100
11, 19810, Note_on_c, 9, 44, 0
11, 19920, Note_on_c, 9, 36, 100
11, 19920, Note_on_c, 9, 44, 100
11, 19930, Note_on_c, 9, 36, 0
11, 19930, Note_on_c, 9, 44, 0
11, 20160, Note_on_c, 9, 10, 100
11, 20160, Note_on_c, 9, 51, 100
11, 20160, Note_on_c, 9, 44, 100
11, 20170, Note_on_c, 9, 10, 0
11, 20170, Note_on_c, 9, 51, 0
11, 20170, Note_on_c, 9, 44, 0
11, 20280, Note_on_c, 9, 10, 100
11, 20280, Note_on_c, 9, 44, 100
11, 20290, Note_on_c, 9, 10, 0
11, 20290, Note_on_c, 9, 44, 0
11, 20400, Note_on_c, 9, 36, 100
11, 20400, Note_on_c, 9, 44, 100
11, 20410, Note_on_c, 9, 36, 0
11, 20410, Note_on_c, 9, 44, 0
11, 20640, Note_on_c, 9, 10, 100
11, 20640, Note_on_c, 9, 51, 100
11, 20640, Note_on_c, 9, 44, 100
11, 20650, Note_on_c, 9, 10, 0
11, 20650, Note_on_c, 9, 51, 0
11, 20650, Note_on_c, 9, 44, 0
11, 20760, Note_on_c, 9, 44, 100
11, 20770, Note_on_c, 9, 44, 0
11, 20880, Note_on_c, 9, 36, 100
11, 20880, Note_on_c, 9, 44, 100
11, 20890, Note_on_c, 9, 36, 0
11, 20890, Note_on_c, 9, 44, 0
11, 21120, Note_on_c, 9, 51, 100
11, 21120, Note_on_c, 9, 44, 100
11, 21120, Note_on_c, 9, 10, 100
11, 21130, Note_on_c, 9, 51, 0
11, 21130, Note_on_c, 9, 44, 0
11, 21130, Note_on_c, 9, 10, 0
11, 21240, Note_on_c, 9, 44, 100
11, 21250, Note_on_c, 9, 44, 0
11, 21360, Note_on_c, 9, 36, 100
11, 21360, Note_on_c, 9, 44, 100
11, 21370, Note_on_c, 9, 36, 0
11, 21370, Note_on_c, 9, 44, 0
11, 21600, Note_on_c, 9, 10, 100
11, 21600, Note_on_c, 9, 44, 100
11, 21610, Note_on_c, 9, 10, 0
11, 21610, Note_on_c, 9, 44, 0
11, 21720, Note_on_c, 9, 44, 100
11, 21730, Note_on_c, 9, 44, 0
11, 21840, Note_on_c, 9, 36, 100
11, 21840, Note_on_c, 9, 44, 100
11, 21850, Note_on_c, 9, 36, 0
11, 21850, Note_on_c, 9, 44, 0
11, 22080, Note_on_c, 9, 10, 100
11, 22080, Note_on_c, 9, 44, 100
11, 22090, Note_on_c, 9, 10, 0
11, 22090, Note_on_c, 9, 44, 0
11, 22200, Note_on_c, 9, 10, 100
11, 22200, Note_on_c, 9, 44, 100
11, 22210, Note_on_c, 9, 10, 0
11, 22210, Note_on_c, 9, 44, 0
11, 22320, Note_on_c, 9, 36, 100
11, 22320, Note_on_c, 9, 44, 100
11, 22330, Note_on_c, 9, 36, 0
11, 22330, Note_on_c, 9, 44, 0
11, 22560, Note_on_c, 9, 10, 100
11, 22560, Note_on_c, 9, 44, 100
11, 22570, Note_on_c, 9, 10, 0
11, 22570, Note_on_c, 9, 44, 0
11, 22680, Note_on_c, 9, 44, 100
11, 22690, Note_on_c, 9, 44, 0
11, 22800, Note_on_c, 9, 36, 100
11, 22800, Note_on_c, 9, 44, 100
11, 22810, Note_on_c, 9, 36, 0
11, 22810, Note_on_c, 9, 44, 0
11, 23040, Note_on_c, 9, 44, 100
11, 23040, Note_on_c, 9, 10, 100
11, 23050, Note_on_c, 9, 44, 0
11, 23050, Note_on_c, 9, 10, 0
11, 23160, Note_on_c, 9, 44, 100
11, 23170, Note_on_c, 9, 44, 0
11, 23280, Note_on_c, 9, 36, 100
11, 23280, Note_on_c, 9, 44, 100
11, 23290, Note_on_c, 9, 36, 0
11, 23290, Note_on_c, 9, 44, 0
11, 23520, Note_on_c, 9, 10, 100
11, 23520, Note_on_c, 9, 44, 100
11, 23530, Note_on_c, 9, 10, 0
11, 23530, Note_on_c, 9, 44, 0
11, 23640, Note_on_c, 9, 44, 100
11, 23650, Note_on_c, 9, 44, 0
11, 23760, Note_on_c, 9, 36, 100
11, 23760, Note_on_c, 9, 44, 100
11, 23770, Note_on_c, 9, 36, 0
11, 23770, Note_on_c, 9, 44, 0
11, 24000, Note_on_c, 9, 51, 100
11, 24000, Note_on_c, 9, 44, 100
11, 24000, Note_on_c, 9, 10, 100
11, 24010, Note_on_c, 9, 51, 0
11, 24010, Note_on_c, 9, 44, 0
11, 24010, Note_on_c, 9, 10, 0
11, 24120, Note_on_c, 9, 10, 100
11, 24120, Note_on_c, 9, 44, 100
11, 24130, Note_on_c, 9, 10, 0
11, 24130, Note_on_c, 9, 44, 0
11, 24240, Note_on_c, 9, 36, 100
11, 24240, Note_on_c, 9, 44, 100
11, 24250, Note_on_c, 9, 36, 0
11, 24250, Note_on_c, 9, 44, 0
11, 24480, Note_on_c, 9, 51, 100
11, 24480, Note_on_c, 9, 44, 100
11, 24480, Note_on_c, 9, 10, 100
11, 24490, Note_on_c, 9, 51, 0
11, 24490, Note_on_c, 9, 44, 0
11, 24490, Note_on_c, 9, 10, 0
11, 24600, Note_on_c, 9, 44, 100
11, 24610, Note_on_c, 9, 44, 0
11, 24720, Note_on_c, 9, 36, 100
11, 24720, Note_on_c, 9, 44, 100
11, 24730, Note_on_c, 9, 36, 0
11, 24730, Note_on_c, 9, 44, 0
11, 24960, Note_on_c, 9, 44, 100
11, 24960, Note_on_c, 9, 10, 100
11, 24960, Note_on_c, 9, 51, 100
11, 24970, Note_on_c, 9, 44, 0
11, 24970, Note_on_c, 9, 10, 0
11, 24970, Note_on_c, 9, 51, 0
11, 25080, Note_on_c, 9, 44, 100
11, 25090, Note_on_c, 9, 44, 0
11, 25200, Note_on_c, 9, 44, 100
11, 25200, Note_on_c, 9, 36, 100
11, 25210, Note_on_c, 9, 44, 0
11, 25210, Note_on_c, 9, 36, 0
11, 25440, Note_on_c, 9, 44, 100
11, 25440, Note_on_c, 9, 10, 100
11, 25450, Note_on_c, 9, 44, 0
11, 25450, Note_on_c, 9, 10, 0
11, 25560, Note_on_c, 9, 44, 100
11, 25570, Note_on_c, 9, 44, 0
11, 25680, Note_on_c, 9, 44, 100
11, 25680, Note_on_c, 9, 36, 100
11, 25690, Note_on_c, 9, 44, 0
11, 25690, Note_on_c, 9, 36, 0
11, 25920, Note_on_c, 9, 44, 100
11, 25920, Note_on_c, 9, 10, 100
11, 25930, Note_on_c, 9, 44, 0
11, 25930, Note_on_c, 9, 10, 0
11, 26040, Note_on_c, 9, 44, 100
11, 26040, Note_on_c, 9, 10, 100
11, 26050, Note_on_c, 9, 44, 0
11, 26050, Note_on_c, 9, 10, 0
11, 26160, Note_on_c, 9, 44, 100
11, 26160, Note_on_c, 9, 36, 100
11, 26170, Note_on_c, 9, 44, 0
11, 26170, Note_on_c, 9, 36, 0
11, 26400, Note_on_c, 9, 44, 100
11, 26400, Note_on_c, 9, 10, 100
11, 26410, Note_on_c, 9, 44, 0
11, 26410, Note_on_c, 9, 10, 0
11, 26520, Note_on_c, 9, 44, 100
11, 26530, Note_on_c, 9, 44, 0
11, 26640, Note_on_c, 9, 44, 100
11, 26640, Note_on_c, 9, 36, 100
11, 26650, Note_on_c, 9, 44, 0
11, 26650, Note_on_c, 9, 36, 0
11, 26880, Note_on_c, 9, 44, 100
11, 26880, Note_on_c, 9, 10, 100
11, 26890, Note_on_c, 9, 44, 0
11, 26890, Note_on_c, 9, 10, 0
11, 27000, Note_on_c, 9, 44, 100
11, 27010, Note_on_c, 9, 44, 0
11, 27120, Note_on_c, 9, 36, 100
11, 27120, Note_on_c, 9, 44, 100
11, 27130, Note_on_c, 9, 36, 0
11, 27130, Note_on_c, 9, 44, 0
11, 27360, Note_on_c, 9, 44, 100
11, 27360, Note_on_c, 9, 10, 100
11, 27370, Note_on_c, 9, 44, 0
11, 27370, Note_on_c, 9, 10, 0
11, 27480, Note_on_c, 9, 44, 100
11, 27490, Note_on_c, 9, 44, 0
11, 27600, Note_on_c, 9, 44, 100
11, 27600, Note_on_c, 9, 36, 100
11, 27610, Note_on_c, 9, 44, 0
11, 27610, Note_on_c, 9, 36, 0
11, 27840, Note_on_c, 9, 44, 100
11, 27840, Note_on_c, 9, 10, 100
11, 27840, Note_on_c, 9, 51, 100
11, 27850, Note_on_c, 9, 44, 0
11, 27850, Note_on_c, 9, 10, 0
11, 27850, Note_on_c, 9, 51, 0
11, 27960, Note_on_c, 9, 10, 100
11, 27960, Note_on_c, 9, 44, 100
11, 27970, Note_on_c, 9, 10, 0
11, 27970, Note_on_c, 9, 44, 0
11, 28080, Note_on_c, 9, 36, 100
11, 28080, Note_on_c, 9, 44, 100
11, 28090, Note_on_c, 9, 36, 0
11, 28090, Note_on_c, 9, 44, 0
11, 28320, Note_on_c, 9, 44, 100
11, 28320, Note_on_c, 9, 10, 100
11, 28320, Note_on_c, 9, 51, 100
11, 28330, Note_on_c, 9, 44, 0
11, 28330, Note_on_c, 9, 10, 0
11, 28330, Note_on_c, 9, 51, 0
11, 28440, Note_on_c, 9, 44, 100
11, 28450, Note_on_c, 9, 44, 0
11, 28560, Note_on_c, 9, 36, 100
11, 28560, Note_on_c, 9, 44, 100
11, 28570, Note_on_c, 9, 36, 0
11, 28570, Note_on_c, 9, 44, 0
11, 28800, Note_on_c, 9, 51, 100
11, 28800, Note_on_c, 9, 44, 100
11, 28800, Note_on_c, 9, 10, 100
11, 28810, Note_on_c, 9, 51, 0
11, 28810, Note_on_c, 9, 44, 0
11, 28810, Note_on_c, 9, 10, 0
11, 28920, Note_on_c, 9, 44, 100
11, 28930, Note_on_c, 9, 44, 0
11, 29040, Note_on_c, 9, 36, 100
11, 29040, Note_on_c, 9, 44, 100
11, 29050, Note_on_c, 9, 36, 0
11, 29050, Note_on_c, 9, 44, 0
11, 29280, Note_on_c, 9, 10, 100
11, 29280, Note_on_c, 9, 44, 100
11, 29290, Note_on_c, 9, 10, 0
11, 29290, Note_on_c, 9, 44, 0
11, 29400, Note_on_c, 9, 44, 100
11, 29410, Note_on_c, 9, 44, 0
11, 29520, Note_on_c, 9, 36, 100
11, 29520, Note_on_c, 9, 44, 100
11, 29530, Note_on_c, 9, 36, 0
11, 29530, Note_on_c, 9, 44, 0
11, 29760, Note_on_c, 9, 10, 100
11, 29760, Note_on_c, 9, 44, 100
11, 29770, Note_on_c, 9, 10, 0
11, 29770, Note_on_c, 9, 44, 0
11, 29880, Note_on_c, 9, 10, 100
11, 29880, Note_on_c, 9, 44, 100
11, 29890, Note_on_c, 9, 10, 0
11, 29890, Note_on_c, 9, 44, 0
11, 30000, Note_on_c, 9, 36, 100
11, 30000, Note_on_c, 9, 44, 100
11, 30010, Note_on_c, 9, 36, 0
11, 30010, Note_on_c, 9, 44, 0
11, 30240, Note_on_c, 9, 10, 100
11, 30240, Note_on_c, 9, 44, 100
11, 30250, Note_on_c, 9, 10, 0
11, 30250, Note_on_c, 9, 44, 0
11, 30360, Note_on_c, 9, 44, 100
11, 30370, Note_on_c, 9, 44, 0
11, 30480, Note_on_c, 9, 36, 100
11, 30480, Note_on_c, 9, 44, 100
11, 30490, Note_on_c, 9, 36, 0
11, 30490, Note_on_c, 9, 44, 0
11, 30720, Note_on_c, 9, 44, 100
11, 30720, Note_on_c, 9, 10, 100
11, 30730, Note_on_c, 9, 44, 0
11, 30730, Note_on_c, 9, 10, 0
11, 30840, Note_on_c, 9, 44, 100
11, 30850, Note_on_c, 9, 44, 0
11, 30960, Note_on_c, 9, 36, 100
11, 30960, Note_on_c, 9, 44, 100
11, 30970, Note_on_c, 9, 36, 0
11, 30970, Note_on_c, 9, 44, 0
11, 31200, Note_on_c, 9, 10, 100
11, 31200, Note_on_c, 9, 44, 100
11, 31210, Note_on_c, 9, 10, 0
11, 31210, Note_on_c, 9, 44, 0
11, 31320, Note_on_c, 9, 44, 100
11, 31330, Note_on_c, 9, 44, 0
11, 31440, Note_on_c, 9, 36, 100
11, 31440, Note_on_c, 9, 44, 100
11, 31450, Note_on_c, 9, 36, 0
11, 31450, Note_on_c, 9, 44, 0
11, 31680, Note_on_c, 9, 51, 100
11, 31680, Note_on_c, 9, 44, 100
11, 31680, Note_on_c, 9, 10, 100
11, 31690, Note_on_c, 9, 51, 0
11, 31690, Note_on_c, 9, 44, 0
11, 31690, Note_on_c, 9, 10, 0
11, 31800, Note_on_c, 9, 10, 100
11, 31800, Note_on_c, 9, 44, 100
11, 31810, Note_on_c, 9, 10, 0
11, 31810, Note_on_c, 9, 44, 0
11, 31920, Note_on_c, 9, 36, 100
11, 31920, Note_on_c, 9, 44, 100
11, 31930, Note_on_c, 9, 36, 0
11, 31930, Note_on_c, 9, 44, 0
11, 32160, Note_on_c, 9, 51, 100
11, 32160, Note_on_c, 9, 44, 100
11, 32160, Note_on_c, 9, 10, 100
11, 32170, Note_on_c, 9, 51, 0
11, 32170, Note_on_c, 9, 44, 0
11, 32170, Note_on_c, 9, 10, 0
11, 32280, Note_on_c, 9, 44, 100
11, 32290, Note_on_c, 9, 44, 0
11, 32400, Note_on_c, 9, 36, 100
11, 32400, Note_on_c, 9, 44, 100
11, 32410, Note_on_c, 9, 36, 0
11, 32410, Note_on_c, 9, 44, 0
11, 32640, Note_on_c, 9, 44, 100
11, 32640, Note_on_c, 9, 10, 100
11, 32640, Note_on_c, 9, 51, 100
11, 32650, Note_on_c, 9, 44, 0
11, 32650, Note_on_c, 9, 10, 0
11, 32650, Note_on_c, 9, 51, 0
11, 32760, Note_on_c, 9, 44, 100
11, 32770, Note_on_c, 9, 44, 0
11, 32880, Note_on_c, 9, 44, 100
11, 32880, Note_on_c, 9, 36, 100
11, 32890, Note_on_c, 9, 44, 0
11, 32890, Note_on_c, 9, 36, 0
11, 33120, Note_on_c, 9, 44, 100
11, 33120, Note_on_c, 9, 10, 100
11, 33130, Note_on_c, 9, 44, 0
11, 33130, Note_on_c, 9, 10, 0
11, 33240, Note_on_c, 9, 44, 100
11, 33250, Note_on_c, 9, 44, 0
11, 33360, Note_on_c, 9, 44, 100
11, 33360, Note_on_c, 9, 36, 100
11, 33370, Note_on_c, 9, 44, 0
11, 33370, Note_on_c, 9, 36, 0
11, 33600, Note_on_c, 9, 44, 100
11, 33600, Note_on_c, 9, 10, 100
11, 33610, Note_on_c, 9, 44, 0
11, 33610, Note_on_c, 9, 10, 0
11, 33720, Note_on_c, 9, 44, 100
11, 33720, Note_on_c, 9, 10, 100
11, 33730, Note_on_c, 9, 44, 0
11, 33730, Note_on_c, 9, 10, 0
11, 33840, Note_on_c, 9, 44, 100
11, 33840, Note_on_c, 9, 36, 100
11, 33850, Note_on_c, 9, 44, 0
11, 33850, Note_on_c, 9, 36, 0
11, 34080, Note_on_c, 9, 44, 100
11, 34080, Note_on_c, 9, 10, 100
11, 34090, Note_on_c, 9, 44, 0
11, 34090, Note_on_c, 9, 10, 0
11, 34200, Note_on_c, 9, 44, 100
11, 34210, Note_on_c, 9, 44, 0
11, 34320, Note_on_c, 9, 44, 100
11, 34320, Note_on_c, 9, 36, 100
11, 34330, Note_on_c, 9, 44, 0
11, 34330, Note_on_c, 9, 36, 0
11, 34560, Note_on_c, 9, 44, 100
11, 34560, Note_on_c, 9, 10, 100
11, 34570, Note_on_c, 9, 44, 0
11, 34570, Note_on_c, 9, 10, 0
11, 34680, Note_on_c, 9, 44, 100
11, 34690, Note_on_c, 9, 44, 0
11, 34800, Note_on_c, 9, 36, 100
11, 34800, Note_on_c, 9, 44, 100
11, 34810, Note_on_c, 9, 36, 0
11, 34810, Note_on_c, 9, 44, 0
11, 35040, Note_on_c, 9, 44, 100
11, 35040, Note_on_c, 9, 10, 100
11, 35050, Note_on_c, 9, 44, 0
11, 35050, Note_on_c, 9, 10, 0
11, 35160, Note_on_c, 9, 44, 100
11, 35170, Note_on_c, 9, 44, 0
11, 35280, Note_on_c, 9, 44, 100
11, 35280, Note_on_c, 9, 36, 100
11, 35290, Note_on_c, 9, 44, 0
11, 35290, Note_on_c, 9, 36, 0
11, 35520, Note_on_c, 9, 44, 100
11, 35520, Note_on_c, 9, 10, 100
11, 35520, Note_on_c, 9, 51, 100
11, 35530, Note_on_c, 9, 44, 0
11, 35530, Note_on_c, 9, 10, 0
11, 35530, Note_on_c, 9, 51, 0
11, 35640, Note_on_c, 9, 10, 100
11, 35640, Note_on_c, 9, 44, 100
11, 35650, Note_on_c, 9, 10, 0
11, 35650, Note_on_c, 9, 44, 0
11, 35760, Note_on_c, 9, 36, 100
11, 35760, Note_on_c, 9, 44, 100
11, 35770, Note_on_c, 9, 36, 0
11, 35770, Note_on_c, 9, 44, 0
11, 36000, Note_on_c, 9, 44, 100
11, 36000, Note_on_c, 9, 10, 100
11, 36000, Note_on_c, 9, 51, 100
11, 36010, Note_on_c, 9, 44, 0
11, 36010, Note_on_c, 9, 10, 0
11, 36010, Note_on_c, 9, 51, 0
11, 36120, Note_on_c, 9, 44, 100
11, 36130, Note_on_c, 9, 44, 0
11, 36240, Note_on_c, 9, 36, 100
11, 36240, Note_on_c, 9, 44, 100
11, 36250, Note_on_c, 9, 36, 0
11, 36250, Note_on_c, 9, 44, 0
11, 36480, Note_on_c, 9, 44, 100
11, 36480, Note_on_c, 9, 10, 100
11, 36480, Note_on_c, 9, 51, 100
11, 36490, Note_on_c, 9, 44, 0
11, 36490, Note_on_c, 9, 10, 0
11, 36490, Note_on_c, 9, 51, 0
11, 36600, Note_on_c, 9, 44, 100
11, 36610, Note_on_c, 9, 44, 0
11, 36720, Note_on_c, 9, 44, 100
11, 36720, Note_on_c, 9, 36, 100
11, 36730, Note_on_c, 9, 44, 0
11, 36730, Note_on_c, 9, 36, 0
11, 36960, Note_on_c, 9, 44, 100
11, 36960, Note_on_c, 9, 10, 100
11, 36970, Note_on_c, 9, 44, 0
11, 36970, Note_on_c, 9, 10, 0
11, 37080, Note_on_c, 9, 44, 100
11, 37090, Note_on_c, 9, 44, 0
11, 37200, Note_on_c, 9, 44, 100
11, 37200, Note_on_c, 9, 36, 100
11, 37210, Note_on_c, 9, 44, 0
11, 37210, Note_on_c, 9, 36, 0
11, 37440, Note_on_c, 9, 44, 100
11, 37440, Note_on_c, 9, 10, 100
11, 37450, Note_on_c, 9, 44, 0
11, 37450, Note_on_c, 9, 10, 0
11, 37560, Note_on_c, 9, 44, 100
11, 37560, Note_on_c, 9, 10, 100
11, 37570, Note_on_c, 9, 44, 0
11, 37570, Note_on_c, 9, 10, 0
11, 37680, Note_on_c, 9, 44, 100
11, 37680, Note_on_c, 9, 36, 100
11, 37690, Note_on_c, 9, 44, 0
11, 37690, Note_on_c, 9, 36, 0
11, 37920, Note_on_c, 9, 44, 100
11, 37920, Note_on_c, 9, 10, 100
11, 37930, Note_on_c, 9, 44, 0
11, 37930, Note_on_c, 9, 10, 0
11, 38040, Note_on_c, 9, 44, 100
11, 38050, Note_on_c, 9, 44, 0
11, 38160, Note_on_c, 9, 44, 100
11, 38160, Note_on_c, 9, 36, 100
11, 38170, Note_on_c, 9, 44, 0
11, 38170, Note_on_c, 9, 36, 0
11, 38400, Note_on_c, 9, 10, 100
11, 38400, Note_on_c, 9, 44, 100
11, 38410, Note_on_c, 9, 10, 0
11, 38410, Note_on_c, 9, 44, 0
11, 38520, Note_on_c, 9, 44, 100
11, 38530, Note_on_c, 9, 44, 0
11, 38640, Note_on_c, 9, 44, 100
11, 38640, Note_on_c, 9, 36, 100
11, 38650, Note_on_c, 9, 44, 0
11, 38650, Note_on_c, 9, 36, 0
11, 38880, Note_on_c, 9, 44, 100
11, 38880, Note_on_c, 9, 10, 100
11, 38890, Note_on_c, 9, 44, 0
11, 38890, Note_on_c, 9, 10, 0
11, 39000, Note_on_c, 9, 44, 100
11, 39010, Note_on_c, 9, 44, 0
11, 39120, Note_on_c, 9, 44, 100
11, 39120, Note_on_c, 9, 36, 100
11, 39130, Note_on_c, 9, 44, 0
11, 39130, Note_on_c, 9, 36, 0
11, 39360, Note_on_c, 9, 44, 100
11, 39360, Note_on_c, 9, 10, 100
11, 39360, Note_on_c, 9, 51, 100
11, 39370, Note_on_c, 9, 44, 0
11, 39370, Note_on_c, 9, 10, 0
11, 39370, Note_on_c, 9, 51, 0
11, 39480, Note_on_c, 9, 44, 100
11, 39480, Note_on_c, 9, 10, 100
11, 39490, Note_on_c, 9, 44, 0
11, 39490, Note_on_c, 9, 10, 0
11, 39600, Note_on_c, 9, 44, 100
11, 39600, Note_on_c, 9, 36, 100
11, 39610, Note_on_c, 9, 44, 0
11, 39610, Note_on_c, 9, 36, 0
11, 39840, Note_on_c, 9, 44, 100
11, 39840, Note_on_c, 9, 10, 100
11, 39840, Note_on_c, 9, 51, 100
11, 39850, Note_on_c, 9, 44, 0
11, 39850, Note_on_c, 9, 10, 0
11, 39850, Note_on_c, 9, 51, 0
11, 39960, Note_on_c, 9, 44, 100
11, 39970, Note_on_c, 9, 44, 0
11, 40080, Note_on_c, 9, 44, 100
11, 40080, Note_on_c, 9, 36, 100
11, 40090, Note_on_c, 9, 44, 0
11, 40090, Note_on_c, 9, 36, 0
11, 40320, Note_on_c, 9, 10, 100
11, 40320, Note_on_c, 9, 51, 100
11, 40320, Note_on_c, 9, 44, 100
11, 40330, Note_on_c, 9, 10, 0
11, 40330, Note_on_c, 9, 51, 0
11, 40330, Note_on_c, 9, 44, 0
11, 40440, Note_on_c, 9, 44, 100
11, 40450, Note_on_c, 9, 44, 0
11, 40560, Note_on_c, 9, 36, 100
11, 40560, Note_on_c, 9, 44, 100
11, 40570, Note_on_c, 9, 36, 0
11, 40570, Note_on_c, 9, 44, 0
11, 40800, Note_on_c, 9, 10, 100
11, 40800, Note_on_c, 9, 44, 100
11, 40810, Note_on_c, 9, 10, 0
11, 40810, Note_on_c, 9, 44, 0
11, 40920, Note_on_c, 9, 44, 100
11, 40930, Note_on_c, 9, 44, 0
11, 41040, Note_on_c, 9, 36, 100
11, 41040, Note_on_c, 9, 44, 100
11, 41050, Note_on_c, 9, 36, 0
11, 41050, Note_on_c, 9, 44, 0
11, 41280, Note_on_c, 9, 10, 100
11, 41280, Note_on_c, 9, 44, 100
11, 41290, Note_on_c, 9, 10, 0
11, 41290, Note_on_c, 9, 44, 0
11, 41400, Note_on_c, 9, 10, 100
11, 41400, Note_on_c, 9, 44, 100
11, 41410, Note_on_c, 9, 10, 0
11, 41410, Note_on_c, 9, 44, 0
11, 41520, Note_on_c, 9, 36, 100
11, 41520, Note_on_c, 9, 44, 100
11, 41530, Note_on_c, 9, 36, 0
11, 41530, Note_on_c, 9, 44, 0
11, 41760, Note_on_c, 9, 10, 100
11, 41760, Note_on_c, 9, 44, 100
11, 41770, Note_on_c, 9, 10, 0
11, 41770, Note_on_c, 9, 44, 0
11, 41880, Note_on_c, 9, 44, 100
11, 41890, Note_on_c, 9, 44, 0
11, 42000, Note_on_c, 9, 36, 100
11, 42000, Note_on_c, 9, 44, 100
11, 42010, Note_on_c, 9, 36, 0
11, 42010, Note_on_c, 9, 44, 0
11, 42240, Note_on_c, 9, 10, 100
11, 42240, Note_on_c, 9, 44, 100
11, 42250, Note_on_c, 9, 10, 0
11, 42250, Note_on_c, 9, 44, 0
11, 42360, Note_on_c, 9, 44, 100
11, 42370, Note_on_c, 9, 44, 0
11, 42480, Note_on_c, 9, 44, 100
11, 42480, Note_on_c, 9, 36, 100
11, 42490, Note_on_c, 9, 44, 0
11, 42490, Note_on_c, 9, 36, 0
11, 42720, Note_on_c, 9, 10, 100
11, 42720, Note_on_c, 9, 44, 100
11, 42730, Note_on_c, 9, 10, 0
11, 42730, Note_on_c, 9, 44, 0
11, 42840, Note_on_c, 9, 44, 100
11, 42850, Note_on_c, 9, 44, 0
11, 42960, Note_on_c, 9, 36, 100
11, 42960, Note_on_c, 9, 44, 100
11, 42970, Note_on_c, 9, 36, 0
11, 42970, Note_on_c, 9, 44, 0
11, 43200, Note_on_c, 9, 10, 100
11, 43200, Note_on_c, 9, 51, 100
11, 43200, Note_on_c, 9, 44, 100
11, 43210, Note_on_c, 9, 10, 0
11, 43210, Note_on_c, 9, 51, 0
11, 43210, Note_on_c, 9, 44, 0
11, 43320, Note_on_c, 9, 44, 100
11, 43320, Note_on_c, 9, 10, 100
11, 43330, Note_on_c, 9, 44, 0
11, 43330, Note_on_c, 9, 10, 0
11, 43440, Note_on_c, 9, 44, 100
11, 43440, Note_on_c, 9, 36, 100
11, 43450, Note_on_c, 9, 44, 0
11, 43450, Note_on_c, 9, 36, 0
11, 43680, Note_on_c, 9, 10, 100
11, 43680, Note_on_c, 9, 51, 100
11, 43680, Note_on_c, 9, 44, 100
11, 43690, Note_on_c, 9, 10, 0
11, 43690, Note_on_c, 9, 51, 0
11, 43690, Note_on_c, 9, 44, 0
11, 43800, Note_on_c, 9, 44, 100
11, 43810, Note_on_c, 9, 44, 0
11, 43920, Note_on_c, 9, 44, 100
11, 43920, Note_on_c, 9, 36, 100
11, 43930, Note_on_c, 9, 44, 0
11, 43930, Note_on_c, 9, 36, 0
11, 44160, Note_on_c, 9, 44, 100
11, 44160, Note_on_c, 9, 10, 100
11, 44160, Note_on_c, 9, 51, 100
11, 44170, Note_on_c, 9, 44, 0
11, 44170, Note_on_c, 9, 10, 0
11, 44170, Note_on_c, 9, 51, 0
11, 44280, Note_on_c, 9, 44, 100
11, 44290, Note_on_c, 9, 44, 0
11, 44400, Note_on_c, 9, 44, 100
11, 44400, Note_on_c, 9, 36, 100
11, 44410, Note_on_c, 9, 44, 0
11, 44410, Note_on_c, 9, 36, 0
11, 44640, Note_on_c, 9, 44, 100
11, 44640, Note_on_c, 9, 10, 100
11, 44650, Note_on_c, 9, 44, 0
11, 44650, Note_on_c, 9, 10, 0
11, 44760, Note_on_c, 9, 44, 100
11, 44770, Note_on_c, 9, 44, 0
11, 44880, Note_on_c, 9, 44, 100
11, 44880, Note_on_c, 9, 36, 100
11, 44890, Note_on_c, 9, 44, 0
11, 44890, Note_on_c, 9, 36, 0
11, 45120, Note_on_c, 9, 44, 100
11, 45120, Note_on_c, 9, 10, 100
11, 45130, Note_on_c, 9, 44, 0
11, 45130, Note_on_c, 9, 10, 0
11, 45240, Note_on_c, 9, 44, 100
11, 45240, Note_on_c, 9, 10, 100
11, 45250, Note_on_c, 9, 44, 0
11, 45250, Note_on_c, 9, 10, 0
11, 45360, Note_on_c, 9, 44, 100
11, 45360, Note_on_c, 9, 36, 100
11, 45370, Note_on_c, 9, 44, 0
11, 45370, Note_on_c, 9, 36, 0
11, 45600, Note_on_c, 9, 44, 100
11, 45600, Note_on_c, 9, 10, 100
11, 45610, Note_on_c, 9, 44, 0
11, 45610, Note_on_c, 9, 10, 0
11, 45720, Note_on_c, 9, 44, 100
11, 45730, Note_on_c, 9, 44, 0
11, 45840, Note_on_c, 9, 44, 100
11, 45840, Note_on_c, 9, 36, 100
11, 45850, Note_on_c, 9, 44, 0
11, 45850, Note_on_c, 9, 36, 0
11, 46080, Note_on_c, 9, 10, 100
11, 46080, Note_on_c, 9, 44, 100
11, 46090, Note_on_c, 9, 10, 0
11, 46090, Note_on_c, 9, 44, 0
11, 46200, Note_on_c, 9, 44, 100
11, 46210, Note_on_c, 9, 44, 0
11, 46320, Note_on_c, 9, 44, 100
11, 46320, Note_on_c, 9, 36, 100
11, 46330, Note_on_c, 9, 44, 0
11, 46330, Note_on_c, 9, 36, 0
11, 46560, Note_on_c, 9, 44, 100
11, 46560, Note_on_c, 9, 10, 100
11, 46570, Note_on_c, 9, 44, 0
11, 46570, Note_on_c, 9, 10, 0
11, 46680, Note_on_c, 9, 44, 100
11, 46690, Note_on_c, 9, 44, 0
11, 46800, Note_on_c, 9, 44, 100
11, 46800, Note_on_c, 9, 36, 100
11, 46810, Note_on_c, 9, 44, 0
11, 46810, Note_on_c, 9, 36, 0
11, 47040, Note_on_c, 9, 44, 100
11, 47040, Note_on_c, 9, 10, 100
11, 47040, Note_on_c, 9, 51, 100
11, 47050, Note_on_c, 9, 44, 0
11, 47050, Note_on_c, 9, 10, 0
11, 47050, Note_on_c, 9, 51, 0
11, 47160, Note_on_c, 9, 44, 100
11, 47160, Note_on_c, 9, 10, 100
11, 47170, Note_on_c, 9, 44, 0
11, 47170, Note_on_c, 9, 10, 0
11, 47280, Note_on_c, 9, 44, 100
11, 47280, Note_on_c, 9, 36, 100
11, 47290, Note_on_c, 9, 44, 0
11, 47290, Note_on_c, 9, 36, 0
11, 47520, Note_on_c, 9, 44, 100
11, 47520, Note_on_c, 9, 10, 100
11, 47520, Note_on_c, 9, 51, 100
11, 47530, Note_on_c, 9, 44, 0
11, 47530, Note_on_c, 9, 10, 0
11, 47530, Note_on_c, 9, 51, 0
11, 47640, Note_on_c, 9, 44, 100
11, 47650, Note_on_c, 9, 44, 0
11, 47760, Note_on_c, 9, 44, 100
11, 47760, Note_on_c, 9, 36, 100
11, 47770, Note_on_c, 9, 44, 0
11, 47770, Note_on_c, 9, 36, 0
11, 48000, Note_on_c, 9, 51, 100
11, 48000, Note_on_c, 9, 44, 100
11, 48000, Note_on_c, 9, 10, 100
11, 48010, Note_on_c, 9, 51, 0
11, 48010, Note_on_c, 9, 44, 0
11, 48010, Note_on_c, 9, 10, 0
11, 48120, Note_on_c, 9, 44, 100
11, 48130, Note_on_c, 9, 44, 0
11, 48240, Note_on_c, 9, 44, 100
11, 48240, Note_on_c, 9, 36, 100
11, 48250, Note_on_c, 9, 44, 0
11, 48250, Note_on_c, 9, 36, 0
11, 48480, Note_on_c, 9, 44, 100
11, 48480, Note_on_c, 9, 10, 100
11, 48490, Note_on_c, 9, 44, 0
11, 48490, Note_on_c, 9, 10, 0
11, 48600, Note_on_c, 9, 44, 100
11, 48610, Note_on_c, 9, 44, 0
11, 48720, Note_on_c, 9, 44, 100
11, 48720, Note_on_c, 9, 36, 100
11, 48730, Note_on_c, 9, 44, 0
11, 48730, Note_on_c, 9, 36, 0
11, 48960, Note_on_c, 9, 44, 100
11, 48960, Note_on_c, 9, 10, 100
11, 48970, Note_on_c, 9, 44, 0
11, 48970, Note_on_c, 9, 10, 0
11, 49080, Note_on_c, 9, 44, 100
11, 49080, Note_on_c, 9, 10, 100
11, 49090, Note_on_c, 9, 44, 0
11, 49090, Note_on_c, 9, 10, 0
11, 49200, Note_on_c, 9, 44, 100
11, 49200, Note_on_c, 9, 36, 100
11, 49210, Note_on_c, 9, 44, 0
11, 49210, Note_on_c, 9, 36, 0
11, 49440, Note_on_c, 9, 44, 100
11, 49440, Note_on_c, 9, 10, 100
11, 49450, Note_on_c, 9, 44, 0
11, 49450, Note_on_c, 9, 10, 0
11, 49560, Note_on_c, 9, 44, 100
11, 49570, Note_on_c, 9, 44, 0
11, 49680, Note_on_c, 9, 44, 100
11, 49680, Note_on_c, 9, 36, 100
11, 49690, Note_on_c, 9, 44, 0
11, 49690, Note_on_c, 9, 36, 0
11, 49920, Note_on_c, 9, 10, 100
11, 49920, Note_on_c, 9, 44, 100
11, 49930, Note_on_c, 9, 10, 0
11, 49930, Note_on_c, 9, 44, 0
11, 50040, Note_on_c, 9, 44, 100
11, 50050, Note_on_c, 9, 44, 0
11, 50160, Note_on_c, 9, 44, 100
11, 50160, Note_on_c, 9, 36, 100
11, 50170, Note_on_c, 9, 44, 0
11, 50170, Note_on_c, 9, 36, 0
11, 50400, Note_on_c, 9, 44, 100
11, 50400, Note_on_c, 9, 10, 100
11, 50410, Note_on_c, 9, 44, 0
11, 50410, Note_on_c, 9, 10, 0
11, 50520, Note_on_c, 9, 44, 100
11, 50530, Note_on_c, 9, 44, 0
11, 50640, Note_on_c, 9, 44, 100
11, 50640, Note_on_c, 9, 36, 100
11, 50650, Note_on_c, 9, 44, 0
11, 50650, Note_on_c, 9, 36, 0
11, 50880, Note_on_c, 9, 44, 100
11, 50880, Note_on_c, 9, 10, 100
11, 50880, Note_on_c, 9, 51, 100
11, 50890, Note_on_c, 9, 44, 0
11, 50890, Note_on_c, 9, 10, 0
11, 50890, Note_on_c, 9, 51, 0
11, 51000, Note_on_c, 9, 44, 100
11, 51000, Note_on_c, 9, 10, 100
11, 51010, Note_on_c, 9, 44, 0
11, 51010, Note_on_c, 9, 10, 0
11, 51120, Note_on_c, 9, 44, 100
11, 51120, Note_on_c, 9, 36, 100
11, 51130, Note_on_c, 9, 44, 0
11, 51130, Note_on_c, 9, 36, 0
11, 51360, Note_on_c, 9, 44, 100
11, 51360, Note_on_c, 9, 10, 100
11, 51360, Note_on_c, 9, 51, 100
11, 51370, Note_on_c, 9, 44, 0
11, 51370, Note_on_c, 9, 10, 0
11, 51370, Note_on_c, 9, 51, 0
11, 51480, Note_on_c, 9, 44, 100
11, 51490, Note_on_c, 9, 44, 0
11, 51600, Note_on_c, 9, 44, 100
11, 51600, Note_on_c, 9, 36, 100
11, 51610, Note_on_c, 9, 44, 0
11, 51610, Note_on_c, 9, 36, 0
11, 51840, Note_on_c, 9, 44, 100
11, 51840, Note_on_c, 9, 10, 100
11, 51840, Note_on_c, 9, 51, 100
11, 51850, Note_on_c, 9, 44, 0
11, 51850, Note_on_c, 9, 10, 0
11, 51850, Note_on_c, 9, 51, 0
11, 51960, Note_on_c, 9, 44, 100
11, 51970, Note_on_c, 9, 44, 0
11, 52080, Note_on_c, 9, 44, 100
11, 52080, Note_on_c, 9, 36, 100
11, 52090, Note_on_c, 9, 44, 0
11, 52090, Note_on_c, 9, 36, 0
11, 52320, Note_on_c, 9, 44, 100
11, 52320, Note_on_c, 9, 10, 100
11, 52330, Note_on_c, 9, 44, 0
11, 52330, Note_on_c, 9, 10, 0
11, 52440, Note_on_c, 9, 44, 100
11, 52450, Note_on_c, 9, 44, 0
11, 52560, Note_on_c, 9, 44, 100
11, 52560, Note_on_c, 9, 36, 100
11, 52570, Note_on_c, 9, 44, 0
11, 52570, Note_on_c, 9, 36, 0
11, 52800, Note_on_c, 9, 44, 100
11, 52800, Note_on_c, 9, 10, 100
11, 52810, Note_on_c, 9, 44, 0
11, 52810, Note_on_c, 9, 10, 0
11, 52920, Note_on_c, 9, 44, 100
11, 52920, Note_on_c, 9, 10, 100
11, 52930, Note_on_c, 9, 44, 0
11, 52930, Note_on_c, 9, 10, 0
11, 53040, Note_on_c, 9, 44, 100
11, 53040, Note_on_c, 9, 36, 100
11, 53050, Note_on_c, 9, 44, 0
11, 53050, Note_on_c, 9, 36, 0
11, 53280, Note_on_c, 9, 44, 100
11, 53280, Note_on_c, 9, 10, 100
11, 53290, Note_on_c, 9, 44, 0
11, 53290, Note_on_c, 9, 10, 0
11, 53400, Note_on_c, 9, 44, 100
11, 53410, Note_on_c, 9, 44, 0
11, 53520, Note_on_c, 9, 44, 100
11, 53520, Note_on_c, 9, 36, 100
11, 53530, Note_on_c, 9, 44, 0
11, 53530, Note_on_c, 9, 36, 0
11, 53760, Note_on_c, 9, 10, 100
11, 53760, Note_on_c, 9, 44, 100
11, 53770, Note_on_c, 9, 10, 0
11, 53770, Note_on_c, 9, 44, 0
11, 53880, Note_on_c, 9, 44, 100
11, 53890, Note_on_c, 9, 44, 0
11, 54000, Note_on_c, 9, 44, 100
11, 54000, Note_on_c, 9, 36, 100
11, 54010, Note_on_c, 9, 44, 0
11, 54010, Note_on_c, 9, 36, 0
11, 54240, Note_on_c, 9, 44, 100
11, 54240, Note_on_c, 9, 10, 100
11, 54250, Note_on_c, 9, 44, 0
11, 54250, Note_on_c, 9, 10, 0
11, 54360, Note_on_c, 9, 44, 100
11, 54370, Note_on_c, 9, 44, 0
11, 54480, Note_on_c, 9, 44, 100
11, 54480, Note_on_c, 9, 36, 100
11, 54490, Note_on_c, 9, 44, 0
11, 54490, Note_on_c, 9, 36, 0
11, 54720, Note_on_c, 9, 44, 100
11, 54720, Note_on_c, 9, 10, 100
11, 54720, Note_on_c, 9, 51, 100
11, 54730, Note_on_c, 9, 44, 0
11, 54730, Note_on_c, 9, 10, 0
11, 54730, Note_on_c, 9, 51, 0
11, 54840, Note_on_c, 9, 44, 100
11, 54840, Note_on_c, 9, 10, 100
11, 54850, Note_on_c, 9, 44, 0
11, 54850, Note_on_c, 9, 10, 0
11, 54960, Note_on_c, 9, 44, 100
11, 54960, Note_on_c, 9, 36, 100
11, 54970, Note_on_c, 9, 44, 0
11, 54970, Note_on_c, 9, 36, 0
11, 55200, Note_on_c, 9, 44, 100
11, 55200, Note_on_c, 9, 10, 100
11, 55200, Note_on_c, 9, 51, 100
11, 55210, Note_on_c, 9, 44, 0
11, 55210, Note_on_c, 9, 10, 0
11, 55210, Note_on_c, 9, 51, 0
11, 55320, Note_on_c, 9, 44, 100
11, 55330, Note_on_c, 9, 44, 0
11, 55440, Note_on_c, 9, 44, 100
11, 55440, Note_on_c, 9, 36, 100
11, 55450, Note_on_c, 9, 44, 0
11, 55450, Note_on_c, 9, 36, 0
11, 55680, Note_on_c, 9, 44, 100
11, 55680, Note_on_c, 9, 10, 100
11, 55680, Note_on_c, 9, 51, 100
11, 55690, Note_on_c, 9, 44, 0
11, 55690, Note_on_c, 9, 10, 0
11, 55690, Note_on_c, 9, 51, 0
11, 55800, Note_on_c, 9, 44, 100
11, 55810, Note_on_c, 9, 44, 0
11, 55920, Note_on_c, 9, 44, 100
11, 55920, Note_on_c, 9, 36, 100
11, 55930, Note_on_c, 9, 44, 0
11, 55930, Note_on_c, 9, 36, 0
11, 56160, Note_on_c, 9, 44, 100
11, 56160, Note_on_c, 9, 10, 100
11, 56170, Note_on_c, 9, 44, 0
11, 56170, Note_on_c, 9, 10, 0
11, 56280, Note_on_c, 9, 44, 100
11, 56290, Note_on_c, 9, 44, 0
11, 56400, Note_on_c, 9, 44, 100
11, 56400, Note_on_c, 9, 36, 100
11, 56410, Note_on_c, 9, 44, 0
11, 56410, Note_on_c, 9, 36, 0
11, 56640, Note_on_c, 9, 44, 100
11, 56640, Note_on_c, 9, 10, 100
11, 56650, Note_on_c, 9, 44, 0
11, 56650, Note_on_c, 9, 10, 0
11, 56760, Note_on_c, 9, 44, 100
11, 56760, Note_on_c, 9, 10, 100
11, 56770, Note_on_c, 9, 44, 0
11, 56770, Note_on_c, 9, 10, 0
11, 56880, Note_on_c, 9, 44, 100
11, 56880, Note_on_c, 9, 36, 100
11, 56890, Note_on_c, 9, 44, 0
11, 56890, Note_on_c, 9, 36, 0
11, 57120, Note_on_c, 9, 44, 100
11, 57120, Note_on_c, 9, 10, 100
11, 57130, Note_on_c, 9, 44, 0
11, 57130, Note_on_c, 9, 10, 0
11, 57240, Note_on_c, 9, 44, 100
11, 57250, Note_on_c, 9, 44, 0
11, 57360, Note_on_c, 9, 44, 100
11, 57360, Note_on_c, 9, 36, 100
11, 57370, Note_on_c, 9, 44, 0
11, 57370, Note_on_c, 9, 36, 0
11, 57600, Note_on_c, 9, 10, 100
11, 57600, Note_on_c, 9, 44, 100
11, 57610, Note_on_c, 9, 10, 0
11, 57610, Note_on_c, 9, 44, 0
11, 57720, Note_on_c, 9, 44, 100
11, 57730, Note_on_c, 9, 44, 0
11, 57840, Note_on_c, 9, 44, 100
11, 57840, Note_on_c, 9, 36, 100
11, 57850, Note_on_c, 9, 44, 0
11, 57850, Note_on_c, 9, 36, 0
11, 58080, Note_on_c, 9, 44, 100
11, 58080, Note_on_c, 9, 10, 100
11, 58090, Note_on_c, 9, 44, 0
11, 58090, Note_on_c, 9, 10, 0
11, 58200, Note_on_c, 9, 44, 100
11, 58210, Note_on_c, 9, 44, 0
11, 58320, Note_on_c, 9, 44, 100
11, 58320, Note_on_c, 9, 36, 100
11, 58330, Note_on_c, 9, 44, 0
11, 58330, Note_on_c, 9, 36, 0
11, 58560, Note_on_c, 9, 44, 100
11, 58560, Note_on_c, 9, 10, 100
11, 58560, Note_on_c, 9, 51, 100
11, 58570, Note_on_c, 9, 44, 0
11, 58570, Note_on_c, 9, 10, 0
11, 58570, Note_on_c, 9, 51, 0
11, 58680, Note_on_c, 9, 44, 100
11, 58680, Note_on_c, 9, 10, 100
11, 58690, Note_on_c, 9, 44, 0
11, 58690, Note_on_c, 9, 10, 0
11, 58800, Note_on_c, 9, 44, 100
11, 58800, Note_on_c, 9, 36, 100
11, 58810, Note_on_c, 9, 44, 0
11, 58810, Note_on_c, 9, 36, 0
11, 59040, Note_on_c, 9, 44, 100
11, 59040, Note_on_c, 9, 10, 100
11, 59040, Note_on_c, 9, 51, 100
11, 59050, Note_on_c, 9, 44, 0
11, 59050, Note_on_c, 9, 10, 0
11, 59050, Note_on_c, 9, 51, 0
11, 59160, Note_on_c, 9, 44, 100
11, 59170, Note_on_c, 9, 44, 0
11, 59280, Note_on_c, 9, 44, 100
11, 59280, Note_on_c, 9, 36, 100
11, 59290, Note_on_c, 9, 44, 0
11, 59290, Note_on_c, 9, 36, 0
11, 59520, Note_on_c, 9, 10, 100
11, 59520, Note_on_c, 9, 51, 100
11, 59520, Note_on_c, 9, 44, 100
11, 59530, Note_on_c, 9, 10, 0
11, 59530, Note_on_c, 9, 51, 0
11, 59530, Note_on_c, 9, 44, 0
11, 59640, Note_on_c, 9, 44, 100
11, 59650, Note_on_c, 9, 44, 0
11, 59760, Note_on_c, 9, 44, 100
11, 59760, Note_on_c, 9, 36, 100
11, 59770, Note_on_c, 9, 44, 0
11, 59770, Note_on_c, 9, 36, 0
11, 60000, Note_on_c, 9, 10, 100
11, 60000, Note_on_c, 9, 51, 100
11, 60000, Note_on_c, 9, 44, 100
11, 60010, Note_on_c, 9, 10, 0
11, 60010, Note_on_c, 9, 51, 0
11, 60010, Note_on_c, 9, 44, 0
11, 60120, Note_on_c, 9, 44, 100
11, 60130, Note_on_c, 9, 44, 0
11, 60160, Note_on_c, 9, 51, 100
11, 60170, Note_on_c, 9, 51, 0
11, 60240, Note_on_c, 9, 44, 100
11, 60240, Note_on_c, 9, 36, 100
11, 60250, Note_on_c, 9, 44, 0
11, 60250, Note_on_c, 9, 36, 0
11, 60320, Note_on_c, 9, 51, 100
11, 60330, Note_on_c, 9, 51, 0
11, 60480, Note_on_c, 9, 10, 100
11, 60480, Note_on_c, 9, 51, 100
11, 60480, Note_on_c, 9, 44, 100
11, 60490, Note_on_c, 9, 10, 0
11, 60490, Note_on_c, 9, 51, 0
11, 60490, Note_on_c, 9, 44, 0
11, 60600, Note_on_c, 9, 44, 100
11, 60600, Note_on_c, 9, 10, 100
11, 60610, Note_on_c, 9, 44, 0
11, 60610, Note_on_c, 9, 10, 0
11, 60720, Note_on_c, 9, 44, 100
11, 60720, Note_on_c, 9, 36, 100
11, 60730, Note_on_c, 9, 44, 0
11, 60730, Note_on_c, 9, 36, 0
11, 60960, Note_on_c, 9, 10, 100
11, 60960, Note_on_c, 9, 51, 100
11, 60960, Note_on_c, 9, 44, 100
11, 60970, Note_on_c, 9, 10, 0
11, 60970, Note_on_c, 9, 51, 0
11, 60970, Note_on_c, 9, 44, 0
11, 61080, Note_on_c, 9, 44, 100
11, 61090, Note_on_c, 9, 44, 0
11, 61120, Note_on_c, 9, 51, 100
11, 61130, Note_on_c, 9, 51, 0
11, 61200, Note_on_c, 9, 44, 100
11, 61200, Note_on_c, 9, 36, 100
11, 61210, Note_on_c, 9, 44, 0
11, 61210, Note_on_c, 9, 36, 0
11, 61280, Note_on_c, 9, 51, 100
11, 61290, Note_on_c, 9, 51, 0
11, 61440, Note_on_c, 9, 44, 100
11, 61440, Note_on_c, 9, 51, 100
11, 61440, Note_on_c, 9, 10, 100
11, 61450, Note_on_c, 9, 44, 0
11, 61450, Note_on_c, 9, 51, 0
11, 61450, Note_on_c, 9, 10, 0
11, 61560, Note_on_c, 9, 44, 100
11, 61570, Note_on_c, 9, 44, 0
11, 61680, Note_on_c, 9, 44, 100
11, 61680, Note_on_c, 9, 36, 100
11, 61690, Note_on_c, 9, 44, 0
11, 61690, Note_on_c, 9, 36, 0
11, 61920, Note_on_c, 9, 10, 100
11, 61920, Note_on_c, 9, 51, 100
11, 61920, Note_on_c, 9, 44, 100
11, 61930, Note_on_c, 9, 10, 0
11, 61930, Note_on_c, 9, 51, 0
11, 61930, Note_on_c, 9, 44, 0
11, 62040, Note_on_c, 9, 44, 100
11, 62050, Note_on_c, 9, 44, 0
11, 62080, Note_on_c, 9, 51, 100
11, 62090, Note_on_c, 9, 51, 0
11, 62160, Note_on_c, 9, 44, 100
11, 62160, Note_on_c, 9, 36, 100
11, 62170, Note_on_c, 9, 44, 0
11, 62170, Note_on_c, 9, 36, 0
11, 62240, Note_on_c, 9, 51, 100
11, 62250, Note_on_c, 9, 51, 0
11, 62400, Note_on_c, 9, 44, 100
11, 62400, Note_on_c, 9, 10, 100
11, 62400, Note_on_c, 9, 51, 100
11, 62410, Note_on_c, 9, 44, 0
11, 62410, Note_on_c, 9, 10, 0
11, 62410, Note_on_c, 9, 51, 0
11, 62520, Note_on_c, 9, 44, 100
11, 62520, Note_on_c, 9, 10, 100
11, 62530, Note_on_c, 9, 44, 0
11, 62530, Note_on_c, 9, 10, 0
11, 62640, Note_on_c, 9, 44, 100
11, 62640, Note_on_c, 9, 36, 100
11, 62650, Note_on_c, 9, 44, 0
11, 62650, Note_on_c, 9, 36, 0
11, 62880, Note_on_c, 9, 44, 100
11, 62880, Note_on_c, 9, 10, 100
11, 62880, Note_on_c, 9, 51, 100
11, 62890, Note_on_c, 9, 44, 0
11, 62890, Note_on_c, 9, 10, 0
11, 62890, Note_on_c, 9, 51, 0
11, 63000, Note_on_c, 9, 44, 100
11, 63010, Note_on_c, 9, 44, 0
11, 63120, Note_on_c, 9, 44, 100
11, 63120, Note_on_c, 9, 36, 100
11, 63130, Note_on_c, 9, 44, 0
11, 63130, Note_on_c, 9, 36, 0
11, 63360, Note_on_c, 9, 10, 100
11, 63360, Note_on_c, 9, 51, 100
11, 63360, Note_on_c, 9, 44, 100
11, 63370, Note_on_c, 9, 10, 0
11, 63370, Note_on_c, 9, 51, 0
11, 63370, Note_on_c, 9, 44, 0
11, 63480, Note_on_c, 9, 44, 100
11, 63490, Note_on_c, 9, 44, 0
11, 63600, Note_on_c, 9, 44, 100
11, 63600, Note_on_c, 9, 36, 100
11, 63610, Note_on_c, 9, 44, 0
11, 63610, Note_on_c, 9, 36, 0
11, 63840, Note_on_c, 9, 44, 100
11, 63840, Note_on_c, 9, 10, 100
11, 63850, Note_on_c, 9, 44, 0
11, 63850, Note_on_c, 9, 10, 0
11, 63960, Note_on_c, 9, 44, 100
11, 63970, Note_on_c, 9, 44, 0
11, 64080, Note_on_c, 9, 44, 100
11, 64080, Note_on_c, 9, 36, 100
11, 64090, Note_on_c, 9, 44, 0
11, 64090, Note_on_c, 9, 36, 0
11, 64320, Note_on_c, 9, 44, 100
11, 64320, Note_on_c, 9, 10, 100
11, 64330, Note_on_c, 9, 44, 0
11, 64330, Note_on_c, 9, 10, 0
11, 64440, Note_on_c, 9, 44, 100
11, 64440, Note_on_c, 9, 10, 100
11, 64450, Note_on_c, 9, 44, 0
11, 64450, Note_on_c, 9, 10, 0
11, 64560, Note_on_c, 9, 44, 100
11, 64560, Note_on_c, 9, 36, 100
11, 64570, Note_on_c, 9, 44, 0
11, 64570, Note_on_c, 9, 36, 0
11, 64800, Note_on_c, 9, 44, 100
11, 64800, Note_on_c, 9, 10, 100
11, 64810, Note_on_c, 9, 44, 0
11, 64810, Note_on_c, 9, 10, 0
11, 64920, Note_on_c, 9, 44, 100
11, 64930, Note_on_c, 9, 44, 0
11, 65040, Note_on_c, 9, 44, 100
11, 65040, Note_on_c, 9, 36, 100
11, 65050, Note_on_c, 9, 44, 0
11, 65050, Note_on_c, 9, 36, 0
11, 65280, Note_on_c, 9, 10, 100
11, 65280, Note_on_c, 9, 44, 100
11, 65290, Note_on_c, 9, 10, 0
11, 65290, Note_on_c, 9, 44, 0
11, 65400, Note_on_c, 9, 44, 100
11, 65410, Note_on_c, 9, 44, 0
11, 65520, Note_on_c, 9, 44, 100
11, 65520, Note_on_c, 9, 36, 100
11, 65530, Note_on_c, 9, 44, 0
11, 65530, Note_on_c, 9, 36, 0
11, 65760, Note_on_c, 9, 44, 100
11, 65760, Note_on_c, 9, 10, 100
11, 65770, Note_on_c, 9, 44, 0
11, 65770, Note_on_c, 9, 10, 0
11, 65880, Note_on_c, 9, 44, 100
11, 65890, Note_on_c, 9, 44, 0
11, 66000, Note_on_c, 9, 44, 100
11, 66000, Note_on_c, 9, 36, 100
11, 66010, Note_on_c, 9, 44, 0
11, 66010, Note_on_c, 9, 36, 0
11, 66240, Note_on_c, 9, 10, 100
11, 66240, Note_on_c, 9, 51, 100
11, 66240, Note_on_c, 9, 44, 100
11, 66250, Note_on_c, 9, 10, 0
11, 66250, Note_on_c, 9, 51, 0
11, 66250, Note_on_c, 9, 44, 0
11, 66360, Note_on_c, 9, 44, 100
11, 66360, Note_on_c, 9, 10, 100
11, 66370, Note_on_c, 9, 44, 0
11, 66370, Note_on_c, 9, 10, 0
11, 66480, Note_on_c, 9, 44, 100
11, 66480, Note_on_c, 9, 36, 100
11, 66490, Note_on_c, 9, 44, 0
11, 66490, Note_on_c, 9, 36, 0
11, 66720, Note_on_c, 9, 10, 100
11, 66720, Note_on_c, 9, 51, 100
11, 66720, Note_on_c, 9, 44, 100
11, 66730, Note_on_c, 9, 10, 0
11, 66730, Note_on_c, 9, 51, 0
11, 66730, Note_on_c, 9, 44, 0
11, 66840, Note_on_c, 9, 44, 100
11, 66850, Note_on_c, 9, 44, 0
11, 66960, Note_on_c, 9, 44, 100
11, 66960, Note_on_c, 9, 36, 100
11, 66970, Note_on_c, 9, 44, 0
11, 66970, Note_on_c, 9, 36, 0
11, 67200, Note_on_c, 9, 51, 100
11, 67200, Note_on_c, 9, 44, 100
11, 67200, Note_on_c, 9, 10, 100
11, 67210, Note_on_c, 9, 51, 0
11, 67210, Note_on_c, 9, 44, 0
11, 67210, Note_on_c, 9, 10, 0
11, 67320, Note_on_c, 9, 44, 100
11, 67330, Note_on_c, 9, 44, 0
11, 67440, Note_on_c, 9, 36, 100
11, 67440, Note_on_c, 9, 44, 100
11, 67450, Note_on_c, 9, 36, 0
11, 67450, Note_on_c, 9, 44, 0
11, 67680, Note_on_c, 9, 10, 100
11, 67680, Note_on_c, 9, 44, 100
11, 67690, Note_on_c, 9, 10, 0
11, 67690, Note_on_c, 9, 44, 0
11, 67800, Note_on_c, 9, 44, 100
11, 67810, Note_on_c, 9, 44, 0
11, 67920, Note_on_c, 9, 36, 100
11, 67920, Note_on_c, 9, 44, 100
11, 67930, Note_on_c, 9, 36, 0
11, 67930, Note_on_c, 9, 44, 0
11, 68160, Note_on_c, 9, 10, 100
11, 68160, Note_on_c, 9, 44, 100
11, 68170, Note_on_c, 9, 10, 0
11, 68170, Note_on_c, 9, 44, 0
11, 68280, Note_on_c, 9, 10, 100
11, 68280, Note_on_c, 9, 44, 100
11, 68290, Note_on_c, 9, 10, 0
11, 68290, Note_on_c, 9, 44, 0
11, 68400, Note_on_c, 9, 36, 100
11, 68400, Note_on_c, 9, 44, 100
11, 68410, Note_on_c, 9, 36, 0
11, 68410, Note_on_c, 9, 44, 0
11, 68640, Note_on_c, 9, 10, 100
11, 68640, Note_on_c, 9, 44, 100
11, 68650, Note_on_c, 9, 10, 0
11, 68650, Note_on_c, 9, 44, 0
11, 68760, Note_on_c, 9, 44, 100
11, 68770, Note_on_c, 9, 44, 0
11, 68880, Note_on_c, 9, 36, 100
11, 68880, Note_on_c, 9, 44, 100
11, 68890, Note_on_c, 9, 36, 0
11, 68890, Note_on_c, 9, 44, 0
11, 69120, Note_on_c, 9, 44, 100
11, 69120, Note_on_c, 9, 10, 100
11, 69130, Note_on_c, 9, 44, 0
11, 69130, Note_on_c, 9, 10, 0
11, 69240, Note_on_c, 9, 44, 100
11, 69250, Note_on_c, 9, 44, 0
11, 69360, Note_on_c, 9, 36, 100
11, 69360, Note_on_c, 9, 44, 100
11, 69370, Note_on_c, 9, 36, 0
11, 69370, Note_on_c, 9, 44, 0
11, 69600, Note_on_c, 9, 10, 100
11, 69600, Note_on_c, 9, 44, 100
11, 69610, Note_on_c, 9, 10, 0
11, 69610, Note_on_c, 9, 44, 0
11, 69720, Note_on_c, 9, 44, 100
11, 69730, Note_on_c, 9, 44, 0
11, 69840, Note_on_c, 9, 36, 100
11, 69840, Note_on_c, 9, 44, 100
11, 69850, Note_on_c, 9, 36, 0
11, 69850, Note_on_c, 9, 44, 0
11, 70080, Note_on_c, 9, 51, 100
11, 70080, Note_on_c, 9, 44, 100
11, 70080, Note_on_c, 9, 10, 100
11, 70090, Note_on_c, 9, 51, 0
11, 70090, Note_on_c, 9, 44, 0
11, 70090, Note_on_c, 9, 10, 0
11, 70200, Note_on_c, 9, 10, 100
11, 70200, Note_on_c, 9, 44, 100
11, 70210, Note_on_c, 9, 10, 0
11, 70210, Note_on_c, 9, 44, 0
11, 70320, Note_on_c, 9, 36, 100
11, 70320, Note_on_c, 9, 44, 100
11, 70330, Note_on_c, 9, 36, 0
11, 70330, Note_on_c, 9, 44, 0
11, 70560, Note_on_c, 9, 51, 100
11, 70560, Note_on_c, 9, 44, 100
11, 70560, Note_on_c, 9, 10, 100
11, 70570, Note_on_c, 9, 51, 0
11, 70570, Note_on_c, 9, 44, 0
11, 70570, Note_on_c, 9, 10, 0
11, 70680, Note_on_c, 9, 44, 100
11, 70690, Note_on_c, 9, 44, 0
11, 70800, Note_on_c, 9, 36, 100
11, 70800, Note_on_c, 9, 44, 100
11, 70810, Note_on_c, 9, 36, 0
11, 70810, Note_on_c, 9, 44, 0
11, 71040, Note_on_c, 9, 44, 100
11, 71040, Note_on_c, 9, 10, 100
11, 71040, Note_on_c, 9, 51, 100
11, 71050, Note_on_c, 9, 44, 0
11, 71050, Note_on_c, 9, 10, 0
11, 71050, Note_on_c, 9, 51, 0
11, 71160, Note_on_c, 9, 44, 100
11, 71170, Note_on_c, 9, 44, 0
11, 71280, Note_on_c, 9, 44, 100
11, 71280, Note_on_c, 9, 36, 100
11, 71290, Note_on_c, 9, 44, 0
11, 71290, Note_on_c, 9, 36, 0
11, 71520, Note_on_c, 9, 44, 100
11, 71520, Note_on_c, 9, 10, 100
11, 71530, Note_on_c, 9, 44, 0
11, 71530, Note_on_c, 9, 10, 0
11, 71640, Note_on_c, 9, 44, 100
11, 71650, Note_on_c, 9, 44, 0
11, 71760, Note_on_c, 9, 44, 100
11, 71760, Note_on_c, 9, 36, 100
11, 71770, Note_on_c, 9, 44, 0
11, 71770, Note_on_c, 9, 36, 0
11, 72000, Note_on_c, 9, 44, 100
11, 72000, Note_on_c, 9, 10, 100
11, 72010, Note_on_c, 9, 44, 0
11, 72010, Note_on_c, 9, 10, 0
11, 72120, Note_on_c, 9, 44, 100
11, 72120, Note_on_c, 9, 10, 100
11, 72130, Note_on_c, 9, 44, 0
11, 72130, Note_on_c, 9, 10, 0
11, 72240, Note_on_c, 9, 44, 100
11, 72240, Note_on_c, 9, 36, 100
11, 72250, Note_on_c, 9, 44, 0
11, 72250, Note_on_c, 9, 36, 0
11, 72480, Note_on_c, 9, 44, 100
11, 72480, Note_on_c, 9, 10, 100
11, 72490, Note_on_c, 9, 44, 0
11, 72490, Note_on_c, 9, 10, 0
11, 72600, Note_on_c, 9, 44, 100
11, 72610, Note_on_c, 9, 44, 0
11, 72720, Note_on_c, 9, 44, 100
11, 72720, Note_on_c, 9, 36, 100
11, 72730, Note_on_c, 9, 44, 0
11, 72730, Note_on_c, 9, 36, 0
11, 72960, Note_on_c, 9, 10, 100
11, 72960, Note_on_c, 9, 44, 100
11, 72970, Note_on_c, 9, 10, 0
11, 72970, Note_on_c, 9, 44, 0
11, 73080, Note_on_c, 9, 44, 100
11, 73090, Note_on_c, 9, 44, 0
11, 73200, Note_on_c, 9, 44, 100
11, 73200, Note_on_c, 9, 36, 100
11, 73210, Note_on_c, 9, 44, 0
11, 73210, Note_on_c, 9, 36, 0
11, 73440, Note_on_c, 9, 44, 100
11, 73440, Note_on_c, 9, 10, 100
11, 73450, Note_on_c, 9, 44, 0
11, 73450, Note_on_c, 9, 10, 0
11, 73560, Note_on_c, 9, 44, 100
11, 73570, Note_on_c, 9, 44, 0
11, 73680, Note_on_c, 9, 44, 100
11, 73680, Note_on_c, 9, 36, 100
11, 73690, Note_on_c, 9, 44, 0
11, 73690, Note_on_c, 9, 36, 0
11, 73920, Note_on_c, 9, 44, 100
11, 73920, Note_on_c, 9, 10, 100
11, 73920, Note_on_c, 9, 51, 100
11, 73930, Note_on_c, 9, 44, 0
11, 73930, Note_on_c, 9, 10, 0
11, 73930, Note_on_c, 9, 51, 0
11, 74040, Note_on_c, 9, 44, 100
11, 74040, Note_on_c, 9, 10, 100
11, 74050, Note_on_c, 9, 44, 0
11, 74050, Note_on_c, 9, 10, 0
11, 74160, Note_on_c, 9, 44, 100
11, 74160, Note_on_c, 9, 36, 100
11, 74170, Note_on_c, 9, 44, 0
11, 74170, Note_on_c, 9, 36, 0
11, 74400, Note_on_c, 9, 44, 100
11, 74400, Note_on_c, 9, 10, 100
11, 74400, Note_on_c, 9, 51, 100
11, 74410, Note_on_c, 9, 44, 0
11, 74410, Note_on_c, 9, 10, 0
11, 74410, Note_on_c, 9, 51, 0
11, 74520, Note_on_c, 9, 44, 100
11, 74530, Note_on_c, 9, 44, 0
11, 74640, Note_on_c, 9, 44, 100
11, 74640, Note_on_c, 9, 36, 100
11, 74650, Note_on_c, 9, 44, 0
11, 74650, Note_on_c, 9, 36, 0
11, 74880, Note_on_c, 9, 10, 100
11, 74880, Note_on_c, 9, 51, 100
11, 74880, Note_on_c, 9, 44, 100
11, 74890, Note_on_c, 9, 10, 0
11, 74890, Note_on_c, 9, 51, 0
11, 74890, Note_on_c, 9, 44, 0
11, 75000, Note_on_c, 9, 44, 100
11, 75010, Note_on_c, 9, 44, 0
11, 75120, Note_on_c, 9, 36, 100
11, 75120, Note_on_c, 9, 44, 100
11, 75130, Note_on_c, 9, 36, 0
11, 75130, Note_on_c, 9, 44, 0
11, 75360, Note_on_c, 9, 10, 100
11, 75360, Note_on_c, 9, 44, 100
11, 75370, Note_on_c, 9, 10, 0
11, 75370, Note_on_c, 9, 44, 0
11, 75480, Note_on_c, 9, 44, 100
11, 75490, Note_on_c, 9, 44, 0
11, 75600, Note_on_c, 9, 36, 100
11, 75600, Note_on_c, 9, 44, 100
11, 75610, Note_on_c, 9, 36, 0
11, 75610, Note_on_c, 9, 44, 0
11, 75840, Note_on_c, 9, 10, 100
11, 75840, Note_on_c, 9, 44, 100
11, 75850, Note_on_c, 9, 10, 0
11, 75850, Note_on_c, 9, 44, 0
11, 75960, Note_on_c, 9, 10, 100
11, 75960, Note_on_c, 9, 44, 100
11, 75970, Note_on_c, 9, 10, 0
11, 75970, Note_on_c, 9, 44, 0
11, 76080, Note_on_c, 9, 36, 100
11, 76080, Note_on_c, 9, 44, 100
11, 76090, Note_on_c, 9, 36, 0
11, 76090, Note_on_c, 9, 44, 0
11, 76320, Note_on_c, 9, 10, 100
11, 76320, Note_on_c, 9, 44, 100
11, 76330, Note_on_c, 9, 10, 0
11, 76330, Note_on_c, 9, 44, 0
11, 76440, Note_on_c, 9, 44, 100
11, 76450, Note_on_c, 9, 44, 0
11, 76560, Note_on_c, 9, 36, 100
11, 76560, Note_on_c, 9, 44, 100
11, 76570, Note_on_c, 9, 36, 0
11, 76570, Note_on_c, 9, 44, 0
11, 76800, Note_on_c, 9, 44, 100
11, 76800, Note_on_c, 9, 10, 100
11, 76810, Note_on_c, 9, 44, 0
11, 76810, Note_on_c, 9, 10, 0
11, 76920, Note_on_c, 9, 44, 100
11, 76930, Note_on_c, 9, 44, 0
11, 77040, Note_on_c, 9, 36, 100
11, 77040, Note_on_c, 9, 44, 100
11, 77050, Note_on_c, 9, 36, 0
11, 77050, Note_on_c, 9, 44, 0
11, 77280, Note_on_c, 9, 10, 100
11, 77280, Note_on_c, 9, 44, 100
11, 77290, Note_on_c, 9, 10, 0
11, 77290, Note_on_c, 9, 44, 0
11, 77400, Note_on_c, 9, 44, 100
11, 77410, Note_on_c, 9, 44, 0
11, 77520, Note_on_c, 9, 36, 100
11, 77520, Note_on_c, 9, 44, 100
11, 77530, Note_on_c, 9, 36, 0
11, 77530, Note_on_c, 9, 44, 0
11, 77760, Note_on_c, 9, 10, 100
11, 77760, Note_on_c, 9, 51, 100
11, 77760, Note_on_c, 9, 44, 100
11, 77770, Note_on_c, 9, 10, 0
11, 77770, Note_on_c, 9, 51, 0
11, 77770, Note_on_c, 9, 44, 0
11, 77880, Note_on_c, 9, 10, 100
11, 77880, Note_on_c, 9, 44, 100
11, 77890, Note_on_c, 9, 10, 0
11, 77890, Note_on_c, 9, 44, 0
11, 78000, Note_on_c, 9, 36, 100
11, 78000, Note_on_c, 9, 44, 100
11, 78010, Note_on_c, 9, 36, 0
11, 78010, Note_on_c, 9, 44, 0
11, 78240, Note_on_c, 9, 10, 100
11, 78240, Note_on_c, 9, 51, 100
11, 78240, Note_on_c, 9, 44, 100
11, 78250, Note_on_c, 9, 10, 0
11, 78250, Note_on_c, 9, 51, 0
11, 78250, Note_on_c, 9, 44, 0
11, 78360, Note_on_c, 9, 44, 100
11, 78370, Note_on_c, 9, 44, 0
11, 78480, Note_on_c, 9, 36, 100
11, 78480, Note_on_c, 9, 44, 100
11, 78490, Note_on_c, 9, 36, 0
11, 78490, Note_on_c, 9, 44, 0
11, 78720, Note_on_c, 9, 51, 100
11, 78720, Note_on_c, 9, 44, 100
11, 78720, Note_on_c, 9, 10, 100
11, 78730, Note_on_c, 9, 51, 0
11, 78730, Note_on_c, 9, 44, 0
11, 78730, Note_on_c, 9, 10, 0
11, 78840, Note_on_c, 9, 44, 100
11, 78850, Note_on_c, 9, 44, 0
11, 78960, Note_on_c, 9, 36, 100
11, 78960, Note_on_c, 9, 44, 100
11, 78970, Note_on_c, 9, 36, 0
11, 78970, Note_on_c, 9, 44, 0
11, 79200, Note_on_c, 9, 10, 100
11, 79200, Note_on_c, 9, 44, 100
11, 79210, Note_on_c, 9, 10, 0
11, 79210, Note_on_c, 9, 44, 0
11, 79320, Note_on_c, 9, 44, 100
11, 79330, Note_on_c, 9, 44, 0
11, 79440, Note_on_c, 9, 36, 100
11, 79440, Note_on_c, 9, 44, 100
11, 79450, Note_on_c, 9, 36, 0
11, 79450, Note_on_c, 9, 44, 0
11, 79680, Note_on_c, 9, 10, 100
11, 79680, Note_on_c, 9, 44, 100
11, 79690, Note_on_c, 9, 10, 0
11, 79690, Note_on_c, 9, 44, 0
11, 79800, Note_on_c, 9, 10, 100
11, 79800, Note_on_c, 9, 44, 100
11, 79810, Note_on_c, 9, 10, 0
11, 79810, Note_on_c, 9, 44, 0
11, 79920, Note_on_c, 9, 36, 100
11, 79920, Note_on_c, 9, 44, 100
11, 79930, Note_on_c, 9, 36, 0
11, 79930, Note_on_c, 9, 44, 0
11, 80160, Note_on_c, 9, 10, 100
11, 80160, Note_on_c, 9, 44, 100
11, 80170, Note_on_c, 9, 10, 0
11, 80170, Note_on_c, 9, 44, 0
11, 80280, Note_on_c, 9, 44, 100
11, 80290, Note_on_c, 9, 44, 0
11, 80400, Note_on_c, 9, 36, 100
11, 80400, Note_on_c, 9, 44, 100
11, 80410, Note_on_c, 9, 36, 0
11, 80410, Note_on_c, 9, 44, 0
11, 80640, Note_on_c, 9, 44, 100
11, 80640, Note_on_c, 9, 10, 100
11, 80650, Note_on_c, 9, 44, 0
11, 80650, Note_on_c, 9, 10, 0
11, 80760, Note_on_c, 9, 44, 100
11, 80770, Note_on_c, 9, 44, 0
11, 80880, Note_on_c, 9, 36, 100
11, 80880, Note_on_c, 9, 44, 100
11, 80890, Note_on_c, 9, 36, 0
11, 80890, Note_on_c, 9, 44, 0
11, 81120, Note_on_c, 9, 10, 100
11, 81120, Note_on_c, 9, 44, 100
11, 81130, Note_on_c, 9, 10, 0
11, 81130, Note_on_c, 9, 44, 0
11, 81240, Note_on_c, 9, 44, 100
11, 81250, Note_on_c, 9, 44, 0
11, 81360, Note_on_c, 9, 36, 100
11, 81360, Note_on_c, 9, 44, 100
11, 81370, Note_on_c, 9, 36, 0
11, 81370, Note_on_c, 9, 44, 0
11, 81600, Note_on_c, 9, 51, 100
11, 81600, Note_on_c, 9, 44, 100
11, 81600, Note_on_c, 9, 10, 100
11, 81610, Note_on_c, 9, 51, 0
11, 81610, Note_on_c, 9, 44, 0
11, 81610, Note_on_c, 9, 10, 0
11, 81720, Note_on_c, 9, 10, 100
11, 81720, Note_on_c, 9, 44, 100
11, 81730, Note_on_c, 9, 10, 0
11, 81730, Note_on_c, 9, 44, 0
11, 81840, Note_on_c, 9, 36, 100
11, 81840, Note_on_c, 9, 44, 100
11, 81850, Note_on_c, 9, 36, 0
11, 81850, Note_on_c, 9, 44, 0
11, 82080, Note_on_c, 9, 51, 100
11, 82080, Note_on_c, 9, 44, 100
11, 82080, Note_on_c, 9, 10, 100
11, 82090, Note_on_c, 9, 51, 0
11, 82090, Note_on_c, 9, 44, 0
11, 82090, Note_on_c, 9, 10, 0
11, 82200, Note_on_c, 9, 44, 100
11, 82210, Note_on_c, 9, 44, 0
11, 82320, Note_on_c, 9, 36, 100
11, 82320, Note_on_c, 9, 44, 100
11, 82330, Note_on_c, 9, 36, 0
11, 82330, Note_on_c, 9, 44, 0
11, 82560, Note_on_c, 9, 44, 100
11, 82560, Note_on_c, 9, 10, 100
11, 82560, Note_on_c, 9, 51, 100
11, 82570, Note_on_c, 9, 44, 0
11, 82570, Note_on_c, 9, 10, 0
11, 82570, Note_on_c, 9, 51, 0
11, 82680, Note_on_c, 9, 44, 100
11, 82690, Note_on_c, 9, 44, 0
11, 82800, Note_on_c, 9, 44, 100
11, 82800, Note_on_c, 9, 36, 100
11, 82810, Note_on_c, 9, 44, 0
11, 82810, Note_on_c, 9, 36, 0
11, 83040, Note_on_c, 9, 44, 100
11, 83040, Note_on_c, 9, 10, 100
11, 83050, Note_on_c, 9, 44, 0
11, 83050, Note_on_c, 9, 10, 0
11, 83160, Note_on_c, 9, 44, 100
11, 83170, Note_on_c, 9, 44, 0
11, 83280, Note_on_c, 9, 44, 100
11, 83280, Note_on_c, 9, 36, 100
11, 83290, Note_on_c, 9, 44, 0
11, 83290, Note_on_c, 9, 36, 0
11, 83520, Note_on_c, 9, 44, 100
11, 83520, Note_on_c, 9, 10, 100
11, 83530, Note_on_c, 9, 44, 0
11, 83530, Note_on_c, 9, 10, 0
11, 83640, Note_on_c, 9, 44, 100
11, 83640, Note_on_c, 9, 10, 100
11, 83650, Note_on_c, 9, 44, 0
11, 83650, Note_on_c, 9, 10, 0
11, 83760, Note_on_c, 9, 44, 100
11, 83760, Note_on_c, 9, 36, 100
11, 83770, Note_on_c, 9, 44, 0
11, 83770, Note_on_c, 9, 36, 0
11, 84000, Note_on_c, 9, 44, 100
11, 84000, Note_on_c, 9, 10, 100
11, 84010, Note_on_c, 9, 44, 0
11, 84010, Note_on_c, 9, 10, 0
11, 84120, Note_on_c, 9, 44, 100
11, 84130, Note_on_c, 9, 44, 0
11, 84240, Note_on_c, 9, 44, 100
11, 84240, Note_on_c, 9, 36, 100
11, 84250, Note_on_c, 9, 44, 0
11, 84250, Note_on_c, 9, 36, 0
11, 84480, Note_on_c, 9, 44, 100
11, 84480, Note_on_c, 9, 10, 100
11, 84490, Note_on_c, 9, 44, 0
11, 84490, Note_on_c, 9, 10, 0
11, 84600, Note_on_c, 9, 44, 100
11, 84610, Note_on_c, 9, 44, 0
11, 84720, Note_on_c, 9, 36, 100
11, 84720, Note_on_c, 9, 44, 100
11, 84730, Note_on_c, 9, 36, 0
11, 84730, Note_on_c, 9, 44, 0
11, 84960, Note_on_c, 9, 44, 100
11, 84960, Note_on_c, 9, 10, 100
11, 84970, Note_on_c, 9, 44, 0
11, 84970, Note_on_c, 9, 10, 0
11, 85080, Note_on_c, 9, 44, 100
11, 85090, Note_on_c, 9, 44, 0
11, 85200, Note_on_c, 9, 44, 100
11, 85200, Note_on_c, 9, 36, 100
11, 85210, Note_on_c, 9, 44, 0
11, 85210, Note_on_c, 9, 36, 0
11, 85440, Note_on_c, 9, 44, 100
11, 85440, Note_on_c, 9, 10, 100
11, 85440, Note_on_c, 9, 51, 100
11, 85450, Note_on_c, 9, 44, 0
11, 85450, Note_on_c, 9, 10, 0
11, 85450, Note_on_c, 9, 51, 0
11, 85560, Note_on_c, 9, 10, 100
11, 85560, Note_on_c, 9, 44, 100
11, 85570, Note_on_c, 9, 10, 0
11, 85570, Note_on_c, 9, 44, 0
11, 85680, Note_on_c, 9, 36, 100
11, 85680, Note_on_c, 9, 44, 100
11, 85690, Note_on_c, 9, 36, 0
11, 85690, Note_on_c, 9, 44, 0
11, 85920, Note_on_c, 9, 44, 100
11, 85920, Note_on_c, 9, 10, 100
11, 85920, Note_on_c, 9, 51, 100
11, 85930, Note_on_c, 9, 44, 0
11, 85930, Note_on_c, 9, 10, 0
11, 85930, Note_on_c, 9, 51, 0
11, 86040, Note_on_c, 9, 44, 100
11, 86050, Note_on_c, 9, 44, 0
11, 86160, Note_on_c, 9, 36, 100
11, 86160, Note_on_c, 9, 44, 100
11, 86170, Note_on_c, 9, 36, 0
11, 86170, Note_on_c, 9, 44, 0
11, 86400, Note_on_c, 9, 51, 100
11, 86400, Note_on_c, 9, 44, 100
11, 86400, Note_on_c, 9, 10, 100
11, 86410, Note_on_c, 9, 51, 0
11, 86410, Note_on_c, 9, 44, 0
11, 86410, Note_on_c, 9, 10, 0
11, 86520, Note_on_c, 9, 44, 100
11, 86530, Note_on_c, 9, 44, 0
11, 86640, Note_on_c, 9, 36, 100
11, 86640, Note_on_c, 9, 44, 100
11, 86650, Note_on_c, 9, 36, 0
11, 86650, Note_on_c, 9, 44, 0
11, 86880, Note_on_c, 9, 10, 100
11, 86880, Note_on_c, 9, 44, 100
11, 86890, Note_on_c, 9, 10, 0
11, 86890, Note_on_c, 9, 44, 0
11, 87000, Note_on_c, 9, 44, 100
11, 87010, Note_on_c, 9, 44, 0
11, 87120, Note_on_c, 9, 36, 100
11, 87120, Note_on_c, 9, 44, 100
11, 87130, Note_on_c, 9, 36, 0
11, 87130, Note_on_c, 9, 44, 0
11, 87360, Note_on_c, 9, 10, 100
11, 87360, Note_on_c, 9, 44, 100
11, 87370, Note_on_c, 9, 10, 0
11, 87370, Note_on_c, 9, 44, 0
11, 87480, Note_on_c, 9, 10, 100
11, 87480, Note_on_c, 9, 44, 100
11, 87490, Note_on_c, 9, 10, 0
11, 87490, Note_on_c, 9, 44, 0
11, 87600, Note_on_c, 9, 36, 100
11, 87600, Note_on_c, 9, 44, 100
11, 87610, Note_on_c, 9, 36, 0
11, 87610, Note_on_c, 9, 44, 0
11, 87840, Note_on_c, 9, 10, 100
11, 87840, Note_on_c, 9, 44, 100
11, 87850, Note_on_c, 9, 10, 0
11, 87850, Note_on_c, 9, 44, 0
11, 87960, Note_on_c, 9, 44, 100
11, 87970, Note_on_c, 9, 44, 0
11, 88080, Note_on_c, 9, 36, 100
11, 88080, Note_on_c, 9, 44, 100
11, 88090, Note_on_c, 9, 36, 0
11, 88090, Note_on_c, 9, 44, 0
11, 88320, Note_on_c, 9, 44, 100
11, 88320, Note_on_c, 9, 10, 100
11, 88330, Note_on_c, 9, 44, 0
11, 88330, Note_on_c, 9, 10, 0
11, 88440, Note_on_c, 9, 44, 100
11, 88450, Note_on_c, 9, 44, 0
11, 88560, Note_on_c, 9, 36, 100
11, 88560, Note_on_c, 9, 44, 100
11, 88570, Note_on_c, 9, 36, 0
11, 88570, Note_on_c, 9, 44, 0
11, 88800, Note_on_c, 9, 10, 100
11, 88800, Note_on_c, 9, 44, 100
11, 88810, Note_on_c, 9, 10, 0
11, 88810, Note_on_c, 9, 44, 0
11, 88920, Note_on_c, 9, 44, 100
11, 88930, Note_on_c, 9, 44, 0
11, 89040, Note_on_c, 9, 36, 100
11, 89040, Note_on_c, 9, 44, 100
11, 89050, Note_on_c, 9, 36, 0
11, 89050, Note_on_c, 9, 44, 0
11, 89280, Note_on_c, 9, 51, 100
11, 89280, Note_on_c, 9, 44, 100
11, 89280, Note_on_c, 9, 10, 100
11, 89290, Note_on_c, 9, 51, 0
11, 89290, Note_on_c, 9, 44, 0
11, 89290, Note_on_c, 9, 10, 0
11, 89400, Note_on_c, 9, 10, 100
11, 89400, Note_on_c, 9, 44, 100
11, 89410, Note_on_c, 9, 10, 0
11, 89410, Note_on_c, 9, 44, 0
11, 89520, Note_on_c, 9, 36, 100
11, 89520, Note_on_c, 9, 44, 100
11, 89530, Note_on_c, 9, 36, 0
11, 89530, Note_on_c, 9, 44, 0
11, 89760, Note_on_c, 9, 51, 100
11, 89760, Note_on_c, 9, 44, 100
11, 89760, Note_on_c, 9, 10, 100
11, 89770, Note_on_c, 9, 51, 0
11, 89770, Note_on_c, 9, 44, 0
11, 89770, Note_on_c, 9, 10, 0
11, 89880, Note_on_c, 9, 44, 100
11, 89890, Note_on_c, 9, 44, 0
11, 90000, Note_on_c, 9, 36, 100
11, 90000, Note_on_c, 9, 44, 100
11, 90010, Note_on_c, 9, 36, 0
11, 90010, Note_on_c, 9, 44, 0
11, 90240, Note_on_c, 9, 44, 100
11, 90240, Note_on_c, 9, 10, 100
11, 90240, Note_on_c, 9, 51, 100
11, 90250, Note_on_c, 9, 44, 0
11, 90250, Note_on_c, 9, 10, 0
11, 90250, Note_on_c, 9, 51, 0
11, 90360, Note_on_c, 9, 44, 100
11, 90370, Note_on_c, 9, 44, 0
11, 90480, Note_on_c, 9, 44, 100
11, 90480, Note_on_c, 9, 36, 100
11, 90490, Note_on_c, 9, 44, 0
11, 90490, Note_on_c, 9, 36, 0
11, 90720, Note_on_c, 9, 44, 100
11, 90720, Note_on_c, 9, 10, 100
11, 90730, Note_on_c, 9, 44, 0
11, 90730, Note_on_c, 9, 10, 0
11, 90840, Note_on_c, 9, 44, 100
11, 90850, Note_on_c, 9, 44, 0
11, 90960, Note_on_c, 9, 44, 100
11, 90960, Note_on_c, 9, 36, 100
11, 90970, Note_on_c, 9, 44, 0
11, 90970, Note_on_c, 9, 36, 0
11, 91200, Note_on_c, 9, 44, 100
11, 91200, Note_on_c, 9, 10, 100
11, 91210, Note_on_c, 9, 44, 0
11, 91210, Note_on_c, 9, 10, 0
11, 91320, Note_on_c, 9, 44, 100
11, 91320, Note_on_c, 9, 10, 100
11, 91330, Note_on_c, 9, 44, 0
11, 91330, Note_on_c, 9, 10, 0
11, 91440, Note_on_c, 9, 44, 100
11, 91440, Note_on_c, 9, 36, 100
11, 91450, Note_on_c, 9, 44, 0
11, 91450, Note_on_c, 9, 36, 0
11, 91680, Note_on_c, 9, 44, 100
11, 91680, Note_on_c, 9, 10, 100
11, 91690, Note_on_c, 9, 44, 0
11, 91690, Note_on_c, 9, 10, 0
11, 91800, Note_on_c, 9, 44, 100
11, 91810, Note_on_c, 9, 44, 0
11, 91920, Note_on_c, 9, 44, 100
11, 91920, Note_on_c, 9, 36, 100
11, 91930, Note_on_c, 9, 44, 0
11, 91930, Note_on_c, 9, 36, 0
11, 92160, Note_on_c, 9, 44, 100
11, 92160, Note_on_c, 9, 10, 100
11, 92170, Note_on_c, 9, 44, 0
11, 92170, Note_on_c, 9, 10, 0
11, 92280, Note_on_c, 9, 44, 100
11, 92290, Note_on_c, 9, 44, 0
11, 92400, Note_on_c, 9, 36, 100
11, 92400, Note_on_c, 9, 44, 100
11, 92410, Note_on_c, 9, 36, 0
11, 92410, Note_on_c, 9, 44, 0
11, 92640, Note_on_c, 9, 44, 100
11, 92640, Note_on_c, 9, 10, 100
11, 92650, Note_on_c, 9, 44, 0
11, 92650, Note_on_c, 9, 10, 0
11, 92760, Note_on_c, 9, 44, 100
11, 92770, Note_on_c, 9, 44, 0
11, 92880, Note_on_c, 9, 44, 100
11, 92880, Note_on_c, 9, 36, 100
11, 92890, Note_on_c, 9, 44, 0
11, 92890, Note_on_c, 9, 36, 0
11, 93120, Note_on_c, 9, 44, 100
11, 93120, Note_on_c, 9, 10, 100
11, 93120, Note_on_c, 9, 51, 100
11, 93130, Note_on_c, 9, 44, 0
11, 93130, Note_on_c, 9, 10, 0
11, 93130, Note_on_c, 9, 51, 0
11, 93240, Note_on_c, 9, 10, 100
11, 93240, Note_on_c, 9, 44, 100
11, 93250, Note_on_c, 9, 10, 0
11, 93250, Note_on_c, 9, 44, 0
11, 93360, Note_on_c, 9, 36, 100
11, 93360, Note_on_c, 9, 44, 100
11, 93370, Note_on_c, 9, 36, 0
11, 93370, Note_on_c, 9, 44, 0
11, 93600, Note_on_c, 9, 44, 100
11, 93600, Note_on_c, 9, 10, 100
11, 93600, Note_on_c, 9, 51, 100
11, 93610, Note_on_c, 9, 44, 0
11, 93610, Note_on_c, 9, 10, 0
11, 93610, Note_on_c, 9, 51, 0
11, 93720, Note_on_c, 9, 44, 100
11, 93730, Note_on_c, 9, 44, 0
11, 93840, Note_on_c, 9, 36, 100
11, 93840, Note_on_c, 9, 44, 100
11, 93850, Note_on_c, 9, 36, 0
11, 93850, Note_on_c, 9, 44, 0
11, 94080, Note_on_c, 9, 44, 100
11, 94080, Note_on_c, 9, 10, 100
11, 94080, Note_on_c, 9, 51, 100
11, 94090, Note_on_c, 9, 44, 0
11, 94090, Note_on_c, 9, 10, 0
11, 94090, Note_on_c, 9, 51, 0
11, 94200, Note_on_c, 9, 44, 100
11, 94210, Note_on_c, 9, 44, 0
11, 94320, Note_on_c, 9, 44, 100
11, 94320, Note_on_c, 9, 36, 100
11, 94330, Note_on_c, 9, 44, 0
11, 94330, Note_on_c, 9, 36, 0
11, 94560, Note_on_c, 9, 44, 100
11, 94560, Note_on_c, 9, 10, 100
11, 94570, Note_on_c, 9, 44, 0
11, 94570, Note_on_c, 9, 10, 0
11, 94680, Note_on_c, 9, 44, 100
11, 94690, Note_on_c, 9, 44, 0
11, 94800, Note_on_c, 9, 44, 100
11, 94800, Note_on_c, 9, 36, 100
11, 94810, Note_on_c, 9, 44, 0
11, 94810, Note_on_c, 9, 36, 0
11, 95040, Note_on_c, 9, 44, 100
11, 95040, Note_on_c, 9, 10, 100
11, 95050, Note_on_c, 9, 44, 0
11, 95050, Note_on_c, 9, 10, 0
11, 95160, Note_on_c, 9, 44, 100
11, 95160, Note_on_c, 9, 10, 100
11, 95170, Note_on_c, 9, 44, 0
11, 95170, Note_on_c, 9, 10, 0
11, 95280, Note_on_c, 9, 44, 100
11, 95280, Note_on_c, 9, 36, 100
11, 95290, Note_on_c, 9, 44, 0
11, 95290, Note_on_c, 9, 36, 0
11, 95520, Note_on_c, 9, 44, 100
11, 95520, Note_on_c, 9, 10, 100
11, 95530, Note_on_c, 9, 44, 0
11, 95530, Note_on_c, 9, 10, 0
11, 95640, Note_on_c, 9, 44, 100
11, 95650, Note_on_c, 9, 44, 0
11, 95760, Note_on_c, 9, 44, 100
11, 95760, Note_on_c, 9, 36, 100
11, 95770, Note_on_c, 9, 44, 0
11, 95770, Note_on_c, 9, 36, 0
11, 96000, Note_on_c, 9, 10, 100
11, 96000, Note_on_c, 9, 44, 100
11, 96010, Note_on_c, 9, 10, 0
11, 96010, Note_on_c, 9, 44, 0
11, 96120, Note_on_c, 9, 44, 100
11, 96130, Note_on_c, 9, 44, 0
11, 96240, Note_on_c, 9, 44, 100
11, 96240, Note_on_c, 9, 36, 100
11, 96250, Note_on_c, 9, 44, 0
11, 96250, Note_on_c, 9, 36, 0
11, 96480, Note_on_c, 9, 44, 100
11, 96480, Note_on_c, 9, 10, 100
11, 96490, Note_on_c, 9, 44, 0
11, 96490, Note_on_c, 9, 10, 0
11, 96600, Note_on_c, 9, 44, 100
11, 96610, Note_on_c, 9, 44, 0
11, 96720, Note_on_c, 9, 44, 100
11, 96720, Note_on_c, 9, 36, 100
11, 96730, Note_on_c, 9, 44, 0
11, 96730, Note_on_c, 9, 36, 0
11, 96960, Note_on_c, 9, 44, 100
11, 96960, Note_on_c, 9, 10, 100
11, 96960, Note_on_c, 9, 51, 100
11, 96970, Note_on_c, 9, 44, 0
11, 96970, Note_on_c, 9, 10, 0
11, 96970, Note_on_c, 9, 51, 0
11, 97080, Note_on_c, 9, 44, 100
11, 97080, Note_on_c, 9, 10, 100
11, 97090, Note_on_c, 9, 44, 0
11, 97090, Note_on_c, 9, 10, 0
11, 97200, Note_on_c, 9, 44, 100
11, 97200, Note_on_c, 9, 36, 100
11, 97210, Note_on_c, 9, 44, 0
11, 97210, Note_on_c, 9, 36, 0
11, 97440, Note_on_c, 9, 44, 100
11, 97440, Note_on_c, 9, 10, 100
11, 97440, Note_on_c, 9, 51, 100
11, 97450, Note_on_c, 9, 44, 0
11, 97450, Note_on_c, 9, 10, 0
11, 97450, Note_on_c, 9, 51, 0
11, 97560, Note_on_c, 9, 44, 100
11, 97570, Note_on_c, 9, 44, 0
11, 97680, Note_on_c, 9, 44, 100
11, 97680, Note_on_c, 9, 36, 100
11, 97690, Note_on_c, 9, 44, 0
11, 97690, Note_on_c, 9, 36, 0
11, 97920, Note_on_c, 9, 10, 100
11, 97920, Note_on_c, 9, 51, 100
11, 97920, Note_on_c, 9, 44, 100
11, 97930, Note_on_c, 9, 10, 0
11, 97930, Note_on_c, 9, 51, 0
11, 97930, Note_on_c, 9, 44, 0
11, 98040, Note_on_c, 9, 44, 100
11, 98050, Note_on_c, 9, 44, 0
11, 98160, Note_on_c, 9, 36, 100
11, 98160, Note_on_c, 9, 44, 100
11, 98170, Note_on_c, 9, 36, 0
11, 98170, Note_on_c, 9, 44, 0
11, 98400, Note_on_c, 9, 10, 100
11, 98400, Note_on_c, 9, 44, 100
11, 98410, Note_on_c, 9, 10, 0
11, 98410, Note_on_c, 9, 44, 0
11, 98520, Note_on_c, 9, 44, 100
11, 98530, Note_on_c, 9, 44, 0
11, 98640, Note_on_c, 9, 36, 100
11, 98640, Note_on_c, 9, 44, 100
11, 98650, Note_on_c, 9, 36, 0
11, 98650, Note_on_c, 9, 44, 0
11, 98880, Note_on_c, 9, 10, 100
11, 98880, Note_on_c, 9, 44, 100
11, 98890, Note_on_c, 9, 10, 0
11, 98890, Note_on_c, 9, 44, 0
11, 99000, Note_on_c, 9, 10, 100
11, 99000, Note_on_c, 9, 44, 100
11, 99010, Note_on_c, 9, 10, 0
11, 99010, Note_on_c, 9, 44, 0
11, 99120, Note_on_c, 9, 36, 100
11, 99120, Note_on_c, 9, 44, 100
11, 99130, Note_on_c, 9, 36, 0
11, 99130, Note_on_c, 9, 44, 0
11, 99360, Note_on_c, 9, 10, 100
11, 99360, Note_on_c, 9, 44, 100
11, 99370, Note_on_c, 9, 10, 0
11, 99370, Note_on_c, 9, 44, 0
11, 99480, Note_on_c, 9, 44, 100
11, 99490, Note_on_c, 9, 44, 0
11, 99600, Note_on_c, 9, 36, 100
11, 99600, Note_on_c, 9, 44, 100
11, 99610, Note_on_c, 9, 36, 0
11, 99610, Note_on_c, 9, 44, 0
11, 99840, Note_on_c, 9, 10, 100
11, 99840, Note_on_c, 9, 44, 100
11, 99850, Note_on_c, 9, 10, 0
11, 99850, Note_on_c, 9, 44, 0
11, 99960, Note_on_c, 9, 44, 100
11, 99970, Note_on_c, 9, 44, 0
11, 100080, Note_on_c, 9, 44, 100
11, 100080, Note_on_c, 9, 36, 100
11, 100090, Note_on_c, 9, 44, 0
11, 100090, Note_on_c, 9, 36, 0
11, 100320, Note_on_c, 9, 10, 100
11, 100320, Note_on_c, 9, 44, 100
11, 100330, Note_on_c, 9, 10, 0
11, 100330, Note_on_c, 9, 44, 0
11, 100440, Note_on_c, 9, 44, 100
11, 100450, Note_on_c, 9, 44, 0
11, 100560, Note_on_c, 9, 36, 100
11, 100560, Note_on_c, 9, 44, 100
11, 100570, Note_on_c, 9, 36, 0
11, 100570, Note_on_c, 9, 44, 0
11, 100800, Note_on_c, 9, 10, 100
11, 100800, Note_on_c, 9, 51, 100
11, 100800, Note_on_c, 9, 44, 100
11, 100810, Note_on_c, 9, 10, 0
11, 100810, Note_on_c, 9, 51, 0
11, 100810, Note_on_c, 9, 44, 0
11, 100920, Note_on_c, 9, 44, 100
11, 100920, Note_on_c, 9, 10, 100
11, 100930, Note_on_c, 9, 44, 0
11, 100930, Note_on_c, 9, 10, 0
11, 101040, Note_on_c, 9, 44, 100
11, 101040, Note_on_c, 9, 36, 100
11, 101050, Note_on_c, 9, 44, 0
11, 101050, Note_on_c, 9, 36, 0
11, 101280, Note_on_c, 9, 10, 100
11, 101280, Note_on_c, 9, 51, 100
11, 101280, Note_on_c, 9, 44, 100
11, 101290, Note_on_c, 9, 10, 0
11, 101290, Note_on_c, 9, 51, 0
11, 101290, Note_on_c, 9, 44, 0
11, 101400, Note_on_c, 9, 44, 100
11, 101410, Note_on_c, 9, 44, 0
11, 101520, Note_on_c, 9, 44, 100
11, 101520, Note_on_c, 9, 36, 100
11, 101530, Note_on_c, 9, 44, 0
11, 101530, Note_on_c, 9, 36, 0
11, 101760, Note_on_c, 9, 44, 100
11, 101760, Note_on_c, 9, 10, 100
11, 101760, Note_on_c, 9, 51, 100
11, 101770, Note_on_c, 9, 44, 0
11, 101770, Note_on_c, 9, 10, 0
11, 101770, Note_on_c, 9, 51, 0
11, 101880, Note_on_c, 9, 44, 100
11, 101890, Note_on_c, 9, 44, 0
11, 102000, Note_on_c, 9, 44, 100
11, 102000, Note_on_c, 9, 36, 100
11, 102010, Note_on_c, 9, 44, 0
11, 102010, Note_on_c, 9, 36, 0
11, 102240, Note_on_c, 9, 44, 100
11, 102240, Note_on_c, 9, 10, 100
11, 102250, Note_on_c, 9, 44, 0
11, 102250, Note_on_c, 9, 10, 0
11, 102360, Note_on_c, 9, 44, 100
11, 102370, Note_on_c, 9, 44, 0
11, 102480, Note_on_c, 9, 44, 100
11, 102480, Note_on_c, 9, 36, 100
11, 102490, Note_on_c, 9, 44, 0
11, 102490, Note_on_c, 9, 36, 0
11, 102720, Note_on_c, 9, 44, 100
11, 102720, Note_on_c, 9, 10, 100
11, 102730, Note_on_c, 9, 44, 0
11, 102730, Note_on_c, 9, 10, 0
11, 102840, Note_on_c, 9, 44, 100
11, 102840, Note_on_c, 9, 10, 100
11, 102850, Note_on_c, 9, 44, 0
11, 102850, Note_on_c, 9, 10, 0
11, 102960, Note_on_c, 9, 44, 100
11, 102960, Note_on_c, 9, 36, 100
11, 102970, Note_on_c, 9, 44, 0
11, 102970, Note_on_c, 9, 36, 0
11, 103200, Note_on_c, 9, 44, 100
11, 103200, Note_on_c, 9, 10, 100
11, 103210, Note_on_c, 9, 44, 0
11, 103210, Note_on_c, 9, 10, 0
11, 103320, Note_on_c, 9, 44, 100
11, 103330, Note_on_c, 9, 44, 0
11, 103440, Note_on_c, 9, 44, 100
11, 103440, Note_on_c, 9, 36, 100
11, 103450, Note_on_c, 9, 44, 0
11, 103450, Note_on_c, 9, 36, 0
11, 103680, Note_on_c, 9, 10, 100
11, 103680, Note_on_c, 9, 44, 100
11, 103690, Note_on_c, 9, 10, 0
11, 103690, Note_on_c, 9, 44, 0
11, 103800, Note_on_c, 9, 44, 100
11, 103810, Note_on_c, 9, 44, 0
11, 103920, Note_on_c, 9, 44, 100
11, 103920, Note_on_c, 9, 36, 100
11, 103930, Note_on_c, 9, 44, 0
11, 103930, Note_on_c, 9, 36, 0
11, 104160, Note_on_c, 9, 44, 100
11, 104160, Note_on_c, 9, 10, 100
11, 104170, Note_on_c, 9, 44, 0
11, 104170, Note_on_c, 9, 10, 0
11, 104280, Note_on_c, 9, 44, 100
11, 104290, Note_on_c, 9, 44, 0
11, 104400, Note_on_c, 9, 44, 100
11, 104400, Note_on_c, 9, 36, 100
11, 104410, Note_on_c, 9, 44, 0
11, 104410, Note_on_c, 9, 36, 0
11, 104640, Note_on_c, 9, 44, 100
11, 104640, Note_on_c, 9, 10, 100
11, 104640, Note_on_c, 9, 51, 100
11, 104650, Note_on_c, 9, 44, 0
11, 104650, Note_on_c, 9, 10, 0
11, 104650, Note_on_c, 9, 51, 0
11, 104760, Note_on_c, 9, 44, 100
11, 104760, Note_on_c, 9, 10, 100
11, 104770, Note_on_c, 9, 44, 0
11, 104770, Note_on_c, 9, 10, 0
11, 104880, Note_on_c, 9, 44, 100
11, 104880, Note_on_c, 9, 36, 100
11, 104890, Note_on_c, 9, 44, 0
11, 104890, Note_on_c, 9, 36, 0
11, 105120, Note_on_c, 9, 44, 100
11, 105120, Note_on_c, 9, 10, 100
11, 105120, Note_on_c, 9, 51, 100
11, 105130, Note_on_c, 9, 44, 0
11, 105130, Note_on_c, 9, 10, 0
11, 105130, Note_on_c, 9, 51, 0
11, 105240, Note_on_c, 9, 44, 100
11, 105250, Note_on_c, 9, 44, 0
11, 105360, Note_on_c, 9, 44, 100
11, 105360, Note_on_c, 9, 36, 100
11, 105370, Note_on_c, 9, 44, 0
11, 105370, Note_on_c, 9, 36, 0
11, 105600, Note_on_c, 9, 51, 100
11, 105600, Note_on_c, 9, 44, 100
11, 105600, Note_on_c, 9, 10, 100
11, 105610, Note_on_c, 9, 51, 0
11, 105610, Note_on_c, 9, 44, 0
11, 105610, Note_on_c, 9, 10, 0
11, 105720, Note_on_c, 9, 44, 100
11, 105730, Note_on_c, 9, 44, 0
11, 105840, Note_on_c, 9, 44, 100
11, 105840, Note_on_c, 9, 36, 100
11, 105850, Note_on_c, 9, 44, 0
11, 105850, Note_on_c, 9, 36, 0
11, 106080, Note_on_c, 9, 44, 100
11, 106080, Note_on_c, 9, 10, 100
11, 106090, Note_on_c, 9, 44, 0
11, 106090, Note_on_c, 9, 10, 0
11, 106200, Note_on_c, 9, 44, 100
11, 106210, Note_on_c, 9, 44, 0
11, 106320, Note_on_c, 9, 44, 100
11, 106320, Note_on_c, 9, 36, 100
11, 106330, Note_on_c, 9, 44, 0
11, 106330, Note_on_c, 9, 36, 0
11, 106560, Note_on_c, 9, 44, 100
11, 106560, Note_on_c, 9, 10, 100
11, 106570, Note_on_c, 9, 44, 0
11, 106570, Note_on_c, 9, 10, 0
11, 106680, Note_on_c, 9, 44, 100
11, 106680, Note_on_c, 9, 10, 100
11, 106690, Note_on_c, 9, 44, 0
11, 106690, Note_on_c, 9, 10, 0
11, 106800, Note_on_c, 9, 44, 100
11, 106800, Note_on_c, 9, 36, 100
11, 106810, Note_on_c, 9, 44, 0
11, 106810, Note_on_c, 9, 36, 0
11, 107040, Note_on_c, 9, 44, 100
11, 107040, Note_on_c, 9, 10, 100
11, 107050, Note_on_c, 9, 44, 0
11, 107050, Note_on_c, 9, 10, 0
11, 107160, Note_on_c, 9, 44, 100
11, 107170, Note_on_c, 9, 44, 0
11, 107280, Note_on_c, 9, 44, 100
11, 107280, Note_on_c, 9, 36, 100
11, 107290, Note_on_c, 9, 44, 0
11, 107290, Note_on_c, 9, 36, 0
11, 107520, Note_on_c, 9, 10, 100
11, 107520, Note_on_c, 9, 44, 100
11, 107530, Note_on_c, 9, 10, 0
11, 107530, Note_on_c, 9, 44, 0
11, 107640, Note_on_c, 9, 44, 100
11, 107650, Note_on_c, 9, 44, 0
11, 107760, Note_on_c, 9, 44, 100
11, 107760, Note_on_c, 9, 36, 100
11, 107770, Note_on_c, 9, 44, 0
11, 107770, Note_on_c, 9, 36, 0
11, 108000, Note_on_c, 9, 44, 100
11, 108000, Note_on_c, 9, 10, 100
11, 108010, Note_on_c, 9, 44, 0
11, 108010, Note_on_c, 9, 10, 0
11, 108120, Note_on_c, 9, 44, 100
11, 108130, Note_on_c, 9, 44, 0
11, 108240, Note_on_c, 9, 44, 100
11, 108240, Note_on_c, 9, 36, 100
11, 108250, Note_on_c, 9, 44, 0
11, 108250, Note_on_c, 9, 36, 0
11, 108480, Note_on_c, 9, 44, 100
11, 108480, Note_on_c, 9, 10, 100
11, 108480, Note_on_c, 9, 51, 100
11, 108490, Note_on_c, 9, 44, 0
11, 108490, Note_on_c, 9, 10, 0
11, 108490, Note_on_c, 9, 51, 0
11, 108600, Note_on_c, 9, 44, 100
11, 108600, Note_on_c, 9, 10, 100
11, 108610, Note_on_c, 9, 44, 0
11, 108610, Note_on_c, 9, 10, 0
11, 108720, Note_on_c, 9, 44, 100
11, 108720, Note_on_c, 9, 36, 100
11, 108730, Note_on_c, 9, 44, 0
11, 108730, Note_on_c, 9, 36, 0
11, 108960, Note_on_c, 9, 44, 100
11, 108960, Note_on_c, 9, 10, 100
11, 108960, Note_on_c, 9, 51, 100
11, 108970, Note_on_c, 9, 44, 0
11, 108970, Note_on_c, 9, 10, 0
11, 108970, Note_on_c, 9, 51, 0
11, 109080, Note_on_c, 9, 44, 100
11, 109090, Note_on_c, 9, 44, 0
11, 109200, Note_on_c, 9, 44, 100
11, 109200, Note_on_c, 9, 36, 100
11, 109210, Note_on_c, 9, 44, 0
11, 109210, Note_on_c, 9, 36, 0
11, 109440, Note_on_c, 9, 44, 100
11, 109440, Note_on_c, 9, 10, 100
11, 109440, Note_on_c, 9, 51, 100
11, 109450, Note_on_c, 9, 44, 0
11, 109450, Note_on_c, 9, 10, 0
11, 109450, Note_on_c, 9, 51, 0
11, 109560, Note_on_c, 9, 44, 100
11, 109570, Note_on_c, 9, 44, 0
11, 109680, Note_on_c, 9, 44, 100
11, 109680, Note_on_c, 9, 36, 100
11, 109690, Note_on_c, 9, 44, 0
11, 109690, Note_on_c, 9, 36, 0
11, 109920, Note_on_c, 9, 44, 100
11, 109920, Note_on_c, 9, 10, 100
11, 109930, Note_on_c, 9, 44, 0
11, 109930, Note_on_c, 9, 10, 0
11, 110040, Note_on_c, 9, 44, 100
11, 110050, Note_on_c, 9, 44, 0
11, 110160, Note_on_c, 9, 44, 100
11, 110160, Note_on_c, 9, 36, 100
11, 110170, Note_on_c, 9, 44, 0
11, 110170, Note_on_c, 9, 36, 0
11, 110400, Note_on_c, 9, 44, 100
11, 110400, Note_on_c, 9, 10, 100
11, 110410, Note_on_c, 9, 44, 0
11, 110410, Note_on_c, 9, 10, 0
11, 110520, Note_on_c, 9, 44, 100
11, 110520, Note_on_c, 9, 10, 100
11, 110530, Note_on_c, 9, 44, 0
11, 110530, Note_on_c, 9, 10, 0
11, 110640, Note_on_c, 9, 44, 100
11, 110640, Note_on_c, 9, 36, 100
11, 110650, Note_on_c, 9, 44, 0
11, 110650, Note_on_c, 9, 36, 0
11, 110880, Note_on_c, 9, 44, 100
11, 110880, Note_on_c, 9, 10, 100
11, 110890, Note_on_c, 9, 44, 0
11, 110890, Note_on_c, 9, 10, 0
11, 111000, Note_on_c, 9, 44, 100
11, 111010, Note_on_c, 9, 44, 0
11, 111120, Note_on_c, 9, 44, 100
11, 111120, Note_on_c, 9, 36, 100
11, 111130, Note_on_c, 9, 44, 0
11, 111130, Note_on_c, 9, 36, 0
11, 111360, Note_on_c, 9, 10, 100
11, 111360, Note_on_c, 9, 44, 100
11, 111370, Note_on_c, 9, 10, 0
11, 111370, Note_on_c, 9, 44, 0
11, 111480, Note_on_c, 9, 44, 100
11, 111490, Note_on_c, 9, 44, 0
11, 111600, Note_on_c, 9, 44, 100
11, 111600, Note_on_c, 9, 36, 100
11, 111610, Note_on_c, 9, 44, 0
11, 111610, Note_on_c, 9, 36, 0
11, 111840, Note_on_c, 9, 44, 100
11, 111840, Note_on_c, 9, 10, 100
11, 111850, Note_on_c, 9, 44, 0
11, 111850, Note_on_c, 9, 10, 0
11, 111960, Note_on_c, 9, 44, 100
11, 111970, Note_on_c, 9, 44, 0
11, 112080, Note_on_c, 9, 44, 100
11, 112080, Note_on_c, 9, 36, 100
11, 112090, Note_on_c, 9, 44, 0
11, 112090, Note_on_c, 9, 36, 0
11, 112320, Note_on_c, 9, 44, 100
11, 112320, Note_on_c, 9, 10, 100
11, 112320, Note_on_c, 9, 51, 100
11, 112330, Note_on_c, 9, 44, 0
11, 112330, Note_on_c, 9, 10, 0
11, 112330, Note_on_c, 9, 51, 0
11, 112440, Note_on_c, 9, 44, 100
11, 112440, Note_on_c, 9, 10, 100
11, 112450, Note_on_c, 9, 44, 0
11, 112450, Note_on_c, 9, 10, 0
11, 112560, Note_on_c, 9, 44, 100
11, 112560, Note_on_c, 9, 36, 100
11, 112570, Note_on_c, 9, 44, 0
11, 112570, Note_on_c, 9, 36, 0
11, 112800, Note_on_c, 9, 44, 100
11, 112800, Note_on_c, 9, 10, 100
11, 112800, Note_on_c, 9, 51, 100
11, 112810, Note_on_c, 9, 44, 0
11, 112810, Note_on_c, 9, 10, 0
11, 112810, Note_on_c, 9, 51, 0
11, 112920, Note_on_c, 9, 44, 100
11, 112930, Note_on_c, 9, 44, 0
11, 113040, Note_on_c, 9, 44, 100
11, 113040, Note_on_c, 9, 36, 100
11, 113050, Note_on_c, 9, 44, 0
11, 113050, Note_on_c, 9, 36, 0
11, 113280, Note_on_c, 9, 44, 100
11, 113280, Note_on_c, 9, 10, 100
11, 113280, Note_on_c, 9, 51, 100
11, 113290, Note_on_c, 9, 44, 0
11, 113290, Note_on_c, 9, 10, 0
11, 113290, Note_on_c, 9, 51, 0
11, 113400, Note_on_c, 9, 44, 100
11, 113410, Note_on_c, 9, 44, 0
11, 113520, Note_on_c, 9, 44, 100
11, 113520, Note_on_c, 9, 36, 100
11, 113530, Note_on_c, 9, 44, 0
11, 113530, Note_on_c, 9, 36, 0
11, 113760, Note_on_c, 9, 44, 100
11, 113760, Note_on_c, 9, 10, 100
11, 113770, Note_on_c, 9, 44, 0
11, 113770, Note_on_c, 9, 10, 0
11, 113880, Note_on_c, 9, 44, 100
11, 113890, Note_on_c, 9, 44, 0
11, 114000, Note_on_c, 9, 44, 100
11, 114000, Note_on_c, 9, 36, 100
11, 114010, Note_on_c, 9, 44, 0
11, 114010, Note_on_c, 9, 36, 0
11, 114240, Note_on_c, 9, 44, 100
11, 114240, Note_on_c, 9, 10, 100
11, 114250, Note_on_c, 9, 44, 0
11, 114250, Note_on_c, 9, 10, 0
11, 114360, Note_on_c, 9, 44, 100
11, 114360, Note_on_c, 9, 10, 100
11, 114370, Note_on_c, 9, 44, 0
11, 114370, Note_on_c, 9, 10, 0
11, 114480, Note_on_c, 9, 44, 100
11, 114480, Note_on_c, 9, 36, 100
11, 114490, Note_on_c, 9, 44, 0
11, 114490, Note_on_c, 9, 36, 0
11, 114720, Note_on_c, 9, 44, 100
11, 114720, Note_on_c, 9, 10, 100
11, 114730, Note_on_c, 9, 44, 0
11, 114730, Note_on_c, 9, 10, 0
11, 114840, Note_on_c, 9, 44, 100
11, 114850, Note_on_c, 9, 44, 0
11, 114960, Note_on_c, 9, 44, 100
11, 114960, Note_on_c, 9, 36, 100
11, 114970, Note_on_c, 9, 44, 0
11, 114970, Note_on_c, 9, 36, 0
11, 115200, Note_on_c, 9, 10, 100
11, 115200, Note_on_c, 9, 44, 100
11, 115210, Note_on_c, 9, 10, 0
11, 115210, Note_on_c, 9, 44, 0
11, 115320, Note_on_c, 9, 44, 100
11, 115330, Note_on_c, 9, 44, 0
11, 115440, Note_on_c, 9, 44, 100
11, 115440, Note_on_c, 9, 36, 100
11, 115450, Note_on_c, 9, 44, 0
11, 115450, Note_on_c, 9, 36, 0
11, 115680, Note_on_c, 9, 44, 100
11, 115680, Note_on_c, 9, 10, 100
11, 115690, Note_on_c, 9, 44, 0
11, 115690, Note_on_c, 9, 10, 0
11, 115800, Note_on_c, 9, 44, 100
11, 115810, Note_on_c, 9, 44, 0
11, 115920, Note_on_c, 9, 44, 100
11, 115920, Note_on_c, 9, 36, 100
11, 115930, Note_on_c, 9, 44, 0
11, 115930, Note_on_c, 9, 36, 0
11, 116160, Note_on_c, 9, 44, 100
11, 116160, Note_on_c, 9, 10, 100
11, 116160, Note_on_c, 9, 51, 100
11, 116170, Note_on_c, 9, 44, 0
11, 116170, Note_on_c, 9, 10, 0
11, 116170, Note_on_c, 9, 51, 0
11, 116280, Note_on_c, 9, 44, 100
11, 116280, Note_on_c, 9, 10, 100
11, 116290, Note_on_c, 9, 44, 0
11, 116290, Note_on_c, 9, 10, 0
11, 116400, Note_on_c, 9, 44, 100
11, 116400, Note_on_c, 9, 36, 100
11, 116410, Note_on_c, 9, 44, 0
11, 116410, Note_on_c, 9, 36, 0
11, 116640, Note_on_c, 9, 44, 100
11, 116640, Note_on_c, 9, 10, 100
11, 116640, Note_on_c, 9, 51, 100
11, 116650, Note_on_c, 9, 44, 0
11, 116650, Note_on_c, 9, 10, 0
11, 116650, Note_on_c, 9, 51, 0
11, 116760, Note_on_c, 9, 44, 100
11, 116770, Note_on_c, 9, 44, 0
11, 116880, Note_on_c, 9, 44, 100
11, 116880, Note_on_c, 9, 36, 100
11, 116890, Note_on_c, 9, 44, 0
11, 116890, Note_on_c, 9, 36, 0
11, 117120, Note_on_c, 9, 10, 100
11, 117120, Note_on_c, 9, 51, 100
11, 117120, Note_on_c, 9, 44, 100
11, 117130, Note_on_c, 9, 10, 0
11, 117130, Note_on_c, 9, 51, 0
11, 117130, Note_on_c, 9, 44, 0
11, 117240, Note_on_c, 9, 44, 100
11, 117250, Note_on_c, 9, 44, 0
11, 117360, Note_on_c, 9, 44, 100
11, 117360, Note_on_c, 9, 36, 100
11, 117370, Note_on_c, 9, 44, 0
11, 117370, Note_on_c, 9, 36, 0
11, 117600, Note_on_c, 9, 10, 100
11, 117600, Note_on_c, 9, 51, 100
11, 117600, Note_on_c, 9, 44, 100
11, 117610, Note_on_c, 9, 10, 0
11, 117610, Note_on_c, 9, 51, 0
11, 117610, Note_on_c, 9, 44, 0
11, 117720, Note_on_c, 9, 44, 100
11, 117730, Note_on_c, 9, 44, 0
11, 117760, Note_on_c, 9, 51, 100
11, 117770, Note_on_c, 9, 51, 0
11, 117840, Note_on_c, 9, 44, 100
11, 117840, Note_on_c, 9, 36, 100
11, 117850, Note_on_c, 9, 44, 0
11, 117850, Note_on_c, 9, 36, 0
11, 117920, Note_on_c, 9, 51, 100
11, 117930, Note_on_c, 9, 51, 0
11, 118080, Note_on_c, 9, 10, 100
11, 118080, Note_on_c, 9, 51, 100
11, 118080, Note_on_c, 9, 44, 100
11, 118090, Note_on_c, 9, 10, 0
11, 118090, Note_on_c, 9, 51, 0
11, 118090, Note_on_c, 9, 44, 0
11, 118200, Note_on_c, 9, 44, 100
11, 118200, Note_on_c, 9, 10, 100
11, 118210, Note_on_c, 9, 44, 0
11, 118210, Note_on_c, 9, 10, 0
11, 118320, Note_on_c, 9, 44, 100
11, 118320, Note_on_c, 9, 36, 100
11, 118330, Note_on_c, 9, 44, 0
11, 118330, Note_on_c, 9, 36, 0
11, 118560, Note_on_c, 9, 10, 100
11, 118560, Note_on_c, 9, 51, 100
11, 118560, Note_on_c, 9, 44, 100
11, 118570, Note_on_c, 9, 10, 0
11, 118570, Note_on_c, 9, 51, 0
11, 118570, Note_on_c, 9, 44, 0
11, 118680, Note_on_c, 9, 44, 100
11, 118690, Note_on_c, 9, 44, 0
11, 118720, Note_on_c, 9, 51, 100
11, 118730, Note_on_c, 9, 51, 0
11, 118800, Note_on_c, 9, 44, 100
11, 118800, Note_on_c, 9, 36, 100
11, 118810, Note_on_c, 9, 44, 0
11, 118810, Note_on_c, 9, 36, 0
11, 118880, Note_on_c, 9, 51, 100
11, 118890, Note_on_c, 9, 51, 0
11, 119040, Note_on_c, 9, 44, 100
11, 119040, Note_on_c, 9, 51, 100
11, 119040, Note_on_c, 9, 10, 100
11, 119050, Note_on_c, 9, 44, 0
11, 119050, Note_on_c, 9, 51, 0
11, 119050, Note_on_c, 9, 10, 0
11, 119160, Note_on_c, 9, 44, 100
11, 119170, Note_on_c, 9, 44, 0
11, 119280, Note_on_c, 9, 44, 100
11, 119280, Note_on_c, 9, 36, 100
11, 119290, Note_on_c, 9, 44, 0
11, 119290, Note_on_c, 9, 36, 0
11, 119520, Note_on_c, 9, 10, 100
11, 119520, Note_on_c, 9, 51, 100
11, 119520, Note_on_c, 9, 44, 100
11, 119530, Note_on_c, 9, 10, 0
11, 119530, Note_on_c, 9, 51, 0
11, 119530, Note_on_c, 9, 44, 0
11, 119640, Note_on_c, 9, 44, 100
11, 119650, Note_on_c, 9, 44, 0
11, 119680, Note_on_c, 9, 51, 100
11, 119690, Note_on_c, 9, 51, 0
11, 119760, Note_on_c, 9, 44, 100
11, 119760, Note_on_c, 9, 36, 100
11, 119770, Note_on_c, 9, 44, 0
11, 119770, Note_on_c, 9, 36, 0
11, 119840, Note_on_c, 9, 51, 100
11, 119850, Note_on_c, 9, 51, 0
11, 120000, Note_on_c, 9, 44, 100
11, 120000, Note_on_c, 9, 10, 100
11, 120000, Note_on_c, 9, 51, 100
11, 120010, Note_on_c, 9, 44, 0
11, 120010, Note_on_c, 9, 10, 0
11, 120010, Note_on_c, 9, 51, 0
11, 120120, Note_on_c, 9, 44, 100
11, 120120, Note_on_c, 9, 10, 100
11, 120130, Note_on_c, 9, 44, 0
11, 120130, Note_on_c, 9, 10, 0
11, 120240, Note_on_c, 9, 44, 100
11, 120240, Note_on_c, 9, 36, 100
11, 120250, Note_on_c, 9, 44, 0
11, 120250, Note_on_c, 9, 36, 0
11, 120480, Note_on_c, 9, 44, 100
11, 120480, Note_on_c, 9, 10, 100
11, 120480, Note_on_c, 9, 51, 100
11, 120490, Note_on_c, 9, 44, 0
11, 120490, Note_on_c, 9, 10, 0
11, 120490, Note_on_c, 9, 51, 0
11, 120600, Note_on_c, 9, 44, 100
11, 120610, Note_on_c, 9, 44, 0
11, 120720, Note_on_c, 9, 44, 100
11, 120720, Note_on_c, 9, 36, 100
11, 120730, Note_on_c, 9, 44, 0
11, 120730, Note_on_c, 9, 36, 0
11, 120730, End_track
0, 0, End_of_file