0, 0, Header, 0, 1, 480
1, 0, Start_track
1, 0, Title_t, ""
1, 0, Time_signature, 4, 2, 24, 8
1, 0, Key_signature, -1, "major"
1, 0, Tempo, 500000
1, 0, MIDI_port, 0
1, 0, Control_c, 0, 10, 75
1, 0, Control_c, 0, 91, 90
1, 0, Control_c, 0, 94, 10
1, 0, MIDI_port, 0
1, 0, Control_c, 1, 11, 99
1, 0, Control_c, 1, 10, 55
1, 0, Control_c, 1, 91, 90
1, 0, Control_c, 1, 94, 10
1, 0, MIDI_port, 0
1, 0, Control_c, 2, 11, 101
1, 0, Control_c, 2, 10, 110
1, 0, Control_c, 2, 91, 100
1, 0, MIDI_port, 0
1, 0, Control_c, 3, 11, 99
1, 0, Control_c, 3, 10, 20
1, 0, MIDI_port, 0
1, 0, Control_c, 4, 11, 99
1, 0, Control_c, 4, 10, 40
1, 0, Control_c, 4, 91, 100
1, 0, MIDI_port, 0
1, 0, MIDI_port, 0
1, 0, MIDI_port, 0
1, 0, MIDI_port, 0
1, 0, MIDI_port, 0
1, 0, Control_c, 9, 11, 100
1, 30, Control_c, 0, 11, 100
1, 30, Control_c, 0, 10, 75
1, 30, Control_c, 0, 91, 90
1, 30, Control_c, 0, 94, 10
1, 30, Control_c, 1, 11, 99
1, 30, Control_c, 1, 10, 55
1, 30, Control_c, 1, 91, 90
1, 30, Control_c, 1, 94, 10
1, 30, Control_c, 2, 11, 101
1, 30, Control_c, 2, 10, 110
1, 30, Control_c, 2, 91, 100
1, 30, Control_c, 3, 11, 99
1, 30, Control_c, 3, 10, 20
1, 30, Control_c, 4, 11, 99
1, 30, Control_c, 4, 10, 40
1, 30, Control_c, 4, 91, 100
1, 30, Control_c, 9, 11, 100
1, 60, Control_c, 0, 11, 100
1, 60, Control_c, 0, 10, 75
1, 60, Control_c, 0, 91, 90
1, 60, Control_c, 0, 94, 10
1, 60, Control_c, 1, 11, 99
1, 60, Control_c, 1, 10, 55
1, 60, Control_c, 1, 91, 90
1, 60, Control_c, 1, 94, 10
1, 60, Control_c, 2, 11, 101
1, 60, Control_c, 2, 10, 110
1, 60, Control_c, 2, 91, 100
1, 60, Control_c, 3, 11, 99
1, 60, Control_c, 3, 10, 20
1, 60, Control_c, 4, 11, 99
1, 60, Control_c, 4, 10, 40
1, 60, Control_c, 4, 91, 100
1, 60, Control_c, 9, 11, 100
1, 90, Control_c, 0, 11, 100
1, 90, Control_c, 0, 10, 75
1, 90, Control_c, 0, 91, 90
1, 90, Control_c, 0, 94, 10
1, 90, Control_c, 1, 11, 100
1, 90, Control_c, 1, 10, 55
1, 90, Control_c, 1, 91, 90
1, 90, Control_c, 1, 94, 10
1, 90, Control_c, 2, 11, 102
1, 90, Control_c, 2, 10, 110
1, 90, Control_c, 2, 91, 100
1, 90, Control_c, 3, 11, 100
1, 90, Control_c, 3, 10, 20
1, 90, Control_c, 4, 11, 100
1, 90, Control_c, 4, 10, 40
1, 90, Control_c, 4, 91, 100
1, 90, Control_c, 9, 11, 101
1, 120, Control_c, 0, 11, 101
1, 120, Control_c, 0, 10, 75
1, 120, Control_c, 0, 91, 90
1, 120, Control_c, 0, 94, 10
1, 120, Control_c, 1, 11, 100
1, 120, Control_c, 1, 10, 55
1, 120, Control_c, 1, 91, 90
1, 120, Control_c, 1, 94, 10
1, 120, Control_c, 2, 11, 102
1, 120, Control_c, 2, 10, 110
1, 120, Control_c, 2, 91, 100
1, 120, Control_c, 3, 11, 100
1, 120, Control_c, 3, 10, 20
1, 120, Control_c, 4, 11, 100
1, 120, Control_c, 4, 10, 40
1, 120, Control_c, 4, 91, 100
1, 120, Control_c, 9, 11, 101
1, 150, Control_c, 0, 11, 101
1, 150, Control_c, 0, 10, 75
1, 150, Control_c, 0, 91, 90
1, 150, Control_c, 0, 94, 10
1, 150, Control_c, 1, 11, 101
1, 150, Control_c, 1, 10, 55
1, 150, Control_c, 1, 91, 90
1, 150, Control_c, 1, 94, 10
1, 150, Control_c, 2, 11, 103
1, 150, Control_c, 2, 10, 110
1, 150, Control_c, 2, 91, 100
1, 150, Control_c, 3, 11, 101
1, 150, Control_c, 3, 10, 20
1, 150, Control_c, 4, 11, 101
1, 150, Control_c, 4, 10, 40
1, 150, Control_c, 4, 91, 100
1, 150, Control_c, 9, 11, 102
1, 180, Control_c, 0, 11, 102
1, 180, Control_c, 0, 10, 75
1, 180, Control_c, 0, 94, 10
1, 180, Control_c, 1, 11, 101
1, 180, Control_c, 1, 10, 55
1, 180, Control_c, 1, 91, 90
1, 180, Control_c, 2, 11, 103
1, 180, Control_c, 2, 10, 110
1, 180, Control_c, 2, 91, 100
1, 180, Control_c, 3, 11, 101
1, 180, Control_c, 3, 10, 20
1, 180, Control_c, 4, 11, 101
1, 180, Control_c, 4, 91, 100
1, 180, Control_c, 9, 11, 102
1, 210, Control_c, 0, 11, 102
1, 210, Control_c, 0, 10, 75
1, 210, Control_c, 1, 11, 102
1, 210, Control_c, 1, 10, 55
1, 210, Control_c, 1, 91, 90
1, 210, Control_c, 2, 11, 103
1, 210, Control_c, 2, 10, 110
1, 210, Control_c, 2, 91, 100
1, 210, Control_c, 3, 11, 102
1, 210, Control_c, 3, 10, 20
1, 210, Control_c, 4, 11, 102
1, 210, Control_c, 4, 91, 100
1, 210, Control_c, 9, 11, 103
1, 240, Control_c, 0, 11, 102
1, 240, Control_c, 0, 10, 75
1, 240, Control_c, 1, 11, 102
1, 240, Control_c, 1, 10, 55
1, 240, Control_c, 1, 91, 90
1, 240, Control_c, 2, 11, 104
1, 240, Control_c, 2, 10, 110
1, 240, Control_c, 3, 11, 102
1, 240, Control_c, 3, 10, 20
1, 240, Control_c, 4, 11, 102
1, 240, Control_c, 4, 91, 100
1, 240, Control_c, 9, 11, 103
1, 270, Control_c, 0, 11, 103
1, 270, Control_c, 0, 10, 75
1, 270, Control_c, 1, 11, 103
1, 270, Control_c, 1, 10, 55
1, 270, Control_c, 1, 91, 90
1, 270, Control_c, 2, 11, 104
1, 270, Control_c, 2, 10, 110
1, 270, Control_c, 3, 11, 103
1, 270, Control_c, 3, 10, 20
1, 270, Control_c, 4, 11, 103
1, 270, Control_c, 4, 91, 100
1, 270, Control_c, 9, 11, 103
1, 300, Control_c, 0, 11, 103
1, 300, Control_c, 0, 10, 75
1, 300, Control_c, 1, 11, 103
1, 300, Control_c, 1, 10, 55
1, 300, Control_c, 1, 91, 90
1, 300, Control_c, 2, 11, 105
1, 300, Control_c, 2, 10, 110
1, 300, Control_c, 3, 11, 103
1, 300, Control_c, 3, 10, 20
1, 300, Control_c, 4, 11, 103
1, 300, Control_c, 4, 91, 100
1, 300, Control_c, 9, 11, 104
1, 330, Control_c, 0, 11, 104
1, 330, Control_c, 0, 10, 75
1, 330, Control_c, 1, 11, 103
1, 330, Control_c, 1, 10, 55
1, 330, Control_c, 2, 11, 105
1, 330, Control_c, 2, 10, 110
1, 330, Control_c, 3, 11, 103
1, 330, Control_c, 3, 10, 20
1, 330, Control_c, 4, 11, 103
1, 330, Control_c, 4, 91, 100
1, 330, Control_c, 9, 11, 104
1, 360, Control_c, 0, 11, 104
1, 360, Control_c, 0, 10, 75
1, 360, Control_c, 1, 11, 104
1, 360, Control_c, 1, 10, 55
1, 360, Control_c, 2, 11, 106
1, 360, Control_c, 2, 10, 110
1, 360, Control_c, 3, 11, 104
1, 360, Control_c, 3, 10, 20
1, 360, Control_c, 4, 11, 104
1, 360, Control_c, 4, 91, 100
1, 360, Control_c, 9, 11, 105
1, 390, Control_c, 0, 11, 105
1, 390, Control_c, 0, 10, 75
1, 390, Control_c, 1, 11, 104
1, 390, Control_c, 1, 10, 55
1, 390, Control_c, 2, 11, 106
1, 390, Control_c, 2, 10, 110
1, 390, Control_c, 3, 11, 104
1, 390, Control_c, 3, 10, 20
1, 390, Control_c, 4, 11, 104
1, 390, Control_c, 4, 91, 100
1, 390, Control_c, 9, 11, 105
1, 420, Control_c, 0, 11, 105
1, 420, Control_c, 0, 10, 75
1, 420, Control_c, 1, 11, 105
1, 420, Control_c, 1, 10, 55
1, 420, Control_c, 2, 11, 106
1, 420, Control_c, 2, 10, 110
1, 420, Control_c, 3, 11, 105
1, 420, Control_c, 3, 10, 20
1, 420, Control_c, 4, 11, 105
1, 420, Control_c, 4, 91, 100
1, 420, Control_c, 9, 11, 106
1, 450, Control_c, 0, 11, 105
1, 450, Control_c, 0, 10, 75
1, 450, Control_c, 1, 11, 105
1, 450, Control_c, 1, 10, 55
1, 450, Control_c, 2, 11, 107
1, 450, Control_c, 2, 10, 110
1, 450, Control_c, 3, 11, 105
1, 450, Control_c, 3, 10, 20
1, 450, Control_c, 4, 11, 105
1, 450, Control_c, 4, 91, 100
1, 450, Control_c, 9, 11, 106
1, 480, Control_c, 0, 11, 106
1, 480, Control_c, 0, 10, 75
1, 480, Control_c, 1, 11, 106
1, 480, Control_c, 1, 10, 55
1, 480, Control_c, 2, 11, 107
1, 480, Control_c, 2, 10, 110
1, 480, Control_c, 3, 11, 106
1, 480, Control_c, 4, 11, 106
1, 480, Control_c, 4, 91, 100
1, 480, Control_c, 9, 11, 107
1, 510, Control_c, 0, 11, 106
1, 510, Control_c, 0, 10, 75
1, 510, Control_c, 1, 11, 106
1, 510, Control_c, 1, 10, 55
1, 510, Control_c, 2, 11, 108
1, 510, Control_c, 2, 10, 110
1, 510, Control_c, 3, 11, 106
1, 510, Control_c, 4, 11, 106
1, 510, Control_c, 9, 11, 107
1, 540, Control_c, 0, 11, 107
1, 540, Control_c, 0, 10, 75
1, 540, Control_c, 1, 11, 107
1, 540, Control_c, 1, 10, 55
1, 540, Control_c, 2, 11, 108
1, 540, Control_c, 2, 10, 110
1, 540, Control_c, 3, 11, 107
1, 540, Control_c, 4, 11, 107
1, 540, Control_c, 9, 11, 107
1, 570, Control_c, 0, 11, 107
1, 570, Control_c, 0, 10, 75
1, 570, Control_c, 1, 11, 107
1, 570, Control_c, 1, 10, 55
1, 570, Control_c, 2, 11, 109
1, 570, Control_c, 2, 10, 110
1, 570, Control_c, 3, 11, 107
1, 570, Control_c, 4, 11, 107
1, 570, Control_c, 9, 11, 108
1, 600, Control_c, 0, 11, 108
1, 600, Control_c, 0, 10, 75
1, 600, Control_c, 1, 11, 108
1, 600, Control_c, 1, 10, 55
1, 600, Control_c, 2, 11, 109
1, 600, Control_c, 2, 10, 110
1, 600, Control_c, 3, 11, 108
1, 600, Control_c, 4, 11, 108
1, 600, Control_c, 9, 11, 108
1, 630, Control_c, 0, 11, 108
1, 630, Control_c, 1, 11, 108
1, 630, Control_c, 1, 10, 55
1, 630, Control_c, 2, 11, 109
1, 630, Control_c, 2, 10, 110
1, 630, Control_c, 3, 11, 108
1, 630, Control_c, 4, 11, 108
1, 630, Control_c, 9, 11, 109
1, 660, Control_c, 0, 11, 108
1, 660, Control_c, 1, 11, 108
1, 660, Control_c, 1, 10, 55
1, 660, Control_c, 2, 11, 110
1, 660, Control_c, 2, 10, 110
1, 660, Control_c, 3, 11, 108
1, 660, Control_c, 4, 11, 108
1, 660, Control_c, 9, 11, 109
1, 690, Control_c, 0, 11, 109
1, 690, Control_c, 1, 11, 109
1, 690, Control_c, 1, 10, 55
1, 690, Control_c, 2, 11, 110
1, 690, Control_c, 2, 10, 110
1, 690, Control_c, 3, 11, 109
1, 690, Control_c, 4, 11, 109
1, 690, Control_c, 9, 11, 110
1, 720, Control_c, 0, 11, 109
1, 720, Control_c, 1, 11, 109
1, 720, Control_c, 1, 10, 55
1, 720, Control_c, 2, 11, 111
1, 720, Control_c, 2, 10, 110
1, 720, Control_c, 3, 11, 109
1, 720, Control_c, 4, 11, 109
1, 720, Control_c, 9, 11, 110
1, 750, Control_c, 0, 11, 110
1, 750, Control_c, 1, 11, 110
1, 750, Control_c, 2, 11, 111
1, 750, Control_c, 2, 10, 110
1, 750, Control_c, 3, 11, 110
1, 750, Control_c, 4, 11, 110
1, 750, Control_c, 9, 11, 111
1, 780, Control_c, 0, 11, 110
1, 780, Control_c, 1, 11, 110
1, 780, Control_c, 2, 11, 112
1, 780, Control_c, 2, 10, 110
1, 780, Control_c, 3, 11, 110
1, 780, Control_c, 4, 11, 110
1, 780, Control_c, 9, 11, 111
1, 810, Control_c, 0, 11, 111
1, 810, Control_c, 1, 11, 111
1, 810, Control_c, 2, 11, 112
1, 810, Control_c, 2, 10, 110
1, 810, Control_c, 3, 11, 111
1, 810, Control_c, 4, 11, 111
1, 810, Control_c, 9, 11, 111
1, 840, Control_c, 0, 11, 111
1, 840, Control_c, 1, 11, 111
1, 840, Control_c, 2, 11, 112
1, 840, Control_c, 2, 10, 110
1, 840, Control_c, 3, 11, 111
1, 840, Control_c, 4, 11, 111
1, 840, Control_c, 9, 11, 112
1, 870, Control_c, 0, 11, 111
1, 870, Control_c, 1, 11, 112
1, 870, Control_c, 2, 11, 113
1, 870, Control_c, 2, 10, 110
1, 870, Control_c, 3, 11, 112
1, 870, Control_c, 4, 11, 112
1, 870, Control_c, 9, 11, 112
1, 900, Control_c, 0, 11, 112
1, 900, Control_c, 1, 11, 112
1, 900, Control_c, 2, 11, 113
1, 900, Control_c, 3, 11, 112
1, 900, Control_c, 4, 11, 112
1, 900, Control_c, 9, 11, 113
1, 930, Control_c, 0, 11, 112
1, 930, Control_c, 1, 11, 113
1, 930, Control_c, 2, 11, 114
1, 930, Control_c, 3, 11, 113
1, 930, Control_c, 4, 11, 113
1, 930, Control_c, 9, 11, 113
1, 960, Control_c, 0, 11, 113
1, 960, Control_c, 1, 11, 113
1, 960, Control_c, 2, 11, 114
1, 960, Control_c, 3, 11, 113
1, 960, Control_c, 4, 11, 113
1, 960, Control_c, 9, 11, 114
1, 990, Control_c, 0, 11, 113
1, 990, Control_c, 1, 11, 113
1, 990, Control_c, 2, 11, 115
1, 990, Control_c, 3, 11, 113
1, 990, Control_c, 4, 11, 113
1, 990, Control_c, 9, 11, 114
1, 1020, Control_c, 0, 11, 114
1, 1020, Control_c, 1, 11, 114
1, 1020, Control_c, 2, 11, 115
1, 1020, Control_c, 3, 11, 114
1, 1020, Control_c, 4, 11, 114
1, 1020, Control_c, 9, 11, 115
1, 1050, Control_c, 0, 11, 114
1, 1050, Control_c, 1, 11, 114
1, 1050, Control_c, 2, 11, 115
1, 1050, Control_c, 3, 11, 114
1, 1050, Control_c, 4, 11, 114
1, 1050, Control_c, 9, 11, 115
1, 1080, Control_c, 0, 11, 114
1, 1080, Control_c, 1, 11, 115
1, 1080, Control_c, 2, 11, 116
1, 1080, Control_c, 3, 11, 115
1, 1080, Control_c, 4, 11, 115
1, 1080, Control_c, 9, 11, 115
1, 1110, Control_c, 0, 11, 115
1, 1110, Control_c, 1, 11, 115
1, 1110, Control_c, 2, 11, 116
1, 1110, Control_c, 3, 11, 115
1, 1110, Control_c, 4, 11, 115
1, 1110, Control_c, 9, 11, 116
1, 1140, Control_c, 0, 11, 115
1, 1140, Control_c, 1, 11, 116
1, 1140, Control_c, 2, 11, 117
1, 1140, Control_c, 3, 11, 116
1, 1140, Control_c, 4, 11, 116
1, 1140, Control_c, 9, 11, 116
1, 1170, Control_c, 0, 11, 116
1, 1170, Control_c, 1, 11, 116
1, 1170, Control_c, 2, 11, 117
1, 1170, Control_c, 3, 11, 116
1, 1170, Control_c, 4, 11, 116
1, 1170, Control_c, 9, 11, 117
1, 1200, Control_c, 0, 11, 116
1, 1200, Control_c, 1, 11, 117
1, 1200, Control_c, 2, 11, 118
1, 1200, Control_c, 3, 11, 117
1, 1200, Control_c, 4, 11, 117
1, 1200, Control_c, 9, 11, 117
1, 1230, Control_c, 0, 11, 116
1, 1230, Control_c, 1, 11, 117
1, 1230, Control_c, 2, 11, 118
1, 1230, Control_c, 3, 11, 117
1, 1230, Control_c, 4, 11, 117
1, 1230, Control_c, 9, 11, 118
1, 1260, Control_c, 0, 11, 117
1, 1260, Control_c, 1, 11, 118
1, 1260, Control_c, 2, 11, 118
1, 1260, Control_c, 3, 11, 118
1, 1260, Control_c, 4, 11, 118
1, 1260, Control_c, 9, 11, 118
1, 1290, Control_c, 0, 11, 117
1, 1290, Control_c, 1, 11, 118
1, 1290, Control_c, 2, 11, 119
1, 1290, Control_c, 3, 11, 118
1, 1290, Control_c, 4, 11, 118
1, 1290, Control_c, 9, 11, 119
1, 1320, Control_c, 0, 11, 118
1, 1320, Control_c, 1, 11, 118
1, 1320, Control_c, 2, 11, 119
1, 1320, Control_c, 3, 11, 118
1, 1320, Control_c, 4, 11, 118
1, 1320, Control_c, 9, 11, 119
1, 1350, Control_c, 0, 11, 118
1, 1350, Control_c, 1, 11, 119
1, 1350, Control_c, 2, 11, 120
1, 1350, Control_c, 3, 11, 119
1, 1350, Control_c, 4, 11, 119
1, 1350, Control_c, 9, 11, 119
1, 1380, Control_c, 0, 11, 119
1, 1380, Control_c, 1, 11, 119
1, 1380, Control_c, 2, 11, 120
1, 1380, Control_c, 3, 11, 119
1, 1380, Control_c, 4, 11, 119
1, 1380, Control_c, 9, 11, 120
1, 1410, Control_c, 0, 11, 119
1, 1410, Control_c, 1, 11, 120
1, 1410, Control_c, 2, 11, 121
1, 1410, Control_c, 3, 11, 120
1, 1410, Control_c, 4, 11, 120
1, 1410, Control_c, 9, 11, 120
1, 1440, Control_c, 0, 11, 119
1, 1440, Control_c, 1, 11, 120
1, 1440, Control_c, 2, 11, 121
1, 1440, Control_c, 3, 11, 120
1, 1440, Control_c, 4, 11, 120
1, 1440, Control_c, 9, 11, 121
1, 1470, Control_c, 0, 11, 120
1, 1470, Control_c, 1, 11, 121
1, 1470, Control_c, 2, 11, 121
1, 1470, Control_c, 3, 11, 121
1, 1470, Control_c, 4, 11, 121
1, 1470, Control_c, 9, 11, 121
1, 1500, Control_c, 0, 11, 120
1, 1500, Control_c, 1, 11, 121
1, 1500, Control_c, 2, 11, 122
1, 1500, Control_c, 3, 11, 121
1, 1500, Control_c, 4, 11, 121
1, 1500, Control_c, 9, 11, 122
1, 1530, Control_c, 0, 11, 121
1, 1530, Control_c, 1, 11, 122
1, 1530, Control_c, 2, 11, 122
1, 1530, Control_c, 3, 11, 122
1, 1530, Control_c, 4, 11, 122
1, 1530, Control_c, 9, 11, 122
1, 1560, Control_c, 0, 11, 121
1, 1560, Control_c, 1, 11, 122
1, 1560, Control_c, 2, 11, 123
1, 1560, Control_c, 3, 11, 122
1, 1560, Control_c, 4, 11, 122
1, 1560, Control_c, 9, 11, 123
1, 1590, Control_c, 0, 11, 122
1, 1590, Control_c, 1, 11, 123
1, 1590, Control_c, 2, 11, 123
1, 1590, Control_c, 3, 11, 123
1, 1590, Control_c, 4, 11, 123
1, 1590, Control_c, 9, 11, 123
1, 1620, Control_c, 0, 11, 122
1, 1620, Control_c, 1, 11, 123
1, 1620, Control_c, 2, 11, 124
1, 1620, Control_c, 3, 11, 123
1, 1620, Control_c, 4, 11, 123
1, 1620, Control_c, 9, 11, 123
1, 1650, Control_c, 0, 11, 122
1, 1650, Control_c, 1, 11, 123
1, 1650, Control_c, 2, 11, 124
1, 1650, Control_c, 3, 11, 123
1, 1650, Control_c, 4, 11, 123
1, 1650, Control_c, 9, 11, 124
1, 1680, Control_c, 0, 11, 123
1, 1680, Control_c, 1, 11, 124
1, 1680, Control_c, 2, 11, 124
1, 1680, Control_c, 3, 11, 124
1, 1680, Control_c, 4, 11, 124
1, 1680, Control_c, 9, 11, 124
1, 1710, Control_c, 0, 11, 123
1, 1710, Control_c, 1, 11, 124
1, 1710, Control_c, 2, 11, 125
1, 1710, Control_c, 3, 11, 124
1, 1710, Control_c, 4, 11, 124
1, 1710, Control_c, 9, 11, 125
1, 1740, Control_c, 0, 11, 124
1, 1740, Control_c, 1, 11, 125
1, 1740, Control_c, 2, 11, 125
1, 1740, Control_c, 3, 11, 125
1, 1740, Control_c, 4, 11, 125
1, 1740, Control_c, 9, 11, 125
1, 1770, Control_c, 0, 11, 124
1, 1770, Control_c, 1, 11, 125
1, 1770, Control_c, 2, 11, 126
1, 1770, Control_c, 3, 11, 125
1, 1770, Control_c, 4, 11, 125
1, 1770, Control_c, 9, 11, 126
1, 1800, Control_c, 0, 11, 125
1, 1800, Control_c, 1, 11, 126
1, 1800, Control_c, 2, 11, 126
1, 1800, Control_c, 3, 11, 126
1, 1800, Control_c, 4, 11, 126
1, 1800, Control_c, 9, 11, 126
1, 1830, Control_c, 0, 11, 125
1, 1830, Control_c, 1, 11, 126
1, 1830, Control_c, 2, 11, 127
1, 1830, Control_c, 3, 11, 126
1, 1830, Control_c, 4, 11, 126
1, 1830, Control_c, 9, 11, 127
1, 1860, Control_c, 0, 11, 125
1, 1860, Control_c, 1, 11, 127
1, 1860, Control_c, 2, 11, 127
1, 1860, Control_c, 3, 11, 127
1, 1860, Control_c, 4, 11, 127
1, 1860, Control_c, 9, 11, 127
1, 1890, Control_c, 0, 11, 126
1, 1890, Control_c, 1, 11, 127
1, 1890, Control_c, 3, 11, 127
1, 1890, Control_c, 4, 11, 127
1, 1920, Tempo, 461538
1, 1920, Control_c, 0, 0, 0
1, 1920, Control_c, 0, 32, 0
1, 1920, Program_c, 0, 3
1, 1920, Control_c, 0, 7, 127
1, 1920, Control_c, 1, 0, 0
1, 1920, Control_c, 1, 32, 0
1, 1920, Program_c, 1, 1
1, 1920, Control_c, 1, 7, 126
1, 1920, Control_c, 2, 0, 0
1, 1920, Control_c, 2, 32, 0
1, 1920, Program_c, 2, 16
1, 1920, Control_c, 3, 0, 0
1, 1920, Control_c, 3, 32, 0
1, 1920, Program_c, 3, 38
1, 1920, Note_on_c, 3, 31, 100
1, 1920, Control_c, 4, 0, 0
1, 1920, Control_c, 4, 32, 0
1, 1920, Program_c, 4, 50
1, 1920, Note_on_c, 4, 58, 100
1, 1920, Note_on_c, 4, 67, 100
1, 1920, Control_c, 4, 7, 80
1, 1920, Control_c, 9, 0, 0
1, 1920, Control_c, 9, 32, 0
1, 1920, Program_c, 9, 11
1, 1920, Note_on_c, 9, 51, 100
1, 1920, Note_on_c, 9, 10, 100
1, 1930, Note_on_c, 9, 51, 0
1, 1930, Note_on_c, 9, 10, 0
1, 1950, Control_c, 0, 7, 127
1, 1950, Control_c, 1, 7, 126
1, 1950, Control_c, 4, 7, 80
1, 1980, Control_c, 0, 7, 127
1, 1980, Control_c, 0, 11, 126
1, 1980, Control_c, 1, 7, 126
1, 1980, Control_c, 4, 7, 80
1, 2010, Control_c, 0, 7, 127
1, 2010, Control_c, 1, 7, 126
1, 2010, Control_c, 4, 7, 80
1, 2040, Control_c, 0, 7, 127
1, 2040, Control_c, 1, 7, 126
1, 2040, Control_c, 4, 7, 80
1, 2070, Control_c, 0, 7, 127
1, 2070, Control_c, 1, 7, 126
1, 2070, Control_c, 4, 7, 80
1, 2100, Control_c, 0, 7, 127
1, 2100, Control_c, 1, 7, 126
1, 2100, Control_c, 4, 7, 80
1, 2130, Control_c, 0, 7, 127
1, 2130, Control_c, 1, 7, 126
1, 2130, Control_c, 4, 7, 80
1, 2136, Note_on_c, 3, 31, 0
1, 2160, Control_c, 0, 7, 127
1, 2160, Control_c, 1, 7, 126
1, 2160, Note_on_c, 3, 43, 100
1, 2160, Control_c, 4, 7, 80
1, 2160, Note_on_c, 9, 36, 100
1, 2170, Note_on_c, 9, 36, 0
1, 2190, Control_c, 0, 7, 127
1, 2190, Control_c, 1, 7, 126
1, 2190, Control_c, 4, 7, 80
1, 2220, Control_c, 0, 7, 127
1, 2220, Control_c, 1, 7, 127
1, 2220, Control_c, 4, 7, 80
1, 2250, Control_c, 0, 7, 127
1, 2250, Control_c, 1, 7, 127
1, 2250, Control_c, 4, 7, 80
1, 2280, Control_c, 0, 7, 127
1, 2280, Control_c, 1, 7, 127
1, 2280, Control_c, 4, 7, 80
1, 2310, Control_c, 0, 7, 127
1, 2310, Control_c, 1, 7, 127
1, 2310, Control_c, 4, 7, 80
1, 2340, Control_c, 0, 7, 127
1, 2340, Control_c, 1, 7, 127
1, 2340, Control_c, 4, 7, 80
1, 2370, Control_c, 0, 7, 127
1, 2370, Control_c, 1, 7, 127
1, 2370, Control_c, 4, 7, 80
1, 2376, Note_on_c, 3, 43, 0
1, 2400, Control_c, 0, 7, 127
1, 2400, Control_c, 1, 7, 127
1, 2400, Note_on_c, 3, 31, 100
1, 2400, Control_c, 4, 7, 80
1, 2400, Note_on_c, 9, 51, 100
1, 2400, Note_on_c, 9, 10, 100
1, 2410, Note_on_c, 9, 51, 0
1, 2410, Note_on_c, 9, 10, 0
1, 2430, Control_c, 0, 7, 127
1, 2430, Control_c, 1, 7, 127
1, 2430, Control_c, 4, 7, 80
1, 2460, Control_c, 0, 7, 127
1, 2460, Control_c, 1, 7, 127
1, 2460, Control_c, 4, 7, 80
1, 2490, Control_c, 0, 7, 127
1, 2490, Control_c, 1, 7, 127
1, 2490, Control_c, 4, 7, 80
1, 2520, Control_c, 0, 7, 127
1, 2520, Control_c, 4, 7, 80
1, 2550, Control_c, 0, 7, 127
1, 2550, Control_c, 4, 7, 80
1, 2580, Control_c, 0, 7, 127
1, 2580, Control_c, 4, 7, 80
1, 2610, Control_c, 4, 7, 80
1, 2616, Note_on_c, 3, 31, 0
1, 2640, Note_on_c, 3, 43, 100
1, 2640, Control_c, 4, 7, 80
1, 2640, Note_on_c, 9, 36, 100
1, 2650, Note_on_c, 9, 36, 0
1, 2670, Control_c, 4, 7, 80
1, 2856, Note_on_c, 3, 43, 0
1, 2880, Note_on_c, 3, 31, 100
1, 2880, Note_on_c, 9, 51, 100
1, 2880, Note_on_c, 9, 10, 100
1, 2890, Note_on_c, 9, 51, 0
1, 2890, Note_on_c, 9, 10, 0
1, 3000, Note_on_c, 9, 10, 100
1, 3010, Note_on_c, 9, 10, 0
1, 3096, Note_on_c, 3, 31, 0
1, 3120, Note_on_c, 3, 43, 100
1, 3120, Note_on_c, 9, 36, 100
1, 3130, Note_on_c, 9, 36, 0
1, 3336, Note_on_c, 3, 43, 0
1, 3360, Note_on_c, 3, 31, 100
1, 3360, Note_on_c, 9, 51, 100
1, 3360, Note_on_c, 9, 10, 100
1, 3370, Note_on_c, 9, 51, 0
1, 3370, Note_on_c, 9, 10, 0
1, 3576, Note_on_c, 3, 31, 0
1, 3600, Note_on_c, 3, 43, 100
1, 3600, Note_on_c, 9, 36, 100
1, 3610, Note_on_c, 9, 36, 0
1, 3816, Note_on_c, 3, 43, 0
1, 3840, Note_on_c, 3, 31, 100
1, 3840, Note_on_c, 9, 51, 100
1, 3840, Note_on_c, 9, 10, 100
1, 3850, Note_on_c, 9, 51, 0
1, 3850, Note_on_c, 9, 10, 0
1, 4056, Note_on_c, 3, 31, 0
1, 4080, Note_on_c, 3, 43, 100
1, 4080, Note_on_c, 9, 36, 100
1, 4090, Note_on_c, 9, 36, 0
1, 4296, Note_on_c, 3, 43, 0
1, 4320, Note_on_c, 3, 31, 100
1, 4320, Note_on_c, 9, 51, 100
1, 4320, Note_on_c, 9, 10, 100
1, 4330, Note_on_c, 9, 51, 0
1, 4330, Note_on_c, 9, 10, 0
1, 4536, Note_on_c, 3, 31, 0
1, 4560, Note_on_c, 3, 43, 100
1, 4560, Note_on_c, 9, 36, 100
1, 4570, Note_on_c, 9, 36, 0
1, 4776, Note_on_c, 3, 43, 0
1, 4800, Note_on_c, 3, 31, 100
1, 4800, Note_on_c, 9, 51, 100
1, 4800, Note_on_c, 9, 10, 100
1, 4810, Note_on_c, 9, 51, 0
1, 4810, Note_on_c, 9, 10, 0
1, 4920, Note_on_c, 9, 10, 100
1, 4930, Note_on_c, 9, 10, 0
1, 5016, Note_on_c, 3, 31, 0
1, 5040, Note_on_c, 3, 43, 100
1, 5040, Note_on_c, 9, 36, 100
1, 5050, Note_on_c, 9, 36, 0
1, 5256, Note_on_c, 3, 43, 0
1, 5280, Note_on_c, 3, 31, 100
1, 5280, Note_on_c, 9, 51, 100
1, 5280, Note_on_c, 9, 10, 100
1, 5290, Note_on_c, 9, 51, 0
1, 5290, Note_on_c, 9, 10, 0
1, 5496, Note_on_c, 3, 31, 0
1, 5520, Note_on_c, 3, 43, 100
1, 5520, Note_on_c, 9, 36, 100
1, 5530, Note_on_c, 9, 36, 0
1, 5736, Note_on_c, 3, 43, 0
1, 5760, Note_on_c, 0, 67, 100
1, 5760, Note_on_c, 3, 31, 100
1, 5760, Note_on_c, 4, 58, 0
1, 5760, Note_on_c, 4, 67, 0
1, 5760, Note_on_c, 4, 58, 100
1, 5760, Note_on_c, 4, 67, 100
1, 5760, Note_on_c, 9, 10, 100
1, 5760, Note_on_c, 9, 51, 100
1, 5760, Note_on_c, 9, 44, 100
1, 5770, Note_on_c, 9, 10, 0
1, 5770, Note_on_c, 9, 51, 0
1, 5770, Note_on_c, 9, 44, 0
1, 5880, Note_on_c, 9, 44, 100
1, 5890, Note_on_c, 9, 44, 0
1, 5976, Note_on_c, 0, 67, 0
1, 5976, Note_on_c, 3, 31, 0
1, 6000, Note_on_c, 0, 74, 100
1, 6000, Note_on_c, 3, 43, 100
1, 6000, Note_on_c, 9, 44, 100
1, 6000, Note_on_c, 9, 36, 100
1, 6010, Note_on_c, 9, 44, 0
1, 6010, Note_on_c, 9, 36, 0
1, 6216, Note_on_c, 0, 74, 0
1, 6216, Note_on_c, 3, 43, 0
1, 6240, Note_on_c, 0, 72, 100
1, 6240, Note_on_c, 3, 31, 100
1, 6240, Note_on_c, 9, 44, 100
1, 6240, Note_on_c, 9, 10, 100
1, 6250, Note_on_c, 9, 44, 0
1, 6250, Note_on_c, 9, 10, 0
1, 6360, Note_on_c, 9, 44, 100
1, 6370, Note_on_c, 9, 44, 0
1, 6456, Note_on_c, 0, 72, 0
1, 6456, Note_on_c, 3, 31, 0
1, 6480, Note_on_c, 0, 70, 100
1, 6480, Note_on_c, 3, 43, 100
1, 6480, Note_on_c, 9, 44, 100
1, 6480, Note_on_c, 9, 36, 100
1, 6490, Note_on_c, 9, 44, 0
1, 6490, Note_on_c, 9, 36, 0
1, 6696, Note_on_c, 0, 70, 0
1, 6696, Note_on_c, 3, 43, 0
1, 6720, Note_on_c, 0, 77, 100
1, 6720, Note_on_c, 3, 31, 100
1, 6720, Note_on_c, 9, 44, 100
1, 6720, Note_on_c, 9, 10, 100
1, 6730, Note_on_c, 9, 44, 0
1, 6730, Note_on_c, 9, 10, 0
1, 6840, Note_on_c, 9, 44, 100
1, 6840, Note_on_c, 9, 10, 100
1, 6850, Note_on_c, 9, 44, 0
1, 6850, Note_on_c, 9, 10, 0
1, 6936, Note_on_c, 0, 77, 0
1, 6936, Note_on_c, 3, 31, 0
1, 6960, Note_on_c, 0, 76, 100
1, 6960, Note_on_c, 3, 43, 100
1, 6960, Note_on_c, 9, 44, 100
1, 6960, Note_on_c, 9, 36, 100
1, 6970, Note_on_c, 9, 44, 0
1, 6970, Note_on_c, 9, 36, 0
1, 7068, Note_on_c, 0, 76, 0
1, 7080, Note_on_c, 0, 74, 100
1, 7176, Note_on_c, 3, 43, 0
1, 7188, Note_on_c, 0, 74, 0
1, 7200, Note_on_c, 0, 72, 100
1, 7200, Note_on_c, 3, 31, 100
1, 7200, Note_on_c, 9, 44, 100
1, 7200, Note_on_c, 9, 10, 100
1, 7210, Note_on_c, 9, 44, 0
1, 7210, Note_on_c, 9, 10, 0
1, 7320, Note_on_c, 9, 44, 100
1, 7330, Note_on_c, 9, 44, 0
1, 7416, Note_on_c, 0, 72, 0
1, 7416, Note_on_c, 3, 31, 0
1, 7440, Note_on_c, 0, 74, 100
1, 7440, Note_on_c, 3, 43, 100
1, 7440, Note_on_c, 9, 44, 100
1, 7440, Note_on_c, 9, 36, 100
1, 7450, Note_on_c, 9, 44, 0
1, 7450, Note_on_c, 9, 36, 0
1, 7656, Note_on_c, 0, 74, 0
1, 7656, Note_on_c, 3, 43, 0
1, 7680, Note_on_c, 0, 70, 100
1, 7680, Note_on_c, 3, 31, 100
1, 7680, Note_on_c, 9, 10, 100
1, 7680, Note_on_c, 9, 44, 100
1, 7690, Note_on_c, 9, 10, 0
1, 7690, Note_on_c, 9, 44, 0
1, 7800, Note_on_c, 9, 44, 100
1, 7810, Note_on_c, 9, 44, 0
1, 7896, Note_on_c, 0, 70, 0
1, 7896, Note_on_c, 3, 31, 0
1, 7920, Note_on_c, 0, 69, 100
1, 7920, Note_on_c, 3, 43, 100
1, 7920, Note_on_c, 9, 44, 100
1, 7920, Note_on_c, 9, 36, 100
1, 7930, Note_on_c, 9, 44, 0
1, 7930, Note_on_c, 9, 36, 0
1, 8136, Note_on_c, 0, 69, 0
1, 8136, Note_on_c, 3, 43, 0
1, 8160, Note_on_c, 0, 70, 100
1, 8160, Note_on_c, 3, 31, 100
1, 8160, Note_on_c, 9, 44, 100
1, 8160, Note_on_c, 9, 10, 100
1, 8170, Note_on_c, 9, 44, 0
1, 8170, Note_on_c, 9, 10, 0
1, 8280, Note_on_c, 9, 44, 100
1, 8290, Note_on_c, 9, 44, 0
1, 8376, Note_on_c, 0, 70, 0
1, 8376, Note_on_c, 3, 31, 0
1, 8400, Note_on_c, 0, 67, 100
1, 8400, Note_on_c, 3, 43, 100
1, 8400, Note_on_c, 9, 44, 100
1, 8400, Note_on_c, 9, 36, 100
1, 8410, Note_on_c, 9, 44, 0
1, 8410, Note_on_c, 9, 36, 0
1, 8616, Note_on_c, 0, 67, 0
1, 8616, Note_on_c, 3, 43, 0
1, 8640, Note_on_c, 0, 65, 100
1, 8640, Note_on_c, 3, 31, 100
1, 8640, Note_on_c, 9, 10, 100
1, 8640, Note_on_c, 9, 51, 100
1, 8640, Note_on_c, 9, 44, 100
1, 8650, Note_on_c, 9, 10, 0
1, 8650, Note_on_c, 9, 51, 0
1, 8650, Note_on_c, 9, 44, 0
1, 8760, Note_on_c, 9, 44, 100
1, 8760, Note_on_c, 9, 10, 100
1, 8770, Note_on_c, 9, 44, 0
1, 8770, Note_on_c, 9, 10, 0
1, 8856, Note_on_c, 0, 65, 0
1, 8856, Note_on_c, 3, 31, 0
1, 8880, Note_on_c, 0, 67, 100
1, 8880, Note_on_c, 3, 43, 100
1, 8880, Note_on_c, 9, 44, 100
1, 8880, Note_on_c, 9, 36, 100
1, 8890, Note_on_c, 9, 44, 0
1, 8890, Note_on_c, 9, 36, 0
1, 9024, Note_on_c, 0, 67, 0
1, 9096, Note_on_c, 3, 43, 0
1, 9120, Note_on_c, 0, 67, 100
1, 9120, Note_on_c, 3, 31, 100
1, 9120, Note_on_c, 9, 10, 100
1, 9120, Note_on_c, 9, 51, 100
1, 9120, Note_on_c, 9, 44, 100
1, 9130, Note_on_c, 9, 10, 0
1, 9130, Note_on_c, 9, 51, 0
1, 9130, Note_on_c, 9, 44, 0
1, 9240, Note_on_c, 9, 44, 100
1, 9250, Note_on_c, 9, 44, 0
1, 9336, Note_on_c, 0, 67, 0
1, 9336, Note_on_c, 3, 31, 0
1, 9360, Note_on_c, 3, 43, 100
1, 9360, Note_on_c, 9, 44, 100
1, 9360, Note_on_c, 9, 36, 100
1, 9370, Note_on_c, 9, 44, 0
1, 9370, Note_on_c, 9, 36, 0
1, 9576, Note_on_c, 3, 43, 0
1, 9600, Note_on_c, 1, 67, 100
1, 9600, Note_on_c, 2, 55, 100
1, 9600, Note_on_c, 3, 31, 100
1, 9600, Note_on_c, 4, 58, 0
1, 9600, Note_on_c, 4, 67, 0
1, 9600, Note_on_c, 4, 58, 100
1, 9600, Note_on_c, 4, 67, 100
1, 9600, Note_on_c, 9, 51, 100
1, 9600, Note_on_c, 9, 44, 100
1, 9600, Note_on_c, 9, 10, 100
1, 9610, Note_on_c, 9, 51, 0
1, 9610, Note_on_c, 9, 44, 0
1, 9610, Note_on_c, 9, 10, 0
1, 9720, Note_on_c, 9, 44, 100
1, 9730, Note_on_c, 9, 44, 0
1, 9816, Note_on_c, 1, 67, 0
1, 9816, Note_on_c, 2, 55, 0
1, 9816, Note_on_c, 3, 31, 0
1, 9840, Note_on_c, 1, 74, 100
1, 9840, Note_on_c, 2, 62, 100
1, 9840, Note_on_c, 3, 43, 100
1, 9840, Note_on_c, 9, 36, 100
1, 9840, Note_on_c, 9, 44, 100
1, 9850, Note_on_c, 9, 36, 0
1, 9850, Note_on_c, 9, 44, 0
1, 10056, Note_on_c, 1, 74, 0
1, 10056, Note_on_c, 2, 62, 0
1, 10056, Note_on_c, 3, 43, 0
1, 10080, Note_on_c, 1, 72, 100
1, 10080, Note_on_c, 2, 60, 100
1, 10080, Note_on_c, 3, 31, 100
1, 10080, Note_on_c, 9, 10, 100
1, 10080, Note_on_c, 9, 44, 100
1, 10090, Note_on_c, 9, 10, 0
1, 10090, Note_on_c, 9, 44, 0
1, 10200, Note_on_c, 9, 44, 100
1, 10210, Note_on_c, 9, 44, 0
1, 10296, Note_on_c, 1, 72, 0
1, 10296, Note_on_c, 2, 60, 0
1, 10296, Note_on_c, 3, 31, 0
1, 10320, Note_on_c, 1, 70, 100
1, 10320, Note_on_c, 2, 58, 100
1, 10320, Note_on_c, 3, 43, 100
1, 10320, Note_on_c, 9, 36, 100
1, 10320, Note_on_c, 9, 44, 100
1, 10330, Note_on_c, 9, 36, 0
1, 10330, Note_on_c, 9, 44, 0
1, 10536, Note_on_c, 1, 70, 0
1, 10536, Note_on_c, 2, 58, 0
1, 10536, Note_on_c, 3, 43, 0
1, 10560, Note_on_c, 1, 77, 100
1, 10560, Note_on_c, 2, 65, 100
1, 10560, Note_on_c, 3, 31, 100
1, 10560, Note_on_c, 9, 10, 100
1, 10560, Note_on_c, 9, 44, 100
1, 10570, Note_on_c, 9, 10, 0
1, 10570, Note_on_c, 9, 44, 0
1, 10680, Note_on_c, 9, 10, 100
1, 10680, Note_on_c, 9, 44, 100
1, 10690, Note_on_c, 9, 10, 0
1, 10690, Note_on_c, 9, 44, 0
1, 10776, Note_on_c, 1, 77, 0
1, 10776, Note_on_c, 2, 65, 0
1, 10776, Note_on_c, 3, 31, 0
1, 10800, Note_on_c, 1, 76, 100
1, 10800, Note_on_c, 2, 64, 100
1, 10800, Note_on_c, 3, 43, 100
1, 10800, Note_on_c, 9, 36, 100
1, 10800, Note_on_c, 9, 44, 100
1, 10810, Note_on_c, 9, 36, 0
1, 10810, Note_on_c, 9, 44, 0
1, 10908, Note_on_c, 1, 76, 0
1, 10908, Note_on_c, 2, 64, 0
1, 10920, Note_on_c, 1, 74, 100
1, 10920, Note_on_c, 2, 62, 100
1, 11016, Note_on_c, 3, 43, 0
1, 11028, Note_on_c, 1, 74, 0
1, 11028, Note_on_c, 2, 62, 0
1, 11040, Note_on_c, 1, 72, 100
1, 11040, Note_on_c, 2, 60, 100
1, 11040, Note_on_c, 3, 31, 100
1, 11040, Note_on_c, 9, 10, 100
1, 11040, Note_on_c, 9, 44, 100
1, 11050, Note_on_c, 9, 10, 0
1, 11050, Note_on_c, 9, 44, 0
1, 11160, Note_on_c, 9, 44, 100
1, 11170, Note_on_c, 9, 44, 0
1, 11256, Note_on_c, 1, 72, 0
1, 11256, Note_on_c, 2, 60, 0
1, 11256, Note_on_c, 3, 31, 0
1, 11280, Note_on_c, 1, 74, 100
1, 11280, Note_on_c, 2, 62, 100
1, 11280, Note_on_c, 3, 43, 100
1, 11280, Note_on_c, 9, 36, 100
1, 11280, Note_on_c, 9, 44, 100
1, 11290, Note_on_c, 9, 36, 0
1, 11290, Note_on_c, 9, 44, 0
1, 11496, Note_on_c, 1, 74, 0
1, 11496, Note_on_c, 2, 62, 0
1, 11496, Note_on_c, 3, 43, 0
1, 11520, Note_on_c, 1, 70, 100
1, 11520, Note_on_c, 2, 58, 100
1, 11520, Note_on_c, 3, 31, 100
1, 11520, Note_on_c, 9, 44, 100
1, 11520, Note_on_c, 9, 10, 100
1, 11530, Note_on_c, 9, 44, 0
1, 11530, Note_on_c, 9, 10, 0
1, 11640, Note_on_c, 9, 44, 100
1, 11650, Note_on_c, 9, 44, 0
1, 11736, Note_on_c, 1, 70, 0
1, 11736, Note_on_c, 2, 58, 0
1, 11736, Note_on_c, 3, 31, 0
1, 11760, Note_on_c, 1, 69, 100
1, 11760, Note_on_c, 2, 57, 100
1, 11760, Note_on_c, 3, 43, 100
1, 11760, Note_on_c, 9, 36, 100
1, 11760, Note_on_c, 9, 44, 100
1, 11770, Note_on_c, 9, 36, 0
1, 11770, Note_on_c, 9, 44, 0
1, 11976, Note_on_c, 1, 69, 0
1, 11976, Note_on_c, 2, 57, 0
1, 11976, Note_on_c, 3, 43, 0
1, 12000, Note_on_c, 1, 70, 100
1, 12000, Note_on_c, 2, 58, 100
1, 12000, Note_on_c, 3, 31, 100
1, 12000, Note_on_c, 9, 10, 100
1, 12000, Note_on_c, 9, 44, 100
1, 12010, Note_on_c, 9, 10, 0
1, 12010, Note_on_c, 9, 44, 0
1, 12120, Note_on_c, 9, 44, 100
1, 12130, Note_on_c, 9, 44, 0
1, 12216, Note_on_c, 1, 70, 0
1, 12216, Note_on_c, 2, 58, 0
1, 12216, Note_on_c, 3, 31, 0
1, 12240, Note_on_c, 1, 67, 100
1, 12240, Note_on_c, 2, 55, 100
1, 12240, Note_on_c, 3, 43, 100
1, 12240, Note_on_c, 9, 36, 100
1, 12240, Note_on_c, 9, 44, 100
1, 12250, Note_on_c, 9, 36, 0
1, 12250, Note_on_c, 9, 44, 0
1, 12456, Note_on_c, 1, 67, 0
1, 12456, Note_on_c, 2, 55, 0
1, 12456, Note_on_c, 3, 43, 0
1, 12480, Note_on_c, 1, 65, 100
1, 12480, Note_on_c, 2, 53, 100
1, 12480, Note_on_c, 3, 31, 100
1, 12480, Note_on_c, 9, 51, 100
1, 12480, Note_on_c, 9, 44, 100
1, 12480, Note_on_c, 9, 10, 100
1, 12490, Note_on_c, 9, 51, 0
1, 12490, Note_on_c, 9, 44, 0
1, 12490, Note_on_c, 9, 10, 0
1, 12600, Note_on_c, 9, 10, 100
1, 12600, Note_on_c, 9, 44, 100
1, 12610, Note_on_c, 9, 10, 0
1, 12610, Note_on_c, 9, 44, 0
1, 12696, Note_on_c, 1, 65, 0
1, 12696, Note_on_c, 2, 53, 0
1, 12696, Note_on_c, 3, 31, 0
1, 12720, Note_on_c, 1, 67, 100
1, 12720, Note_on_c, 2, 55, 100
1, 12720, Note_on_c, 3, 43, 100
1, 12720, Note_on_c, 9, 36, 100
1, 12720, Note_on_c, 9, 44, 100
1, 12730, Note_on_c, 9, 36, 0
1, 12730, Note_on_c, 9, 44, 0
1, 12864, Note_on_c, 1, 67, 0
1, 12864, Note_on_c, 2, 55, 0
1, 12936, Note_on_c, 3, 43, 0
1, 12960, Note_on_c, 1, 67, 100
1, 12960, Note_on_c, 2, 55, 100
1, 12960, Note_on_c, 3, 31, 100
1, 12960, Note_on_c, 9, 51, 100
1, 12960, Note_on_c, 9, 44, 100
1, 12960, Note_on_c, 9, 10, 100
1, 12970, Note_on_c, 9, 51, 0
1, 12970, Note_on_c, 9, 44, 0
1, 12970, Note_on_c, 9, 10, 0
1, 13080, Note_on_c, 9, 44, 100
1, 13090, Note_on_c, 9, 44, 0
1, 13176, Note_on_c, 1, 67, 0
1, 13176, Note_on_c, 2, 55, 0
1, 13176, Note_on_c, 3, 31, 0
1, 13200, Note_on_c, 3, 43, 100
1, 13200, Note_on_c, 9, 36, 100
1, 13200, Note_on_c, 9, 44, 100
1, 13210, Note_on_c, 9, 36, 0
1, 13210, Note_on_c, 9, 44, 0
1, 13416, Note_on_c, 3, 43, 0
1, 13440, Note_on_c, 0, 67, 100
1, 13440, Note_on_c, 2, 62, 100
1, 13440, Note_on_c, 2, 55, 100
1, 13440, Note_on_c, 3, 31, 100
1, 13440, Note_on_c, 4, 58, 0
1, 13440, Note_on_c, 4, 67, 0
1, 13440, Note_on_c, 4, 58, 100
1, 13440, Note_on_c, 4, 67, 100
1, 13440, Note_on_c, 9, 44, 100
1, 13440, Note_on_c, 9, 10, 100
1, 13440, Note_on_c, 9, 51, 100
1, 13450, Note_on_c, 9, 44, 0
1, 13450, Note_on_c, 9, 10, 0
1, 13450, Note_on_c, 9, 51, 0
1, 13560, Note_on_c, 9, 44, 100
1, 13570, Note_on_c, 9, 44, 0
1, 13656, Note_on_c, 0, 67, 0
1, 13656, Note_on_c, 2, 62, 0
1, 13656, Note_on_c, 2, 55, 0
1, 13656, Note_on_c, 3, 31, 0
1, 13680, Note_on_c, 0, 74, 100
1, 13680, Note_on_c, 2, 69, 100
1, 13680, Note_on_c, 2, 62, 100
1, 13680, Note_on_c, 3, 43, 100
1, 13680, Note_on_c, 9, 44, 100
1, 13680, Note_on_c, 9, 36, 100
1, 13690, Note_on_c, 9, 44, 0
1, 13690, Note_on_c, 9, 36, 0
1, 13896, Note_on_c, 0, 74, 0
1, 13896, Note_on_c, 2, 69, 0
1, 13896, Note_on_c, 2, 62, 0
1, 13896, Note_on_c, 3, 43, 0
1, 13920, Note_on_c, 0, 72, 100
1, 13920, Note_on_c, 2, 67, 100
1, 13920, Note_on_c, 2, 60, 100
1, 13920, Note_on_c, 3, 31, 100
1, 13920, Note_on_c, 9, 44, 100
1, 13920, Note_on_c, 9, 10, 100
1, 13930, Note_on_c, 9, 44, 0
1, 13930, Note_on_c, 9, 10, 0
1, 14040, Note_on_c, 9, 44, 100
1, 14050, Note_on_c, 9, 44, 0
1, 14136, Note_on_c, 0, 72, 0
1, 14136, Note_on_c, 2, 67, 0
1, 14136, Note_on_c, 2, 60, 0
1, 14136, Note_on_c, 3, 31, 0
1, 14160, Note_on_c, 0, 70, 100
1, 14160, Note_on_c, 2, 65, 100
1, 14160, Note_on_c, 2, 58, 100
1, 14160, Note_on_c, 3, 43, 100
1, 14160, Note_on_c, 9, 44, 100
1, 14160, Note_on_c, 9, 36, 100
1, 14170, Note_on_c, 9, 44, 0
1, 14170, Note_on_c, 9, 36, 0
1, 14376, Note_on_c, 0, 70, 0
1, 14376, Note_on_c, 2, 65, 0
1, 14376, Note_on_c, 2, 58, 0
1, 14376, Note_on_c, 3, 43, 0
1, 14400, Note_on_c, 0, 77, 100
1, 14400, Note_on_c, 2, 72, 100
1, 14400, Note_on_c, 2, 65, 100
1, 14400, Note_on_c, 3, 31, 100
1, 14400, Note_on_c, 9, 44, 100
1, 14400, Note_on_c, 9, 10, 100
1, 14410, Note_on_c, 9, 44, 0
1, 14410, Note_on_c, 9, 10, 0
1, 14520, Note_on_c, 9, 44, 100
1, 14520, Note_on_c, 9, 10, 100
1, 14530, Note_on_c, 9, 44, 0
1, 14530, Note_on_c, 9, 10, 0
1, 14616, Note_on_c, 0, 77, 0
1, 14616, Note_on_c, 2, 72, 0
1, 14616, Note_on_c, 2, 65, 0
1, 14616, Note_on_c, 3, 31, 0
1, 14640, Note_on_c, 0, 76, 100
1, 14640, Note_on_c, 2, 71, 100
1, 14640, Note_on_c, 2, 64, 100
1, 14640, Note_on_c, 3, 43, 100
1, 14640, Note_on_c, 9, 44, 100
1, 14640, Note_on_c, 9, 36, 100
1, 14650, Note_on_c, 9, 44, 0
1, 14650, Note_on_c, 9, 36, 0
1, 14748, Note_on_c, 0, 76, 0
1, 14748, Note_on_c, 2, 71, 0
1, 14748, Note_on_c, 2, 64, 0
1, 14760, Note_on_c, 0, 74, 100
1, 14760, Note_on_c, 2, 69, 100
1, 14760, Note_on_c, 2, 62, 100
1, 14856, Note_on_c, 3, 43, 0
1, 14868, Note_on_c, 0, 74, 0
1, 14868, Note_on_c, 2, 69, 0
1, 14868, Note_on_c, 2, 62, 0
1, 14880, Note_on_c, 0, 72, 100
1, 14880, Note_on_c, 2, 67, 100
1, 14880, Note_on_c, 2, 60, 100
1, 14880, Note_on_c, 3, 31, 100
1, 14880, Note_on_c, 9, 44, 100
1, 14880, Note_on_c, 9, 10, 100
1, 14890, Note_on_c, 9, 44, 0
1, 14890, Note_on_c, 9, 10, 0
1, 15000, Note_on_c, 9, 44, 100
1, 15010, Note_on_c, 9, 44, 0
1, 15096, Note_on_c, 0, 72, 0
1, 15096, Note_on_c, 2, 67, 0
1, 15096, Note_on_c, 2, 60, 0
1, 15096, Note_on_c, 3, 31, 0
1, 15120, Note_on_c, 0, 74, 100
1, 15120, Note_on_c, 2, 69, 100
1, 15120, Note_on_c, 2, 62, 100
1, 15120, Note_on_c, 3, 43, 100
1, 15120, Note_on_c, 9, 44, 100
1, 15120, Note_on_c, 9, 36, 100
1, 15130, Note_on_c, 9, 44, 0
1, 15130, Note_on_c, 9, 36, 0
1, 15336, Note_on_c, 0, 74, 0
1, 15336, Note_on_c, 2, 69, 0
1, 15336, Note_on_c, 2, 62, 0
1, 15336, Note_on_c, 3, 43, 0
1, 15360, Note_on_c, 0, 70, 100
1, 15360, Note_on_c, 2, 65, 100
1, 15360, Note_on_c, 2, 58, 100
1, 15360, Note_on_c, 3, 31, 100
1, 15360, Note_on_c, 9, 10, 100
1, 15360, Note_on_c, 9, 44, 100
1, 15370, Note_on_c, 9, 10, 0
1, 15370, Note_on_c, 9, 44, 0
1, 15480, Note_on_c, 9, 44, 100
1, 15490, Note_on_c, 9, 44, 0
1, 15576, Note_on_c, 0, 70, 0
1, 15576, Note_on_c, 2, 65, 0
1, 15576, Note_on_c, 2, 58, 0
1, 15576, Note_on_c, 3, 31, 0
1, 15600, Note_on_c, 0, 69, 100
1, 15600, Note_on_c, 2, 64, 100
1, 15600, Note_on_c, 2, 57, 100
1, 15600, Note_on_c, 3, 43, 100
1, 15600, Note_on_c, 9, 44, 100
1, 15600, Note_on_c, 9, 36, 100
1, 15610, Note_on_c, 9, 44, 0
1, 15610, Note_on_c, 9, 36, 0
1, 15816, Note_on_c, 0, 69, 0
1, 15816, Note_on_c, 2, 64, 0
1, 15816, Note_on_c, 2, 57, 0
1, 15816, Note_on_c, 3, 43, 0
1, 15840, Note_on_c, 0, 70, 100
1, 15840, Note_on_c, 2, 65, 100
1, 15840, Note_on_c, 2, 58, 100
1, 15840, Note_on_c, 3, 31, 100
1, 15840, Note_on_c, 9, 44, 100
1, 15840, Note_on_c, 9, 10, 100
1, 15850, Note_on_c, 9, 44, 0
1, 15850, Note_on_c, 9, 10, 0
1, 15960, Note_on_c, 9, 44, 100
1, 15970, Note_on_c, 9, 44, 0
1, 16056, Note_on_c, 0, 70, 0
1, 16056, Note_on_c, 2, 65, 0
1, 16056, Note_on_c, 2, 58, 0
1, 16056, Note_on_c, 3, 31, 0
1, 16080, Note_on_c, 0, 67, 100
1, 16080, Note_on_c, 2, 62, 100
1, 16080, Note_on_c, 2, 55, 100
1, 16080, Note_on_c, 3, 43, 100
1, 16080, Note_on_c, 9, 44, 100
1, 16080, Note_on_c, 9, 36, 100
1, 16090, Note_on_c, 9, 44, 0
1, 16090, Note_on_c, 9, 36, 0
1, 16296, Note_on_c, 0, 67, 0
1, 16296, Note_on_c, 2, 62, 0
1, 16296, Note_on_c, 2, 55, 0
1, 16296, Note_on_c, 3, 43, 0
1, 16320, Note_on_c, 0, 65, 100
1, 16320, Note_on_c, 2, 60, 100
1, 16320, Note_on_c, 2, 53, 100
1, 16320, Note_on_c, 3, 31, 100
1, 16320, Note_on_c, 9, 44, 100
1, 16320, Note_on_c, 9, 10, 100
1, 16320, Note_on_c, 9, 51, 100
1, 16330, Note_on_c, 9, 44, 0
1, 16330, Note_on_c, 9, 10, 0
1, 16330, Note_on_c, 9, 51, 0
1, 16440, Note_on_c, 9, 44, 100
1, 16440, Note_on_c, 9, 10, 100
1, 16450, Note_on_c, 9, 44, 0
1, 16450, Note_on_c, 9, 10, 0
1, 16536, Note_on_c, 0, 65, 0
1, 16536, Note_on_c, 2, 60, 0
1, 16536, Note_on_c, 2, 53, 0
1, 16536, Note_on_c, 3, 31, 0
1, 16560, Note_on_c, 0, 67, 100
1, 16560, Note_on_c, 2, 62, 100
1, 16560, Note_on_c, 2, 55, 100
1, 16560, Note_on_c, 3, 43, 100
1, 16560, Note_on_c, 9, 44, 100
1, 16560, Note_on_c, 9, 36, 100
1, 16570, Note_on_c, 9, 44, 0
1, 16570, Note_on_c, 9, 36, 0
1, 16704, Note_on_c, 0, 67, 0
1, 16704, Note_on_c, 2, 62, 0
1, 16704, Note_on_c, 2, 55, 0
1, 16776, Note_on_c, 3, 43, 0
1, 16800, Note_on_c, 0, 67, 100
1, 16800, Note_on_c, 2, 62, 100
1, 16800, Note_on_c, 2, 55, 100
1, 16800, Note_on_c, 3, 31, 100
1, 16800, Note_on_c, 9, 44, 100
1, 16800, Note_on_c, 9, 10, 100
1, 16800, Note_on_c, 9, 51, 100
1, 16810, Note_on_c, 9, 44, 0
1, 16810, Note_on_c, 9, 10, 0
1, 16810, Note_on_c, 9, 51, 0
1, 16920, Note_on_c, 9, 44, 100
1, 16930, Note_on_c, 9, 44, 0
1, 17016, Note_on_c, 0, 67, 0
1, 17016, Note_on_c, 2, 62, 0
1, 17016, Note_on_c, 2, 55, 0
1, 17016, Note_on_c, 3, 31, 0
1, 17040, Note_on_c, 3, 43, 100
1, 17040, Note_on_c, 9, 44, 100
1, 17040, Note_on_c, 9, 36, 100
1, 17050, Note_on_c, 9, 44, 0
1, 17050, Note_on_c, 9, 36, 0
1, 17256, Note_on_c, 3, 43, 0
1, 17280, Note_on_c, 0, 67, 100
1, 17280, Note_on_c, 1, 62, 100
1, 17280, Note_on_c, 2, 55, 100
1, 17280, Note_on_c, 2, 62, 100
1, 17280, Note_on_c, 3, 31, 100
1, 17280, Note_on_c, 4, 58, 0
1, 17280, Note_on_c, 4, 67, 0
1, 17280, Note_on_c, 4, 67, 100
1, 17280, Note_on_c, 4, 58, 100
1, 17280, Note_on_c, 9, 10, 100
1, 17280, Note_on_c, 9, 51, 100
1, 17280, Note_on_c, 9, 44, 100
1, 17290, Note_on_c, 9, 10, 0
1, 17290, Note_on_c, 9, 51, 0
1, 17290, Note_on_c, 9, 44, 0
1, 17400, Note_on_c, 9, 44, 100
1, 17410, Note_on_c, 9, 44, 0
1, 17496, Note_on_c, 0, 67, 0
1, 17496, Note_on_c, 1, 62, 0
1, 17496, Note_on_c, 2, 55, 0
1, 17496, Note_on_c, 2, 62, 0
1, 17496, Note_on_c, 3, 31, 0
1, 17520, Note_on_c, 0, 74, 100
1, 17520, Note_on_c, 1, 69, 100
1, 17520, Note_on_c, 2, 62, 100
1, 17520, Note_on_c, 2, 69, 100
1, 17520, Note_on_c, 3, 43, 100
1, 17520, Note_on_c, 9, 36, 100
1, 17520, Note_on_c, 9, 44, 100
1, 17530, Note_on_c, 9, 36, 0
1, 17530, Note_on_c, 9, 44, 0
1, 17736, Note_on_c, 0, 74, 0
1, 17736, Note_on_c, 1, 69, 0
1, 17736, Note_on_c, 2, 62, 0
1, 17736, Note_on_c, 2, 69, 0
1, 17736, Note_on_c, 3, 43, 0
1, 17760, Note_on_c, 0, 72, 100
1, 17760, Note_on_c, 1, 67, 100
1, 17760, Note_on_c, 2, 60, 100
1, 17760, Note_on_c, 2, 67, 100
1, 17760, Note_on_c, 3, 31, 100
1, 17760, Note_on_c, 9, 10, 100
1, 17760, Note_on_c, 9, 44, 100
1, 17770, Note_on_c, 9, 10, 0
1, 17770, Note_on_c, 9, 44, 0
1, 17880, Note_on_c, 9, 44, 100
1, 17890, Note_on_c, 9, 44, 0
1, 17976, Note_on_c, 0, 72, 0
1, 17976, Note_on_c, 1, 67, 0
1, 17976, Note_on_c, 2, 60, 0
1, 17976, Note_on_c, 2, 67, 0
1, 17976, Note_on_c, 3, 31, 0
1, 18000, Note_on_c, 0, 70, 100
1, 18000, Note_on_c, 1, 65, 100
1, 18000, Note_on_c, 2, 58, 100
1, 18000, Note_on_c, 2, 65, 100
1, 18000, Note_on_c, 3, 43, 100
1, 18000, Note_on_c, 9, 36, 100
1, 18000, Note_on_c, 9, 44, 100
1, 18010, Note_on_c, 9, 36, 0
1, 18010, Note_on_c, 9, 44, 0
1, 18216, Note_on_c, 0, 70, 0
1, 18216, Note_on_c, 1, 65, 0
1, 18216, Note_on_c, 2, 58, 0
1, 18216, Note_on_c, 2, 65, 0
1, 18216, Note_on_c, 3, 43, 0
1, 18240, Note_on_c, 0, 77, 100
1, 18240, Note_on_c, 1, 72, 100
1, 18240, Note_on_c, 2, 65, 100
1, 18240, Note_on_c, 2, 72, 100
1, 18240, Note_on_c, 3, 31, 100
1, 18240, Note_on_c, 9, 10, 100
1, 18240, Note_on_c, 9, 44, 100
1, 18250, Note_on_c, 9, 10, 0
1, 18250, Note_on_c, 9, 44, 0
1, 18360, Note_on_c, 9, 10, 100
1, 18360, Note_on_c, 9, 44, 100
1, 18370, Note_on_c, 9, 10, 0
1, 18370, Note_on_c, 9, 44, 0
1, 18456, Note_on_c, 0, 77, 0
1, 18456, Note_on_c, 1, 72, 0
1, 18456, Note_on_c, 2, 65, 0
1, 18456, Note_on_c, 2, 72, 0
1, 18456, Note_on_c, 3, 31, 0
1, 18480, Note_on_c, 0, 76, 100
1, 18480, Note_on_c, 1, 71, 100
1, 18480, Note_on_c, 2, 64, 100
1, 18480, Note_on_c, 2, 71, 100
1, 18480, Note_on_c, 3, 43, 100
1, 18480, Note_on_c, 9, 36, 100
1, 18480, Note_on_c, 9, 44, 100
1, 18490, Note_on_c, 9, 36, 0
1, 18490, Note_on_c, 9, 44, 0
1, 18588, Note_on_c, 0, 76, 0
1, 18588, Note_on_c, 1, 71, 0
1, 18588, Note_on_c, 2, 64, 0
1, 18588, Note_on_c, 2, 71, 0
1, 18600, Note_on_c, 0, 74, 100
1, 18600, Note_on_c, 1, 69, 100
1, 18600, Note_on_c, 2, 62, 100
1, 18600, Note_on_c, 2, 69, 100
1, 18696, Note_on_c, 3, 43, 0
1, 18708, Note_on_c, 0, 74, 0
1, 18708, Note_on_c, 1, 69, 0
1, 18708, Note_on_c, 2, 62, 0
1, 18708, Note_on_c, 2, 69, 0
1, 18720, Note_on_c, 0, 72, 100
1, 18720, Note_on_c, 1, 67, 100
1, 18720, Note_on_c, 2, 60, 100
1, 18720, Note_on_c, 2, 67, 100
1, 18720, Note_on_c, 3, 31, 100
1, 18720, Note_on_c, 9, 10, 100
1, 18720, Note_on_c, 9, 44, 100
1, 18730, Note_on_c, 9, 10, 0
1, 18730, Note_on_c, 9, 44, 0
1, 18840, Note_on_c, 9, 44, 100
1, 18850, Note_on_c, 9, 44, 0
1, 18936, Note_on_c, 0, 72, 0
1, 18936, Note_on_c, 1, 67, 0
1, 18936, Note_on_c, 2, 60, 0
1, 18936, Note_on_c, 2, 67, 0
1, 18936, Note_on_c, 3, 31, 0
1, 18960, Note_on_c, 0, 74, 100
1, 18960, Note_on_c, 1, 69, 100
1, 18960, Note_on_c, 2, 62, 100
1, 18960, Note_on_c, 2, 69, 100
1, 18960, Note_on_c, 3, 43, 100
1, 18960, Note_on_c, 9, 36, 100
1, 18960, Note_on_c, 9, 44, 100
1, 18970, Note_on_c, 9, 36, 0
1, 18970, Note_on_c, 9, 44, 0
1, 19176, Note_on_c, 0, 74, 0
1, 19176, Note_on_c, 1, 69, 0
1, 19176, Note_on_c, 2, 62, 0
1, 19176, Note_on_c, 2, 69, 0
1, 19176, Note_on_c, 3, 43, 0
1, 19200, Note_on_c, 0, 70, 100
1, 19200, Note_on_c, 1, 65, 100
1, 19200, Note_on_c, 2, 58, 100
1, 19200, Note_on_c, 2, 65, 100
1, 19200, Note_on_c, 3, 31, 100
1, 19200, Note_on_c, 9, 44, 100
1, 19200, Note_on_c, 9, 10, 100
1, 19210, Note_on_c, 9, 44, 0
1, 19210, Note_on_c, 9, 10, 0
1, 19320, Note_on_c, 9, 44, 100
1, 19330, Note_on_c, 9, 44, 0
1, 19416, Note_on_c, 0, 70, 0
1, 19416, Note_on_c, 1, 65, 0
1, 19416, Note_on_c, 2, 58, 0
1, 19416, Note_on_c, 2, 65, 0
1, 19416, Note_on_c, 3, 31, 0
1, 19440, Note_on_c, 0, 72, 100
1, 19440, Note_on_c, 1, 67, 100
1, 19440, Note_on_c, 2, 60, 100
1, 19440, Note_on_c, 2, 67, 100
1, 19440, Note_on_c, 3, 43, 100
1, 19440, Note_on_c, 9, 36, 100
1, 19440, Note_on_c, 9, 44, 100
1, 19450, Note_on_c, 9, 36, 0
1, 19450, Note_on_c, 9, 44, 0
1, 19656, Note_on_c, 0, 72, 0
1, 19656, Note_on_c, 1, 67, 0
1, 19656, Note_on_c, 2, 60, 0
1, 19656, Note_on_c, 2, 67, 0
1, 19656, Note_on_c, 3, 43, 0
1, 19680, Note_on_c, 0, 69, 100
1, 19680, Note_on_c, 1, 64, 100
1, 19680, Note_on_c, 2, 57, 100
1, 19680, Note_on_c, 2, 64, 100
1, 19680, Note_on_c, 3, 31, 100
1, 19680, Note_on_c, 9, 10, 100
1, 19680, Note_on_c, 9, 44, 100
1, 19690, Note_on_c, 9, 10, 0
1, 19690, Note_on_c, 9, 44, 0
1, 19800, Note_on_c, 9, 44, 100
1, 19810, Note_on_c, 9, 44, 0
1, 19896, Note_on_c, 0, 69, 0
1, 19896, Note_on_c, 1, 64, 0
1, 19896, Note_on_c, 2, 57, 0
1, 19896, Note_on_c, 2, 64, 0
1, 19896, Note_on_c, 3, 31, 0
1, 19920, Note_on_c, 0, 70, 100
1, 19920, Note_on_c, 1, 65, 100
1, 19920, Note_on_c, 2, 58, 100
1, 19920, Note_on_c, 2, 65, 100
1, 19920, Note_on_c, 3, 43, 100
1, 19920, Note_on_c, 9, 36, 100
1, 19920, Note_on_c, 9, 44, 100
1, 19930, Note_on_c, 9, 36, 0
1, 19930, Note_on_c, 9, 44, 0
1, 20136, Note_on_c, 0, 70, 0
1, 20136, Note_on_c, 1, 65, 0
1, 20136, Note_on_c, 2, 58, 0
1, 20136, Note_on_c, 2, 65, 0
1, 20136, Note_on_c, 3, 43, 0
1, 20160, Note_on_c, 0, 67, 100
1, 20160, Note_on_c, 1, 62, 100
1, 20160, Note_on_c, 2, 55, 100
1, 20160, Note_on_c, 2, 62, 100
1, 20160, Note_on_c, 3, 31, 100
1, 20160, Note_on_c, 9, 10, 100
1, 20160, Note_on_c, 9, 51, 100
1, 20160, Note_on_c, 9, 44, 100
1, 20170, Note_on_c, 9, 10, 0
1, 20170, Note_on_c, 9, 51, 0
1, 20170, Note_on_c, 9, 44, 0
1, 20280, Note_on_c, 9, 10, 100
1, 20280, Note_on_c, 9, 44, 100
1, 20290, Note_on_c, 9, 10, 0
1, 20290, Note_on_c, 9, 44, 0
1, 20376, Note_on_c, 0, 67, 0
1, 20376, Note_on_c, 1, 62, 0
1, 20376, Note_on_c, 2, 55, 0
1, 20376, Note_on_c, 2, 62, 0
1, 20376, Note_on_c, 3, 31, 0
1, 20400, Note_on_c, 0, 70, 100
1, 20400, Note_on_c, 1, 65, 100
1, 20400, Note_on_c, 2, 58, 100
1, 20400, Note_on_c, 2, 65, 100
1, 20400, Note_on_c, 3, 43, 100
1, 20400, Note_on_c, 9, 36, 100
1, 20400, Note_on_c, 9, 44, 100
1, 20410, Note_on_c, 9, 36, 0
1, 20410, Note_on_c, 9, 44, 0
1, 20616, Note_on_c, 0, 70, 0
1, 20616, Note_on_c, 1, 65, 0
1, 20616, Note_on_c, 2, 58, 0
1, 20616, Note_on_c, 2, 65, 0
1, 20616, Note_on_c, 3, 43, 0
1, 20640, Note_on_c, 0, 69, 100
1, 20640, Note_on_c, 1, 64, 100
1, 20640, Note_on_c, 2, 57, 100
1, 20640, Note_on_c, 2, 64, 100
1, 20640, Note_on_c, 3, 31, 100
1, 20640, Note_on_c, 9, 10, 100
1, 20640, Note_on_c, 9, 51, 100
1, 20640, Note_on_c, 9, 44, 100
1, 20650, Note_on_c, 9, 10, 0
1, 20650, Note_on_c, 9, 51, 0
1, 20650, Note_on_c, 9, 44, 0
1, 20760, Note_on_c, 9, 44, 100
1, 20770, Note_on_c, 9, 44, 0
1, 20856, Note_on_c, 0, 69, 0
1, 20856, Note_on_c, 1, 64, 0
1, 20856, Note_on_c, 2, 57, 0
1, 20856, Note_on_c, 2, 64, 0
1, 20856, Note_on_c, 3, 31, 0
1, 20880, Note_on_c, 0, 67, 100
1, 20880, Note_on_c, 1, 62, 100
1, 20880, Note_on_c, 2, 55, 100
1, 20880, Note_on_c, 2, 62, 100
1, 20880, Note_on_c, 3, 43, 100
1, 20880, Note_on_c, 9, 36, 100
1, 20880, Note_on_c, 9, 44, 100
1, 20890, Note_on_c, 9, 36, 0
1, 20890, Note_on_c, 9, 44, 0
1, 21096, Note_on_c, 0, 67, 0
1, 21096, Note_on_c, 1, 62, 0
1, 21096, Note_on_c, 2, 55, 0
1, 21096, Note_on_c, 2, 62, 0
1, 21096, Note_on_c, 3, 43, 0
1, 21120, Note_on_c, 0, 65, 100
1, 21120, Note_on_c, 1, 62, 80
1, 21120, Note_on_c, 1, 67, 80
1, 21120, Note_on_c, 2, 60, 100
1, 21120, Note_on_c, 3, 27, 100
1, 21120, Note_on_c, 4, 67, 0
1, 21120, Note_on_c, 4, 58, 0
1, 21120, Note_on_c, 4, 63, 100
1, 21120, Note_on_c, 4, 55, 100
1, 21120, Note_on_c, 9, 51, 100
1, 21120, Note_on_c, 9, 44, 100
1, 21120, Note_on_c, 9, 10, 100
1, 21130, Note_on_c, 9, 51, 0
1, 21130, Note_on_c, 9, 44, 0
1, 21130, Note_on_c, 9, 10, 0
1, 21240, Note_on_c, 9, 44, 100
1, 21250, Note_on_c, 9, 44, 0
1, 21336, Note_on_c, 0, 65, 0
1, 21336, Note_on_c, 2, 60, 0
1, 21336, Note_on_c, 3, 27, 0
1, 21360, Note_on_c, 0, 67, 100
1, 21360, Note_on_c, 2, 62, 100
1, 21360, Note_on_c, 3, 39, 100
1, 21360, Note_on_c, 9, 36, 100
1, 21360, Note_on_c, 9, 44, 100
1, 21370, Note_on_c, 9, 36, 0
1, 21370, Note_on_c, 9, 44, 0
1, 21552, Note_on_c, 1, 62, 0
1, 21552, Note_on_c, 1, 67, 0
1, 21576, Note_on_c, 0, 67, 0
1, 21576, Note_on_c, 2, 62, 0
1, 21576, Note_on_c, 3, 39, 0
1, 21600, Note_on_c, 0, 67, 100
1, 21600, Note_on_c, 1, 62, 80
1, 21600, Note_on_c, 1, 67, 80
1, 21600, Note_on_c, 2, 62, 100
1, 21600, Note_on_c, 3, 27, 100
1, 21600, Note_on_c, 9, 10, 100
1, 21600, Note_on_c, 9, 44, 100
1, 21610, Note_on_c, 9, 10, 0
1, 21610, Note_on_c, 9, 44, 0
1, 21684, Note_on_c, 1, 62, 0
1, 21684, Note_on_c, 1, 67, 0
1, 21720, Note_on_c, 1, 67, 80
1, 21720, Note_on_c, 1, 62, 80
1, 21720, Note_on_c, 9, 44, 100
1, 21730, Note_on_c, 9, 44, 0
1, 21816, Note_on_c, 3, 27, 0
1, 21840, Note_on_c, 3, 39, 100
1, 21840, Note_on_c, 9, 36, 100
1, 21840, Note_on_c, 9, 44, 100
1, 21850, Note_on_c, 9, 36, 0
1, 21850, Note_on_c, 9, 44, 0
1, 21888, Note_on_c, 1, 67, 0
1, 21888, Note_on_c, 1, 62, 0
1, 21920, Note_on_c, 1, 62, 80
1, 21920, Note_on_c, 1, 67, 80
1, 22004, Note_on_c, 1, 62, 0
1, 22004, Note_on_c, 1, 67, 0
1, 22056, Note_on_c, 3, 39, 0
1, 22080, Note_on_c, 1, 62, 80
1, 22080, Note_on_c, 1, 67, 80
1, 22080, Note_on_c, 3, 27, 100
1, 22080, Note_on_c, 9, 10, 100
1, 22080, Note_on_c, 9, 44, 100
1, 22090, Note_on_c, 9, 10, 0
1, 22090, Note_on_c, 9, 44, 0
1, 22200, Note_on_c, 9, 10, 100
1, 22200, Note_on_c, 9, 44, 100
1, 22210, Note_on_c, 9, 10, 0
1, 22210, Note_on_c, 9, 44, 0
1, 22296, Note_on_c, 3, 27, 0
1, 22320, Note_on_c, 3, 39, 100
1, 22320, Note_on_c, 9, 36, 100
1, 22320, Note_on_c, 9, 44, 100
1, 22330, Note_on_c, 9, 36, 0
1, 22330, Note_on_c, 9, 44, 0
1, 22464, Note_on_c, 0, 67, 0
1, 22464, Note_on_c, 2, 62, 0
1, 22512, Note_on_c, 1, 62, 0
1, 22512, Note_on_c, 1, 67, 0
1, 22536, Note_on_c, 3, 39, 0
1, 22560, Note_on_c, 0, 74, 100
1, 22560, Note_on_c, 1, 60, 80
1, 22560, Note_on_c, 1, 65, 80
1, 22560, Note_on_c, 2, 69, 100
1, 22560, Note_on_c, 3, 27, 100
1, 22560, Note_on_c, 9, 10, 100
1, 22560, Note_on_c, 9, 44, 100
1, 22570, Note_on_c, 9, 10, 0
1, 22570, Note_on_c, 9, 44, 0
1, 22680, Note_on_c, 9, 44, 100
1, 22690, Note_on_c, 9, 44, 0
1, 22776, Note_on_c, 3, 27, 0
1, 22800, Note_on_c, 3, 39, 100
1, 22800, Note_on_c, 9, 36, 100
1, 22800, Note_on_c, 9, 44, 100
1, 22810, Note_on_c, 9, 36, 0
1, 22810, Note_on_c, 9, 44, 0
1, 22992, Note_on_c, 0, 74, 0
1, 22992, Note_on_c, 1, 60, 0
1, 22992, Note_on_c, 1, 65, 0
1, 22992, Note_on_c, 2, 69, 0
1, 23016, Note_on_c, 3, 39, 0
1, 23040, Note_on_c, 0, 67, 100
1, 23040, Note_on_c, 1, 62, 80
1, 23040, Note_on_c, 1, 67, 80
1, 23040, Note_on_c, 2, 62, 100
1, 23040, Note_on_c, 3, 29, 100
1, 23040, Note_on_c, 4, 63, 0
1, 23040, Note_on_c, 4, 55, 0
1, 23040, Note_on_c, 4, 57, 100
1, 23040, Note_on_c, 4, 65, 100
1, 23040, Note_on_c, 9, 44, 100
1, 23040, Note_on_c, 9, 10, 100
1, 23050, Note_on_c, 9, 44, 0
1, 23050, Note_on_c, 9, 10, 0
1, 23160, Note_on_c, 9, 44, 100
1, 23170, Note_on_c, 9, 44, 0
1, 23256, Note_on_c, 3, 29, 0
1, 23280, Note_on_c, 3, 41, 100
1, 23280, Note_on_c, 9, 36, 100
1, 23280, Note_on_c, 9, 44, 100
1, 23290, Note_on_c, 9, 36, 0
1, 23290, Note_on_c, 9, 44, 0
1, 23496, Note_on_c, 3, 41, 0
1, 23520, Note_on_c, 3, 29, 100
1, 23520, Note_on_c, 9, 10, 100
1, 23520, Note_on_c, 9, 44, 100
1, 23530, Note_on_c, 9, 10, 0
1, 23530, Note_on_c, 9, 44, 0
1, 23640, Note_on_c, 9, 44, 100
1, 23650, Note_on_c, 9, 44, 0
1, 23736, Note_on_c, 3, 29, 0
1, 23760, Note_on_c, 3, 41, 100
1, 23760, Note_on_c, 9, 36, 100
1, 23760, Note_on_c, 9, 44, 100
1, 23770, Note_on_c, 9, 36, 0
1, 23770, Note_on_c, 9, 44, 0
1, 23976, Note_on_c, 3, 41, 0
1, 24000, Note_on_c, 3, 29, 100
1, 24000, Note_on_c, 9, 51, 100
1, 24000, Note_on_c, 9, 44, 100
1, 24000, Note_on_c, 9, 10, 100
1, 24010, Note_on_c, 9, 51, 0
1, 24010, Note_on_c, 9, 44, 0
1, 24010, Note_on_c, 9, 10, 0
1, 24120, Note_on_c, 9, 10, 100
1, 24120, Note_on_c, 9, 44, 100
1, 24130, Note_on_c, 9, 10, 0
1, 24130, Note_on_c, 9, 44, 0
1, 24216, Note_on_c, 3, 29, 0
1, 24240, Note_on_c, 3, 41, 100
1, 24240, Note_on_c, 9, 36, 100
1, 24240, Note_on_c, 9, 44, 100
1, 24250, Note_on_c, 9, 36, 0
1, 24250, Note_on_c, 9, 44, 0
1, 24336, Note_on_c, 0, 67, 0
1, 24336, Note_on_c, 1, 62, 0
1, 24336, Note_on_c, 1, 67, 0
1, 24336, Note_on_c, 2, 62, 0
1, 24456, Note_on_c, 3, 41, 0
1, 24480, Note_on_c, 0, 74, 100
1, 24480, Note_on_c, 1, 60, 80
1, 24480, Note_on_c, 1, 65, 80
1, 24480, Note_on_c, 2, 69, 100
1, 24480, Note_on_c, 3, 29, 100
1, 24480, Note_on_c, 9, 51, 100
1, 24480, Note_on_c, 9, 44, 100
1, 24480, Note_on_c, 9, 10, 100
1, 24490, Note_on_c, 9, 51, 0
1, 24490, Note_on_c, 9, 44, 0
1, 24490, Note_on_c, 9, 10, 0
1, 24600, Note_on_c, 9, 44, 100
1, 24610, Note_on_c, 9, 44, 0
1, 24696, Note_on_c, 3, 29, 0
1, 24720, Note_on_c, 3, 41, 100
1, 24720, Note_on_c, 9, 36, 100
1, 24720, Note_on_c, 9, 44, 100
1, 24730, Note_on_c, 9, 36, 0
1, 24730, Note_on_c, 9, 44, 0
1, 24912, Note_on_c, 0, 74, 0
1, 24912, Note_on_c, 1, 60, 0
1, 24912, Note_on_c, 1, 65, 0
1, 24912, Note_on_c, 2, 69, 0
1, 24936, Note_on_c, 3, 41, 0
1, 24960, Note_on_c, 0, 67, 100
1, 24960, Note_on_c, 1, 62, 80
1, 24960, Note_on_c, 1, 67, 80
1, 24960, Note_on_c, 2, 62, 100
1, 24960, Note_on_c, 3, 31, 100
1, 24960, Note_on_c, 4, 57, 0
1, 24960, Note_on_c, 4, 65, 0
1, 24960, Note_on_c, 4, 58, 100
1, 24960, Note_on_c, 4, 67, 100
1, 24960, Note_on_c, 9, 44, 100
1, 24960, Note_on_c, 9, 10, 100
1, 24960, Note_on_c, 9, 51, 100
1, 24970, Note_on_c, 9, 44, 0
1, 24970, Note_on_c, 9, 10, 0
1, 24970, Note_on_c, 9, 51, 0
1, 25080, Note_on_c, 9, 44, 100
1, 25090, Note_on_c, 9, 44, 0
1, 25176, Note_on_c, 3, 31, 0
1, 25200, Note_on_c, 3, 43, 100
1, 25200, Note_on_c, 9, 44, 100
1, 25200, Note_on_c, 9, 36, 100
1, 25210, Note_on_c, 9, 44, 0
1, 25210, Note_on_c, 9, 36, 0
1, 25416, Note_on_c, 3, 43, 0
1, 25440, Note_on_c, 3, 31, 100
1, 25440, Note_on_c, 9, 44, 100
1, 25440, Note_on_c, 9, 10, 100
1, 25450, Note_on_c, 9, 44, 0
1, 25450, Note_on_c, 9, 10, 0
1, 25560, Note_on_c, 9, 44, 100
1, 25570, Note_on_c, 9, 44, 0
1, 25656, Note_on_c, 3, 31, 0
1, 25680, Note_on_c, 3, 43, 100
1, 25680, Note_on_c, 9, 44, 100
1, 25680, Note_on_c, 9, 36, 100
1, 25690, Note_on_c, 9, 44, 0
1, 25690, Note_on_c, 9, 36, 0
1, 25896, Note_on_c, 3, 43, 0
1, 25920, Note_on_c, 3, 31, 100
1, 25920, Note_on_c, 9, 44, 100
1, 25920, Note_on_c, 9, 10, 100
1, 25930, Note_on_c, 9, 44, 0
1, 25930, Note_on_c, 9, 10, 0
1, 26040, Note_on_c, 9, 44, 100
1, 26040, Note_on_c, 9, 10, 100
1, 26050, Note_on_c, 9, 44, 0
1, 26050, Note_on_c, 9, 10, 0
1, 26136, Note_on_c, 3, 31, 0
1, 26160, Note_on_c, 3, 43, 100
1, 26160, Note_on_c, 9, 44, 100
1, 26160, Note_on_c, 9, 36, 100
1, 26170, Note_on_c, 9, 44, 0
1, 26170, Note_on_c, 9, 36, 0
1, 26256, Note_on_c, 1, 62, 0
1, 26256, Note_on_c, 1, 67, 0
1, 26376, Note_on_c, 3, 43, 0
1, 26400, Note_on_c, 0, 72, 100
1, 26400, Note_on_c, 2, 67, 100
1, 26400, Note_on_c, 3, 31, 100
1, 26400, Note_on_c, 9, 44, 100
1, 26400, Note_on_c, 9, 10, 100
1, 26410, Note_on_c, 9, 44, 0
1, 26410, Note_on_c, 9, 10, 0
1, 26520, Note_on_c, 9, 44, 100
1, 26530, Note_on_c, 9, 44, 0
1, 26616, Note_on_c, 3, 31, 0
1, 26640, Note_on_c, 3, 43, 100
1, 26640, Note_on_c, 9, 44, 100
1, 26640, Note_on_c, 9, 36, 100
1, 26650, Note_on_c, 9, 44, 0
1, 26650, Note_on_c, 9, 36, 0
1, 26688, Note_on_c, 0, 67, 0
1, 26688, Note_on_c, 2, 62, 0
1, 26832, Note_on_c, 0, 72, 0
1, 26832, Note_on_c, 2, 67, 0
1, 26856, Note_on_c, 3, 43, 0
1, 26880, Note_on_c, 0, 70, 100
1, 26880, Note_on_c, 2, 67, 100
1, 26880, Note_on_c, 3, 31, 100
1, 26880, Note_on_c, 4, 58, 0
1, 26880, Note_on_c, 4, 67, 0
1, 26880, Note_on_c, 4, 58, 100
1, 26880, Note_on_c, 4, 67, 100
1, 26880, Note_on_c, 9, 44, 100
1, 26880, Note_on_c, 9, 10, 100
1, 26890, Note_on_c, 9, 44, 0
1, 26890, Note_on_c, 9, 10, 0
1, 27000, Note_on_c, 9, 44, 100
1, 27010, Note_on_c, 9, 44, 0
1, 27096, Note_on_c, 0, 70, 0
1, 27096, Note_on_c, 2, 67, 0
1, 27096, Note_on_c, 3, 31, 0
1, 27120, Note_on_c, 0, 69, 100
1, 27120, Note_on_c, 2, 65, 100
1, 27120, Note_on_c, 3, 43, 100
1, 27120, Note_on_c, 9, 36, 100
1, 27120, Note_on_c, 9, 44, 100
1, 27130, Note_on_c, 9, 36, 0
1, 27130, Note_on_c, 9, 44, 0
1, 27336, Note_on_c, 0, 69, 0
1, 27336, Note_on_c, 2, 65, 0
1, 27336, Note_on_c, 3, 43, 0
1, 27360, Note_on_c, 0, 70, 100
1, 27360, Note_on_c, 2, 67, 100
1, 27360, Note_on_c, 3, 31, 100
1, 27360, Note_on_c, 9, 44, 100
1, 27360, Note_on_c, 9, 10, 100
1, 27370, Note_on_c, 9, 44, 0
1, 27370, Note_on_c, 9, 10, 0
1, 27480, Note_on_c, 9, 44, 100
1, 27490, Note_on_c, 9, 44, 0
1, 27576, Note_on_c, 0, 70, 0
1, 27576, Note_on_c, 2, 67, 0
1, 27576, Note_on_c, 3, 31, 0
1, 27600, Note_on_c, 0, 72, 100
1, 27600, Note_on_c, 2, 69, 100
1, 27600, Note_on_c, 3, 43, 100
1, 27600, Note_on_c, 9, 44, 100
1, 27600, Note_on_c, 9, 36, 100
1, 27610, Note_on_c, 9, 44, 0
1, 27610, Note_on_c, 9, 36, 0
1, 27744, Note_on_c, 4, 67, 0
1, 27816, Note_on_c, 0, 72, 0
1, 27816, Note_on_c, 2, 69, 0
1, 27816, Note_on_c, 3, 43, 0
1, 27840, Note_on_c, 0, 74, 100
1, 27840, Note_on_c, 2, 70, 100
1, 27840, Note_on_c, 3, 34, 100
1, 27840, Note_on_c, 4, 70, 100
1, 27840, Note_on_c, 9, 44, 100
1, 27840, Note_on_c, 9, 10, 100
1, 27840, Note_on_c, 9, 51, 100
1, 27850, Note_on_c, 9, 44, 0
1, 27850, Note_on_c, 9, 10, 0
1, 27850, Note_on_c, 9, 51, 0
1, 27960, Note_on_c, 9, 10, 100
1, 27960, Note_on_c, 9, 44, 100
1, 27970, Note_on_c, 9, 10, 0
1, 27970, Note_on_c, 9, 44, 0
1, 28056, Note_on_c, 3, 34, 0
1, 28080, Note_on_c, 3, 46, 100
1, 28080, Note_on_c, 9, 36, 100
1, 28080, Note_on_c, 9, 44, 100
1, 28090, Note_on_c, 9, 36, 0
1, 28090, Note_on_c, 9, 44, 0
1, 28296, Note_on_c, 3, 46, 0
1, 28320, Note_on_c, 3, 34, 100
1, 28320, Note_on_c, 9, 44, 100
1, 28320, Note_on_c, 9, 10, 100
1, 28320, Note_on_c, 9, 51, 100
1, 28330, Note_on_c, 9, 44, 0
1, 28330, Note_on_c, 9, 10, 0
1, 28330, Note_on_c, 9, 51, 0
1, 28440, Note_on_c, 9, 44, 100
1, 28450, Note_on_c, 9, 44, 0
1, 28536, Note_on_c, 3, 34, 0
1, 28560, Note_on_c, 3, 46, 100
1, 28560, Note_on_c, 9, 36, 100
1, 28560, Note_on_c, 9, 44, 100
1, 28570, Note_on_c, 9, 36, 0
1, 28570, Note_on_c, 9, 44, 0
1, 28608, Note_on_c, 4, 58, 0
1, 28704, Note_on_c, 0, 74, 0
1, 28704, Note_on_c, 2, 70, 0
1, 28704, Note_on_c, 4, 70, 0
1, 28776, Note_on_c, 3, 46, 0
1, 28800, Note_on_c, 0, 67, 100
1, 28800, Note_on_c, 1, 62, 80
1, 28800, Note_on_c, 1, 67, 80
1, 28800, Note_on_c, 2, 62, 100
1, 28800, Note_on_c, 3, 27, 100
1, 28800, Note_on_c, 4, 63, 100
1, 28800, Note_on_c, 4, 55, 100
1, 28800, Note_on_c, 9, 51, 100
1, 28800, Note_on_c, 9, 44, 100
1, 28800, Note_on_c, 9, 10, 100
1, 28810, Note_on_c, 9, 51, 0
1, 28810, Note_on_c, 9, 44, 0
1, 28810, Note_on_c, 9, 10, 0
1, 28920, Note_on_c, 9, 44, 100
1, 28930, Note_on_c, 9, 44, 0
1, 29016, Note_on_c, 3, 27, 0
1, 29040, Note_on_c, 3, 39, 100
1, 29040, Note_on_c, 9, 36, 100
1, 29040, Note_on_c, 9, 44, 100
1, 29050, Note_on_c, 9, 36, 0
1, 29050, Note_on_c, 9, 44, 0
1, 29232, Note_on_c, 1, 62, 0
1, 29232, Note_on_c, 1, 67, 0
1, 29256, Note_on_c, 3, 39, 0
1, 29280, Note_on_c, 1, 62, 80
1, 29280, Note_on_c, 1, 67, 80
1, 29280, Note_on_c, 3, 27, 100
1, 29280, Note_on_c, 9, 10, 100
1, 29280, Note_on_c, 9, 44, 100
1, 29290, Note_on_c, 9, 10, 0
1, 29290, Note_on_c, 9, 44, 0
1, 29400, Note_on_c, 9, 44, 100
1, 29410, Note_on_c, 9, 44, 0
1, 29424, Note_on_c, 1, 62, 0
1, 29424, Note_on_c, 1, 67, 0
1, 29440, Note_on_c, 1, 62, 80
1, 29440, Note_on_c, 1, 67, 80
1, 29496, Note_on_c, 3, 27, 0
1, 29520, Note_on_c, 3, 39, 100
1, 29520, Note_on_c, 9, 36, 100
1, 29520, Note_on_c, 9, 44, 100
1, 29530, Note_on_c, 9, 36, 0
1, 29530, Note_on_c, 9, 44, 0
1, 29584, Note_on_c, 1, 62, 0
1, 29584, Note_on_c, 1, 67, 0
1, 29600, Note_on_c, 1, 62, 80
1, 29600, Note_on_c, 1, 67, 80
1, 29736, Note_on_c, 3, 39, 0
1, 29744, Note_on_c, 1, 62, 0
1, 29744, Note_on_c, 1, 67, 0
1, 29760, Note_on_c, 1, 62, 80
1, 29760, Note_on_c, 1, 67, 80
1, 29760, Note_on_c, 3, 27, 100
1, 29760, Note_on_c, 9, 10, 100
1, 29760, Note_on_c, 9, 44, 100
1, 29770, Note_on_c, 9, 10, 0
1, 29770, Note_on_c, 9, 44, 0
1, 29880, Note_on_c, 9, 10, 100
1, 29880, Note_on_c, 9, 44, 100
1, 29890, Note_on_c, 9, 10, 0
1, 29890, Note_on_c, 9, 44, 0
1, 29976, Note_on_c, 3, 27, 0
1, 30000, Note_on_c, 3, 39, 100
1, 30000, Note_on_c, 9, 36, 100
1, 30000, Note_on_c, 9, 44, 100
1, 30010, Note_on_c, 9, 36, 0
1, 30010, Note_on_c, 9, 44, 0
1, 30096, Note_on_c, 0, 67, 0
1, 30096, Note_on_c, 2, 62, 0
1, 30192, Note_on_c, 1, 62, 0
1, 30192, Note_on_c, 1, 67, 0
1, 30216, Note_on_c, 3, 39, 0
1, 30240, Note_on_c, 0, 74, 100
1, 30240, Note_on_c, 1, 60, 80
1, 30240, Note_on_c, 1, 65, 80
1, 30240, Note_on_c, 2, 69, 100
1, 30240, Note_on_c, 3, 27, 100
1, 30240, Note_on_c, 9, 10, 100
1, 30240, Note_on_c, 9, 44, 100
1, 30250, Note_on_c, 9, 10, 0
1, 30250, Note_on_c, 9, 44, 0
1, 30360, Note_on_c, 9, 44, 100
1, 30370, Note_on_c, 9, 44, 0
1, 30456, Note_on_c, 3, 27, 0
1, 30480, Note_on_c, 3, 39, 100
1, 30480, Note_on_c, 9, 36, 100
1, 30480, Note_on_c, 9, 44, 100
1, 30490, Note_on_c, 9, 36, 0
1, 30490, Note_on_c, 9, 44, 0
1, 30672, Note_on_c, 0, 74, 0
1, 30672, Note_on_c, 1, 60, 0
1, 30672, Note_on_c, 1, 65, 0
1, 30672, Note_on_c, 2, 69, 0
1, 30696, Note_on_c, 3, 39, 0
1, 30720, Note_on_c, 0, 67, 100
1, 30720, Note_on_c, 1, 62, 80
1, 30720, Note_on_c, 1, 67, 80
1, 30720, Note_on_c, 2, 62, 100
1, 30720, Note_on_c, 3, 29, 100
1, 30720, Note_on_c, 4, 63, 0
1, 30720, Note_on_c, 4, 55, 0
1, 30720, Note_on_c, 4, 57, 100
1, 30720, Note_on_c, 4, 65, 100
1, 30720, Note_on_c, 9, 44, 100
1, 30720, Note_on_c, 9, 10, 100
1, 30730, Note_on_c, 9, 44, 0
1, 30730, Note_on_c, 9, 10, 0
1, 30840, Note_on_c, 9, 44, 100
1, 30850, Note_on_c, 9, 44, 0
1, 30936, Note_on_c, 3, 29, 0
1, 30960, Note_on_c, 3, 41, 100
1, 30960, Note_on_c, 9, 36, 100
1, 30960, Note_on_c, 9, 44, 100
1, 30970, Note_on_c, 9, 36, 0
1, 30970, Note_on_c, 9, 44, 0
1, 31176, Note_on_c, 3, 41, 0
1, 31200, Note_on_c, 3, 29, 100
1, 31200, Note_on_c, 9, 10, 100
1, 31200, Note_on_c, 9, 44, 100
1, 31210, Note_on_c, 9, 10, 0
1, 31210, Note_on_c, 9, 44, 0
1, 31320, Note_on_c, 9, 44, 100
1, 31330, Note_on_c, 9, 44, 0
1, 31416, Note_on_c, 3, 29, 0
1, 31440, Note_on_c, 3, 41, 100
1, 31440, Note_on_c, 9, 36, 100
1, 31440, Note_on_c, 9, 44, 100
1, 31450, Note_on_c, 9, 36, 0
1, 31450, Note_on_c, 9, 44, 0
1, 31656, Note_on_c, 3, 41, 0
1, 31680, Note_on_c, 3, 29, 100
1, 31680, Note_on_c, 9, 51, 100
1, 31680, Note_on_c, 9, 44, 100
1, 31680, Note_on_c, 9, 10, 100
1, 31690, Note_on_c, 9, 51, 0
1, 31690, Note_on_c, 9, 44, 0
1, 31690, Note_on_c, 9, 10, 0
1, 31800, Note_on_c, 9, 10, 100
1, 31800, Note_on_c, 9, 44, 100
1, 31810, Note_on_c, 9, 10, 0
1, 31810, Note_on_c, 9, 44, 0
1, 31896, Note_on_c, 3, 29, 0
1, 31920, Note_on_c, 3, 41, 100
1, 31920, Note_on_c, 9, 36, 100
1, 31920, Note_on_c, 9, 44, 100
1, 31930, Note_on_c, 9, 36, 0
1, 31930, Note_on_c, 9, 44, 0
1, 32016, Note_on_c, 0, 67, 0
1, 32016, Note_on_c, 1, 62, 0
1, 32016, Note_on_c, 1, 67, 0
1, 32016, Note_on_c, 2, 62, 0
1, 32136, Note_on_c, 3, 41, 0
1, 32160, Note_on_c, 0, 74, 100
1, 32160, Note_on_c, 1, 60, 80
1, 32160, Note_on_c, 1, 65, 80
1, 32160, Note_on_c, 2, 69, 100
1, 32160, Note_on_c, 3, 29, 100
1, 32160, Note_on_c, 9, 51, 100
1, 32160, Note_on_c, 9, 44, 100
1, 32160, Note_on_c, 9, 10, 100
1, 32170, Note_on_c, 9, 51, 0
1, 32170, Note_on_c, 9, 44, 0
1, 32170, Note_on_c, 9, 10, 0
1, 32280, Note_on_c, 9, 44, 100
1, 32290, Note_on_c, 9, 44, 0
1, 32376, Note_on_c, 3, 29, 0
1, 32400, Note_on_c, 3, 41, 100
1, 32400, Note_on_c, 9, 36, 100
1, 32400, Note_on_c, 9, 44, 100
1, 32410, Note_on_c, 9, 36, 0
1, 32410, Note_on_c, 9, 44, 0
1, 32592, Note_on_c, 0, 74, 0
1, 32592, Note_on_c, 1, 60, 0
1, 32592, Note_on_c, 1, 65, 0
1, 32592, Note_on_c, 2, 69, 0
1, 32616, Note_on_c, 3, 41, 0
1, 32640, Note_on_c, 0, 67, 100
1, 32640, Note_on_c, 1, 62, 80
1, 32640, Note_on_c, 1, 67, 80
1, 32640, Note_on_c, 2, 62, 100
1, 32640, Note_on_c, 3, 31, 100
1, 32640, Note_on_c, 4, 57, 0
1, 32640, Note_on_c, 4, 65, 0
1, 32640, Note_on_c, 4, 58, 100
1, 32640, Note_on_c, 4, 67, 100
1, 32640, Note_on_c, 9, 44, 100
1, 32640, Note_on_c, 9, 10, 100
1, 32640, Note_on_c, 9, 51, 100
1, 32650, Note_on_c, 9, 44, 0
1, 32650, Note_on_c, 9, 10, 0
1, 32650, Note_on_c, 9, 51, 0
1, 32760, Note_on_c, 9, 44, 100
1, 32770, Note_on_c, 9, 44, 0
1, 32856, Note_on_c, 3, 31, 0
1, 32880, Note_on_c, 3, 43, 100
1, 32880, Note_on_c, 9, 44, 100
1, 32880, Note_on_c, 9, 36, 100
1, 32890, Note_on_c, 9, 44, 0
1, 32890, Note_on_c, 9, 36, 0
1, 33096, Note_on_c, 3, 43, 0
1, 33120, Note_on_c, 3, 31, 100
1, 33120, Note_on_c, 9, 44, 100
1, 33120, Note_on_c, 9, 10, 100
1, 33130, Note_on_c, 9, 44, 0
1, 33130, Note_on_c, 9, 10, 0
1, 33240, Note_on_c, 9, 44, 100
1, 33250, Note_on_c, 9, 44, 0
1, 33336, Note_on_c, 3, 31, 0
1, 33360, Note_on_c, 3, 43, 100
1, 33360, Note_on_c, 9, 44, 100
1, 33360, Note_on_c, 9, 36, 100
1, 33370, Note_on_c, 9, 44, 0
1, 33370, Note_on_c, 9, 36, 0
1, 33576, Note_on_c, 3, 43, 0
1, 33600, Note_on_c, 3, 31, 100
1, 33600, Note_on_c, 9, 44, 100
1, 33600, Note_on_c, 9, 10, 100
1, 33610, Note_on_c, 9, 44, 0
1, 33610, Note_on_c, 9, 10, 0
1, 33720, Note_on_c, 9, 44, 100
1, 33720, Note_on_c, 9, 10, 100
1, 33730, Note_on_c, 9, 44, 0
1, 33730, Note_on_c, 9, 10, 0
1, 33816, Note_on_c, 3, 31, 0
1, 33840, Note_on_c, 3, 43, 100
1, 33840, Note_on_c, 9, 44, 100
1, 33840, Note_on_c, 9, 36, 100
1, 33850, Note_on_c, 9, 44, 0
1, 33850, Note_on_c, 9, 36, 0
1, 33936, Note_on_c, 1, 62, 0
1, 33936, Note_on_c, 1, 67, 0
1, 34056, Note_on_c, 3, 43, 0
1, 34080, Note_on_c, 3, 31, 100
1, 34080, Note_on_c, 9, 44, 100
1, 34080, Note_on_c, 9, 10, 100
1, 34090, Note_on_c, 9, 44, 0
1, 34090, Note_on_c, 9, 10, 0
1, 34200, Note_on_c, 9, 44, 100
1, 34210, Note_on_c, 9, 44, 0
1, 34296, Note_on_c, 3, 31, 0
1, 34320, Note_on_c, 3, 43, 100
1, 34320, Note_on_c, 9, 44, 100
1, 34320, Note_on_c, 9, 36, 100
1, 34330, Note_on_c, 9, 44, 0
1, 34330, Note_on_c, 9, 36, 0
1, 34368, Note_on_c, 0, 67, 0
1, 34368, Note_on_c, 2, 62, 0
1, 34536, Note_on_c, 3, 43, 0
1, 34560, Note_on_c, 3, 31, 100
1, 34560, Note_on_c, 9, 44, 100
1, 34560, Note_on_c, 9, 10, 100
1, 34570, Note_on_c, 9, 44, 0
1, 34570, Note_on_c, 9, 10, 0
1, 34680, Note_on_c, 9, 44, 100
1, 34690, Note_on_c, 9, 44, 0
1, 34776, Note_on_c, 3, 31, 0
1, 34800, Note_on_c, 3, 43, 100
1, 34800, Note_on_c, 9, 36, 100
1, 34800, Note_on_c, 9, 44, 100
1, 34810, Note_on_c, 9, 36, 0
1, 34810, Note_on_c, 9, 44, 0
1, 35016, Note_on_c, 3, 43, 0
1, 35040, Note_on_c, 3, 31, 100
1, 35040, Note_on_c, 9, 44, 100
1, 35040, Note_on_c, 9, 10, 100
1, 35050, Note_on_c, 9, 44, 0
1, 35050, Note_on_c, 9, 10, 0
1, 35160, Note_on_c, 9, 44, 100
1, 35170, Note_on_c, 9, 44, 0
1, 35256, Note_on_c, 3, 31, 0
1, 35280, Note_on_c, 3, 43, 100
1, 35280, Note_on_c, 9, 44, 100
1, 35280, Note_on_c, 9, 36, 100
1, 35290, Note_on_c, 9, 44, 0
1, 35290, Note_on_c, 9, 36, 0
1, 35496, Note_on_c, 3, 43, 0
1, 35520, Note_on_c, 3, 31, 100
1, 35520, Note_on_c, 9, 44, 100
1, 35520, Note_on_c, 9, 10, 100
1, 35520, Note_on_c, 9, 51, 100
1, 35530, Note_on_c, 9, 44, 0
1, 35530, Note_on_c, 9, 10, 0
1, 35530, Note_on_c, 9, 51, 0
1, 35640, Note_on_c, 9, 10, 100
1, 35640, Note_on_c, 9, 44, 100
1, 35650, Note_on_c, 9, 10, 0
1, 35650, Note_on_c, 9, 44, 0
1, 35736, Note_on_c, 3, 31, 0
1, 35760, Note_on_c, 3, 43, 100
1, 35760, Note_on_c, 9, 36, 100
1, 35760, Note_on_c, 9, 44, 100
1, 35770, Note_on_c, 9, 36, 0
1, 35770, Note_on_c, 9, 44, 0
1, 35976, Note_on_c, 3, 43, 0
1, 36000, Note_on_c, 3, 31, 100
1, 36000, Note_on_c, 9, 44, 100
1, 36000, Note_on_c, 9, 10, 100
1, 36000, Note_on_c, 9, 51, 100
1, 36010, Note_on_c, 9, 44, 0
1, 36010, Note_on_c, 9, 10, 0
1, 36010, Note_on_c, 9, 51, 0
1, 36120, Note_on_c, 9, 44, 100
1, 36130, Note_on_c, 9, 44, 0
1, 36216, Note_on_c, 3, 31, 0
1, 36240, Note_on_c, 3, 43, 100
1, 36240, Note_on_c, 9, 36, 100
1, 36240, Note_on_c, 9, 44, 100
1, 36250, Note_on_c, 9, 36, 0
1, 36250, Note_on_c, 9, 44, 0
1, 36456, Note_on_c, 3, 43, 0
1, 36465, Control_c, 0, 10, 75
1, 36465, Control_c, 1, 10, 54
1, 36480, Note_on_c, 0, 77, 100
1, 36480, Note_on_c, 1, 72, 100
1, 36480, Note_on_c, 2, 62, 100
1, 36480, Note_on_c, 2, 67, 100
1, 36480, Note_on_c, 3, 27, 100
1, 36480, Note_on_c, 4, 58, 0
1, 36480, Note_on_c, 4, 67, 0
1, 36480, Note_on_c, 4, 55, 100
1, 36480, Note_on_c, 4, 63, 100
1, 36480, Note_on_c, 9, 44, 100
1, 36480, Note_on_c, 9, 10, 100
1, 36480, Note_on_c, 9, 51, 100
1, 36490, Note_on_c, 9, 44, 0
1, 36490, Note_on_c, 9, 10, 0
1, 36490, Note_on_c, 9, 51, 0
1, 36495, Control_c, 0, 10, 75
1, 36495, Control_c, 1, 10, 54
1, 36525, Control_c, 0, 10, 74
1, 36525, Control_c, 1, 10, 53
1, 36555, Control_c, 0, 10, 73
1, 36555, Control_c, 1, 10, 52
1, 36585, Control_c, 0, 10, 72
1, 36585, Control_c, 1, 10, 51
1, 36588, Note_on_c, 0, 77, 0
1, 36588, Note_on_c, 1, 72, 0
1, 36600, Note_on_c, 0, 76, 100
1, 36600, Note_on_c, 1, 70, 100
1, 36600, Note_on_c, 9, 44, 100
1, 36610, Note_on_c, 9, 44, 0
1, 36615, Control_c, 0, 10, 71
1, 36615, Control_c, 1, 10, 50
1, 36645, Control_c, 0, 10, 70
1, 36645, Control_c, 1, 10, 50
1, 36675, Control_c, 0, 10, 69
1, 36675, Control_c, 1, 10, 49
1, 36696, Note_on_c, 3, 27, 0
1, 36705, Control_c, 0, 10, 68
1, 36705, Note_on_c, 1, 70, 0
1, 36705, Control_c, 1, 10, 48
1, 36708, Note_on_c, 0, 76, 0
1, 36720, Note_on_c, 0, 74, 100
1, 36720, Note_on_c, 1, 69, 100
1, 36720, Note_on_c, 3, 39, 100
1, 36720, Note_on_c, 9, 44, 100
1, 36720, Note_on_c, 9, 36, 100
1, 36730, Note_on_c, 9, 44, 0
1, 36730, Note_on_c, 9, 36, 0
1, 36735, Control_c, 0, 10, 67
1, 36735, Control_c, 1, 10, 47
1, 36765, Control_c, 0, 10, 66
1, 36765, Control_c, 1, 10, 46
1, 36795, Control_c, 0, 10, 65
1, 36795, Control_c, 1, 10, 45
1, 36825, Control_c, 0, 10, 64
1, 36825, Control_c, 1, 10, 45
1, 36828, Note_on_c, 0, 74, 0
1, 36828, Note_on_c, 1, 69, 0
1, 36840, Note_on_c, 0, 72, 100
1, 36840, Note_on_c, 1, 67, 100
1, 36855, Control_c, 0, 10, 63
1, 36855, Control_c, 1, 10, 44
1, 36885, Control_c, 0, 10, 62
1, 36885, Control_c, 1, 10, 43
1, 36912, Note_on_c, 2, 62, 0
1, 36912, Note_on_c, 2, 67, 0
1, 36915, Control_c, 0, 10, 62
1, 36915, Control_c, 1, 10, 42
1, 36936, Note_on_c, 3, 39, 0
1, 36945, Control_c, 0, 10, 61
1, 36945, Control_c, 1, 10, 41
1, 36948, Note_on_c, 0, 72, 0
1, 36948, Note_on_c, 1, 67, 0
1, 36960, Note_on_c, 0, 70, 100
1, 36960, Note_on_c, 1, 65, 100
1, 36960, Note_on_c, 2, 62, 100
1, 36960, Note_on_c, 2, 67, 100
1, 36960, Note_on_c, 3, 27, 100
1, 36960, Note_on_c, 9, 44, 100
1, 36960, Note_on_c, 9, 10, 100
1, 36970, Note_on_c, 9, 44, 0
1, 36970, Note_on_c, 9, 10, 0
1, 36975, Control_c, 0, 10, 60
1, 36975, Control_c, 1, 10, 41
1, 37005, Control_c, 0, 10, 59
1, 37005, Control_c, 1, 10, 40
1, 37035, Control_c, 0, 10, 58
1, 37035, Control_c, 1, 10, 39
1, 37044, Note_on_c, 2, 62, 0
1, 37044, Note_on_c, 2, 67, 0
1, 37065, Control_c, 0, 10, 57
1, 37065, Control_c, 1, 10, 38
1, 37068, Note_on_c, 0, 70, 0
1, 37068, Note_on_c, 1, 65, 0
1, 37080, Note_on_c, 0, 72, 100
1, 37080, Note_on_c, 1, 67, 100
1, 37080, Note_on_c, 2, 62, 100
1, 37080, Note_on_c, 2, 67, 100
1, 37080, Note_on_c, 9, 44, 100
1, 37090, Note_on_c, 9, 44, 0
1, 37095, Control_c, 0, 10, 56
1, 37095, Control_c, 1, 10, 37
1, 37125, Control_c, 0, 10, 55
1, 37125, Control_c, 1, 10, 36
1, 37155, Control_c, 0, 10, 54
1, 37155, Control_c, 1, 10, 36
1, 37176, Note_on_c, 3, 27, 0
1, 37185, Control_c, 0, 10, 53
1, 37185, Control_c, 1, 10, 35
1, 37188, Note_on_c, 0, 72, 0
1, 37188, Note_on_c, 1, 67, 0
1, 37200, Note_on_c, 0, 70, 100
1, 37200, Note_on_c, 1, 65, 100
1, 37200, Note_on_c, 3, 39, 100
1, 37200, Note_on_c, 9, 44, 100
1, 37200, Note_on_c, 9, 36, 100
1, 37210, Note_on_c, 9, 44, 0
1, 37210, Note_on_c, 9, 36, 0
1, 37215, Control_c, 0, 10, 52
1, 37215, Control_c, 1, 10, 34
1, 37245, Control_c, 0, 10, 51
1, 37245, Control_c, 1, 10, 33
1, 37248, Note_on_c, 2, 62, 0
1, 37248, Note_on_c, 2, 67, 0
1, 37275, Control_c, 0, 10, 50
1, 37275, Control_c, 1, 10, 32
1, 37280, Note_on_c, 2, 62, 100
1, 37280, Note_on_c, 2, 67, 100
1, 37305, Control_c, 0, 10, 49
1, 37305, Control_c, 1, 10, 32
1, 37308, Note_on_c, 0, 70, 0
1, 37308, Note_on_c, 1, 65, 0
1, 37320, Note_on_c, 0, 69, 100
1, 37320, Note_on_c, 1, 64, 100
1, 37335, Control_c, 0, 10, 49
1, 37335, Control_c, 1, 10, 31
1, 37364, Note_on_c, 2, 62, 0
1, 37364, Note_on_c, 2, 67, 0
1, 37365, Control_c, 0, 10, 48
1, 37365, Control_c, 1, 10, 30
1, 37395, Control_c, 0, 10, 47
1, 37395, Control_c, 1, 10, 29
1, 37416, Note_on_c, 3, 39, 0
1, 37425, Control_c, 0, 10, 46
1, 37425, Control_c, 1, 10, 28
1, 37428, Note_on_c, 0, 69, 0
1, 37428, Note_on_c, 1, 64, 0
1, 37440, Note_on_c, 0, 70, 100
1, 37440, Note_on_c, 1, 65, 100
1, 37440, Note_on_c, 2, 62, 100
1, 37440, Note_on_c, 2, 67, 100
1, 37440, Note_on_c, 3, 27, 100
1, 37440, Note_on_c, 9, 44, 100
1, 37440, Note_on_c, 9, 10, 100
1, 37450, Note_on_c, 9, 44, 0
1, 37450, Note_on_c, 9, 10, 0
1, 37455, Control_c, 0, 10, 45
1, 37455, Control_c, 1, 10, 27
1, 37485, Control_c, 0, 10, 44
1, 37485, Control_c, 1, 10, 27
1, 37515, Control_c, 0, 10, 43
1, 37515, Control_c, 1, 10, 26
1, 37545, Control_c, 0, 10, 42
1, 37545, Control_c, 1, 10, 25
1, 37548, Note_on_c, 0, 70, 0
1, 37548, Note_on_c, 1, 65, 0
1, 37560, Note_on_c, 0, 72, 100
1, 37560, Note_on_c, 1, 67, 100
1, 37560, Note_on_c, 9, 44, 100
1, 37560, Note_on_c, 9, 10, 100
1, 37570, Note_on_c, 9, 44, 0
1, 37570, Note_on_c, 9, 10, 0
1, 37575, Control_c, 0, 10, 41
1, 37575, Control_c, 1, 10, 24
1, 37605, Control_c, 0, 10, 40
1, 37605, Control_c, 1, 10, 23
1, 37635, Control_c, 0, 10, 39
1, 37635, Control_c, 1, 10, 22
1, 37656, Note_on_c, 3, 27, 0
1, 37665, Control_c, 0, 10, 38
1, 37665, Control_c, 1, 10, 22
1, 37668, Note_on_c, 0, 72, 0
1, 37668, Note_on_c, 1, 67, 0
1, 37680, Note_on_c, 0, 70, 100
1, 37680, Note_on_c, 1, 65, 100
1, 37680, Note_on_c, 3, 39, 100
1, 37680, Note_on_c, 9, 44, 100
1, 37680, Note_on_c, 9, 36, 100
1, 37690, Note_on_c, 9, 44, 0
1, 37690, Note_on_c, 9, 36, 0
1, 37695, Control_c, 0, 10, 37
1, 37695, Control_c, 1, 10, 21
1, 37725, Control_c, 0, 10, 36
1, 37725, Control_c, 1, 10, 20
1, 37755, Control_c, 0, 10, 36
1, 37755, Control_c, 1, 10, 19
1, 37776, Note_on_c, 2, 62, 0
1, 37776, Note_on_c, 2, 67, 0
1, 37785, Control_c, 0, 10, 35
1, 37785, Control_c, 1, 10, 18
1, 37788, Note_on_c, 0, 70, 0
1, 37788, Note_on_c, 1, 65, 0
1, 37800, Note_on_c, 0, 69, 100
1, 37800, Note_on_c, 1, 64, 100
1, 37815, Control_c, 0, 10, 34
1, 37815, Control_c, 1, 10, 18
1, 37845, Control_c, 0, 10, 33
1, 37845, Control_c, 1, 10, 17
1, 37875, Control_c, 0, 10, 32
1, 37875, Control_c, 1, 10, 16
1, 37896, Note_on_c, 3, 39, 0
1, 37905, Control_c, 0, 10, 31
1, 37905, Control_c, 1, 10, 15
1, 37908, Note_on_c, 0, 69, 0
1, 37908, Note_on_c, 1, 64, 0
1, 37920, Note_on_c, 0, 67, 100
1, 37920, Note_on_c, 1, 62, 100
1, 37920, Note_on_c, 2, 60, 100
1, 37920, Note_on_c, 2, 65, 100
1, 37920, Note_on_c, 3, 27, 100
1, 37920, Note_on_c, 9, 44, 100
1, 37920, Note_on_c, 9, 10, 100
1, 37930, Note_on_c, 9, 44, 0
1, 37930, Note_on_c, 9, 10, 0
1, 37935, Control_c, 0, 10, 30
1, 37935, Control_c, 1, 10, 14
1, 37965, Control_c, 0, 10, 29
1, 37965, Control_c, 1, 10, 13
1, 37995, Control_c, 0, 10, 28
1, 37995, Control_c, 1, 10, 13
1, 38025, Control_c, 0, 10, 27
1, 38025, Control_c, 1, 10, 12
1, 38028, Note_on_c, 0, 67, 0
1, 38028, Note_on_c, 1, 62, 0
1, 38040, Note_on_c, 0, 69, 100
1, 38040, Note_on_c, 1, 64, 100
1, 38040, Note_on_c, 9, 44, 100
1, 38050, Note_on_c, 9, 44, 0
1, 38055, Control_c, 0, 10, 26
1, 38055, Control_c, 1, 10, 11
1, 38085, Control_c, 0, 10, 25
1, 38085, Control_c, 1, 10, 10
1, 38115, Control_c, 0, 10, 24
1, 38115, Control_c, 1, 10, 9
1, 38136, Note_on_c, 3, 27, 0
1, 38145, Control_c, 0, 10, 23
1, 38145, Control_c, 1, 10, 9
1, 38148, Note_on_c, 0, 69, 0
1, 38148, Note_on_c, 1, 64, 0
1, 38160, Note_on_c, 0, 67, 100
1, 38160, Note_on_c, 1, 62, 100
1, 38160, Note_on_c, 3, 39, 100
1, 38160, Note_on_c, 9, 44, 100
1, 38160, Note_on_c, 9, 36, 100
1, 38170, Note_on_c, 9, 44, 0
1, 38170, Note_on_c, 9, 36, 0
1, 38175, Control_c, 0, 10, 23
1, 38175, Control_c, 1, 10, 8
1, 38205, Control_c, 0, 10, 22
1, 38205, Control_c, 1, 10, 7
1, 38235, Control_c, 0, 10, 21
1, 38235, Control_c, 1, 10, 6
1, 38265, Control_c, 0, 10, 20
1, 38265, Control_c, 1, 10, 5
1, 38268, Note_on_c, 0, 67, 0
1, 38268, Note_on_c, 1, 62, 0
1, 38280, Note_on_c, 0, 65, 100
1, 38280, Note_on_c, 1, 60, 100
1, 38295, Control_c, 0, 10, 19
1, 38295, Control_c, 1, 10, 4
1, 38325, Control_c, 0, 10, 18
1, 38325, Control_c, 1, 10, 4
1, 38352, Note_on_c, 2, 60, 0
1, 38352, Note_on_c, 2, 65, 0
1, 38355, Control_c, 0, 10, 17
1, 38355, Control_c, 1, 10, 3
1, 38370, Control_c, 0, 10, 18
1, 38376, Note_on_c, 3, 39, 0
1, 38385, Control_c, 1, 10, 2
1, 38388, Note_on_c, 0, 65, 0
1, 38388, Note_on_c, 1, 60, 0
1, 38400, Note_on_c, 0, 67, 100
1, 38400, Control_c, 0, 10, 18
1, 38400, Note_on_c, 1, 62, 100
1, 38400, Note_on_c, 2, 62, 100
1, 38400, Note_on_c, 2, 67, 100
1, 38400, Note_on_c, 3, 29, 100
1, 38400, Note_on_c, 4, 55, 0
1, 38400, Note_on_c, 4, 63, 0
1, 38400, Note_on_c, 4, 65, 100
1, 38400, Note_on_c, 4, 57, 100
1, 38400, Note_on_c, 9, 10, 100
1, 38400, Note_on_c, 9, 44, 100
1, 38410, Note_on_c, 9, 10, 0
1, 38410, Note_on_c, 9, 44, 0
1, 38415, Control_c, 1, 10, 2
1, 38430, Control_c, 0, 10, 19
1, 38445, Control_c, 1, 10, 3
1, 38460, Control_c, 0, 10, 19
1, 38475, Control_c, 1, 10, 4
1, 38490, Control_c, 0, 10, 20
1, 38505, Control_c, 1, 10, 4
1, 38520, Control_c, 0, 10, 21
1, 38520, Note_on_c, 9, 44, 100
1, 38530, Note_on_c, 9, 44, 0
1, 38535, Control_c, 1, 10, 5
1, 38550, Control_c, 0, 10, 21
1, 38565, Control_c, 1, 10, 6
1, 38580, Control_c, 0, 10, 22
1, 38595, Control_c, 1, 10, 6
1, 38610, Control_c, 0, 10, 23
1, 38616, Note_on_c, 3, 29, 0
1, 38625, Control_c, 1, 10, 7
1, 38640, Control_c, 0, 10, 23
1, 38640, Note_on_c, 3, 41, 100
1, 38640, Note_on_c, 9, 44, 100
1, 38640, Note_on_c, 9, 36, 100
1, 38650, Note_on_c, 9, 44, 0
1, 38650, Note_on_c, 9, 36, 0
1, 38655, Control_c, 1, 10, 8
1, 38670, Control_c, 0, 10, 24
1, 38685, Control_c, 1, 10, 8
1, 38700, Control_c, 0, 10, 25
1, 38715, Control_c, 1, 10, 9
1, 38730, Control_c, 0, 10, 25
1, 38745, Control_c, 1, 10, 10
1, 38760, Control_c, 0, 10, 26
1, 38775, Control_c, 1, 10, 10
1, 38790, Control_c, 0, 10, 27
1, 38805, Control_c, 1, 10, 11
1, 38820, Control_c, 0, 10, 27
1, 38835, Control_c, 1, 10, 12
1, 38850, Control_c, 0, 10, 28
1, 38856, Note_on_c, 3, 41, 0
1, 38865, Control_c, 1, 10, 12
1, 38880, Control_c, 0, 10, 29
1, 38880, Note_on_c, 3, 29, 100
1, 38880, Note_on_c, 9, 44, 100
1, 38880, Note_on_c, 9, 10, 100
1, 38890, Note_on_c, 9, 44, 0
1, 38890, Note_on_c, 9, 10, 0
1, 38895, Control_c, 1, 10, 13
1, 38910, Control_c, 0, 10, 29
1, 38925, Control_c, 1, 10, 14
1, 38940, Control_c, 0, 10, 30
1, 38955, Control_c, 1, 10, 14
1, 38970, Control_c, 0, 10, 31
1, 38985, Control_c, 1, 10, 15
1, 39000, Control_c, 0, 10, 31
1, 39000, Note_on_c, 9, 44, 100
1, 39010, Note_on_c, 9, 44, 0
1, 39015, Control_c, 1, 10, 16
1, 39030, Control_c, 0, 10, 32
1, 39045, Control_c, 1, 10, 16
1, 39060, Control_c, 0, 10, 33
1, 39075, Control_c, 1, 10, 17
1, 39090, Control_c, 0, 10, 33
1, 39096, Note_on_c, 3, 29, 0
1, 39105, Control_c, 1, 10, 18
1, 39120, Control_c, 0, 10, 34
1, 39120, Note_on_c, 3, 41, 100
1, 39120, Note_on_c, 9, 44, 100
1, 39120, Note_on_c, 9, 36, 100
1, 39130, Note_on_c, 9, 44, 0
1, 39130, Note_on_c, 9, 36, 0
1, 39135, Control_c, 1, 10, 18
1, 39150, Control_c, 0, 10, 35
1, 39165, Control_c, 1, 10, 19
1, 39180, Control_c, 0, 10, 35
1, 39195, Control_c, 1, 10, 20
1, 39210, Control_c, 0, 10, 36
1, 39225, Control_c, 1, 10, 20
1, 39240, Control_c, 0, 10, 36
1, 39255, Control_c, 1, 10, 21
1, 39270, Control_c, 0, 10, 37
1, 39285, Control_c, 1, 10, 22
1, 39300, Control_c, 0, 10, 38
1, 39315, Control_c, 1, 10, 22
1, 39330, Control_c, 0, 10, 38
1, 39336, Note_on_c, 3, 41, 0
1, 39345, Control_c, 1, 10, 23
1, 39360, Control_c, 0, 10, 39
1, 39360, Note_on_c, 3, 29, 100
1, 39360, Note_on_c, 9, 44, 100
1, 39360, Note_on_c, 9, 10, 100
1, 39360, Note_on_c, 9, 51, 100
1, 39370, Note_on_c, 9, 44, 0
1, 39370, Note_on_c, 9, 10, 0
1, 39370, Note_on_c, 9, 51, 0
1, 39375, Control_c, 1, 10, 24
1, 39390, Control_c, 0, 10, 40
1, 39405, Control_c, 1, 10, 24
1, 39420, Control_c, 0, 10, 40
1, 39435, Control_c, 1, 10, 25
1, 39450, Control_c, 0, 10, 41
1, 39465, Control_c, 1, 10, 26
1, 39480, Control_c, 0, 10, 42
1, 39480, Note_on_c, 9, 44, 100
1, 39480, Note_on_c, 9, 10, 100
1, 39490, Note_on_c, 9, 44, 0
1, 39490, Note_on_c, 9, 10, 0
1, 39495, Control_c, 1, 10, 26
1, 39510, Control_c, 0, 10, 42
1, 39525, Control_c, 1, 10, 27
1, 39540, Control_c, 0, 10, 43
1, 39555, Control_c, 1, 10, 28
1, 39570, Control_c, 0, 10, 44
1, 39576, Note_on_c, 3, 29, 0
1, 39585, Control_c, 1, 10, 28
1, 39600, Control_c, 0, 10, 44
1, 39600, Note_on_c, 3, 41, 100
1, 39600, Note_on_c, 9, 44, 100
1, 39600, Note_on_c, 9, 36, 100
1, 39610, Note_on_c, 9, 44, 0
1, 39610, Note_on_c, 9, 36, 0
1, 39615, Control_c, 1, 10, 29
1, 39630, Control_c, 0, 10, 45
1, 39645, Control_c, 1, 10, 30
1, 39660, Control_c, 0, 10, 46
1, 39675, Control_c, 1, 10, 30
1, 39690, Control_c, 0, 10, 46
1, 39696, Note_on_c, 0, 67, 0
1, 39696, Note_on_c, 1, 62, 0
1, 39696, Note_on_c, 2, 62, 0
1, 39696, Note_on_c, 2, 67, 0
1, 39705, Control_c, 1, 10, 31
1, 39720, Control_c, 0, 10, 47
1, 39735, Control_c, 1, 10, 32
1, 39750, Control_c, 0, 10, 48
1, 39765, Control_c, 1, 10, 32
1, 39780, Control_c, 0, 10, 48
1, 39795, Control_c, 1, 10, 33
1, 39810, Control_c, 0, 10, 49
1, 39816, Note_on_c, 3, 41, 0
1, 39825, Control_c, 1, 10, 34
1, 39840, Note_on_c, 0, 65, 100
1, 39840, Control_c, 0, 10, 50
1, 39840, Note_on_c, 1, 60, 100
1, 39840, Note_on_c, 2, 60, 100
1, 39840, Note_on_c, 2, 65, 100
1, 39840, Note_on_c, 3, 29, 100
1, 39840, Note_on_c, 9, 44, 100
1, 39840, Note_on_c, 9, 10, 100
1, 39840, Note_on_c, 9, 51, 100
1, 39850, Note_on_c, 9, 44, 0
1, 39850, Note_on_c, 9, 10, 0
1, 39850, Note_on_c, 9, 51, 0
1, 39855, Control_c, 1, 10, 34
1, 39870, Control_c, 0, 10, 50
1, 39885, Control_c, 1, 10, 35
1, 39900, Control_c, 0, 10, 51
1, 39915, Control_c, 1, 10, 36
1, 39930, Control_c, 0, 10, 52
1, 39945, Control_c, 1, 10, 36
1, 39960, Control_c, 0, 10, 52
1, 39960, Note_on_c, 9, 44, 100
1, 39970, Note_on_c, 9, 44, 0
1, 39975, Control_c, 1, 10, 37
1, 39990, Control_c, 0, 10, 53
1, 40005, Control_c, 1, 10, 38
1, 40020, Control_c, 0, 10, 54
1, 40035, Control_c, 1, 10, 38
1, 40050, Control_c, 0, 10, 54
1, 40056, Note_on_c, 3, 29, 0
1, 40065, Control_c, 1, 10, 39
1, 40080, Control_c, 0, 10, 55
1, 40080, Note_on_c, 3, 41, 100
1, 40080, Note_on_c, 9, 44, 100
1, 40080, Note_on_c, 9, 36, 100
1, 40090, Note_on_c, 9, 44, 0
1, 40090, Note_on_c, 9, 36, 0
1, 40095, Control_c, 1, 10, 40
1, 40110, Control_c, 0, 10, 55
1, 40125, Control_c, 1, 10, 40
1, 40140, Control_c, 0, 10, 56
1, 40155, Control_c, 1, 10, 41
1, 40170, Control_c, 0, 10, 57
1, 40185, Control_c, 1, 10, 42
1, 40200, Control_c, 0, 10, 57
1, 40215, Control_c, 1, 10, 42
1, 40230, Control_c, 0, 10, 58
1, 40245, Control_c, 1, 10, 43
1, 40260, Control_c, 0, 10, 59
1, 40272, Note_on_c, 0, 65, 0
1, 40272, Note_on_c, 1, 60, 0
1, 40272, Note_on_c, 2, 60, 0
1, 40272, Note_on_c, 2, 65, 0
1, 40275, Control_c, 1, 10, 44
1, 40290, Control_c, 0, 10, 59
1, 40296, Note_on_c, 3, 41, 0
1, 40305, Control_c, 1, 10, 44
1, 40320, Note_on_c, 0, 67, 100
1, 40320, Control_c, 0, 10, 60
1, 40320, Note_on_c, 1, 62, 100
1, 40320, Note_on_c, 2, 62, 100
1, 40320, Note_on_c, 2, 67, 100
1, 40320, Note_on_c, 3, 31, 100
1, 40320, Note_on_c, 4, 65, 0
1, 40320, Note_on_c, 4, 57, 0
1, 40320, Note_on_c, 4, 67, 100
1, 40320, Note_on_c, 4, 58, 100
1, 40320, Note_on_c, 9, 10, 100
1, 40320, Note_on_c, 9, 51, 100
1, 40320, Note_on_c, 9, 44, 100
1, 40330, Note_on_c, 9, 10, 0
1, 40330, Note_on_c, 9, 51, 0
1, 40330, Note_on_c, 9, 44, 0
1, 40335, Control_c, 1, 10, 45
1, 40350, Control_c, 0, 10, 61
1, 40365, Control_c, 1, 10, 46
1, 40380, Control_c, 0, 10, 61
1, 40395, Control_c, 1, 10, 46
1, 40410, Control_c, 0, 10, 62
1, 40425, Control_c, 1, 10, 47
1, 40440, Control_c, 0, 10, 63
1, 40440, Note_on_c, 9, 44, 100
1, 40450, Note_on_c, 9, 44, 0
1, 40455, Control_c, 1, 10, 48
1, 40470, Control_c, 0, 10, 63
1, 40485, Control_c, 1, 10, 48
1, 40500, Control_c, 0, 10, 64
1, 40515, Control_c, 1, 10, 49
1, 40530, Control_c, 0, 10, 65
1, 40536, Note_on_c, 3, 31, 0
1, 40545, Control_c, 1, 10, 50
1, 40560, Control_c, 0, 10, 65
1, 40560, Note_on_c, 3, 43, 100
1, 40560, Note_on_c, 9, 36, 100
1, 40560, Note_on_c, 9, 44, 100
1, 40570, Note_on_c, 9, 36, 0
1, 40570, Note_on_c, 9, 44, 0
1, 40575, Control_c, 1, 10, 50
1, 40590, Control_c, 0, 10, 66
1, 40605, Control_c, 1, 10, 51
1, 40620, Control_c, 0, 10, 67
1, 40635, Control_c, 1, 10, 52
1, 40644, Note_on_c, 0, 67, 0
1, 40644, Note_on_c, 1, 62, 0
1, 40650, Control_c, 0, 10, 67
1, 40665, Control_c, 1, 10, 52
1, 40680, Note_on_c, 0, 74, 100
1, 40680, Control_c, 0, 10, 68
1, 40680, Note_on_c, 1, 69, 100
1, 40695, Control_c, 1, 10, 53
1, 40710, Control_c, 0, 10, 69
1, 40725, Control_c, 1, 10, 54
1, 40740, Control_c, 0, 10, 69
1, 40755, Control_c, 1, 10, 54
1, 40770, Control_c, 0, 10, 70
1, 40776, Note_on_c, 3, 43, 0
1, 40785, Control_c, 1, 10, 55
1, 40788, Note_on_c, 0, 74, 0
1, 40788, Note_on_c, 1, 69, 0
1, 40800, Note_on_c, 0, 74, 100
1, 40800, Control_c, 0, 10, 71
1, 40800, Note_on_c, 1, 69, 100
1, 40800, Note_on_c, 3, 31, 100
1, 40800, Note_on_c, 9, 10, 100
1, 40800, Note_on_c, 9, 44, 100
1, 40810, Note_on_c, 9, 10, 0
1, 40810, Note_on_c, 9, 44, 0
1, 40830, Control_c, 0, 10, 71
1, 40860, Control_c, 0, 10, 72
1, 40890, Control_c, 0, 10, 73
1, 40920, Control_c, 0, 10, 73
1, 40920, Note_on_c, 9, 44, 100
1, 40930, Note_on_c, 9, 44, 0
1, 40950, Control_c, 0, 10, 74
1, 40980, Control_c, 0, 10, 74
1, 41010, Control_c, 0, 10, 75
1, 41016, Note_on_c, 3, 31, 0
1, 41040, Note_on_c, 3, 43, 100
1, 41040, Note_on_c, 9, 36, 100
1, 41040, Note_on_c, 9, 44, 100
1, 41050, Note_on_c, 9, 36, 0
1, 41050, Note_on_c, 9, 44, 0
1, 41256, Note_on_c, 3, 43, 0
1, 41280, Note_on_c, 3, 31, 100
1, 41280, Note_on_c, 9, 10, 100
1, 41280, Note_on_c, 9, 44, 100
1, 41290, Note_on_c, 9, 10, 0
1, 41290, Note_on_c, 9, 44, 0
1, 41400, Note_on_c, 9, 10, 100
1, 41400, Note_on_c, 9, 44, 100
1, 41410, Note_on_c, 9, 10, 0
1, 41410, Note_on_c, 9, 44, 0
1, 41496, Note_on_c, 3, 31, 0
1, 41520, Note_on_c, 3, 43, 100
1, 41520, Note_on_c, 9, 36, 100
1, 41520, Note_on_c, 9, 44, 100
1, 41530, Note_on_c, 9, 36, 0
1, 41530, Note_on_c, 9, 44, 0
1, 41736, Note_on_c, 3, 43, 0
1, 41760, Note_on_c, 3, 31, 100
1, 41760, Note_on_c, 9, 10, 100
1, 41760, Note_on_c, 9, 44, 100
1, 41770, Note_on_c, 9, 10, 0
1, 41770, Note_on_c, 9, 44, 0
1, 41880, Note_on_c, 9, 44, 100
1, 41890, Note_on_c, 9, 44, 0
1, 41976, Note_on_c, 3, 31, 0
1, 42000, Note_on_c, 3, 43, 100
1, 42000, Note_on_c, 9, 36, 100
1, 42000, Note_on_c, 9, 44, 100
1, 42010, Note_on_c, 9, 36, 0
1, 42010, Note_on_c, 9, 44, 0
1, 42048, Note_on_c, 2, 62, 0
1, 42048, Note_on_c, 2, 67, 0
1, 42216, Note_on_c, 3, 43, 0
1, 42240, Note_on_c, 2, 65, 100
1, 42240, Control_c, 2, 10, 109
1, 42240, Note_on_c, 3, 34, 100
1, 42240, Note_on_c, 4, 67, 0
1, 42240, Note_on_c, 4, 70, 100
1, 42240, Note_on_c, 9, 10, 100
1, 42240, Note_on_c, 9, 44, 100
1, 42250, Note_on_c, 9, 10, 0
1, 42250, Note_on_c, 9, 44, 0
1, 42270, Control_c, 2, 10, 109
1, 42300, Control_c, 2, 10, 108
1, 42330, Control_c, 2, 10, 108
1, 42348, Note_on_c, 2, 65, 0
1, 42360, Note_on_c, 2, 64, 100
1, 42360, Control_c, 2, 10, 107
1, 42360, Note_on_c, 9, 44, 100
1, 42370, Note_on_c, 9, 44, 0
1, 42390, Control_c, 2, 10, 106
1, 42420, Control_c, 2, 10, 106
1, 42450, Control_c, 2, 10, 105
1, 42456, Note_on_c, 3, 34, 0
1, 42468, Note_on_c, 2, 64, 0
1, 42480, Note_on_c, 2, 62, 100
1, 42480, Control_c, 2, 10, 104
1, 42480, Note_on_c, 3, 46, 100
1, 42480, Note_on_c, 9, 44, 100
1, 42480, Note_on_c, 9, 36, 100
1, 42490, Note_on_c, 9, 44, 0
1, 42490, Note_on_c, 9, 36, 0
1, 42510, Control_c, 2, 10, 104
1, 42540, Control_c, 2, 10, 103
1, 42570, Control_c, 2, 10, 102
1, 42588, Note_on_c, 2, 62, 0
1, 42600, Note_on_c, 2, 60, 100
1, 42600, Control_c, 2, 10, 102
1, 42630, Control_c, 2, 10, 101
1, 42660, Control_c, 2, 10, 100
1, 42690, Control_c, 2, 10, 100
1, 42696, Note_on_c, 3, 46, 0
1, 42708, Note_on_c, 2, 60, 0
1, 42720, Note_on_c, 2, 58, 100
1, 42720, Control_c, 2, 10, 99
1, 42720, Note_on_c, 3, 33, 100
1, 42720, Note_on_c, 4, 70, 0
1, 42720, Note_on_c, 4, 69, 100
1, 42720, Note_on_c, 9, 10, 100
1, 42720, Note_on_c, 9, 44, 100
1, 42730, Note_on_c, 9, 10, 0
1, 42730, Note_on_c, 9, 44, 0
1, 42750, Control_c, 2, 10, 98
1, 42780, Control_c, 2, 10, 98
1, 42810, Control_c, 2, 10, 97
1, 42828, Note_on_c, 2, 58, 0
1, 42840, Note_on_c, 2, 60, 100
1, 42840, Control_c, 2, 10, 96
1, 42840, Note_on_c, 9, 44, 100
1, 42850, Note_on_c, 9, 44, 0
1, 42870, Control_c, 2, 10, 96
1, 42900, Control_c, 2, 10, 95
1, 42930, Control_c, 2, 10, 94
1, 42936, Note_on_c, 3, 33, 0
1, 42948, Note_on_c, 2, 60, 0
1, 42960, Note_on_c, 2, 58, 100
1, 42960, Control_c, 2, 10, 94
1, 42960, Note_on_c, 3, 45, 100
1, 42960, Note_on_c, 9, 36, 100
1, 42960, Note_on_c, 9, 44, 100
1, 42970, Note_on_c, 9, 36, 0
1, 42970, Note_on_c, 9, 44, 0
1, 42990, Control_c, 2, 10, 93
1, 43020, Control_c, 2, 10, 92
1, 43050, Control_c, 2, 10, 92
1, 43068, Note_on_c, 2, 58, 0
1, 43080, Note_on_c, 2, 57, 100
1, 43080, Control_c, 2, 10, 91
1, 43110, Control_c, 2, 10, 90
1, 43140, Control_c, 2, 10, 90
1, 43170, Control_c, 2, 10, 89
1, 43176, Note_on_c, 3, 45, 0
1, 43188, Note_on_c, 2, 57, 0
1, 43200, Note_on_c, 2, 58, 100
1, 43200, Control_c, 2, 10, 88
1, 43200, Note_on_c, 3, 31, 100
1, 43200, Note_on_c, 4, 69, 0
1, 43200, Note_on_c, 4, 67, 100
1, 43200, Note_on_c, 9, 10, 100
1, 43200, Note_on_c, 9, 51, 100
1, 43200, Note_on_c, 9, 44, 100
1, 43210, Note_on_c, 9, 10, 0
1, 43210, Note_on_c, 9, 51, 0
1, 43210, Note_on_c, 9, 44, 0
1, 43230, Control_c, 2, 10, 88
1, 43260, Control_c, 2, 10, 87
1, 43290, Control_c, 2, 10, 86
1, 43308, Note_on_c, 2, 58, 0
1, 43320, Note_on_c, 2, 60, 100
1, 43320, Control_c, 2, 10, 86
1, 43320, Note_on_c, 9, 44, 100
1, 43320, Note_on_c, 9, 10, 100
1, 43330, Note_on_c, 9, 44, 0
1, 43330, Note_on_c, 9, 10, 0
1, 43350, Control_c, 2, 10, 85
1, 43380, Control_c, 2, 10, 84
1, 43410, Control_c, 2, 10, 84
1, 43416, Note_on_c, 3, 31, 0
1, 43428, Note_on_c, 2, 60, 0
1, 43440, Note_on_c, 2, 58, 100
1, 43440, Control_c, 2, 10, 83
1, 43440, Note_on_c, 3, 43, 100
1, 43440, Note_on_c, 9, 44, 100
1, 43440, Note_on_c, 9, 36, 100
1, 43450, Note_on_c, 9, 44, 0
1, 43450, Note_on_c, 9, 36, 0
1, 43470, Control_c, 2, 10, 82
1, 43500, Control_c, 2, 10, 82
1, 43530, Control_c, 2, 10, 81
1, 43548, Note_on_c, 2, 58, 0
1, 43560, Note_on_c, 2, 57, 100
1, 43560, Control_c, 2, 10, 80
1, 43590, Control_c, 2, 10, 80
1, 43620, Control_c, 2, 10, 79
1, 43650, Control_c, 2, 10, 78
1, 43656, Note_on_c, 3, 43, 0
1, 43668, Note_on_c, 2, 57, 0
1, 43680, Note_on_c, 2, 55, 100
1, 43680, Control_c, 2, 10, 78
1, 43680, Note_on_c, 3, 29, 100
1, 43680, Note_on_c, 4, 67, 0
1, 43680, Note_on_c, 4, 65, 100
1, 43680, Note_on_c, 9, 10, 100
1, 43680, Note_on_c, 9, 51, 100
1, 43680, Note_on_c, 9, 44, 100
1, 43690, Note_on_c, 9, 10, 0
1, 43690, Note_on_c, 9, 51, 0
1, 43690, Note_on_c, 9, 44, 0
1, 43710, Control_c, 2, 10, 77
1, 43740, Control_c, 2, 10, 76
1, 43770, Control_c, 2, 10, 76
1, 43788, Note_on_c, 2, 55, 0
1, 43800, Note_on_c, 2, 57, 100
1, 43800, Control_c, 2, 10, 75
1, 43800, Note_on_c, 9, 44, 100
1, 43810, Note_on_c, 9, 44, 0
1, 43830, Control_c, 2, 10, 74
1, 43860, Control_c, 2, 10, 74
1, 43890, Control_c, 2, 10, 73
1, 43896, Note_on_c, 3, 29, 0
1, 43908, Note_on_c, 2, 57, 0
1, 43920, Note_on_c, 2, 55, 100
1, 43920, Control_c, 2, 10, 72
1, 43920, Note_on_c, 3, 41, 100
1, 43920, Note_on_c, 9, 44, 100
1, 43920, Note_on_c, 9, 36, 100
1, 43930, Note_on_c, 9, 44, 0
1, 43930, Note_on_c, 9, 36, 0
1, 43950, Control_c, 2, 10, 72
1, 43968, Note_on_c, 0, 74, 0
1, 43968, Note_on_c, 1, 69, 0
1, 43968, Note_on_c, 4, 58, 0
1, 43980, Control_c, 2, 10, 71
1, 44010, Control_c, 2, 10, 70
1, 44028, Note_on_c, 2, 55, 0
1, 44040, Note_on_c, 2, 53, 100
1, 44040, Control_c, 2, 10, 70
1, 44070, Control_c, 2, 10, 69
1, 44100, Control_c, 2, 10, 69
1, 44130, Control_c, 2, 10, 68
1, 44136, Note_on_c, 3, 41, 0
1, 44145, Control_c, 0, 10, 74
1, 44145, Control_c, 2, 10, 110
1, 44148, Note_on_c, 2, 53, 0
1, 44160, Note_on_c, 0, 77, 100
1, 44160, Note_on_c, 1, 72, 100
1, 44160, Control_c, 1, 10, 53
1, 44160, Note_on_c, 2, 62, 100
1, 44160, Note_on_c, 2, 67, 100
1, 44160, Note_on_c, 3, 27, 100
1, 44160, Note_on_c, 4, 65, 0
1, 44160, Note_on_c, 4, 55, 100
1, 44160, Note_on_c, 4, 63, 100
1, 44160, Note_on_c, 9, 44, 100
1, 44160, Note_on_c, 9, 10, 100
1, 44160, Note_on_c, 9, 51, 100
1, 44170, Note_on_c, 9, 44, 0
1, 44170, Note_on_c, 9, 10, 0
1, 44170, Note_on_c, 9, 51, 0
1, 44175, Control_c, 0, 10, 74
1, 44175, Control_c, 2, 10, 110
1, 44190, Control_c, 1, 10, 53
1, 44205, Control_c, 0, 10, 74
1, 44205, Control_c, 2, 10, 110
1, 44220, Control_c, 1, 10, 53
1, 44235, Control_c, 0, 10, 73
1, 44235, Control_c, 2, 10, 110
1, 44250, Control_c, 1, 10, 52
1, 44265, Control_c, 0, 10, 73
1, 44265, Control_c, 2, 10, 110
1, 44268, Note_on_c, 0, 77, 0
1, 44268, Note_on_c, 1, 72, 0
1, 44280, Note_on_c, 0, 76, 100
1, 44280, Note_on_c, 1, 70, 100
1, 44280, Control_c, 1, 10, 52
1, 44280, Note_on_c, 9, 44, 100
1, 44290, Note_on_c, 9, 44, 0
1, 44295, Control_c, 0, 10, 72
1, 44295, Control_c, 2, 10, 110
1, 44310, Control_c, 1, 10, 51
1, 44325, Control_c, 0, 10, 72
1, 44340, Control_c, 1, 10, 51
1, 44355, Control_c, 0, 10, 72
1, 44370, Control_c, 1, 10, 51
1, 44376, Note_on_c, 3, 27, 0
1, 44385, Control_c, 0, 10, 71
1, 44385, Note_on_c, 1, 70, 0
1, 44388, Note_on_c, 0, 76, 0
1, 44400, Note_on_c, 0, 74, 100
1, 44400, Note_on_c, 1, 69, 100
1, 44400, Control_c, 1, 10, 50
1, 44400, Note_on_c, 3, 39, 100
1, 44400, Note_on_c, 9, 44, 100
1, 44400, Note_on_c, 9, 36, 100
1, 44410, Note_on_c, 9, 44, 0
1, 44410, Note_on_c, 9, 36, 0
1, 44415, Control_c, 0, 10, 71
1, 44430, Control_c, 1, 10, 50
1, 44445, Control_c, 0, 10, 70
1, 44460, Control_c, 1, 10, 49
1, 44475, Control_c, 0, 10, 70
1, 44490, Control_c, 1, 10, 49
1, 44505, Control_c, 0, 10, 70
1, 44508, Note_on_c, 0, 74, 0
1, 44508, Note_on_c, 1, 69, 0
1, 44520, Note_on_c, 0, 72, 100
1, 44520, Note_on_c, 1, 67, 100
1, 44520, Control_c, 1, 10, 49
1, 44535, Control_c, 0, 10, 69
1, 44550, Control_c, 1, 10, 48
1, 44565, Control_c, 0, 10, 69
1, 44580, Control_c, 1, 10, 48
1, 44592, Note_on_c, 2, 62, 0
1, 44592, Note_on_c, 2, 67, 0
1, 44595, Control_c, 0, 10, 68
1, 44610, Control_c, 1, 10, 47
1, 44616, Note_on_c, 3, 39, 0
1, 44625, Control_c, 0, 10, 68
1, 44628, Note_on_c, 0, 72, 0
1, 44628, Note_on_c, 1, 67, 0
1, 44640, Note_on_c, 0, 70, 100
1, 44640, Note_on_c, 1, 65, 100
1, 44640, Control_c, 1, 10, 47
1, 44640, Note_on_c, 2, 62, 100
1, 44640, Note_on_c, 2, 67, 100
1, 44640, Note_on_c, 3, 27, 100
1, 44640, Note_on_c, 9, 44, 100
1, 44640, Note_on_c, 9, 10, 100
1, 44650, Note_on_c, 9, 44, 0
1, 44650, Note_on_c, 9, 10, 0
1, 44655, Control_c, 0, 10, 67
1, 44670, Control_c, 1, 10, 47
1, 44685, Control_c, 0, 10, 67
1, 44700, Control_c, 1, 10, 46
1, 44715, Control_c, 0, 10, 67
1, 44724, Note_on_c, 2, 62, 0
1, 44724, Note_on_c, 2, 67, 0
1, 44730, Control_c, 1, 10, 46
1, 44745, Control_c, 0, 10, 66
1, 44748, Note_on_c, 0, 70, 0
1, 44748, Note_on_c, 1, 65, 0
1, 44760, Note_on_c, 0, 72, 100
1, 44760, Note_on_c, 1, 67, 100
1, 44760, Control_c, 1, 10, 45
1, 44760, Note_on_c, 2, 67, 100
1, 44760, Note_on_c, 2, 62, 100
1, 44760, Note_on_c, 9, 44, 100
1, 44770, Note_on_c, 9, 44, 0
1, 44775, Control_c, 0, 10, 66
1, 44790, Control_c, 1, 10, 45
1, 44805, Control_c, 0, 10, 65
1, 44820, Control_c, 1, 10, 44
1, 44835, Control_c, 0, 10, 65
1, 44850, Control_c, 1, 10, 44
1, 44856, Note_on_c, 3, 27, 0
1, 44865, Control_c, 0, 10, 65
1, 44868, Note_on_c, 0, 72, 0
1, 44868, Note_on_c, 1, 67, 0
1, 44880, Note_on_c, 0, 70, 100
1, 44880, Note_on_c, 1, 65, 100
1, 44880, Control_c, 1, 10, 44
1, 44880, Note_on_c, 3, 39, 100
1, 44880, Note_on_c, 9, 44, 100
1, 44880, Note_on_c, 9, 36, 100
1, 44890, Note_on_c, 9, 44, 0
1, 44890, Note_on_c, 9, 36, 0
1, 44895, Control_c, 0, 10, 64
1, 44910, Control_c, 1, 10, 43
1, 44925, Control_c, 0, 10, 64
1, 44928, Note_on_c, 2, 67, 0
1, 44928, Note_on_c, 2, 62, 0
1, 44940, Control_c, 1, 10, 43
1, 44955, Control_c, 0, 10, 63
1, 44960, Note_on_c, 2, 62, 100
1, 44960, Note_on_c, 2, 67, 100
1, 44970, Control_c, 1, 10, 42
1, 44985, Control_c, 0, 10, 63
1, 44988, Note_on_c, 0, 70, 0
1, 44988, Note_on_c, 1, 65, 0
1, 45000, Note_on_c, 0, 69, 100
1, 45000, Note_on_c, 1, 63, 100
1, 45000, Control_c, 1, 10, 42
1, 45015, Control_c, 0, 10, 63
1, 45030, Control_c, 1, 10, 42
1, 45044, Note_on_c, 2, 62, 0
1, 45044, Note_on_c, 2, 67, 0
1, 45045, Control_c, 0, 10, 62
1, 45060, Control_c, 1, 10, 41
1, 45075, Control_c, 0, 10, 62
1, 45090, Control_c, 1, 10, 41
1, 45096, Note_on_c, 3, 39, 0
1, 45105, Control_c, 0, 10, 61
1, 45108, Note_on_c, 0, 69, 0
1, 45108, Note_on_c, 1, 63, 0
1, 45120, Note_on_c, 0, 70, 100
1, 45120, Note_on_c, 1, 65, 100
1, 45120, Control_c, 1, 10, 40
1, 45120, Note_on_c, 2, 62, 100
1, 45120, Note_on_c, 2, 67, 100
1, 45120, Note_on_c, 3, 27, 100
1, 45120, Note_on_c, 9, 44, 100
1, 45120, Note_on_c, 9, 10, 100
1, 45130, Note_on_c, 9, 44, 0
1, 45130, Note_on_c, 9, 10, 0
1, 45135, Control_c, 0, 10, 61
1, 45150, Control_c, 1, 10, 40
1, 45165, Control_c, 0, 10, 60
1, 45180, Control_c, 1, 10, 40
1, 45195, Control_c, 0, 10, 60
1, 45210, Control_c, 1, 10, 39
1, 45225, Control_c, 0, 10, 60
1, 45228, Note_on_c, 0, 70, 0
1, 45228, Note_on_c, 1, 65, 0
1, 45240, Note_on_c, 0, 72, 100
1, 45240, Note_on_c, 1, 67, 100
1, 45240, Control_c, 1, 10, 39
1, 45240, Note_on_c, 9, 44, 100
1, 45240, Note_on_c, 9, 10, 100
1, 45250, Note_on_c, 9, 44, 0
1, 45250, Note_on_c, 9, 10, 0
1, 45255, Control_c, 0, 10, 59
1, 45270, Control_c, 1, 10, 38
1, 45285, Control_c, 0, 10, 59
1, 45300, Control_c, 1, 10, 38
1, 45315, Control_c, 0, 10, 58
1, 45330, Control_c, 1, 10, 38
1, 45336, Note_on_c, 3, 27, 0
1, 45345, Control_c, 0, 10, 58
1, 45348, Note_on_c, 0, 72, 0
1, 45348, Note_on_c, 1, 67, 0
1, 45360, Note_on_c, 0, 74, 100
1, 45360, Note_on_c, 1, 69, 100
1, 45360, Control_c, 1, 10, 37
1, 45360, Note_on_c, 3, 39, 100
1, 45360, Note_on_c, 9, 44, 100
1, 45360, Note_on_c, 9, 36, 100
1, 45370, Note_on_c, 9, 44, 0
1, 45370, Note_on_c, 9, 36, 0
1, 45375, Control_c, 0, 10, 58
1, 45390, Control_c, 1, 10, 37
1, 45405, Control_c, 0, 10, 57
1, 45420, Control_c, 1, 10, 36
1, 45435, Control_c, 0, 10, 57
1, 45450, Control_c, 1, 10, 36
1, 45465, Control_c, 0, 10, 56
1, 45468, Note_on_c, 0, 74, 0
1, 45468, Note_on_c, 1, 69, 0
1, 45480, Note_on_c, 0, 70, 100
1, 45480, Note_on_c, 1, 65, 100
1, 45480, Control_c, 1, 10, 35
1, 45495, Control_c, 0, 10, 56
1, 45510, Control_c, 1, 10, 35
1, 45525, Control_c, 0, 10, 56
1, 45540, Control_c, 1, 10, 35
1, 45552, Note_on_c, 2, 62, 0
1, 45552, Note_on_c, 2, 67, 0
1, 45555, Control_c, 0, 10, 55
1, 45570, Control_c, 1, 10, 34
1, 45576, Note_on_c, 3, 39, 0
1, 45585, Control_c, 0, 10, 55
1, 45588, Note_on_c, 0, 70, 0
1, 45588, Note_on_c, 1, 65, 0
1, 45600, Note_on_c, 0, 69, 100
1, 45600, Note_on_c, 1, 63, 100
1, 45600, Control_c, 1, 10, 34
1, 45600, Note_on_c, 2, 60, 100
1, 45600, Note_on_c, 2, 65, 100
1, 45600, Note_on_c, 3, 27, 100
1, 45600, Note_on_c, 9, 44, 100
1, 45600, Note_on_c, 9, 10, 100
1, 45610, Note_on_c, 9, 44, 0
1, 45610, Note_on_c, 9, 10, 0
1, 45615, Control_c, 0, 10, 54
1, 45630, Control_c, 1, 10, 33
1, 45645, Control_c, 0, 10, 54
1, 45660, Control_c, 1, 10, 33
1, 45675, Control_c, 0, 10, 53
1, 45690, Control_c, 1, 10, 33
1, 45705, Control_c, 0, 10, 53
1, 45708, Note_on_c, 0, 69, 0
1, 45708, Note_on_c, 1, 63, 0
1, 45720, Note_on_c, 0, 70, 100
1, 45720, Note_on_c, 1, 65, 100
1, 45720, Control_c, 1, 10, 32
1, 45720, Note_on_c, 9, 44, 100
1, 45730, Note_on_c, 9, 44, 0
1, 45735, Control_c, 0, 10, 53
1, 45750, Control_c, 1, 10, 32
1, 45765, Control_c, 0, 10, 52
1, 45780, Control_c, 1, 10, 31
1, 45795, Control_c, 0, 10, 52
1, 45810, Control_c, 1, 10, 31
1, 45816, Note_on_c, 3, 27, 0
1, 45825, Control_c, 0, 10, 51
1, 45828, Note_on_c, 0, 70, 0
1, 45828, Note_on_c, 1, 65, 0
1, 45840, Note_on_c, 0, 69, 100
1, 45840, Note_on_c, 1, 63, 100
1, 45840, Control_c, 1, 10, 31
1, 45840, Note_on_c, 3, 39, 100
1, 45840, Note_on_c, 9, 44, 100
1, 45840, Note_on_c, 9, 36, 100
1, 45850, Note_on_c, 9, 44, 0
1, 45850, Note_on_c, 9, 36, 0
1, 45855, Control_c, 0, 10, 51
1, 45870, Control_c, 1, 10, 30
1, 45885, Control_c, 0, 10, 51
1, 45900, Control_c, 1, 10, 30
1, 45915, Control_c, 0, 10, 50
1, 45930, Control_c, 1, 10, 29
1, 45945, Control_c, 0, 10, 50
1, 45948, Note_on_c, 0, 69, 0
1, 45948, Note_on_c, 1, 63, 0
1, 45960, Note_on_c, 0, 65, 100
1, 45960, Note_on_c, 1, 60, 100
1, 45960, Control_c, 1, 10, 29
1, 45975, Control_c, 0, 10, 49
1, 45990, Control_c, 1, 10, 29
1, 46005, Control_c, 0, 10, 49
1, 46020, Control_c, 1, 10, 28
1, 46032, Note_on_c, 2, 60, 0
1, 46032, Note_on_c, 2, 65, 0
1, 46035, Control_c, 0, 10, 49
1, 46050, Control_c, 1, 10, 28
1, 46056, Note_on_c, 3, 39, 0
1, 46065, Control_c, 0, 10, 48
1, 46068, Note_on_c, 0, 65, 0
1, 46068, Note_on_c, 1, 60, 0
1, 46080, Note_on_c, 0, 67, 100
1, 46080, Note_on_c, 1, 62, 100
1, 46080, Control_c, 1, 10, 27
1, 46080, Note_on_c, 2, 62, 100
1, 46080, Note_on_c, 2, 67, 100
1, 46080, Note_on_c, 3, 29, 100
1, 46080, Note_on_c, 4, 55, 0
1, 46080, Note_on_c, 4, 63, 0
1, 46080, Note_on_c, 4, 65, 100
1, 46080, Note_on_c, 4, 57, 100
1, 46080, Note_on_c, 9, 10, 100
1, 46080, Note_on_c, 9, 44, 100
1, 46090, Note_on_c, 9, 10, 0
1, 46090, Note_on_c, 9, 44, 0
1, 46095, Control_c, 0, 10, 48
1, 46110, Control_c, 1, 10, 27
1, 46125, Control_c, 0, 10, 47
1, 46140, Control_c, 1, 10, 26
1, 46155, Control_c, 0, 10, 47
1, 46170, Control_c, 1, 10, 26
1, 46185, Control_c, 0, 10, 46
1, 46200, Control_c, 1, 10, 26
1, 46200, Note_on_c, 9, 44, 100
1, 46210, Note_on_c, 9, 44, 0
1, 46215, Control_c, 0, 10, 46
1, 46230, Control_c, 1, 10, 25
1, 46245, Control_c, 0, 10, 46
1, 46260, Control_c, 1, 10, 25
1, 46275, Control_c, 0, 10, 45
1, 46290, Control_c, 1, 10, 24
1, 46296, Note_on_c, 3, 29, 0
1, 46305, Control_c, 0, 10, 45
1, 46320, Control_c, 1, 10, 24
1, 46320, Note_on_c, 3, 41, 100
1, 46320, Note_on_c, 9, 44, 100
1, 46320, Note_on_c, 9, 36, 100
1, 46330, Note_on_c, 9, 44, 0
1, 46330, Note_on_c, 9, 36, 0
1, 46335, Control_c, 0, 10, 44
1, 46350, Control_c, 1, 10, 24
1, 46365, Control_c, 0, 10, 44
1, 46380, Control_c, 1, 10, 23
1, 46395, Control_c, 0, 10, 44
1, 46410, Control_c, 1, 10, 23
1, 46425, Control_c, 0, 10, 43
1, 46440, Control_c, 1, 10, 22
1, 46455, Control_c, 0, 10, 43
1, 46470, Control_c, 1, 10, 22
1, 46485, Control_c, 0, 10, 42
1, 46500, Control_c, 1, 10, 22
1, 46515, Control_c, 0, 10, 42
1, 46530, Control_c, 1, 10, 21
1, 46536, Note_on_c, 3, 41, 0
1, 46545, Control_c, 0, 10, 42
1, 46560, Control_c, 1, 10, 21
1, 46560, Note_on_c, 3, 29, 100
1, 46560, Note_on_c, 9, 44, 100
1, 46560, Note_on_c, 9, 10, 100
1, 46570, Note_on_c, 9, 44, 0
1, 46570, Note_on_c, 9, 10, 0
1, 46575, Control_c, 0, 10, 41
1, 46590, Control_c, 1, 10, 20
1, 46605, Control_c, 0, 10, 41
1, 46620, Control_c, 1, 10, 20
1, 46635, Control_c, 0, 10, 40
1, 46650, Control_c, 1, 10, 20
1, 46665, Control_c, 0, 10, 40
1, 46680, Control_c, 1, 10, 19
1, 46680, Note_on_c, 9, 44, 100
1, 46690, Note_on_c, 9, 44, 0
1, 46695, Control_c, 0, 10, 39
1, 46710, Control_c, 1, 10, 19
1, 46725, Control_c, 0, 10, 39
1, 46740, Control_c, 1, 10, 18
1, 46755, Control_c, 0, 10, 39
1, 46770, Control_c, 1, 10, 18
1, 46776, Note_on_c, 3, 29, 0
1, 46785, Control_c, 0, 10, 38
1, 46800, Control_c, 1, 10, 17
1, 46800, Note_on_c, 3, 41, 100
1, 46800, Note_on_c, 9, 44, 100
1, 46800, Note_on_c, 9, 36, 100
1, 46810, Note_on_c, 9, 44, 0
1, 46810, Note_on_c, 9, 36, 0
1, 46815, Control_c, 0, 10, 38
1, 46830, Control_c, 1, 10, 17
1, 46845, Control_c, 0, 10, 37
1, 46860, Control_c, 1, 10, 17
1, 46875, Control_c, 0, 10, 37
1, 46890, Control_c, 1, 10, 16
1, 46905, Control_c, 0, 10, 37
1, 46920, Control_c, 1, 10, 16
1, 46935, Control_c, 0, 10, 36
1, 46950, Control_c, 1, 10, 15
1, 46965, Control_c, 0, 10, 36
1, 46980, Control_c, 1, 10, 15
1, 46995, Control_c, 0, 10, 35
1, 47010, Control_c, 1, 10, 15
1, 47016, Note_on_c, 3, 41, 0
1, 47025, Control_c, 0, 10, 35
1, 47040, Control_c, 1, 10, 14
1, 47040, Note_on_c, 3, 29, 100
1, 47040, Note_on_c, 9, 44, 100
1, 47040, Note_on_c, 9, 10, 100
1, 47040, Note_on_c, 9, 51, 100
1, 47050, Note_on_c, 9, 44, 0
1, 47050, Note_on_c, 9, 10, 0
1, 47050, Note_on_c, 9, 51, 0
1, 47055, Control_c, 0, 10, 35
1, 47070, Control_c, 1, 10, 14
1, 47085, Control_c, 0, 10, 34
1, 47100, Control_c, 1, 10, 13
1, 47115, Control_c, 0, 10, 34
1, 47130, Control_c, 1, 10, 13
1, 47145, Control_c, 0, 10, 33
1, 47160, Control_c, 1, 10, 13
1, 47160, Note_on_c, 9, 44, 100
1, 47160, Note_on_c, 9, 10, 100
1, 47170, Note_on_c, 9, 44, 0
1, 47170, Note_on_c, 9, 10, 0
1, 47175, Control_c, 0, 10, 33
1, 47190, Control_c, 1, 10, 12
1, 47205, Control_c, 0, 10, 32
1, 47220, Control_c, 1, 10, 12
1, 47235, Control_c, 0, 10, 32
1, 47250, Control_c, 1, 10, 11
1, 47256, Note_on_c, 3, 29, 0
1, 47265, Control_c, 0, 10, 32
1, 47280, Control_c, 1, 10, 11
1, 47280, Note_on_c, 3, 41, 100
1, 47280, Note_on_c, 9, 44, 100
1, 47280, Note_on_c, 9, 36, 100
1, 47290, Note_on_c, 9, 44, 0
1, 47290, Note_on_c, 9, 36, 0
1, 47295, Control_c, 0, 10, 31
1, 47310, Control_c, 1, 10, 11
1, 47325, Control_c, 0, 10, 31
1, 47340, Control_c, 1, 10, 10
1, 47355, Control_c, 0, 10, 30
1, 47370, Control_c, 1, 10, 10
1, 47376, Note_on_c, 0, 67, 0
1, 47376, Note_on_c, 1, 62, 0
1, 47376, Note_on_c, 2, 62, 0
1, 47376, Note_on_c, 2, 67, 0
1, 47385, Control_c, 0, 10, 30
1, 47400, Control_c, 1, 10, 9
1, 47415, Control_c, 0, 10, 30
1, 47430, Control_c, 1, 10, 9
1, 47445, Control_c, 0, 10, 29
1, 47460, Control_c, 1, 10, 8
1, 47475, Control_c, 0, 10, 29
1, 47490, Control_c, 1, 10, 8
1, 47496, Note_on_c, 3, 41, 0
1, 47505, Control_c, 0, 10, 28
1, 47520, Note_on_c, 0, 65, 100
1, 47520, Note_on_c, 1, 60, 100
1, 47520, Control_c, 1, 10, 8
1, 47520, Note_on_c, 2, 60, 100
1, 47520, Note_on_c, 2, 65, 100
1, 47520, Note_on_c, 3, 29, 100
1, 47520, Note_on_c, 9, 44, 100
1, 47520, Note_on_c, 9, 10, 100
1, 47520, Note_on_c, 9, 51, 100
1, 47530, Note_on_c, 9, 44, 0
1, 47530, Note_on_c, 9, 10, 0
1, 47530, Note_on_c, 9, 51, 0
1, 47535, Control_c, 0, 10, 28
1, 47550, Control_c, 1, 10, 7
1, 47565, Control_c, 0, 10, 27
1, 47580, Control_c, 1, 10, 7
1, 47595, Control_c, 0, 10, 27
1, 47610, Control_c, 1, 10, 6
1, 47625, Control_c, 0, 10, 27
1, 47640, Control_c, 1, 10, 6
1, 47640, Note_on_c, 9, 44, 100
1, 47650, Note_on_c, 9, 44, 0
1, 47655, Control_c, 0, 10, 26
1, 47670, Control_c, 1, 10, 6
1, 47685, Control_c, 0, 10, 26
1, 47700, Control_c, 1, 10, 5
1, 47715, Control_c, 0, 10, 25
1, 47730, Control_c, 1, 10, 5
1, 47736, Note_on_c, 3, 29, 0
1, 47745, Control_c, 0, 10, 25
1, 47760, Control_c, 1, 10, 4
1, 47760, Note_on_c, 3, 41, 100
1, 47760, Note_on_c, 9, 44, 100
1, 47760, Note_on_c, 9, 36, 100
1, 47770, Note_on_c, 9, 44, 0
1, 47770, Note_on_c, 9, 36, 0
1, 47775, Control_c, 0, 10, 25
1, 47790, Control_c, 1, 10, 4
1, 47805, Control_c, 0, 10, 24
1, 47820, Control_c, 1, 10, 4
1, 47835, Control_c, 0, 10, 24
1, 47850, Control_c, 1, 10, 3
1, 47865, Control_c, 0, 10, 23
1, 47880, Control_c, 1, 10, 3
1, 47895, Control_c, 0, 10, 23
1, 47910, Control_c, 1, 10, 2
1, 47925, Control_c, 0, 10, 23
1, 47940, Control_c, 1, 10, 2
1, 47952, Note_on_c, 0, 65, 0
1, 47952, Note_on_c, 1, 60, 0
1, 47952, Note_on_c, 2, 60, 0
1, 47952, Note_on_c, 2, 65, 0
1, 47955, Control_c, 0, 10, 22
1, 47976, Note_on_c, 3, 41, 0
1, 47985, Control_c, 0, 10, 22
1, 48000, Note_on_c, 0, 67, 100
1, 48000, Note_on_c, 1, 62, 100
1, 48000, Note_on_c, 2, 62, 100
1, 48000, Note_on_c, 2, 67, 100
1, 48000, Note_on_c, 3, 36, 100
1, 48000, Note_on_c, 4, 65, 0
1, 48000, Note_on_c, 4, 57, 0
1, 48000, Note_on_c, 4, 62, 100
1, 48000, Note_on_c, 4, 72, 100
1, 48000, Note_on_c, 9, 51, 100
1, 48000, Note_on_c, 9, 44, 100
1, 48000, Note_on_c, 9, 10, 100
1, 48010, Note_on_c, 9, 51, 0
1, 48010, Note_on_c, 9, 44, 0
1, 48010, Note_on_c, 9, 10, 0
1, 48015, Control_c, 0, 10, 75
1, 48015, Control_c, 1, 10, 55
1, 48045, Control_c, 0, 10, 75
1, 48045, Control_c, 1, 10, 55
1, 48075, Control_c, 0, 10, 75
1, 48075, Control_c, 1, 10, 55
1, 48105, Control_c, 0, 10, 75
1, 48120, Note_on_c, 9, 44, 100
1, 48130, Note_on_c, 9, 44, 0
1, 48216, Note_on_c, 3, 36, 0
1, 48240, Note_on_c, 3, 48, 100
1, 48240, Note_on_c, 9, 44, 100
1, 48240, Note_on_c, 9, 36, 100
1, 48250, Note_on_c, 9, 44, 0
1, 48250, Note_on_c, 9, 36, 0
1, 48432, Note_on_c, 2, 62, 0
1, 48432, Note_on_c, 2, 67, 0
1, 48456, Note_on_c, 3, 48, 0
1, 48480, Note_on_c, 2, 62, 100
1, 48480, Note_on_c, 2, 67, 100
1, 48480, Note_on_c, 3, 36, 100
1, 48480, Note_on_c, 9, 44, 100
1, 48480, Note_on_c, 9, 10, 100
1, 48490, Note_on_c, 9, 44, 0
1, 48490, Note_on_c, 9, 10, 0
1, 48600, Note_on_c, 9, 44, 100
1, 48610, Note_on_c, 9, 44, 0
1, 48624, Note_on_c, 2, 62, 0
1, 48624, Note_on_c, 2, 67, 0
1, 48640, Note_on_c, 2, 62, 100
1, 48640, Note_on_c, 2, 67, 100
1, 48696, Note_on_c, 3, 36, 0
1, 48720, Note_on_c, 3, 48, 100
1, 48720, Note_on_c, 9, 44, 100
1, 48720, Note_on_c, 9, 36, 100
1, 48730, Note_on_c, 9, 44, 0
1, 48730, Note_on_c, 9, 36, 0
1, 48784, Note_on_c, 2, 62, 0
1, 48784, Note_on_c, 2, 67, 0
1, 48800, Note_on_c, 2, 62, 100
1, 48800, Note_on_c, 2, 67, 100
1, 48936, Note_on_c, 3, 48, 0
1, 48944, Note_on_c, 2, 62, 0
1, 48944, Note_on_c, 2, 67, 0
1, 48960, Note_on_c, 2, 62, 100
1, 48960, Note_on_c, 2, 67, 100
1, 48960, Note_on_c, 3, 36, 100
1, 48960, Note_on_c, 9, 44, 100
1, 48960, Note_on_c, 9, 10, 100
1, 48970, Note_on_c, 9, 44, 0
1, 48970, Note_on_c, 9, 10, 0
1, 49080, Note_on_c, 9, 44, 100
1, 49080, Note_on_c, 9, 10, 100
1, 49090, Note_on_c, 9, 44, 0
1, 49090, Note_on_c, 9, 10, 0
1, 49176, Note_on_c, 3, 36, 0
1, 49200, Note_on_c, 3, 48, 100
1, 49200, Note_on_c, 9, 44, 100
1, 49200, Note_on_c, 9, 36, 100
1, 49210, Note_on_c, 9, 44, 0
1, 49210, Note_on_c, 9, 36, 0
1, 49392, Note_on_c, 2, 62, 0
1, 49392, Note_on_c, 2, 67, 0
1, 49416, Note_on_c, 3, 48, 0
1, 49440, Note_on_c, 2, 62, 100
1, 49440, Note_on_c, 2, 67, 100
1, 49440, Note_on_c, 3, 36, 100
1, 49440, Note_on_c, 9, 44, 100
1, 49440, Note_on_c, 9, 10, 100
1, 49450, Note_on_c, 9, 44, 0
1, 49450, Note_on_c, 9, 10, 0
1, 49560, Note_on_c, 9, 44, 100
1, 49570, Note_on_c, 9, 44, 0
1, 49584, Note_on_c, 2, 62, 0
1, 49584, Note_on_c, 2, 67, 0
1, 49600, Note_on_c, 2, 62, 100
1, 49600, Note_on_c, 2, 67, 100
1, 49656, Note_on_c, 3, 36, 0
1, 49680, Note_on_c, 3, 48, 100
1, 49680, Note_on_c, 9, 44, 100
1, 49680, Note_on_c, 9, 36, 100
1, 49690, Note_on_c, 9, 44, 0
1, 49690, Note_on_c, 9, 36, 0
1, 49744, Note_on_c, 2, 62, 0
1, 49744, Note_on_c, 2, 67, 0
1, 49760, Note_on_c, 2, 62, 100
1, 49760, Note_on_c, 2, 67, 100
1, 49896, Note_on_c, 3, 48, 0
1, 49904, Note_on_c, 2, 62, 0
1, 49904, Note_on_c, 2, 67, 0
1, 49920, Note_on_c, 2, 62, 100
1, 49920, Note_on_c, 2, 67, 100
1, 49920, Note_on_c, 3, 36, 100
1, 49920, Note_on_c, 9, 10, 100
1, 49920, Note_on_c, 9, 44, 100
1, 49930, Note_on_c, 9, 10, 0
1, 49930, Note_on_c, 9, 44, 0
1, 50040, Note_on_c, 9, 44, 100
1, 50050, Note_on_c, 9, 44, 0
1, 50136, Note_on_c, 3, 36, 0
1, 50160, Note_on_c, 3, 48, 100
1, 50160, Note_on_c, 9, 44, 100
1, 50160, Note_on_c, 9, 36, 100
1, 50170, Note_on_c, 9, 44, 0
1, 50170, Note_on_c, 9, 36, 0
1, 50376, Note_on_c, 3, 48, 0
1, 50400, Note_on_c, 3, 36, 100
1, 50400, Note_on_c, 9, 44, 100
1, 50400, Note_on_c, 9, 10, 100
1, 50410, Note_on_c, 9, 44, 0
1, 50410, Note_on_c, 9, 10, 0
1, 50520, Note_on_c, 9, 44, 100
1, 50530, Note_on_c, 9, 44, 0
1, 50616, Note_on_c, 3, 36, 0
1, 50640, Note_on_c, 3, 48, 100
1, 50640, Note_on_c, 9, 44, 100
1, 50640, Note_on_c, 9, 36, 100
1, 50650, Note_on_c, 9, 44, 0
1, 50650, Note_on_c, 9, 36, 0
1, 50856, Note_on_c, 3, 48, 0
1, 50880, Note_on_c, 3, 36, 100
1, 50880, Note_on_c, 9, 44, 100
1, 50880, Note_on_c, 9, 10, 100
1, 50880, Note_on_c, 9, 51, 100
1, 50890, Note_on_c, 9, 44, 0
1, 50890, Note_on_c, 9, 10, 0
1, 50890, Note_on_c, 9, 51, 0
1, 51000, Note_on_c, 9, 44, 100
1, 51000, Note_on_c, 9, 10, 100
1, 51010, Note_on_c, 9, 44, 0
1, 51010, Note_on_c, 9, 10, 0
1, 51096, Note_on_c, 3, 36, 0
1, 51120, Note_on_c, 3, 48, 100
1, 51120, Note_on_c, 9, 44, 100
1, 51120, Note_on_c, 9, 36, 100
1, 51130, Note_on_c, 9, 44, 0
1, 51130, Note_on_c, 9, 36, 0
1, 51216, Note_on_c, 0, 67, 0
1, 51216, Note_on_c, 1, 62, 0
1, 51216, Note_on_c, 2, 62, 0
1, 51216, Note_on_c, 2, 67, 0
1, 51336, Note_on_c, 3, 48, 0
1, 51360, Note_on_c, 0, 65, 100
1, 51360, Note_on_c, 1, 60, 100
1, 51360, Note_on_c, 2, 60, 100
1, 51360, Note_on_c, 2, 65, 100
1, 51360, Note_on_c, 3, 36, 100
1, 51360, Note_on_c, 9, 44, 100
1, 51360, Note_on_c, 9, 10, 100
1, 51360, Note_on_c, 9, 51, 100
1, 51370, Note_on_c, 9, 44, 0
1, 51370, Note_on_c, 9, 10, 0
1, 51370, Note_on_c, 9, 51, 0
1, 51480, Note_on_c, 9, 44, 100
1, 51490, Note_on_c, 9, 44, 0
1, 51576, Note_on_c, 3, 36, 0
1, 51600, Note_on_c, 3, 48, 100
1, 51600, Note_on_c, 9, 44, 100
1, 51600, Note_on_c, 9, 36, 100
1, 51610, Note_on_c, 9, 44, 0
1, 51610, Note_on_c, 9, 36, 0
1, 51648, Note_on_c, 4, 62, 0
1, 51648, Note_on_c, 4, 72, 0
1, 51792, Note_on_c, 0, 65, 0
1, 51792, Note_on_c, 1, 60, 0
1, 51792, Note_on_c, 2, 60, 0
1, 51792, Note_on_c, 2, 65, 0
1, 51816, Note_on_c, 3, 48, 0
1, 51840, Note_on_c, 0, 67, 100
1, 51840, Note_on_c, 1, 62, 100
1, 51840, Note_on_c, 2, 67, 100
1, 51840, Note_on_c, 2, 62, 100
1, 51840, Note_on_c, 3, 31, 100
1, 51840, Note_on_c, 4, 58, 100
1, 51840, Note_on_c, 4, 67, 100
1, 51840, Note_on_c, 9, 44, 100
1, 51840, Note_on_c, 9, 10, 100
1, 51840, Note_on_c, 9, 51, 100
1, 51850, Note_on_c, 9, 44, 0
1, 51850, Note_on_c, 9, 10, 0
1, 51850, Note_on_c, 9, 51, 0
1, 51960, Note_on_c, 9, 44, 100
1, 51970, Note_on_c, 9, 44, 0
1, 52056, Note_on_c, 3, 31, 0
1, 52080, Note_on_c, 3, 43, 100
1, 52080, Note_on_c, 9, 44, 100
1, 52080, Note_on_c, 9, 36, 100
1, 52090, Note_on_c, 9, 44, 0
1, 52090, Note_on_c, 9, 36, 0
1, 52272, Note_on_c, 2, 67, 0
1, 52272, Note_on_c, 2, 62, 0
1, 52296, Note_on_c, 3, 43, 0
1, 52320, Note_on_c, 2, 67, 100
1, 52320, Note_on_c, 2, 62, 100
1, 52320, Note_on_c, 3, 31, 100
1, 52320, Note_on_c, 9, 44, 100
1, 52320, Note_on_c, 9, 10, 100
1, 52330, Note_on_c, 9, 44, 0
1, 52330, Note_on_c, 9, 10, 0
1, 52440, Note_on_c, 9, 44, 100
1, 52450, Note_on_c, 9, 44, 0
1, 52464, Note_on_c, 2, 67, 0
1, 52464, Note_on_c, 2, 62, 0
1, 52480, Note_on_c, 2, 62, 100
1, 52480, Note_on_c, 2, 67, 100
1, 52536, Note_on_c, 3, 31, 0
1, 52560, Note_on_c, 3, 43, 100
1, 52560, Note_on_c, 9, 44, 100
1, 52560, Note_on_c, 9, 36, 100
1, 52570, Note_on_c, 9, 44, 0
1, 52570, Note_on_c, 9, 36, 0
1, 52624, Note_on_c, 2, 62, 0
1, 52624, Note_on_c, 2, 67, 0
1, 52640, Note_on_c, 2, 62, 100
1, 52640, Note_on_c, 2, 67, 100
1, 52704, Note_on_c, 4, 67, 0
1, 52776, Note_on_c, 3, 43, 0
1, 52784, Note_on_c, 2, 62, 0
1, 52784, Note_on_c, 2, 67, 0
1, 52800, Note_on_c, 2, 62, 100
1, 52800, Note_on_c, 2, 67, 100
1, 52800, Note_on_c, 3, 29, 100
1, 52800, Note_on_c, 4, 65, 100
1, 52800, Note_on_c, 9, 44, 100
1, 52800, Note_on_c, 9, 10, 100
1, 52810, Note_on_c, 9, 44, 0
1, 52810, Note_on_c, 9, 10, 0
1, 52920, Note_on_c, 9, 44, 100
1, 52920, Note_on_c, 9, 10, 100
1, 52930, Note_on_c, 9, 44, 0
1, 52930, Note_on_c, 9, 10, 0
1, 53016, Note_on_c, 3, 29, 0
1, 53040, Note_on_c, 3, 41, 100
1, 53040, Note_on_c, 9, 44, 100
1, 53040, Note_on_c, 9, 36, 100
1, 53050, Note_on_c, 9, 44, 0
1, 53050, Note_on_c, 9, 36, 0
1, 53232, Note_on_c, 2, 62, 0
1, 53232, Note_on_c, 2, 67, 0
1, 53256, Note_on_c, 3, 41, 0
1, 53280, Note_on_c, 2, 62, 100
1, 53280, Note_on_c, 2, 67, 100
1, 53280, Note_on_c, 3, 29, 100
1, 53280, Note_on_c, 9, 44, 100
1, 53280, Note_on_c, 9, 10, 100
1, 53290, Note_on_c, 9, 44, 0
1, 53290, Note_on_c, 9, 10, 0
1, 53400, Note_on_c, 9, 44, 100
1, 53410, Note_on_c, 9, 44, 0
1, 53424, Note_on_c, 2, 62, 0
1, 53424, Note_on_c, 2, 67, 0
1, 53440, Note_on_c, 2, 62, 100
1, 53440, Note_on_c, 2, 67, 100
1, 53496, Note_on_c, 3, 29, 0
1, 53520, Note_on_c, 3, 41, 100
1, 53520, Note_on_c, 9, 44, 100
1, 53520, Note_on_c, 9, 36, 100
1, 53530, Note_on_c, 9, 44, 0
1, 53530, Note_on_c, 9, 36, 0
1, 53584, Note_on_c, 2, 62, 0
1, 53584, Note_on_c, 2, 67, 0
1, 53600, Note_on_c, 2, 62, 100
1, 53600, Note_on_c, 2, 67, 100
1, 53664, Note_on_c, 4, 65, 0
1, 53736, Note_on_c, 3, 41, 0
1, 53744, Note_on_c, 2, 62, 0
1, 53744, Note_on_c, 2, 67, 0
1, 53760, Note_on_c, 2, 62, 100
1, 53760, Note_on_c, 2, 67, 100
1, 53760, Note_on_c, 3, 27, 100
1, 53760, Note_on_c, 4, 63, 100
1, 53760, Note_on_c, 9, 10, 100
1, 53760, Note_on_c, 9, 44, 100
1, 53770, Note_on_c, 9, 10, 0
1, 53770, Note_on_c, 9, 44, 0
1, 53880, Note_on_c, 9, 44, 100
1, 53890, Note_on_c, 9, 44, 0
1, 53976, Note_on_c, 3, 27, 0
1, 54000, Note_on_c, 3, 39, 100
1, 54000, Note_on_c, 9, 44, 100
1, 54000, Note_on_c, 9, 36, 100
1, 54010, Note_on_c, 9, 44, 0
1, 54010, Note_on_c, 9, 36, 0
1, 54216, Note_on_c, 3, 39, 0
1, 54240, Note_on_c, 3, 27, 100
1, 54240, Note_on_c, 9, 44, 100
1, 54240, Note_on_c, 9, 10, 100
1, 54250, Note_on_c, 9, 44, 0
1, 54250, Note_on_c, 9, 10, 0
1, 54360, Note_on_c, 9, 44, 100
1, 54370, Note_on_c, 9, 44, 0
1, 54456, Note_on_c, 3, 27, 0
1, 54480, Note_on_c, 3, 39, 100
1, 54480, Note_on_c, 9, 44, 100
1, 54480, Note_on_c, 9, 36, 100
1, 54490, Note_on_c, 9, 44, 0
1, 54490, Note_on_c, 9, 36, 0
1, 54624, Note_on_c, 4, 63, 0
1, 54696, Note_on_c, 3, 39, 0
1, 54720, Note_on_c, 3, 29, 100
1, 54720, Note_on_c, 4, 65, 100
1, 54720, Note_on_c, 9, 44, 100
1, 54720, Note_on_c, 9, 10, 100
1, 54720, Note_on_c, 9, 51, 100
1, 54730, Note_on_c, 9, 44, 0
1, 54730, Note_on_c, 9, 10, 0
1, 54730, Note_on_c, 9, 51, 0
1, 54840, Note_on_c, 9, 44, 100
1, 54840, Note_on_c, 9, 10, 100
1, 54850, Note_on_c, 9, 44, 0
1, 54850, Note_on_c, 9, 10, 0
1, 54936, Note_on_c, 3, 29, 0
1, 54960, Note_on_c, 3, 41, 100
1, 54960, Note_on_c, 9, 44, 100
1, 54960, Note_on_c, 9, 36, 100
1, 54970, Note_on_c, 9, 44, 0
1, 54970, Note_on_c, 9, 36, 0
1, 55056, Note_on_c, 0, 67, 0
1, 55056, Note_on_c, 1, 62, 0
1, 55056, Note_on_c, 2, 62, 0
1, 55056, Note_on_c, 2, 67, 0
1, 55176, Note_on_c, 3, 41, 0
1, 55200, Note_on_c, 0, 65, 100
1, 55200, Note_on_c, 1, 60, 100
1, 55200, Note_on_c, 2, 60, 100
1, 55200, Note_on_c, 2, 65, 100
1, 55200, Note_on_c, 3, 29, 100
1, 55200, Note_on_c, 9, 44, 100
1, 55200, Note_on_c, 9, 10, 100
1, 55200, Note_on_c, 9, 51, 100
1, 55210, Note_on_c, 9, 44, 0
1, 55210, Note_on_c, 9, 10, 0
1, 55210, Note_on_c, 9, 51, 0
1, 55320, Note_on_c, 9, 44, 100
1, 55330, Note_on_c, 9, 44, 0
1, 55416, Note_on_c, 3, 29, 0
1, 55440, Note_on_c, 3, 41, 100
1, 55440, Note_on_c, 9, 44, 100
1, 55440, Note_on_c, 9, 36, 100
1, 55450, Note_on_c, 9, 44, 0
1, 55450, Note_on_c, 9, 36, 0
1, 55488, Note_on_c, 4, 58, 0
1, 55584, Note_on_c, 4, 65, 0
1, 55632, Note_on_c, 0, 65, 0
1, 55632, Note_on_c, 1, 60, 0
1, 55632, Note_on_c, 2, 60, 0
1, 55632, Note_on_c, 2, 65, 0
1, 55656, Note_on_c, 3, 41, 0
1, 55680, Note_on_c, 0, 67, 100
1, 55680, Note_on_c, 1, 62, 100
1, 55680, Note_on_c, 2, 67, 100
1, 55680, Note_on_c, 2, 62, 100
1, 55680, Note_on_c, 3, 31, 100
1, 55680, Note_on_c, 4, 58, 100
1, 55680, Note_on_c, 4, 67, 100
1, 55680, Note_on_c, 9, 44, 100
1, 55680, Note_on_c, 9, 10, 100
1, 55680, Note_on_c, 9, 51, 100
1, 55690, Note_on_c, 9, 44, 0
1, 55690, Note_on_c, 9, 10, 0
1, 55690, Note_on_c, 9, 51, 0
1, 55800, Note_on_c, 9, 44, 100
1, 55810, Note_on_c, 9, 44, 0
1, 55896, Note_on_c, 3, 31, 0
1, 55920, Note_on_c, 3, 43, 100
1, 55920, Note_on_c, 9, 44, 100
1, 55920, Note_on_c, 9, 36, 100
1, 55930, Note_on_c, 9, 44, 0
1, 55930, Note_on_c, 9, 36, 0
1, 56112, Note_on_c, 2, 67, 0
1, 56112, Note_on_c, 2, 62, 0
1, 56136, Note_on_c, 3, 43, 0
1, 56160, Note_on_c, 2, 67, 100
1, 56160, Note_on_c, 2, 62, 100
1, 56160, Note_on_c, 3, 31, 100
1, 56160, Note_on_c, 9, 44, 100
1, 56160, Note_on_c, 9, 10, 100
1, 56170, Note_on_c, 9, 44, 0
1, 56170, Note_on_c, 9, 10, 0
1, 56280, Note_on_c, 9, 44, 100
1, 56290, Note_on_c, 9, 44, 0
1, 56304, Note_on_c, 2, 67, 0
1, 56304, Note_on_c, 2, 62, 0
1, 56320, Note_on_c, 2, 62, 100
1, 56320, Note_on_c, 2, 67, 100
1, 56376, Note_on_c, 3, 31, 0
1, 56400, Note_on_c, 3, 43, 100
1, 56400, Note_on_c, 9, 44, 100
1, 56400, Note_on_c, 9, 36, 100
1, 56410, Note_on_c, 9, 44, 0
1, 56410, Note_on_c, 9, 36, 0
1, 56464, Note_on_c, 2, 62, 0
1, 56464, Note_on_c, 2, 67, 0
1, 56480, Note_on_c, 2, 62, 100
1, 56480, Note_on_c, 2, 67, 100
1, 56544, Note_on_c, 4, 67, 0
1, 56616, Note_on_c, 3, 43, 0
1, 56624, Note_on_c, 2, 62, 0
1, 56624, Note_on_c, 2, 67, 0
1, 56640, Note_on_c, 2, 62, 100
1, 56640, Note_on_c, 2, 67, 100
1, 56640, Note_on_c, 3, 29, 100
1, 56640, Note_on_c, 4, 65, 100
1, 56640, Note_on_c, 9, 44, 100
1, 56640, Note_on_c, 9, 10, 100
1, 56650, Note_on_c, 9, 44, 0
1, 56650, Note_on_c, 9, 10, 0
1, 56760, Note_on_c, 9, 44, 100
1, 56760, Note_on_c, 9, 10, 100
1, 56770, Note_on_c, 9, 44, 0
1, 56770, Note_on_c, 9, 10, 0
1, 56856, Note_on_c, 3, 29, 0
1, 56880, Note_on_c, 3, 41, 100
1, 56880, Note_on_c, 9, 44, 100
1, 56880, Note_on_c, 9, 36, 100
1, 56890, Note_on_c, 9, 44, 0
1, 56890, Note_on_c, 9, 36, 0
1, 57072, Note_on_c, 2, 62, 0
1, 57072, Note_on_c, 2, 67, 0
1, 57096, Note_on_c, 3, 41, 0
1, 57120, Note_on_c, 2, 62, 100
1, 57120, Note_on_c, 2, 67, 100
1, 57120, Note_on_c, 3, 29, 100
1, 57120, Note_on_c, 9, 44, 100
1, 57120, Note_on_c, 9, 10, 100
1, 57130, Note_on_c, 9, 44, 0
1, 57130, Note_on_c, 9, 10, 0
1, 57240, Note_on_c, 9, 44, 100
1, 57250, Note_on_c, 9, 44, 0
1, 57264, Note_on_c, 2, 62, 0
1, 57264, Note_on_c, 2, 67, 0
1, 57280, Note_on_c, 2, 62, 100
1, 57280, Note_on_c, 2, 67, 100
1, 57336, Note_on_c, 3, 29, 0
1, 57360, Note_on_c, 3, 41, 100
1, 57360, Note_on_c, 9, 44, 100
1, 57360, Note_on_c, 9, 36, 100
1, 57370, Note_on_c, 9, 44, 0
1, 57370, Note_on_c, 9, 36, 0
1, 57424, Note_on_c, 2, 62, 0
1, 57424, Note_on_c, 2, 67, 0
1, 57440, Note_on_c, 2, 62, 100
1, 57440, Note_on_c, 2, 67, 100
1, 57504, Note_on_c, 4, 65, 0
1, 57576, Note_on_c, 3, 41, 0
1, 57584, Note_on_c, 2, 62, 0
1, 57584, Note_on_c, 2, 67, 0
1, 57600, Note_on_c, 2, 62, 100
1, 57600, Note_on_c, 2, 67, 100
1, 57600, Note_on_c, 3, 27, 100
1, 57600, Note_on_c, 4, 63, 100
1, 57600, Note_on_c, 9, 10, 100
1, 57600, Note_on_c, 9, 44, 100
1, 57610, Note_on_c, 9, 10, 0
1, 57610, Note_on_c, 9, 44, 0
1, 57720, Note_on_c, 9, 44, 100
1, 57730, Note_on_c, 9, 44, 0
1, 57816, Note_on_c, 3, 27, 0
1, 57840, Note_on_c, 3, 39, 100
1, 57840, Note_on_c, 9, 44, 100
1, 57840, Note_on_c, 9, 36, 100
1, 57850, Note_on_c, 9, 44, 0
1, 57850, Note_on_c, 9, 36, 0
1, 58056, Note_on_c, 3, 39, 0
1, 58080, Note_on_c, 3, 27, 100
1, 58080, Note_on_c, 9, 44, 100
1, 58080, Note_on_c, 9, 10, 100
1, 58090, Note_on_c, 9, 44, 0
1, 58090, Note_on_c, 9, 10, 0
1, 58200, Note_on_c, 9, 44, 100
1, 58210, Note_on_c, 9, 44, 0
1, 58296, Note_on_c, 3, 27, 0
1, 58320, Note_on_c, 3, 39, 100
1, 58320, Note_on_c, 9, 44, 100
1, 58320, Note_on_c, 9, 36, 100
1, 58330, Note_on_c, 9, 44, 0
1, 58330, Note_on_c, 9, 36, 0
1, 58464, Note_on_c, 4, 63, 0
1, 58536, Note_on_c, 3, 39, 0
1, 58560, Note_on_c, 3, 29, 100
1, 58560, Note_on_c, 4, 65, 100
1, 58560, Note_on_c, 9, 44, 100
1, 58560, Note_on_c, 9, 10, 100
1, 58560, Note_on_c, 9, 51, 100
1, 58570, Note_on_c, 9, 44, 0
1, 58570, Note_on_c, 9, 10, 0
1, 58570, Note_on_c, 9, 51, 0
1, 58680, Note_on_c, 9, 44, 100
1, 58680, Note_on_c, 9, 10, 100
1, 58690, Note_on_c, 9, 44, 0
1, 58690, Note_on_c, 9, 10, 0
1, 58776, Note_on_c, 3, 29, 0
1, 58800, Note_on_c, 3, 41, 100
1, 58800, Note_on_c, 9, 44, 100
1, 58800, Note_on_c, 9, 36, 100
1, 58810, Note_on_c, 9, 44, 0
1, 58810, Note_on_c, 9, 36, 0
1, 58896, Note_on_c, 0, 67, 0
1, 58896, Note_on_c, 1, 62, 0
1, 58896, Note_on_c, 2, 62, 0
1, 58896, Note_on_c, 2, 67, 0
1, 59016, Note_on_c, 3, 41, 0
1, 59040, Note_on_c, 0, 65, 100
1, 59040, Note_on_c, 1, 60, 100
1, 59040, Note_on_c, 2, 60, 100
1, 59040, Note_on_c, 2, 65, 100
1, 59040, Note_on_c, 3, 29, 100
1, 59040, Note_on_c, 9, 44, 100
1, 59040, Note_on_c, 9, 10, 100
1, 59040, Note_on_c, 9, 51, 100
1, 59050, Note_on_c, 9, 44, 0
1, 59050, Note_on_c, 9, 10, 0
1, 59050, Note_on_c, 9, 51, 0
1, 59160, Note_on_c, 9, 44, 100
1, 59170, Note_on_c, 9, 44, 0
1, 59256, Note_on_c, 3, 29, 0
1, 59280, Note_on_c, 3, 41, 100
1, 59280, Note_on_c, 9, 44, 100
1, 59280, Note_on_c, 9, 36, 100
1, 59290, Note_on_c, 9, 44, 0
1, 59290, Note_on_c, 9, 36, 0
1, 59328, Note_on_c, 4, 58, 0
1, 59424, Note_on_c, 4, 65, 0
1, 59472, Note_on_c, 0, 65, 0
1, 59472, Note_on_c, 1, 60, 0
1, 59472, Note_on_c, 2, 60, 0
1, 59472, Note_on_c, 2, 65, 0
1, 59496, Note_on_c, 3, 41, 0
1, 59520, Note_on_c, 0, 67, 100
1, 59520, Note_on_c, 1, 62, 100
1, 59520, Note_on_c, 1, 67, 100
1, 59520, Note_on_c, 2, 62, 100
1, 59520, Note_on_c, 2, 67, 100
1, 59520, Note_on_c, 3, 31, 100
1, 59520, Note_on_c, 9, 10, 100
1, 59520, Note_on_c, 9, 51, 100
1, 59520, Note_on_c, 9, 44, 100
1, 59530, Note_on_c, 9, 10, 0
1, 59530, Note_on_c, 9, 51, 0
1, 59530, Note_on_c, 9, 44, 0
1, 59640, Note_on_c, 9, 44, 100
1, 59650, Note_on_c, 9, 44, 0
1, 59760, Note_on_c, 9, 44, 100
1, 59760, Note_on_c, 9, 36, 100
1, 59770, Note_on_c, 9, 44, 0
1, 59770, Note_on_c, 9, 36, 0
1, 59952, Note_on_c, 0, 67, 0
1, 59952, Note_on_c, 1, 62, 0
1, 59952, Note_on_c, 1, 67, 0
1, 59952, Note_on_c, 3, 31, 0
1, 60000, Note_on_c, 0, 67, 100
1, 60000, Note_on_c, 1, 62, 100
1, 60000, Note_on_c, 1, 67, 100
1, 60000, Note_on_c, 3, 31, 100
1, 60000, Note_on_c, 9, 10, 100
1, 60000, Note_on_c, 9, 51, 100
1, 60000, Note_on_c, 9, 44, 100
1, 60010, Note_on_c, 9, 10, 0
1, 60010, Note_on_c, 9, 51, 0
1, 60010, Note_on_c, 9, 44, 0
1, 60120, Note_on_c, 9, 44, 100
1, 60130, Note_on_c, 9, 44, 0
1, 60144, Note_on_c, 0, 67, 0
1, 60144, Note_on_c, 1, 62, 0
1, 60144, Note_on_c, 1, 67, 0
1, 60144, Note_on_c, 3, 31, 0
1, 60160, Note_on_c, 0, 67, 100
1, 60160, Note_on_c, 1, 62, 100
1, 60160, Note_on_c, 1, 67, 100
1, 60160, Note_on_c, 3, 31, 100
1, 60160, Note_on_c, 9, 51, 100
1, 60170, Note_on_c, 9, 51, 0
1, 60240, Note_on_c, 9, 44, 100
1, 60240, Note_on_c, 9, 36, 100
1, 60250, Note_on_c, 9, 44, 0
1, 60250, Note_on_c, 9, 36, 0
1, 60304, Note_on_c, 0, 67, 0
1, 60304, Note_on_c, 1, 62, 0
1, 60304, Note_on_c, 1, 67, 0
1, 60304, Note_on_c, 3, 31, 0
1, 60320, Note_on_c, 0, 67, 100
1, 60320, Note_on_c, 1, 62, 100
1, 60320, Note_on_c, 1, 67, 100
1, 60320, Note_on_c, 3, 31, 100
1, 60320, Note_on_c, 9, 51, 100
1, 60330, Note_on_c, 9, 51, 0
1, 60464, Note_on_c, 0, 67, 0
1, 60464, Note_on_c, 1, 62, 0
1, 60464, Note_on_c, 1, 67, 0
1, 60464, Note_on_c, 3, 31, 0
1, 60480, Note_on_c, 0, 67, 100
1, 60480, Note_on_c, 1, 62, 100
1, 60480, Note_on_c, 1, 67, 100
1, 60480, Note_on_c, 3, 31, 100
1, 60480, Note_on_c, 9, 10, 100
1, 60480, Note_on_c, 9, 51, 100
1, 60480, Note_on_c, 9, 44, 100
1, 60490, Note_on_c, 9, 10, 0
1, 60490, Note_on_c, 9, 51, 0
1, 60490, Note_on_c, 9, 44, 0
1, 60600, Note_on_c, 9, 44, 100
1, 60600, Note_on_c, 9, 10, 100
1, 60610, Note_on_c, 9, 44, 0
1, 60610, Note_on_c, 9, 10, 0
1, 60720, Note_on_c, 9, 44, 100
1, 60720, Note_on_c, 9, 36, 100
1, 60730, Note_on_c, 9, 44, 0
1, 60730, Note_on_c, 9, 36, 0
1, 60912, Note_on_c, 0, 67, 0
1, 60912, Note_on_c, 1, 62, 0
1, 60912, Note_on_c, 1, 67, 0
1, 60912, Note_on_c, 3, 31, 0
1, 60960, Note_on_c, 0, 67, 100
1, 60960, Note_on_c, 1, 62, 100
1, 60960, Note_on_c, 1, 67, 100
1, 60960, Note_on_c, 3, 31, 100
1, 60960, Note_on_c, 9, 10, 100
1, 60960, Note_on_c, 9, 51, 100
1, 60960, Note_on_c, 9, 44, 100
1, 60970, Note_on_c, 9, 10, 0
1, 60970, Note_on_c, 9, 51, 0
1, 60970, Note_on_c, 9, 44, 0
1, 61080, Note_on_c, 9, 44, 100
1, 61090, Note_on_c, 9, 44, 0
1, 61120, Note_on_c, 9, 51, 100
1, 61130, Note_on_c, 9, 51, 0
1, 61200, Note_on_c, 9, 44, 100
1, 61200, Note_on_c, 9, 36, 100
1, 61210, Note_on_c, 9, 44, 0
1, 61210, Note_on_c, 9, 36, 0
1, 61248, Note_on_c, 2, 62, 0
1, 61248, Note_on_c, 2, 67, 0
1, 61280, Note_on_c, 9, 51, 100
1, 61290, Note_on_c, 9, 51, 0
1, 61392, Note_on_c, 0, 67, 0
1, 61392, Note_on_c, 1, 62, 0
1, 61392, Note_on_c, 1, 67, 0
1, 61392, Note_on_c, 3, 31, 0
1, 61440, Note_on_c, 0, 67, 100
1, 61440, Note_on_c, 1, 62, 100
1, 61440, Note_on_c, 1, 67, 100
1, 61440, Note_on_c, 3, 31, 100
1, 61440, Note_on_c, 9, 44, 100
1, 61440, Note_on_c, 9, 51, 100
1, 61440, Note_on_c, 9, 10, 100
1, 61450, Note_on_c, 9, 44, 0
1, 61450, Note_on_c, 9, 51, 0
1, 61450, Note_on_c, 9, 10, 0
1, 61560, Note_on_c, 9, 44, 100
1, 61570, Note_on_c, 9, 44, 0
1, 61680, Note_on_c, 9, 44, 100
1, 61680, Note_on_c, 9, 36, 100
1, 61690, Note_on_c, 9, 44, 0
1, 61690, Note_on_c, 9, 36, 0
1, 61872, Note_on_c, 0, 67, 0
1, 61872, Note_on_c, 1, 62, 0
1, 61872, Note_on_c, 1, 67, 0
1, 61872, Note_on_c, 3, 31, 0
1, 61920, Note_on_c, 0, 67, 100
1, 61920, Note_on_c, 1, 62, 100
1, 61920, Note_on_c, 1, 67, 100
1, 61920, Note_on_c, 3, 31, 100
1, 61920, Note_on_c, 9, 10, 100
1, 61920, Note_on_c, 9, 51, 100
1, 61920, Note_on_c, 9, 44, 100
1, 61930, Note_on_c, 9, 10, 0
1, 61930, Note_on_c, 9, 51, 0
1, 61930, Note_on_c, 9, 44, 0
1, 62040, Note_on_c, 9, 44, 100
1, 62050, Note_on_c, 9, 44, 0
1, 62064, Note_on_c, 0, 67, 0
1, 62064, Note_on_c, 1, 62, 0
1, 62064, Note_on_c, 1, 67, 0
1, 62064, Note_on_c, 3, 31, 0
1, 62080, Note_on_c, 0, 67, 100
1, 62080, Note_on_c, 1, 62, 100
1, 62080, Note_on_c, 1, 67, 100
1, 62080, Note_on_c, 3, 31, 100
1, 62080, Note_on_c, 9, 51, 100
1, 62090, Note_on_c, 9, 51, 0
1, 62160, Note_on_c, 9, 44, 100
1, 62160, Note_on_c, 9, 36, 100
1, 62170, Note_on_c, 9, 44, 0
1, 62170, Note_on_c, 9, 36, 0
1, 62224, Note_on_c, 0, 67, 0
1, 62224, Note_on_c, 1, 62, 0
1, 62224, Note_on_c, 1, 67, 0
1, 62224, Note_on_c, 3, 31, 0
1, 62240, Note_on_c, 0, 67, 100
1, 62240, Note_on_c, 1, 62, 100
1, 62240, Note_on_c, 1, 67, 100
1, 62240, Note_on_c, 3, 31, 100
1, 62240, Note_on_c, 9, 51, 100
1, 62250, Note_on_c, 9, 51, 0
1, 62384, Note_on_c, 0, 67, 0
1, 62384, Note_on_c, 1, 62, 0
1, 62384, Note_on_c, 1, 67, 0
1, 62384, Note_on_c, 3, 31, 0
1, 62400, Note_on_c, 0, 67, 100
1, 62400, Note_on_c, 1, 62, 100
1, 62400, Note_on_c, 1, 67, 100
1, 62400, Note_on_c, 3, 31, 100
1, 62400, Note_on_c, 9, 44, 100
1, 62400, Note_on_c, 9, 10, 100
1, 62400, Note_on_c, 9, 51, 100
1, 62410, Note_on_c, 9, 44, 0
1, 62410, Note_on_c, 9, 10, 0
1, 62410, Note_on_c, 9, 51, 0
1, 62520, Note_on_c, 9, 44, 100
1, 62520, Note_on_c, 9, 10, 100
1, 62530, Note_on_c, 9, 44, 0
1, 62530, Note_on_c, 9, 10, 0
1, 62640, Note_on_c, 9, 44, 100
1, 62640, Note_on_c, 9, 36, 100
1, 62650, Note_on_c, 9, 44, 0
1, 62650, Note_on_c, 9, 36, 0
1, 62832, Note_on_c, 0, 67, 0
1, 62832, Note_on_c, 1, 62, 0
1, 62832, Note_on_c, 1, 67, 0
1, 62832, Note_on_c, 3, 31, 0
1, 62880, Note_on_c, 3, 31, 100
1, 62880, Note_on_c, 9, 44, 100
1, 62880, Note_on_c, 9, 10, 100
1, 62880, Note_on_c, 9, 51, 100
1, 62890, Note_on_c, 9, 44, 0
1, 62890, Note_on_c, 9, 10, 0
1, 62890, Note_on_c, 9, 51, 0
1, 63000, Note_on_c, 9, 44, 100
1, 63010, Note_on_c, 9, 44, 0
1, 63120, Note_on_c, 9, 44, 100
1, 63120, Note_on_c, 9, 36, 100
1, 63130, Note_on_c, 9, 44, 0
1, 63130, Note_on_c, 9, 36, 0
1, 63312, Note_on_c, 3, 31, 0
1, 63360, Note_on_c, 0, 67, 100
1, 63360, Note_on_c, 3, 31, 100
1, 63360, Note_on_c, 4, 58, 100
1, 63360, Note_on_c, 4, 67, 100
1, 63360, Note_on_c, 9, 10, 100
1, 63360, Note_on_c, 9, 51, 100
1, 63360, Note_on_c, 9, 44, 100
1, 63370, Note_on_c, 9, 10, 0
1, 63370, Note_on_c, 9, 51, 0
1, 63370, Note_on_c, 9, 44, 0
1, 63480, Note_on_c, 9, 44, 100
1, 63490, Note_on_c, 9, 44, 0
1, 63576, Note_on_c, 0, 67, 0
1, 63576, Note_on_c, 3, 31, 0
1, 63600, Note_on_c, 0, 74, 100
1, 63600, Note_on_c, 3, 43, 100
1, 63600, Note_on_c, 9, 44, 100
1, 63600, Note_on_c, 9, 36, 100
1, 63610, Note_on_c, 9, 44, 0
1, 63610, Note_on_c, 9, 36, 0
1, 63816, Note_on_c, 0, 74, 0
1, 63816, Note_on_c, 3, 43, 0
1, 63840, Note_on_c, 0, 72, 100
1, 63840, Note_on_c, 3, 31, 100
1, 63840, Note_on_c, 9, 44, 100
1, 63840, Note_on_c, 9, 10, 100
1, 63850, Note_on_c, 9, 44, 0
1, 63850, Note_on_c, 9, 10, 0
1, 63960, Note_on_c, 9, 44, 100
1, 63970, Note_on_c, 9, 44, 0
1, 64056, Note_on_c, 0, 72, 0
1, 64056, Note_on_c, 3, 31, 0
1, 64080, Note_on_c, 0, 70, 100
1, 64080, Note_on_c, 3, 43, 100
1, 64080, Note_on_c, 9, 44, 100
1, 64080, Note_on_c, 9, 36, 100
1, 64090, Note_on_c, 9, 44, 0
1, 64090, Note_on_c, 9, 36, 0
1, 64296, Note_on_c, 0, 70, 0
1, 64296, Note_on_c, 3, 43, 0
1, 64320, Note_on_c, 0, 77, 100
1, 64320, Note_on_c, 3, 31, 100
1, 64320, Note_on_c, 9, 44, 100
1, 64320, Note_on_c, 9, 10, 100
1, 64330, Note_on_c, 9, 44, 0
1, 64330, Note_on_c, 9, 10, 0
1, 64440, Note_on_c, 9, 44, 100
1, 64440, Note_on_c, 9, 10, 100
1, 64450, Note_on_c, 9, 44, 0
1, 64450, Note_on_c, 9, 10, 0
1, 64536, Note_on_c, 0, 77, 0
1, 64536, Note_on_c, 3, 31, 0
1, 64560, Note_on_c, 0, 76, 100
1, 64560, Note_on_c, 3, 43, 100
1, 64560, Note_on_c, 9, 44, 100
1, 64560, Note_on_c, 9, 36, 100
1, 64570, Note_on_c, 9, 44, 0
1, 64570, Note_on_c, 9, 36, 0
1, 64668, Note_on_c, 0, 76, 0
1, 64680, Note_on_c, 0, 74, 100
1, 64776, Note_on_c, 3, 43, 0
1, 64788, Note_on_c, 0, 74, 0
1, 64800, Note_on_c, 0, 72, 100
1, 64800, Note_on_c, 3, 31, 100
1, 64800, Note_on_c, 9, 44, 100
1, 64800, Note_on_c, 9, 10, 100
1, 64810, Note_on_c, 9, 44, 0
1, 64810, Note_on_c, 9, 10, 0
1, 64920, Note_on_c, 9, 44, 100
1, 64930, Note_on_c, 9, 44, 0
1, 65016, Note_on_c, 0, 72, 0
1, 65016, Note_on_c, 3, 31, 0
1, 65040, Note_on_c, 0, 74, 100
1, 65040, Note_on_c, 3, 43, 100
1, 65040, Note_on_c, 9, 44, 100
1, 65040, Note_on_c, 9, 36, 100
1, 65050, Note_on_c, 9, 44, 0
1, 65050, Note_on_c, 9, 36, 0
1, 65256, Note_on_c, 0, 74, 0
1, 65256, Note_on_c, 3, 43, 0
1, 65280, Note_on_c, 0, 70, 100
1, 65280, Note_on_c, 3, 31, 100
1, 65280, Note_on_c, 9, 10, 100
1, 65280, Note_on_c, 9, 44, 100
1, 65290, Note_on_c, 9, 10, 0
1, 65290, Note_on_c, 9, 44, 0
1, 65400, Note_on_c, 9, 44, 100
1, 65410, Note_on_c, 9, 44, 0
1, 65496, Note_on_c, 0, 70, 0
1, 65496, Note_on_c, 3, 31, 0
1, 65520, Note_on_c, 0, 69, 100
1, 65520, Note_on_c, 3, 43, 100
1, 65520, Note_on_c, 9, 44, 100
1, 65520, Note_on_c, 9, 36, 100
1, 65530, Note_on_c, 9, 44, 0
1, 65530, Note_on_c, 9, 36, 0
1, 65736, Note_on_c, 0, 69, 0
1, 65736, Note_on_c, 3, 43, 0
1, 65760, Note_on_c, 0, 70, 100
1, 65760, Note_on_c, 3, 31, 100
1, 65760, Note_on_c, 9, 44, 100
1, 65760, Note_on_c, 9, 10, 100
1, 65770, Note_on_c, 9, 44, 0
1, 65770, Note_on_c, 9, 10, 0
1, 65880, Note_on_c, 9, 44, 100
1, 65890, Note_on_c, 9, 44, 0
1, 65976, Note_on_c, 0, 70, 0
1, 65976, Note_on_c, 3, 31, 0
1, 66000, Note_on_c, 0, 67, 100
1, 66000, Note_on_c, 3, 43, 100
1, 66000, Note_on_c, 9, 44, 100
1, 66000, Note_on_c, 9, 36, 100
1, 66010, Note_on_c, 9, 44, 0
1, 66010, Note_on_c, 9, 36, 0
1, 66216, Note_on_c, 0, 67, 0
1, 66216, Note_on_c, 3, 43, 0
1, 66240, Note_on_c, 0, 65, 100
1, 66240, Note_on_c, 3, 31, 100
1, 66240, Note_on_c, 9, 10, 100
1, 66240, Note_on_c, 9, 51, 100
1, 66240, Note_on_c, 9, 44, 100
1, 66250, Note_on_c, 9, 10, 0
1, 66250, Note_on_c, 9, 51, 0
1, 66250, Note_on_c, 9, 44, 0
1, 66360, Note_on_c, 9, 44, 100
1, 66360, Note_on_c, 9, 10, 100
1, 66370, Note_on_c, 9, 44, 0
1, 66370, Note_on_c, 9, 10, 0
1, 66456, Note_on_c, 0, 65, 0
1, 66456, Note_on_c, 3, 31, 0
1, 66480, Note_on_c, 0, 67, 100
1, 66480, Note_on_c, 3, 43, 100
1, 66480, Note_on_c, 9, 44, 100
1, 66480, Note_on_c, 9, 36, 100
1, 66490, Note_on_c, 9, 44, 0
1, 66490, Note_on_c, 9, 36, 0
1, 66624, Note_on_c, 0, 67, 0
1, 66696, Note_on_c, 3, 43, 0
1, 66720, Note_on_c, 0, 67, 100
1, 66720, Note_on_c, 3, 31, 100
1, 66720, Note_on_c, 9, 10, 100
1, 66720, Note_on_c, 9, 51, 100
1, 66720, Note_on_c, 9, 44, 100
1, 66730, Note_on_c, 9, 10, 0
1, 66730, Note_on_c, 9, 51, 0
1, 66730, Note_on_c, 9, 44, 0
1, 66840, Note_on_c, 9, 44, 100
1, 66850, Note_on_c, 9, 44, 0
1, 66936, Note_on_c, 0, 67, 0
1, 66936, Note_on_c, 3, 31, 0
1, 66960, Note_on_c, 3, 43, 100
1, 66960, Note_on_c, 9, 44, 100
1, 66960, Note_on_c, 9, 36, 100
1, 66970, Note_on_c, 9, 44, 0
1, 66970, Note_on_c, 9, 36, 0
1, 67176, Note_on_c, 3, 43, 0
1, 67200, Note_on_c, 1, 67, 100
1, 67200, Note_on_c, 2, 55, 100
1, 67200, Note_on_c, 3, 31, 100
1, 67200, Note_on_c, 4, 58, 0
1, 67200, Note_on_c, 4, 67, 0
1, 67200, Note_on_c, 4, 58, 100
1, 67200, Note_on_c, 4, 67, 100
1, 67200, Note_on_c, 9, 51, 100
1, 67200, Note_on_c, 9, 44, 100
1, 67200, Note_on_c, 9, 10, 100
1, 67210, Note_on_c, 9, 51, 0
1, 67210, Note_on_c, 9, 44, 0
1, 67210, Note_on_c, 9, 10, 0
1, 67320, Note_on_c, 9, 44, 100
1, 67330, Note_on_c, 9, 44, 0
1, 67416, Note_on_c, 1, 67, 0
1, 67416, Note_on_c, 2, 55, 0
1, 67416, Note_on_c, 3, 31, 0
1, 67440, Note_on_c, 1, 74, 100
1, 67440, Note_on_c, 2, 62, 100
1, 67440, Note_on_c, 3, 43, 100
1, 67440, Note_on_c, 9, 36, 100
1, 67440, Note_on_c, 9, 44, 100
1, 67450, Note_on_c, 9, 36, 0
1, 67450, Note_on_c, 9, 44, 0
1, 67656, Note_on_c, 1, 74, 0
1, 67656, Note_on_c, 2, 62, 0
1, 67656, Note_on_c, 3, 43, 0
1, 67680, Note_on_c, 1, 72, 100
1, 67680, Note_on_c, 2, 60, 100
1, 67680, Note_on_c, 3, 31, 100
1, 67680, Note_on_c, 9, 10, 100
1, 67680, Note_on_c, 9, 44, 100
1, 67690, Note_on_c, 9, 10, 0
1, 67690, Note_on_c, 9, 44, 0
1, 67800, Note_on_c, 9, 44, 100
1, 67810, Note_on_c, 9, 44, 0
1, 67896, Note_on_c, 1, 72, 0
1, 67896, Note_on_c, 2, 60, 0
1, 67896, Note_on_c, 3, 31, 0
1, 67920, Note_on_c, 1, 70, 100
1, 67920, Note_on_c, 2, 58, 100
1, 67920, Note_on_c, 3, 43, 100
1, 67920, Note_on_c, 9, 36, 100
1, 67920, Note_on_c, 9, 44, 100
1, 67930, Note_on_c, 9, 36, 0
1, 67930, Note_on_c, 9, 44, 0
1, 68136, Note_on_c, 1, 70, 0
1, 68136, Note_on_c, 2, 58, 0
1, 68136, Note_on_c, 3, 43, 0
1, 68160, Note_on_c, 1, 77, 100
1, 68160, Note_on_c, 2, 65, 100
1, 68160, Note_on_c, 3, 31, 100
1, 68160, Note_on_c, 9, 10, 100
1, 68160, Note_on_c, 9, 44, 100
1, 68170, Note_on_c, 9, 10, 0
1, 68170, Note_on_c, 9, 44, 0
1, 68280, Note_on_c, 9, 10, 100
1, 68280, Note_on_c, 9, 44, 100
1, 68290, Note_on_c, 9, 10, 0
1, 68290, Note_on_c, 9, 44, 0
1, 68376, Note_on_c, 1, 77, 0
1, 68376, Note_on_c, 2, 65, 0
1, 68376, Note_on_c, 3, 31, 0
1, 68400, Note_on_c, 1, 76, 100
1, 68400, Note_on_c, 2, 64, 100
1, 68400, Note_on_c, 3, 43, 100
1, 68400, Note_on_c, 9, 36, 100
1, 68400, Note_on_c, 9, 44, 100
1, 68410, Note_on_c, 9, 36, 0
1, 68410, Note_on_c, 9, 44, 0
1, 68508, Note_on_c, 1, 76, 0
1, 68508, Note_on_c, 2, 64, 0
1, 68520, Note_on_c, 1, 74, 100
1, 68520, Note_on_c, 2, 62, 100
1, 68616, Note_on_c, 3, 43, 0
1, 68628, Note_on_c, 1, 74, 0
1, 68628, Note_on_c, 2, 62, 0
1, 68640, Note_on_c, 1, 72, 100
1, 68640, Note_on_c, 2, 60, 100
1, 68640, Note_on_c, 3, 31, 100
1, 68640, Note_on_c, 9, 10, 100
1, 68640, Note_on_c, 9, 44, 100
1, 68650, Note_on_c, 9, 10, 0
1, 68650, Note_on_c, 9, 44, 0
1, 68760, Note_on_c, 9, 44, 100
1, 68770, Note_on_c, 9, 44, 0
1, 68856, Note_on_c, 1, 72, 0
1, 68856, Note_on_c, 2, 60, 0
1, 68856, Note_on_c, 3, 31, 0
1, 68880, Note_on_c, 1, 74, 100
1, 68880, Note_on_c, 2, 62, 100
1, 68880, Note_on_c, 3, 43, 100
1, 68880, Note_on_c, 9, 36, 100
1, 68880, Note_on_c, 9, 44, 100
1, 68890, Note_on_c, 9, 36, 0
1, 68890, Note_on_c, 9, 44, 0
1, 69096, Note_on_c, 1, 74, 0
1, 69096, Note_on_c, 2, 62, 0
1, 69096, Note_on_c, 3, 43, 0
1, 69120, Note_on_c, 1, 70, 100
1, 69120, Note_on_c, 2, 58, 100
1, 69120, Note_on_c, 3, 31, 100
1, 69120, Note_on_c, 9, 44, 100
1, 69120, Note_on_c, 9, 10, 100
1, 69130, Note_on_c, 9, 44, 0
1, 69130, Note_on_c, 9, 10, 0
1, 69240, Note_on_c, 9, 44, 100
1, 69250, Note_on_c, 9, 44, 0
1, 69336, Note_on_c, 1, 70, 0
1, 69336, Note_on_c, 2, 58, 0
1, 69336, Note_on_c, 3, 31, 0
1, 69360, Note_on_c, 1, 69, 100
1, 69360, Note_on_c, 2, 57, 100
1, 69360, Note_on_c, 3, 43, 100
1, 69360, Note_on_c, 9, 36, 100
1, 69360, Note_on_c, 9, 44, 100
1, 69370, Note_on_c, 9, 36, 0
1, 69370, Note_on_c, 9, 44, 0
1, 69576, Note_on_c, 1, 69, 0
1, 69576, Note_on_c, 2, 57, 0
1, 69576, Note_on_c, 3, 43, 0
1, 69600, Note_on_c, 1, 70, 100
1, 69600, Note_on_c, 2, 58, 100
1, 69600, Note_on_c, 3, 31, 100
1, 69600, Note_on_c, 9, 10, 100
1, 69600, Note_on_c, 9, 44, 100
1, 69610, Note_on_c, 9, 10, 0
1, 69610, Note_on_c, 9, 44, 0
1, 69720, Note_on_c, 9, 44, 100
1, 69730, Note_on_c, 9, 44, 0
1, 69816, Note_on_c, 1, 70, 0
1, 69816, Note_on_c, 2, 58, 0
1, 69816, Note_on_c, 3, 31, 0
1, 69840, Note_on_c, 1, 67, 100
1, 69840, Note_on_c, 2, 55, 100
1, 69840, Note_on_c, 3, 43, 100
1, 69840, Note_on_c, 9, 36, 100
1, 69840, Note_on_c, 9, 44, 100
1, 69850, Note_on_c, 9, 36, 0
1, 69850, Note_on_c, 9, 44, 0
1, 70056, Note_on_c, 1, 67, 0
1, 70056, Note_on_c, 2, 55, 0
1, 70056, Note_on_c, 3, 43, 0
1, 70080, Note_on_c, 1, 65, 100
1, 70080, Note_on_c, 2, 53, 100
1, 70080, Note_on_c, 3, 31, 100
1, 70080, Note_on_c, 9, 51, 100
1, 70080, Note_on_c, 9, 44, 100
1, 70080, Note_on_c, 9, 10, 100
1, 70090, Note_on_c, 9, 51, 0
1, 70090, Note_on_c, 9, 44, 0
1, 70090, Note_on_c, 9, 10, 0
1, 70200, Note_on_c, 9, 10, 100
1, 70200, Note_on_c, 9, 44, 100
1, 70210, Note_on_c, 9, 10, 0
1, 70210, Note_on_c, 9, 44, 0
1, 70296, Note_on_c, 1, 65, 0
1, 70296, Note_on_c, 2, 53, 0
1, 70296, Note_on_c, 3, 31, 0
1, 70320, Note_on_c, 1, 67, 100
1, 70320, Note_on_c, 2, 55, 100
1, 70320, Note_on_c, 3, 43, 100
1, 70320, Note_on_c, 9, 36, 100
1, 70320, Note_on_c, 9, 44, 100
1, 70330, Note_on_c, 9, 36, 0
1, 70330, Note_on_c, 9, 44, 0
1, 70464, Note_on_c, 1, 67, 0
1, 70464, Note_on_c, 2, 55, 0
1, 70536, Note_on_c, 3, 43, 0
1, 70560, Note_on_c, 1, 67, 100
1, 70560, Note_on_c, 2, 55, 100
1, 70560, Note_on_c, 3, 31, 100
1, 70560, Note_on_c, 9, 51, 100
1, 70560, Note_on_c, 9, 44, 100
1, 70560, Note_on_c, 9, 10, 100
1, 70570, Note_on_c, 9, 51, 0
1, 70570, Note_on_c, 9, 44, 0
1, 70570, Note_on_c, 9, 10, 0
1, 70680, Note_on_c, 9, 44, 100
1, 70690, Note_on_c, 9, 44, 0
1, 70776, Note_on_c, 1, 67, 0
1, 70776, Note_on_c, 2, 55, 0
1, 70776, Note_on_c, 3, 31, 0
1, 70800, Note_on_c, 3, 43, 100
1, 70800, Note_on_c, 9, 36, 100
1, 70800, Note_on_c, 9, 44, 100
1, 70810, Note_on_c, 9, 36, 0
1, 70810, Note_on_c, 9, 44, 0
1, 71016, Note_on_c, 3, 43, 0
1, 71040, Note_on_c, 0, 67, 100
1, 71040, Note_on_c, 2, 62, 100
1, 71040, Note_on_c, 2, 55, 100
1, 71040, Note_on_c, 3, 31, 100
1, 71040, Note_on_c, 4, 58, 0
1, 71040, Note_on_c, 4, 67, 0
1, 71040, Note_on_c, 4, 58, 100
1, 71040, Note_on_c, 4, 67, 100
1, 71040, Note_on_c, 9, 44, 100
1, 71040, Note_on_c, 9, 10, 100
1, 71040, Note_on_c, 9, 51, 100
1, 71050, Note_on_c, 9, 44, 0
1, 71050, Note_on_c, 9, 10, 0
1, 71050, Note_on_c, 9, 51, 0
1, 71160, Note_on_c, 9, 44, 100
1, 71170, Note_on_c, 9, 44, 0
1, 71256, Note_on_c, 0, 67, 0
1, 71256, Note_on_c, 2, 62, 0
1, 71256, Note_on_c, 2, 55, 0
1, 71256, Note_on_c, 3, 31, 0
1, 71280, Note_on_c, 0, 74, 100
1, 71280, Note_on_c, 2, 69, 100
1, 71280, Note_on_c, 2, 62, 100
1, 71280, Note_on_c, 3, 43, 100
1, 71280, Note_on_c, 9, 44, 100
1, 71280, Note_on_c, 9, 36, 100
1, 71290, Note_on_c, 9, 44, 0
1, 71290, Note_on_c, 9, 36, 0
1, 71496, Note_on_c, 0, 74, 0
1, 71496, Note_on_c, 2, 69, 0
1, 71496, Note_on_c, 2, 62, 0
1, 71496, Note_on_c, 3, 43, 0
1, 71520, Note_on_c, 0, 72, 100
1, 71520, Note_on_c, 2, 67, 100
1, 71520, Note_on_c, 2, 60, 100
1, 71520, Note_on_c, 3, 31, 100
1, 71520, Note_on_c, 9, 44, 100
1, 71520, Note_on_c, 9, 10, 100
1, 71530, Note_on_c, 9, 44, 0
1, 71530, Note_on_c, 9, 10, 0
1, 71640, Note_on_c, 9, 44, 100
1, 71650, Note_on_c, 9, 44, 0
1, 71736, Note_on_c, 0, 72, 0
1, 71736, Note_on_c, 2, 67, 0
1, 71736, Note_on_c, 2, 60, 0
1, 71736, Note_on_c, 3, 31, 0
1, 71760, Note_on_c, 0, 70, 100
1, 71760, Note_on_c, 2, 65, 100
1, 71760, Note_on_c, 2, 58, 100
1, 71760, Note_on_c, 3, 43, 100
1, 71760, Note_on_c, 9, 44, 100
1, 71760, Note_on_c, 9, 36, 100
1, 71770, Note_on_c, 9, 44, 0
1, 71770, Note_on_c, 9, 36, 0
1, 71976, Note_on_c, 0, 70, 0
1, 71976, Note_on_c, 2, 65, 0
1, 71976, Note_on_c, 2, 58, 0
1, 71976, Note_on_c, 3, 43, 0
1, 72000, Note_on_c, 0, 77, 100
1, 72000, Note_on_c, 2, 72, 100
1, 72000, Note_on_c, 2, 65, 100
1, 72000, Note_on_c, 3, 31, 100
1, 72000, Note_on_c, 9, 44, 100
1, 72000, Note_on_c, 9, 10, 100
1, 72010, Note_on_c, 9, 44, 0
1, 72010, Note_on_c, 9, 10, 0
1, 72120, Note_on_c, 9, 44, 100
1, 72120, Note_on_c, 9, 10, 100
1, 72130, Note_on_c, 9, 44, 0
1, 72130, Note_on_c, 9, 10, 0
1, 72216, Note_on_c, 0, 77, 0
1, 72216, Note_on_c, 2, 72, 0
1, 72216, Note_on_c, 2, 65, 0
1, 72216, Note_on_c, 3, 31, 0
1, 72240, Note_on_c, 0, 76, 100
1, 72240, Note_on_c, 2, 71, 100
1, 72240, Note_on_c, 2, 64, 100
1, 72240, Note_on_c, 3, 43, 100
1, 72240, Note_on_c, 9, 44, 100
1, 72240, Note_on_c, 9, 36, 100
1, 72250, Note_on_c, 9, 44, 0
1, 72250, Note_on_c, 9, 36, 0
1, 72348, Note_on_c, 0, 76, 0
1, 72348, Note_on_c, 2, 71, 0
1, 72348, Note_on_c, 2, 64, 0
1, 72360, Note_on_c, 0, 74, 100
1, 72360, Note_on_c, 2, 69, 100
1, 72360, Note_on_c, 2, 62, 100
1, 72456, Note_on_c, 3, 43, 0
1, 72468, Note_on_c, 0, 74, 0
1, 72468, Note_on_c, 2, 69, 0
1, 72468, Note_on_c, 2, 62, 0
1, 72480, Note_on_c, 0, 72, 100
1, 72480, Note_on_c, 2, 67, 100
1, 72480, Note_on_c, 2, 60, 100
1, 72480, Note_on_c, 3, 31, 100
1, 72480, Note_on_c, 9, 44, 100
1, 72480, Note_on_c, 9, 10, 100
1, 72490, Note_on_c, 9, 44, 0
1, 72490, Note_on_c, 9, 10, 0
1, 72600, Note_on_c, 9, 44, 100
1, 72610, Note_on_c, 9, 44, 0
1, 72696, Note_on_c, 0, 72, 0
1, 72696, Note_on_c, 2, 67, 0
1, 72696, Note_on_c, 2, 60, 0
1, 72696, Note_on_c, 3, 31, 0
1, 72720, Note_on_c, 0, 74, 100
1, 72720, Note_on_c, 2, 69, 100
1, 72720, Note_on_c, 2, 62, 100
1, 72720, Note_on_c, 3, 43, 100
1, 72720, Note_on_c, 9, 44, 100
1, 72720, Note_on_c, 9, 36, 100
1, 72730, Note_on_c, 9, 44, 0
1, 72730, Note_on_c, 9, 36, 0
1, 72936, Note_on_c, 0, 74, 0
1, 72936, Note_on_c, 2, 69, 0
1, 72936, Note_on_c, 2, 62, 0
1, 72936, Note_on_c, 3, 43, 0
1, 72960, Note_on_c, 0, 70, 100
1, 72960, Note_on_c, 2, 65, 100
1, 72960, Note_on_c, 2, 58, 100
1, 72960, Note_on_c, 3, 31, 100
1, 72960, Note_on_c, 9, 10, 100
1, 72960, Note_on_c, 9, 44, 100
1, 72970, Note_on_c, 9, 10, 0
1, 72970, Note_on_c, 9, 44, 0
1, 73080, Note_on_c, 9, 44, 100
1, 73090, Note_on_c, 9, 44, 0
1, 73176, Note_on_c, 0, 70, 0
1, 73176, Note_on_c, 2, 65, 0
1, 73176, Note_on_c, 2, 58, 0
1, 73176, Note_on_c, 3, 31, 0
1, 73200, Note_on_c, 0, 69, 100
1, 73200, Note_on_c, 2, 64, 100
1, 73200, Note_on_c, 2, 57, 100
1, 73200, Note_on_c, 3, 43, 100
1, 73200, Note_on_c, 9, 44, 100
1, 73200, Note_on_c, 9, 36, 100
1, 73210, Note_on_c, 9, 44, 0
1, 73210, Note_on_c, 9, 36, 0
1, 73416, Note_on_c, 0, 69, 0
1, 73416, Note_on_c, 2, 64, 0
1, 73416, Note_on_c, 2, 57, 0
1, 73416, Note_on_c, 3, 43, 0
1, 73440, Note_on_c, 0, 70, 100
1, 73440, Note_on_c, 2, 65, 100
1, 73440, Note_on_c, 2, 58, 100
1, 73440, Note_on_c, 3, 31, 100
1, 73440, Note_on_c, 9, 44, 100
1, 73440, Note_on_c, 9, 10, 100
1, 73450, Note_on_c, 9, 44, 0
1, 73450, Note_on_c, 9, 10, 0
1, 73560, Note_on_c, 9, 44, 100
1, 73570, Note_on_c, 9, 44, 0
1, 73656, Note_on_c, 0, 70, 0
1, 73656, Note_on_c, 2, 65, 0
1, 73656, Note_on_c, 2, 58, 0
1, 73656, Note_on_c, 3, 31, 0
1, 73680, Note_on_c, 0, 67, 100
1, 73680, Note_on_c, 2, 62, 100
1, 73680, Note_on_c, 2, 55, 100
1, 73680, Note_on_c, 3, 43, 100
1, 73680, Note_on_c, 9, 44, 100
1, 73680, Note_on_c, 9, 36, 100
1, 73690, Note_on_c, 9, 44, 0
1, 73690, Note_on_c, 9, 36, 0
1, 73896, Note_on_c, 0, 67, 0
1, 73896, Note_on_c, 2, 62, 0
1, 73896, Note_on_c, 2, 55, 0
1, 73896, Note_on_c, 3, 43, 0
1, 73920, Note_on_c, 0, 65, 100
1, 73920, Note_on_c, 2, 60, 100
1, 73920, Note_on_c, 2, 53, 100
1, 73920, Note_on_c, 3, 31, 100
1, 73920, Note_on_c, 9, 44, 100
1, 73920, Note_on_c, 9, 10, 100
1, 73920, Note_on_c, 9, 51, 100
1, 73930, Note_on_c, 9, 44, 0
1, 73930, Note_on_c, 9, 10, 0
1, 73930, Note_on_c, 9, 51, 0
1, 74040, Note_on_c, 9, 44, 100
1, 74040, Note_on_c, 9, 10, 100
1, 74050, Note_on_c, 9, 44, 0
1, 74050, Note_on_c, 9, 10, 0
1, 74136, Note_on_c, 0, 65, 0
1, 74136, Note_on_c, 2, 60, 0
1, 74136, Note_on_c, 2, 53, 0
1, 74136, Note_on_c, 3, 31, 0
1, 74160, Note_on_c, 0, 67, 100
1, 74160, Note_on_c, 2, 62, 100
1, 74160, Note_on_c, 2, 55, 100
1, 74160, Note_on_c, 3, 43, 100
1, 74160, Note_on_c, 9, 44, 100
1, 74160, Note_on_c, 9, 36, 100
1, 74170, Note_on_c, 9, 44, 0
1, 74170, Note_on_c, 9, 36, 0
1, 74304, Note_on_c, 0, 67, 0
1, 74304, Note_on_c, 2, 62, 0
1, 74304, Note_on_c, 2, 55, 0
1, 74376, Note_on_c, 3, 43, 0
1, 74400, Note_on_c, 0, 67, 100
1, 74400, Note_on_c, 2, 62, 100
1, 74400, Note_on_c, 2, 55, 100
1, 74400, Note_on_c, 3, 31, 100
1, 74400, Note_on_c, 9, 44, 100
1, 74400, Note_on_c, 9, 10, 100
1, 74400, Note_on_c, 9, 51, 100
1, 74410, Note_on_c, 9, 44, 0
1, 74410, Note_on_c, 9, 10, 0
1, 74410, Note_on_c, 9, 51, 0
1, 74520, Note_on_c, 9, 44, 100
1, 74530, Note_on_c, 9, 44, 0
1, 74616, Note_on_c, 0, 67, 0
1, 74616, Note_on_c, 2, 62, 0
1, 74616, Note_on_c, 2, 55, 0
1, 74616, Note_on_c, 3, 31, 0
1, 74640, Note_on_c, 3, 43, 100
1, 74640, Note_on_c, 9, 44, 100
1, 74640, Note_on_c, 9, 36, 100
1, 74650, Note_on_c, 9, 44, 0
1, 74650, Note_on_c, 9, 36, 0
1, 74856, Note_on_c, 3, 43, 0
1, 74880, Note_on_c, 0, 67, 100
1, 74880, Note_on_c, 1, 62, 100
1, 74880, Note_on_c, 2, 55, 100
1, 74880, Note_on_c, 2, 62, 100
1, 74880, Note_on_c, 3, 31, 100
1, 74880, Note_on_c, 4, 58, 0
1, 74880, Note_on_c, 4, 67, 0
1, 74880, Note_on_c, 4, 67, 100
1, 74880, Note_on_c, 4, 58, 100
1, 74880, Note_on_c, 9, 10, 100
1, 74880, Note_on_c, 9, 51, 100
1, 74880, Note_on_c, 9, 44, 100
1, 74890, Note_on_c, 9, 10, 0
1, 74890, Note_on_c, 9, 51, 0
1, 74890, Note_on_c, 9, 44, 0
1, 75000, Note_on_c, 9, 44, 100
1, 75010, Note_on_c, 9, 44, 0
1, 75096, Note_on_c, 0, 67, 0
1, 75096, Note_on_c, 1, 62, 0
1, 75096, Note_on_c, 2, 55, 0
1, 75096, Note_on_c, 2, 62, 0
1, 75096, Note_on_c, 3, 31, 0
1, 75120, Note_on_c, 0, 74, 100
1, 75120, Note_on_c, 1, 69, 100
1, 75120, Note_on_c, 2, 62, 100
1, 75120, Note_on_c, 2, 69, 100
1, 75120, Note_on_c, 3, 43, 100
1, 75120, Note_on_c, 9, 36, 100
1, 75120, Note_on_c, 9, 44, 100
1, 75130, Note_on_c, 9, 36, 0
1, 75130, Note_on_c, 9, 44, 0
1, 75336, Note_on_c, 0, 74, 0
1, 75336, Note_on_c, 1, 69, 0
1, 75336, Note_on_c, 2, 62, 0
1, 75336, Note_on_c, 2, 69, 0
1, 75336, Note_on_c, 3, 43, 0
1, 75360, Note_on_c, 0, 72, 100
1, 75360, Note_on_c, 1, 67, 100
1, 75360, Note_on_c, 2, 60, 100
1, 75360, Note_on_c, 2, 67, 100
1, 75360, Note_on_c, 3, 31, 100
1, 75360, Note_on_c, 9, 10, 100
1, 75360, Note_on_c, 9, 44, 100
1, 75370, Note_on_c, 9, 10, 0
1, 75370, Note_on_c, 9, 44, 0
1, 75480, Note_on_c, 9, 44, 100
1, 75490, Note_on_c, 9, 44, 0
1, 75576, Note_on_c, 0, 72, 0
1, 75576, Note_on_c, 1, 67, 0
1, 75576, Note_on_c, 2, 60, 0
1, 75576, Note_on_c, 2, 67, 0
1, 75576, Note_on_c, 3, 31, 0
1, 75600, Note_on_c, 0, 70, 100
1, 75600, Note_on_c, 1, 65, 100
1, 75600, Note_on_c, 2, 58, 100
1, 75600, Note_on_c, 2, 65, 100
1, 75600, Note_on_c, 3, 43, 100
1, 75600, Note_on_c, 9, 36, 100
1, 75600, Note_on_c, 9, 44, 100
1, 75610, Note_on_c, 9, 36, 0
1, 75610, Note_on_c, 9, 44, 0
1, 75816, Note_on_c, 0, 70, 0
1, 75816, Note_on_c, 1, 65, 0
1, 75816, Note_on_c, 2, 58, 0
1, 75816, Note_on_c, 2, 65, 0
1, 75816, Note_on_c, 3, 43, 0
1, 75840, Note_on_c, 0, 77, 100
1, 75840, Note_on_c, 1, 72, 100
1, 75840, Note_on_c, 2, 65, 100
1, 75840, Note_on_c, 2, 72, 100
1, 75840, Note_on_c, 3, 31, 100
1, 75840, Note_on_c, 9, 10, 100
1, 75840, Note_on_c, 9, 44, 100
1, 75850, Note_on_c, 9, 10, 0
1, 75850, Note_on_c, 9, 44, 0
1, 75960, Note_on_c, 9, 10, 100
1, 75960, Note_on_c, 9, 44, 100
1, 75970, Note_on_c, 9, 10, 0
1, 75970, Note_on_c, 9, 44, 0
1, 76056, Note_on_c, 0, 77, 0
1, 76056, Note_on_c, 1, 72, 0
1, 76056, Note_on_c, 2, 65, 0
1, 76056, Note_on_c, 2, 72, 0
1, 76056, Note_on_c, 3, 31, 0
1, 76080, Note_on_c, 0, 76, 100
1, 76080, Note_on_c, 1, 71, 100
1, 76080, Note_on_c, 2, 64, 100
1, 76080, Note_on_c, 2, 71, 100
1, 76080, Note_on_c, 3, 43, 100
1, 76080, Note_on_c, 9, 36, 100
1, 76080, Note_on_c, 9, 44, 100
1, 76090, Note_on_c, 9, 36, 0
1, 76090, Note_on_c, 9, 44, 0
1, 76188, Note_on_c, 0, 76, 0
1, 76188, Note_on_c, 1, 71, 0
1, 76188, Note_on_c, 2, 64, 0
1, 76188, Note_on_c, 2, 71, 0
1, 76200, Note_on_c, 0, 74, 100
1, 76200, Note_on_c, 1, 69, 100
1, 76200, Note_on_c, 2, 62, 100
1, 76200, Note_on_c, 2, 69, 100
1, 76296, Note_on_c, 3, 43, 0
1, 76308, Note_on_c, 0, 74, 0
1, 76308, Note_on_c, 1, 69, 0
1, 76308, Note_on_c, 2, 62, 0
1, 76308, Note_on_c, 2, 69, 0
1, 76320, Note_on_c, 0, 72, 100
1, 76320, Note_on_c, 1, 67, 100
1, 76320, Note_on_c, 2, 60, 100
1, 76320, Note_on_c, 2, 67, 100
1, 76320, Note_on_c, 3, 31, 100
1, 76320, Note_on_c, 9, 10, 100
1, 76320, Note_on_c, 9, 44, 100
1, 76330, Note_on_c, 9, 10, 0
1, 76330, Note_on_c, 9, 44, 0
1, 76440, Note_on_c, 9, 44, 100
1, 76450, Note_on_c, 9, 44, 0
1, 76536, Note_on_c, 0, 72, 0
1, 76536, Note_on_c, 1, 67, 0
1, 76536, Note_on_c, 2, 60, 0
1, 76536, Note_on_c, 2, 67, 0
1, 76536, Note_on_c, 3, 31, 0
1, 76560, Note_on_c, 0, 74, 100
1, 76560, Note_on_c, 1, 69, 100
1, 76560, Note_on_c, 2, 62, 100
1, 76560, Note_on_c, 2, 69, 100
1, 76560, Note_on_c, 3, 43, 100
1, 76560, Note_on_c, 9, 36, 100
1, 76560, Note_on_c, 9, 44, 100
1, 76570, Note_on_c, 9, 36, 0
1, 76570, Note_on_c, 9, 44, 0
1, 76776, Note_on_c, 0, 74, 0
1, 76776, Note_on_c, 1, 69, 0
1, 76776, Note_on_c, 2, 62, 0
1, 76776, Note_on_c, 2, 69, 0
1, 76776, Note_on_c, 3, 43, 0
1, 76800, Note_on_c, 0, 70, 100
1, 76800, Note_on_c, 1, 65, 100
1, 76800, Note_on_c, 2, 58, 100
1, 76800, Note_on_c, 2, 65, 100
1, 76800, Note_on_c, 3, 31, 100
1, 76800, Note_on_c, 9, 44, 100
1, 76800, Note_on_c, 9, 10, 100
1, 76810, Note_on_c, 9, 44, 0
1, 76810, Note_on_c, 9, 10, 0
1, 76920, Note_on_c, 9, 44, 100
1, 76930, Note_on_c, 9, 44, 0
1, 77016, Note_on_c, 0, 70, 0
1, 77016, Note_on_c, 1, 65, 0
1, 77016, Note_on_c, 2, 58, 0
1, 77016, Note_on_c, 2, 65, 0
1, 77016, Note_on_c, 3, 31, 0
1, 77040, Note_on_c, 0, 72, 100
1, 77040, Note_on_c, 1, 67, 100
1, 77040, Note_on_c, 2, 60, 100
1, 77040, Note_on_c, 2, 67, 100
1, 77040, Note_on_c, 3, 43, 100
1, 77040, Note_on_c, 9, 36, 100
1, 77040, Note_on_c, 9, 44, 100
1, 77050, Note_on_c, 9, 36, 0
1, 77050, Note_on_c, 9, 44, 0
1, 77256, Note_on_c, 0, 72, 0
1, 77256, Note_on_c, 1, 67, 0
1, 77256, Note_on_c, 2, 60, 0
1, 77256, Note_on_c, 2, 67, 0
1, 77256, Note_on_c, 3, 43, 0
1, 77280, Note_on_c, 0, 69, 100
1, 77280, Note_on_c, 1, 64, 100
1, 77280, Note_on_c, 2, 57, 100
1, 77280, Note_on_c, 2, 64, 100
1, 77280, Note_on_c, 3, 31, 100
1, 77280, Note_on_c, 9, 10, 100
1, 77280, Note_on_c, 9, 44, 100
1, 77290, Note_on_c, 9, 10, 0
1, 77290, Note_on_c, 9, 44, 0
1, 77400, Note_on_c, 9, 44, 100
1, 77410, Note_on_c, 9, 44, 0
1, 77496, Note_on_c, 0, 69, 0
1, 77496, Note_on_c, 1, 64, 0
1, 77496, Note_on_c, 2, 57, 0
1, 77496, Note_on_c, 2, 64, 0
1, 77496, Note_on_c, 3, 31, 0
1, 77520, Note_on_c, 0, 70, 100
1, 77520, Note_on_c, 1, 65, 100
1, 77520, Note_on_c, 2, 58, 100
1, 77520, Note_on_c, 2, 65, 100
1, 77520, Note_on_c, 3, 43, 100
1, 77520, Note_on_c, 9, 36, 100
1, 77520, Note_on_c, 9, 44, 100
1, 77530, Note_on_c, 9, 36, 0
1, 77530, Note_on_c, 9, 44, 0
1, 77736, Note_on_c, 0, 70, 0
1, 77736, Note_on_c, 1, 65, 0
1, 77736, Note_on_c, 2, 58, 0
1, 77736, Note_on_c, 2, 65, 0
1, 77736, Note_on_c, 3, 43, 0
1, 77760, Note_on_c, 0, 67, 100
1, 77760, Note_on_c, 1, 62, 100
1, 77760, Note_on_c, 2, 55, 100
1, 77760, Note_on_c, 2, 62, 100
1, 77760, Note_on_c, 3, 31, 100
1, 77760, Note_on_c, 9, 10, 100
1, 77760, Note_on_c, 9, 51, 100
1, 77760, Note_on_c, 9, 44, 100
1, 77770, Note_on_c, 9, 10, 0
1, 77770, Note_on_c, 9, 51, 0
1, 77770, Note_on_c, 9, 44, 0
1, 77880, Note_on_c, 9, 10, 100
1, 77880, Note_on_c, 9, 44, 100
1, 77890, Note_on_c, 9, 10, 0
1, 77890, Note_on_c, 9, 44, 0
1, 77976, Note_on_c, 0, 67, 0
1, 77976, Note_on_c, 1, 62, 0
1, 77976, Note_on_c, 2, 55, 0
1, 77976, Note_on_c, 2, 62, 0
1, 77976, Note_on_c, 3, 31, 0
1, 78000, Note_on_c, 0, 70, 100
1, 78000, Note_on_c, 1, 65, 100
1, 78000, Note_on_c, 2, 58, 100
1, 78000, Note_on_c, 2, 65, 100
1, 78000, Note_on_c, 3, 43, 100
1, 78000, Note_on_c, 9, 36, 100
1, 78000, Note_on_c, 9, 44, 100
1, 78010, Note_on_c, 9, 36, 0
1, 78010, Note_on_c, 9, 44, 0
1, 78216, Note_on_c, 0, 70, 0
1, 78216, Note_on_c, 1, 65, 0
1, 78216, Note_on_c, 2, 58, 0
1, 78216, Note_on_c, 2, 65, 0
1, 78216, Note_on_c, 3, 43, 0
1, 78240, Note_on_c, 0, 69, 100
1, 78240, Note_on_c, 1, 64, 100
1, 78240, Note_on_c, 2, 57, 100
1, 78240, Note_on_c, 2, 64, 100
1, 78240, Note_on_c, 3, 31, 100
1, 78240, Note_on_c, 9, 10, 100
1, 78240, Note_on_c, 9, 51, 100
1, 78240, Note_on_c, 9, 44, 100
1, 78250, Note_on_c, 9, 10, 0
1, 78250, Note_on_c, 9, 51, 0
1, 78250, Note_on_c, 9, 44, 0
1, 78360, Note_on_c, 9, 44, 100
1, 78370, Note_on_c, 9, 44, 0
1, 78456, Note_on_c, 0, 69, 0
1, 78456, Note_on_c, 1, 64, 0
1, 78456, Note_on_c, 2, 57, 0
1, 78456, Note_on_c, 2, 64, 0
1, 78456, Note_on_c, 3, 31, 0
1, 78480, Note_on_c, 0, 67, 100
1, 78480, Note_on_c, 1, 62, 100
1, 78480, Note_on_c, 2, 55, 100
1, 78480, Note_on_c, 2, 62, 100
1, 78480, Note_on_c, 3, 43, 100
1, 78480, Note_on_c, 9, 36, 100
1, 78480, Note_on_c, 9, 44, 100
1, 78490, Note_on_c, 9, 36, 0
1, 78490, Note_on_c, 9, 44, 0
1, 78696, Note_on_c, 0, 67, 0
1, 78696, Note_on_c, 1, 62, 0
1, 78696, Note_on_c, 2, 55, 0
1, 78696, Note_on_c, 2, 62, 0
1, 78696, Note_on_c, 3, 43, 0
1, 78720, Note_on_c, 0, 65, 100
1, 78720, Note_on_c, 1, 62, 80
1, 78720, Note_on_c, 1, 67, 80
1, 78720, Note_on_c, 2, 60, 100
1, 78720, Note_on_c, 3, 27, 100
1, 78720, Note_on_c, 4, 67, 0
1, 78720, Note_on_c, 4, 58, 0
1, 78720, Note_on_c, 4, 63, 100
1, 78720, Note_on_c, 4, 55, 100
1, 78720, Note_on_c, 9, 51, 100
1, 78720, Note_on_c, 9, 44, 100
1, 78720, Note_on_c, 9, 10, 100
1, 78730, Note_on_c, 9, 51, 0
1, 78730, Note_on_c, 9, 44, 0
1, 78730, Note_on_c, 9, 10, 0
1, 78840, Note_on_c, 9, 44, 100
1, 78850, Note_on_c, 9, 44, 0
1, 78936, Note_on_c, 0, 65, 0
1, 78936, Note_on_c, 2, 60, 0
1, 78936, Note_on_c, 3, 27, 0
1, 78960, Note_on_c, 0, 67, 100
1, 78960, Note_on_c, 2, 62, 100
1, 78960, Note_on_c, 3, 39, 100
1, 78960, Note_on_c, 9, 36, 100
1, 78960, Note_on_c, 9, 44, 100
1, 78970, Note_on_c, 9, 36, 0
1, 78970, Note_on_c, 9, 44, 0
1, 79152, Note_on_c, 1, 62, 0
1, 79152, Note_on_c, 1, 67, 0
1, 79176, Note_on_c, 0, 67, 0
1, 79176, Note_on_c, 2, 62, 0
1, 79176, Note_on_c, 3, 39, 0
1, 79200, Note_on_c, 0, 67, 100
1, 79200, Note_on_c, 1, 62, 80
1, 79200, Note_on_c, 1, 67, 80
1, 79200, Note_on_c, 2, 62, 100
1, 79200, Note_on_c, 3, 27, 100
1, 79200, Note_on_c, 9, 10, 100
1, 79200, Note_on_c, 9, 44, 100
1, 79210, Note_on_c, 9, 10, 0
1, 79210, Note_on_c, 9, 44, 0
1, 79284, Note_on_c, 1, 62, 0
1, 79284, Note_on_c, 1, 67, 0
1, 79320, Note_on_c, 1, 67, 80
1, 79320, Note_on_c, 1, 62, 80
1, 79320, Note_on_c, 9, 44, 100
1, 79330, Note_on_c, 9, 44, 0
1, 79416, Note_on_c, 3, 27, 0
1, 79440, Note_on_c, 3, 39, 100
1, 79440, Note_on_c, 9, 36, 100
1, 79440, Note_on_c, 9, 44, 100
1, 79450, Note_on_c, 9, 36, 0
1, 79450, Note_on_c, 9, 44, 0
1, 79488, Note_on_c, 1, 67, 0
1, 79488, Note_on_c, 1, 62, 0
1, 79520, Note_on_c, 1, 62, 80
1, 79520, Note_on_c, 1, 67, 80
1, 79604, Note_on_c, 1, 62, 0
1, 79604, Note_on_c, 1, 67, 0
1, 79656, Note_on_c, 3, 39, 0
1, 79680, Note_on_c, 1, 62, 80
1, 79680, Note_on_c, 1, 67, 80
1, 79680, Note_on_c, 3, 27, 100
1, 79680, Note_on_c, 9, 10, 100
1, 79680, Note_on_c, 9, 44, 100
1, 79690, Note_on_c, 9, 10, 0
1, 79690, Note_on_c, 9, 44, 0
1, 79800, Note_on_c, 9, 10, 100
1, 79800, Note_on_c, 9, 44, 100
1, 79810, Note_on_c, 9, 10, 0
1, 79810, Note_on_c, 9, 44, 0
1, 79896, Note_on_c, 3, 27, 0
1, 79920, Note_on_c, 3, 39, 100
1, 79920, Note_on_c, 9, 36, 100
1, 79920, Note_on_c, 9, 44, 100
1, 79930, Note_on_c, 9, 36, 0
1, 79930, Note_on_c, 9, 44, 0
1, 80064, Note_on_c, 0, 67, 0
1, 80064, Note_on_c, 2, 62, 0
1, 80112, Note_on_c, 1, 62, 0
1, 80112, Note_on_c, 1, 67, 0
1, 80136, Note_on_c, 3, 39, 0
1, 80160, Note_on_c, 0, 74, 100
1, 80160, Note_on_c, 1, 60, 80
1, 80160, Note_on_c, 1, 65, 80
1, 80160, Note_on_c, 2, 69, 100
1, 80160, Note_on_c, 3, 27, 100
1, 80160, Note_on_c, 9, 10, 100
1, 80160, Note_on_c, 9, 44, 100
1, 80170, Note_on_c, 9, 10, 0
1, 80170, Note_on_c, 9, 44, 0
1, 80280, Note_on_c, 9, 44, 100
1, 80290, Note_on_c, 9, 44, 0
1, 80376, Note_on_c, 3, 27, 0
1, 80400, Note_on_c, 3, 39, 100
1, 80400, Note_on_c, 9, 36, 100
1, 80400, Note_on_c, 9, 44, 100
1, 80410, Note_on_c, 9, 36, 0
1, 80410, Note_on_c, 9, 44, 0
1, 80592, Note_on_c, 0, 74, 0
1, 80592, Note_on_c, 1, 60, 0
1, 80592, Note_on_c, 1, 65, 0
1, 80592, Note_on_c, 2, 69, 0
1, 80616, Note_on_c, 3, 39, 0
1, 80640, Note_on_c, 0, 67, 100
1, 80640, Note_on_c, 1, 62, 80
1, 80640, Note_on_c, 1, 67, 80
1, 80640, Note_on_c, 2, 62, 100
1, 80640, Note_on_c, 3, 29, 100
1, 80640, Note_on_c, 4, 63, 0
1, 80640, Note_on_c, 4, 55, 0
1, 80640, Note_on_c, 4, 57, 100
1, 80640, Note_on_c, 4, 65, 100
1, 80640, Note_on_c, 9, 44, 100
1, 80640, Note_on_c, 9, 10, 100
1, 80650, Note_on_c, 9, 44, 0
1, 80650, Note_on_c, 9, 10, 0
1, 80760, Note_on_c, 9, 44, 100
1, 80770, Note_on_c, 9, 44, 0
1, 80856, Note_on_c, 3, 29, 0
1, 80880, Note_on_c, 3, 41, 100
1, 80880, Note_on_c, 9, 36, 100
1, 80880, Note_on_c, 9, 44, 100
1, 80890, Note_on_c, 9, 36, 0
1, 80890, Note_on_c, 9, 44, 0
1, 81096, Note_on_c, 3, 41, 0
1, 81120, Note_on_c, 3, 29, 100
1, 81120, Note_on_c, 9, 10, 100
1, 81120, Note_on_c, 9, 44, 100
1, 81130, Note_on_c, 9, 10, 0
1, 81130, Note_on_c, 9, 44, 0
1, 81240, Note_on_c, 9, 44, 100
1, 81250, Note_on_c, 9, 44, 0
1, 81336, Note_on_c, 3, 29, 0
1, 81360, Note_on_c, 3, 41, 100
1, 81360, Note_on_c, 9, 36, 100
1, 81360, Note_on_c, 9, 44, 100
1, 81370, Note_on_c, 9, 36, 0
1, 81370, Note_on_c, 9, 44, 0
1, 81576, Note_on_c, 3, 41, 0
1, 81600, Note_on_c, 3, 29, 100
1, 81600, Note_on_c, 9, 51, 100
1, 81600, Note_on_c, 9, 44, 100
1, 81600, Note_on_c, 9, 10, 100
1, 81610, Note_on_c, 9, 51, 0
1, 81610, Note_on_c, 9, 44, 0
1, 81610, Note_on_c, 9, 10, 0
1, 81720, Note_on_c, 9, 10, 100
1, 81720, Note_on_c, 9, 44, 100
1, 81730, Note_on_c, 9, 10, 0
1, 81730, Note_on_c, 9, 44, 0
1, 81816, Note_on_c, 3, 29, 0
1, 81840, Note_on_c, 3, 41, 100
1, 81840, Note_on_c, 9, 36, 100
1, 81840, Note_on_c, 9, 44, 100
1, 81850, Note_on_c, 9, 36, 0
1, 81850, Note_on_c, 9, 44, 0
1, 81936, Note_on_c, 0, 67, 0
1, 81936, Note_on_c, 1, 62, 0
1, 81936, Note_on_c, 1, 67, 0
1, 81936, Note_on_c, 2, 62, 0
1, 82056, Note_on_c, 3, 41, 0
1, 82080, Note_on_c, 0, 74, 100
1, 82080, Note_on_c, 1, 60, 80
1, 82080, Note_on_c, 1, 65, 80
1, 82080, Note_on_c, 2, 69, 100
1, 82080, Note_on_c, 3, 29, 100
1, 82080, Note_on_c, 9, 51, 100
1, 82080, Note_on_c, 9, 44, 100
1, 82080, Note_on_c, 9, 10, 100
1, 82090, Note_on_c, 9, 51, 0
1, 82090, Note_on_c, 9, 44, 0
1, 82090, Note_on_c, 9, 10, 0
1, 82200, Note_on_c, 9, 44, 100
1, 82210, Note_on_c, 9, 44, 0
1, 82296, Note_on_c, 3, 29, 0
1, 82320, Note_on_c, 3, 41, 100
1, 82320, Note_on_c, 9, 36, 100
1, 82320, Note_on_c, 9, 44, 100
1, 82330, Note_on_c, 9, 36, 0
1, 82330, Note_on_c, 9, 44, 0
1, 82512, Note_on_c, 0, 74, 0
1, 82512, Note_on_c, 1, 60, 0
1, 82512, Note_on_c, 1, 65, 0
1, 82512, Note_on_c, 2, 69, 0
1, 82536, Note_on_c, 3, 41, 0
1, 82560, Note_on_c, 0, 67, 100
1, 82560, Note_on_c, 1, 62, 80
1, 82560, Note_on_c, 1, 67, 80
1, 82560, Note_on_c, 2, 62, 100
1, 82560, Note_on_c, 3, 31, 100
1, 82560, Note_on_c, 4, 57, 0
1, 82560, Note_on_c, 4, 65, 0
1, 82560, Note_on_c, 4, 58, 100
1, 82560, Note_on_c, 4, 67, 100
1, 82560, Note_on_c, 9, 44, 100
1, 82560, Note_on_c, 9, 10, 100
1, 82560, Note_on_c, 9, 51, 100
1, 82570, Note_on_c, 9, 44, 0
1, 82570, Note_on_c, 9, 10, 0
1, 82570, Note_on_c, 9, 51, 0
1, 82680, Note_on_c, 9, 44, 100
1, 82690, Note_on_c, 9, 44, 0
1, 82776, Note_on_c, 3, 31, 0
1, 82800, Note_on_c, 3, 43, 100
1, 82800, Note_on_c, 9, 44, 100
1, 82800, Note_on_c, 9, 36, 100
1, 82810, Note_on_c, 9, 44, 0
1, 82810, Note_on_c, 9, 36, 0
1, 83016, Note_on_c, 3, 43, 0
1, 83040, Note_on_c, 3, 31, 100
1, 83040, Note_on_c, 9, 44, 100
1, 83040, Note_on_c, 9, 10, 100
1, 83050, Note_on_c, 9, 44, 0
1, 83050, Note_on_c, 9, 10, 0
1, 83160, Note_on_c, 9, 44, 100
1, 83170, Note_on_c, 9, 44, 0
1, 83256, Note_on_c, 3, 31, 0
1, 83280, Note_on_c, 3, 43, 100
1, 83280, Note_on_c, 9, 44, 100
1, 83280, Note_on_c, 9, 36, 100
1, 83290, Note_on_c, 9, 44, 0
1, 83290, Note_on_c, 9, 36, 0
1, 83496, Note_on_c, 3, 43, 0
1, 83520, Note_on_c, 3, 31, 100
1, 83520, Note_on_c, 9, 44, 100
1, 83520, Note_on_c, 9, 10, 100
1, 83530, Note_on_c, 9, 44, 0
1, 83530, Note_on_c, 9, 10, 0
1, 83640, Note_on_c, 9, 44, 100
1, 83640, Note_on_c, 9, 10, 100
1, 83650, Note_on_c, 9, 44, 0
1, 83650, Note_on_c, 9, 10, 0
1, 83736, Note_on_c, 3, 31, 0
1, 83760, Note_on_c, 3, 43, 100
1, 83760, Note_on_c, 9, 44, 100
1, 83760, Note_on_c, 9, 36, 100
1, 83770, Note_on_c, 9, 44, 0
1, 83770, Note_on_c, 9, 36, 0
1, 83856, Note_on_c, 1, 62, 0
1, 83856, Note_on_c, 1, 67, 0
1, 83976, Note_on_c, 3, 43, 0
1, 84000, Note_on_c, 0, 72, 100
1, 84000, Note_on_c, 2, 67, 100
1, 84000, Note_on_c, 3, 31, 100
1, 84000, Note_on_c, 9, 44, 100
1, 84000, Note_on_c, 9, 10, 100
1, 84010, Note_on_c, 9, 44, 0
1, 84010, Note_on_c, 9, 10, 0
1, 84120, Note_on_c, 9, 44, 100
1, 84130, Note_on_c, 9, 44, 0
1, 84216, Note_on_c, 3, 31, 0
1, 84240, Note_on_c, 3, 43, 100
1, 84240, Note_on_c, 9, 44, 100
1, 84240, Note_on_c, 9, 36, 100
1, 84250, Note_on_c, 9, 44, 0
1, 84250, Note_on_c, 9, 36, 0
1, 84288, Note_on_c, 0, 67, 0
1, 84288, Note_on_c, 2, 62, 0
1, 84432, Note_on_c, 0, 72, 0
1, 84432, Note_on_c, 2, 67, 0
1, 84456, Note_on_c, 3, 43, 0
1, 84480, Note_on_c, 0, 70, 100
1, 84480, Note_on_c, 2, 67, 100
1, 84480, Note_on_c, 3, 31, 100
1, 84480, Note_on_c, 4, 58, 0
1, 84480, Note_on_c, 4, 67, 0
1, 84480, Note_on_c, 4, 58, 100
1, 84480, Note_on_c, 4, 67, 100
1, 84480, Note_on_c, 9, 44, 100
1, 84480, Note_on_c, 9, 10, 100
1, 84490, Note_on_c, 9, 44, 0
1, 84490, Note_on_c, 9, 10, 0
1, 84600, Note_on_c, 9, 44, 100
1, 84610, Note_on_c, 9, 44, 0
1, 84696, Note_on_c, 0, 70, 0
1, 84696, Note_on_c, 2, 67, 0
1, 84696, Note_on_c, 3, 31, 0
1, 84720, Note_on_c, 0, 69, 100
1, 84720, Note_on_c, 2, 65, 100
1, 84720, Note_on_c, 3, 43, 100
1, 84720, Note_on_c, 9, 36, 100
1, 84720, Note_on_c, 9, 44, 100
1, 84730, Note_on_c, 9, 36, 0
1, 84730, Note_on_c, 9, 44, 0
1, 84936, Note_on_c, 0, 69, 0
1, 84936, Note_on_c, 2, 65, 0
1, 84936, Note_on_c, 3, 43, 0
1, 84960, Note_on_c, 0, 70, 100
1, 84960, Note_on_c, 2, 67, 100
1, 84960, Note_on_c, 3, 31, 100
1, 84960, Note_on_c, 9, 44, 100
1, 84960, Note_on_c, 9, 10, 100
1, 84970, Note_on_c, 9, 44, 0
1, 84970, Note_on_c, 9, 10, 0
1, 85080, Note_on_c, 9, 44, 100
1, 85090, Note_on_c, 9, 44, 0
1, 85176, Note_on_c, 0, 70, 0
1, 85176, Note_on_c, 2, 67, 0
1, 85176, Note_on_c, 3, 31, 0
1, 85200, Note_on_c, 0, 72, 100
1, 85200, Note_on_c, 2, 69, 100
1, 85200, Note_on_c, 3, 43, 100
1, 85200, Note_on_c, 9, 44, 100
1, 85200, Note_on_c, 9, 36, 100
1, 85210, Note_on_c, 9, 44, 0
1, 85210, Note_on_c, 9, 36, 0
1, 85344, Note_on_c, 4, 67, 0
1, 85416, Note_on_c, 0, 72, 0
1, 85416, Note_on_c, 2, 69, 0
1, 85416, Note_on_c, 3, 43, 0
1, 85440, Note_on_c, 0, 74, 100
1, 85440, Note_on_c, 2, 70, 100
1, 85440, Note_on_c, 3, 34, 100
1, 85440, Note_on_c, 4, 70, 100
1, 85440, Note_on_c, 9, 44, 100
1, 85440, Note_on_c, 9, 10, 100
1, 85440, Note_on_c, 9, 51, 100
1, 85450, Note_on_c, 9, 44, 0
1, 85450, Note_on_c, 9, 10, 0
1, 85450, Note_on_c, 9, 51, 0
1, 85560, Note_on_c, 9, 10, 100
1, 85560, Note_on_c, 9, 44, 100
1, 85570, Note_on_c, 9, 10, 0
1, 85570, Note_on_c, 9, 44, 0
1, 85656, Note_on_c, 3, 34, 0
1, 85680, Note_on_c, 3, 46, 100
1, 85680, Note_on_c, 9, 36, 100
1, 85680, Note_on_c, 9, 44, 100
1, 85690, Note_on_c, 9, 36, 0
1, 85690, Note_on_c, 9, 44, 0
1, 85896, Note_on_c, 3, 46, 0
1, 85920, Note_on_c, 3, 34, 100
1, 85920, Note_on_c, 9, 44, 100
1, 85920, Note_on_c, 9, 10, 100
1, 85920, Note_on_c, 9, 51, 100
1, 85930, Note_on_c, 9, 44, 0
1, 85930, Note_on_c, 9, 10, 0
1, 85930, Note_on_c, 9, 51, 0
1, 86040, Note_on_c, 9, 44, 100
1, 86050, Note_on_c, 9, 44, 0
1, 86136, Note_on_c, 3, 34, 0
1, 86160, Note_on_c, 3, 46, 100
1, 86160, Note_on_c, 9, 36, 100
1, 86160, Note_on_c, 9, 44, 100
1, 86170, Note_on_c, 9, 36, 0
1, 86170, Note_on_c, 9, 44, 0
1, 86208, Note_on_c, 4, 58, 0
1, 86304, Note_on_c, 0, 74, 0
1, 86304, Note_on_c, 2, 70, 0
1, 86304, Note_on_c, 4, 70, 0
1, 86376, Note_on_c, 3, 46, 0
1, 86400, Note_on_c, 0, 67, 100
1, 86400, Note_on_c, 1, 62, 80
1, 86400, Note_on_c, 1, 67, 80
1, 86400, Note_on_c, 2, 62, 100
1, 86400, Note_on_c, 3, 27, 100
1, 86400, Note_on_c, 4, 63, 100
1, 86400, Note_on_c, 4, 55, 100
1, 86400, Note_on_c, 9, 51, 100
1, 86400, Note_on_c, 9, 44, 100
1, 86400, Note_on_c, 9, 10, 100
1, 86410, Note_on_c, 9, 51, 0
1, 86410, Note_on_c, 9, 44, 0
1, 86410, Note_on_c, 9, 10, 0
1, 86520, Note_on_c, 9, 44, 100
1, 86530, Note_on_c, 9, 44, 0
1, 86616, Note_on_c, 3, 27, 0
1, 86640, Note_on_c, 3, 39, 100
1, 86640, Note_on_c, 9, 36, 100
1, 86640, Note_on_c, 9, 44, 100
1, 86650, Note_on_c, 9, 36, 0
1, 86650, Note_on_c, 9, 44, 0
1, 86832, Note_on_c, 1, 62, 0
1, 86832, Note_on_c, 1, 67, 0
1, 86856, Note_on_c, 3, 39, 0
1, 86880, Note_on_c, 1, 62, 80
1, 86880, Note_on_c, 1, 67, 80
1, 86880, Note_on_c, 3, 27, 100
1, 86880, Note_on_c, 9, 10, 100
1, 86880, Note_on_c, 9, 44, 100
1, 86890, Note_on_c, 9, 10, 0
1, 86890, Note_on_c, 9, 44, 0
1, 86964, Note_on_c, 1, 62, 0
1, 86964, Note_on_c, 1, 67, 0
1, 87000, Note_on_c, 1, 62, 80
1, 87000, Note_on_c, 1, 67, 80
1, 87000, Note_on_c, 9, 44, 100
1, 87010, Note_on_c, 9, 44, 0
1, 87096, Note_on_c, 3, 27, 0
1, 87120, Note_on_c, 3, 39, 100
1, 87120, Note_on_c, 9, 36, 100
1, 87120, Note_on_c, 9, 44, 100
1, 87130, Note_on_c, 9, 36, 0
1, 87130, Note_on_c, 9, 44, 0
1, 87168, Note_on_c, 1, 62, 0
1, 87168, Note_on_c, 1, 67, 0
1, 87200, Note_on_c, 1, 62, 80
1, 87200, Note_on_c, 1, 67, 80
1, 87284, Note_on_c, 1, 62, 0
1, 87284, Note_on_c, 1, 67, 0
1, 87336, Note_on_c, 3, 39, 0
1, 87360, Note_on_c, 1, 62, 80
1, 87360, Note_on_c, 1, 67, 80
1, 87360, Note_on_c, 3, 27, 100
1, 87360, Note_on_c, 9, 10, 100
1, 87360, Note_on_c, 9, 44, 100
1, 87370, Note_on_c, 9, 10, 0
1, 87370, Note_on_c, 9, 44, 0
1, 87480, Note_on_c, 9, 10, 100
1, 87480, Note_on_c, 9, 44, 100
1, 87490, Note_on_c, 9, 10, 0
1, 87490, Note_on_c, 9, 44, 0
1, 87576, Note_on_c, 3, 27, 0
1, 87600, Note_on_c, 3, 39, 100
1, 87600, Note_on_c, 9, 36, 100
1, 87600, Note_on_c, 9, 44, 100
1, 87610, Note_on_c, 9, 36, 0
1, 87610, Note_on_c, 9, 44, 0
1, 87696, Note_on_c, 0, 67, 0
1, 87696, Note_on_c, 2, 62, 0
1, 87792, Note_on_c, 1, 62, 0
1, 87792, Note_on_c, 1, 67, 0
1, 87816, Note_on_c, 3, 39, 0
1, 87840, Note_on_c, 0, 74, 100
1, 87840, Note_on_c, 1, 60, 80
1, 87840, Note_on_c, 1, 65, 80
1, 87840, Note_on_c, 2, 69, 100
1, 87840, Note_on_c, 3, 27, 100
1, 87840, Note_on_c, 9, 10, 100
1, 87840, Note_on_c, 9, 44, 100
1, 87850, Note_on_c, 9, 10, 0
1, 87850, Note_on_c, 9, 44, 0
1, 87960, Note_on_c, 9, 44, 100
1, 87970, Note_on_c, 9, 44, 0
1, 88056, Note_on_c, 3, 27, 0
1, 88080, Note_on_c, 3, 39, 100
1, 88080, Note_on_c, 9, 36, 100
1, 88080, Note_on_c, 9, 44, 100
1, 88090, Note_on_c, 9, 36, 0
1, 88090, Note_on_c, 9, 44, 0
1, 88272, Note_on_c, 0, 74, 0
1, 88272, Note_on_c, 1, 60, 0
1, 88272, Note_on_c, 1, 65, 0
1, 88272, Note_on_c, 2, 69, 0
1, 88296, Note_on_c, 3, 39, 0
1, 88320, Note_on_c, 0, 67, 100
1, 88320, Note_on_c, 1, 62, 80
1, 88320, Note_on_c, 1, 67, 80
1, 88320, Note_on_c, 2, 62, 100
1, 88320, Note_on_c, 3, 29, 100
1, 88320, Note_on_c, 4, 63, 0
1, 88320, Note_on_c, 4, 55, 0
1, 88320, Note_on_c, 4, 57, 100
1, 88320, Note_on_c, 4, 65, 100
1, 88320, Note_on_c, 9, 44, 100
1, 88320, Note_on_c, 9, 10, 100
1, 88330, Note_on_c, 9, 44, 0
1, 88330, Note_on_c, 9, 10, 0
1, 88440, Note_on_c, 9, 44, 100
1, 88450, Note_on_c, 9, 44, 0
1, 88536, Note_on_c, 3, 29, 0
1, 88560, Note_on_c, 3, 41, 100
1, 88560, Note_on_c, 9, 36, 100
1, 88560, Note_on_c, 9, 44, 100
1, 88570, Note_on_c, 9, 36, 0
1, 88570, Note_on_c, 9, 44, 0
1, 88776, Note_on_c, 3, 41, 0
1, 88800, Note_on_c, 3, 29, 100
1, 88800, Note_on_c, 9, 10, 100
1, 88800, Note_on_c, 9, 44, 100
1, 88810, Note_on_c, 9, 10, 0
1, 88810, Note_on_c, 9, 44, 0
1, 88920, Note_on_c, 9, 44, 100
1, 88930, Note_on_c, 9, 44, 0
1, 89016, Note_on_c, 3, 29, 0
1, 89040, Note_on_c, 3, 41, 100
1, 89040, Note_on_c, 9, 36, 100
1, 89040, Note_on_c, 9, 44, 100
1, 89050, Note_on_c, 9, 36, 0
1, 89050, Note_on_c, 9, 44, 0
1, 89256, Note_on_c, 3, 41, 0
1, 89280, Note_on_c, 3, 29, 100
1, 89280, Note_on_c, 9, 51, 100
1, 89280, Note_on_c, 9, 44, 100
1, 89280, Note_on_c, 9, 10, 100
1, 89290, Note_on_c, 9, 51, 0
1, 89290, Note_on_c, 9, 44, 0
1, 89290, Note_on_c, 9, 10, 0
1, 89400, Note_on_c, 9, 10, 100
1, 89400, Note_on_c, 9, 44, 100
1, 89410, Note_on_c, 9, 10, 0
1, 89410, Note_on_c, 9, 44, 0
1, 89496, Note_on_c, 3, 29, 0
1, 89520, Note_on_c, 3, 41, 100
1, 89520, Note_on_c, 9, 36, 100
1, 89520, Note_on_c, 9, 44, 100
1, 89530, Note_on_c, 9, 36, 0
1, 89530, Note_on_c, 9, 44, 0
1, 89616, Note_on_c, 0, 67, 0
1, 89616, Note_on_c, 1, 62, 0
1, 89616, Note_on_c, 1, 67, 0
1, 89616, Note_on_c, 2, 62, 0
1, 89736, Note_on_c, 3, 41, 0
1, 89760, Note_on_c, 0, 74, 100
1, 89760, Note_on_c, 1, 60, 80
1, 89760, Note_on_c, 1, 65, 80
1, 89760, Note_on_c, 2, 69, 100
1, 89760, Note_on_c, 3, 29, 100
1, 89760, Note_on_c, 9, 51, 100
1, 89760, Note_on_c, 9, 44, 100
1, 89760, Note_on_c, 9, 10, 100
1, 89770, Note_on_c, 9, 51, 0
1, 89770, Note_on_c, 9, 44, 0
1, 89770, Note_on_c, 9, 10, 0
1, 89880, Note_on_c, 9, 44, 100
1, 89890, Note_on_c, 9, 44, 0
1, 89976, Note_on_c, 3, 29, 0
1, 90000, Note_on_c, 3, 41, 100
1, 90000, Note_on_c, 9, 36, 100
1, 90000, Note_on_c, 9, 44, 100
1, 90010, Note_on_c, 9, 36, 0
1, 90010, Note_on_c, 9, 44, 0
1, 90192, Note_on_c, 0, 74, 0
1, 90192, Note_on_c, 1, 60, 0
1, 90192, Note_on_c, 1, 65, 0
1, 90192, Note_on_c, 2, 69, 0
1, 90216, Note_on_c, 3, 41, 0
1, 90240, Note_on_c, 0, 67, 100
1, 90240, Note_on_c, 1, 62, 80
1, 90240, Note_on_c, 1, 67, 80
1, 90240, Note_on_c, 2, 62, 100
1, 90240, Note_on_c, 3, 31, 100
1, 90240, Note_on_c, 4, 57, 0
1, 90240, Note_on_c, 4, 65, 0
1, 90240, Note_on_c, 4, 58, 100
1, 90240, Note_on_c, 4, 67, 100
1, 90240, Note_on_c, 9, 44, 100
1, 90240, Note_on_c, 9, 10, 100
1, 90240, Note_on_c, 9, 51, 100
1, 90250, Note_on_c, 9, 44, 0
1, 90250, Note_on_c, 9, 10, 0
1, 90250, Note_on_c, 9, 51, 0
1, 90360, Note_on_c, 9, 44, 100
1, 90370, Note_on_c, 9, 44, 0
1, 90456, Note_on_c, 3, 31, 0
1, 90480, Note_on_c, 3, 43, 100
1, 90480, Note_on_c, 9, 44, 100
1, 90480, Note_on_c, 9, 36, 100
1, 90490, Note_on_c, 9, 44, 0
1, 90490, Note_on_c, 9, 36, 0
1, 90696, Note_on_c, 3, 43, 0
1, 90720, Note_on_c, 3, 31, 100
1, 90720, Note_on_c, 9, 44, 100
1, 90720, Note_on_c, 9, 10, 100
1, 90730, Note_on_c, 9, 44, 0
1, 90730, Note_on_c, 9, 10, 0
1, 90840, Note_on_c, 9, 44, 100
1, 90850, Note_on_c, 9, 44, 0
1, 90936, Note_on_c, 3, 31, 0
1, 90960, Note_on_c, 3, 43, 100
1, 90960, Note_on_c, 9, 44, 100
1, 90960, Note_on_c, 9, 36, 100
1, 90970, Note_on_c, 9, 44, 0
1, 90970, Note_on_c, 9, 36, 0
1, 91176, Note_on_c, 3, 43, 0
1, 91200, Note_on_c, 3, 31, 100
1, 91200, Note_on_c, 9, 44, 100
1, 91200, Note_on_c, 9, 10, 100
1, 91210, Note_on_c, 9, 44, 0
1, 91210, Note_on_c, 9, 10, 0
1, 91320, Note_on_c, 9, 44, 100
1, 91320, Note_on_c, 9, 10, 100
1, 91330, Note_on_c, 9, 44, 0
1, 91330, Note_on_c, 9, 10, 0
1, 91416, Note_on_c, 3, 31, 0
1, 91440, Note_on_c, 3, 43, 100
1, 91440, Note_on_c, 9, 44, 100
1, 91440, Note_on_c, 9, 36, 100
1, 91450, Note_on_c, 9, 44, 0
1, 91450, Note_on_c, 9, 36, 0
1, 91536, Note_on_c, 1, 62, 0
1, 91536, Note_on_c, 1, 67, 0
1, 91656, Note_on_c, 3, 43, 0
1, 91680, Note_on_c, 3, 31, 100
1, 91680, Note_on_c, 9, 44, 100
1, 91680, Note_on_c, 9, 10, 100
1, 91690, Note_on_c, 9, 44, 0
1, 91690, Note_on_c, 9, 10, 0
1, 91800, Note_on_c, 9, 44, 100
1, 91810, Note_on_c, 9, 44, 0
1, 91896, Note_on_c, 3, 31, 0
1, 91920, Note_on_c, 3, 43, 100
1, 91920, Note_on_c, 9, 44, 100
1, 91920, Note_on_c, 9, 36, 100
1, 91930, Note_on_c, 9, 44, 0
1, 91930, Note_on_c, 9, 36, 0
1, 91968, Note_on_c, 0, 67, 0
1, 91968, Note_on_c, 2, 62, 0
1, 92136, Note_on_c, 3, 43, 0
1, 92160, Note_on_c, 3, 31, 100
1, 92160, Note_on_c, 9, 44, 100
1, 92160, Note_on_c, 9, 10, 100
1, 92170, Note_on_c, 9, 44, 0
1, 92170, Note_on_c, 9, 10, 0
1, 92280, Note_on_c, 9, 44, 100
1, 92290, Note_on_c, 9, 44, 0
1, 92376, Note_on_c, 3, 31, 0
1, 92400, Note_on_c, 3, 43, 100
1, 92400, Note_on_c, 9, 36, 100
1, 92400, Note_on_c, 9, 44, 100
1, 92410, Note_on_c, 9, 36, 0
1, 92410, Note_on_c, 9, 44, 0
1, 92616, Note_on_c, 3, 43, 0
1, 92640, Note_on_c, 3, 31, 100
1, 92640, Note_on_c, 9, 44, 100
1, 92640, Note_on_c, 9, 10, 100
1, 92650, Note_on_c, 9, 44, 0
1, 92650, Note_on_c, 9, 10, 0
1, 92760, Note_on_c, 9, 44, 100
1, 92770, Note_on_c, 9, 44, 0
1, 92856, Note_on_c, 3, 31, 0
1, 92880, Note_on_c, 3, 43, 100
1, 92880, Note_on_c, 9, 44, 100
1, 92880, Note_on_c, 9, 36, 100
1, 92890, Note_on_c, 9, 44, 0
1, 92890, Note_on_c, 9, 36, 0
1, 93096, Note_on_c, 3, 43, 0
1, 93120, Note_on_c, 3, 31, 100
1, 93120, Note_on_c, 9, 44, 100
1, 93120, Note_on_c, 9, 10, 100
1, 93120, Note_on_c, 9, 51, 100
1, 93130, Note_on_c, 9, 44, 0
1, 93130, Note_on_c, 9, 10, 0
1, 93130, Note_on_c, 9, 51, 0
1, 93240, Note_on_c, 9, 10, 100
1, 93240, Note_on_c, 9, 44, 100
1, 93250, Note_on_c, 9, 10, 0
1, 93250, Note_on_c, 9, 44, 0
1, 93336, Note_on_c, 3, 31, 0
1, 93360, Note_on_c, 3, 43, 100
1, 93360, Note_on_c, 9, 36, 100
1, 93360, Note_on_c, 9, 44, 100
1, 93370, Note_on_c, 9, 36, 0
1, 93370, Note_on_c, 9, 44, 0
1, 93576, Note_on_c, 3, 43, 0
1, 93600, Note_on_c, 3, 31, 100
1, 93600, Note_on_c, 9, 44, 100
1, 93600, Note_on_c, 9, 10, 100
1, 93600, Note_on_c, 9, 51, 100
1, 93610, Note_on_c, 9, 44, 0
1, 93610, Note_on_c, 9, 10, 0
1, 93610, Note_on_c, 9, 51, 0
1, 93720, Note_on_c, 9, 44, 100
1, 93730, Note_on_c, 9, 44, 0
1, 93816, Note_on_c, 3, 31, 0
1, 93840, Note_on_c, 3, 43, 100
1, 93840, Note_on_c, 9, 36, 100
1, 93840, Note_on_c, 9, 44, 100
1, 93850, Note_on_c, 9, 36, 0
1, 93850, Note_on_c, 9, 44, 0
1, 94056, Note_on_c, 3, 43, 0
1, 94080, Note_on_c, 0, 77, 100
1, 94080, Control_c, 0, 10, 74
1, 94080, Note_on_c, 1, 72, 100
1, 94080, Control_c, 1, 10, 54
1, 94080, Note_on_c, 2, 62, 100
1, 94080, Note_on_c, 2, 67, 100
1, 94080, Note_on_c, 3, 27, 100
1, 94080, Note_on_c, 4, 58, 0
1, 94080, Note_on_c, 4, 67, 0
1, 94080, Note_on_c, 4, 55, 100
1, 94080, Note_on_c, 4, 63, 100
1, 94080, Note_on_c, 9, 44, 100
1, 94080, Note_on_c, 9, 10, 100
1, 94080, Note_on_c, 9, 51, 100
1, 94090, Note_on_c, 9, 44, 0
1, 94090, Note_on_c, 9, 10, 0
1, 94090, Note_on_c, 9, 51, 0
1, 94110, Control_c, 0, 10, 74
1, 94110, Control_c, 1, 10, 54
1, 94140, Control_c, 0, 10, 73
1, 94140, Control_c, 1, 10, 53
1, 94170, Control_c, 0, 10, 72
1, 94170, Control_c, 1, 10, 52
1, 94188, Note_on_c, 0, 77, 0
1, 94188, Note_on_c, 1, 72, 0
1, 94200, Note_on_c, 0, 76, 100
1, 94200, Control_c, 0, 10, 71
1, 94200, Note_on_c, 1, 70, 100
1, 94200, Control_c, 1, 10, 51
1, 94200, Note_on_c, 9, 44, 100
1, 94210, Note_on_c, 9, 44, 0
1, 94230, Control_c, 0, 10, 70
1, 94230, Control_c, 1, 10, 50
1, 94260, Control_c, 0, 10, 70
1, 94260, Control_c, 1, 10, 50
1, 94290, Control_c, 0, 10, 69
1, 94290, Control_c, 1, 10, 49
1, 94296, Note_on_c, 3, 27, 0
1, 94305, Note_on_c, 1, 70, 0
1, 94308, Note_on_c, 0, 76, 0
1, 94320, Note_on_c, 0, 74, 100
1, 94320, Control_c, 0, 10, 68
1, 94320, Note_on_c, 1, 69, 100
1, 94320, Control_c, 1, 10, 48
1, 94320, Note_on_c, 3, 39, 100
1, 94320, Note_on_c, 9, 44, 100
1, 94320, Note_on_c, 9, 36, 100
1, 94330, Note_on_c, 9, 44, 0
1, 94330, Note_on_c, 9, 36, 0
1, 94350, Control_c, 0, 10, 67
1, 94350, Control_c, 1, 10, 47
1, 94380, Control_c, 0, 10, 66
1, 94380, Control_c, 1, 10, 46
1, 94410, Control_c, 0, 10, 65
1, 94410, Control_c, 1, 10, 46
1, 94428, Note_on_c, 0, 74, 0
1, 94428, Note_on_c, 1, 69, 0
1, 94440, Note_on_c, 0, 72, 100
1, 94440, Control_c, 0, 10, 65
1, 94440, Note_on_c, 1, 67, 100
1, 94440, Control_c, 1, 10, 45
1, 94470, Control_c, 0, 10, 64
1, 94470, Control_c, 1, 10, 44
1, 94500, Control_c, 0, 10, 63
1, 94500, Control_c, 1, 10, 43
1, 94512, Note_on_c, 2, 62, 0
1, 94512, Note_on_c, 2, 67, 0
1, 94530, Control_c, 0, 10, 62
1, 94530, Control_c, 1, 10, 42
1, 94536, Note_on_c, 3, 39, 0
1, 94548, Note_on_c, 0, 72, 0
1, 94548, Note_on_c, 1, 67, 0
1, 94560, Note_on_c, 0, 70, 100
1, 94560, Control_c, 0, 10, 61
1, 94560, Note_on_c, 1, 65, 100
1, 94560, Control_c, 1, 10, 42
1, 94560, Note_on_c, 2, 62, 100
1, 94560, Note_on_c, 2, 67, 100
1, 94560, Note_on_c, 3, 27, 100
1, 94560, Note_on_c, 9, 44, 100
1, 94560, Note_on_c, 9, 10, 100
1, 94570, Note_on_c, 9, 44, 0
1, 94570, Note_on_c, 9, 10, 0
1, 94590, Control_c, 0, 10, 60
1, 94590, Control_c, 1, 10, 41
1, 94620, Control_c, 0, 10, 60
1, 94620, Control_c, 1, 10, 40
1, 94644, Note_on_c, 2, 62, 0
1, 94644, Note_on_c, 2, 67, 0
1, 94650, Control_c, 0, 10, 59
1, 94650, Control_c, 1, 10, 39
1, 94668, Note_on_c, 0, 70, 0
1, 94668, Note_on_c, 1, 65, 0
1, 94680, Note_on_c, 0, 72, 100
1, 94680, Control_c, 0, 10, 58
1, 94680, Note_on_c, 1, 67, 100
1, 94680, Control_c, 1, 10, 38
1, 94680, Note_on_c, 2, 62, 100
1, 94680, Note_on_c, 2, 67, 100
1, 94680, Note_on_c, 9, 44, 100
1, 94690, Note_on_c, 9, 44, 0
1, 94710, Control_c, 0, 10, 57
1, 94710, Control_c, 1, 10, 38
1, 94740, Control_c, 0, 10, 56
1, 94740, Control_c, 1, 10, 37
1, 94770, Control_c, 0, 10, 55
1, 94770, Control_c, 1, 10, 36
1, 94776, Note_on_c, 3, 27, 0
1, 94788, Note_on_c, 0, 72, 0
1, 94788, Note_on_c, 1, 67, 0
1, 94800, Note_on_c, 0, 70, 100
1, 94800, Control_c, 0, 10, 55
1, 94800, Note_on_c, 1, 65, 100
1, 94800, Control_c, 1, 10, 35
1, 94800, Note_on_c, 3, 39, 100
1, 94800, Note_on_c, 9, 44, 100
1, 94800, Note_on_c, 9, 36, 100
1, 94810, Note_on_c, 9, 44, 0
1, 94810, Note_on_c, 9, 36, 0
1, 94830, Control_c, 0, 10, 54
1, 94830, Control_c, 1, 10, 34
1, 94848, Note_on_c, 2, 62, 0
1, 94848, Note_on_c, 2, 67, 0
1, 94860, Control_c, 0, 10, 53
1, 94860, Control_c, 1, 10, 34
1, 94880, Note_on_c, 2, 62, 100
1, 94880, Note_on_c, 2, 67, 100
1, 94890, Control_c, 0, 10, 52
1, 94890, Control_c, 1, 10, 33
1, 94908, Note_on_c, 0, 70, 0
1, 94908, Note_on_c, 1, 65, 0
1, 94920, Note_on_c, 0, 69, 100
1, 94920, Control_c, 0, 10, 51
1, 94920, Note_on_c, 1, 64, 100
1, 94920, Control_c, 1, 10, 32
1, 94950, Control_c, 0, 10, 50
1, 94950, Control_c, 1, 10, 31
1, 94964, Note_on_c, 2, 62, 0
1, 94964, Note_on_c, 2, 67, 0
1, 94980, Control_c, 0, 10, 50
1, 94980, Control_c, 1, 10, 30
1, 95010, Control_c, 0, 10, 49
1, 95010, Control_c, 1, 10, 30
1, 95016, Note_on_c, 3, 39, 0
1, 95028, Note_on_c, 0, 69, 0
1, 95028, Note_on_c, 1, 64, 0
1, 95040, Note_on_c, 0, 70, 100
1, 95040, Control_c, 0, 10, 48
1, 95040, Note_on_c, 1, 65, 100
1, 95040, Control_c, 1, 10, 29
1, 95040, Note_on_c, 2, 62, 100
1, 95040, Note_on_c, 2, 67, 100
1, 95040, Note_on_c, 3, 27, 100
1, 95040, Note_on_c, 9, 44, 100
1, 95040, Note_on_c, 9, 10, 100
1, 95050, Note_on_c, 9, 44, 0
1, 95050, Note_on_c, 9, 10, 0
1, 95070, Control_c, 0, 10, 47
1, 95070, Control_c, 1, 10, 28
1, 95100, Control_c, 0, 10, 46
1, 95100, Control_c, 1, 10, 27
1, 95130, Control_c, 0, 10, 46
1, 95130, Control_c, 1, 10, 26
1, 95148, Note_on_c, 0, 70, 0
1, 95148, Note_on_c, 1, 65, 0
1, 95160, Note_on_c, 0, 72, 100
1, 95160, Control_c, 0, 10, 45
1, 95160, Note_on_c, 1, 67, 100
1, 95160, Control_c, 1, 10, 26
1, 95160, Note_on_c, 9, 44, 100
1, 95160, Note_on_c, 9, 10, 100
1, 95170, Note_on_c, 9, 44, 0
1, 95170, Note_on_c, 9, 10, 0
1, 95190, Control_c, 0, 10, 44
1, 95190, Control_c, 1, 10, 25
1, 95220, Control_c, 0, 10, 43
1, 95220, Control_c, 1, 10, 24
1, 95250, Control_c, 0, 10, 42
1, 95250, Control_c, 1, 10, 23
1, 95256, Note_on_c, 3, 27, 0
1, 95268, Note_on_c, 0, 72, 0
1, 95268, Note_on_c, 1, 67, 0
1, 95280, Note_on_c, 0, 70, 100
1, 95280, Control_c, 0, 10, 41
1, 95280, Note_on_c, 1, 65, 100
1, 95280, Control_c, 1, 10, 22
1, 95280, Note_on_c, 3, 39, 100
1, 95280, Note_on_c, 9, 44, 100
1, 95280, Note_on_c, 9, 36, 100
1, 95290, Note_on_c, 9, 44, 0
1, 95290, Note_on_c, 9, 36, 0
1, 95310, Control_c, 0, 10, 41
1, 95310, Control_c, 1, 10, 22
1, 95340, Control_c, 0, 10, 40
1, 95340, Control_c, 1, 10, 21
1, 95370, Control_c, 0, 10, 39
1, 95370, Control_c, 1, 10, 20
1, 95388, Note_on_c, 0, 70, 0
1, 95388, Note_on_c, 1, 65, 0
1, 95400, Note_on_c, 0, 69, 100
1, 95400, Control_c, 0, 10, 38
1, 95400, Note_on_c, 1, 64, 100
1, 95400, Control_c, 1, 10, 19
1, 95430, Control_c, 0, 10, 37
1, 95430, Control_c, 1, 10, 18
1, 95460, Control_c, 0, 10, 36
1, 95460, Control_c, 1, 10, 18
1, 95472, Note_on_c, 2, 62, 0
1, 95472, Note_on_c, 2, 67, 0
1, 95490, Control_c, 0, 10, 36
1, 95490, Control_c, 1, 10, 17
1, 95496, Note_on_c, 3, 39, 0
1, 95508, Note_on_c, 0, 69, 0
1, 95508, Note_on_c, 1, 64, 0
1, 95520, Note_on_c, 0, 67, 100
1, 95520, Control_c, 0, 10, 35
1, 95520, Note_on_c, 1, 62, 100
1, 95520, Control_c, 1, 10, 16
1, 95520, Note_on_c, 2, 60, 100
1, 95520, Note_on_c, 2, 65, 100
1, 95520, Note_on_c, 3, 27, 100
1, 95520, Note_on_c, 9, 44, 100
1, 95520, Note_on_c, 9, 10, 100
1, 95530, Note_on_c, 9, 44, 0
1, 95530, Note_on_c, 9, 10, 0
1, 95550, Control_c, 0, 10, 34
1, 95550, Control_c, 1, 10, 15
1, 95580, Control_c, 0, 10, 33
1, 95580, Control_c, 1, 10, 14
1, 95610, Control_c, 0, 10, 32
1, 95610, Control_c, 1, 10, 14
1, 95628, Note_on_c, 0, 67, 0
1, 95628, Note_on_c, 1, 62, 0
1, 95640, Note_on_c, 0, 69, 100
1, 95640, Control_c, 0, 10, 31
1, 95640, Note_on_c, 1, 64, 100
1, 95640, Control_c, 1, 10, 13
1, 95640, Note_on_c, 9, 44, 100
1, 95650, Note_on_c, 9, 44, 0
1, 95670, Control_c, 0, 10, 31
1, 95670, Control_c, 1, 10, 12
1, 95700, Control_c, 0, 10, 30
1, 95700, Control_c, 1, 10, 11
1, 95730, Control_c, 0, 10, 29
1, 95730, Control_c, 1, 10, 10
1, 95736, Note_on_c, 3, 27, 0
1, 95748, Note_on_c, 0, 69, 0
1, 95748, Note_on_c, 1, 64, 0
1, 95760, Note_on_c, 0, 67, 100
1, 95760, Control_c, 0, 10, 28
1, 95760, Note_on_c, 1, 62, 100
1, 95760, Control_c, 1, 10, 10
1, 95760, Note_on_c, 3, 39, 100
1, 95760, Note_on_c, 9, 44, 100
1, 95760, Note_on_c, 9, 36, 100
1, 95770, Note_on_c, 9, 44, 0
1, 95770, Note_on_c, 9, 36, 0
1, 95790, Control_c, 0, 10, 27
1, 95790, Control_c, 1, 10, 9
1, 95820, Control_c, 0, 10, 26
1, 95820, Control_c, 1, 10, 8
1, 95850, Control_c, 0, 10, 26
1, 95850, Control_c, 1, 10, 7
1, 95868, Note_on_c, 0, 67, 0
1, 95868, Note_on_c, 1, 62, 0
1, 95880, Note_on_c, 0, 65, 100
1, 95880, Control_c, 0, 10, 25
1, 95880, Note_on_c, 1, 60, 100
1, 95880, Control_c, 1, 10, 6
1, 95910, Control_c, 0, 10, 24
1, 95910, Control_c, 1, 10, 6
1, 95940, Control_c, 0, 10, 23
1, 95940, Control_c, 1, 10, 5
1, 95952, Note_on_c, 2, 60, 0
1, 95952, Note_on_c, 2, 65, 0
1, 95970, Control_c, 0, 10, 22
1, 95970, Control_c, 1, 10, 4
1, 95976, Note_on_c, 3, 39, 0
1, 95985, Control_c, 1, 10, 2
1, 95988, Note_on_c, 0, 65, 0
1, 95988, Note_on_c, 1, 60, 0
1, 96000, Note_on_c, 0, 67, 100
1, 96000, Note_on_c, 1, 62, 100
1, 96000, Note_on_c, 2, 62, 100
1, 96000, Note_on_c, 2, 67, 100
1, 96000, Note_on_c, 3, 29, 100
1, 96000, Note_on_c, 4, 55, 0
1, 96000, Note_on_c, 4, 63, 0
1, 96000, Note_on_c, 4, 65, 100
1, 96000, Note_on_c, 4, 57, 100
1, 96000, Note_on_c, 9, 10, 100
1, 96000, Note_on_c, 9, 44, 100
1, 96010, Note_on_c, 9, 10, 0
1, 96010, Note_on_c, 9, 44, 0
1, 96015, Control_c, 0, 10, 20
1, 96015, Control_c, 1, 10, 2
1, 96045, Control_c, 0, 10, 20
1, 96045, Control_c, 1, 10, 3
1, 96075, Control_c, 0, 10, 21
1, 96075, Control_c, 1, 10, 3
1, 96105, Control_c, 0, 10, 21
1, 96105, Control_c, 1, 10, 4
1, 96120, Note_on_c, 9, 44, 100
1, 96130, Note_on_c, 9, 44, 0
1, 96135, Control_c, 0, 10, 22
1, 96135, Control_c, 1, 10, 4
1, 96165, Control_c, 0, 10, 22
1, 96165, Control_c, 1, 10, 5
1, 96195, Control_c, 0, 10, 23
1, 96195, Control_c, 1, 10, 5
1, 96216, Note_on_c, 3, 29, 0
1, 96225, Control_c, 0, 10, 24
1, 96225, Control_c, 1, 10, 6
1, 96240, Note_on_c, 3, 41, 100
1, 96240, Note_on_c, 9, 44, 100
1, 96240, Note_on_c, 9, 36, 100
1, 96250, Note_on_c, 9, 44, 0
1, 96250, Note_on_c, 9, 36, 0
1, 96255, Control_c, 0, 10, 24
1, 96255, Control_c, 1, 10, 7
1, 96285, Control_c, 0, 10, 25
1, 96285, Control_c, 1, 10, 7
1, 96315, Control_c, 0, 10, 25
1, 96315, Control_c, 1, 10, 8
1, 96345, Control_c, 0, 10, 26
1, 96345, Control_c, 1, 10, 8
1, 96375, Control_c, 0, 10, 27
1, 96375, Control_c, 1, 10, 9
1, 96405, Control_c, 0, 10, 27
1, 96405, Control_c, 1, 10, 9
1, 96435, Control_c, 0, 10, 28
1, 96435, Control_c, 1, 10, 10
1, 96456, Note_on_c, 3, 41, 0
1, 96465, Control_c, 0, 10, 28
1, 96465, Control_c, 1, 10, 10
1, 96480, Note_on_c, 3, 29, 100
1, 96480, Note_on_c, 9, 44, 100
1, 96480, Note_on_c, 9, 10, 100
1, 96490, Note_on_c, 9, 44, 0
1, 96490, Note_on_c, 9, 10, 0
1, 96495, Control_c, 0, 10, 29
1, 96495, Control_c, 1, 10, 11
1, 96525, Control_c, 0, 10, 30
1, 96525, Control_c, 1, 10, 12
1, 96555, Control_c, 0, 10, 30
1, 96555, Control_c, 1, 10, 12
1, 96585, Control_c, 0, 10, 31
1, 96585, Control_c, 1, 10, 13
1, 96600, Note_on_c, 9, 44, 100
1, 96610, Note_on_c, 9, 44, 0
1, 96615, Control_c, 0, 10, 31
1, 96615, Control_c, 1, 10, 13
1, 96645, Control_c, 0, 10, 32
1, 96645, Control_c, 1, 10, 14
1, 96675, Control_c, 0, 10, 32
1, 96675, Control_c, 1, 10, 14
1, 96696, Note_on_c, 3, 29, 0
1, 96705, Control_c, 0, 10, 33
1, 96705, Control_c, 1, 10, 15
1, 96720, Note_on_c, 3, 41, 100
1, 96720, Note_on_c, 9, 44, 100
1, 96720, Note_on_c, 9, 36, 100
1, 96730, Note_on_c, 9, 44, 0
1, 96730, Note_on_c, 9, 36, 0
1, 96735, Control_c, 0, 10, 34
1, 96735, Control_c, 1, 10, 15
1, 96765, Control_c, 0, 10, 34
1, 96765, Control_c, 1, 10, 16
1, 96795, Control_c, 0, 10, 35
1, 96795, Control_c, 1, 10, 17
1, 96825, Control_c, 0, 10, 35
1, 96825, Control_c, 1, 10, 17
1, 96855, Control_c, 0, 10, 36
1, 96855, Control_c, 1, 10, 18
1, 96885, Control_c, 0, 10, 37
1, 96885, Control_c, 1, 10, 18
1, 96915, Control_c, 0, 10, 37
1, 96915, Control_c, 1, 10, 19
1, 96936, Note_on_c, 3, 41, 0
1, 96945, Control_c, 0, 10, 38
1, 96945, Control_c, 1, 10, 19
1, 96960, Note_on_c, 3, 29, 100
1, 96960, Note_on_c, 9, 44, 100
1, 96960, Note_on_c, 9, 10, 100
1, 96960, Note_on_c, 9, 51, 100
1, 96970, Note_on_c, 9, 44, 0
1, 96970, Note_on_c, 9, 10, 0
1, 96970, Note_on_c, 9, 51, 0
1, 96975, Control_c, 0, 10, 38
1, 96975, Control_c, 1, 10, 20
1, 97005, Control_c, 0, 10, 39
1, 97005, Control_c, 1, 10, 21
1, 97035, Control_c, 0, 10, 40
1, 97035, Control_c, 1, 10, 21
1, 97065, Control_c, 0, 10, 40
1, 97065, Control_c, 1, 10, 22
1, 97080, Note_on_c, 9, 44, 100
1, 97080, Note_on_c, 9, 10, 100
1, 97090, Note_on_c, 9, 44, 0
1, 97090, Note_on_c, 9, 10, 0
1, 97095, Control_c, 0, 10, 41
1, 97095, Control_c, 1, 10, 22
1, 97125, Control_c, 0, 10, 41
1, 97125, Control_c, 1, 10, 23
1, 97155, Control_c, 0, 10, 42
1, 97155, Control_c, 1, 10, 23
1, 97176, Note_on_c, 3, 29, 0
1, 97185, Control_c, 0, 10, 42
1, 97185, Control_c, 1, 10, 24
1, 97200, Note_on_c, 3, 41, 100
1, 97200, Note_on_c, 9, 44, 100
1, 97200, Note_on_c, 9, 36, 100
1, 97210, Note_on_c, 9, 44, 0
1, 97210, Note_on_c, 9, 36, 0
1, 97215, Control_c, 0, 10, 43
1, 97215, Control_c, 1, 10, 24
1, 97245, Control_c, 0, 10, 44
1, 97245, Control_c, 1, 10, 25
1, 97275, Control_c, 0, 10, 44
1, 97275, Control_c, 1, 10, 26
1, 97296, Note_on_c, 0, 67, 0
1, 97296, Note_on_c, 1, 62, 0
1, 97296, Note_on_c, 2, 62, 0
1, 97296, Note_on_c, 2, 67, 0
1, 97305, Control_c, 0, 10, 45
1, 97305, Control_c, 1, 10, 26
1, 97335, Control_c, 0, 10, 45
1, 97335, Control_c, 1, 10, 27
1, 97365, Control_c, 0, 10, 46
1, 97365, Control_c, 1, 10, 27
1, 97395, Control_c, 0, 10, 47
1, 97395, Control_c, 1, 10, 28
1, 97416, Note_on_c, 3, 41, 0
1, 97425, Control_c, 0, 10, 47
1, 97425, Control_c, 1, 10, 28
1, 97440, Note_on_c, 0, 65, 100
1, 97440, Note_on_c, 1, 60, 100
1, 97440, Note_on_c, 2, 60, 100
1, 97440, Note_on_c, 2, 65, 100
1, 97440, Note_on_c, 3, 29, 100
1, 97440, Note_on_c, 9, 44, 100
1, 97440, Note_on_c, 9, 10, 100
1, 97440, Note_on_c, 9, 51, 100
1, 97450, Note_on_c, 9, 44, 0
1, 97450, Note_on_c, 9, 10, 0
1, 97450, Note_on_c, 9, 51, 0
1, 97455, Control_c, 0, 10, 48
1, 97455, Control_c, 1, 10, 29
1, 97485, Control_c, 0, 10, 48
1, 97485, Control_c, 1, 10, 29
1, 97515, Control_c, 0, 10, 49
1, 97515, Control_c, 1, 10, 30
1, 97545, Control_c, 0, 10, 50
1, 97545, Control_c, 1, 10, 31
1, 97560, Note_on_c, 9, 44, 100
1, 97570, Note_on_c, 9, 44, 0
1, 97575, Control_c, 0, 10, 50
1, 97575, Control_c, 1, 10, 31
1, 97605, Control_c, 0, 10, 51
1, 97605, Control_c, 1, 10, 32
1, 97635, Control_c, 0, 10, 51
1, 97635, Control_c, 1, 10, 32
1, 97656, Note_on_c, 3, 29, 0
1, 97665, Control_c, 0, 10, 52
1, 97665, Control_c, 1, 10, 33
1, 97680, Note_on_c, 3, 41, 100
1, 97680, Note_on_c, 9, 44, 100
1, 97680, Note_on_c, 9, 36, 100
1, 97690, Note_on_c, 9, 44, 0
1, 97690, Note_on_c, 9, 36, 0
1, 97695, Control_c, 0, 10, 52
1, 97695, Control_c, 1, 10, 33
1, 97725, Control_c, 0, 10, 53
1, 97725, Control_c, 1, 10, 34
1, 97755, Control_c, 0, 10, 54
1, 97755, Control_c, 1, 10, 35
1, 97785, Control_c, 0, 10, 54
1, 97785, Control_c, 1, 10, 35
1, 97815, Control_c, 0, 10, 55
1, 97815, Control_c, 1, 10, 36
1, 97845, Control_c, 0, 10, 55
1, 97845, Control_c, 1, 10, 36
1, 97872, Note_on_c, 0, 65, 0
1, 97872, Note_on_c, 1, 60, 0
1, 97872, Note_on_c, 2, 60, 0
1, 97872, Note_on_c, 2, 65, 0
1, 97875, Control_c, 0, 10, 56
1, 97875, Control_c, 1, 10, 37
1, 97896, Note_on_c, 3, 41, 0
1, 97905, Control_c, 0, 10, 57
1, 97905, Control_c, 1, 10, 37
1, 97920, Note_on_c, 0, 67, 100
1, 97920, Note_on_c, 1, 62, 100
1, 97920, Note_on_c, 2, 62, 100
1, 97920, Note_on_c, 2, 67, 100
1, 97920, Note_on_c, 3, 31, 100
1, 97920, Note_on_c, 4, 65, 0
1, 97920, Note_on_c, 4, 57, 0
1, 97920, Note_on_c, 4, 67, 100
1, 97920, Note_on_c, 4, 58, 100
1, 97920, Note_on_c, 9, 10, 100
1, 97920, Note_on_c, 9, 51, 100
1, 97920, Note_on_c, 9, 44, 100
1, 97930, Note_on_c, 9, 10, 0
1, 97930, Note_on_c, 9, 51, 0
1, 97930, Note_on_c, 9, 44, 0
1, 97935, Control_c, 0, 10, 57
1, 97935, Control_c, 1, 10, 38
1, 97965, Control_c, 0, 10, 58
1, 97965, Control_c, 1, 10, 38
1, 97995, Control_c, 0, 10, 58
1, 97995, Control_c, 1, 10, 39
1, 98025, Control_c, 0, 10, 59
1, 98025, Control_c, 1, 10, 40
1, 98040, Note_on_c, 9, 44, 100
1, 98050, Note_on_c, 9, 44, 0
1, 98055, Control_c, 0, 10, 60
1, 98055, Control_c, 1, 10, 40
1, 98085, Control_c, 0, 10, 60
1, 98085, Control_c, 1, 10, 41
1, 98115, Control_c, 0, 10, 61
1, 98115, Control_c, 1, 10, 41
1, 98136, Note_on_c, 3, 31, 0
1, 98145, Control_c, 0, 10, 61
1, 98145, Control_c, 1, 10, 42
1, 98160, Note_on_c, 3, 43, 100
1, 98160, Note_on_c, 9, 36, 100
1, 98160, Note_on_c, 9, 44, 100
1, 98170, Note_on_c, 9, 36, 0
1, 98170, Note_on_c, 9, 44, 0
1, 98175, Control_c, 0, 10, 62
1, 98175, Control_c, 1, 10, 42
1, 98205, Control_c, 0, 10, 63
1, 98205, Control_c, 1, 10, 43
1, 98235, Control_c, 0, 10, 63
1, 98235, Control_c, 1, 10, 43
1, 98244, Note_on_c, 0, 67, 0
1, 98244, Note_on_c, 1, 62, 0
1, 98265, Control_c, 0, 10, 64
1, 98265, Control_c, 1, 10, 44
1, 98280, Note_on_c, 0, 74, 100
1, 98280, Note_on_c, 1, 69, 100
1, 98295, Control_c, 0, 10, 64
1, 98295, Control_c, 1, 10, 45
1, 98325, Control_c, 0, 10, 65
1, 98325, Control_c, 1, 10, 45
1, 98355, Control_c, 0, 10, 65
1, 98355, Control_c, 1, 10, 46
1, 98376, Note_on_c, 3, 43, 0
1, 98385, Control_c, 0, 10, 66
1, 98385, Control_c, 1, 10, 46
1, 98388, Note_on_c, 0, 74, 0
1, 98388, Note_on_c, 1, 69, 0
1, 98400, Note_on_c, 0, 74, 100
1, 98400, Note_on_c, 1, 69, 100
1, 98400, Note_on_c, 3, 31, 100
1, 98400, Note_on_c, 9, 10, 100
1, 98400, Note_on_c, 9, 44, 100
1, 98410, Note_on_c, 9, 10, 0
1, 98410, Note_on_c, 9, 44, 0
1, 98415, Control_c, 0, 10, 67
1, 98415, Control_c, 1, 10, 47
1, 98445, Control_c, 0, 10, 67
1, 98445, Control_c, 1, 10, 47
1, 98475, Control_c, 0, 10, 68
1, 98475, Control_c, 1, 10, 48
1, 98505, Control_c, 0, 10, 68
1, 98505, Control_c, 1, 10, 48
1, 98520, Note_on_c, 9, 44, 100
1, 98530, Note_on_c, 9, 44, 0
1, 98535, Control_c, 0, 10, 69
1, 98535, Control_c, 1, 10, 49
1, 98565, Control_c, 0, 10, 70
1, 98565, Control_c, 1, 10, 50
1, 98595, Control_c, 0, 10, 70
1, 98595, Control_c, 1, 10, 50
1, 98616, Note_on_c, 3, 31, 0
1, 98625, Control_c, 0, 10, 71
1, 98625, Control_c, 1, 10, 51
1, 98640, Note_on_c, 3, 43, 100
1, 98640, Note_on_c, 9, 36, 100
1, 98640, Note_on_c, 9, 44, 100
1, 98650, Note_on_c, 9, 36, 0
1, 98650, Note_on_c, 9, 44, 0
1, 98655, Control_c, 0, 10, 71
1, 98655, Control_c, 1, 10, 51
1, 98685, Control_c, 0, 10, 72
1, 98685, Control_c, 1, 10, 52
1, 98715, Control_c, 0, 10, 73
1, 98715, Control_c, 1, 10, 52
1, 98745, Control_c, 0, 10, 73
1, 98745, Control_c, 1, 10, 53
1, 98775, Control_c, 0, 10, 74
1, 98775, Control_c, 1, 10, 54
1, 98805, Control_c, 0, 10, 74
1, 98805, Control_c, 1, 10, 54
1, 98835, Control_c, 0, 10, 75
1, 98835, Control_c, 1, 10, 55
1, 98856, Note_on_c, 3, 43, 0
1, 98865, Control_c, 1, 10, 55
1, 98880, Note_on_c, 3, 31, 100
1, 98880, Note_on_c, 9, 10, 100
1, 98880, Note_on_c, 9, 44, 100
1, 98890, Note_on_c, 9, 10, 0
1, 98890, Note_on_c, 9, 44, 0
1, 99000, Note_on_c, 9, 10, 100
1, 99000, Note_on_c, 9, 44, 100
1, 99010, Note_on_c, 9, 10, 0
1, 99010, Note_on_c, 9, 44, 0
1, 99096, Note_on_c, 3, 31, 0
1, 99120, Note_on_c, 3, 43, 100
1, 99120, Note_on_c, 9, 36, 100
1, 99120, Note_on_c, 9, 44, 100
1, 99130, Note_on_c, 9, 36, 0
1, 99130, Note_on_c, 9, 44, 0
1, 99336, Note_on_c, 3, 43, 0
1, 99360, Note_on_c, 3, 31, 100
1, 99360, Note_on_c, 9, 10, 100
1, 99360, Note_on_c, 9, 44, 100
1, 99370, Note_on_c, 9, 10, 0
1, 99370, Note_on_c, 9, 44, 0
1, 99480, Note_on_c, 9, 44, 100
1, 99490, Note_on_c, 9, 44, 0
1, 99576, Note_on_c, 3, 31, 0
1, 99600, Note_on_c, 3, 43, 100
1, 99600, Note_on_c, 9, 36, 100
1, 99600, Note_on_c, 9, 44, 100
1, 99610, Note_on_c, 9, 36, 0
1, 99610, Note_on_c, 9, 44, 0
1, 99648, Note_on_c, 2, 62, 0
1, 99648, Note_on_c, 2, 67, 0
1, 99816, Note_on_c, 3, 43, 0
1, 99840, Note_on_c, 2, 65, 100
1, 99840, Control_c, 2, 10, 109
1, 99840, Note_on_c, 3, 34, 100
1, 99840, Note_on_c, 4, 67, 0
1, 99840, Note_on_c, 4, 70, 100
1, 99840, Note_on_c, 9, 10, 100
1, 99840, Note_on_c, 9, 44, 100
1, 99850, Note_on_c, 9, 10, 0
1, 99850, Note_on_c, 9, 44, 0
1, 99870, Control_c, 2, 10, 109
1, 99900, Control_c, 2, 10, 108
1, 99930, Control_c, 2, 10, 108
1, 99948, Note_on_c, 2, 65, 0
1, 99960, Note_on_c, 2, 64, 100
1, 99960, Control_c, 2, 10, 107
1, 99960, Note_on_c, 9, 44, 100
1, 99970, Note_on_c, 9, 44, 0
1, 99990, Control_c, 2, 10, 106
1, 100020, Control_c, 2, 10, 106
1, 100050, Control_c, 2, 10, 105
1, 100056, Note_on_c, 3, 34, 0
1, 100068, Note_on_c, 2, 64, 0
1, 100080, Note_on_c, 2, 62, 100
1, 100080, Control_c, 2, 10, 104
1, 100080, Note_on_c, 3, 46, 100
1, 100080, Note_on_c, 9, 44, 100
1, 100080, Note_on_c, 9, 36, 100
1, 100090, Note_on_c, 9, 44, 0
1, 100090, Note_on_c, 9, 36, 0
1, 100110, Control_c, 2, 10, 104
1, 100140, Control_c, 2, 10, 103
1, 100170, Control_c, 2, 10, 102
1, 100188, Note_on_c, 2, 62, 0
1, 100200, Note_on_c, 2, 60, 100
1, 100200, Control_c, 2, 10, 102
1, 100230, Control_c, 2, 10, 101
1, 100260, Control_c, 2, 10, 100
1, 100290, Control_c, 2, 10, 100
1, 100296, Note_on_c, 3, 46, 0
1, 100308, Note_on_c, 2, 60, 0
1, 100320, Note_on_c, 2, 58, 100
1, 100320, Control_c, 2, 10, 99
1, 100320, Note_on_c, 3, 33, 100
1, 100320, Note_on_c, 4, 70, 0
1, 100320, Note_on_c, 4, 69, 100
1, 100320, Note_on_c, 9, 10, 100
1, 100320, Note_on_c, 9, 44, 100
1, 100330, Note_on_c, 9, 10, 0
1, 100330, Note_on_c, 9, 44, 0
1, 100350, Control_c, 2, 10, 98
1, 100380, Control_c, 2, 10, 98
1, 100410, Control_c, 2, 10, 97
1, 100428, Note_on_c, 2, 58, 0
1, 100440, Note_on_c, 2, 60, 100
1, 100440, Control_c, 2, 10, 96
1, 100440, Note_on_c, 9, 44, 100
1, 100450, Note_on_c, 9, 44, 0
1, 100470, Control_c, 2, 10, 96
1, 100500, Control_c, 2, 10, 95
1, 100530, Control_c, 2, 10, 94
1, 100536, Note_on_c, 3, 33, 0
1, 100548, Note_on_c, 2, 60, 0
1, 100560, Note_on_c, 2, 58, 100
1, 100560, Control_c, 2, 10, 94
1, 100560, Note_on_c, 3, 45, 100
1, 100560, Note_on_c, 9, 36, 100
1, 100560, Note_on_c, 9, 44, 100
1, 100570, Note_on_c, 9, 36, 0
1, 100570, Note_on_c, 9, 44, 0
1, 100590, Control_c, 2, 10, 93
1, 100620, Control_c, 2, 10, 92
1, 100650, Control_c, 2, 10, 92
1, 100668, Note_on_c, 2, 58, 0
1, 100680, Note_on_c, 2, 57, 100
1, 100680, Control_c, 2, 10, 91
1, 100710, Control_c, 2, 10, 90
1, 100740, Control_c, 2, 10, 90
1, 100770, Control_c, 2, 10, 89
1, 100776, Note_on_c, 3, 45, 0
1, 100788, Note_on_c, 2, 57, 0
1, 100800, Note_on_c, 2, 58, 100
1, 100800, Control_c, 2, 10, 89
1, 100800, Note_on_c, 3, 31, 100
1, 100800, Note_on_c, 4, 69, 0
1, 100800, Note_on_c, 4, 67, 100
1, 100800, Note_on_c, 9, 10, 100
1, 100800, Note_on_c, 9, 51, 100
1, 100800, Note_on_c, 9, 44, 100
1, 100810, Note_on_c, 9, 10, 0
1, 100810, Note_on_c, 9, 51, 0
1, 100810, Note_on_c, 9, 44, 0
1, 100830, Control_c, 2, 10, 88
1, 100860, Control_c, 2, 10, 87
1, 100890, Control_c, 2, 10, 87
1, 100908, Note_on_c, 2, 58, 0
1, 100920, Note_on_c, 2, 60, 100
1, 100920, Control_c, 2, 10, 86
1, 100920, Note_on_c, 9, 44, 100
1, 100920, Note_on_c, 9, 10, 100
1, 100930, Note_on_c, 9, 44, 0
1, 100930, Note_on_c, 9, 10, 0
1, 100950, Control_c, 2, 10, 85
1, 100980, Control_c, 2, 10, 85
1, 101010, Control_c, 2, 10, 84
1, 101016, Note_on_c, 3, 31, 0
1, 101028, Note_on_c, 2, 60, 0
1, 101040, Note_on_c, 2, 58, 100
1, 101040, Control_c, 2, 10, 83
1, 101040, Note_on_c, 3, 43, 100
1, 101040, Note_on_c, 9, 44, 100
1, 101040, Note_on_c, 9, 36, 100
1, 101050, Note_on_c, 9, 44, 0
1, 101050, Note_on_c, 9, 36, 0
1, 101070, Control_c, 2, 10, 83
1, 101100, Control_c, 2, 10, 82
1, 101130, Control_c, 2, 10, 81
1, 101148, Note_on_c, 2, 58, 0
1, 101160, Note_on_c, 2, 57, 100
1, 101160, Control_c, 2, 10, 81
1, 101190, Control_c, 2, 10, 80
1, 101220, Control_c, 2, 10, 79
1, 101250, Control_c, 2, 10, 79
1, 101256, Note_on_c, 3, 43, 0
1, 101268, Note_on_c, 2, 57, 0
1, 101280, Note_on_c, 2, 55, 100
1, 101280, Control_c, 2, 10, 78
1, 101280, Note_on_c, 3, 29, 100
1, 101280, Note_on_c, 4, 67, 0
1, 101280, Note_on_c, 4, 65, 100
1, 101280, Note_on_c, 9, 10, 100
1, 101280, Note_on_c, 9, 51, 100
1, 101280, Note_on_c, 9, 44, 100
1, 101290, Note_on_c, 9, 10, 0
1, 101290, Note_on_c, 9, 51, 0
1, 101290, Note_on_c, 9, 44, 0
1, 101310, Control_c, 2, 10, 77
1, 101340, Control_c, 2, 10, 77
1, 101370, Control_c, 2, 10, 76
1, 101388, Note_on_c, 2, 55, 0
1, 101400, Note_on_c, 2, 57, 100
1, 101400, Control_c, 2, 10, 75
1, 101400, Note_on_c, 9, 44, 100
1, 101410, Note_on_c, 9, 44, 0
1, 101430, Control_c, 2, 10, 75
1, 101460, Control_c, 2, 10, 74
1, 101490, Control_c, 2, 10, 73
1, 101496, Note_on_c, 3, 29, 0
1, 101508, Note_on_c, 2, 57, 0
1, 101520, Note_on_c, 2, 55, 100
1, 101520, Control_c, 2, 10, 73
1, 101520, Note_on_c, 3, 41, 100
1, 101520, Note_on_c, 9, 44, 100
1, 101520, Note_on_c, 9, 36, 100
1, 101530, Note_on_c, 9, 44, 0
1, 101530, Note_on_c, 9, 36, 0
1, 101550, Control_c, 2, 10, 72
1, 101568, Note_on_c, 0, 74, 0
1, 101568, Note_on_c, 1, 69, 0
1, 101568, Note_on_c, 4, 58, 0
1, 101580, Control_c, 2, 10, 71
1, 101610, Control_c, 2, 10, 71
1, 101628, Note_on_c, 2, 55, 0
1, 101640, Note_on_c, 2, 53, 100
1, 101640, Control_c, 2, 10, 70
1, 101670, Control_c, 2, 10, 69
1, 101700, Control_c, 2, 10, 69
1, 101730, Control_c, 0, 10, 73
1, 101730, Control_c, 2, 10, 68
1, 101736, Note_on_c, 3, 41, 0
1, 101748, Note_on_c, 2, 53, 0
1, 101760, Note_on_c, 0, 77, 100
1, 101760, Control_c, 0, 10, 73
1, 101760, Note_on_c, 1, 72, 100
1, 101760, Note_on_c, 2, 62, 100
1, 101760, Note_on_c, 2, 67, 100
1, 101760, Control_c, 2, 10, 110
1, 101760, Note_on_c, 3, 27, 100
1, 101760, Note_on_c, 4, 65, 0
1, 101760, Note_on_c, 4, 55, 100
1, 101760, Note_on_c, 4, 63, 100
1, 101760, Note_on_c, 9, 44, 100
1, 101760, Note_on_c, 9, 10, 100
1, 101760, Note_on_c, 9, 51, 100
1, 101770, Note_on_c, 9, 44, 0
1, 101770, Note_on_c, 9, 10, 0
1, 101770, Note_on_c, 9, 51, 0
1, 101775, Control_c, 1, 10, 55
1, 101790, Control_c, 0, 10, 72
1, 101790, Control_c, 2, 10, 110
1, 101805, Control_c, 1, 10, 55
1, 101820, Control_c, 0, 10, 71
1, 101820, Control_c, 2, 10, 110
1, 101835, Control_c, 1, 10, 54
1, 101850, Control_c, 0, 10, 70
1, 101850, Control_c, 2, 10, 110
1, 101865, Control_c, 1, 10, 53
1, 101868, Note_on_c, 0, 77, 0
1, 101868, Note_on_c, 1, 72, 0
1, 101880, Note_on_c, 0, 76, 100
1, 101880, Control_c, 0, 10, 69
1, 101880, Note_on_c, 1, 70, 100
1, 101880, Control_c, 2, 10, 110
1, 101880, Note_on_c, 9, 44, 100
1, 101890, Note_on_c, 9, 44, 0
1, 101895, Control_c, 1, 10, 52
1, 101910, Control_c, 0, 10, 69
1, 101925, Control_c, 1, 10, 51
1, 101940, Control_c, 0, 10, 68
1, 101955, Control_c, 1, 10, 50
1, 101970, Control_c, 0, 10, 67
1, 101976, Note_on_c, 3, 27, 0
1, 101985, Note_on_c, 1, 70, 0
1, 101985, Control_c, 1, 10, 50
1, 101988, Note_on_c, 0, 76, 0
1, 102000, Note_on_c, 0, 74, 100
1, 102000, Control_c, 0, 10, 66
1, 102000, Note_on_c, 1, 69, 100
1, 102000, Note_on_c, 3, 39, 100
1, 102000, Note_on_c, 9, 44, 100
1, 102000, Note_on_c, 9, 36, 100
1, 102010, Note_on_c, 9, 44, 0
1, 102010, Note_on_c, 9, 36, 0
1, 102015, Control_c, 1, 10, 49
1, 102030, Control_c, 0, 10, 65
1, 102045, Control_c, 1, 10, 48
1, 102060, Control_c, 0, 10, 65
1, 102075, Control_c, 1, 10, 47
1, 102090, Control_c, 0, 10, 64
1, 102105, Control_c, 1, 10, 46
1, 102108, Note_on_c, 0, 74, 0
1, 102108, Note_on_c, 1, 69, 0
1, 102120, Note_on_c, 0, 72, 100
1, 102120, Control_c, 0, 10, 63
1, 102120, Note_on_c, 1, 67, 100
1, 102135, Control_c, 1, 10, 45
1, 102150, Control_c, 0, 10, 62
1, 102165, Control_c, 1, 10, 44
1, 102180, Control_c, 0, 10, 61
1, 102192, Note_on_c, 2, 62, 0
1, 102192, Note_on_c, 2, 67, 0
1, 102195, Control_c, 1, 10, 44
1, 102210, Control_c, 0, 10, 61
1, 102216, Note_on_c, 3, 39, 0
1, 102225, Control_c, 1, 10, 43
1, 102228, Note_on_c, 0, 72, 0
1, 102228, Note_on_c, 1, 67, 0
1, 102240, Note_on_c, 0, 70, 100
1, 102240, Control_c, 0, 10, 60
1, 102240, Note_on_c, 1, 65, 100
1, 102240, Note_on_c, 2, 62, 100
1, 102240, Note_on_c, 2, 67, 100
1, 102240, Note_on_c, 3, 27, 100
1, 102240, Note_on_c, 9, 44, 100
1, 102240, Note_on_c, 9, 10, 100
1, 102250, Note_on_c, 9, 44, 0
1, 102250, Note_on_c, 9, 10, 0
1, 102255, Control_c, 1, 10, 42
1, 102270, Control_c, 0, 10, 59
1, 102285, Control_c, 1, 10, 41
1, 102300, Control_c, 0, 10, 58
1, 102315, Control_c, 1, 10, 40
1, 102330, Control_c, 0, 10, 57
1, 102345, Control_c, 1, 10, 39
1, 102348, Note_on_c, 0, 70, 0
1, 102348, Note_on_c, 1, 65, 0
1, 102360, Note_on_c, 0, 72, 100
1, 102360, Control_c, 0, 10, 57
1, 102360, Note_on_c, 1, 67, 100
1, 102360, Note_on_c, 9, 44, 100
1, 102370, Note_on_c, 9, 44, 0
1, 102375, Control_c, 1, 10, 38
1, 102384, Note_on_c, 2, 62, 0
1, 102384, Note_on_c, 2, 67, 0
1, 102390, Control_c, 0, 10, 56
1, 102400, Note_on_c, 2, 62, 100
1, 102400, Note_on_c, 2, 67, 100
1, 102405, Control_c, 1, 10, 38
1, 102420, Control_c, 0, 10, 55
1, 102435, Control_c, 1, 10, 37
1, 102450, Control_c, 0, 10, 54
1, 102456, Note_on_c, 3, 27, 0
1, 102465, Control_c, 1, 10, 36
1, 102468, Note_on_c, 0, 72, 0
1, 102468, Note_on_c, 1, 67, 0
1, 102480, Note_on_c, 0, 70, 100
1, 102480, Control_c, 0, 10, 53
1, 102480, Note_on_c, 1, 65, 100
1, 102480, Note_on_c, 3, 39, 100
1, 102480, Note_on_c, 9, 44, 100
1, 102480, Note_on_c, 9, 36, 100
1, 102490, Note_on_c, 9, 44, 0
1, 102490, Note_on_c, 9, 36, 0
1, 102495, Control_c, 1, 10, 35
1, 102510, Control_c, 0, 10, 53
1, 102525, Control_c, 1, 10, 34
1, 102540, Control_c, 0, 10, 52
1, 102544, Note_on_c, 2, 62, 0
1, 102544, Note_on_c, 2, 67, 0
1, 102555, Control_c, 1, 10, 33
1, 102560, Note_on_c, 2, 62, 100
1, 102560, Note_on_c, 2, 67, 100
1, 102570, Control_c, 0, 10, 51
1, 102585, Control_c, 1, 10, 32
1, 102588, Note_on_c, 0, 70, 0
1, 102588, Note_on_c, 1, 65, 0
1, 102600, Note_on_c, 0, 69, 100
1, 102600, Control_c, 0, 10, 50
1, 102600, Note_on_c, 1, 63, 100
1, 102615, Control_c, 1, 10, 32
1, 102630, Control_c, 0, 10, 49
1, 102645, Control_c, 1, 10, 31
1, 102660, Control_c, 0, 10, 49
1, 102675, Control_c, 1, 10, 30
1, 102690, Control_c, 0, 10, 48
1, 102696, Note_on_c, 3, 39, 0
1, 102704, Note_on_c, 2, 62, 0
1, 102704, Note_on_c, 2, 67, 0
1, 102705, Control_c, 1, 10, 29
1, 102708, Note_on_c, 0, 69, 0
1, 102708, Note_on_c, 1, 63, 0
1, 102720, Note_on_c, 0, 70, 100
1, 102720, Control_c, 0, 10, 47
1, 102720, Note_on_c, 1, 65, 100
1, 102720, Note_on_c, 2, 62, 100
1, 102720, Note_on_c, 2, 67, 100
1, 102720, Note_on_c, 3, 27, 100
1, 102720, Note_on_c, 9, 44, 100
1, 102720, Note_on_c, 9, 10, 100
1, 102730, Note_on_c, 9, 44, 0
1, 102730, Note_on_c, 9, 10, 0
1, 102735, Control_c, 1, 10, 28
1, 102750, Control_c, 0, 10, 46
1, 102765, Control_c, 1, 10, 27
1, 102780, Control_c, 0, 10, 45
1, 102795, Control_c, 1, 10, 26
1, 102810, Control_c, 0, 10, 44
1, 102825, Control_c, 1, 10, 26
1, 102828, Note_on_c, 0, 70, 0
1, 102828, Note_on_c, 1, 65, 0
1, 102840, Note_on_c, 0, 72, 100
1, 102840, Control_c, 0, 10, 44
1, 102840, Note_on_c, 1, 67, 100
1, 102840, Note_on_c, 9, 44, 100
1, 102840, Note_on_c, 9, 10, 100
1, 102850, Note_on_c, 9, 44, 0
1, 102850, Note_on_c, 9, 10, 0
1, 102855, Control_c, 1, 10, 25
1, 102870, Control_c, 0, 10, 43
1, 102885, Control_c, 1, 10, 24
1, 102900, Control_c, 0, 10, 42
1, 102915, Control_c, 1, 10, 23
1, 102930, Control_c, 0, 10, 41
1, 102936, Note_on_c, 3, 27, 0
1, 102945, Control_c, 1, 10, 22
1, 102948, Note_on_c, 0, 72, 0
1, 102948, Note_on_c, 1, 67, 0
1, 102960, Note_on_c, 0, 74, 100
1, 102960, Control_c, 0, 10, 40
1, 102960, Note_on_c, 1, 69, 100
1, 102960, Note_on_c, 3, 39, 100
1, 102960, Note_on_c, 9, 44, 100
1, 102960, Note_on_c, 9, 36, 100
1, 102970, Note_on_c, 9, 44, 0
1, 102970, Note_on_c, 9, 36, 0
1, 102975, Control_c, 1, 10, 21
1, 102990, Control_c, 0, 10, 40
1, 103005, Control_c, 1, 10, 20
1, 103020, Control_c, 0, 10, 39
1, 103035, Control_c, 1, 10, 20
1, 103050, Control_c, 0, 10, 38
1, 103065, Control_c, 1, 10, 19
1, 103068, Note_on_c, 0, 74, 0
1, 103068, Note_on_c, 1, 69, 0
1, 103080, Note_on_c, 0, 70, 100
1, 103080, Control_c, 0, 10, 37
1, 103080, Note_on_c, 1, 65, 100
1, 103095, Control_c, 1, 10, 18
1, 103110, Control_c, 0, 10, 36
1, 103125, Control_c, 1, 10, 17
1, 103140, Control_c, 0, 10, 36
1, 103152, Note_on_c, 2, 62, 0
1, 103152, Note_on_c, 2, 67, 0
1, 103155, Control_c, 1, 10, 16
1, 103170, Control_c, 0, 10, 35
1, 103176, Note_on_c, 3, 39, 0
1, 103185, Control_c, 1, 10, 15
1, 103188, Note_on_c, 0, 70, 0
1, 103188, Note_on_c, 1, 65, 0
1, 103200, Note_on_c, 0, 69, 100
1, 103200, Control_c, 0, 10, 34
1, 103200, Note_on_c, 1, 63, 100
1, 103200, Note_on_c, 2, 60, 100
1, 103200, Note_on_c, 2, 65, 100
1, 103200, Note_on_c, 3, 27, 100
1, 103200, Note_on_c, 9, 44, 100
1, 103200, Note_on_c, 9, 10, 100
1, 103210, Note_on_c, 9, 44, 0
1, 103210, Note_on_c, 9, 10, 0
1, 103215, Control_c, 1, 10, 14
1, 103230, Control_c, 0, 10, 33
1, 103245, Control_c, 1, 10, 14
1, 103260, Control_c, 0, 10, 32
1, 103275, Control_c, 1, 10, 13
1, 103290, Control_c, 0, 10, 32
1, 103305, Control_c, 1, 10, 12
1, 103308, Note_on_c, 0, 69, 0
1, 103308, Note_on_c, 1, 63, 0
1, 103320, Note_on_c, 0, 70, 100
1, 103320, Control_c, 0, 10, 31
1, 103320, Note_on_c, 1, 65, 100
1, 103320, Note_on_c, 9, 44, 100
1, 103330, Note_on_c, 9, 44, 0
1, 103335, Control_c, 1, 10, 11
1, 103350, Control_c, 0, 10, 30
1, 103365, Control_c, 1, 10, 10
1, 103380, Control_c, 0, 10, 29
1, 103395, Control_c, 1, 10, 9
1, 103410, Control_c, 0, 10, 28
1, 103416, Note_on_c, 3, 27, 0
1, 103425, Control_c, 1, 10, 8
1, 103428, Note_on_c, 0, 70, 0
1, 103428, Note_on_c, 1, 65, 0
1, 103440, Note_on_c, 0, 69, 100
1, 103440, Control_c, 0, 10, 28
1, 103440, Note_on_c, 1, 63, 100
1, 103440, Note_on_c, 3, 39, 100
1, 103440, Note_on_c, 9, 44, 100
1, 103440, Note_on_c, 9, 36, 100
1, 103450, Note_on_c, 9, 44, 0
1, 103450, Note_on_c, 9, 36, 0
1, 103455, Control_c, 1, 10, 8
1, 103470, Control_c, 0, 10, 27
1, 103485, Control_c, 1, 10, 7
1, 103500, Control_c, 0, 10, 26
1, 103515, Control_c, 1, 10, 6
1, 103530, Control_c, 0, 10, 25
1, 103545, Control_c, 1, 10, 5
1, 103548, Note_on_c, 0, 69, 0
1, 103548, Note_on_c, 1, 63, 0
1, 103560, Note_on_c, 0, 65, 100
1, 103560, Control_c, 0, 10, 24
1, 103560, Note_on_c, 1, 60, 100
1, 103575, Control_c, 1, 10, 4
1, 103590, Control_c, 0, 10, 24
1, 103605, Control_c, 1, 10, 3
1, 103620, Control_c, 0, 10, 23
1, 103632, Note_on_c, 2, 60, 0
1, 103632, Note_on_c, 2, 65, 0
1, 103635, Control_c, 1, 10, 2
1, 103650, Control_c, 0, 10, 22
1, 103650, Control_c, 1, 10, 3
1, 103656, Note_on_c, 3, 39, 0
1, 103665, Control_c, 0, 10, 20
1, 103668, Note_on_c, 0, 65, 0
1, 103668, Note_on_c, 1, 60, 0
1, 103680, Note_on_c, 0, 67, 100
1, 103680, Note_on_c, 1, 62, 100
1, 103680, Control_c, 1, 10, 3
1, 103680, Note_on_c, 2, 62, 100
1, 103680, Note_on_c, 2, 67, 100
1, 103680, Note_on_c, 3, 29, 100
1, 103680, Note_on_c, 4, 55, 0
1, 103680, Note_on_c, 4, 63, 0
1, 103680, Note_on_c, 4, 65, 100
1, 103680, Note_on_c, 4, 57, 100
1, 103680, Note_on_c, 9, 10, 100
1, 103680, Note_on_c, 9, 44, 100
1, 103690, Note_on_c, 9, 10, 0
1, 103690, Note_on_c, 9, 44, 0
1, 103695, Control_c, 0, 10, 20
1, 103710, Control_c, 1, 10, 4
1, 103725, Control_c, 0, 10, 21
1, 103740, Control_c, 1, 10, 5
1, 103755, Control_c, 0, 10, 22
1, 103770, Control_c, 1, 10, 6
1, 103785, Control_c, 0, 10, 22
1, 103800, Control_c, 1, 10, 7
1, 103800, Note_on_c, 9, 44, 100
1, 103810, Note_on_c, 9, 44, 0
1, 103815, Control_c, 0, 10, 23
1, 103830, Control_c, 1, 10, 7
1, 103845, Control_c, 0, 10, 24
1, 103860, Control_c, 1, 10, 8
1, 103875, Control_c, 0, 10, 24
1, 103890, Control_c, 1, 10, 9
1, 103896, Note_on_c, 3, 29, 0
1, 103905, Control_c, 0, 10, 25
1, 103920, Control_c, 1, 10, 10
1, 103920, Note_on_c, 3, 41, 100
1, 103920, Note_on_c, 9, 44, 100
1, 103920, Note_on_c, 9, 36, 100
1, 103930, Note_on_c, 9, 44, 0
1, 103930, Note_on_c, 9, 36, 0
1, 103935, Control_c, 0, 10, 26
1, 103950, Control_c, 1, 10, 11
1, 103965, Control_c, 0, 10, 26
1, 103980, Control_c, 1, 10, 11
1, 103995, Control_c, 0, 10, 27
1, 104010, Control_c, 1, 10, 12
1, 104025, Control_c, 0, 10, 28
1, 104040, Control_c, 1, 10, 13
1, 104055, Control_c, 0, 10, 29
1, 104070, Control_c, 1, 10, 14
1, 104085, Control_c, 0, 10, 29
1, 104100, Control_c, 1, 10, 15
1, 104115, Control_c, 0, 10, 30
1, 104130, Control_c, 1, 10, 16
1, 104136, Note_on_c, 3, 41, 0
1, 104145, Control_c, 0, 10, 31
1, 104160, Control_c, 1, 10, 16
1, 104160, Note_on_c, 3, 29, 100
1, 104160, Note_on_c, 9, 44, 100
1, 104160, Note_on_c, 9, 10, 100
1, 104170, Note_on_c, 9, 44, 0
1, 104170, Note_on_c, 9, 10, 0
1, 104175, Control_c, 0, 10, 31
1, 104190, Control_c, 1, 10, 17
1, 104205, Control_c, 0, 10, 32
1, 104220, Control_c, 1, 10, 18
1, 104235, Control_c, 0, 10, 33
1, 104250, Control_c, 1, 10, 19
1, 104265, Control_c, 0, 10, 33
1, 104280, Control_c, 1, 10, 20
1, 104280, Note_on_c, 9, 44, 100
1, 104290, Note_on_c, 9, 44, 0
1, 104295, Control_c, 0, 10, 34
1, 104310, Control_c, 1, 10, 20
1, 104325, Control_c, 0, 10, 35
1, 104340, Control_c, 1, 10, 21
1, 104355, Control_c, 0, 10, 36
1, 104370, Control_c, 1, 10, 22
1, 104376, Note_on_c, 3, 29, 0
1, 104385, Control_c, 0, 10, 36
1, 104400, Control_c, 1, 10, 23
1, 104400, Note_on_c, 3, 41, 100
1, 104400, Note_on_c, 9, 44, 100
1, 104400, Note_on_c, 9, 36, 100
1, 104410, Note_on_c, 9, 44, 0
1, 104410, Note_on_c, 9, 36, 0
1, 104415, Control_c, 0, 10, 37
1, 104430, Control_c, 1, 10, 24
1, 104445, Control_c, 0, 10, 38
1, 104460, Control_c, 1, 10, 25
1, 104475, Control_c, 0, 10, 38
1, 104490, Control_c, 1, 10, 25
1, 104505, Control_c, 0, 10, 39
1, 104520, Control_c, 1, 10, 26
1, 104535, Control_c, 0, 10, 40
1, 104550, Control_c, 1, 10, 27
1, 104565, Control_c, 0, 10, 40
1, 104580, Control_c, 1, 10, 28
1, 104595, Control_c, 0, 10, 41
1, 104610, Control_c, 1, 10, 29
1, 104616, Note_on_c, 3, 41, 0
1, 104625, Control_c, 0, 10, 42
1, 104640, Control_c, 1, 10, 29
1, 104640, Note_on_c, 3, 29, 100
1, 104640, Note_on_c, 9, 44, 100
1, 104640, Note_on_c, 9, 10, 100
1, 104640, Note_on_c, 9, 51, 100
1, 104650, Note_on_c, 9, 44, 0
1, 104650, Note_on_c, 9, 10, 0
1, 104650, Note_on_c, 9, 51, 0
1, 104655, Control_c, 0, 10, 43
1, 104670, Control_c, 1, 10, 30
1, 104685, Control_c, 0, 10, 43
1, 104700, Control_c, 1, 10, 31
1, 104715, Control_c, 0, 10, 44
1, 104730, Control_c, 1, 10, 32
1, 104745, Control_c, 0, 10, 45
1, 104760, Control_c, 1, 10, 33
1, 104760, Note_on_c, 9, 44, 100
1, 104760, Note_on_c, 9, 10, 100
1, 104770, Note_on_c, 9, 44, 0
1, 104770, Note_on_c, 9, 10, 0
1, 104775, Control_c, 0, 10, 45
1, 104790, Control_c, 1, 10, 33
1, 104805, Control_c, 0, 10, 46
1, 104820, Control_c, 1, 10, 34
1, 104835, Control_c, 0, 10, 47
1, 104850, Control_c, 1, 10, 35
1, 104856, Note_on_c, 3, 29, 0
1, 104865, Control_c, 0, 10, 47
1, 104880, Control_c, 1, 10, 36
1, 104880, Note_on_c, 3, 41, 100
1, 104880, Note_on_c, 9, 44, 100
1, 104880, Note_on_c, 9, 36, 100
1, 104890, Note_on_c, 9, 44, 0
1, 104890, Note_on_c, 9, 36, 0
1, 104895, Control_c, 0, 10, 48
1, 104910, Control_c, 1, 10, 37
1, 104925, Control_c, 0, 10, 49
1, 104940, Control_c, 1, 10, 38
1, 104955, Control_c, 0, 10, 50
1, 104970, Control_c, 1, 10, 38
1, 104976, Note_on_c, 0, 67, 0
1, 104976, Note_on_c, 1, 62, 0
1, 104976, Note_on_c, 2, 62, 0
1, 104976, Note_on_c, 2, 67, 0
1, 104985, Control_c, 0, 10, 50
1, 105000, Control_c, 1, 10, 39
1, 105015, Control_c, 0, 10, 51
1, 105030, Control_c, 1, 10, 40
1, 105045, Control_c, 0, 10, 52
1, 105060, Control_c, 1, 10, 41
1, 105075, Control_c, 0, 10, 52
1, 105090, Control_c, 1, 10, 42
1, 105096, Note_on_c, 3, 41, 0
1, 105105, Control_c, 0, 10, 53
1, 105120, Note_on_c, 0, 65, 100
1, 105120, Note_on_c, 1, 60, 100
1, 105120, Control_c, 1, 10, 42
1, 105120, Note_on_c, 2, 60, 100
1, 105120, Note_on_c, 2, 65, 100
1, 105120, Note_on_c, 3, 29, 100
1, 105120, Note_on_c, 9, 44, 100
1, 105120, Note_on_c, 9, 10, 100
1, 105120, Note_on_c, 9, 51, 100
1, 105130, Note_on_c, 9, 44, 0
1, 105130, Note_on_c, 9, 10, 0
1, 105130, Note_on_c, 9, 51, 0
1, 105135, Control_c, 0, 10, 54
1, 105150, Control_c, 1, 10, 43
1, 105165, Control_c, 0, 10, 54
1, 105180, Control_c, 1, 10, 44
1, 105195, Control_c, 0, 10, 55
1, 105210, Control_c, 1, 10, 45
1, 105225, Control_c, 0, 10, 56
1, 105240, Control_c, 1, 10, 46
1, 105240, Note_on_c, 9, 44, 100
1, 105250, Note_on_c, 9, 44, 0
1, 105255, Control_c, 0, 10, 57
1, 105270, Control_c, 1, 10, 47
1, 105285, Control_c, 0, 10, 57
1, 105300, Control_c, 1, 10, 47
1, 105315, Control_c, 0, 10, 58
1, 105330, Control_c, 1, 10, 48
1, 105336, Note_on_c, 3, 29, 0
1, 105345, Control_c, 0, 10, 59
1, 105360, Control_c, 1, 10, 49
1, 105360, Note_on_c, 3, 41, 100
1, 105360, Note_on_c, 9, 44, 100
1, 105360, Note_on_c, 9, 36, 100
1, 105370, Note_on_c, 9, 44, 0
1, 105370, Note_on_c, 9, 36, 0
1, 105375, Control_c, 0, 10, 59
1, 105390, Control_c, 1, 10, 50
1, 105405, Control_c, 0, 10, 60
1, 105420, Control_c, 1, 10, 51
1, 105435, Control_c, 0, 10, 61
1, 105450, Control_c, 1, 10, 51
1, 105465, Control_c, 0, 10, 61
1, 105480, Control_c, 1, 10, 52
1, 105495, Control_c, 0, 10, 62
1, 105510, Control_c, 1, 10, 53
1, 105525, Control_c, 0, 10, 63
1, 105540, Control_c, 1, 10, 54
1, 105552, Note_on_c, 0, 65, 0
1, 105552, Note_on_c, 1, 60, 0
1, 105552, Note_on_c, 2, 60, 0
1, 105552, Note_on_c, 2, 65, 0
1, 105555, Control_c, 0, 10, 64
1, 105570, Control_c, 1, 10, 55
1, 105576, Note_on_c, 3, 41, 0
1, 105585, Control_c, 0, 10, 64
1, 105600, Note_on_c, 0, 67, 100
1, 105600, Note_on_c, 1, 62, 100
1, 105600, Note_on_c, 2, 62, 100
1, 105600, Note_on_c, 2, 67, 100
1, 105600, Note_on_c, 3, 36, 100
1, 105600, Note_on_c, 4, 65, 0
1, 105600, Note_on_c, 4, 57, 0
1, 105600, Note_on_c, 4, 62, 100
1, 105600, Note_on_c, 4, 72, 100
1, 105600, Note_on_c, 9, 51, 100
1, 105600, Note_on_c, 9, 44, 100
1, 105600, Note_on_c, 9, 10, 100
1, 105610, Note_on_c, 9, 51, 0
1, 105610, Note_on_c, 9, 44, 0
1, 105610, Note_on_c, 9, 10, 0
1, 105615, Control_c, 0, 10, 65
1, 105645, Control_c, 0, 10, 66
1, 105675, Control_c, 0, 10, 66
1, 105705, Control_c, 0, 10, 67
1, 105720, Note_on_c, 9, 44, 100
1, 105730, Note_on_c, 9, 44, 0
1, 105735, Control_c, 0, 10, 68
1, 105765, Control_c, 0, 10, 68
1, 105795, Control_c, 0, 10, 69
1, 105816, Note_on_c, 3, 36, 0
1, 105825, Control_c, 0, 10, 70
1, 105840, Note_on_c, 3, 48, 100
1, 105840, Note_on_c, 9, 44, 100
1, 105840, Note_on_c, 9, 36, 100
1, 105850, Note_on_c, 9, 44, 0
1, 105850, Note_on_c, 9, 36, 0
1, 105855, Control_c, 0, 10, 71
1, 105885, Control_c, 0, 10, 71
1, 105915, Control_c, 0, 10, 72
1, 105945, Control_c, 0, 10, 73
1, 105975, Control_c, 0, 10, 73
1, 106005, Control_c, 0, 10, 74
1, 106032, Note_on_c, 2, 62, 0
1, 106032, Note_on_c, 2, 67, 0
1, 106035, Control_c, 0, 10, 75
1, 106056, Note_on_c, 3, 48, 0
1, 106080, Note_on_c, 2, 62, 100
1, 106080, Note_on_c, 2, 67, 100
1, 106080, Note_on_c, 3, 36, 100
1, 106080, Note_on_c, 9, 44, 100
1, 106080, Note_on_c, 9, 10, 100
1, 106090, Note_on_c, 9, 44, 0
1, 106090, Note_on_c, 9, 10, 0
1, 106200, Note_on_c, 9, 44, 100
1, 106210, Note_on_c, 9, 44, 0
1, 106224, Note_on_c, 2, 62, 0
1, 106224, Note_on_c, 2, 67, 0
1, 106240, Note_on_c, 2, 62, 100
1, 106240, Note_on_c, 2, 67, 100
1, 106296, Note_on_c, 3, 36, 0
1, 106320, Note_on_c, 3, 48, 100
1, 106320, Note_on_c, 9, 44, 100
1, 106320, Note_on_c, 9, 36, 100
1, 106330, Note_on_c, 9, 44, 0
1, 106330, Note_on_c, 9, 36, 0
1, 106384, Note_on_c, 2, 62, 0
1, 106384, Note_on_c, 2, 67, 0
1, 106400, Note_on_c, 2, 62, 100
1, 106400, Note_on_c, 2, 67, 100
1, 106536, Note_on_c, 3, 48, 0
1, 106544, Note_on_c, 2, 62, 0
1, 106544, Note_on_c, 2, 67, 0
1, 106560, Note_on_c, 2, 62, 100
1, 106560, Note_on_c, 2, 67, 100
1, 106560, Note_on_c, 3, 36, 100
1, 106560, Note_on_c, 9, 44, 100
1, 106560, Note_on_c, 9, 10, 100
1, 106570, Note_on_c, 9, 44, 0
1, 106570, Note_on_c, 9, 10, 0
1, 106680, Note_on_c, 9, 44, 100
1, 106680, Note_on_c, 9, 10, 100
1, 106690, Note_on_c, 9, 44, 0
1, 106690, Note_on_c, 9, 10, 0
1, 106776, Note_on_c, 3, 36, 0
1, 106800, Note_on_c, 3, 48, 100
1, 106800, Note_on_c, 9, 44, 100
1, 106800, Note_on_c, 9, 36, 100
1, 106810, Note_on_c, 9, 44, 0
1, 106810, Note_on_c, 9, 36, 0
1, 106992, Note_on_c, 2, 62, 0
1, 106992, Note_on_c, 2, 67, 0
1, 107016, Note_on_c, 3, 48, 0
1, 107040, Note_on_c, 2, 62, 100
1, 107040, Note_on_c, 2, 67, 100
1, 107040, Note_on_c, 3, 36, 100
1, 107040, Note_on_c, 9, 44, 100
1, 107040, Note_on_c, 9, 10, 100
1, 107050, Note_on_c, 9, 44, 0
1, 107050, Note_on_c, 9, 10, 0
1, 107160, Note_on_c, 9, 44, 100
1, 107170, Note_on_c, 9, 44, 0
1, 107184, Note_on_c, 2, 62, 0
1, 107184, Note_on_c, 2, 67, 0
1, 107200, Note_on_c, 2, 62, 100
1, 107200, Note_on_c, 2, 67, 100
1, 107256, Note_on_c, 3, 36, 0
1, 107280, Note_on_c, 3, 48, 100
1, 107280, Note_on_c, 9, 44, 100
1, 107280, Note_on_c, 9, 36, 100
1, 107290, Note_on_c, 9, 44, 0
1, 107290, Note_on_c, 9, 36, 0
1, 107344, Note_on_c, 2, 62, 0
1, 107344, Note_on_c, 2, 67, 0
1, 107360, Note_on_c, 2, 62, 100
1, 107360, Note_on_c, 2, 67, 100
1, 107496, Note_on_c, 3, 48, 0
1, 107504, Note_on_c, 2, 62, 0
1, 107504, Note_on_c, 2, 67, 0
1, 107520, Note_on_c, 2, 62, 100
1, 107520, Note_on_c, 2, 67, 100
1, 107520, Note_on_c, 3, 36, 100
1, 107520, Note_on_c, 9, 10, 100
1, 107520, Note_on_c, 9, 44, 100
1, 107530, Note_on_c, 9, 10, 0
1, 107530, Note_on_c, 9, 44, 0
1, 107640, Note_on_c, 9, 44, 100
1, 107650, Note_on_c, 9, 44, 0
1, 107736, Note_on_c, 3, 36, 0
1, 107760, Note_on_c, 3, 48, 100
1, 107760, Note_on_c, 9, 44, 100
1, 107760, Note_on_c, 9, 36, 100
1, 107770, Note_on_c, 9, 44, 0
1, 107770, Note_on_c, 9, 36, 0
1, 107976, Note_on_c, 3, 48, 0
1, 108000, Note_on_c, 3, 36, 100
1, 108000, Note_on_c, 9, 44, 100
1, 108000, Note_on_c, 9, 10, 100
1, 108010, Note_on_c, 9, 44, 0
1, 108010, Note_on_c, 9, 10, 0
1, 108120, Note_on_c, 9, 44, 100
1, 108130, Note_on_c, 9, 44, 0
1, 108216, Note_on_c, 3, 36, 0
1, 108240, Note_on_c, 3, 48, 100
1, 108240, Note_on_c, 9, 44, 100
1, 108240, Note_on_c, 9, 36, 100
1, 108250, Note_on_c, 9, 44, 0
1, 108250, Note_on_c, 9, 36, 0
1, 108456, Note_on_c, 3, 48, 0
1, 108480, Note_on_c, 3, 36, 100
1, 108480, Note_on_c, 9, 44, 100
1, 108480, Note_on_c, 9, 10, 100
1, 108480, Note_on_c, 9, 51, 100
1, 108490, Note_on_c, 9, 44, 0
1, 108490, Note_on_c, 9, 10, 0
1, 108490, Note_on_c, 9, 51, 0
1, 108600, Note_on_c, 9, 44, 100
1, 108600, Note_on_c, 9, 10, 100
1, 108610, Note_on_c, 9, 44, 0
1, 108610, Note_on_c, 9, 10, 0
1, 108696, Note_on_c, 3, 36, 0
1, 108720, Note_on_c, 3, 48, 100
1, 108720, Note_on_c, 9, 44, 100
1, 108720, Note_on_c, 9, 36, 100
1, 108730, Note_on_c, 9, 44, 0
1, 108730, Note_on_c, 9, 36, 0
1, 108816, Note_on_c, 0, 67, 0
1, 108816, Note_on_c, 1, 62, 0
1, 108816, Note_on_c, 2, 62, 0
1, 108816, Note_on_c, 2, 67, 0
1, 108936, Note_on_c, 3, 48, 0
1, 108960, Note_on_c, 0, 65, 100
1, 108960, Note_on_c, 1, 60, 100
1, 108960, Note_on_c, 2, 60, 100
1, 108960, Note_on_c, 2, 65, 100
1, 108960, Note_on_c, 3, 36, 100
1, 108960, Note_on_c, 9, 44, 100
1, 108960, Note_on_c, 9, 10, 100
1, 108960, Note_on_c, 9, 51, 100
1, 108970, Note_on_c, 9, 44, 0
1, 108970, Note_on_c, 9, 10, 0
1, 108970, Note_on_c, 9, 51, 0
1, 109080, Note_on_c, 9, 44, 100
1, 109090, Note_on_c, 9, 44, 0
1, 109176, Note_on_c, 3, 36, 0
1, 109200, Note_on_c, 3, 48, 100
1, 109200, Note_on_c, 9, 44, 100
1, 109200, Note_on_c, 9, 36, 100
1, 109210, Note_on_c, 9, 44, 0
1, 109210, Note_on_c, 9, 36, 0
1, 109248, Note_on_c, 4, 62, 0
1, 109248, Note_on_c, 4, 72, 0
1, 109392, Note_on_c, 0, 65, 0
1, 109392, Note_on_c, 1, 60, 0
1, 109392, Note_on_c, 2, 60, 0
1, 109392, Note_on_c, 2, 65, 0
1, 109416, Note_on_c, 3, 48, 0
1, 109440, Note_on_c, 0, 67, 100
1, 109440, Note_on_c, 1, 62, 100
1, 109440, Note_on_c, 2, 67, 100
1, 109440, Note_on_c, 2, 62, 100
1, 109440, Note_on_c, 3, 31, 100
1, 109440, Note_on_c, 4, 58, 100
1, 109440, Note_on_c, 4, 67, 100
1, 109440, Note_on_c, 9, 44, 100
1, 109440, Note_on_c, 9, 10, 100
1, 109440, Note_on_c, 9, 51, 100
1, 109450, Note_on_c, 9, 44, 0
1, 109450, Note_on_c, 9, 10, 0
1, 109450, Note_on_c, 9, 51, 0
1, 109560, Note_on_c, 9, 44, 100
1, 109570, Note_on_c, 9, 44, 0
1, 109656, Note_on_c, 3, 31, 0
1, 109680, Note_on_c, 3, 43, 100
1, 109680, Note_on_c, 9, 44, 100
1, 109680, Note_on_c, 9, 36, 100
1, 109690, Note_on_c, 9, 44, 0
1, 109690, Note_on_c, 9, 36, 0
1, 109872, Note_on_c, 2, 67, 0
1, 109872, Note_on_c, 2, 62, 0
1, 109896, Note_on_c, 3, 43, 0
1, 109920, Note_on_c, 2, 67, 100
1, 109920, Note_on_c, 2, 62, 100
1, 109920, Note_on_c, 3, 31, 100
1, 109920, Note_on_c, 9, 44, 100
1, 109920, Note_on_c, 9, 10, 100
1, 109930, Note_on_c, 9, 44, 0
1, 109930, Note_on_c, 9, 10, 0
1, 110040, Note_on_c, 9, 44, 100
1, 110050, Note_on_c, 9, 44, 0
1, 110064, Note_on_c, 2, 67, 0
1, 110064, Note_on_c, 2, 62, 0
1, 110080, Note_on_c, 2, 62, 100
1, 110080, Note_on_c, 2, 67, 100
1, 110136, Note_on_c, 3, 31, 0
1, 110160, Note_on_c, 3, 43, 100
1, 110160, Note_on_c, 9, 44, 100
1, 110160, Note_on_c, 9, 36, 100
1, 110170, Note_on_c, 9, 44, 0
1, 110170, Note_on_c, 9, 36, 0
1, 110224, Note_on_c, 2, 62, 0
1, 110224, Note_on_c, 2, 67, 0
1, 110240, Note_on_c, 2, 62, 100
1, 110240, Note_on_c, 2, 67, 100
1, 110304, Note_on_c, 4, 67, 0
1, 110376, Note_on_c, 3, 43, 0
1, 110384, Note_on_c, 2, 62, 0
1, 110384, Note_on_c, 2, 67, 0
1, 110400, Note_on_c, 2, 62, 100
1, 110400, Note_on_c, 2, 67, 100
1, 110400, Note_on_c, 3, 29, 100
1, 110400, Note_on_c, 4, 65, 100
1, 110400, Note_on_c, 9, 44, 100
1, 110400, Note_on_c, 9, 10, 100
1, 110410, Note_on_c, 9, 44, 0
1, 110410, Note_on_c, 9, 10, 0
1, 110520, Note_on_c, 9, 44, 100
1, 110520, Note_on_c, 9, 10, 100
1, 110530, Note_on_c, 9, 44, 0
1, 110530, Note_on_c, 9, 10, 0
1, 110616, Note_on_c, 3, 29, 0
1, 110640, Note_on_c, 3, 41, 100
1, 110640, Note_on_c, 9, 44, 100
1, 110640, Note_on_c, 9, 36, 100
1, 110650, Note_on_c, 9, 44, 0
1, 110650, Note_on_c, 9, 36, 0
1, 110832, Note_on_c, 2, 62, 0
1, 110832, Note_on_c, 2, 67, 0
1, 110856, Note_on_c, 3, 41, 0
1, 110880, Note_on_c, 2, 62, 100
1, 110880, Note_on_c, 2, 67, 100
1, 110880, Note_on_c, 3, 29, 100
1, 110880, Note_on_c, 9, 44, 100
1, 110880, Note_on_c, 9, 10, 100
1, 110890, Note_on_c, 9, 44, 0
1, 110890, Note_on_c, 9, 10, 0
1, 111000, Note_on_c, 9, 44, 100
1, 111010, Note_on_c, 9, 44, 0
1, 111024, Note_on_c, 2, 62, 0
1, 111024, Note_on_c, 2, 67, 0
1, 111040, Note_on_c, 2, 62, 100
1, 111040, Note_on_c, 2, 67, 100
1, 111096, Note_on_c, 3, 29, 0
1, 111120, Note_on_c, 3, 41, 100
1, 111120, Note_on_c, 9, 44, 100
1, 111120, Note_on_c, 9, 36, 100
1, 111130, Note_on_c, 9, 44, 0
1, 111130, Note_on_c, 9, 36, 0
1, 111184, Note_on_c, 2, 62, 0
1, 111184, Note_on_c, 2, 67, 0
1, 111200, Note_on_c, 2, 62, 100
1, 111200, Note_on_c, 2, 67, 100
1, 111264, Note_on_c, 4, 65, 0
1, 111336, Note_on_c, 3, 41, 0
1, 111344, Note_on_c, 2, 62, 0
1, 111344, Note_on_c, 2, 67, 0
1, 111360, Note_on_c, 2, 62, 100
1, 111360, Note_on_c, 2, 67, 100
1, 111360, Note_on_c, 3, 27, 100
1, 111360, Note_on_c, 4, 63, 100
1, 111360, Note_on_c, 9, 10, 100
1, 111360, Note_on_c, 9, 44, 100
1, 111370, Note_on_c, 9, 10, 0
1, 111370, Note_on_c, 9, 44, 0
1, 111480, Note_on_c, 9, 44, 100
1, 111490, Note_on_c, 9, 44, 0
1, 111576, Note_on_c, 3, 27, 0
1, 111600, Note_on_c, 3, 39, 100
1, 111600, Note_on_c, 9, 44, 100
1, 111600, Note_on_c, 9, 36, 100
1, 111610, Note_on_c, 9, 44, 0
1, 111610, Note_on_c, 9, 36, 0
1, 111816, Note_on_c, 3, 39, 0
1, 111840, Note_on_c, 3, 27, 100
1, 111840, Note_on_c, 9, 44, 100
1, 111840, Note_on_c, 9, 10, 100
1, 111850, Note_on_c, 9, 44, 0
1, 111850, Note_on_c, 9, 10, 0
1, 111960, Note_on_c, 9, 44, 100
1, 111970, Note_on_c, 9, 44, 0
1, 112056, Note_on_c, 3, 27, 0
1, 112080, Note_on_c, 3, 39, 100
1, 112080, Note_on_c, 9, 44, 100
1, 112080, Note_on_c, 9, 36, 100
1, 112090, Note_on_c, 9, 44, 0
1, 112090, Note_on_c, 9, 36, 0
1, 112224, Note_on_c, 4, 63, 0
1, 112296, Note_on_c, 3, 39, 0
1, 112320, Note_on_c, 3, 29, 100
1, 112320, Note_on_c, 4, 65, 100
1, 112320, Note_on_c, 9, 44, 100
1, 112320, Note_on_c, 9, 10, 100
1, 112320, Note_on_c, 9, 51, 100
1, 112330, Note_on_c, 9, 44, 0
1, 112330, Note_on_c, 9, 10, 0
1, 112330, Note_on_c, 9, 51, 0
1, 112440, Note_on_c, 9, 44, 100
1, 112440, Note_on_c, 9, 10, 100
1, 112450, Note_on_c, 9, 44, 0
1, 112450, Note_on_c, 9, 10, 0
1, 112536, Note_on_c, 3, 29, 0
1, 112560, Note_on_c, 3, 41, 100
1, 112560, Note_on_c, 9, 44, 100
1, 112560, Note_on_c, 9, 36, 100
1, 112570, Note_on_c, 9, 44, 0
1, 112570, Note_on_c, 9, 36, 0
1, 112656, Note_on_c, 0, 67, 0
1, 112656, Note_on_c, 1, 62, 0
1, 112656, Note_on_c, 2, 62, 0
1, 112656, Note_on_c, 2, 67, 0
1, 112776, Note_on_c, 3, 41, 0
1, 112800, Note_on_c, 0, 65, 100
1, 112800, Note_on_c, 1, 60, 100
1, 112800, Note_on_c, 2, 60, 100
1, 112800, Note_on_c, 2, 65, 100
1, 112800, Note_on_c, 3, 29, 100
1, 112800, Note_on_c, 9, 44, 100
1, 112800, Note_on_c, 9, 10, 100
1, 112800, Note_on_c, 9, 51, 100
1, 112810, Note_on_c, 9, 44, 0
1, 112810, Note_on_c, 9, 10, 0
1, 112810, Note_on_c, 9, 51, 0
1, 112920, Note_on_c, 9, 44, 100
1, 112930, Note_on_c, 9, 44, 0
1, 113016, Note_on_c, 3, 29, 0
1, 113040, Note_on_c, 3, 41, 100
1, 113040, Note_on_c, 9, 44, 100
1, 113040, Note_on_c, 9, 36, 100
1, 113050, Note_on_c, 9, 44, 0
1, 113050, Note_on_c, 9, 36, 0
1, 113088, Note_on_c, 4, 58, 0
1, 113184, Note_on_c, 4, 65, 0
1, 113232, Note_on_c, 0, 65, 0
1, 113232, Note_on_c, 1, 60, 0
1, 113232, Note_on_c, 2, 60, 0
1, 113232, Note_on_c, 2, 65, 0
1, 113256, Note_on_c, 3, 41, 0
1, 113280, Note_on_c, 0, 67, 100
1, 113280, Note_on_c, 1, 62, 100
1, 113280, Note_on_c, 2, 67, 100
1, 113280, Note_on_c, 2, 62, 100
1, 113280, Note_on_c, 3, 31, 100
1, 113280, Note_on_c, 4, 58, 100
1, 113280, Note_on_c, 4, 67, 100
1, 113280, Note_on_c, 9, 44, 100
1, 113280, Note_on_c, 9, 10, 100
1, 113280, Note_on_c, 9, 51, 100
1, 113290, Note_on_c, 9, 44, 0
1, 113290, Note_on_c, 9, 10, 0
1, 113290, Note_on_c, 9, 51, 0
1, 113400, Note_on_c, 9, 44, 100
1, 113410, Note_on_c, 9, 44, 0
1, 113496, Note_on_c, 3, 31, 0
1, 113520, Note_on_c, 3, 43, 100
1, 113520, Note_on_c, 9, 44, 100
1, 113520, Note_on_c, 9, 36, 100
1, 113530, Note_on_c, 9, 44, 0
1, 113530, Note_on_c, 9, 36, 0
1, 113712, Note_on_c, 2, 67, 0
1, 113712, Note_on_c, 2, 62, 0
1, 113736, Note_on_c, 3, 43, 0
1, 113760, Note_on_c, 2, 67, 100
1, 113760, Note_on_c, 2, 62, 100
1, 113760, Note_on_c, 3, 31, 100
1, 113760, Note_on_c, 9, 44, 100
1, 113760, Note_on_c, 9, 10, 100
1, 113770, Note_on_c, 9, 44, 0
1, 113770, Note_on_c, 9, 10, 0
1, 113880, Note_on_c, 9, 44, 100
1, 113890, Note_on_c, 9, 44, 0
1, 113904, Note_on_c, 2, 67, 0
1, 113904, Note_on_c, 2, 62, 0
1, 113920, Note_on_c, 2, 62, 100
1, 113920, Note_on_c, 2, 67, 100
1, 113976, Note_on_c, 3, 31, 0
1, 114000, Note_on_c, 3, 43, 100
1, 114000, Note_on_c, 9, 44, 100
1, 114000, Note_on_c, 9, 36, 100
1, 114010, Note_on_c, 9, 44, 0
1, 114010, Note_on_c, 9, 36, 0
1, 114064, Note_on_c, 2, 62, 0
1, 114064, Note_on_c, 2, 67, 0
1, 114080, Note_on_c, 2, 62, 100
1, 114080, Note_on_c, 2, 67, 100
1, 114144, Note_on_c, 4, 67, 0
1, 114216, Note_on_c, 3, 43, 0
1, 114224, Note_on_c, 2, 62, 0
1, 114224, Note_on_c, 2, 67, 0
1, 114240, Note_on_c, 2, 62, 100
1, 114240, Note_on_c, 2, 67, 100
1, 114240, Note_on_c, 3, 29, 100
1, 114240, Note_on_c, 4, 65, 100
1, 114240, Note_on_c, 9, 44, 100
1, 114240, Note_on_c, 9, 10, 100
1, 114250, Note_on_c, 9, 44, 0
1, 114250, Note_on_c, 9, 10, 0
1, 114360, Note_on_c, 9, 44, 100
1, 114360, Note_on_c, 9, 10, 100
1, 114370, Note_on_c, 9, 44, 0
1, 114370, Note_on_c, 9, 10, 0
1, 114456, Note_on_c, 3, 29, 0
1, 114480, Note_on_c, 3, 41, 100
1, 114480, Note_on_c, 9, 44, 100
1, 114480, Note_on_c, 9, 36, 100
1, 114490, Note_on_c, 9, 44, 0
1, 114490, Note_on_c, 9, 36, 0
1, 114672, Note_on_c, 2, 62, 0
1, 114672, Note_on_c, 2, 67, 0
1, 114696, Note_on_c, 3, 41, 0
1, 114720, Note_on_c, 2, 62, 100
1, 114720, Note_on_c, 2, 67, 100
1, 114720, Note_on_c, 3, 29, 100
1, 114720, Note_on_c, 9, 44, 100
1, 114720, Note_on_c, 9, 10, 100
1, 114730, Note_on_c, 9, 44, 0
1, 114730, Note_on_c, 9, 10, 0
1, 114840, Note_on_c, 9, 44, 100
1, 114850, Note_on_c, 9, 44, 0
1, 114864, Note_on_c, 2, 62, 0
1, 114864, Note_on_c, 2, 67, 0
1, 114880, Note_on_c, 2, 62, 100
1, 114880, Note_on_c, 2, 67, 100
1, 114936, Note_on_c, 3, 29, 0
1, 114960, Note_on_c, 3, 41, 100
1, 114960, Note_on_c, 9, 44, 100
1, 114960, Note_on_c, 9, 36, 100
1, 114970, Note_on_c, 9, 44, 0
1, 114970, Note_on_c, 9, 36, 0
1, 115024, Note_on_c, 2, 62, 0
1, 115024, Note_on_c, 2, 67, 0
1, 115040, Note_on_c, 2, 62, 100
1, 115040, Note_on_c, 2, 67, 100
1, 115104, Note_on_c, 4, 65, 0
1, 115176, Note_on_c, 3, 41, 0
1, 115184, Note_on_c, 2, 62, 0
1, 115184, Note_on_c, 2, 67, 0
1, 115200, Note_on_c, 2, 62, 100
1, 115200, Note_on_c, 2, 67, 100
1, 115200, Note_on_c, 3, 27, 100
1, 115200, Note_on_c, 4, 63, 100
1, 115200, Note_on_c, 9, 10, 100
1, 115200, Note_on_c, 9, 44, 100
1, 115210, Note_on_c, 9, 10, 0
1, 115210, Note_on_c, 9, 44, 0
1, 115320, Note_on_c, 9, 44, 100
1, 115330, Note_on_c, 9, 44, 0
1, 115416, Note_on_c, 3, 27, 0
1, 115440, Note_on_c, 3, 39, 100
1, 115440, Note_on_c, 9, 44, 100
1, 115440, Note_on_c, 9, 36, 100
1, 115450, Note_on_c, 9, 44, 0
1, 115450, Note_on_c, 9, 36, 0
1, 115656, Note_on_c, 3, 39, 0
1, 115680, Note_on_c, 3, 27, 100
1, 115680, Note_on_c, 9, 44, 100
1, 115680, Note_on_c, 9, 10, 100
1, 115690, Note_on_c, 9, 44, 0
1, 115690, Note_on_c, 9, 10, 0
1, 115800, Note_on_c, 9, 44, 100
1, 115810, Note_on_c, 9, 44, 0
1, 115896, Note_on_c, 3, 27, 0
1, 115920, Note_on_c, 3, 39, 100
1, 115920, Note_on_c, 9, 44, 100
1, 115920, Note_on_c, 9, 36, 100
1, 115930, Note_on_c, 9, 44, 0
1, 115930, Note_on_c, 9, 36, 0
1, 116064, Note_on_c, 4, 63, 0
1, 116136, Note_on_c, 3, 39, 0
1, 116160, Note_on_c, 3, 29, 100
1, 116160, Note_on_c, 4, 65, 100
1, 116160, Note_on_c, 9, 44, 100
1, 116160, Note_on_c, 9, 10, 100
1, 116160, Note_on_c, 9, 51, 100
1, 116170, Note_on_c, 9, 44, 0
1, 116170, Note_on_c, 9, 10, 0
1, 116170, Note_on_c, 9, 51, 0
1, 116280, Note_on_c, 9, 44, 100
1, 116280, Note_on_c, 9, 10, 100
1, 116290, Note_on_c, 9, 44, 0
1, 116290, Note_on_c, 9, 10, 0
1, 116376, Note_on_c, 3, 29, 0
1, 116400, Note_on_c, 3, 41, 100
1, 116400, Note_on_c, 9, 44, 100
1, 116400, Note_on_c, 9, 36, 100
1, 116410, Note_on_c, 9, 44, 0
1, 116410, Note_on_c, 9, 36, 0
1, 116496, Note_on_c, 0, 67, 0
1, 116496, Note_on_c, 1, 62, 0
1, 116496, Note_on_c, 2, 62, 0
1, 116496, Note_on_c, 2, 67, 0
1, 116616, Note_on_c, 3, 41, 0
1, 116640, Note_on_c, 0, 65, 100
1, 116640, Note_on_c, 1, 60, 100
1, 116640, Note_on_c, 2, 60, 100
1, 116640, Note_on_c, 2, 65, 100
1, 116640, Note_on_c, 3, 29, 100
1, 116640, Note_on_c, 9, 44, 100
1, 116640, Note_on_c, 9, 10, 100
1, 116640, Note_on_c, 9, 51, 100
1, 116650, Note_on_c, 9, 44, 0
1, 116650, Note_on_c, 9, 10, 0
1, 116650, Note_on_c, 9, 51, 0
1, 116760, Note_on_c, 9, 44, 100
1, 116770, Note_on_c, 9, 44, 0
1, 116856, Note_on_c, 3, 29, 0
1, 116880, Note_on_c, 3, 41, 100
1, 116880, Note_on_c, 9, 44, 100
1, 116880, Note_on_c, 9, 36, 100
1, 116890, Note_on_c, 9, 44, 0
1, 116890, Note_on_c, 9, 36, 0
1, 116928, Note_on_c, 4, 58, 0
1, 117024, Note_on_c, 4, 65, 0
1, 117072, Note_on_c, 0, 65, 0
1, 117072, Note_on_c, 1, 60, 0
1, 117072, Note_on_c, 2, 60, 0
1, 117072, Note_on_c, 2, 65, 0
1, 117096, Note_on_c, 3, 41, 0
1, 117120, Note_on_c, 0, 67, 100
1, 117120, Note_on_c, 1, 62, 100
1, 117120, Note_on_c, 1, 67, 100
1, 117120, Note_on_c, 2, 62, 100
1, 117120, Note_on_c, 2, 67, 100
1, 117120, Note_on_c, 3, 31, 100
1, 117120, Note_on_c, 9, 10, 100
1, 117120, Note_on_c, 9, 51, 100
1, 117120, Note_on_c, 9, 44, 100
1, 117130, Note_on_c, 9, 10, 0
1, 117130, Note_on_c, 9, 51, 0
1, 117130, Note_on_c, 9, 44, 0
1, 117240, Note_on_c, 9, 44, 100
1, 117250, Note_on_c, 9, 44, 0
1, 117360, Note_on_c, 9, 44, 100
1, 117360, Note_on_c, 9, 36, 100
1, 117370, Note_on_c, 9, 44, 0
1, 117370, Note_on_c, 9, 36, 0
1, 117552, Note_on_c, 0, 67, 0
1, 117552, Note_on_c, 1, 62, 0
1, 117552, Note_on_c, 1, 67, 0
1, 117552, Note_on_c, 3, 31, 0
1, 117600, Note_on_c, 0, 67, 100
1, 117600, Note_on_c, 1, 62, 100
1, 117600, Note_on_c, 1, 67, 100
1, 117600, Note_on_c, 3, 31, 100
1, 117600, Note_on_c, 9, 10, 100
1, 117600, Note_on_c, 9, 51, 100
1, 117600, Note_on_c, 9, 44, 100
1, 117610, Note_on_c, 9, 10, 0
1, 117610, Note_on_c, 9, 51, 0
1, 117610, Note_on_c, 9, 44, 0
1, 117720, Note_on_c, 9, 44, 100
1, 117730, Note_on_c, 9, 44, 0
1, 117744, Note_on_c, 0, 67, 0
1, 117744, Note_on_c, 1, 62, 0
1, 117744, Note_on_c, 1, 67, 0
1, 117744, Note_on_c, 3, 31, 0
1, 117760, Note_on_c, 0, 67, 100
1, 117760, Note_on_c, 1, 62, 100
1, 117760, Note_on_c, 1, 67, 100
1, 117760, Note_on_c, 3, 31, 100
1, 117760, Note_on_c, 9, 51, 100
1, 117770, Note_on_c, 9, 51, 0
1, 117840, Note_on_c, 9, 44, 100
1, 117840, Note_on_c, 9, 36, 100
1, 117850, Note_on_c, 9, 44, 0
1, 117850, Note_on_c, 9, 36, 0
1, 117904, Note_on_c, 0, 67, 0
1, 117904, Note_on_c, 1, 62, 0
1, 117904, Note_on_c, 1, 67, 0
1, 117904, Note_on_c, 3, 31, 0
1, 117920, Note_on_c, 0, 67, 100
1, 117920, Note_on_c, 1, 62, 100
1, 117920, Note_on_c, 1, 67, 100
1, 117920, Note_on_c, 3, 31, 100
1, 117920, Note_on_c, 9, 51, 100
1, 117930, Note_on_c, 9, 51, 0
1, 118064, Note_on_c, 0, 67, 0
1, 118064, Note_on_c, 1, 62, 0
1, 118064, Note_on_c, 1, 67, 0
1, 118064, Note_on_c, 3, 31, 0
1, 118080, Note_on_c, 0, 67, 100
1, 118080, Note_on_c, 1, 62, 100
1, 118080, Note_on_c, 1, 67, 100
1, 118080, Note_on_c, 3, 31, 100
1, 118080, Note_on_c, 9, 10, 100
1, 118080, Note_on_c, 9, 51, 100
1, 118080, Note_on_c, 9, 44, 100
1, 118090, Note_on_c, 9, 10, 0
1, 118090, Note_on_c, 9, 51, 0
1, 118090, Note_on_c, 9, 44, 0
1, 118200, Note_on_c, 9, 44, 100
1, 118200, Note_on_c, 9, 10, 100
1, 118210, Note_on_c, 9, 44, 0
1, 118210, Note_on_c, 9, 10, 0
1, 118320, Note_on_c, 9, 44, 100
1, 118320, Note_on_c, 9, 36, 100
1, 118330, Note_on_c, 9, 44, 0
1, 118330, Note_on_c, 9, 36, 0
1, 118512, Note_on_c, 0, 67, 0
1, 118512, Note_on_c, 1, 62, 0
1, 118512, Note_on_c, 1, 67, 0
1, 118512, Note_on_c, 3, 31, 0
1, 118560, Note_on_c, 0, 67, 100
1, 118560, Note_on_c, 1, 62, 100
1, 118560, Note_on_c, 1, 67, 100
1, 118560, Note_on_c, 3, 31, 100
1, 118560, Note_on_c, 9, 10, 100
1, 118560, Note_on_c, 9, 51, 100
1, 118560, Note_on_c, 9, 44, 100
1, 118570, Note_on_c, 9, 10, 0
1, 118570, Note_on_c, 9, 51, 0
1, 118570, Note_on_c, 9, 44, 0
1, 118680, Note_on_c, 9, 44, 100
1, 118690, Note_on_c, 9, 44, 0
1, 118720, Note_on_c, 9, 51, 100
1, 118730, Note_on_c, 9, 51, 0
1, 118800, Note_on_c, 9, 44, 100
1, 118800, Note_on_c, 9, 36, 100
1, 118810, Note_on_c, 9, 44, 0
1, 118810, Note_on_c, 9, 36, 0
1, 118848, Note_on_c, 2, 62, 0
1, 118848, Note_on_c, 2, 67, 0
1, 118880, Note_on_c, 9, 51, 100
1, 118890, Note_on_c, 9, 51, 0
1, 118992, Note_on_c, 0, 67, 0
1, 118992, Note_on_c, 1, 62, 0
1, 118992, Note_on_c, 1, 67, 0
1, 118992, Note_on_c, 3, 31, 0
1, 119040, Note_on_c, 0, 67, 100
1, 119040, Note_on_c, 1, 62, 100
1, 119040, Note_on_c, 1, 67, 100
1, 119040, Note_on_c, 3, 31, 100
1, 119040, Note_on_c, 9, 44, 100
1, 119040, Note_on_c, 9, 51, 100
1, 119040, Note_on_c, 9, 10, 100
1, 119050, Note_on_c, 9, 44, 0
1, 119050, Note_on_c, 9, 51, 0
1, 119050, Note_on_c, 9, 10, 0
1, 119160, Note_on_c, 9, 44, 100
1, 119170, Note_on_c, 9, 44, 0
1, 119280, Note_on_c, 9, 44, 100
1, 119280, Note_on_c, 9, 36, 100
1, 119290, Note_on_c, 9, 44, 0
1, 119290, Note_on_c, 9, 36, 0
1, 119472, Note_on_c, 0, 67, 0
1, 119472, Note_on_c, 1, 62, 0
1, 119472, Note_on_c, 1, 67, 0
1, 119472, Note_on_c, 3, 31, 0
1, 119520, Note_on_c, 0, 67, 100
1, 119520, Note_on_c, 1, 62, 100
1, 119520, Note_on_c, 1, 67, 100
1, 119520, Note_on_c, 3, 31, 100
1, 119520, Note_on_c, 9, 10, 100
1, 119520, Note_on_c, 9, 51, 100
1, 119520, Note_on_c, 9, 44, 100
1, 119530, Note_on_c, 9, 10, 0
1, 119530, Note_on_c, 9, 51, 0
1, 119530, Note_on_c, 9, 44, 0
1, 119640, Note_on_c, 9, 44, 100
1, 119650, Note_on_c, 9, 44, 0
1, 119664, Note_on_c, 0, 67, 0
1, 119664, Note_on_c, 1, 62, 0
1, 119664, Note_on_c, 1, 67, 0
1, 119664, Note_on_c, 3, 31, 0
1, 119680, Note_on_c, 0, 67, 100
1, 119680, Note_on_c, 1, 62, 100
1, 119680, Note_on_c, 1, 67, 100
1, 119680, Note_on_c, 3, 31, 100
1, 119680, Note_on_c, 9, 51, 100
1, 119690, Note_on_c, 9, 51, 0
1, 119760, Note_on_c, 9, 44, 100
1, 119760, Note_on_c, 9, 36, 100
1, 119770, Note_on_c, 9, 44, 0
1, 119770, Note_on_c, 9, 36, 0
1, 119824, Note_on_c, 0, 67, 0
1, 119824, Note_on_c, 1, 62, 0
1, 119824, Note_on_c, 1, 67, 0
1, 119824, Note_on_c, 3, 31, 0
1, 119840, Note_on_c, 0, 67, 100
1, 119840, Note_on_c, 1, 62, 100
1, 119840, Note_on_c, 1, 67, 100
1, 119840, Note_on_c, 3, 31, 100
1, 119840, Note_on_c, 9, 51, 100
1, 119850, Note_on_c, 9, 51, 0
1, 119984, Note_on_c, 0, 67, 0
1, 119984, Note_on_c, 1, 62, 0
1, 119984, Note_on_c, 1, 67, 0
1, 119984, Note_on_c, 3, 31, 0
1, 120000, Note_on_c, 0, 67, 100
1, 120000, Note_on_c, 1, 62, 100
1, 120000, Note_on_c, 1, 67, 100
1, 120000, Note_on_c, 3, 31, 100
1, 120000, Note_on_c, 9, 44, 100
1, 120000, Note_on_c, 9, 10, 100
1, 120000, Note_on_c, 9, 51, 100
1, 120010, Note_on_c, 9, 44, 0
1, 120010, Note_on_c, 9, 10, 0
1, 120010, Note_on_c, 9, 51, 0
1, 120120, Note_on_c, 9, 44, 100
1, 120120, Note_on_c, 9, 10, 100
1, 120130, Note_on_c, 9, 44, 0
1, 120130, Note_on_c, 9, 10, 0
1, 120240, Note_on_c, 9, 44, 100
1, 120240, Note_on_c, 9, 36, 100
1, 120250, Note_on_c, 9, 44, 0
1, 120250, Note_on_c, 9, 36, 0
1, 120432, Note_on_c, 0, 67, 0
1, 120432, Note_on_c, 1, 62, 0
1, 120432, Note_on_c, 1, 67, 0
1, 120432, Note_on_c, 3, 31, 0
1, 120480, Note_on_c, 3, 31, 100
1, 120480, Note_on_c, 9, 44, 100
1, 120480, Note_on_c, 9, 10, 100
1, 120480, Note_on_c, 9, 51, 100
1, 120490, Note_on_c, 9, 44, 0
1, 120490, Note_on_c, 9, 10, 0
1, 120490, Note_on_c, 9, 51, 0
1, 120600, Note_on_c, 9, 44, 100
1, 120610, Note_on_c, 9, 44, 0
1, 120720, Note_on_c, 9, 44, 100
1, 120720, Note_on_c, 9, 36, 100
1, 120730, Note_on_c, 9, 44, 0
1, 120730, Note_on_c, 9, 36, 0
1, 120912, Note_on_c, 3, 31, 0
1, 120912, End_track
0, 0, End_of_file