0, 0, Header, 0, 1, 480
1, 0, Start_track
1, 0, Title_t, "Made By"
1, 0, Program_c, 1, 81
1, 0, Program_c, 1, 81
1, 0, Program_c, 1, 81
1, 0, Note_on_c, 1, 67, 79
1, 0, Note_on_c, 1, 71, 79
1, 0, Program_c, 0, 39
1, 0, Program_c, 0, 39
1, 0, Program_c, 0, 39
1, 0, Note_on_c, 0, 40, 79
1, 161, Note_on_c, 1, 67, 0
1, 161, Note_on_c, 1, 71, 0
1, 161, Note_on_c, 0, 40, 0
1, 165, Note_on_c, 0, 42, 79
1, 326, Note_on_c, 0, 42, 0
1, 329, Note_on_c, 0, 43, 79
1, 490, Note_on_c, 0, 43, 0
1, 494, Note_on_c, 0, 47, 79
1, 655, Note_on_c, 0, 47, 0
1, 658, Note_on_c, 0, 40, 79
1, 819, Note_on_c, 0, 40, 0
1, 823, Note_on_c, 0, 42, 79
1, 984, Note_on_c, 0, 42, 0
1, 987, Note_on_c, 1, 67, 79
1, 987, Note_on_c, 1, 71, 79
1, 987, Note_on_c, 0, 43, 79
1, 1149, Note_on_c, 0, 43, 0
1, 1152, Note_on_c, 0, 47, 79
1, 1313, Note_on_c, 1, 71, 0
1, 1313, Note_on_c, 1, 67, 0
1, 1313, Note_on_c, 0, 47, 0
1, 1317, Note_on_c, 1, 72, 79
1, 1317, Note_on_c, 1, 67, 79
1, 1317, Note_on_c, 0, 40, 79
1, 1478, Note_on_c, 1, 67, 0
1, 1478, Note_on_c, 1, 72, 0
1, 1478, Note_on_c, 0, 40, 0
1, 1481, Note_on_c, 0, 42, 79
1, 1642, Note_on_c, 0, 42, 0
1, 1646, Note_on_c, 0, 43, 79
1, 1807, Note_on_c, 0, 43, 0
1, 1810, Note_on_c, 0, 48, 79
1, 1971, Note_on_c, 0, 48, 0
1, 1975, Note_on_c, 0, 40, 79
1, 2136, Note_on_c, 0, 40, 0
1, 2139, Note_on_c, 0, 42, 79
1, 2301, Note_on_c, 0, 42, 0
1, 2304, Note_on_c, 1, 72, 79
1, 2304, Note_on_c, 1, 67, 79
1, 2304, Note_on_c, 0, 43, 79
1, 2465, Note_on_c, 0, 43, 0
1, 2469, Note_on_c, 0, 48, 79
1, 2630, Note_on_c, 1, 67, 0
1, 2630, Note_on_c, 1, 72, 0
1, 2630, Note_on_c, 0, 48, 0
1, 2633, Note_on_c, 1, 73, 79
1, 2633, Note_on_c, 1, 67, 79
1, 2633, Note_on_c, 0, 40, 79
1, 2794, Note_on_c, 1, 67, 0
1, 2794, Note_on_c, 1, 73, 0
1, 2794, Note_on_c, 0, 40, 0
1, 2798, Note_on_c, 0, 42, 79
1, 2959, Note_on_c, 0, 42, 0
1, 2962, Note_on_c, 0, 43, 79
1, 3123, Note_on_c, 0, 43, 0
1, 3127, Note_on_c, 0, 49, 79
1, 3288, Note_on_c, 0, 49, 0
1, 3291, Note_on_c, 0, 40, 79
1, 3453, Note_on_c, 0, 40, 0
1, 3456, Note_on_c, 0, 42, 79
1, 3617, Note_on_c, 0, 42, 0
1, 3621, Note_on_c, 1, 73, 79
1, 3621, Note_on_c, 1, 67, 79
1, 3621, Note_on_c, 0, 43, 79
1, 3782, Note_on_c, 0, 43, 0
1, 3785, Note_on_c, 0, 49, 79
1, 3946, Note_on_c, 1, 67, 0
1, 3946, Note_on_c, 1, 73, 0
1, 3946, Note_on_c, 0, 49, 0
1, 3950, Note_on_c, 1, 72, 79
1, 3950, Note_on_c, 1, 67, 79
1, 3950, Note_on_c, 0, 40, 79
1, 4111, Note_on_c, 1, 67, 0
1, 4111, Note_on_c, 1, 72, 0
1, 4111, Note_on_c, 0, 40, 0
1, 4114, Note_on_c, 0, 42, 79
1, 4275, Note_on_c, 0, 42, 0
1, 4279, Note_on_c, 0, 43, 79
1, 4440, Note_on_c, 0, 43, 0
1, 4443, Note_on_c, 0, 48, 79
1, 4605, Note_on_c, 0, 48, 0
1, 4608, Note_on_c, 0, 40, 79
1, 4769, Note_on_c, 0, 40, 0
1, 4773, Note_on_c, 0, 42, 79
1, 4934, Note_on_c, 0, 42, 0
1, 4937, Note_on_c, 1, 67, 79
1, 4937, Note_on_c, 1, 72, 79
1, 4937, Note_on_c, 0, 43, 79
1, 5098, Note_on_c, 0, 43, 0
1, 5102, Note_on_c, 0, 48, 79
1, 5263, Note_on_c, 1, 72, 0
1, 5263, Note_on_c, 1, 67, 0
1, 5263, Note_on_c, 0, 48, 0
1, 5266, Note_on_c, 1, 71, 79
1, 5266, Note_on_c, 1, 67, 79
1, 5266, Note_on_c, 0, 40, 79
1, 5427, Note_on_c, 1, 67, 0
1, 5427, Note_on_c, 1, 71, 0
1, 5427, Note_on_c, 0, 40, 0
1, 5431, Note_on_c, 0, 42, 79
1, 5592, Note_on_c, 0, 42, 0
1, 5595, Note_on_c, 0, 43, 79
1, 5757, Note_on_c, 0, 43, 0
1, 5760, Note_on_c, 0, 47, 79
1, 5921, Note_on_c, 0, 47, 0
1, 5925, Note_on_c, 0, 40, 79
1, 6086, Note_on_c, 0, 40, 0
1, 6089, Note_on_c, 0, 42, 79
1, 6250, Note_on_c, 0, 42, 0
1, 6254, Note_on_c, 1, 71, 79
1, 6254, Note_on_c, 1, 67, 79
1, 6254, Note_on_c, 0, 43, 79
1, 6415, Note_on_c, 0, 43, 0
1, 6418, Note_on_c, 0, 47, 79
1, 6579, Note_on_c, 1, 67, 0
1, 6579, Note_on_c, 1, 71, 0
1, 6579, Note_on_c, 0, 47, 0
1, 6583, Note_on_c, 1, 72, 79
1, 6583, Note_on_c, 1, 67, 79
1, 6583, Note_on_c, 0, 40, 79
1, 6744, Note_on_c, 1, 67, 0
1, 6744, Note_on_c, 1, 72, 0
1, 6744, Note_on_c, 0, 40, 0
1, 6747, Note_on_c, 0, 42, 79
1, 6909, Note_on_c, 0, 42, 0
1, 6912, Note_on_c, 0, 43, 79
1, 7073, Note_on_c, 0, 43, 0
1, 7077, Note_on_c, 0, 48, 79
1, 7238, Note_on_c, 0, 48, 0
1, 7241, Note_on_c, 0, 40, 79
1, 7402, Note_on_c, 0, 40, 0
1, 7406, Note_on_c, 0, 42, 79
1, 7567, Note_on_c, 0, 42, 0
1, 7570, Note_on_c, 1, 72, 79
1, 7570, Note_on_c, 1, 67, 79
1, 7570, Note_on_c, 0, 43, 79
1, 7731, Note_on_c, 0, 43, 0
1, 7735, Note_on_c, 0, 48, 79
1, 7896, Note_on_c, 1, 67, 0
1, 7896, Note_on_c, 1, 72, 0
1, 7896, Note_on_c, 0, 48, 0
1, 7899, Note_on_c, 1, 73, 79
1, 7899, Note_on_c, 1, 67, 79
1, 7899, Note_on_c, 0, 40, 79
1, 8061, Note_on_c, 1, 67, 0
1, 8061, Note_on_c, 1, 73, 0
1, 8061, Note_on_c, 0, 40, 0
1, 8064, Note_on_c, 0, 42, 79
1, 8225, Note_on_c, 0, 42, 0
1, 8229, Note_on_c, 0, 43, 79
1, 8390, Note_on_c, 0, 43, 0
1, 8393, Note_on_c, 0, 49, 79
1, 8554, Note_on_c, 0, 49, 0
1, 8558, Note_on_c, 0, 40, 79
1, 8719, Note_on_c, 0, 40, 0
1, 8722, Note_on_c, 0, 42, 79
1, 8883, Note_on_c, 0, 42, 0
1, 8887, Note_on_c, 1, 73, 79
1, 8887, Note_on_c, 1, 67, 79
1, 8887, Note_on_c, 0, 43, 79
1, 9048, Note_on_c, 0, 43, 0
1, 9051, Note_on_c, 0, 49, 79
1, 9213, Note_on_c, 1, 67, 0
1, 9213, Note_on_c, 1, 73, 0
1, 9213, Note_on_c, 0, 49, 0
1, 9216, Note_on_c, 1, 72, 79
1, 9216, Note_on_c, 1, 67, 79
1, 9216, Note_on_c, 0, 40, 79
1, 9377, Note_on_c, 1, 67, 0
1, 9377, Note_on_c, 1, 72, 0
1, 9377, Note_on_c, 0, 40, 0
1, 9381, Note_on_c, 0, 42, 79
1, 9542, Note_on_c, 0, 42, 0
1, 9545, Note_on_c, 0, 43, 79
1, 9706, Note_on_c, 0, 43, 0
1, 9710, Note_on_c, 0, 48, 79
1, 9871, Note_on_c, 0, 48, 0
1, 9874, Note_on_c, 0, 40, 79
1, 10035, Note_on_c, 0, 40, 0
1, 10039, Note_on_c, 0, 42, 79
1, 10200, Note_on_c, 0, 42, 0
1, 10203, Note_on_c, 1, 72, 79
1, 10203, Note_on_c, 1, 67, 79
1, 10203, Note_on_c, 0, 43, 79
1, 10365, Note_on_c, 0, 43, 0
1, 10368, Note_on_c, 0, 48, 79
1, 10529, Note_on_c, 1, 67, 0
1, 10529, Note_on_c, 1, 72, 0
1, 10529, Note_on_c, 0, 48, 0
1, 10533, Note_on_c, 1, 72, 79
1, 10533, Note_on_c, 1, 76, 79
1, 10533, Note_on_c, 0, 45, 79
1, 10694, Note_on_c, 1, 76, 0
1, 10694, Note_on_c, 1, 72, 0
1, 10694, Note_on_c, 0, 45, 0
1, 10697, Note_on_c, 0, 47, 79
1, 10858, Note_on_c, 0, 47, 0
1, 10862, Note_on_c, 0, 48, 79
1, 11023, Note_on_c, 0, 48, 0
1, 11026, Note_on_c, 0, 52, 79
1, 11187, Note_on_c, 0, 52, 0
1, 11191, Note_on_c, 0, 45, 79
1, 11352, Note_on_c, 0, 45, 0
1, 11355, Note_on_c, 0, 47, 79
1, 11517, Note_on_c, 0, 47, 0
1, 11520, Note_on_c, 1, 72, 79
1, 11520, Note_on_c, 1, 76, 79
1, 11520, Note_on_c, 0, 48, 79
1, 11681, Note_on_c, 0, 48, 0
1, 11685, Note_on_c, 0, 52, 79
1, 11846, Note_on_c, 1, 76, 0
1, 11846, Note_on_c, 1, 72, 0
1, 11846, Note_on_c, 0, 52, 0
1, 11849, Note_on_c, 1, 77, 79
1, 11849, Note_on_c, 1, 72, 79
1, 11849, Note_on_c, 0, 45, 79
1, 12010, Note_on_c, 1, 72, 0
1, 12010, Note_on_c, 1, 77, 0
1, 12010, Note_on_c, 0, 45, 0
1, 12014, Note_on_c, 0, 47, 79
1, 12175, Note_on_c, 0, 47, 0
1, 12178, Note_on_c, 0, 48, 79
1, 12339, Note_on_c, 0, 48, 0
1, 12343, Note_on_c, 0, 53, 79
1, 12504, Note_on_c, 0, 53, 0
1, 12507, Note_on_c, 0, 45, 79
1, 12669, Note_on_c, 0, 45, 0
1, 12672, Note_on_c, 0, 47, 79
1, 12833, Note_on_c, 0, 47, 0
1, 12837, Note_on_c, 1, 77, 79
1, 12837, Note_on_c, 1, 72, 79
1, 12837, Note_on_c, 0, 48, 79
1, 12998, Note_on_c, 0, 48, 0
1, 13001, Note_on_c, 0, 53, 79
1, 13162, Note_on_c, 1, 72, 0
1, 13162, Note_on_c, 1, 77, 0
1, 13162, Note_on_c, 0, 53, 0
1, 13166, Note_on_c, 1, 78, 79
1, 13166, Note_on_c, 1, 72, 79
1, 13166, Note_on_c, 0, 45, 79
1, 13327, Note_on_c, 1, 72, 0
1, 13327, Note_on_c, 1, 78, 0
1, 13327, Note_on_c, 0, 45, 0
1, 13330, Note_on_c, 0, 47, 79
1, 13491, Note_on_c, 0, 47, 0
1, 13495, Note_on_c, 0, 48, 79
1, 13656, Note_on_c, 0, 48, 0
1, 13659, Note_on_c, 0, 54, 79
1, 13821, Note_on_c, 0, 54, 0
1, 13824, Note_on_c, 0, 45, 79
1, 13985, Note_on_c, 0, 45, 0
1, 13989, Note_on_c, 0, 47, 79
1, 14150, Note_on_c, 0, 47, 0
1, 14153, Note_on_c, 1, 78, 79
1, 14153, Note_on_c, 1, 72, 79
1, 14153, Note_on_c, 0, 48, 79
1, 14314, Note_on_c, 0, 48, 0
1, 14318, Note_on_c, 0, 54, 79
1, 14479, Note_on_c, 1, 72, 0
1, 14479, Note_on_c, 1, 78, 0
1, 14479, Note_on_c, 0, 54, 0
1, 14482, Note_on_c, 1, 77, 79
1, 14482, Note_on_c, 1, 72, 79
1, 14482, Note_on_c, 0, 45, 79
1, 14643, Note_on_c, 1, 72, 0
1, 14643, Note_on_c, 1, 77, 0
1, 14643, Note_on_c, 0, 45, 0
1, 14647, Note_on_c, 0, 47, 79
1, 14808, Note_on_c, 0, 47, 0
1, 14811, Note_on_c, 0, 48, 79
1, 14973, Note_on_c, 0, 48, 0
1, 14976, Note_on_c, 0, 53, 79
1, 15137, Note_on_c, 0, 53, 0
1, 15141, Note_on_c, 0, 45, 79
1, 15302, Note_on_c, 0, 45, 0
1, 15305, Note_on_c, 0, 47, 79
1, 15466, Note_on_c, 0, 47, 0
1, 15470, Note_on_c, 1, 72, 79
1, 15470, Note_on_c, 1, 77, 79
1, 15470, Note_on_c, 0, 48, 79
1, 15631, Note_on_c, 0, 48, 0
1, 15634, Note_on_c, 0, 53, 79
1, 15795, Note_on_c, 1, 77, 0
1, 15795, Note_on_c, 1, 72, 0
1, 15795, Note_on_c, 0, 53, 0
1, 15799, Note_on_c, 1, 76, 79
1, 15799, Note_on_c, 1, 72, 79
1, 15799, Note_on_c, 0, 45, 79
1, 15960, Note_on_c, 1, 72, 0
1, 15960, Note_on_c, 1, 76, 0
1, 15960, Note_on_c, 0, 45, 0
1, 15963, Note_on_c, 0, 47, 79
1, 16125, Note_on_c, 0, 47, 0
1, 16128, Note_on_c, 0, 48, 79
1, 16289, Note_on_c, 0, 48, 0
1, 16293, Note_on_c, 0, 52, 79
1, 16454, Note_on_c, 0, 52, 0
1, 16457, Note_on_c, 0, 45, 79
1, 16618, Note_on_c, 0, 45, 0
1, 16622, Note_on_c, 0, 47, 79
1, 16783, Note_on_c, 0, 47, 0
1, 16786, Note_on_c, 1, 76, 79
1, 16786, Note_on_c, 1, 72, 79
1, 16786, Note_on_c, 0, 48, 79
1, 16947, Note_on_c, 0, 48, 0
1, 16951, Note_on_c, 0, 52, 79
1, 17112, Note_on_c, 1, 72, 0
1, 17112, Note_on_c, 1, 76, 0
1, 17112, Note_on_c, 0, 52, 0
1, 17115, Note_on_c, 1, 77, 79
1, 17115, Note_on_c, 1, 72, 79
1, 17115, Note_on_c, 0, 45, 79
1, 17277, Note_on_c, 1, 72, 0
1, 17277, Note_on_c, 1, 77, 0
1, 17277, Note_on_c, 0, 45, 0
1, 17280, Note_on_c, 0, 47, 79
1, 17441, Note_on_c, 0, 47, 0
1, 17445, Note_on_c, 0, 48, 79
1, 17606, Note_on_c, 0, 48, 0
1, 17609, Note_on_c, 0, 53, 79
1, 17770, Note_on_c, 0, 53, 0
1, 17774, Note_on_c, 0, 45, 79
1, 17935, Note_on_c, 0, 45, 0
1, 17938, Note_on_c, 0, 47, 79
1, 18099, Note_on_c, 0, 47, 0
1, 18103, Note_on_c, 1, 77, 79
1, 18103, Note_on_c, 1, 72, 79
1, 18103, Note_on_c, 0, 48, 79
1, 18264, Note_on_c, 0, 48, 0
1, 18267, Note_on_c, 0, 53, 79
1, 18429, Note_on_c, 1, 72, 0
1, 18429, Note_on_c, 1, 77, 0
1, 18429, Note_on_c, 0, 53, 0
1, 18432, Note_on_c, 1, 78, 79
1, 18432, Note_on_c, 1, 72, 79
1, 18432, Note_on_c, 0, 45, 79
1, 18593, Note_on_c, 1, 72, 0
1, 18593, Note_on_c, 1, 78, 0
1, 18593, Note_on_c, 0, 45, 0
1, 18597, Note_on_c, 0, 47, 79
1, 18758, Note_on_c, 0, 47, 0
1, 18761, Note_on_c, 0, 48, 79
1, 18922, Note_on_c, 0, 48, 0
1, 18926, Note_on_c, 0, 54, 79
1, 19087, Note_on_c, 0, 54, 0
1, 19090, Note_on_c, 0, 45, 79
1, 19251, Note_on_c, 0, 45, 0
1, 19255, Note_on_c, 0, 47, 79
1, 19416, Note_on_c, 0, 47, 0
1, 19419, Note_on_c, 1, 78, 79
1, 19419, Note_on_c, 1, 72, 79
1, 19419, Note_on_c, 0, 48, 79
1, 19581, Note_on_c, 0, 48, 0
1, 19584, Note_on_c, 0, 54, 79
1, 19745, Note_on_c, 1, 72, 0
1, 19745, Note_on_c, 1, 78, 0
1, 19745, Note_on_c, 0, 54, 0
1, 19749, Note_on_c, 1, 77, 79
1, 19749, Note_on_c, 1, 72, 79
1, 19749, Note_on_c, 0, 45, 79
1, 19910, Note_on_c, 1, 72, 0
1, 19910, Note_on_c, 1, 77, 0
1, 19910, Note_on_c, 0, 45, 0
1, 19913, Note_on_c, 0, 47, 79
1, 20074, Note_on_c, 0, 47, 0
1, 20078, Note_on_c, 0, 48, 79
1, 20239, Note_on_c, 0, 48, 0
1, 20242, Note_on_c, 0, 53, 79
1, 20403, Note_on_c, 0, 53, 0
1, 20407, Note_on_c, 0, 45, 79
1, 20568, Note_on_c, 0, 45, 0
1, 20571, Note_on_c, 0, 47, 79
1, 20733, Note_on_c, 0, 47, 0
1, 20736, Note_on_c, 1, 77, 79
1, 20736, Note_on_c, 1, 72, 79
1, 20736, Note_on_c, 0, 48, 79
1, 20897, Note_on_c, 0, 48, 0
1, 20901, Note_on_c, 0, 53, 79
1, 21062, Note_on_c, 1, 72, 0
1, 21062, Note_on_c, 1, 77, 0
1, 21062, Note_on_c, 0, 53, 0
1, 21065, Note_on_c, 9, 57, 79
1, 21065, Note_on_c, 9, 44, 79
1, 21065, Note_on_c, 9, 36, 79
1, 21065, Note_on_c, 1, 83, 79
1, 21065, Note_on_c, 0, 35, 79
1, 21144, Note_on_c, 9, 36, 0
1, 21144, Note_on_c, 9, 57, 0
1, 21144, Note_on_c, 9, 44, 0
1, 21144, Note_on_c, 1, 83, 0
1, 21147, Note_on_c, 1, 83, 79
1, 21226, Note_on_c, 1, 83, 0
1, 21226, Note_on_c, 0, 35, 0
1, 21230, Note_on_c, 9, 44, 79
1, 21230, Note_on_c, 1, 83, 79
1, 21230, Note_on_c, 0, 35, 79
1, 21309, Note_on_c, 9, 44, 0
1, 21309, Note_on_c, 1, 83, 0
1, 21312, Note_on_c, 9, 44, 79
1, 21312, Note_on_c, 1, 83, 79
1, 21391, Note_on_c, 9, 44, 0
1, 21391, Note_on_c, 1, 83, 0
1, 21391, Note_on_c, 0, 35, 0
1, 21394, Note_on_c, 9, 44, 79
1, 21394, Note_on_c, 9, 38, 79
1, 21394, Note_on_c, 1, 79, 79
1, 21394, Note_on_c, 0, 43, 79
1, 21473, Note_on_c, 9, 38, 0
1, 21473, Note_on_c, 9, 44, 0
1, 21473, Note_on_c, 1, 79, 0
1, 21477, Note_on_c, 1, 79, 79
1, 21555, Note_on_c, 1, 79, 0
1, 21555, Note_on_c, 0, 43, 0
1, 21559, Note_on_c, 9, 44, 79
1, 21559, Note_on_c, 1, 79, 79
1, 21559, Note_on_c, 0, 35, 79
1, 21638, Note_on_c, 9, 44, 0
1, 21638, Note_on_c, 1, 79, 0
1, 21641, Note_on_c, 1, 79, 79
1, 21720, Note_on_c, 1, 79, 0
1, 21720, Note_on_c, 0, 35, 0
1, 21723, Note_on_c, 9, 44, 79
1, 21723, Note_on_c, 9, 36, 79
1, 21723, Note_on_c, 1, 76, 79
1, 21723, Note_on_c, 0, 35, 79
1, 21802, Note_on_c, 9, 44, 0
1, 21802, Note_on_c, 9, 36, 0
1, 21802, Note_on_c, 1, 76, 0
1, 21806, Note_on_c, 1, 76, 79
1, 21885, Note_on_c, 1, 76, 0
1, 21885, Note_on_c, 0, 35, 0
1, 21888, Note_on_c, 9, 44, 79
1, 21888, Note_on_c, 1, 76, 79
1, 21888, Note_on_c, 0, 43, 79
1, 21967, Note_on_c, 9, 44, 0
1, 21967, Note_on_c, 1, 76, 0
1, 21970, Note_on_c, 9, 44, 79
1, 21970, Note_on_c, 1, 76, 79
1, 22049, Note_on_c, 9, 44, 0
1, 22049, Note_on_c, 1, 76, 0
1, 22049, Note_on_c, 0, 43, 0
1, 22053, Note_on_c, 9, 44, 79
1, 22053, Note_on_c, 9, 38, 79
1, 22053, Note_on_c, 1, 72, 79
1, 22053, Note_on_c, 0, 35, 79
1, 22131, Note_on_c, 9, 38, 0
1, 22131, Note_on_c, 9, 44, 0
1, 22131, Note_on_c, 1, 72, 0
1, 22135, Note_on_c, 1, 72, 79
1, 22214, Note_on_c, 1, 72, 0
1, 22214, Note_on_c, 0, 35, 0
1, 22217, Note_on_c, 9, 44, 79
1, 22217, Note_on_c, 9, 36, 79
1, 22217, Note_on_c, 1, 72, 79
1, 22217, Note_on_c, 0, 43, 79
1, 22296, Note_on_c, 9, 44, 0
1, 22296, Note_on_c, 9, 36, 0
1, 22296, Note_on_c, 1, 72, 0
1, 22299, Note_on_c, 1, 72, 79
1, 22378, Note_on_c, 1, 72, 0
1, 22378, Note_on_c, 0, 43, 0
1, 22382, Note_on_c, 9, 44, 79
1, 22382, Note_on_c, 9, 36, 79
1, 22382, Note_on_c, 1, 71, 79
1, 22382, Note_on_c, 0, 36, 79
1, 22461, Note_on_c, 9, 36, 0
1, 22461, Note_on_c, 9, 44, 0
1, 22461, Note_on_c, 1, 71, 0
1, 22464, Note_on_c, 1, 71, 79
1, 22543, Note_on_c, 1, 71, 0
1, 22543, Note_on_c, 0, 36, 0
1, 22546, Note_on_c, 9, 44, 79
1, 22546, Note_on_c, 1, 71, 79
1, 22546, Note_on_c, 0, 36, 79
1, 22625, Note_on_c, 9, 44, 0
1, 22625, Note_on_c, 1, 71, 0
1, 22629, Note_on_c, 9, 44, 79
1, 22629, Note_on_c, 1, 71, 79
1, 22707, Note_on_c, 9, 44, 0
1, 22707, Note_on_c, 1, 71, 0
1, 22707, Note_on_c, 0, 36, 0
1, 22711, Note_on_c, 9, 44, 79
1, 22711, Note_on_c, 9, 38, 79
1, 22711, Note_on_c, 1, 67, 79
1, 22711, Note_on_c, 0, 43, 79
1, 22790, Note_on_c, 9, 38, 0
1, 22790, Note_on_c, 9, 44, 0
1, 22790, Note_on_c, 1, 67, 0
1, 22793, Note_on_c, 1, 67, 79
1, 22872, Note_on_c, 1, 67, 0
1, 22872, Note_on_c, 0, 43, 0
1, 22875, Note_on_c, 9, 44, 79
1, 22875, Note_on_c, 1, 67, 79
1, 22875, Note_on_c, 0, 36, 79
1, 22954, Note_on_c, 9, 44, 0
1, 22954, Note_on_c, 1, 67, 0
1, 22958, Note_on_c, 1, 67, 79
1, 23037, Note_on_c, 1, 67, 0
1, 23037, Note_on_c, 0, 36, 0
1, 23040, Note_on_c, 9, 44, 79
1, 23040, Note_on_c, 9, 36, 79
1, 23040, Note_on_c, 1, 64, 79
1, 23040, Note_on_c, 0, 36, 79
1, 23119, Note_on_c, 9, 36, 0
1, 23119, Note_on_c, 9, 44, 0
1, 23119, Note_on_c, 1, 64, 0
1, 23122, Note_on_c, 1, 64, 79
1, 23201, Note_on_c, 1, 64, 0
1, 23201, Note_on_c, 0, 36, 0
1, 23205, Note_on_c, 9, 44, 79
1, 23205, Note_on_c, 1, 64, 79
1, 23205, Note_on_c, 0, 43, 79
1, 23283, Note_on_c, 9, 44, 0
1, 23283, Note_on_c, 1, 64, 0
1, 23287, Note_on_c, 9, 44, 79
1, 23287, Note_on_c, 1, 64, 79
1, 23366, Note_on_c, 9, 44, 0
1, 23366, Note_on_c, 1, 64, 0
1, 23366, Note_on_c, 0, 43, 0
1, 23369, Note_on_c, 9, 44, 79
1, 23369, Note_on_c, 9, 38, 79
1, 23369, Note_on_c, 1, 60, 79
1, 23369, Note_on_c, 0, 36, 79
1, 23448, Note_on_c, 9, 38, 0
1, 23448, Note_on_c, 9, 44, 0
1, 23448, Note_on_c, 1, 60, 0
1, 23451, Note_on_c, 1, 60, 79
1, 23530, Note_on_c, 1, 60, 0
1, 23530, Note_on_c, 0, 36, 0
1, 23534, Note_on_c, 9, 44, 79
1, 23534, Note_on_c, 9, 36, 79
1, 23534, Note_on_c, 1, 60, 79
1, 23534, Note_on_c, 0, 43, 79
1, 23613, Note_on_c, 9, 36, 0
1, 23613, Note_on_c, 9, 44, 0
1, 23613, Note_on_c, 1, 60, 0
1, 23616, Note_on_c, 1, 60, 79
1, 23695, Note_on_c, 1, 60, 0
1, 23695, Note_on_c, 0, 43, 0
1, 23698, Note_on_c, 9, 44, 79
1, 23698, Note_on_c, 9, 36, 79
1, 23698, Note_on_c, 1, 61, 79
1, 23698, Note_on_c, 0, 37, 79
1, 23777, Note_on_c, 9, 36, 0
1, 23777, Note_on_c, 9, 44, 0
1, 23777, Note_on_c, 1, 61, 0
1, 23781, Note_on_c, 1, 61, 79
1, 23859, Note_on_c, 1, 61, 0
1, 23859, Note_on_c, 0, 37, 0
1, 23863, Note_on_c, 9, 44, 79
1, 23863, Note_on_c, 1, 61, 79
1, 23863, Note_on_c, 0, 37, 79
1, 23942, Note_on_c, 9, 44, 0
1, 23942, Note_on_c, 1, 61, 0
1, 23945, Note_on_c, 9, 44, 79
1, 23945, Note_on_c, 1, 61, 79
1, 24024, Note_on_c, 9, 44, 0
1, 24024, Note_on_c, 1, 61, 0
1, 24024, Note_on_c, 0, 37, 0
1, 24027, Note_on_c, 9, 44, 79
1, 24027, Note_on_c, 9, 38, 79
1, 24027, Note_on_c, 1, 64, 79
1, 24027, Note_on_c, 0, 43, 79
1, 24106, Note_on_c, 9, 38, 0
1, 24106, Note_on_c, 9, 44, 0
1, 24106, Note_on_c, 1, 64, 0
1, 24110, Note_on_c, 1, 64, 79
1, 24189, Note_on_c, 1, 64, 0
1, 24189, Note_on_c, 0, 43, 0
1, 24192, Note_on_c, 9, 44, 79
1, 24192, Note_on_c, 1, 64, 79
1, 24192, Note_on_c, 0, 37, 79
1, 24271, Note_on_c, 9, 44, 0
1, 24271, Note_on_c, 1, 64, 0
1, 24274, Note_on_c, 1, 64, 79
1, 24353, Note_on_c, 1, 64, 0
1, 24353, Note_on_c, 0, 37, 0
1, 24357, Note_on_c, 9, 44, 79
1, 24357, Note_on_c, 9, 36, 79
1, 24357, Note_on_c, 1, 67, 79
1, 24357, Note_on_c, 0, 37, 79
1, 24435, Note_on_c, 9, 36, 0
1, 24435, Note_on_c, 9, 44, 0
1, 24435, Note_on_c, 1, 67, 0
1, 24439, Note_on_c, 1, 67, 79
1, 24518, Note_on_c, 1, 67, 0
1, 24518, Note_on_c, 0, 37, 0
1, 24521, Note_on_c, 9, 44, 79
1, 24521, Note_on_c, 1, 67, 79
1, 24521, Note_on_c, 0, 43, 79
1, 24600, Note_on_c, 9, 44, 0
1, 24600, Note_on_c, 1, 67, 0
1, 24603, Note_on_c, 9, 44, 79
1, 24603, Note_on_c, 1, 67, 79
1, 24682, Note_on_c, 9, 44, 0
1, 24682, Note_on_c, 1, 67, 0
1, 24682, Note_on_c, 0, 43, 0
1, 24686, Note_on_c, 9, 44, 79
1, 24686, Note_on_c, 9, 38, 79
1, 24686, Note_on_c, 1, 71, 79
1, 24686, Note_on_c, 0, 37, 79
1, 24765, Note_on_c, 9, 38, 0
1, 24765, Note_on_c, 9, 44, 0
1, 24765, Note_on_c, 1, 71, 0
1, 24768, Note_on_c, 1, 71, 79
1, 24847, Note_on_c, 1, 71, 0
1, 24847, Note_on_c, 0, 37, 0
1, 24850, Note_on_c, 9, 44, 79
1, 24850, Note_on_c, 9, 36, 79
1, 24850, Note_on_c, 1, 71, 79
1, 24850, Note_on_c, 0, 43, 79
1, 24929, Note_on_c, 9, 36, 0
1, 24929, Note_on_c, 9, 44, 0
1, 24929, Note_on_c, 1, 71, 0
1, 24933, Note_on_c, 1, 71, 79
1, 25011, Note_on_c, 1, 71, 0
1, 25011, Note_on_c, 0, 43, 0
1, 25015, Note_on_c, 9, 44, 79
1, 25015, Note_on_c, 9, 36, 79
1, 25015, Note_on_c, 1, 72, 79
1, 25015, Note_on_c, 0, 36, 79
1, 25094, Note_on_c, 9, 36, 0
1, 25094, Note_on_c, 9, 44, 0
1, 25094, Note_on_c, 1, 72, 0
1, 25097, Note_on_c, 1, 64, 79
1, 25176, Note_on_c, 1, 64, 0
1, 25176, Note_on_c, 0, 36, 0
1, 25179, Note_on_c, 9, 44, 79
1, 25179, Note_on_c, 1, 66, 79
1, 25179, Note_on_c, 0, 36, 79
1, 25258, Note_on_c, 9, 44, 0
1, 25258, Note_on_c, 1, 66, 0
1, 25262, Note_on_c, 9, 44, 79
1, 25262, Note_on_c, 1, 67, 79
1, 25341, Note_on_c, 9, 44, 0
1, 25341, Note_on_c, 1, 67, 0
1, 25341, Note_on_c, 0, 36, 0
1, 25344, Note_on_c, 9, 44, 79
1, 25344, Note_on_c, 9, 38, 79
1, 25344, Note_on_c, 1, 72, 79
1, 25344, Note_on_c, 0, 43, 79
1, 25423, Note_on_c, 9, 38, 0
1, 25423, Note_on_c, 9, 44, 0
1, 25423, Note_on_c, 1, 72, 0
1, 25426, Note_on_c, 1, 67, 79
1, 25505, Note_on_c, 1, 67, 0
1, 25505, Note_on_c, 0, 43, 0
1, 25509, Note_on_c, 9, 44, 79
1, 25509, Note_on_c, 1, 72, 79
1, 25509, Note_on_c, 0, 36, 79
1, 25587, Note_on_c, 9, 44, 0
1, 25587, Note_on_c, 1, 72, 0
1, 25591, Note_on_c, 1, 74, 79
1, 25670, Note_on_c, 1, 74, 0
1, 25670, Note_on_c, 0, 36, 0
1, 25673, Note_on_c, 9, 44, 79
1, 25673, Note_on_c, 9, 36, 79
1, 25673, Note_on_c, 1, 76, 79
1, 25673, Note_on_c, 0, 36, 79
1, 25752, Note_on_c, 9, 36, 0
1, 25752, Note_on_c, 9, 44, 0
1, 25752, Note_on_c, 1, 76, 0
1, 25755, Note_on_c, 1, 72, 79
1, 25834, Note_on_c, 1, 72, 0
1, 25834, Note_on_c, 0, 36, 0
1, 25838, Note_on_c, 9, 44, 79
1, 25838, Note_on_c, 1, 74, 79
1, 25838, Note_on_c, 0, 43, 79
1, 25917, Note_on_c, 9, 44, 0
1, 25917, Note_on_c, 1, 74, 0
1, 25920, Note_on_c, 9, 44, 79
1, 25920, Note_on_c, 1, 76, 79
1, 25999, Note_on_c, 9, 44, 0
1, 25999, Note_on_c, 1, 76, 0
1, 25999, Note_on_c, 0, 43, 0
1, 26002, Note_on_c, 9, 44, 79
1, 26002, Note_on_c, 9, 38, 79
1, 26002, Note_on_c, 1, 79, 79
1, 26002, Note_on_c, 0, 36, 79
1, 26081, Note_on_c, 9, 38, 0
1, 26081, Note_on_c, 9, 44, 0
1, 26081, Note_on_c, 1, 79, 0
1, 26085, Note_on_c, 1, 76, 79
1, 26163, Note_on_c, 1, 76, 0
1, 26163, Note_on_c, 0, 36, 0
1, 26167, Note_on_c, 9, 44, 79
1, 26167, Note_on_c, 9, 36, 79
1, 26167, Note_on_c, 1, 79, 79
1, 26167, Note_on_c, 0, 43, 79
1, 26246, Note_on_c, 9, 36, 0
1, 26246, Note_on_c, 9, 44, 0
1, 26246, Note_on_c, 1, 79, 0
1, 26249, Note_on_c, 1, 84, 79
1, 26328, Note_on_c, 1, 84, 0
1, 26328, Note_on_c, 0, 43, 0
1, 26331, Note_on_c, 9, 44, 79
1, 26331, Note_on_c, 9, 36, 79
1, 26331, Note_on_c, 1, 83, 79
1, 26331, Note_on_c, 0, 35, 79
1, 26410, Note_on_c, 9, 36, 0
1, 26410, Note_on_c, 9, 44, 0
1, 26410, Note_on_c, 1, 83, 0
1, 26414, Note_on_c, 1, 83, 79
1, 26493, Note_on_c, 1, 83, 0
1, 26493, Note_on_c, 0, 35, 0
1, 26496, Note_on_c, 9, 44, 79
1, 26496, Note_on_c, 1, 83, 79
1, 26496, Note_on_c, 0, 35, 79
1, 26575, Note_on_c, 9, 44, 0
1, 26575, Note_on_c, 1, 83, 0
1, 26578, Note_on_c, 9, 44, 79
1, 26578, Note_on_c, 1, 83, 79
1, 26657, Note_on_c, 9, 44, 0
1, 26657, Note_on_c, 1, 83, 0
1, 26657, Note_on_c, 0, 35, 0
1, 26661, Note_on_c, 9, 44, 79
1, 26661, Note_on_c, 9, 38, 79
1, 26661, Note_on_c, 1, 79, 79
1, 26661, Note_on_c, 0, 43, 79
1, 26739, Note_on_c, 9, 38, 0
1, 26739, Note_on_c, 9, 44, 0
1, 26739, Note_on_c, 1, 79, 0
1, 26743, Note_on_c, 1, 79, 79
1, 26822, Note_on_c, 1, 79, 0
1, 26822, Note_on_c, 0, 43, 0
1, 26825, Note_on_c, 9, 44, 79
1, 26825, Note_on_c, 1, 79, 79
1, 26825, Note_on_c, 0, 35, 79
1, 26904, Note_on_c, 9, 44, 0
1, 26904, Note_on_c, 1, 79, 0
1, 26907, Note_on_c, 1, 79, 79
1, 26986, Note_on_c, 1, 79, 0
1, 26986, Note_on_c, 0, 35, 0
1, 26990, Note_on_c, 9, 44, 79
1, 26990, Note_on_c, 9, 36, 79
1, 26990, Note_on_c, 1, 76, 79
1, 26990, Note_on_c, 0, 35, 79
1, 27069, Note_on_c, 9, 36, 0
1, 27069, Note_on_c, 9, 44, 0
1, 27069, Note_on_c, 1, 76, 0
1, 27072, Note_on_c, 1, 76, 79
1, 27151, Note_on_c, 1, 76, 0
1, 27151, Note_on_c, 0, 35, 0
1, 27154, Note_on_c, 9, 44, 79
1, 27154, Note_on_c, 1, 76, 79
1, 27154, Note_on_c, 0, 43, 79
1, 27233, Note_on_c, 9, 44, 0
1, 27233, Note_on_c, 1, 76, 0
1, 27237, Note_on_c, 9, 44, 79
1, 27237, Note_on_c, 1, 76, 79
1, 27315, Note_on_c, 9, 44, 0
1, 27315, Note_on_c, 1, 76, 0
1, 27315, Note_on_c, 0, 43, 0
1, 27319, Note_on_c, 9, 44, 79
1, 27319, Note_on_c, 9, 38, 79
1, 27319, Note_on_c, 1, 72, 79
1, 27319, Note_on_c, 0, 35, 79
1, 27398, Note_on_c, 9, 38, 0
1, 27398, Note_on_c, 9, 44, 0
1, 27398, Note_on_c, 1, 72, 0
1, 27401, Note_on_c, 1, 72, 79
1, 27480, Note_on_c, 1, 72, 0
1, 27480, Note_on_c, 0, 35, 0
1, 27483, Note_on_c, 9, 44, 79
1, 27483, Note_on_c, 9, 36, 79
1, 27483, Note_on_c, 1, 72, 79
1, 27483, Note_on_c, 0, 43, 79
1, 27562, Note_on_c, 9, 36, 0
1, 27562, Note_on_c, 9, 44, 0
1, 27562, Note_on_c, 1, 72, 0
1, 27566, Note_on_c, 1, 72, 79
1, 27645, Note_on_c, 1, 72, 0
1, 27645, Note_on_c, 0, 43, 0
1, 27648, Note_on_c, 9, 44, 79
1, 27648, Note_on_c, 9, 36, 79
1, 27648, Note_on_c, 1, 71, 79
1, 27648, Note_on_c, 0, 36, 79
1, 27727, Note_on_c, 9, 36, 0
1, 27727, Note_on_c, 9, 44, 0
1, 27727, Note_on_c, 1, 71, 0
1, 27730, Note_on_c, 1, 71, 79
1, 27809, Note_on_c, 1, 71, 0
1, 27809, Note_on_c, 0, 36, 0
1, 27813, Note_on_c, 9, 44, 79
1, 27813, Note_on_c, 1, 71, 79
1, 27813, Note_on_c, 0, 36, 79
1, 27891, Note_on_c, 9, 44, 0
1, 27891, Note_on_c, 1, 71, 0
1, 27895, Note_on_c, 9, 44, 79
1, 27895, Note_on_c, 1, 71, 79
1, 27974, Note_on_c, 9, 44, 0
1, 27974, Note_on_c, 1, 71, 0
1, 27974, Note_on_c, 0, 36, 0
1, 27977, Note_on_c, 9, 44, 79
1, 27977, Note_on_c, 9, 38, 79
1, 27977, Note_on_c, 1, 67, 79
1, 27977, Note_on_c, 0, 43, 79
1, 28056, Note_on_c, 9, 38, 0
1, 28056, Note_on_c, 9, 44, 0
1, 28056, Note_on_c, 1, 67, 0
1, 28059, Note_on_c, 1, 67, 79
1, 28138, Note_on_c, 1, 67, 0
1, 28138, Note_on_c, 0, 43, 0
1, 28142, Note_on_c, 9, 44, 79
1, 28142, Note_on_c, 1, 67, 79
1, 28142, Note_on_c, 0, 36, 79
1, 28221, Note_on_c, 9, 44, 0
1, 28221, Note_on_c, 1, 67, 0
1, 28224, Note_on_c, 1, 67, 79
1, 28303, Note_on_c, 1, 67, 0
1, 28303, Note_on_c, 0, 36, 0
1, 28306, Note_on_c, 9, 44, 79
1, 28306, Note_on_c, 9, 36, 79
1, 28306, Note_on_c, 1, 64, 79
1, 28306, Note_on_c, 0, 36, 79
1, 28385, Note_on_c, 9, 36, 0
1, 28385, Note_on_c, 9, 44, 0
1, 28385, Note_on_c, 1, 64, 0
1, 28389, Note_on_c, 1, 64, 79
1, 28467, Note_on_c, 1, 64, 0
1, 28467, Note_on_c, 0, 36, 0
1, 28471, Note_on_c, 9, 44, 79
1, 28471, Note_on_c, 1, 64, 79
1, 28471, Note_on_c, 0, 43, 79
1, 28550, Note_on_c, 9, 44, 0
1, 28550, Note_on_c, 1, 64, 0
1, 28553, Note_on_c, 9, 44, 79
1, 28553, Note_on_c, 1, 64, 79
1, 28632, Note_on_c, 9, 44, 0
1, 28632, Note_on_c, 1, 64, 0
1, 28632, Note_on_c, 0, 43, 0
1, 28635, Note_on_c, 9, 44, 79
1, 28635, Note_on_c, 9, 38, 79
1, 28635, Note_on_c, 1, 60, 79
1, 28635, Note_on_c, 0, 36, 79
1, 28714, Note_on_c, 9, 38, 0
1, 28714, Note_on_c, 9, 44, 0
1, 28714, Note_on_c, 1, 60, 0
1, 28718, Note_on_c, 1, 60, 79
1, 28797, Note_on_c, 1, 60, 0
1, 28797, Note_on_c, 0, 36, 0
1, 28800, Note_on_c, 9, 44, 79
1, 28800, Note_on_c, 9, 36, 79
1, 28800, Note_on_c, 1, 60, 79
1, 28800, Note_on_c, 0, 43, 79
1, 28879, Note_on_c, 9, 36, 0
1, 28879, Note_on_c, 9, 44, 0
1, 28879, Note_on_c, 1, 60, 0
1, 28882, Note_on_c, 1, 60, 79
1, 28961, Note_on_c, 1, 60, 0
1, 28961, Note_on_c, 0, 43, 0
1, 28965, Note_on_c, 9, 44, 79
1, 28965, Note_on_c, 9, 36, 79
1, 28965, Note_on_c, 1, 61, 79
1, 28965, Note_on_c, 0, 37, 79
1, 29043, Note_on_c, 9, 36, 0
1, 29043, Note_on_c, 9, 44, 0
1, 29043, Note_on_c, 1, 61, 0
1, 29047, Note_on_c, 1, 61, 79
1, 29126, Note_on_c, 1, 61, 0
1, 29126, Note_on_c, 0, 37, 0
1, 29129, Note_on_c, 9, 44, 79
1, 29129, Note_on_c, 1, 61, 79
1, 29129, Note_on_c, 0, 37, 79
1, 29208, Note_on_c, 9, 44, 0
1, 29208, Note_on_c, 1, 61, 0
1, 29211, Note_on_c, 9, 44, 79
1, 29211, Note_on_c, 1, 61, 79
1, 29290, Note_on_c, 9, 44, 0
1, 29290, Note_on_c, 1, 61, 0
1, 29290, Note_on_c, 0, 37, 0
1, 29294, Note_on_c, 9, 44, 79
1, 29294, Note_on_c, 9, 38, 79
1, 29294, Note_on_c, 1, 64, 79
1, 29294, Note_on_c, 0, 43, 79
1, 29373, Note_on_c, 9, 38, 0
1, 29373, Note_on_c, 9, 44, 0
1, 29373, Note_on_c, 1, 64, 0
1, 29376, Note_on_c, 1, 64, 79
1, 29455, Note_on_c, 1, 64, 0
1, 29455, Note_on_c, 0, 43, 0
1, 29458, Note_on_c, 9, 44, 79
1, 29458, Note_on_c, 1, 64, 79
1, 29458, Note_on_c, 0, 37, 79
1, 29537, Note_on_c, 9, 44, 0
1, 29537, Note_on_c, 1, 64, 0
1, 29541, Note_on_c, 1, 64, 79
1, 29619, Note_on_c, 1, 64, 0
1, 29619, Note_on_c, 0, 37, 0
1, 29623, Note_on_c, 9, 44, 79
1, 29623, Note_on_c, 9, 36, 79
1, 29623, Note_on_c, 1, 67, 79
1, 29623, Note_on_c, 0, 37, 79
1, 29702, Note_on_c, 9, 36, 0
1, 29702, Note_on_c, 9, 44, 0
1, 29702, Note_on_c, 1, 67, 0
1, 29705, Note_on_c, 1, 67, 79
1, 29784, Note_on_c, 1, 67, 0
1, 29784, Note_on_c, 0, 37, 0
1, 29787, Note_on_c, 9, 44, 79
1, 29787, Note_on_c, 1, 67, 79
1, 29787, Note_on_c, 0, 43, 79
1, 29866, Note_on_c, 9, 44, 0
1, 29866, Note_on_c, 1, 67, 0
1, 29870, Note_on_c, 9, 44, 79
1, 29870, Note_on_c, 1, 67, 79
1, 29949, Note_on_c, 9, 44, 0
1, 29949, Note_on_c, 1, 67, 0
1, 29949, Note_on_c, 0, 43, 0
1, 29952, Note_on_c, 9, 44, 79
1, 29952, Note_on_c, 9, 38, 79
1, 29952, Note_on_c, 1, 71, 79
1, 29952, Note_on_c, 0, 37, 79
1, 30031, Note_on_c, 9, 38, 0
1, 30031, Note_on_c, 9, 44, 0
1, 30031, Note_on_c, 1, 71, 0
1, 30034, Note_on_c, 1, 71, 79
1, 30113, Note_on_c, 1, 71, 0
1, 30113, Note_on_c, 0, 37, 0
1, 30117, Note_on_c, 9, 44, 79
1, 30117, Note_on_c, 9, 36, 79
1, 30117, Note_on_c, 1, 71, 79
1, 30117, Note_on_c, 0, 43, 79
1, 30195, Note_on_c, 9, 36, 0
1, 30195, Note_on_c, 9, 44, 0
1, 30195, Note_on_c, 1, 71, 0
1, 30199, Note_on_c, 1, 71, 79
1, 30278, Note_on_c, 1, 71, 0
1, 30278, Note_on_c, 0, 43, 0
1, 30281, Note_on_c, 9, 44, 79
1, 30281, Note_on_c, 9, 36, 79
1, 30281, Note_on_c, 1, 72, 79
1, 30281, Note_on_c, 0, 36, 79
1, 30360, Note_on_c, 9, 36, 0
1, 30360, Note_on_c, 9, 44, 0
1, 30360, Note_on_c, 1, 72, 0
1, 30363, Note_on_c, 1, 64, 79
1, 30442, Note_on_c, 1, 64, 0
1, 30442, Note_on_c, 0, 36, 0
1, 30446, Note_on_c, 9, 44, 79
1, 30446, Note_on_c, 1, 66, 79
1, 30446, Note_on_c, 0, 36, 79
1, 30525, Note_on_c, 9, 44, 0
1, 30525, Note_on_c, 1, 66, 0
1, 30528, Note_on_c, 9, 44, 79
1, 30528, Note_on_c, 1, 67, 79
1, 30607, Note_on_c, 9, 44, 0
1, 30607, Note_on_c, 1, 67, 0
1, 30607, Note_on_c, 0, 36, 0
1, 30610, Note_on_c, 9, 44, 79
1, 30610, Note_on_c, 9, 38, 79
1, 30610, Note_on_c, 1, 72, 79
1, 30610, Note_on_c, 0, 43, 79
1, 30689, Note_on_c, 9, 38, 0
1, 30689, Note_on_c, 9, 44, 0
1, 30689, Note_on_c, 1, 72, 0
1, 30693, Note_on_c, 1, 67, 79
1, 30771, Note_on_c, 1, 67, 0
1, 30771, Note_on_c, 0, 43, 0
1, 30775, Note_on_c, 9, 44, 79
1, 30775, Note_on_c, 1, 72, 79
1, 30775, Note_on_c, 0, 36, 79
1, 30854, Note_on_c, 9, 44, 0
1, 30854, Note_on_c, 1, 72, 0
1, 30857, Note_on_c, 1, 74, 79
1, 30936, Note_on_c, 1, 74, 0
1, 30936, Note_on_c, 0, 36, 0
1, 30939, Note_on_c, 9, 44, 79
1, 30939, Note_on_c, 9, 36, 79
1, 30939, Note_on_c, 1, 76, 79
1, 30939, Note_on_c, 0, 36, 79
1, 31018, Note_on_c, 9, 36, 0
1, 31018, Note_on_c, 9, 44, 0
1, 31018, Note_on_c, 1, 76, 0
1, 31022, Note_on_c, 1, 72, 79
1, 31101, Note_on_c, 1, 72, 0
1, 31101, Note_on_c, 0, 36, 0
1, 31104, Note_on_c, 9, 44, 79
1, 31104, Note_on_c, 1, 74, 79
1, 31104, Note_on_c, 0, 43, 79
1, 31183, Note_on_c, 9, 44, 0
1, 31183, Note_on_c, 1, 74, 0
1, 31186, Note_on_c, 9, 44, 79
1, 31186, Note_on_c, 1, 76, 79
1, 31265, Note_on_c, 9, 44, 0
1, 31265, Note_on_c, 1, 76, 0
1, 31265, Note_on_c, 0, 43, 0
1, 31269, Note_on_c, 9, 44, 79
1, 31269, Note_on_c, 9, 38, 79
1, 31269, Note_on_c, 1, 79, 79
1, 31269, Note_on_c, 0, 36, 79
1, 31347, Note_on_c, 9, 38, 0
1, 31347, Note_on_c, 9, 44, 0
1, 31347, Note_on_c, 1, 79, 0
1, 31351, Note_on_c, 1, 76, 79
1, 31430, Note_on_c, 1, 76, 0
1, 31430, Note_on_c, 0, 36, 0
1, 31433, Note_on_c, 9, 44, 79
1, 31433, Note_on_c, 9, 36, 79
1, 31433, Note_on_c, 1, 79, 79
1, 31433, Note_on_c, 0, 43, 79
1, 31512, Note_on_c, 9, 36, 0
1, 31512, Note_on_c, 9, 44, 0
1, 31512, Note_on_c, 1, 79, 0
1, 31515, Note_on_c, 1, 84, 79
1, 31594, Note_on_c, 1, 84, 0
1, 31594, Note_on_c, 0, 43, 0
1, 31598, Note_on_c, 1, 67, 79
1, 31598, Note_on_c, 1, 71, 79
1, 31598, Note_on_c, 0, 40, 79
1, 31759, Note_on_c, 1, 71, 0
1, 31759, Note_on_c, 1, 67, 0
1, 31759, Note_on_c, 0, 40, 0
1, 31762, Note_on_c, 0, 42, 79
1, 31923, Note_on_c, 0, 42, 0
1, 31927, Note_on_c, 0, 43, 79
1, 32088, Note_on_c, 0, 43, 0
1, 32091, Note_on_c, 0, 47, 79
1, 32253, Note_on_c, 0, 47, 0
1, 32256, Note_on_c, 0, 40, 79
1, 32417, Note_on_c, 0, 40, 0
1, 32421, Note_on_c, 0, 42, 79
1, 32582, Note_on_c, 0, 42, 0
1, 32585, Note_on_c, 1, 67, 79
1, 32585, Note_on_c, 1, 71, 79
1, 32585, Note_on_c, 0, 43, 79
1, 32746, Note_on_c, 0, 43, 0
1, 32750, Note_on_c, 0, 47, 79
1, 32911, Note_on_c, 1, 71, 0
1, 32911, Note_on_c, 1, 67, 0
1, 32911, Note_on_c, 0, 47, 0
1, 32914, Note_on_c, 1, 72, 79
1, 32914, Note_on_c, 1, 67, 79
1, 32914, Note_on_c, 0, 40, 79
1, 33075, Note_on_c, 1, 67, 0
1, 33075, Note_on_c, 1, 72, 0
1, 33075, Note_on_c, 0, 40, 0
1, 33079, Note_on_c, 0, 42, 79
1, 33240, Note_on_c, 0, 42, 0
1, 33243, Note_on_c, 0, 43, 79
1, 33405, Note_on_c, 0, 43, 0
1, 33408, Note_on_c, 0, 48, 79
1, 33569, Note_on_c, 0, 48, 0
1, 33573, Note_on_c, 0, 40, 79
1, 33734, Note_on_c, 0, 40, 0
1, 33737, Note_on_c, 0, 42, 79
1, 33898, Note_on_c, 0, 42, 0
1, 33902, Note_on_c, 1, 72, 79
1, 33902, Note_on_c, 1, 67, 79
1, 33902, Note_on_c, 0, 43, 79
1, 34063, Note_on_c, 0, 43, 0
1, 34066, Note_on_c, 0, 48, 79
1, 34227, Note_on_c, 1, 67, 0
1, 34227, Note_on_c, 1, 72, 0
1, 34227, Note_on_c, 0, 48, 0
1, 34231, Note_on_c, 1, 73, 79
1, 34231, Note_on_c, 1, 67, 79
1, 34231, Note_on_c, 0, 40, 79
1, 34392, Note_on_c, 1, 67, 0
1, 34392, Note_on_c, 1, 73, 0
1, 34392, Note_on_c, 0, 40, 0
1, 34395, Note_on_c, 0, 42, 79
1, 34557, Note_on_c, 0, 42, 0
1, 34560, Note_on_c, 0, 43, 79
1, 34721, Note_on_c, 0, 43, 0
1, 34725, Note_on_c, 0, 49, 79
1, 34886, Note_on_c, 0, 49, 0
1, 34889, Note_on_c, 0, 40, 79
1, 35050, Note_on_c, 0, 40, 0
1, 35054, Note_on_c, 0, 42, 79
1, 35215, Note_on_c, 0, 42, 0
1, 35218, Note_on_c, 1, 73, 79
1, 35218, Note_on_c, 1, 67, 79
1, 35218, Note_on_c, 0, 43, 79
1, 35379, Note_on_c, 0, 43, 0
1, 35383, Note_on_c, 0, 49, 79
1, 35544, Note_on_c, 1, 67, 0
1, 35544, Note_on_c, 1, 73, 0
1, 35544, Note_on_c, 0, 49, 0
1, 35547, Note_on_c, 1, 72, 79
1, 35547, Note_on_c, 1, 67, 79
1, 35547, Note_on_c, 0, 40, 79
1, 35709, Note_on_c, 1, 67, 0
1, 35709, Note_on_c, 1, 72, 0
1, 35709, Note_on_c, 0, 40, 0
1, 35712, Note_on_c, 0, 42, 79
1, 35873, Note_on_c, 0, 42, 0
1, 35877, Note_on_c, 0, 43, 79
1, 36038, Note_on_c, 0, 43, 0
1, 36041, Note_on_c, 0, 48, 79
1, 36202, Note_on_c, 0, 48, 0
1, 36206, Note_on_c, 0, 40, 79
1, 36367, Note_on_c, 0, 40, 0
1, 36370, Note_on_c, 0, 42, 79
1, 36531, Note_on_c, 0, 42, 0
1, 36535, Note_on_c, 1, 67, 79
1, 36535, Note_on_c, 1, 72, 79
1, 36535, Note_on_c, 0, 43, 79
1, 36696, Note_on_c, 0, 43, 0
1, 36699, Note_on_c, 0, 48, 79
1, 36861, Note_on_c, 1, 72, 0
1, 36861, Note_on_c, 1, 67, 0
1, 36861, Note_on_c, 0, 48, 0
1, 36864, Note_on_c, 1, 71, 79
1, 36864, Note_on_c, 1, 67, 79
1, 36864, Note_on_c, 0, 40, 79
1, 37025, Note_on_c, 1, 67, 0
1, 37025, Note_on_c, 1, 71, 0
1, 37025, Note_on_c, 0, 40, 0
1, 37029, Note_on_c, 0, 42, 79
1, 37190, Note_on_c, 0, 42, 0
1, 37193, Note_on_c, 0, 43, 79
1, 37354, Note_on_c, 0, 43, 0
1, 37358, Note_on_c, 0, 47, 79
1, 37519, Note_on_c, 0, 47, 0
1, 37522, Note_on_c, 0, 40, 79
1, 37683, Note_on_c, 0, 40, 0
1, 37687, Note_on_c, 0, 42, 79
1, 37848, Note_on_c, 0, 42, 0
1, 37851, Note_on_c, 1, 71, 79
1, 37851, Note_on_c, 1, 67, 79
1, 37851, Note_on_c, 0, 43, 79
1, 38013, Note_on_c, 0, 43, 0
1, 38016, Note_on_c, 0, 47, 79
1, 38177, Note_on_c, 1, 67, 0
1, 38177, Note_on_c, 1, 71, 0
1, 38177, Note_on_c, 0, 47, 0
1, 38181, Note_on_c, 1, 72, 79
1, 38181, Note_on_c, 1, 67, 79
1, 38181, Note_on_c, 0, 40, 79
1, 38342, Note_on_c, 1, 67, 0
1, 38342, Note_on_c, 1, 72, 0
1, 38342, Note_on_c, 0, 40, 0
1, 38345, Note_on_c, 0, 42, 79
1, 38506, Note_on_c, 0, 42, 0
1, 38510, Note_on_c, 0, 43, 79
1, 38671, Note_on_c, 0, 43, 0
1, 38674, Note_on_c, 0, 48, 79
1, 38835, Note_on_c, 0, 48, 0
1, 38839, Note_on_c, 0, 40, 79
1, 39000, Note_on_c, 0, 40, 0
1, 39003, Note_on_c, 0, 42, 79
1, 39165, Note_on_c, 0, 42, 0
1, 39168, Note_on_c, 1, 72, 79
1, 39168, Note_on_c, 1, 67, 79
1, 39168, Note_on_c, 0, 43, 79
1, 39329, Note_on_c, 0, 43, 0
1, 39333, Note_on_c, 0, 48, 79
1, 39494, Note_on_c, 1, 67, 0
1, 39494, Note_on_c, 1, 72, 0
1, 39494, Note_on_c, 0, 48, 0
1, 39497, Note_on_c, 1, 73, 79
1, 39497, Note_on_c, 1, 67, 79
1, 39497, Note_on_c, 0, 40, 79
1, 39658, Note_on_c, 1, 67, 0
1, 39658, Note_on_c, 1, 73, 0
1, 39658, Note_on_c, 0, 40, 0
1, 39662, Note_on_c, 0, 42, 79
1, 39823, Note_on_c, 0, 42, 0
1, 39826, Note_on_c, 0, 43, 79
1, 39987, Note_on_c, 0, 43, 0
1, 39991, Note_on_c, 0, 49, 79
1, 40152, Note_on_c, 0, 49, 0
1, 40155, Note_on_c, 0, 40, 79
1, 40317, Note_on_c, 0, 40, 0
1, 40320, Note_on_c, 0, 42, 79
1, 40481, Note_on_c, 0, 42, 0
1, 40485, Note_on_c, 1, 73, 79
1, 40485, Note_on_c, 1, 67, 79
1, 40485, Note_on_c, 0, 43, 79
1, 40646, Note_on_c, 0, 43, 0
1, 40649, Note_on_c, 0, 49, 79
1, 40810, Note_on_c, 1, 67, 0
1, 40810, Note_on_c, 1, 73, 0
1, 40810, Note_on_c, 0, 49, 0
1, 40814, Note_on_c, 1, 72, 79
1, 40814, Note_on_c, 1, 67, 79
1, 40814, Note_on_c, 0, 40, 79
1, 40975, Note_on_c, 1, 67, 0
1, 40975, Note_on_c, 1, 72, 0
1, 40975, Note_on_c, 0, 40, 0
1, 40978, Note_on_c, 0, 42, 79
1, 41139, Note_on_c, 0, 42, 0
1, 41143, Note_on_c, 0, 43, 79
1, 41304, Note_on_c, 0, 43, 0
1, 41307, Note_on_c, 0, 48, 79
1, 41469, Note_on_c, 0, 48, 0
1, 41472, Note_on_c, 0, 40, 79
1, 41633, Note_on_c, 0, 40, 0
1, 41637, Note_on_c, 0, 42, 79
1, 41798, Note_on_c, 0, 42, 0
1, 41801, Note_on_c, 1, 72, 79
1, 41801, Note_on_c, 1, 67, 79
1, 41801, Note_on_c, 0, 43, 79
1, 41962, Note_on_c, 0, 43, 0
1, 41966, Note_on_c, 0, 48, 79
1, 42127, Note_on_c, 1, 67, 0
1, 42127, Note_on_c, 1, 72, 0
1, 42127, Note_on_c, 0, 48, 0
1, 42130, Note_on_c, 1, 72, 79
1, 42130, Note_on_c, 1, 76, 79
1, 42130, Note_on_c, 0, 45, 79
1, 42291, Note_on_c, 1, 76, 0
1, 42291, Note_on_c, 1, 72, 0
1, 42291, Note_on_c, 0, 45, 0
1, 42295, Note_on_c, 0, 47, 79
1, 42456, Note_on_c, 0, 47, 0
1, 42459, Note_on_c, 0, 48, 79
1, 42621, Note_on_c, 0, 48, 0
1, 42624, Note_on_c, 0, 52, 79
1, 42785, Note_on_c, 0, 52, 0
1, 42789, Note_on_c, 0, 45, 79
1, 42950, Note_on_c, 0, 45, 0
1, 42953, Note_on_c, 0, 47, 79
1, 43114, Note_on_c, 0, 47, 0
1, 43118, Note_on_c, 1, 72, 79
1, 43118, Note_on_c, 1, 76, 79
1, 43118, Note_on_c, 0, 48, 79
1, 43279, Note_on_c, 0, 48, 0
1, 43282, Note_on_c, 0, 52, 79
1, 43443, Note_on_c, 1, 76, 0
1, 43443, Note_on_c, 1, 72, 0
1, 43443, Note_on_c, 0, 52, 0
1, 43447, Note_on_c, 1, 77, 79
1, 43447, Note_on_c, 1, 72, 79
1, 43447, Note_on_c, 0, 45, 79
1, 43608, Note_on_c, 1, 72, 0
1, 43608, Note_on_c, 1, 77, 0
1, 43608, Note_on_c, 0, 45, 0
1, 43611, Note_on_c, 0, 47, 79
1, 43773, Note_on_c, 0, 47, 0
1, 43776, Note_on_c, 0, 48, 79
1, 43937, Note_on_c, 0, 48, 0
1, 43941, Note_on_c, 0, 53, 79
1, 44102, Note_on_c, 0, 53, 0
1, 44105, Note_on_c, 0, 45, 79
1, 44266, Note_on_c, 0, 45, 0
1, 44270, Note_on_c, 0, 47, 79
1, 44431, Note_on_c, 0, 47, 0
1, 44434, Note_on_c, 1, 77, 79
1, 44434, Note_on_c, 1, 72, 79
1, 44434, Note_on_c, 0, 48, 79
1, 44595, Note_on_c, 0, 48, 0
1, 44599, Note_on_c, 0, 53, 79
1, 44760, Note_on_c, 1, 72, 0
1, 44760, Note_on_c, 1, 77, 0
1, 44760, Note_on_c, 0, 53, 0
1, 44763, Note_on_c, 1, 78, 79
1, 44763, Note_on_c, 1, 72, 79
1, 44763, Note_on_c, 0, 45, 79
1, 44925, Note_on_c, 1, 72, 0
1, 44925, Note_on_c, 1, 78, 0
1, 44925, Note_on_c, 0, 45, 0
1, 44928, Note_on_c, 0, 47, 79
1, 45089, Note_on_c, 0, 47, 0
1, 45093, Note_on_c, 0, 48, 79
1, 45254, Note_on_c, 0, 48, 0
1, 45257, Note_on_c, 0, 54, 79
1, 45418, Note_on_c, 0, 54, 0
1, 45422, Note_on_c, 0, 45, 79
1, 45583, Note_on_c, 0, 45, 0
1, 45586, Note_on_c, 0, 47, 79
1, 45747, Note_on_c, 0, 47, 0
1, 45751, Note_on_c, 1, 78, 79
1, 45751, Note_on_c, 1, 72, 79
1, 45751, Note_on_c, 0, 48, 79
1, 45912, Note_on_c, 0, 48, 0
1, 45915, Note_on_c, 0, 54, 79
1, 46077, Note_on_c, 1, 72, 0
1, 46077, Note_on_c, 1, 78, 0
1, 46077, Note_on_c, 0, 54, 0
1, 46080, Note_on_c, 1, 77, 79
1, 46080, Note_on_c, 1, 72, 79
1, 46080, Note_on_c, 0, 45, 79
1, 46241, Note_on_c, 1, 72, 0
1, 46241, Note_on_c, 1, 77, 0
1, 46241, Note_on_c, 0, 45, 0
1, 46245, Note_on_c, 0, 47, 79
1, 46406, Note_on_c, 0, 47, 0
1, 46409, Note_on_c, 0, 48, 79
1, 46570, Note_on_c, 0, 48, 0
1, 46574, Note_on_c, 0, 53, 79
1, 46735, Note_on_c, 0, 53, 0
1, 46738, Note_on_c, 0, 45, 79
1, 46899, Note_on_c, 0, 45, 0
1, 46903, Note_on_c, 0, 47, 79
1, 47064, Note_on_c, 0, 47, 0
1, 47067, Note_on_c, 1, 72, 79
1, 47067, Note_on_c, 1, 77, 79
1, 47067, Note_on_c, 0, 48, 79
1, 47229, Note_on_c, 0, 48, 0
1, 47232, Note_on_c, 0, 53, 79
1, 47393, Note_on_c, 1, 77, 0
1, 47393, Note_on_c, 1, 72, 0
1, 47393, Note_on_c, 0, 53, 0
1, 47397, Note_on_c, 1, 76, 79
1, 47397, Note_on_c, 1, 72, 79
1, 47397, Note_on_c, 0, 45, 79
1, 47558, Note_on_c, 1, 72, 0
1, 47558, Note_on_c, 1, 76, 0
1, 47558, Note_on_c, 0, 45, 0
1, 47561, Note_on_c, 0, 47, 79
1, 47722, Note_on_c, 0, 47, 0
1, 47726, Note_on_c, 0, 48, 79
1, 47887, Note_on_c, 0, 48, 0
1, 47890, Note_on_c, 0, 52, 79
1, 48051, Note_on_c, 0, 52, 0
1, 48055, Note_on_c, 0, 45, 79
1, 48216, Note_on_c, 0, 45, 0
1, 48219, Note_on_c, 0, 47, 79
1, 48381, Note_on_c, 0, 47, 0
1, 48384, Note_on_c, 1, 76, 79
1, 48384, Note_on_c, 1, 72, 79
1, 48384, Note_on_c, 0, 48, 79
1, 48545, Note_on_c, 0, 48, 0
1, 48549, Note_on_c, 0, 52, 79
1, 48710, Note_on_c, 1, 72, 0
1, 48710, Note_on_c, 1, 76, 0
1, 48710, Note_on_c, 0, 52, 0
1, 48713, Note_on_c, 1, 77, 79
1, 48713, Note_on_c, 1, 72, 79
1, 48713, Note_on_c, 0, 45, 79
1, 48874, Note_on_c, 1, 72, 0
1, 48874, Note_on_c, 1, 77, 0
1, 48874, Note_on_c, 0, 45, 0
1, 48878, Note_on_c, 0, 47, 79
1, 49039, Note_on_c, 0, 47, 0
1, 49042, Note_on_c, 0, 48, 79
1, 49203, Note_on_c, 0, 48, 0
1, 49207, Note_on_c, 0, 53, 79
1, 49368, Note_on_c, 0, 53, 0
1, 49371, Note_on_c, 0, 45, 79
1, 49533, Note_on_c, 0, 45, 0
1, 49536, Note_on_c, 0, 47, 79
1, 49697, Note_on_c, 0, 47, 0
1, 49701, Note_on_c, 1, 77, 79
1, 49701, Note_on_c, 1, 72, 79
1, 49701, Note_on_c, 0, 48, 79
1, 49862, Note_on_c, 0, 48, 0
1, 49865, Note_on_c, 0, 53, 79
1, 50026, Note_on_c, 1, 72, 0
1, 50026, Note_on_c, 1, 77, 0
1, 50026, Note_on_c, 0, 53, 0
1, 50030, Note_on_c, 1, 78, 79
1, 50030, Note_on_c, 1, 72, 79
1, 50030, Note_on_c, 0, 45, 79
1, 50191, Note_on_c, 1, 72, 0
1, 50191, Note_on_c, 1, 78, 0
1, 50191, Note_on_c, 0, 45, 0
1, 50194, Note_on_c, 0, 47, 79
1, 50355, Note_on_c, 0, 47, 0
1, 50359, Note_on_c, 0, 48, 79
1, 50520, Note_on_c, 0, 48, 0
1, 50523, Note_on_c, 0, 54, 79
1, 50685, Note_on_c, 0, 54, 0
1, 50688, Note_on_c, 0, 45, 79
1, 50849, Note_on_c, 0, 45, 0
1, 50853, Note_on_c, 0, 47, 79
1, 51014, Note_on_c, 0, 47, 0
1, 51017, Note_on_c, 1, 78, 79
1, 51017, Note_on_c, 1, 72, 79
1, 51017, Note_on_c, 0, 48, 79
1, 51178, Note_on_c, 0, 48, 0
1, 51182, Note_on_c, 0, 54, 79
1, 51343, Note_on_c, 1, 72, 0
1, 51343, Note_on_c, 1, 78, 0
1, 51343, Note_on_c, 0, 54, 0
1, 51346, Note_on_c, 1, 77, 79
1, 51346, Note_on_c, 1, 72, 79
1, 51346, Note_on_c, 0, 45, 79
1, 51507, Note_on_c, 1, 72, 0
1, 51507, Note_on_c, 1, 77, 0
1, 51507, Note_on_c, 0, 45, 0
1, 51511, Note_on_c, 0, 47, 79
1, 51672, Note_on_c, 0, 47, 0
1, 51675, Note_on_c, 0, 48, 79
1, 51837, Note_on_c, 0, 48, 0
1, 51840, Note_on_c, 0, 53, 79
1, 52001, Note_on_c, 0, 53, 0
1, 52005, Note_on_c, 0, 45, 79
1, 52166, Note_on_c, 0, 45, 0
1, 52169, Note_on_c, 0, 47, 79
1, 52330, Note_on_c, 0, 47, 0
1, 52334, Note_on_c, 1, 77, 79
1, 52334, Note_on_c, 1, 72, 79
1, 52334, Note_on_c, 0, 48, 79
1, 52495, Note_on_c, 0, 48, 0
1, 52498, Note_on_c, 0, 53, 79
1, 52659, Note_on_c, 1, 72, 0
1, 52659, Note_on_c, 1, 77, 0
1, 52659, Note_on_c, 0, 53, 0
1, 52663, Note_on_c, 9, 57, 79
1, 52663, Note_on_c, 9, 44, 79
1, 52663, Note_on_c, 9, 36, 79
1, 52663, Note_on_c, 1, 83, 79
1, 52663, Note_on_c, 0, 35, 79
1, 52742, Note_on_c, 9, 36, 0
1, 52742, Note_on_c, 9, 57, 0
1, 52742, Note_on_c, 9, 44, 0
1, 52742, Note_on_c, 1, 83, 0
1, 52745, Note_on_c, 1, 83, 79
1, 52824, Note_on_c, 1, 83, 0
1, 52824, Note_on_c, 0, 35, 0
1, 52827, Note_on_c, 9, 44, 79
1, 52827, Note_on_c, 1, 83, 79
1, 52827, Note_on_c, 0, 35, 79
1, 52906, Note_on_c, 9, 44, 0
1, 52906, Note_on_c, 1, 83, 0
1, 52910, Note_on_c, 9, 44, 79
1, 52910, Note_on_c, 1, 83, 79
1, 52989, Note_on_c, 9, 44, 0
1, 52989, Note_on_c, 1, 83, 0
1, 52989, Note_on_c, 0, 35, 0
1, 52992, Note_on_c, 9, 44, 79
1, 52992, Note_on_c, 9, 38, 79
1, 52992, Note_on_c, 1, 79, 79
1, 52992, Note_on_c, 0, 43, 79
1, 53071, Note_on_c, 9, 38, 0
1, 53071, Note_on_c, 9, 44, 0
1, 53071, Note_on_c, 1, 79, 0
1, 53074, Note_on_c, 1, 79, 79
1, 53153, Note_on_c, 1, 79, 0
1, 53153, Note_on_c, 0, 43, 0
1, 53157, Note_on_c, 9, 44, 79
1, 53157, Note_on_c, 1, 79, 79
1, 53157, Note_on_c, 0, 35, 79
1, 53235, Note_on_c, 9, 44, 0
1, 53235, Note_on_c, 1, 79, 0
1, 53239, Note_on_c, 1, 79, 79
1, 53318, Note_on_c, 1, 79, 0
1, 53318, Note_on_c, 0, 35, 0
1, 53321, Note_on_c, 9, 44, 79
1, 53321, Note_on_c, 9, 36, 79
1, 53321, Note_on_c, 1, 76, 79
1, 53321, Note_on_c, 0, 35, 79
1, 53400, Note_on_c, 9, 44, 0
1, 53400, Note_on_c, 9, 36, 0
1, 53400, Note_on_c, 1, 76, 0
1, 53403, Note_on_c, 1, 76, 79
1, 53482, Note_on_c, 1, 76, 0
1, 53482, Note_on_c, 0, 35, 0
1, 53486, Note_on_c, 9, 44, 79
1, 53486, Note_on_c, 1, 76, 79
1, 53486, Note_on_c, 0, 43, 79
1, 53565, Note_on_c, 9, 44, 0
1, 53565, Note_on_c, 1, 76, 0
1, 53568, Note_on_c, 9, 44, 79
1, 53568, Note_on_c, 1, 76, 79
1, 53647, Note_on_c, 9, 44, 0
1, 53647, Note_on_c, 1, 76, 0
1, 53647, Note_on_c, 0, 43, 0
1, 53650, Note_on_c, 9, 44, 79
1, 53650, Note_on_c, 9, 38, 79
1, 53650, Note_on_c, 1, 72, 79
1, 53650, Note_on_c, 0, 35, 79
1, 53729, Note_on_c, 9, 38, 0
1, 53729, Note_on_c, 9, 44, 0
1, 53729, Note_on_c, 1, 72, 0
1, 53733, Note_on_c, 1, 72, 79
1, 53811, Note_on_c, 1, 72, 0
1, 53811, Note_on_c, 0, 35, 0
1, 53815, Note_on_c, 9, 44, 79
1, 53815, Note_on_c, 9, 36, 79
1, 53815, Note_on_c, 1, 72, 79
1, 53815, Note_on_c, 0, 43, 79
1, 53894, Note_on_c, 9, 44, 0
1, 53894, Note_on_c, 9, 36, 0
1, 53894, Note_on_c, 1, 72, 0
1, 53897, Note_on_c, 1, 72, 79
1, 53976, Note_on_c, 1, 72, 0
1, 53976, Note_on_c, 0, 43, 0
1, 53979, Note_on_c, 9, 44, 79
1, 53979, Note_on_c, 9, 36, 79
1, 53979, Note_on_c, 1, 71, 79
1, 53979, Note_on_c, 0, 36, 79
1, 54058, Note_on_c, 9, 36, 0
1, 54058, Note_on_c, 9, 44, 0
1, 54058, Note_on_c, 1, 71, 0
1, 54062, Note_on_c, 1, 71, 79
1, 54141, Note_on_c, 1, 71, 0
1, 54141, Note_on_c, 0, 36, 0
1, 54144, Note_on_c, 9, 44, 79
1, 54144, Note_on_c, 1, 71, 79
1, 54144, Note_on_c, 0, 36, 79
1, 54223, Note_on_c, 9, 44, 0
1, 54223, Note_on_c, 1, 71, 0
1, 54226, Note_on_c, 9, 44, 79
1, 54226, Note_on_c, 1, 71, 79
1, 54305, Note_on_c, 9, 44, 0
1, 54305, Note_on_c, 1, 71, 0
1, 54305, Note_on_c, 0, 36, 0
1, 54309, Note_on_c, 9, 44, 79
1, 54309, Note_on_c, 9, 38, 79
1, 54309, Note_on_c, 1, 67, 79
1, 54309, Note_on_c, 0, 43, 79
1, 54387, Note_on_c, 9, 38, 0
1, 54387, Note_on_c, 9, 44, 0
1, 54387, Note_on_c, 1, 67, 0
1, 54391, Note_on_c, 1, 67, 79
1, 54470, Note_on_c, 1, 67, 0
1, 54470, Note_on_c, 0, 43, 0
1, 54473, Note_on_c, 9, 44, 79
1, 54473, Note_on_c, 1, 67, 79
1, 54473, Note_on_c, 0, 36, 79
1, 54552, Note_on_c, 9, 44, 0
1, 54552, Note_on_c, 1, 67, 0
1, 54555, Note_on_c, 1, 67, 79
1, 54634, Note_on_c, 1, 67, 0
1, 54634, Note_on_c, 0, 36, 0
1, 54638, Note_on_c, 9, 44, 79
1, 54638, Note_on_c, 9, 36, 79
1, 54638, Note_on_c, 1, 64, 79
1, 54638, Note_on_c, 0, 36, 79
1, 54717, Note_on_c, 9, 36, 0
1, 54717, Note_on_c, 9, 44, 0
1, 54717, Note_on_c, 1, 64, 0
1, 54720, Note_on_c, 1, 64, 79
1, 54799, Note_on_c, 1, 64, 0
1, 54799, Note_on_c, 0, 36, 0
1, 54802, Note_on_c, 9, 44, 79
1, 54802, Note_on_c, 1, 64, 79
1, 54802, Note_on_c, 0, 43, 79
1, 54881, Note_on_c, 9, 44, 0
1, 54881, Note_on_c, 1, 64, 0
1, 54885, Note_on_c, 9, 44, 79
1, 54885, Note_on_c, 1, 64, 79
1, 54963, Note_on_c, 9, 44, 0
1, 54963, Note_on_c, 1, 64, 0
1, 54963, Note_on_c, 0, 43, 0
1, 54967, Note_on_c, 9, 44, 79
1, 54967, Note_on_c, 9, 38, 79
1, 54967, Note_on_c, 1, 60, 79
1, 54967, Note_on_c, 0, 36, 79
1, 55046, Note_on_c, 9, 38, 0
1, 55046, Note_on_c, 9, 44, 0
1, 55046, Note_on_c, 1, 60, 0
1, 55049, Note_on_c, 1, 60, 79
1, 55128, Note_on_c, 1, 60, 0
1, 55128, Note_on_c, 0, 36, 0
1, 55131, Note_on_c, 9, 44, 79
1, 55131, Note_on_c, 9, 36, 79
1, 55131, Note_on_c, 1, 60, 79
1, 55131, Note_on_c, 0, 43, 79
1, 55210, Note_on_c, 9, 36, 0
1, 55210, Note_on_c, 9, 44, 0
1, 55210, Note_on_c, 1, 60, 0
1, 55214, Note_on_c, 1, 60, 79
1, 55293, Note_on_c, 1, 60, 0
1, 55293, Note_on_c, 0, 43, 0
1, 55296, Note_on_c, 9, 44, 79
1, 55296, Note_on_c, 9, 36, 79
1, 55296, Note_on_c, 1, 61, 79
1, 55296, Note_on_c, 0, 37, 79
1, 55375, Note_on_c, 9, 36, 0
1, 55375, Note_on_c, 9, 44, 0
1, 55375, Note_on_c, 1, 61, 0
1, 55378, Note_on_c, 1, 61, 79
1, 55457, Note_on_c, 1, 61, 0
1, 55457, Note_on_c, 0, 37, 0
1, 55461, Note_on_c, 9, 44, 79
1, 55461, Note_on_c, 1, 61, 79
1, 55461, Note_on_c, 0, 37, 79
1, 55539, Note_on_c, 9, 44, 0
1, 55539, Note_on_c, 1, 61, 0
1, 55543, Note_on_c, 9, 44, 79
1, 55543, Note_on_c, 1, 61, 79
1, 55622, Note_on_c, 9, 44, 0
1, 55622, Note_on_c, 1, 61, 0
1, 55622, Note_on_c, 0, 37, 0
1, 55625, Note_on_c, 9, 44, 79
1, 55625, Note_on_c, 9, 38, 79
1, 55625, Note_on_c, 1, 64, 79
1, 55625, Note_on_c, 0, 43, 79
1, 55704, Note_on_c, 9, 38, 0
1, 55704, Note_on_c, 9, 44, 0
1, 55704, Note_on_c, 1, 64, 0
1, 55707, Note_on_c, 1, 64, 79
1, 55786, Note_on_c, 1, 64, 0
1, 55786, Note_on_c, 0, 43, 0
1, 55790, Note_on_c, 9, 44, 79
1, 55790, Note_on_c, 1, 64, 79
1, 55790, Note_on_c, 0, 37, 79
1, 55869, Note_on_c, 9, 44, 0
1, 55869, Note_on_c, 1, 64, 0
1, 55872, Note_on_c, 1, 64, 79
1, 55951, Note_on_c, 1, 64, 0
1, 55951, Note_on_c, 0, 37, 0
1, 55954, Note_on_c, 9, 44, 79
1, 55954, Note_on_c, 9, 36, 79
1, 55954, Note_on_c, 1, 67, 79
1, 55954, Note_on_c, 0, 37, 79
1, 56033, Note_on_c, 9, 36, 0
1, 56033, Note_on_c, 9, 44, 0
1, 56033, Note_on_c, 1, 67, 0
1, 56037, Note_on_c, 1, 67, 79
1, 56115, Note_on_c, 1, 67, 0
1, 56115, Note_on_c, 0, 37, 0
1, 56119, Note_on_c, 9, 44, 79
1, 56119, Note_on_c, 1, 67, 79
1, 56119, Note_on_c, 0, 43, 79
1, 56198, Note_on_c, 9, 44, 0
1, 56198, Note_on_c, 1, 67, 0
1, 56201, Note_on_c, 9, 44, 79
1, 56201, Note_on_c, 1, 67, 79
1, 56280, Note_on_c, 9, 44, 0
1, 56280, Note_on_c, 1, 67, 0
1, 56280, Note_on_c, 0, 43, 0
1, 56283, Note_on_c, 9, 44, 79
1, 56283, Note_on_c, 9, 38, 79
1, 56283, Note_on_c, 1, 71, 79
1, 56283, Note_on_c, 0, 37, 79
1, 56362, Note_on_c, 9, 38, 0
1, 56362, Note_on_c, 9, 44, 0
1, 56362, Note_on_c, 1, 71, 0
1, 56366, Note_on_c, 1, 71, 79
1, 56445, Note_on_c, 1, 71, 0
1, 56445, Note_on_c, 0, 37, 0
1, 56448, Note_on_c, 9, 44, 79
1, 56448, Note_on_c, 9, 36, 79
1, 56448, Note_on_c, 1, 71, 79
1, 56448, Note_on_c, 0, 43, 79
1, 56527, Note_on_c, 9, 36, 0
1, 56527, Note_on_c, 9, 44, 0
1, 56527, Note_on_c, 1, 71, 0
1, 56530, Note_on_c, 1, 71, 79
1, 56609, Note_on_c, 1, 71, 0
1, 56609, Note_on_c, 0, 43, 0
1, 56613, Note_on_c, 9, 44, 79
1, 56613, Note_on_c, 9, 36, 79
1, 56613, Note_on_c, 1, 72, 79
1, 56613, Note_on_c, 0, 36, 79
1, 56691, Note_on_c, 9, 36, 0
1, 56691, Note_on_c, 9, 44, 0
1, 56691, Note_on_c, 1, 72, 0
1, 56695, Note_on_c, 1, 64, 79
1, 56774, Note_on_c, 1, 64, 0
1, 56774, Note_on_c, 0, 36, 0
1, 56777, Note_on_c, 9, 44, 79
1, 56777, Note_on_c, 1, 66, 79
1, 56777, Note_on_c, 0, 36, 79
1, 56856, Note_on_c, 9, 44, 0
1, 56856, Note_on_c, 1, 66, 0
1, 56859, Note_on_c, 9, 44, 79
1, 56859, Note_on_c, 1, 67, 79
1, 56938, Note_on_c, 9, 44, 0
1, 56938, Note_on_c, 1, 67, 0
1, 56938, Note_on_c, 0, 36, 0
1, 56942, Note_on_c, 9, 44, 79
1, 56942, Note_on_c, 9, 38, 79
1, 56942, Note_on_c, 1, 72, 79
1, 56942, Note_on_c, 0, 43, 79
1, 57021, Note_on_c, 9, 38, 0
1, 57021, Note_on_c, 9, 44, 0
1, 57021, Note_on_c, 1, 72, 0
1, 57024, Note_on_c, 1, 67, 79
1, 57103, Note_on_c, 1, 67, 0
1, 57103, Note_on_c, 0, 43, 0
1, 57106, Note_on_c, 9, 44, 79
1, 57106, Note_on_c, 1, 72, 79
1, 57106, Note_on_c, 0, 36, 79
1, 57185, Note_on_c, 9, 44, 0
1, 57185, Note_on_c, 1, 72, 0
1, 57189, Note_on_c, 1, 74, 79
1, 57267, Note_on_c, 1, 74, 0
1, 57267, Note_on_c, 0, 36, 0
1, 57271, Note_on_c, 9, 44, 79
1, 57271, Note_on_c, 9, 36, 79
1, 57271, Note_on_c, 1, 76, 79
1, 57271, Note_on_c, 0, 36, 79
1, 57350, Note_on_c, 9, 36, 0
1, 57350, Note_on_c, 9, 44, 0
1, 57350, Note_on_c, 1, 76, 0
1, 57353, Note_on_c, 1, 72, 79
1, 57432, Note_on_c, 1, 72, 0
1, 57432, Note_on_c, 0, 36, 0
1, 57435, Note_on_c, 9, 44, 79
1, 57435, Note_on_c, 1, 74, 79
1, 57435, Note_on_c, 0, 43, 79
1, 57514, Note_on_c, 9, 44, 0
1, 57514, Note_on_c, 1, 74, 0
1, 57518, Note_on_c, 9, 44, 79
1, 57518, Note_on_c, 1, 76, 79
1, 57597, Note_on_c, 9, 44, 0
1, 57597, Note_on_c, 1, 76, 0
1, 57597, Note_on_c, 0, 43, 0
1, 57600, Note_on_c, 9, 44, 79
1, 57600, Note_on_c, 9, 38, 79
1, 57600, Note_on_c, 1, 79, 79
1, 57600, Note_on_c, 0, 36, 79
1, 57679, Note_on_c, 9, 38, 0
1, 57679, Note_on_c, 9, 44, 0
1, 57679, Note_on_c, 1, 79, 0
1, 57682, Note_on_c, 1, 76, 79
1, 57761, Note_on_c, 1, 76, 0
1, 57761, Note_on_c, 0, 36, 0
1, 57765, Note_on_c, 9, 44, 79
1, 57765, Note_on_c, 9, 36, 79
1, 57765, Note_on_c, 1, 79, 79
1, 57765, Note_on_c, 0, 43, 79
1, 57843, Note_on_c, 9, 36, 0
1, 57843, Note_on_c, 9, 44, 0
1, 57843, Note_on_c, 1, 79, 0
1, 57847, Note_on_c, 1, 84, 79
1, 57926, Note_on_c, 1, 84, 0
1, 57926, Note_on_c, 0, 43, 0
1, 57929, Note_on_c, 9, 44, 79
1, 57929, Note_on_c, 9, 36, 79
1, 57929, Note_on_c, 1, 83, 79
1, 57929, Note_on_c, 0, 35, 79
1, 58008, Note_on_c, 9, 36, 0
1, 58008, Note_on_c, 9, 44, 0
1, 58008, Note_on_c, 1, 83, 0
1, 58011, Note_on_c, 1, 83, 79
1, 58090, Note_on_c, 1, 83, 0
1, 58090, Note_on_c, 0, 35, 0
1, 58094, Note_on_c, 9, 44, 79
1, 58094, Note_on_c, 1, 83, 79
1, 58094, Note_on_c, 0, 35, 79
1, 58173, Note_on_c, 9, 44, 0
1, 58173, Note_on_c, 1, 83, 0
1, 58176, Note_on_c, 9, 44, 79
1, 58176, Note_on_c, 1, 83, 79
1, 58255, Note_on_c, 9, 44, 0
1, 58255, Note_on_c, 1, 83, 0
1, 58255, Note_on_c, 0, 35, 0
1, 58258, Note_on_c, 9, 44, 79
1, 58258, Note_on_c, 9, 38, 79
1, 58258, Note_on_c, 1, 79, 79
1, 58258, Note_on_c, 0, 43, 79
1, 58337, Note_on_c, 9, 38, 0
1, 58337, Note_on_c, 9, 44, 0
1, 58337, Note_on_c, 1, 79, 0
1, 58341, Note_on_c, 1, 79, 79
1, 58419, Note_on_c, 1, 79, 0
1, 58419, Note_on_c, 0, 43, 0
1, 58423, Note_on_c, 9, 44, 79
1, 58423, Note_on_c, 1, 79, 79
1, 58423, Note_on_c, 0, 35, 79
1, 58502, Note_on_c, 9, 44, 0
1, 58502, Note_on_c, 1, 79, 0
1, 58505, Note_on_c, 1, 79, 79
1, 58584, Note_on_c, 1, 79, 0
1, 58584, Note_on_c, 0, 35, 0
1, 58587, Note_on_c, 9, 44, 79
1, 58587, Note_on_c, 9, 36, 79
1, 58587, Note_on_c, 1, 76, 79
1, 58587, Note_on_c, 0, 35, 79
1, 58666, Note_on_c, 9, 36, 0
1, 58666, Note_on_c, 9, 44, 0
1, 58666, Note_on_c, 1, 76, 0
1, 58670, Note_on_c, 1, 76, 79
1, 58749, Note_on_c, 1, 76, 0
1, 58749, Note_on_c, 0, 35, 0
1, 58752, Note_on_c, 9, 44, 79
1, 58752, Note_on_c, 1, 76, 79
1, 58752, Note_on_c, 0, 43, 79
1, 58831, Note_on_c, 9, 44, 0
1, 58831, Note_on_c, 1, 76, 0
1, 58834, Note_on_c, 9, 44, 79
1, 58834, Note_on_c, 1, 76, 79
1, 58913, Note_on_c, 9, 44, 0
1, 58913, Note_on_c, 1, 76, 0
1, 58913, Note_on_c, 0, 43, 0
1, 58917, Note_on_c, 9, 44, 79
1, 58917, Note_on_c, 9, 38, 79
1, 58917, Note_on_c, 1, 72, 79
1, 58917, Note_on_c, 0, 35, 79
1, 58995, Note_on_c, 9, 38, 0
1, 58995, Note_on_c, 9, 44, 0
1, 58995, Note_on_c, 1, 72, 0
1, 58999, Note_on_c, 1, 72, 79
1, 59078, Note_on_c, 1, 72, 0
1, 59078, Note_on_c, 0, 35, 0
1, 59081, Note_on_c, 9, 44, 79
1, 59081, Note_on_c, 9, 36, 79
1, 59081, Note_on_c, 1, 72, 79
1, 59081, Note_on_c, 0, 43, 79
1, 59160, Note_on_c, 9, 36, 0
1, 59160, Note_on_c, 9, 44, 0
1, 59160, Note_on_c, 1, 72, 0
1, 59163, Note_on_c, 1, 72, 79
1, 59242, Note_on_c, 1, 72, 0
1, 59242, Note_on_c, 0, 43, 0
1, 59246, Note_on_c, 9, 44, 79
1, 59246, Note_on_c, 9, 36, 79
1, 59246, Note_on_c, 1, 71, 79
1, 59246, Note_on_c, 0, 36, 79
1, 59325, Note_on_c, 9, 36, 0
1, 59325, Note_on_c, 9, 44, 0
1, 59325, Note_on_c, 1, 71, 0
1, 59328, Note_on_c, 1, 71, 79
1, 59407, Note_on_c, 1, 71, 0
1, 59407, Note_on_c, 0, 36, 0
1, 59410, Note_on_c, 9, 44, 79
1, 59410, Note_on_c, 1, 71, 79
1, 59410, Note_on_c, 0, 36, 79
1, 59489, Note_on_c, 9, 44, 0
1, 59489, Note_on_c, 1, 71, 0
1, 59493, Note_on_c, 9, 44, 79
1, 59493, Note_on_c, 1, 71, 79
1, 59571, Note_on_c, 9, 44, 0
1, 59571, Note_on_c, 1, 71, 0
1, 59571, Note_on_c, 0, 36, 0
1, 59575, Note_on_c, 9, 44, 79
1, 59575, Note_on_c, 9, 38, 79
1, 59575, Note_on_c, 1, 67, 79
1, 59575, Note_on_c, 0, 43, 79
1, 59654, Note_on_c, 9, 38, 0
1, 59654, Note_on_c, 9, 44, 0
1, 59654, Note_on_c, 1, 67, 0
1, 59657, Note_on_c, 1, 67, 79
1, 59736, Note_on_c, 1, 67, 0
1, 59736, Note_on_c, 0, 43, 0
1, 59739, Note_on_c, 9, 44, 79
1, 59739, Note_on_c, 1, 67, 79
1, 59739, Note_on_c, 0, 36, 79
1, 59818, Note_on_c, 9, 44, 0
1, 59818, Note_on_c, 1, 67, 0
1, 59822, Note_on_c, 1, 67, 79
1, 59901, Note_on_c, 1, 67, 0
1, 59901, Note_on_c, 0, 36, 0
1, 59904, Note_on_c, 9, 44, 79
1, 59904, Note_on_c, 9, 36, 79
1, 59904, Note_on_c, 1, 64, 79
1, 59904, Note_on_c, 0, 36, 79
1, 59983, Note_on_c, 9, 36, 0
1, 59983, Note_on_c, 9, 44, 0
1, 59983, Note_on_c, 1, 64, 0
1, 59986, Note_on_c, 1, 64, 79
1, 60065, Note_on_c, 1, 64, 0
1, 60065, Note_on_c, 0, 36, 0
1, 60069, Note_on_c, 9, 44, 79
1, 60069, Note_on_c, 1, 64, 79
1, 60069, Note_on_c, 0, 43, 79
1, 60147, Note_on_c, 9, 44, 0
1, 60147, Note_on_c, 1, 64, 0
1, 60151, Note_on_c, 9, 44, 79
1, 60151, Note_on_c, 1, 64, 79
1, 60230, Note_on_c, 9, 44, 0
1, 60230, Note_on_c, 1, 64, 0
1, 60230, Note_on_c, 0, 43, 0
1, 60233, Note_on_c, 9, 44, 79
1, 60233, Note_on_c, 9, 38, 79
1, 60233, Note_on_c, 1, 60, 79
1, 60233, Note_on_c, 0, 36, 79
1, 60312, Note_on_c, 9, 38, 0
1, 60312, Note_on_c, 9, 44, 0
1, 60312, Note_on_c, 1, 60, 0
1, 60315, Note_on_c, 1, 60, 79
1, 60394, Note_on_c, 1, 60, 0
1, 60394, Note_on_c, 0, 36, 0
1, 60398, Note_on_c, 9, 44, 79
1, 60398, Note_on_c, 9, 36, 79
1, 60398, Note_on_c, 1, 60, 79
1, 60398, Note_on_c, 0, 43, 79
1, 60477, Note_on_c, 9, 36, 0
1, 60477, Note_on_c, 9, 44, 0
1, 60477, Note_on_c, 1, 60, 0
1, 60480, Note_on_c, 1, 60, 79
1, 60559, Note_on_c, 1, 60, 0
1, 60559, Note_on_c, 0, 43, 0
1, 60562, Note_on_c, 9, 44, 79
1, 60562, Note_on_c, 9, 36, 79
1, 60562, Note_on_c, 1, 61, 79
1, 60562, Note_on_c, 0, 37, 79
1, 60641, Note_on_c, 9, 36, 0
1, 60641, Note_on_c, 9, 44, 0
1, 60641, Note_on_c, 1, 61, 0
1, 60645, Note_on_c, 1, 61, 79
1, 60723, Note_on_c, 1, 61, 0
1, 60723, Note_on_c, 0, 37, 0
1, 60727, Note_on_c, 9, 44, 79
1, 60727, Note_on_c, 1, 61, 79
1, 60727, Note_on_c, 0, 37, 79
1, 60806, Note_on_c, 9, 44, 0
1, 60806, Note_on_c, 1, 61, 0
1, 60809, Note_on_c, 9, 44, 79
1, 60809, Note_on_c, 1, 61, 79
1, 60888, Note_on_c, 9, 44, 0
1, 60888, Note_on_c, 1, 61, 0
1, 60888, Note_on_c, 0, 37, 0
1, 60891, Note_on_c, 9, 44, 79
1, 60891, Note_on_c, 9, 38, 79
1, 60891, Note_on_c, 1, 64, 79
1, 60891, Note_on_c, 0, 43, 79
1, 60970, Note_on_c, 9, 38, 0
1, 60970, Note_on_c, 9, 44, 0
1, 60970, Note_on_c, 1, 64, 0
1, 60974, Note_on_c, 1, 64, 79
1, 61053, Note_on_c, 1, 64, 0
1, 61053, Note_on_c, 0, 43, 0
1, 61056, Note_on_c, 9, 44, 79
1, 61056, Note_on_c, 1, 64, 79
1, 61056, Note_on_c, 0, 37, 79
1, 61135, Note_on_c, 9, 44, 0
1, 61135, Note_on_c, 1, 64, 0
1, 61138, Note_on_c, 1, 64, 79
1, 61217, Note_on_c, 1, 64, 0
1, 61217, Note_on_c, 0, 37, 0
1, 61221, Note_on_c, 9, 44, 79
1, 61221, Note_on_c, 9, 36, 79
1, 61221, Note_on_c, 1, 67, 79
1, 61221, Note_on_c, 0, 37, 79
1, 61299, Note_on_c, 9, 36, 0
1, 61299, Note_on_c, 9, 44, 0
1, 61299, Note_on_c, 1, 67, 0
1, 61303, Note_on_c, 1, 67, 79
1, 61382, Note_on_c, 1, 67, 0
1, 61382, Note_on_c, 0, 37, 0
1, 61385, Note_on_c, 9, 44, 79
1, 61385, Note_on_c, 1, 67, 79
1, 61385, Note_on_c, 0, 43, 79
1, 61464, Note_on_c, 9, 44, 0
1, 61464, Note_on_c, 1, 67, 0
1, 61467, Note_on_c, 9, 44, 79
1, 61467, Note_on_c, 1, 67, 79
1, 61546, Note_on_c, 9, 44, 0
1, 61546, Note_on_c, 1, 67, 0
1, 61546, Note_on_c, 0, 43, 0
1, 61550, Note_on_c, 9, 44, 79
1, 61550, Note_on_c, 9, 38, 79
1, 61550, Note_on_c, 1, 71, 79
1, 61550, Note_on_c, 0, 37, 79
1, 61629, Note_on_c, 9, 38, 0
1, 61629, Note_on_c, 9, 44, 0
1, 61629, Note_on_c, 1, 71, 0
1, 61632, Note_on_c, 1, 71, 79
1, 61711, Note_on_c, 1, 71, 0
1, 61711, Note_on_c, 0, 37, 0
1, 61714, Note_on_c, 9, 44, 79
1, 61714, Note_on_c, 9, 36, 79
1, 61714, Note_on_c, 1, 71, 79
1, 61714, Note_on_c, 0, 43, 79
1, 61793, Note_on_c, 9, 36, 0
1, 61793, Note_on_c, 9, 44, 0
1, 61793, Note_on_c, 1, 71, 0
1, 61797, Note_on_c, 1, 71, 79
1, 61875, Note_on_c, 1, 71, 0
1, 61875, Note_on_c, 0, 43, 0
1, 61879, Note_on_c, 9, 44, 79
1, 61879, Note_on_c, 9, 36, 79
1, 61879, Note_on_c, 1, 72, 79
1, 61879, Note_on_c, 0, 36, 79
1, 61958, Note_on_c, 9, 36, 0
1, 61958, Note_on_c, 9, 44, 0
1, 61958, Note_on_c, 1, 72, 0
1, 61961, Note_on_c, 1, 64, 79
1, 62040, Note_on_c, 1, 64, 0
1, 62040, Note_on_c, 0, 36, 0
1, 62043, Note_on_c, 9, 44, 79
1, 62043, Note_on_c, 1, 66, 79
1, 62043, Note_on_c, 0, 36, 79
1, 62122, Note_on_c, 9, 44, 0
1, 62122, Note_on_c, 1, 66, 0
1, 62126, Note_on_c, 9, 44, 79
1, 62126, Note_on_c, 1, 67, 79
1, 62205, Note_on_c, 9, 44, 0
1, 62205, Note_on_c, 1, 67, 0
1, 62205, Note_on_c, 0, 36, 0
1, 62208, Note_on_c, 9, 44, 79
1, 62208, Note_on_c, 9, 38, 79
1, 62208, Note_on_c, 1, 72, 79
1, 62208, Note_on_c, 0, 43, 79
1, 62287, Note_on_c, 9, 38, 0
1, 62287, Note_on_c, 9, 44, 0
1, 62287, Note_on_c, 1, 72, 0
1, 62290, Note_on_c, 1, 67, 79
1, 62369, Note_on_c, 1, 67, 0
1, 62369, Note_on_c, 0, 43, 0
1, 62373, Note_on_c, 9, 44, 79
1, 62373, Note_on_c, 1, 72, 79
1, 62373, Note_on_c, 0, 36, 79
1, 62451, Note_on_c, 9, 44, 0
1, 62451, Note_on_c, 1, 72, 0
1, 62455, Note_on_c, 1, 74, 79
1, 62534, Note_on_c, 1, 74, 0
1, 62534, Note_on_c, 0, 36, 0
1, 62537, Note_on_c, 9, 44, 79
1, 62537, Note_on_c, 9, 36, 79
1, 62537, Note_on_c, 1, 76, 79
1, 62537, Note_on_c, 0, 36, 79
1, 62616, Note_on_c, 9, 36, 0
1, 62616, Note_on_c, 9, 44, 0
1, 62616, Note_on_c, 1, 76, 0
1, 62619, Note_on_c, 1, 72, 79
1, 62698, Note_on_c, 1, 72, 0
1, 62698, Note_on_c, 0, 36, 0
1, 62702, Note_on_c, 9, 44, 79
1, 62702, Note_on_c, 1, 74, 79
1, 62702, Note_on_c, 0, 43, 79
1, 62781, Note_on_c, 9, 44, 0
1, 62781, Note_on_c, 1, 74, 0
1, 62784, Note_on_c, 9, 44, 79
1, 62784, Note_on_c, 1, 76, 79
1, 62863, Note_on_c, 9, 44, 0
1, 62863, Note_on_c, 1, 76, 0
1, 62863, Note_on_c, 0, 43, 0
1, 62866, Note_on_c, 9, 44, 79
1, 62866, Note_on_c, 9, 38, 79
1, 62866, Note_on_c, 1, 79, 79
1, 62866, Note_on_c, 0, 36, 79
1, 62945, Note_on_c, 9, 38, 0
1, 62945, Note_on_c, 9, 44, 0
1, 62945, Note_on_c, 1, 79, 0
1, 62949, Note_on_c, 1, 76, 79
1, 63027, Note_on_c, 1, 76, 0
1, 63027, Note_on_c, 0, 36, 0
1, 63031, Note_on_c, 9, 44, 79
1, 63031, Note_on_c, 9, 36, 79
1, 63031, Note_on_c, 1, 79, 79
1, 63031, Note_on_c, 0, 43, 79
1, 63110, Note_on_c, 9, 36, 0
1, 63110, Note_on_c, 9, 44, 0
1, 63110, Note_on_c, 1, 79, 0
1, 63113, Note_on_c, 1, 84, 79
1, 63192, Note_on_c, 1, 84, 0
1, 63192, Note_on_c, 0, 43, 0
1, 63195, Program_c, 1, 81
1, 63195, Program_c, 0, 39
1, 63199, Program_c, 1, 81
1, 63199, Program_c, 1, 81
1, 63199, Program_c, 0, 39
1, 63199, Program_c, 0, 39
1, 63199, End_track
0, 0, End_of_file