0, 0, Header, 0, 1, 480
1, 0, Start_track
1, 0, Title_t, ""
1, 0, Program_c, 1, 81
1, 0, Note_on_c, 1, 67, 79
1, 0, Program_c, 1, 81
1, 0, Note_on_c, 1, 71, 79
1, 0, Program_c, 0, 39
1, 0, Note_on_c, 0, 40, 79
1, 161, Program_c, 1, 81
1, 161, Note_on_c, 1, 67, 0
1, 161, Program_c, 1, 81
1, 161, Note_on_c, 1, 71, 0
1, 161, Program_c, 0, 39
1, 161, Note_on_c, 0, 40, 0
1, 165, Program_c, 0, 39
1, 165, Note_on_c, 0, 42, 79
1, 326, Program_c, 0, 39
1, 326, Note_on_c, 0, 42, 0
1, 329, Program_c, 0, 39
1, 329, Note_on_c, 0, 43, 79
1, 490, Program_c, 0, 39
1, 490, Note_on_c, 0, 43, 0
1, 494, Program_c, 0, 39
1, 494, Note_on_c, 0, 47, 79
1, 655, Program_c, 0, 39
1, 655, Note_on_c, 0, 47, 0
1, 658, Program_c, 0, 39
1, 658, Note_on_c, 0, 40, 79
1, 819, Program_c, 0, 39
1, 819, Note_on_c, 0, 40, 0
1, 823, Program_c, 0, 39
1, 823, Note_on_c, 0, 42, 79
1, 984, Program_c, 0, 39
1, 984, Note_on_c, 0, 42, 0
1, 987, Program_c, 1, 81
1, 987, Note_on_c, 1, 67, 79
1, 987, Program_c, 1, 81
1, 987, Note_on_c, 1, 71, 79
1, 987, Program_c, 0, 39
1, 987, Note_on_c, 0, 43, 79
1, 1149, Program_c, 0, 39
1, 1149, Note_on_c, 0, 43, 0
1, 1152, Program_c, 0, 39
1, 1152, Note_on_c, 0, 47, 79
1, 1313, Program_c, 1, 81
1, 1313, Note_on_c, 1, 71, 0
1, 1313, Program_c, 1, 81
1, 1313, Note_on_c, 1, 67, 0
1, 1313, Program_c, 0, 39
1, 1313, Note_on_c, 0, 47, 0
1, 1317, Program_c, 1, 81
1, 1317, Note_on_c, 1, 72, 79
1, 1317, Program_c, 1, 81
1, 1317, Note_on_c, 1, 67, 79
1, 1317, Program_c, 0, 39
1, 1317, Note_on_c, 0, 40, 79
1, 1478, Program_c, 1, 81
1, 1478, Note_on_c, 1, 67, 0
1, 1478, Program_c, 1, 81
1, 1478, Note_on_c, 1, 72, 0
1, 1478, Program_c, 0, 39
1, 1478, Note_on_c, 0, 40, 0
1, 1481, Program_c, 0, 39
1, 1481, Note_on_c, 0, 42, 79
1, 1642, Program_c, 0, 39
1, 1642, Note_on_c, 0, 42, 0
1, 1646, Program_c, 0, 39
1, 1646, Note_on_c, 0, 43, 79
1, 1807, Program_c, 0, 39
1, 1807, Note_on_c, 0, 43, 0
1, 1810, Program_c, 0, 39
1, 1810, Note_on_c, 0, 48, 79
1, 1971, Program_c, 0, 39
1, 1971, Note_on_c, 0, 48, 0
1, 1975, Program_c, 0, 39
1, 1975, Note_on_c, 0, 40, 79
1, 2136, Program_c, 0, 39
1, 2136, Note_on_c, 0, 40, 0
1, 2139, Program_c, 0, 39
1, 2139, Note_on_c, 0, 42, 79
1, 2301, Program_c, 0, 39
1, 2301, Note_on_c, 0, 42, 0
1, 2304, Program_c, 1, 81
1, 2304, Note_on_c, 1, 72, 79
1, 2304, Program_c, 1, 81
1, 2304, Note_on_c, 1, 67, 79
1, 2304, Program_c, 0, 39
1, 2304, Note_on_c, 0, 43, 79
1, 2465, Program_c, 0, 39
1, 2465, Note_on_c, 0, 43, 0
1, 2469, Program_c, 0, 39
1, 2469, Note_on_c, 0, 48, 79
1, 2630, Program_c, 1, 81
1, 2630, Note_on_c, 1, 67, 0
1, 2630, Program_c, 1, 81
1, 2630, Note_on_c, 1, 72, 0
1, 2630, Program_c, 0, 39
1, 2630, Note_on_c, 0, 48, 0
1, 2700, Program_c, 0, 39
1, 2700, Note_on_c, 0, 42, 79
1, 2784, Program_c, 0, 39
1, 2784, Note_on_c, 0, 42, 0
1, 2800, Program_c, 1, 81
1, 2800, Note_on_c, 1, 70, 0
1, 2800, Program_c, 0, 39
1, 2800, Note_on_c, 0, 40, 79
1, 2808, Program_c, 1, 81
1, 2808, Note_on_c, 1, 70, 79
1, 2808, Program_c, 1, 81
1, 2808, Note_on_c, 1, 67, 79
1, 2809, Program_c, 1, 81
1, 2809, Note_on_c, 1, 72, 79
1, 2866, Program_c, 0, 39
1, 2866, Note_on_c, 0, 40, 0
1, 2884, Program_c, 0, 39
1, 2884, Note_on_c, 0, 48, 79
1, 2888, Program_c, 0, 39
1, 2888, Note_on_c, 0, 48, 0
1, 2912, Program_c, 1, 81
1, 2912, Note_on_c, 1, 70, 79
1, 2912, Program_c, 1, 81
1, 2912, Note_on_c, 1, 67, 79
1, 2912, Program_c, 0, 39
1, 2912, Note_on_c, 0, 43, 79
1, 2917, Program_c, 0, 39
1, 2917, Note_on_c, 0, 43, 0
1, 2918, Program_c, 1, 81
1, 2918, Note_on_c, 1, 70, 0
1, 2918, Program_c, 1, 81
1, 2918, Note_on_c, 1, 67, 0
1, 2918, Program_c, 0, 39
1, 2918, Note_on_c, 0, 40, 0
1, 2920, Program_c, 1, 81
1, 2920, Note_on_c, 1, 67, 79
1, 2920, Program_c, 1, 81
1, 2920, Note_on_c, 1, 67, 0
1, 2920, Program_c, 0, 39
1, 2920, Note_on_c, 0, 40, 79
1, 2951, Program_c, 0, 39
1, 2951, Note_on_c, 0, 40, 0
1, 2958, Program_c, 1, 81
1, 2958, Note_on_c, 1, 70, 79
1, 2960, Program_c, 1, 81
1, 2960, Note_on_c, 1, 67, 0
1, 2960, Program_c, 1, 81
1, 2960, Note_on_c, 1, 67, 0
1, 2960, Program_c, 0, 39
1, 2960, Note_on_c, 0, 40, 0
1, 2963, Program_c, 1, 81
1, 2963, Note_on_c, 1, 67, 79
1, 2963, Program_c, 1, 81
1, 2963, Note_on_c, 1, 67, 0
1, 2963, Program_c, 0, 39
1, 2963, Note_on_c, 0, 40, 79
1, 2990, Program_c, 0, 39
1, 2990, Note_on_c, 0, 40, 0
1, 3040, Program_c, 0, 39
1, 3040, Note_on_c, 0, 50, 79
1, 3136, Program_c, 0, 39
1, 3136, Note_on_c, 0, 50, 0
1, 3138, Program_c, 1, 81
1, 3138, Note_on_c, 1, 67, 0
1, 3138, Program_c, 1, 81
1, 3138, Note_on_c, 1, 67, 0
1, 3138, Program_c, 0, 39
1, 3138, Note_on_c, 0, 50, 0
1, 3144, Program_c, 1, 81
1, 3144, Note_on_c, 1, 67, 79
1, 3144, Program_c, 1, 81
1, 3144, Note_on_c, 1, 67, 0
1, 3148, Program_c, 1, 81
1, 3148, Note_on_c, 1, 67, 0
1, 3148, Program_c, 0, 39
1, 3148, Note_on_c, 0, 50, 79
1, 3154, Program_c, 0, 39
1, 3154, Note_on_c, 0, 50, 0
1, 3190, Program_c, 1, 81
1, 3190, Note_on_c, 1, 67, 79
1, 3190, Program_c, 1, 81
1, 3190, Note_on_c, 1, 67, 0
1, 3190, Program_c, 1, 81
1, 3190, Note_on_c, 1, 67, 0
1, 3195, Program_c, 1, 81
1, 3195, Note_on_c, 1, 67, 79
1, 3195, Program_c, 1, 81
1, 3195, Note_on_c, 1, 67, 0
1, 3195, Program_c, 2, 59
1, 3195, Note_on_c, 2, 67, 79
1, 3195, Program_c, 2, 59
1, 3195, Note_on_c, 2, 67, 0
1, 3195, Program_c, 2, 59
1, 3195, Note_on_c, 2, 67, 0
1, 3195, Program_c, 2, 59
1, 3195, Note_on_c, 2, 67, 0
1, 3195, Program_c, 2, 59
1, 3195, Note_on_c, 2, 67, 0
1, 3195, Program_c, 2, 59
1, 3195, Note_on_c, 2, 67, 0
1, 3195, Program_c, 2, 59

1, 3195, Note_on_c, 2, 67, 0
1, 3195, End_track
0, 0, End_of_file