0, 0, Header, 0, 1, 120
1, 0, Start_track
1, 0, Title_t, "Title Screen (MIDI Version)"
1, 0, Copyright_t, "Copyright \251 1998 by Stephen Rippy"
1, 0, Text_t, "Stephen Rippy\012"
1, 0, Text_t, "Completed 6-17-98.\012"
1, 0, Text_t, "For use with X Pack title screen only.\012"
1, 0, Time_signature, 4, 2, 24, 8
1, 0, Key_signature, 0, "major"
1, 0, Tempo, 508475
1, 0, MIDI_port, 0
1, 0, Program_c, 0, 60
1, 0, Control_c, 0, 7, 80
1, 0, Control_c, 0, 10, 40
1, 0, MIDI_port, 0
1, 0, Program_c, 1, 48
1, 0, Control_c, 1, 7, 120
1, 0, Control_c, 1, 10, 127
1, 0, Note_on_c, 1, 53, 127
1, 0, Note_on_c, 1, 41, 127
1, 0, Note_on_c, 1, 65, 127
1, 0, Note_on_c, 1, 48, 127
1, 0, Note_on_c, 1, 77, 127
1, 0, Note_on_c, 1, 72, 127
1, 0, MIDI_port, 0
1, 0, Program_c, 2, 116
1, 0, Control_c, 2, 7, 90
1, 0, Control_c, 2, 10, 64
1, 0, Note_on_c, 2, 38, 127
1, 0, Note_on_c, 2, 43, 127
1, 0, MIDI_port, 0
1, 0, Program_c, 3, 49
1, 0, Control_c, 3, 7, 127
1, 0, Control_c, 3, 10, 64
1, 0, Note_on_c, 3, 29, 127
1, 0, Note_on_c, 3, 41, 127
1, 0, MIDI_port, 0
1, 0, Program_c, 4, 44
1, 0, Control_c, 4, 7, 35
1, 0, Control_c, 4, 10, 64
1, 0, Note_on_c, 4, 89, 127
1, 0, MIDI_port, 0
1, 0, Program_c, 5, 52
1, 0, Control_c, 5, 7, 30
1, 0, Control_c, 5, 10, 64
1, 0, MIDI_port, 0
1, 0, Program_c, 6, 79
1, 0, Control_c, 6, 7, 127
1, 0, Control_c, 6, 10, 64
1, 0, MIDI_port, 0
1, 0, Program_c, 7, 47
1, 0, Control_c, 7, 7, 127
1, 0, Control_c, 7, 10, 64
1, 0, MIDI_port, 0
1, 0, Program_c, 8, 73
1, 0, Control_c, 8, 7, 127
1, 0, Control_c, 8, 10, 20
1, 0, MIDI_port, 0
1, 0, Program_c, 9, 48
1, 0, Control_c, 9, 7, 127
1, 0, Control_c, 9, 10, 64
1, 0, Note_on_c, 9, 57, 127
1, 0, Note_on_c, 9, 36, 127
1, 0, Note_on_c, 9, 54, 114
1, 0, Note_on_c, 9, 69, 31
1, 0, MIDI_port, 0
1, 0, Program_c, 10, 117
1, 0, Control_c, 10, 7, 127
1, 0, Control_c, 10, 10, 64
1, 0, MIDI_port, 0
1, 0, Program_c, 11, 69
1, 0, Control_c, 11, 7, 60
1, 0, Control_c, 11, 10, 127
1, 14, Note_on_c, 2, 43, 0
1, 14, Note_on_c, 9, 54, 0
1, 15, Note_on_c, 9, 69, 0
1, 16, Note_on_c, 2, 38, 0
1, 17, Note_on_c, 9, 36, 0
1, 17, Note_on_c, 9, 57, 0
1, 30, Note_on_c, 2, 38, 100
1, 30, Note_on_c, 2, 43, 100
1, 30, Note_on_c, 9, 54, 81
1, 30, Note_on_c, 9, 70, 31
1, 45, Note_on_c, 9, 54, 0
1, 46, Note_on_c, 2, 38, 0
1, 53, Note_on_c, 2, 43, 0
1, 55, Note_on_c, 9, 70, 0
1, 60, Note_on_c, 1, 72, 0
1, 60, Note_on_c, 1, 41, 0
1, 60, Note_on_c, 1, 65, 0
1, 60, Note_on_c, 1, 53, 0
1, 60, Note_on_c, 1, 77, 0
1, 60, Note_on_c, 1, 48, 0
1, 60, Note_on_c, 9, 54, 81
1, 60, Note_on_c, 9, 69, 50
1, 67, Note_on_c, 9, 54, 0
1, 77, Note_on_c, 9, 69, 0
1, 90, Note_on_c, 2, 38, 100
1, 90, Note_on_c, 9, 54, 81
1, 90, Note_on_c, 9, 70, 31
1, 97, Note_on_c, 9, 54, 0
1, 111, Note_on_c, 9, 70, 0
1, 112, Note_on_c, 2, 38, 0
1, 120, Note_on_c, 2, 62, 127
1, 120, Note_on_c, 2, 50, 127
1, 120, Note_on_c, 9, 54, 114
1, 120, Note_on_c, 9, 69, 31
1, 134, Note_on_c, 9, 54, 0
1, 143, Note_on_c, 9, 69, 0
1, 150, Note_on_c, 9, 54, 81
1, 150, Note_on_c, 9, 70, 31
1, 153, Note_on_c, 2, 62, 0
1, 156, Note_on_c, 2, 50, 0
1, 168, Note_on_c, 9, 54, 0
1, 173, Note_on_c, 9, 70, 0
1, 180, Note_on_c, 9, 54, 81
1, 180, Note_on_c, 9, 69, 50
1, 187, Note_on_c, 9, 54, 0
1, 191, Note_on_c, 9, 69, 0
1, 210, Note_on_c, 9, 54, 81
1, 210, Note_on_c, 9, 70, 31
1, 223, Note_on_c, 9, 54, 0
1, 229, Note_on_c, 9, 70, 0
1, 240, Note_on_c, 2, 38, 127
1, 240, Note_on_c, 9, 54, 114
1, 240, Note_on_c, 9, 69, 31
1, 251, Note_on_c, 9, 54, 0
1, 263, Note_on_c, 9, 69, 0
1, 270, Note_on_c, 9, 54, 81
1, 270, Note_on_c, 9, 70, 31
1, 285, Note_on_c, 9, 54, 0
1, 288, Note_on_c, 2, 38, 0
1, 295, Note_on_c, 9, 70, 0
1, 300, Note_on_c, 2, 50, 127
1, 300, Note_on_c, 2, 57, 127
1, 300, Note_on_c, 2, 55, 127
1, 300, Note_on_c, 9, 54, 81
1, 300, Note_on_c, 9, 69, 50
1, 306, Note_on_c, 9, 54, 0
1, 314, Note_on_c, 9, 69, 0
1, 330, Note_on_c, 9, 54, 81
1, 330, Note_on_c, 9, 70, 31
1, 336, Note_on_c, 2, 55, 0
1, 338, Note_on_c, 2, 57, 0
1, 338, Note_on_c, 2, 50, 0
1, 347, Note_on_c, 9, 54, 0
1, 352, Note_on_c, 9, 70, 0
1, 360, Note_on_c, 2, 38, 127
1, 360, Note_on_c, 2, 43, 127
1, 360, Note_on_c, 9, 54, 114
1, 360, Note_on_c, 9, 69, 31
1, 375, Note_on_c, 9, 54, 0
1, 384, Note_on_c, 9, 69, 0
1, 390, Note_on_c, 9, 54, 81
1, 390, Note_on_c, 9, 70, 31
1, 397, Note_on_c, 2, 38, 0
1, 405, Note_on_c, 2, 43, 0
1, 409, Note_on_c, 9, 54, 0
1, 412, Note_on_c, 9, 70, 0
1, 420, Note_on_c, 2, 50, 127
1, 420, Note_on_c, 2, 57, 127
1, 420, Note_on_c, 9, 54, 81
1, 420, Note_on_c, 9, 69, 50
1, 429, Note_on_c, 9, 54, 0
1, 433, Note_on_c, 2, 57, 0
1, 433, Note_on_c, 2, 50, 0
1, 440, Note_on_c, 9, 69, 0
1, 450, Note_on_c, 2, 57, 100
1, 450, Note_on_c, 2, 50, 100
1, 450, Note_on_c, 9, 54, 81
1, 450, Note_on_c, 9, 70, 31
1, 463, Note_on_c, 2, 50, 0
1, 463, Note_on_c, 9, 54, 0
1, 468, Note_on_c, 9, 70, 0
1, 472, Note_on_c, 2, 57, 0
1, 480, Note_on_c, 2, 38, 127
1, 480, Note_on_c, 2, 43, 127
1, 480, Note_on_c, 9, 69, 31
1, 480, Note_on_c, 9, 54, 114
1, 494, Note_on_c, 2, 43, 0
1, 494, Note_on_c, 9, 54, 0
1, 495, Note_on_c, 9, 69, 0
1, 496, Note_on_c, 2, 38, 0
1, 510, Note_on_c, 2, 38, 100
1, 510, Note_on_c, 2, 43, 100
1, 510, Note_on_c, 9, 70, 31
1, 510, Note_on_c, 9, 54, 81
1, 525, Note_on_c, 9, 54, 0
1, 526, Note_on_c, 2, 38, 0
1, 533, Note_on_c, 2, 43, 0
1, 535, Note_on_c, 9, 70, 0
1, 540, Note_on_c, 9, 69, 50
1, 540, Note_on_c, 9, 54, 81
1, 547, Note_on_c, 9, 54, 0
1, 557, Note_on_c, 9, 69, 0
1, 570, Note_on_c, 2, 38, 100
1, 570, Note_on_c, 9, 70, 31
1, 570, Note_on_c, 9, 54, 81
1, 577, Note_on_c, 9, 54, 0
1, 591, Note_on_c, 9, 70, 0
1, 592, Note_on_c, 2, 38, 0
1, 600, Note_on_c, 2, 62, 127
1, 600, Note_on_c, 2, 50, 127
1, 600, Note_on_c, 9, 69, 31
1, 600, Note_on_c, 9, 54, 114
1, 614, Note_on_c, 9, 54, 0
1, 623, Note_on_c, 9, 69, 0
1, 630, Note_on_c, 9, 70, 31
1, 630, Note_on_c, 9, 54, 81
1, 633, Note_on_c, 2, 62, 0
1, 636, Note_on_c, 2, 50, 0
1, 648, Note_on_c, 9, 54, 0
1, 653, Note_on_c, 9, 70, 0
1, 660, Note_on_c, 9, 69, 50
1, 660, Note_on_c, 9, 54, 81
1, 667, Note_on_c, 9, 54, 0
1, 671, Note_on_c, 9, 69, 0
1, 690, Note_on_c, 9, 70, 31
1, 690, Note_on_c, 9, 54, 81
1, 703, Note_on_c, 9, 54, 0
1, 709, Note_on_c, 9, 70, 0
1, 720, Note_on_c, 2, 38, 127
1, 720, Note_on_c, 7, 46, 40
1, 720, Note_on_c, 9, 69, 31
1, 720, Note_on_c, 9, 54, 114
1, 720, Note_on_c, 9, 40, 40
1, 731, Note_on_c, 9, 54, 0
1, 737, Note_on_c, 7, 46, 0
1, 743, Note_on_c, 9, 69, 0
1, 750, Note_on_c, 7, 46, 51
1, 750, Note_on_c, 9, 40, 0
1, 750, Note_on_c, 9, 70, 31
1, 750, Note_on_c, 9, 54, 81
1, 750, Note_on_c, 9, 40, 51
1, 755, Note_on_c, 7, 46, 0
1, 765, Note_on_c, 9, 54, 0
1, 768, Note_on_c, 2, 38, 0
1, 775, Note_on_c, 9, 70, 0
1, 780, Note_on_c, 2, 50, 127
1, 780, Note_on_c, 2, 57, 127
1, 780, Note_on_c, 2, 55, 127
1, 780, Note_on_c, 7, 46, 62
1, 780, Note_on_c, 9, 40, 0
1, 780, Note_on_c, 9, 69, 50
1, 780, Note_on_c, 9, 54, 81
1, 780, Note_on_c, 9, 40, 62
1, 786, Note_on_c, 9, 54, 0
1, 794, Note_on_c, 9, 69, 0
1, 795, Note_on_c, 7, 46, 0
1, 810, Note_on_c, 7, 46, 74
1, 810, Note_on_c, 9, 40, 0
1, 810, Note_on_c, 9, 70, 31
1, 810, Note_on_c, 9, 54, 81
1, 810, Note_on_c, 9, 40, 74
1, 816, Note_on_c, 2, 55, 0
1, 818, Note_on_c, 2, 57, 0
1, 818, Note_on_c, 2, 50, 0
1, 822, Note_on_c, 7, 46, 0
1, 827, Note_on_c, 9, 54, 0
1, 832, Note_on_c, 9, 70, 0
1, 840, Note_on_c, 2, 38, 127
1, 840, Note_on_c, 2, 43, 127
1, 840, Note_on_c, 7, 46, 85
1, 840, Note_on_c, 9, 40, 0
1, 840, Note_on_c, 9, 69, 31
1, 840, Note_on_c, 9, 54, 114
1, 840, Note_on_c, 9, 40, 85
1, 855, Note_on_c, 9, 54, 0
1, 857, Note_on_c, 7, 46, 0
1, 864, Note_on_c, 9, 69, 0
1, 870, Note_on_c, 7, 46, 97
1, 870, Note_on_c, 9, 40, 0
1, 870, Note_on_c, 9, 70, 31
1, 870, Note_on_c, 9, 54, 81
1, 870, Note_on_c, 9, 40, 97
1, 877, Note_on_c, 2, 38, 0
1, 883, Note_on_c, 7, 46, 0
1, 885, Note_on_c, 2, 43, 0
1, 889, Note_on_c, 9, 54, 0
1, 892, Note_on_c, 9, 70, 0
1, 900, Note_on_c, 2, 50, 127
1, 900, Note_on_c, 2, 57, 127
1, 900, Note_on_c, 7, 46, 108
1, 900, Note_on_c, 9, 40, 0
1, 900, Note_on_c, 9, 69, 50
1, 900, Note_on_c, 9, 54, 81
1, 900, Note_on_c, 9, 40, 108
1, 909, Note_on_c, 9, 54, 0
1, 913, Note_on_c, 2, 57, 0
1, 913, Note_on_c, 2, 50, 0
1, 916, Note_on_c, 7, 46, 0
1, 920, Note_on_c, 9, 69, 0
1, 930, Note_on_c, 2, 57, 100
1, 930, Note_on_c, 2, 50, 100
1, 930, Note_on_c, 7, 46, 120
1, 930, Note_on_c, 9, 40, 0
1, 930, Note_on_c, 9, 70, 31
1, 930, Note_on_c, 9, 54, 81
1, 930, Note_on_c, 9, 40, 120
1, 942, Note_on_c, 7, 46, 0
1, 943, Note_on_c, 2, 50, 0
1, 943, Note_on_c, 9, 54, 0
1, 948, Note_on_c, 9, 70, 0
1, 952, Note_on_c, 2, 57, 0
1, 960, Note_on_c, 1, 53, 127
1, 960, Note_on_c, 1, 41, 127
1, 960, Note_on_c, 1, 65, 127
1, 960, Note_on_c, 1, 48, 127
1, 960, Note_on_c, 1, 77, 127
1, 960, Note_on_c, 1, 72, 127
1, 960, Note_on_c, 1, 84, 127
1, 960, Note_on_c, 2, 38, 127
1, 960, Note_on_c, 2, 43, 127
1, 960, Note_on_c, 9, 40, 0
1, 960, Note_on_c, 9, 40, 127
1, 960, Note_on_c, 9, 55, 127
1, 960, Note_on_c, 9, 36, 127
1, 960, Note_on_c, 9, 69, 31
1, 960, Note_on_c, 9, 54, 114
1, 974, Note_on_c, 2, 43, 0
1, 974, Note_on_c, 9, 54, 0
1, 975, Note_on_c, 9, 69, 0
1, 976, Note_on_c, 2, 38, 0
1, 977, Note_on_c, 9, 36, 0
1, 990, Note_on_c, 2, 38, 100
1, 990, Note_on_c, 2, 43, 100
1, 990, Note_on_c, 6, 29, 127
1, 990, Note_on_c, 9, 55, 0
1, 990, Note_on_c, 9, 40, 0
1, 990, Note_on_c, 9, 70, 31
1, 990, Note_on_c, 9, 54, 81
1, 1005, Note_on_c, 9, 54, 0
1, 1006, Note_on_c, 2, 38, 0
1, 1013, Note_on_c, 2, 43, 0
1, 1015, Note_on_c, 9, 70, 0
1, 1020, Note_on_c, 9, 69, 50
1, 1020, Note_on_c, 9, 54, 81
1, 1027, Note_on_c, 9, 54, 0
1, 1037, Note_on_c, 9, 69, 0
1, 1050, Note_on_c, 2, 38, 100
1, 1050, Note_on_c, 9, 70, 31
1, 1050, Note_on_c, 9, 54, 81
1, 1057, Note_on_c, 9, 54, 0
1, 1071, Note_on_c, 9, 70, 0
1, 1072, Note_on_c, 2, 38, 0
1, 1080, Note_on_c, 1, 84, 0
1, 1080, Note_on_c, 1, 77, 0
1, 1080, Note_on_c, 1, 41, 0
1, 1080, Note_on_c, 1, 65, 0
1, 1080, Note_on_c, 1, 53, 0
1, 1080, Note_on_c, 1, 72, 0
1, 1080, Note_on_c, 1, 48, 0
1, 1080, Note_on_c, 2, 62, 127
1, 1080, Note_on_c, 2, 50, 127
1, 1080, Note_on_c, 9, 57, 127
1, 1080, Note_on_c, 9, 36, 127
1, 1080, Note_on_c, 9, 69, 31
1, 1080, Note_on_c, 9, 54, 114
1, 1094, Note_on_c, 9, 54, 0
1, 1097, Note_on_c, 9, 57, 0
1, 1103, Note_on_c, 9, 69, 0
1, 1110, Note_on_c, 9, 36, 0
1, 1110, Note_on_c, 9, 70, 31
1, 1110, Note_on_c, 9, 54, 81
1, 1113, Note_on_c, 2, 62, 0
1, 1116, Note_on_c, 2, 50, 0
1, 1128, Note_on_c, 9, 54, 0
1, 1133, Note_on_c, 9, 70, 0
1, 1140, Note_on_c, 9, 69, 50
1, 1140, Note_on_c, 9, 54, 81
1, 1147, Note_on_c, 9, 54, 0
1, 1151, Note_on_c, 9, 69, 0
1, 1170, Note_on_c, 9, 70, 31
1, 1170, Note_on_c, 9, 54, 81
1, 1183, Note_on_c, 9, 54, 0
1, 1189, Note_on_c, 9, 70, 0
1, 1200, Note_on_c, 2, 38, 127
1, 1200, Note_on_c, 9, 69, 31
1, 1200, Note_on_c, 9, 54, 114
1, 1211, Note_on_c, 9, 54, 0
1, 1223, Note_on_c, 9, 69, 0
1, 1230, Note_on_c, 9, 70, 31
1, 1230, Note_on_c, 9, 54, 81
1, 1245, Note_on_c, 9, 54, 0
1, 1248, Note_on_c, 2, 38, 0
1, 1255, Note_on_c, 9, 70, 0
1, 1260, Note_on_c, 2, 50, 127
1, 1260, Note_on_c, 2, 57, 127
1, 1260, Note_on_c, 2, 55, 127
1, 1260, Note_on_c, 9, 69, 50
1, 1260, Note_on_c, 9, 54, 81
1, 1266, Note_on_c, 9, 54, 0
1, 1274, Note_on_c, 9, 69, 0
1, 1290, Note_on_c, 9, 70, 31
1, 1290, Note_on_c, 9, 54, 81
1, 1296, Note_on_c, 2, 55, 0
1, 1298, Note_on_c, 2, 57, 0
1, 1298, Note_on_c, 2, 50, 0
1, 1307, Note_on_c, 9, 54, 0
1, 1312, Note_on_c, 9, 70, 0
1, 1320, Note_on_c, 2, 38, 127
1, 1320, Note_on_c, 2, 43, 127
1, 1320, Note_on_c, 9, 69, 31
1, 1320, Note_on_c, 9, 54, 114
1, 1335, Note_on_c, 9, 54, 0
1, 1344, Note_on_c, 9, 69, 0
1, 1350, Note_on_c, 9, 70, 31
1, 1350, Note_on_c, 9, 54, 81
1, 1357, Note_on_c, 2, 38, 0
1, 1365, Note_on_c, 2, 43, 0
1, 1369, Note_on_c, 9, 54, 0
1, 1372, Note_on_c, 9, 70, 0
1, 1380, Note_on_c, 2, 50, 127
1, 1380, Note_on_c, 2, 57, 127
1, 1380, Note_on_c, 9, 69, 50
1, 1380, Note_on_c, 9, 54, 81
1, 1389, Note_on_c, 9, 54, 0
1, 1393, Note_on_c, 2, 57, 0
1, 1393, Note_on_c, 2, 50, 0
1, 1400, Note_on_c, 9, 69, 0
1, 1410, Note_on_c, 2, 57, 100
1, 1410, Note_on_c, 2, 50, 100
1, 1410, Note_on_c, 9, 70, 31
1, 1410, Note_on_c, 9, 54, 81
1, 1423, Note_on_c, 2, 50, 0
1, 1423, Note_on_c, 9, 54, 0
1, 1428, Note_on_c, 9, 70, 0
1, 1432, Note_on_c, 2, 57, 0
1, 1440, Note_on_c, 2, 38, 127
1, 1440, Note_on_c, 2, 43, 127
1, 1440, Note_on_c, 9, 69, 31
1, 1440, Note_on_c, 9, 54, 114
1, 1454, Note_on_c, 2, 43, 0
1, 1454, Note_on_c, 9, 54, 0
1, 1455, Note_on_c, 9, 69, 0
1, 1456, Note_on_c, 2, 38, 0
1, 1470, Note_on_c, 2, 38, 100
1, 1470, Note_on_c, 2, 43, 100
1, 1470, Note_on_c, 9, 70, 31
1, 1470, Note_on_c, 9, 54, 81
1, 1485, Note_on_c, 9, 54, 0
1, 1486, Note_on_c, 2, 38, 0
1, 1493, Note_on_c, 2, 43, 0
1, 1495, Note_on_c, 9, 70, 0
1, 1500, Note_on_c, 9, 69, 50
1, 1500, Note_on_c, 9, 54, 81
1, 1507, Note_on_c, 9, 54, 0
1, 1517, Note_on_c, 9, 69, 0
1, 1530, Note_on_c, 2, 38, 100
1, 1530, Note_on_c, 9, 70, 31
1, 1530, Note_on_c, 9, 54, 81
1, 1537, Note_on_c, 9, 54, 0
1, 1551, Note_on_c, 9, 70, 0
1, 1552, Note_on_c, 2, 38, 0
1, 1560, Note_on_c, 2, 62, 127
1, 1560, Note_on_c, 2, 50, 127
1, 1560, Note_on_c, 9, 69, 31
1, 1560, Note_on_c, 9, 54, 114
1, 1574, Note_on_c, 9, 54, 0
1, 1583, Note_on_c, 9, 69, 0
1, 1590, Note_on_c, 9, 70, 31
1, 1590, Note_on_c, 9, 54, 81
1, 1593, Note_on_c, 2, 62, 0
1, 1596, Note_on_c, 2, 50, 0
1, 1608, Note_on_c, 9, 54, 0
1, 1613, Note_on_c, 9, 70, 0
1, 1620, Note_on_c, 9, 69, 50
1, 1620, Note_on_c, 9, 54, 81
1, 1627, Note_on_c, 9, 54, 0
1, 1631, Note_on_c, 9, 69, 0
1, 1650, Note_on_c, 9, 70, 31
1, 1650, Note_on_c, 9, 54, 81
1, 1663, Note_on_c, 9, 54, 0
1, 1669, Note_on_c, 9, 70, 0
1, 1680, Note_on_c, 2, 38, 127
1, 1680, Note_on_c, 9, 69, 31
1, 1680, Note_on_c, 9, 54, 114
1, 1691, Note_on_c, 9, 54, 0
1, 1703, Note_on_c, 9, 69, 0
1, 1710, Note_on_c, 9, 70, 31
1, 1710, Note_on_c, 9, 54, 81
1, 1725, Note_on_c, 9, 54, 0
1, 1728, Note_on_c, 2, 38, 0
1, 1735, Note_on_c, 9, 70, 0
1, 1740, Note_on_c, 2, 50, 127
1, 1740, Note_on_c, 2, 57, 127
1, 1740, Note_on_c, 2, 55, 127
1, 1740, Note_on_c, 9, 69, 50
1, 1740, Note_on_c, 9, 54, 81
1, 1746, Note_on_c, 9, 54, 0
1, 1754, Note_on_c, 9, 69, 0
1, 1770, Note_on_c, 9, 70, 31
1, 1770, Note_on_c, 9, 54, 81
1, 1776, Note_on_c, 2, 55, 0
1, 1778, Note_on_c, 2, 57, 0
1, 1778, Note_on_c, 2, 50, 0
1, 1787, Note_on_c, 9, 54, 0
1, 1792, Note_on_c, 9, 70, 0
1, 1800, Note_on_c, 2, 57, 127
1, 1800, Note_on_c, 2, 50, 127
1, 1800, Note_on_c, 9, 69, 31
1, 1800, Note_on_c, 9, 54, 114
1, 1815, Note_on_c, 2, 50, 0
1, 1815, Note_on_c, 2, 57, 0
1, 1815, Note_on_c, 2, 50, 127
1, 1815, Note_on_c, 2, 57, 127
1, 1815, Note_on_c, 9, 54, 0
1, 1824, Note_on_c, 9, 69, 0
1, 1830, Note_on_c, 2, 57, 0
1, 1830, Note_on_c, 2, 50, 0
1, 1830, Note_on_c, 2, 50, 127
1, 1830, Note_on_c, 2, 57, 127
1, 1830, Note_on_c, 9, 70, 31
1, 1830, Note_on_c, 9, 54, 81
1, 1845, Note_on_c, 2, 57, 0
1, 1845, Note_on_c, 2, 50, 0
1, 1849, Note_on_c, 9, 54, 0
1, 1852, Note_on_c, 9, 70, 0
1, 1860, Note_on_c, 2, 50, 127
1, 1860, Note_on_c, 2, 57, 127
1, 1860, Note_on_c, 9, 69, 50
1, 1860, Note_on_c, 9, 54, 81
1, 1869, Note_on_c, 9, 54, 0
1, 1873, Note_on_c, 2, 57, 0
1, 1873, Note_on_c, 2, 50, 0
1, 1880, Note_on_c, 9, 69, 0
1, 1890, Note_on_c, 2, 57, 100
1, 1890, Note_on_c, 2, 50, 100
1, 1890, Note_on_c, 9, 70, 31
1, 1890, Note_on_c, 9, 54, 81
1, 1903, Note_on_c, 2, 50, 0
1, 1903, Note_on_c, 9, 54, 0
1, 1908, Note_on_c, 9, 70, 0
1, 1912, Note_on_c, 2, 57, 0
1, 1920, Note_on_c, 0, 63, 127
1, 1920, Note_on_c, 3, 41, 0
1, 1920, Note_on_c, 3, 29, 0
1, 1920, Control_c, 3, 7, 85
1, 1920, Note_on_c, 3, 44, 127
1, 1920, Note_on_c, 3, 32, 127
1, 1920, Note_on_c, 3, 68, 127
1, 1920, Note_on_c, 3, 56, 127
1, 1920, Note_on_c, 3, 39, 127
1, 1920, Note_on_c, 3, 63, 127
1, 1920, Note_on_c, 4, 89, 0
1, 1920, Note_on_c, 6, 29, 0
1, 1920, Note_on_c, 9, 57, 127
1, 1920, Note_on_c, 9, 36, 127
1, 1920, Note_on_c, 9, 54, 114
1, 1920, Note_on_c, 9, 35, 100
1, 1920, Note_on_c, 11, 63, 127
1, 1934, Note_on_c, 9, 54, 0
1, 1950, Note_on_c, 9, 54, 81
1, 1965, Note_on_c, 9, 54, 0
1, 1980, Note_on_c, 9, 57, 0
1, 1980, Note_on_c, 9, 36, 0
1, 1980, Note_on_c, 9, 54, 81
1, 1980, Note_on_c, 10, 40, 100
1, 1981, Note_on_c, 9, 35, 0
1, 1987, Note_on_c, 9, 54, 0
1, 2001, Note_on_c, 10, 40, 0
1, 2010, Note_on_c, 9, 54, 81
1, 2017, Note_on_c, 9, 54, 0
1, 2040, Note_on_c, 9, 54, 114
1, 2040, Note_on_c, 9, 35, 100
1, 2040, Note_on_c, 10, 40, 127
1, 2054, Note_on_c, 9, 54, 0
1, 2056, Note_on_c, 10, 40, 0
1, 2070, Note_on_c, 9, 54, 81
1, 2070, Note_on_c, 10, 40, 100
1, 2088, Note_on_c, 9, 54, 0
1, 2095, Note_on_c, 10, 40, 0
1, 2100, Note_on_c, 9, 54, 81
1, 2107, Note_on_c, 9, 54, 0
1, 2116, Note_on_c, 9, 35, 0
1, 2130, Note_on_c, 9, 54, 81
1, 2130, Note_on_c, 10, 40, 100
1, 2143, Note_on_c, 9, 54, 0
1, 2152, Note_on_c, 10, 40, 0
1, 2160, Note_on_c, 9, 54, 114
1, 2160, Note_on_c, 9, 35, 100
1, 2160, Note_on_c, 10, 41, 127
1, 2171, Note_on_c, 9, 54, 0
1, 2190, Note_on_c, 9, 54, 81
1, 2191, Note_on_c, 10, 41, 0
1, 2205, Note_on_c, 9, 54, 0
1, 2220, Note_on_c, 9, 54, 81
1, 2220, Note_on_c, 10, 41, 127
1, 2225, Note_on_c, 9, 35, 0
1, 2226, Note_on_c, 9, 54, 0
1, 2250, Note_on_c, 9, 54, 81
1, 2266, Note_on_c, 10, 41, 0
1, 2267, Note_on_c, 9, 54, 0
1, 2280, Note_on_c, 9, 54, 114
1, 2280, Note_on_c, 9, 35, 100
1, 2295, Note_on_c, 9, 54, 0
1, 2310, Note_on_c, 9, 54, 81
1, 2316, Note_on_c, 9, 35, 0
1, 2329, Note_on_c, 9, 54, 0
1, 2340, Note_on_c, 9, 54, 81
1, 2340, Note_on_c, 10, 41, 100
1, 2349, Note_on_c, 9, 54, 0
1, 2370, Note_on_c, 9, 54, 81
1, 2383, Note_on_c, 9, 54, 0
1, 2389, Note_on_c, 10, 41, 0
1, 2400, Note_on_c, 0, 63, 0
1, 2400, Note_on_c, 0, 65, 127
1, 2400, Note_on_c, 9, 54, 114
1, 2400, Note_on_c, 9, 35, 100
1, 2400, Note_on_c, 10, 40, 127
1, 2400, Note_on_c, 11, 63, 0
1, 2400, Note_on_c, 11, 65, 127
1, 2414, Note_on_c, 9, 54, 0
1, 2421, Note_on_c, 10, 40, 0
1, 2430, Note_on_c, 9, 54, 81
1, 2440, Note_on_c, 10, 40, 100
1, 2445, Note_on_c, 9, 54, 0
1, 2460, Note_on_c, 9, 54, 81
1, 2461, Note_on_c, 9, 35, 0
1, 2461, Note_on_c, 10, 40, 0
1, 2467, Note_on_c, 9, 54, 0
1, 2480, Note_on_c, 10, 40, 100
1, 2490, Note_on_c, 9, 54, 81
1, 2497, Note_on_c, 9, 54, 0
1, 2501, Note_on_c, 10, 40, 0
1, 2520, Note_on_c, 9, 54, 114
1, 2520, Note_on_c, 9, 35, 100
1, 2520, Note_on_c, 10, 41, 127
1, 2534, Note_on_c, 9, 54, 0
1, 2536, Note_on_c, 10, 41, 0
1, 2550, Note_on_c, 9, 54, 81
1, 2568, Note_on_c, 9, 54, 0
1, 2580, Note_on_c, 9, 54, 81
1, 2587, Note_on_c, 9, 54, 0
1, 2596, Note_on_c, 9, 35, 0
1, 2610, Note_on_c, 9, 54, 81
1, 2610, Note_on_c, 10, 40, 100
1, 2623, Note_on_c, 9, 54, 0
1, 2632, Note_on_c, 10, 40, 0
1, 2640, Note_on_c, 0, 65, 0
1, 2640, Note_on_c, 0, 70, 127
1, 2640, Note_on_c, 9, 54, 114
1, 2640, Note_on_c, 9, 35, 100
1, 2640, Note_on_c, 10, 41, 127
1, 2640, Note_on_c, 11, 65, 0
1, 2640, Note_on_c, 11, 70, 127
1, 2651, Note_on_c, 9, 54, 0
1, 2670, Note_on_c, 9, 54, 81
1, 2671, Note_on_c, 10, 41, 0
1, 2685, Note_on_c, 9, 54, 0
1, 2700, Note_on_c, 9, 54, 81
1, 2700, Note_on_c, 10, 41, 127
1, 2705, Note_on_c, 9, 35, 0
1, 2706, Note_on_c, 9, 54, 0
1, 2730, Note_on_c, 9, 54, 81
1, 2746, Note_on_c, 10, 41, 0
1, 2747, Note_on_c, 9, 54, 0
1, 2760, Note_on_c, 9, 54, 114
1, 2760, Note_on_c, 9, 35, 100
1, 2775, Note_on_c, 9, 54, 0
1, 2790, Note_on_c, 9, 54, 81
1, 2796, Note_on_c, 9, 35, 0
1, 2809, Note_on_c, 9, 54, 0
1, 2820, Note_on_c, 9, 54, 81
1, 2820, Note_on_c, 10, 41, 100
1, 2829, Note_on_c, 9, 54, 0
1, 2850, Note_on_c, 9, 54, 81
1, 2850, Note_on_c, 10, 41, 0
1, 2850, Note_on_c, 10, 41, 85
1, 2863, Note_on_c, 9, 54, 0
1, 2880, Note_on_c, 0, 70, 0
1, 2880, Note_on_c, 0, 67, 127
1, 2880, Note_on_c, 3, 63, 0
1, 2880, Note_on_c, 3, 32, 0
1, 2880, Note_on_c, 3, 68, 0
1, 2880, Note_on_c, 3, 44, 0
1, 2880, Note_on_c, 3, 39, 0
1, 2880, Note_on_c, 3, 56, 0
1, 2880, Note_on_c, 3, 65, 127
1, 2880, Note_on_c, 3, 36, 127
1, 2880, Note_on_c, 3, 41, 127
1, 2880, Note_on_c, 3, 60, 127
1, 2880, Note_on_c, 3, 48, 127
1, 2880, Note_on_c, 3, 29, 127
1, 2880, Note_on_c, 9, 54, 114
1, 2880, Note_on_c, 9, 35, 100
1, 2880, Note_on_c, 10, 41, 0
1, 2880, Note_on_c, 11, 70, 0
1, 2880, Note_on_c, 11, 67, 127
1, 2894, Note_on_c, 9, 54, 0
1, 2910, Note_on_c, 9, 54, 81
1, 2925, Note_on_c, 9, 54, 0
1, 2940, Note_on_c, 9, 54, 81
1, 2940, Note_on_c, 10, 40, 100
1, 2941, Note_on_c, 9, 35, 0
1, 2947, Note_on_c, 9, 54, 0
1, 2961, Note_on_c, 10, 40, 0
1, 2970, Note_on_c, 9, 54, 81
1, 2977, Note_on_c, 9, 54, 0
1, 3000, Note_on_c, 9, 54, 114
1, 3000, Note_on_c, 9, 35, 100
1, 3000, Note_on_c, 10, 40, 127
1, 3014, Note_on_c, 9, 54, 0
1, 3016, Note_on_c, 10, 40, 0
1, 3030, Note_on_c, 9, 54, 81
1, 3030, Note_on_c, 10, 40, 100
1, 3048, Note_on_c, 9, 54, 0
1, 3055, Note_on_c, 10, 40, 0
1, 3060, Note_on_c, 9, 54, 81
1, 3067, Note_on_c, 9, 54, 0
1, 3076, Note_on_c, 9, 35, 0
1, 3090, Note_on_c, 9, 54, 81
1, 3090, Note_on_c, 10, 40, 100
1, 3103, Note_on_c, 9, 54, 0
1, 3112, Note_on_c, 10, 40, 0
1, 3120, Note_on_c, 9, 54, 114
1, 3120, Note_on_c, 9, 35, 100
1, 3120, Note_on_c, 10, 41, 127
1, 3131, Note_on_c, 9, 54, 0
1, 3150, Note_on_c, 9, 54, 81
1, 3151, Note_on_c, 10, 41, 0
1, 3165, Note_on_c, 9, 54, 0
1, 3180, Note_on_c, 9, 54, 81
1, 3180, Note_on_c, 10, 41, 127
1, 3185, Note_on_c, 9, 35, 0
1, 3186, Note_on_c, 9, 54, 0
1, 3210, Note_on_c, 9, 54, 81
1, 3226, Note_on_c, 10, 41, 0
1, 3227, Note_on_c, 9, 54, 0
1, 3240, Note_on_c, 9, 54, 114
1, 3240, Note_on_c, 9, 35, 100
1, 3255, Note_on_c, 9, 54, 0
1, 3270, Note_on_c, 9, 54, 81
1, 3276, Note_on_c, 9, 35, 0
1, 3289, Note_on_c, 9, 54, 0
1, 3300, Note_on_c, 0, 67, 0
1, 3300, Note_on_c, 0, 68, 127
1, 3300, Note_on_c, 9, 54, 81
1, 3300, Note_on_c, 10, 41, 100
1, 3300, Note_on_c, 11, 67, 0
1, 3300, Note_on_c, 11, 68, 127
1, 3309, Note_on_c, 9, 54, 0
1, 3330, Note_on_c, 0, 68, 0
1, 3330, Note_on_c, 0, 67, 127
1, 3330, Note_on_c, 9, 54, 81
1, 3330, Note_on_c, 11, 68, 0
1, 3330, Note_on_c, 11, 67, 127
1, 3343, Note_on_c, 9, 54, 0
1, 3349, Note_on_c, 10, 41, 0
1, 3360, Note_on_c, 0, 67, 0
1, 3360, Note_on_c, 0, 65, 127
1, 3360, Note_on_c, 9, 35, 100
1, 3360, Note_on_c, 9, 54, 114
1, 3360, Note_on_c, 10, 40, 127
1, 3360, Note_on_c, 11, 67, 0
1, 3360, Note_on_c, 11, 65, 127
1, 3374, Note_on_c, 9, 54, 0
1, 3381, Note_on_c, 10, 40, 0
1, 3390, Note_on_c, 9, 54, 81
1, 3400, Note_on_c, 10, 40, 100
1, 3405, Note_on_c, 9, 54, 0
1, 3420, Note_on_c, 9, 54, 81
1, 3421, Note_on_c, 9, 35, 0
1, 3421, Note_on_c, 10, 40, 0
1, 3427, Note_on_c, 9, 54, 0
1, 3440, Note_on_c, 10, 40, 100
1, 3450, Note_on_c, 9, 54, 81
1, 3457, Note_on_c, 9, 54, 0
1, 3461, Note_on_c, 10, 40, 0
1, 3480, Note_on_c, 9, 35, 100
1, 3480, Note_on_c, 9, 54, 114
1, 3480, Note_on_c, 10, 41, 127
1, 3494, Note_on_c, 9, 54, 0
1, 3496, Note_on_c, 10, 41, 0
1, 3510, Note_on_c, 9, 54, 81
1, 3528, Note_on_c, 9, 54, 0
1, 3540, Note_on_c, 9, 54, 81
1, 3547, Note_on_c, 9, 54, 0
1, 3556, Note_on_c, 9, 35, 0
1, 3570, Note_on_c, 9, 54, 81
1, 3570, Note_on_c, 10, 40, 100
1, 3583, Note_on_c, 9, 54, 0
1, 3592, Note_on_c, 10, 40, 0
1, 3600, Note_on_c, 9, 35, 100
1, 3600, Note_on_c, 9, 54, 114
1, 3600, Note_on_c, 10, 41, 127
1, 3611, Note_on_c, 9, 54, 0
1, 3630, Note_on_c, 9, 54, 81
1, 3631, Note_on_c, 10, 41, 0
1, 3645, Note_on_c, 9, 54, 0
1, 3660, Note_on_c, 9, 54, 81
1, 3660, Note_on_c, 10, 41, 127
1, 3665, Note_on_c, 9, 35, 0
1, 3666, Note_on_c, 9, 54, 0
1, 3690, Note_on_c, 9, 54, 81
1, 3706, Note_on_c, 10, 41, 0
1, 3707, Note_on_c, 9, 54, 0
1, 3720, Note_on_c, 9, 35, 100
1, 3720, Note_on_c, 9, 54, 114
1, 3735, Note_on_c, 9, 54, 0
1, 3750, Note_on_c, 9, 54, 81
1, 3756, Note_on_c, 9, 35, 0
1, 3769, Note_on_c, 9, 54, 0
1, 3780, Note_on_c, 9, 54, 81
1, 3780, Note_on_c, 10, 41, 100
1, 3789, Note_on_c, 9, 54, 0
1, 3810, Note_on_c, 9, 54, 81
1, 3810, Note_on_c, 10, 41, 0
1, 3810, Note_on_c, 10, 41, 85
1, 3823, Note_on_c, 9, 54, 0
1, 3840, Note_on_c, 0, 65, 0
1, 3840, Note_on_c, 3, 29, 0
1, 3840, Note_on_c, 3, 36, 0
1, 3840, Note_on_c, 3, 41, 0
1, 3840, Note_on_c, 3, 65, 0
1, 3840, Note_on_c, 3, 48, 0
1, 3840, Note_on_c, 3, 60, 0
1, 3840, Control_c, 3, 7, 85
1, 3840, Note_on_c, 3, 44, 127
1, 3840, Note_on_c, 3, 32, 127
1, 3840, Note_on_c, 3, 68, 127
1, 3840, Note_on_c, 3, 56, 127
1, 3840, Note_on_c, 3, 39, 127
1, 3840, Note_on_c, 3, 63, 127
1, 3840, Note_on_c, 8, 68, 96
1, 3840, Note_on_c, 9, 54, 114
1, 3840, Note_on_c, 9, 57, 127
1, 3840, Note_on_c, 9, 36, 127
1, 3840, Note_on_c, 9, 35, 100
1, 3840, Note_on_c, 10, 41, 0
1, 3840, Note_on_c, 11, 65, 0
1, 3854, Note_on_c, 9, 54, 0
1, 3870, Note_on_c, 9, 54, 81
1, 3885, Note_on_c, 9, 54, 0
1, 3900, Note_on_c, 9, 57, 0
1, 3900, Note_on_c, 9, 36, 0
1, 3900, Note_on_c, 9, 54, 81
1, 3900, Note_on_c, 10, 40, 100
1, 3901, Note_on_c, 9, 35, 0
1, 3907, Note_on_c, 9, 54, 0
1, 3921, Note_on_c, 10, 40, 0
1, 3930, Note_on_c, 9, 54, 81
1, 3937, Note_on_c, 9, 54, 0
1, 3960, Note_on_c, 9, 54, 114
1, 3960, Note_on_c, 9, 35, 100
1, 3960, Note_on_c, 10, 40, 127
1, 3974, Note_on_c, 9, 54, 0
1, 3976, Note_on_c, 10, 40, 0
1, 3990, Note_on_c, 9, 54, 81
1, 3990, Note_on_c, 10, 40, 100
1, 4008, Note_on_c, 9, 54, 0
1, 4015, Note_on_c, 10, 40, 0
1, 4020, Note_on_c, 9, 54, 81
1, 4027, Note_on_c, 9, 54, 0
1, 4036, Note_on_c, 9, 35, 0
1, 4050, Note_on_c, 9, 54, 81
1, 4050, Note_on_c, 10, 40, 100
1, 4063, Note_on_c, 9, 54, 0
1, 4072, Note_on_c, 10, 40, 0
1, 4080, Note_on_c, 9, 54, 114
1, 4080, Note_on_c, 9, 35, 100
1, 4080, Note_on_c, 10, 41, 127
1, 4091, Note_on_c, 9, 54, 0
1, 4110, Note_on_c, 9, 54, 81
1, 4111, Note_on_c, 10, 41, 0
1, 4125, Note_on_c, 9, 54, 0
1, 4140, Note_on_c, 9, 54, 81
1, 4140, Note_on_c, 10, 41, 127
1, 4145, Note_on_c, 9, 35, 0
1, 4146, Note_on_c, 9, 54, 0
1, 4170, Note_on_c, 9, 54, 81
1, 4186, Note_on_c, 10, 41, 0
1, 4187, Note_on_c, 9, 54, 0
1, 4200, Note_on_c, 9, 54, 114
1, 4200, Note_on_c, 9, 35, 100
1, 4215, Note_on_c, 9, 54, 0
1, 4230, Note_on_c, 9, 54, 81
1, 4236, Note_on_c, 9, 35, 0
1, 4249, Note_on_c, 9, 54, 0
1, 4260, Note_on_c, 8, 68, 0
1, 4260, Note_on_c, 8, 67, 83
1, 4260, Note_on_c, 9, 54, 81
1, 4260, Note_on_c, 10, 41, 100
1, 4269, Note_on_c, 9, 54, 0
1, 4290, Note_on_c, 8, 67, 0
1, 4290, Note_on_c, 8, 68, 86
1, 4290, Note_on_c, 9, 54, 81
1, 4303, Note_on_c, 9, 54, 0
1, 4309, Note_on_c, 10, 41, 0
1, 4320, Note_on_c, 8, 68, 0
1, 4320, Note_on_c, 8, 72, 71
1, 4320, Note_on_c, 9, 35, 100
1, 4320, Note_on_c, 9, 54, 114
1, 4320, Note_on_c, 10, 40, 127
1, 4334, Note_on_c, 9, 54, 0
1, 4341, Note_on_c, 10, 40, 0
1, 4350, Note_on_c, 9, 54, 81
1, 4360, Note_on_c, 10, 40, 100
1, 4365, Note_on_c, 9, 54, 0
1, 4380, Note_on_c, 9, 54, 81
1, 4381, Note_on_c, 9, 35, 0
1, 4381, Note_on_c, 10, 40, 0
1, 4387, Note_on_c, 9, 54, 0
1, 4400, Note_on_c, 10, 40, 100
1, 4410, Note_on_c, 9, 54, 81
1, 4417, Note_on_c, 9, 54, 0
1, 4421, Note_on_c, 10, 40, 0
1, 4440, Note_on_c, 9, 35, 100
1, 4440, Note_on_c, 9, 54, 114
1, 4440, Note_on_c, 10, 41, 127
1, 4454, Note_on_c, 9, 54, 0
1, 4456, Note_on_c, 10, 41, 0
1, 4470, Note_on_c, 9, 54, 81
1, 4488, Note_on_c, 9, 54, 0
1, 4500, Note_on_c, 9, 54, 81
1, 4507, Note_on_c, 9, 54, 0
1, 4516, Note_on_c, 9, 35, 0
1, 4530, Note_on_c, 9, 54, 81
1, 4530, Note_on_c, 10, 40, 100
1, 4543, Note_on_c, 9, 54, 0
1, 4552, Note_on_c, 10, 40, 0
1, 4560, Note_on_c, 8, 68, 94
1, 4560, Note_on_c, 9, 35, 100
1, 4560, Note_on_c, 9, 54, 114
1, 4560, Note_on_c, 10, 41, 127
1, 4561, Note_on_c, 8, 72, 0
1, 4571, Note_on_c, 9, 54, 0
1, 4590, Note_on_c, 9, 54, 81
1, 4591, Note_on_c, 10, 41, 0
1, 4605, Note_on_c, 9, 54, 0
1, 4620, Note_on_c, 9, 54, 81
1, 4620, Note_on_c, 10, 41, 127
1, 4625, Note_on_c, 9, 35, 0
1, 4626, Note_on_c, 9, 54, 0
1, 4650, Note_on_c, 9, 54, 81
1, 4666, Note_on_c, 10, 41, 0
1, 4667, Note_on_c, 9, 54, 0
1, 4680, Note_on_c, 9, 35, 100
1, 4680, Note_on_c, 9, 54, 114
1, 4695, Note_on_c, 9, 54, 0
1, 4710, Note_on_c, 9, 54, 81
1, 4716, Note_on_c, 9, 35, 0
1, 4729, Note_on_c, 9, 54, 0
1, 4740, Note_on_c, 8, 68, 0
1, 4740, Note_on_c, 8, 67, 84
1, 4740, Note_on_c, 9, 54, 81
1, 4740, Note_on_c, 10, 41, 100
1, 4749, Note_on_c, 9, 54, 0
1, 4770, Note_on_c, 8, 67, 0
1, 4770, Note_on_c, 8, 68, 73
1, 4770, Note_on_c, 9, 54, 81
1, 4770, Note_on_c, 10, 41, 0
1, 4770, Note_on_c, 10, 41, 85
1, 4783, Note_on_c, 9, 54, 0
1, 4800, Note_on_c, 3, 63, 0
1, 4800, Note_on_c, 3, 32, 0
1, 4800, Note_on_c, 3, 68, 0
1, 4800, Note_on_c, 3, 44, 0
1, 4800, Note_on_c, 3, 39, 0
1, 4800, Note_on_c, 3, 56, 0
1, 4800, Note_on_c, 3, 65, 127
1, 4800, Note_on_c, 3, 36, 127
1, 4800, Note_on_c, 3, 41, 127
1, 4800, Note_on_c, 3, 60, 127
1, 4800, Note_on_c, 3, 48, 127
1, 4800, Note_on_c, 3, 29, 127
1, 4800, Note_on_c, 6, 29, 127
1, 4800, Note_on_c, 8, 68, 0
1, 4800, Note_on_c, 8, 67, 62
1, 4800, Note_on_c, 9, 35, 100
1, 4800, Note_on_c, 9, 54, 114
1, 4800, Note_on_c, 10, 41, 0
1, 4814, Note_on_c, 9, 54, 0
1, 4830, Note_on_c, 9, 54, 81
1, 4845, Note_on_c, 9, 54, 0
1, 4860, Note_on_c, 9, 54, 81
1, 4860, Note_on_c, 10, 40, 100
1, 4861, Note_on_c, 9, 35, 0
1, 4867, Note_on_c, 9, 54, 0
1, 4881, Note_on_c, 10, 40, 0
1, 4890, Note_on_c, 9, 54, 81
1, 4897, Note_on_c, 9, 54, 0
1, 4920, Note_on_c, 9, 35, 100
1, 4920, Note_on_c, 9, 54, 114
1, 4920, Note_on_c, 10, 40, 127
1, 4934, Note_on_c, 9, 54, 0
1, 4936, Note_on_c, 10, 40, 0
1, 4950, Note_on_c, 9, 54, 81
1, 4950, Note_on_c, 10, 40, 100
1, 4968, Note_on_c, 9, 54, 0
1, 4975, Note_on_c, 10, 40, 0
1, 4980, Note_on_c, 9, 54, 81
1, 4987, Note_on_c, 9, 54, 0
1, 4996, Note_on_c, 9, 35, 0
1, 5010, Note_on_c, 9, 54, 81
1, 5010, Note_on_c, 10, 40, 100
1, 5023, Note_on_c, 9, 54, 0
1, 5032, Note_on_c, 10, 40, 0
1, 5040, Note_on_c, 9, 35, 100
1, 5040, Note_on_c, 9, 54, 114
1, 5040, Note_on_c, 10, 41, 127
1, 5051, Note_on_c, 9, 54, 0
1, 5070, Note_on_c, 9, 54, 81
1, 5071, Note_on_c, 10, 41, 0
1, 5085, Note_on_c, 9, 54, 0
1, 5100, Note_on_c, 9, 54, 81
1, 5100, Note_on_c, 10, 41, 127
1, 5105, Note_on_c, 9, 35, 0
1, 5106, Note_on_c, 9, 54, 0
1, 5130, Note_on_c, 9, 54, 81
1, 5146, Note_on_c, 10, 41, 0
1, 5147, Note_on_c, 9, 54, 0
1, 5160, Note_on_c, 9, 35, 100
1, 5160, Note_on_c, 9, 54, 114
1, 5175, Note_on_c, 9, 54, 0
1, 5190, Note_on_c, 9, 54, 81
1, 5196, Note_on_c, 9, 35, 0
1, 5209, Note_on_c, 9, 54, 0
1, 5220, Note_on_c, 9, 54, 81
1, 5220, Note_on_c, 10, 41, 100
1, 5229, Note_on_c, 9, 54, 0
1, 5250, Note_on_c, 9, 54, 81
1, 5263, Note_on_c, 9, 54, 0
1, 5269, Note_on_c, 10, 41, 0
1, 5280, Note_on_c, 8, 67, 0
1, 5280, Note_on_c, 8, 65, 84
1, 5280, Note_on_c, 9, 35, 100
1, 5280, Note_on_c, 9, 54, 114
1, 5280, Note_on_c, 10, 40, 127
1, 5294, Note_on_c, 9, 54, 0
1, 5301, Note_on_c, 10, 40, 0
1, 5310, Note_on_c, 9, 54, 81
1, 5320, Note_on_c, 10, 40, 100
1, 5325, Note_on_c, 9, 54, 0
1, 5340, Note_on_c, 9, 54, 81
1, 5341, Note_on_c, 9, 35, 0
1, 5341, Note_on_c, 10, 40, 0
1, 5347, Note_on_c, 9, 54, 0
1, 5360, Note_on_c, 10, 40, 100
1, 5370, Note_on_c, 9, 54, 81
1, 5377, Note_on_c, 9, 54, 0
1, 5381, Note_on_c, 10, 40, 0
1, 5400, Note_on_c, 9, 35, 100
1, 5400, Note_on_c, 9, 54, 114
1, 5400, Note_on_c, 10, 41, 127
1, 5414, Note_on_c, 9, 54, 0
1, 5416, Note_on_c, 10, 41, 0
1, 5430, Note_on_c, 9, 54, 81
1, 5448, Note_on_c, 9, 54, 0
1, 5460, Note_on_c, 9, 54, 81
1, 5467, Note_on_c, 9, 54, 0
1, 5476, Note_on_c, 9, 35, 0
1, 5490, Note_on_c, 9, 54, 81
1, 5490, Note_on_c, 10, 40, 100
1, 5503, Note_on_c, 9, 54, 0
1, 5512, Note_on_c, 10, 40, 0
1, 5520, Note_on_c, 9, 35, 100
1, 5520, Note_on_c, 9, 54, 114
1, 5520, Note_on_c, 10, 41, 127
1, 5531, Note_on_c, 9, 54, 0
1, 5534, Note_on_c, 10, 41, 0
1, 5535, Note_on_c, 10, 41, 85
1, 5549, Note_on_c, 10, 41, 0
1, 5550, Note_on_c, 9, 54, 81
1, 5550, Note_on_c, 10, 41, 100
1, 5564, Note_on_c, 10, 41, 0
1, 5565, Note_on_c, 9, 54, 0
1, 5580, Note_on_c, 9, 54, 81
1, 5580, Note_on_c, 10, 41, 127
1, 5585, Note_on_c, 9, 35, 0
1, 5586, Note_on_c, 9, 54, 0
1, 5594, Note_on_c, 10, 41, 0
1, 5610, Note_on_c, 9, 54, 81
1, 5610, Note_on_c, 10, 41, 100
1, 5624, Note_on_c, 10, 41, 0
1, 5625, Note_on_c, 10, 41, 85
1, 5627, Note_on_c, 9, 54, 0
1, 5639, Note_on_c, 10, 41, 0
1, 5640, Note_on_c, 9, 35, 100
1, 5640, Note_on_c, 9, 54, 114
1, 5642, Note_on_c, 10, 41, 127
1, 5655, Note_on_c, 9, 54, 0
1, 5656, Note_on_c, 10, 41, 0
1, 5670, Note_on_c, 9, 54, 81
1, 5670, Note_on_c, 10, 41, 100
1, 5676, Note_on_c, 9, 35, 0
1, 5684, Note_on_c, 10, 41, 0
1, 5689, Note_on_c, 9, 54, 0
1, 5700, Note_on_c, 9, 54, 81
1, 5700, Note_on_c, 10, 41, 127
1, 5709, Note_on_c, 9, 54, 0
1, 5714, Note_on_c, 10, 41, 0
1, 5730, Note_on_c, 9, 54, 81
1, 5730, Note_on_c, 10, 41, 100
1, 5743, Note_on_c, 9, 54, 0
1, 5744, Note_on_c, 10, 41, 0
1, 5760, Note_on_c, 1, 53, 127
1, 5760, Note_on_c, 1, 41, 127
1, 5760, Note_on_c, 1, 65, 127
1, 5760, Note_on_c, 1, 48, 127
1, 5760, Note_on_c, 1, 77, 127
1, 5760, Note_on_c, 1, 72, 127
1, 5760, Note_on_c, 3, 29, 0
1, 5760, Note_on_c, 3, 36, 0
1, 5760, Note_on_c, 3, 41, 0
1, 5760, Note_on_c, 3, 65, 0
1, 5760, Note_on_c, 3, 48, 0
1, 5760, Note_on_c, 3, 60, 0
1, 5760, Note_on_c, 3, 41, 127
1, 5760, Note_on_c, 3, 29, 127
1, 5760, Note_on_c, 4, 89, 127
1, 5760, Note_on_c, 6, 29, 0
1, 5760, Note_on_c, 8, 65, 0
1, 5760, Note_on_c, 9, 69, 31
1, 5760, Note_on_c, 9, 57, 127
1, 5760, Note_on_c, 9, 36, 127
1, 5760, Note_on_c, 9, 54, 114
1, 5774, Note_on_c, 9, 54, 0
1, 5775, Note_on_c, 9, 69, 0
1, 5777, Note_on_c, 9, 36, 0
1, 5777, Note_on_c, 9, 57, 0
1, 5790, Note_on_c, 9, 70, 31
1, 5790, Note_on_c, 9, 54, 81
1, 5805, Note_on_c, 9, 54, 0
1, 5815, Note_on_c, 9, 70, 0
1, 5820, Note_on_c, 1, 72, 0
1, 5820, Note_on_c, 1, 41, 0
1, 5820, Note_on_c, 1, 65, 0
1, 5820, Note_on_c, 1, 53, 0
1, 5820, Note_on_c, 1, 77, 0
1, 5820, Note_on_c, 1, 48, 0
1, 5820, Note_on_c, 9, 69, 50
1, 5820, Note_on_c, 9, 54, 81
1, 5827, Note_on_c, 9, 54, 0
1, 5837, Note_on_c, 9, 69, 0
1, 5850, Note_on_c, 9, 70, 31
1, 5850, Note_on_c, 9, 54, 81
1, 5857, Note_on_c, 9, 54, 0
1, 5871, Note_on_c, 9, 70, 0
1, 5880, Note_on_c, 9, 69, 31
1, 5880, Note_on_c, 9, 54, 114
1, 5894, Note_on_c, 9, 54, 0
1, 5903, Note_on_c, 9, 69, 0
1, 5910, Note_on_c, 9, 70, 31
1, 5910, Note_on_c, 9, 54, 81
1, 5928, Note_on_c, 9, 54, 0
1, 5933, Note_on_c, 9, 70, 0
1, 5940, Note_on_c, 9, 69, 50
1, 5940, Note_on_c, 9, 54, 81
1, 5947, Note_on_c, 9, 54, 0
1, 5951, Note_on_c, 9, 69, 0
1, 5970, Note_on_c, 9, 70, 31
1, 5970, Note_on_c, 9, 54, 81
1, 5983, Note_on_c, 9, 54, 0
1, 5989, Note_on_c, 9, 70, 0
1, 6000, Note_on_c, 9, 69, 31
1, 6000, Note_on_c, 9, 54, 114
1, 6011, Note_on_c, 9, 54, 0
1, 6023, Note_on_c, 9, 69, 0
1, 6030, Note_on_c, 9, 70, 31
1, 6030, Note_on_c, 9, 54, 81
1, 6045, Note_on_c, 9, 54, 0
1, 6055, Note_on_c, 9, 70, 0
1, 6060, Note_on_c, 9, 69, 50
1, 6060, Note_on_c, 9, 54, 81
1, 6066, Note_on_c, 9, 54, 0
1, 6074, Note_on_c, 9, 69, 0
1, 6090, Note_on_c, 9, 70, 31
1, 6090, Note_on_c, 9, 54, 81
1, 6107, Note_on_c, 9, 54, 0
1, 6112, Note_on_c, 9, 70, 0
1, 6120, Note_on_c, 9, 69, 31
1, 6120, Note_on_c, 9, 54, 114
1, 6135, Note_on_c, 9, 54, 0
1, 6144, Note_on_c, 9, 69, 0
1, 6150, Note_on_c, 9, 70, 31
1, 6150, Note_on_c, 9, 54, 81
1, 6169, Note_on_c, 9, 54, 0
1, 6172, Note_on_c, 9, 70, 0
1, 6180, Note_on_c, 9, 69, 50
1, 6180, Note_on_c, 9, 54, 81
1, 6189, Note_on_c, 9, 54, 0
1, 6200, Note_on_c, 9, 69, 0
1, 6210, Note_on_c, 9, 70, 31
1, 6210, Note_on_c, 9, 54, 81
1, 6223, Note_on_c, 9, 54, 0
1, 6228, Note_on_c, 9, 70, 0
1, 6240, Note_on_c, 9, 69, 31
1, 6240, Note_on_c, 9, 54, 114
1, 6254, Note_on_c, 9, 54, 0
1, 6255, Note_on_c, 9, 69, 0
1, 6270, Note_on_c, 9, 70, 31
1, 6270, Note_on_c, 9, 54, 81
1, 6285, Note_on_c, 9, 54, 0
1, 6295, Note_on_c, 9, 70, 0
1, 6300, Note_on_c, 9, 69, 50
1, 6300, Note_on_c, 9, 54, 81
1, 6307, Note_on_c, 9, 54, 0
1, 6317, Note_on_c, 9, 69, 0
1, 6330, Note_on_c, 9, 70, 31
1, 6330, Note_on_c, 9, 54, 81
1, 6337, Note_on_c, 9, 54, 0
1, 6351, Note_on_c, 9, 70, 0
1, 6360, Note_on_c, 9, 69, 31
1, 6360, Note_on_c, 9, 54, 114
1, 6374, Note_on_c, 9, 54, 0
1, 6383, Note_on_c, 9, 69, 0
1, 6390, Note_on_c, 9, 70, 31
1, 6390, Note_on_c, 9, 54, 81
1, 6408, Note_on_c, 9, 54, 0
1, 6413, Note_on_c, 9, 70, 0
1, 6420, Note_on_c, 9, 69, 50
1, 6420, Note_on_c, 9, 54, 81
1, 6427, Note_on_c, 9, 54, 0
1, 6431, Note_on_c, 9, 69, 0
1, 6450, Note_on_c, 9, 70, 31
1, 6450, Note_on_c, 9, 54, 81
1, 6463, Note_on_c, 9, 54, 0
1, 6469, Note_on_c, 9, 70, 0
1, 6480, Note_on_c, 7, 46, 40
1, 6480, Note_on_c, 9, 69, 31
1, 6480, Note_on_c, 9, 54, 114
1, 6480, Note_on_c, 9, 40, 40
1, 6491, Note_on_c, 9, 54, 0
1, 6497, Note_on_c, 7, 46, 0
1, 6503, Note_on_c, 9, 69, 0
1, 6510, Note_on_c, 7, 46, 51
1, 6510, Note_on_c, 9, 40, 0
1, 6510, Note_on_c, 9, 70, 31
1, 6510, Note_on_c, 9, 54, 81
1, 6510, Note_on_c, 9, 40, 51
1, 6515, Note_on_c, 7, 46, 0
1, 6525, Note_on_c, 9, 54, 0
1, 6535, Note_on_c, 9, 70, 0
1, 6540, Note_on_c, 7, 46, 62
1, 6540, Note_on_c, 9, 40, 0
1, 6540, Note_on_c, 9, 69, 50
1, 6540, Note_on_c, 9, 54, 81
1, 6540, Note_on_c, 9, 40, 62
1, 6546, Note_on_c, 9, 54, 0
1, 6554, Note_on_c, 9, 69, 0
1, 6555, Note_on_c, 7, 46, 0
1, 6570, Note_on_c, 7, 46, 74
1, 6570, Note_on_c, 9, 40, 0
1, 6570, Note_on_c, 9, 70, 31
1, 6570, Note_on_c, 9, 54, 81
1, 6570, Note_on_c, 9, 40, 74
1, 6582, Note_on_c, 7, 46, 0
1, 6587, Note_on_c, 9, 54, 0
1, 6592, Note_on_c, 9, 70, 0
1, 6600, Note_on_c, 7, 46, 85
1, 6600, Note_on_c, 9, 40, 0
1, 6600, Note_on_c, 9, 69, 31
1, 6600, Note_on_c, 9, 54, 114
1, 6600, Note_on_c, 9, 40, 85
1, 6615, Note_on_c, 9, 54, 0
1, 6617, Note_on_c, 7, 46, 0
1, 6624, Note_on_c, 9, 69, 0
1, 6630, Note_on_c, 7, 46, 97
1, 6630, Note_on_c, 9, 40, 0
1, 6630, Note_on_c, 9, 70, 31
1, 6630, Note_on_c, 9, 54, 81
1, 6630, Note_on_c, 9, 40, 97
1, 6643, Note_on_c, 7, 46, 0
1, 6649, Note_on_c, 9, 54, 0
1, 6652, Note_on_c, 9, 70, 0
1, 6660, Note_on_c, 7, 46, 108
1, 6660, Note_on_c, 9, 40, 0
1, 6660, Note_on_c, 9, 69, 50
1, 6660, Note_on_c, 9, 54, 81
1, 6660, Note_on_c, 9, 40, 108
1, 6669, Note_on_c, 9, 54, 0
1, 6676, Note_on_c, 7, 46, 0
1, 6680, Note_on_c, 9, 69, 0
1, 6690, Note_on_c, 7, 46, 120
1, 6690, Note_on_c, 9, 40, 0
1, 6690, Note_on_c, 9, 70, 31
1, 6690, Note_on_c, 9, 54, 81
1, 6690, Note_on_c, 9, 40, 120
1, 6702, Note_on_c, 7, 46, 0
1, 6703, Note_on_c, 9, 54, 0
1, 6708, Note_on_c, 9, 70, 0
1, 6720, Note_on_c, 1, 53, 127
1, 6720, Note_on_c, 1, 41, 127
1, 6720, Note_on_c, 1, 65, 127
1, 6720, Note_on_c, 1, 48, 127
1, 6720, Note_on_c, 1, 77, 127
1, 6720, Note_on_c, 1, 72, 127
1, 6720, Note_on_c, 1, 84, 127
1, 6720, Note_on_c, 7, 49, 127
1, 6720, Note_on_c, 9, 40, 0
1, 6720, Note_on_c, 9, 40, 127
1, 6720, Note_on_c, 9, 55, 127
1, 6720, Note_on_c, 9, 36, 127
1, 6720, Note_on_c, 9, 69, 31
1, 6720, Note_on_c, 9, 54, 114
1, 6734, Note_on_c, 9, 54, 0
1, 6735, Note_on_c, 9, 69, 0
1, 6737, Note_on_c, 9, 36, 0
1, 6750, Note_on_c, 7, 49, 0
1, 6750, Note_on_c, 9, 55, 0
1, 6750, Note_on_c, 9, 40, 0
1, 6750, Note_on_c, 9, 70, 31
1, 6750, Note_on_c, 9, 54, 81
1, 6765, Note_on_c, 9, 54, 0
1, 6775, Note_on_c, 9, 70, 0
1, 6780, Note_on_c, 9, 69, 50
1, 6780, Note_on_c, 9, 54, 81
1, 6787, Note_on_c, 9, 54, 0
1, 6797, Note_on_c, 9, 69, 0
1, 6810, Note_on_c, 9, 70, 31
1, 6810, Note_on_c, 9, 54, 81
1, 6817, Note_on_c, 9, 54, 0
1, 6831, Note_on_c, 9, 70, 0
1, 6840, Note_on_c, 1, 84, 0
1, 6840, Note_on_c, 1, 77, 0
1, 6840, Note_on_c, 1, 41, 0
1, 6840, Note_on_c, 1, 65, 0
1, 6840, Note_on_c, 1, 53, 0
1, 6840, Note_on_c, 1, 72, 0
1, 6840, Note_on_c, 1, 48, 0
1, 6840, Note_on_c, 7, 41, 127
1, 6840, Note_on_c, 9, 57, 127
1, 6840, Note_on_c, 9, 36, 127
1, 6840, Note_on_c, 9, 69, 31
1, 6840, Note_on_c, 9, 54, 114
1, 6854, Note_on_c, 9, 54, 0
1, 6857, Note_on_c, 7, 41, 0
1, 6857, Note_on_c, 9, 57, 0
1, 6863, Note_on_c, 9, 69, 0
1, 6870, Note_on_c, 9, 36, 0
1, 6870, Note_on_c, 9, 70, 31
1, 6870, Note_on_c, 9, 54, 81
1, 6888, Note_on_c, 9, 54, 0
1, 6893, Note_on_c, 9, 70, 0
1, 6900, Note_on_c, 9, 69, 50
1, 6900, Note_on_c, 9, 54, 81
1, 6907, Note_on_c, 9, 54, 0
1, 6911, Note_on_c, 9, 69, 0
1, 6930, Note_on_c, 9, 70, 31
1, 6930, Note_on_c, 9, 54, 81
1, 6943, Note_on_c, 9, 54, 0
1, 6949, Note_on_c, 9, 70, 0
1, 6960, Note_on_c, 9, 69, 31
1, 6960, Note_on_c, 9, 54, 114
1, 6971, Note_on_c, 9, 54, 0
1, 6983, Note_on_c, 9, 69, 0
1, 6990, Note_on_c, 9, 70, 31
1, 6990, Note_on_c, 9, 54, 81
1, 7005, Note_on_c, 9, 54, 0
1, 7015, Note_on_c, 9, 70, 0
1, 7020, Note_on_c, 9, 69, 50
1, 7020, Note_on_c, 9, 54, 81
1, 7026, Note_on_c, 9, 54, 0
1, 7034, Note_on_c, 9, 69, 0
1, 7050, Note_on_c, 9, 70, 31
1, 7050, Note_on_c, 9, 54, 81
1, 7067, Note_on_c, 9, 54, 0
1, 7072, Note_on_c, 9, 70, 0
1, 7080, Note_on_c, 9, 69, 31
1, 7080, Note_on_c, 9, 54, 114
1, 7095, Note_on_c, 9, 54, 0
1, 7104, Note_on_c, 9, 69, 0
1, 7110, Note_on_c, 9, 70, 31
1, 7110, Note_on_c, 9, 54, 81
1, 7129, Note_on_c, 9, 54, 0
1, 7132, Note_on_c, 9, 70, 0
1, 7140, Note_on_c, 9, 69, 50
1, 7140, Note_on_c, 9, 54, 81
1, 7149, Note_on_c, 9, 54, 0
1, 7160, Note_on_c, 9, 69, 0
1, 7170, Note_on_c, 9, 70, 31
1, 7170, Note_on_c, 9, 54, 81
1, 7183, Note_on_c, 9, 54, 0
1, 7188, Note_on_c, 9, 70, 0
1, 7200, Note_on_c, 9, 54, 114
1, 7200, Note_on_c, 9, 69, 31
1, 7214, Note_on_c, 9, 54, 0
1, 7215, Note_on_c, 9, 69, 0
1, 7230, Note_on_c, 9, 54, 81
1, 7230, Note_on_c, 9, 70, 31
1, 7245, Note_on_c, 9, 54, 0
1, 7255, Note_on_c, 9, 70, 0
1, 7260, Note_on_c, 9, 54, 81
1, 7260, Note_on_c, 9, 69, 50
1, 7267, Note_on_c, 9, 54, 0
1, 7277, Note_on_c, 9, 69, 0
1, 7290, Note_on_c, 9, 54, 81
1, 7290, Note_on_c, 9, 70, 31
1, 7297, Note_on_c, 9, 54, 0
1, 7311, Note_on_c, 9, 70, 0
1, 7320, Note_on_c, 9, 54, 114
1, 7320, Note_on_c, 9, 69, 31
1, 7334, Note_on_c, 9, 54, 0
1, 7343, Note_on_c, 9, 69, 0
1, 7350, Note_on_c, 9, 54, 81
1, 7350, Note_on_c, 9, 70, 31
1, 7368, Note_on_c, 9, 54, 0
1, 7373, Note_on_c, 9, 70, 0
1, 7380, Note_on_c, 9, 54, 81
1, 7380, Note_on_c, 9, 69, 50
1, 7387, Note_on_c, 9, 54, 0
1, 7391, Note_on_c, 9, 69, 0
1, 7410, Note_on_c, 9, 54, 81
1, 7410, Note_on_c, 9, 70, 31
1, 7423, Note_on_c, 9, 54, 0
1, 7429, Note_on_c, 9, 70, 0
1, 7440, Note_on_c, 9, 54, 114
1, 7440, Note_on_c, 9, 69, 31
1, 7451, Note_on_c, 9, 54, 0
1, 7463, Note_on_c, 9, 69, 0
1, 7470, Note_on_c, 9, 54, 81
1, 7470, Note_on_c, 9, 70, 31
1, 7485, Note_on_c, 9, 54, 0
1, 7495, Note_on_c, 9, 70, 0
1, 7500, Note_on_c, 9, 54, 81
1, 7500, Note_on_c, 9, 69, 50
1, 7506, Note_on_c, 9, 54, 0
1, 7514, Note_on_c, 9, 69, 0
1, 7530, Note_on_c, 9, 54, 81
1, 7530, Note_on_c, 9, 70, 31
1, 7547, Note_on_c, 9, 54, 0
1, 7552, Note_on_c, 9, 70, 0
1, 7560, Note_on_c, 9, 54, 114
1, 7560, Note_on_c, 9, 69, 31
1, 7575, Note_on_c, 9, 54, 0
1, 7584, Note_on_c, 9, 69, 0
1, 7590, Note_on_c, 9, 54, 81
1, 7590, Note_on_c, 9, 70, 31
1, 7609, Note_on_c, 9, 54, 0
1, 7612, Note_on_c, 9, 70, 0
1, 7620, Note_on_c, 9, 54, 81
1, 7620, Note_on_c, 9, 69, 50
1, 7629, Note_on_c, 9, 54, 0
1, 7640, Note_on_c, 9, 69, 0
1, 7650, Note_on_c, 9, 54, 81
1, 7650, Note_on_c, 9, 70, 31
1, 7663, Note_on_c, 9, 54, 0
1, 7668, Note_on_c, 9, 70, 0
1, 7680, Control_c, 3, 7, 85
1, 7680, Control_c, 4, 7, 35
1, 7680, Note_on_c, 5, 80, 127
1, 7680, Note_on_c, 5, 68, 127
1, 7680, Note_on_c, 6, 41, 127
1, 7680, Control_c, 6, 7, 0
1, 7680, Note_on_c, 6, 29, 127
1, 7680, Note_on_c, 9, 54, 114
1, 7680, Note_on_c, 9, 69, 31
1, 7688, Control_c, 6, 7, 1
1, 7694, Note_on_c, 9, 54, 0
1, 7695, Note_on_c, 9, 69, 0
1, 7697, Control_c, 6, 7, 2
1, 7702, Control_c, 3, 7, 84
1, 7702, Control_c, 6, 7, 3
1, 7707, Control_c, 4, 7, 34
1, 7710, Note_on_c, 9, 54, 78
1, 7710, Note_on_c, 9, 70, 31
1, 7711, Control_c, 6, 7, 4
1, 7720, Control_c, 6, 7, 5
1, 7725, Control_c, 3, 7, 83
1, 7725, Control_c, 6, 7, 6
1, 7725, Note_on_c, 9, 54, 0
1, 7734, Control_c, 4, 7, 33
1, 7734, Control_c, 6, 7, 7
1, 7735, Note_on_c, 9, 70, 0
1, 7740, Note_on_c, 9, 54, 76
1, 7740, Note_on_c, 9, 69, 50
1, 7742, Control_c, 6, 7, 8
1, 7747, Note_on_c, 9, 54, 0
1, 7748, Control_c, 3, 7, 82
1, 7748, Control_c, 6, 7, 9
1, 7757, Control_c, 6, 7, 10
1, 7757, Note_on_c, 9, 69, 0
1, 7762, Control_c, 4, 7, 32
1, 7765, Control_c, 6, 7, 11
1, 7770, Note_on_c, 9, 54, 73
1, 7770, Note_on_c, 9, 70, 31
1, 7771, Control_c, 3, 7, 81
1, 7771, Control_c, 6, 7, 12
1, 7777, Note_on_c, 9, 54, 0
1, 7780, Control_c, 6, 7, 13
1, 7785, Control_c, 6, 7, 14
1, 7789, Control_c, 4, 7, 31
1, 7791, Note_on_c, 9, 70, 0
1, 7794, Control_c, 3, 7, 80
1, 7794, Control_c, 6, 7, 15
1, 7800, Note_on_c, 9, 54, 100
1, 7800, Note_on_c, 9, 69, 31
1, 7802, Control_c, 6, 7, 16
1, 7808, Control_c, 6, 7, 17
1, 7814, Note_on_c, 9, 54, 0
1, 7817, Control_c, 3, 7, 79
1, 7817, Control_c, 4, 7, 30
1, 7817, Control_c, 6, 7, 18
1, 7823, Note_on_c, 9, 69, 0
1, 7825, Control_c, 6, 7, 19
1, 7830, Note_on_c, 9, 54, 68
1, 7830, Note_on_c, 9, 70, 31
1, 7831, Control_c, 6, 7, 20
1, 7840, Control_c, 3, 7, 78
1, 7840, Control_c, 6, 7, 21
1, 7844, Control_c, 4, 7, 29
1, 7848, Control_c, 6, 7, 22
1, 7848, Note_on_c, 9, 54, 0
1, 7853, Note_on_c, 9, 70, 0
1, 7854, Control_c, 6, 7, 23
1, 7860, Note_on_c, 9, 54, 65
1, 7860, Note_on_c, 9, 69, 50
1, 7862, Control_c, 3, 7, 77
1, 7862, Control_c, 6, 7, 24
1, 7867, Note_on_c, 9, 54, 0
1, 7868, Control_c, 6, 7, 25
1, 7871, Note_on_c, 9, 69, 0
1, 7872, Control_c, 4, 7, 28
1, 7877, Control_c, 6, 7, 26
1, 7885, Control_c, 3, 7, 76
1, 7885, Control_c, 6, 7, 27
1, 7890, Note_on_c, 9, 54, 63
1, 7890, Note_on_c, 9, 70, 31
1, 7891, Control_c, 6, 7, 28
1, 7899, Control_c, 4, 7, 27
1, 7900, Control_c, 6, 7, 29
1, 7903, Note_on_c, 9, 54, 0
1, 7905, Control_c, 3, 7, 75
1, 7908, Control_c, 6, 7, 30
1, 7909, Note_on_c, 9, 70, 0
1, 7914, Control_c, 6, 7, 31
1, 7920, Note_on_c, 9, 54, 85
1, 7920, Note_on_c, 9, 69, 31
1, 7922, Control_c, 6, 7, 32
1, 7926, Control_c, 4, 7, 26
1, 7928, Control_c, 3, 7, 74
1, 7931, Control_c, 6, 7, 33
1, 7931, Note_on_c, 9, 54, 0
1, 7937, Control_c, 6, 7, 34
1, 7943, Note_on_c, 9, 69, 0
1, 7945, Control_c, 6, 7, 35
1, 7950, Note_on_c, 9, 54, 58
1, 7950, Note_on_c, 9, 70, 31
1, 7951, Control_c, 3, 7, 73
1, 7951, Control_c, 6, 7, 36
1, 7954, Control_c, 4, 7, 25
1, 7960, Control_c, 6, 7, 37
1, 7965, Note_on_c, 9, 54, 0
1, 7968, Control_c, 6, 7, 38
1, 7974, Control_c, 3, 7, 72
1, 7974, Control_c, 6, 7, 39
1, 7975, Note_on_c, 9, 70, 0
1, 7980, Note_on_c, 9, 54, 55
1, 7980, Note_on_c, 9, 69, 50
1, 7981, Control_c, 4, 7, 24
1, 7982, Control_c, 6, 7, 40
1, 7986, Note_on_c, 9, 54, 0
1, 7991, Control_c, 6, 7, 41
1, 7994, Note_on_c, 9, 69, 0
1, 7997, Control_c, 3, 7, 71
1, 7997, Control_c, 6, 7, 42
1, 8005, Control_c, 6, 7, 43
1, 8009, Control_c, 4, 7, 23
1, 8010, Note_on_c, 9, 54, 53
1, 8010, Note_on_c, 9, 70, 31
1, 8014, Control_c, 6, 7, 44
1, 8020, Control_c, 3, 7, 70
1, 8020, Control_c, 6, 7, 45
1, 8027, Note_on_c, 9, 54, 0
1, 8028, Control_c, 6, 7, 46
1, 8032, Note_on_c, 9, 70, 0
1, 8034, Control_c, 6, 7, 47
1, 8036, Control_c, 4, 7, 22
1, 8040, Note_on_c, 9, 54, 70
1, 8040, Note_on_c, 9, 69, 31
1, 8042, Control_c, 3, 7, 69
1, 8042, Control_c, 6, 7, 48
1, 8051, Control_c, 6, 7, 49
1, 8055, Note_on_c, 9, 54, 0
1, 8057, Control_c, 6, 7, 50
1, 8064, Control_c, 4, 7, 21
1, 8064, Note_on_c, 9, 69, 0
1, 8065, Control_c, 3, 7, 68
1, 8065, Control_c, 6, 7, 51
1, 8070, Note_on_c, 9, 54, 47
1, 8070, Note_on_c, 9, 70, 31
1, 8074, Control_c, 6, 7, 52
1, 8080, Control_c, 6, 7, 53
1, 8088, Control_c, 3, 7, 67
1, 8088, Control_c, 6, 7, 54
1, 8089, Note_on_c, 9, 54, 0
1, 8091, Control_c, 4, 7, 20
1, 8092, Note_on_c, 9, 70, 0
1, 8097, Control_c, 6, 7, 55
1, 8100, Note_on_c, 9, 54, 45
1, 8100, Note_on_c, 9, 69, 50
1, 8102, Control_c, 6, 7, 56
1, 8108, Control_c, 3, 7, 66
1, 8109, Note_on_c, 9, 54, 0
1, 8111, Control_c, 6, 7, 57
1, 8117, Control_c, 6, 7, 58
1, 8118, Control_c, 4, 7, 19
1, 8120, Note_on_c, 9, 69, 0
1, 8125, Control_c, 6, 7, 59
1, 8130, Note_on_c, 9, 54, 42
1, 8130, Note_on_c, 9, 70, 31
1, 8131, Control_c, 3, 7, 65
1, 8134, Control_c, 6, 7, 60
1, 8140, Control_c, 6, 7, 61
1, 8143, Note_on_c, 9, 54, 0
1, 8146, Control_c, 4, 7, 18
1, 8148, Control_c, 6, 7, 62
1, 8148, Note_on_c, 9, 70, 0
1, 8154, Control_c, 3, 7, 64
1, 8157, Control_c, 6, 7, 63
1, 8160, Note_on_c, 9, 54, 57
1, 8160, Note_on_c, 9, 69, 31
1, 8162, Control_c, 6, 7, 64
1, 8171, Control_c, 6, 7, 65
1, 8173, Control_c, 4, 7, 17
1, 8174, Note_on_c, 9, 54, 0
1, 8175, Note_on_c, 9, 69, 0
1, 8177, Control_c, 3, 7, 63
1, 8180, Control_c, 6, 7, 66
1, 8185, Control_c, 6, 7, 67
1, 8190, Note_on_c, 9, 54, 37
1, 8190, Note_on_c, 9, 70, 31
1, 8194, Control_c, 6, 7, 68
1, 8200, Control_c, 3, 7, 62
1, 8201, Control_c, 4, 7, 16
1, 8202, Control_c, 6, 7, 69
1, 8205, Note_on_c, 9, 54, 0
1, 8208, Control_c, 6, 7, 70
1, 8215, Note_on_c, 9, 70, 0
1, 8217, Control_c, 6, 7, 71
1, 8220, Note_on_c, 9, 54, 34
1, 8220, Note_on_c, 9, 69, 50
1, 8222, Control_c, 3, 7, 61
1, 8222, Control_c, 6, 7, 72
1, 8227, Note_on_c, 9, 54, 0
1, 8228, Control_c, 4, 7, 15
1, 8231, Control_c, 6, 7, 73
1, 8237, Note_on_c, 9, 69, 0
1, 8240, Control_c, 6, 7, 74
1, 8245, Control_c, 3, 7, 60
1, 8245, Control_c, 6, 7, 75
1, 8250, Note_on_c, 9, 54, 32
1, 8250, Note_on_c, 9, 70, 31
1, 8254, Control_c, 6, 7, 76
1, 8256, Control_c, 4, 7, 14
1, 8257, Note_on_c, 9, 54, 0
1, 8262, Control_c, 6, 7, 77
1, 8268, Control_c, 3, 7, 59
1, 8268, Control_c, 6, 7, 78
1, 8271, Note_on_c, 9, 70, 0
1, 8277, Control_c, 6, 7, 79
1, 8280, Note_on_c, 9, 54, 42
1, 8280, Note_on_c, 9, 69, 31
1, 8283, Control_c, 4, 7, 13
1, 8285, Control_c, 6, 7, 80
1, 8291, Control_c, 3, 7, 58
1, 8291, Control_c, 6, 7, 81
1, 8294, Note_on_c, 9, 54, 0
1, 8300, Control_c, 6, 7, 82
1, 8303, Note_on_c, 9, 69, 0
1, 8305, Control_c, 6, 7, 83
1, 8310, Control_c, 4, 7, 12
1, 8310, Note_on_c, 9, 54, 27
1, 8310, Note_on_c, 9, 70, 31
1, 8314, Control_c, 3, 7, 57
1, 8314, Control_c, 6, 7, 84
1, 8322, Control_c, 6, 7, 85
1, 8328, Control_c, 6, 7, 86
1, 8328, Note_on_c, 9, 54, 0
1, 8333, Note_on_c, 9, 70, 0
1, 8334, Control_c, 3, 7, 56
1, 8337, Control_c, 6, 7, 87
1, 8338, Control_c, 4, 7, 11
1, 8340, Note_on_c, 9, 54, 25
1, 8340, Note_on_c, 9, 69, 50
1, 8345, Control_c, 6, 7, 88
1, 8347, Note_on_c, 9, 54, 0
1, 8351, Control_c, 6, 7, 89
1, 8351, Note_on_c, 9, 69, 0
1, 8357, Control_c, 3, 7, 55
1, 8360, Control_c, 6, 7, 90
1, 8365, Control_c, 4, 7, 10
1, 8368, Control_c, 6, 7, 91
1, 8370, Note_on_c, 9, 54, 21
1, 8370, Note_on_c, 9, 70, 31
1, 8374, Control_c, 6, 7, 92
1, 8380, Control_c, 3, 7, 54
1, 8382, Control_c, 6, 7, 93
1, 8383, Note_on_c, 9, 54, 0
1, 8388, Control_c, 6, 7, 94
1, 8389, Note_on_c, 9, 70, 0
1, 8393, Control_c, 4, 7, 9
1, 8397, Control_c, 6, 7, 95
1, 8400, Note_on_c, 9, 54, 27
1, 8400, Note_on_c, 9, 69, 31
1, 8402, Control_c, 3, 7, 53
1, 8405, Control_c, 6, 7, 96
1, 8411, Control_c, 6, 7, 97
1, 8411, Note_on_c, 9, 54, 0
1, 8420, Control_c, 4, 7, 8
1, 8420, Control_c, 6, 7, 98
1, 8423, Note_on_c, 9, 69, 0
1, 8425, Control_c, 3, 7, 52
1, 8428, Control_c, 6, 7, 99
1, 8430, Note_on_c, 9, 54, 17
1, 8430, Note_on_c, 9, 70, 31
1, 8434, Control_c, 6, 7, 100
1, 8442, Control_c, 6, 7, 101
1, 8445, Note_on_c, 9, 54, 0
1, 8448, Control_c, 3, 7, 51
1, 8448, Control_c, 4, 7, 7
1, 8451, Control_c, 6, 7, 102
1, 8455, Note_on_c, 9, 70, 0
1, 8457, Control_c, 6, 7, 103
1, 8460, Note_on_c, 9, 54, 14
1, 8460, Note_on_c, 9, 69, 50
1, 8465, Control_c, 6, 7, 104
1, 8466, Note_on_c, 9, 54, 0
1, 8471, Control_c, 3, 7, 50
1, 8471, Control_c, 6, 7, 105
1, 8474, Note_on_c, 9, 69, 0
1, 8475, Control_c, 4, 7, 6
1, 8480, Control_c, 6, 7, 106
1, 8488, Control_c, 6, 7, 107
1, 8490, Note_on_c, 9, 54, 12
1, 8490, Note_on_c, 9, 70, 31
1, 8494, Control_c, 3, 7, 49
1, 8494, Control_c, 6, 7, 108
1, 8502, Control_c, 4, 7, 5
1, 8502, Control_c, 6, 7, 109
1, 8507, Note_on_c, 9, 54, 0
1, 8511, Control_c, 6, 7, 110
1, 8512, Note_on_c, 9, 70, 0
1, 8517, Control_c, 3, 7, 48
1, 8517, Control_c, 6, 7, 111
1, 8520, Note_on_c, 9, 54, 12
1, 8520, Note_on_c, 9, 69, 31
1, 8525, Control_c, 6, 7, 112
1, 8530, Control_c, 4, 7, 4
1, 8534, Control_c, 6, 7, 113
1, 8535, Note_on_c, 9, 54, 0
1, 8537, Control_c, 3, 7, 47
1, 8540, Control_c, 6, 7, 114
1, 8544, Note_on_c, 9, 69, 0
1, 8548, Control_c, 6, 7, 115
1, 8550, Note_on_c, 9, 54, 6
1, 8550, Note_on_c, 9, 70, 31
1, 8554, Control_c, 6, 7, 116
1, 8557, Control_c, 4, 7, 3
1, 8560, Control_c, 3, 7, 46
1, 8562, Control_c, 6, 7, 117
1, 8569, Note_on_c, 9, 54, 0
1, 8571, Control_c, 6, 7, 118
1, 8572, Note_on_c, 9, 70, 0
1, 8577, Control_c, 6, 7, 119
1, 8580, Note_on_c, 9, 54, 4
1, 8580, Note_on_c, 9, 69, 50
1, 8582, Control_c, 3, 7, 45
1, 8585, Control_c, 4, 7, 2
1, 8585, Control_c, 6, 7, 120
1, 8589, Note_on_c, 9, 54, 0
1, 8594, Control_c, 6, 7, 121
1, 8600, Control_c, 6, 7, 122
1, 8600, Note_on_c, 9, 69, 0
1, 8605, Control_c, 3, 7, 44
1, 8608, Control_c, 6, 7, 123
1, 8610, Note_on_c, 9, 54, 1
1, 8610, Note_on_c, 9, 70, 31
1, 8612, Control_c, 4, 7, 1
1, 8617, Control_c, 6, 7, 124
1, 8622, Control_c, 6, 7, 125
1, 8623, Note_on_c, 9, 54, 0
1, 8628, Control_c, 3, 7, 43
1, 8628, Note_on_c, 9, 70, 0
1, 8631, Control_c, 6, 7, 126
1, 8637, Control_c, 6, 7, 127
1, 8638, Control_c, 4, 7, 0
1, 8640, Note_on_c, 4, 89, 0
1, 8640, Note_on_c, 5, 68, 0
1, 8640, Note_on_c, 5, 80, 0
1, 8640, Note_on_c, 5, 79, 127
1, 8640, Note_on_c, 5, 67, 127
1, 8640, Note_on_c, 9, 69, 31
1, 8651, Control_c, 3, 7, 42
1, 8655, Note_on_c, 9, 69, 0
1, 8670, Note_on_c, 9, 70, 31
1, 8674, Control_c, 3, 7, 41
1, 8695, Note_on_c, 9, 70, 0
1, 8697, Control_c, 3, 7, 40
1, 8700, Note_on_c, 9, 69, 50
1, 8717, Note_on_c, 9, 69, 0
1, 8720, Control_c, 3, 7, 39
1, 8730, Note_on_c, 9, 70, 31
1, 8742, Control_c, 3, 7, 38
1, 8751, Note_on_c, 9, 70, 0
1, 8760, Note_on_c, 9, 69, 31
1, 8762, Control_c, 3, 7, 37
1, 8783, Note_on_c, 9, 69, 0
1, 8785, Control_c, 3, 7, 36
1, 8790, Note_on_c, 9, 70, 31
1, 8808, Control_c, 3, 7, 35
1, 8813, Note_on_c, 9, 70, 0
1, 8820, Note_on_c, 9, 69, 50
1, 8831, Control_c, 3, 7, 34
1, 8831, Note_on_c, 9, 69, 0
1, 8850, Note_on_c, 9, 70, 31
1, 8854, Control_c, 3, 7, 33
1, 8869, Note_on_c, 9, 70, 0
1, 8877, Control_c, 3, 7, 32
1, 8880, Note_on_c, 9, 69, 31
1, 8900, Control_c, 3, 7, 31
1, 8903, Note_on_c, 9, 69, 0
1, 8910, Note_on_c, 9, 70, 31
1, 8922, Control_c, 3, 7, 30
1, 8935, Note_on_c, 9, 70, 0
1, 8940, Note_on_c, 9, 69, 50
1, 8945, Control_c, 3, 7, 29
1, 8954, Note_on_c, 9, 69, 0
1, 8965, Control_c, 3, 7, 28
1, 8970, Note_on_c, 9, 70, 31
1, 8988, Control_c, 3, 7, 27
1, 8992, Note_on_c, 9, 70, 0
1, 9000, Note_on_c, 9, 69, 31
1, 9011, Control_c, 3, 7, 26
1, 9024, Note_on_c, 9, 69, 0
1, 9030, Note_on_c, 9, 70, 31
1, 9034, Control_c, 3, 7, 25
1, 9052, Note_on_c, 9, 70, 0
1, 9057, Control_c, 3, 7, 24
1, 9060, Note_on_c, 9, 69, 50
1, 9080, Control_c, 3, 7, 23
1, 9080, Note_on_c, 9, 69, 0
1, 9090, Note_on_c, 9, 70, 31
1, 9102, Control_c, 3, 7, 22
1, 9108, Note_on_c, 9, 70, 0
1, 9120, Note_on_c, 9, 69, 31
1, 9125, Control_c, 3, 7, 21
1, 9135, Note_on_c, 9, 69, 0
1, 9148, Control_c, 3, 7, 20
1, 9150, Note_on_c, 9, 70, 31
1, 9171, Control_c, 3, 7, 19
1, 9175, Note_on_c, 9, 70, 0
1, 9180, Note_on_c, 9, 69, 50
1, 9191, Control_c, 3, 7, 18
1, 9197, Note_on_c, 9, 69, 0
1, 9210, Note_on_c, 9, 70, 31
1, 9214, Control_c, 3, 7, 17
1, 9231, Note_on_c, 9, 70, 0
1, 9237, Control_c, 3, 7, 16
1, 9240, Note_on_c, 9, 69, 31
1, 9260, Control_c, 3, 7, 15
1, 9263, Note_on_c, 9, 69, 0
1, 9270, Note_on_c, 9, 70, 31
1, 9282, Control_c, 3, 7, 14
1, 9293, Note_on_c, 9, 70, 0
1, 9300, Note_on_c, 9, 69, 50
1, 9305, Control_c, 3, 7, 13
1, 9311, Note_on_c, 9, 69, 0
1, 9328, Control_c, 3, 7, 12
1, 9330, Note_on_c, 9, 70, 31
1, 9349, Note_on_c, 9, 70, 0
1, 9351, Control_c, 3, 7, 11
1, 9360, Control_c, 1, 7, 0
1, 9360, Note_on_c, 1, 92, 119
1, 9360, Note_on_c, 1, 84, 120
1, 9360, Note_on_c, 1, 68, 127
1, 9360, Note_on_c, 9, 69, 31
1, 9363, Control_c, 1, 7, 2
1, 9367, Control_c, 1, 7, 4
1, 9371, Control_c, 1, 7, 6
1, 9374, Control_c, 3, 7, 10
1, 9375, Control_c, 1, 7, 8
1, 9379, Control_c, 1, 7, 10
1, 9383, Control_c, 1, 7, 12
1, 9383, Note_on_c, 9, 69, 0
1, 9387, Control_c, 1, 7, 14
1, 9390, Control_c, 1, 7, 16
1, 9390, Note_on_c, 9, 70, 31
1, 9394, Control_c, 1, 7, 18
1, 9394, Control_c, 3, 7, 9
1, 9398, Control_c, 1, 7, 20
1, 9402, Control_c, 1, 7, 22
1, 9406, Control_c, 1, 7, 24
1, 9410, Control_c, 1, 7, 27
1, 9414, Control_c, 1, 7, 29
1, 9415, Note_on_c, 9, 70, 0
1, 9417, Control_c, 3, 7, 8
1, 9418, Control_c, 1, 7, 31
1, 9420, Note_on_c, 9, 69, 50
1, 9421, Control_c, 1, 7, 33
1, 9425, Control_c, 1, 7, 35
1, 9429, Control_c, 1, 7, 37
1, 9433, Control_c, 1, 7, 39
1, 9434, Note_on_c, 9, 69, 0
1, 9437, Control_c, 1, 7, 41
1, 9440, Control_c, 3, 7, 7
1, 9441, Control_c, 1, 7, 43
1, 9445, Control_c, 1, 7, 45
1, 9449, Control_c, 1, 7, 47
1, 9450, Note_on_c, 9, 70, 31
1, 9452, Control_c, 1, 7, 49
1, 9456, Control_c, 1, 7, 52
1, 9460, Control_c, 1, 7, 54
1, 9462, Control_c, 3, 7, 6
1, 9464, Control_c, 1, 7, 56
1, 9468, Control_c, 1, 7, 58
1, 9472, Control_c, 1, 7, 60
1, 9472, Note_on_c, 9, 70, 0
1, 9476, Control_c, 1, 7, 62
1, 9480, Control_c, 1, 7, 64
1, 9480, Note_on_c, 9, 69, 31
1, 9483, Control_c, 1, 7, 66
1, 9485, Control_c, 3, 7, 5
1, 9487, Control_c, 1, 7, 68
1, 9491, Control_c, 1, 7, 70
1, 9495, Control_c, 1, 7, 72
1, 9499, Control_c, 1, 7, 74
1, 9503, Control_c, 1, 7, 77
1, 9504, Note_on_c, 9, 69, 0
1, 9507, Control_c, 1, 7, 79
1, 9508, Control_c, 3, 7, 4
1, 9510, Control_c, 1, 7, 81
1, 9510, Note_on_c, 9, 70, 31
1, 9514, Control_c, 1, 7, 83
1, 9518, Control_c, 1, 7, 85
1, 9522, Control_c, 1, 7, 87
1, 9526, Control_c, 1, 7, 89
1, 9530, Control_c, 1, 7, 91
1, 9531, Control_c, 3, 7, 3
1, 9532, Note_on_c, 9, 70, 0
1, 9534, Control_c, 1, 7, 93
1, 9538, Control_c, 1, 7, 95
1, 9540, Note_on_c, 9, 69, 50
1, 9541, Control_c, 1, 7, 97
1, 9545, Control_c, 1, 7, 99
1, 9549, Control_c, 1, 7, 102
1, 9553, Control_c, 1, 7, 104
1, 9554, Control_c, 3, 7, 2
1, 9557, Control_c, 1, 7, 106
1, 9560, Note_on_c, 9, 69, 0
1, 9561, Control_c, 1, 7, 108
1, 9565, Control_c, 1, 7, 110
1, 9569, Control_c, 1, 7, 112
1, 9570, Note_on_c, 9, 70, 31
1, 9572, Control_c, 1, 7, 114
1, 9576, Control_c, 1, 7, 116
1, 9577, Control_c, 3, 7, 1
1, 9580, Control_c, 1, 7, 118
1, 9584, Control_c, 1, 7, 120
1, 9588, Control_c, 1, 7, 122
1, 9588, Note_on_c, 9, 70, 0
1, 9592, Control_c, 1, 7, 124
1, 9596, Control_c, 1, 7, 127
1, 9597, Control_c, 3, 7, 0
1, 9600, Note_on_c, 1, 68, 0
1, 9600, Note_on_c, 1, 84, 0
1, 9600, Note_on_c, 1, 92, 0
1, 9600, Note_on_c, 1, 89, 100
1, 9600, Note_on_c, 1, 53, 127
1, 9600, Note_on_c, 1, 41, 127
1, 9600, Note_on_c, 1, 65, 127
1, 9600, Note_on_c, 1, 48, 127
1, 9600, Note_on_c, 1, 77, 127
1, 9600, Note_on_c, 1, 72, 127
1, 9600, Note_on_c, 2, 53, 127
1, 9600, Note_on_c, 3, 29, 0
1, 9600, Note_on_c, 3, 41, 0
1, 9600, Note_on_c, 5, 67, 0
1, 9600, Note_on_c, 5, 79, 0
1, 9600, Note_on_c, 5, 65, 127
1, 9600, Note_on_c, 5, 77, 127
1, 9600, Note_on_c, 6, 29, 0
1, 9600, Note_on_c, 6, 41, 0
1, 9600, Note_on_c, 7, 46, 40
1, 9600, Control_c, 7, 7, 127
1, 9600, Note_on_c, 7, 41, 127
1, 9600, Control_c, 9, 7, 127
1, 9600, Note_on_c, 9, 69, 0
1, 9600, Note_on_c, 9, 69, 0
1, 9600, Note_on_c, 9, 36, 127
1, 9600, Note_on_c, 9, 40, 127
1, 9600, Note_on_c, 9, 57, 127
1, 9611, Note_on_c, 7, 41, 0
1, 9613, Note_on_c, 2, 53, 0
1, 9615, Note_on_c, 9, 57, 0
1, 9615, Note_on_c, 9, 36, 0
1, 9615, Note_on_c, 9, 69, 0
1, 9615, Note_on_c, 9, 69, 0
1, 9617, Note_on_c, 7, 46, 0
1, 9620, Note_on_c, 9, 40, 0
1, 9630, Note_on_c, 2, 53, 127
1, 9630, Note_on_c, 7, 46, 51
1, 9630, Note_on_c, 7, 41, 127
1, 9630, Note_on_c, 9, 70, 1
1, 9630, Note_on_c, 9, 40, 127
1, 9635, Note_on_c, 7, 46, 0
1, 9645, Note_on_c, 2, 53, 0
1, 9646, Note_on_c, 7, 41, 0
1, 9651, Note_on_c, 9, 40, 0
1, 9655, Note_on_c, 9, 70, 0
1, 9660, Note_on_c, 2, 53, 127
1, 9660, Note_on_c, 7, 46, 62
1, 9660, Note_on_c, 7, 41, 127
1, 9660, Note_on_c, 9, 69, 6
1, 9660, Note_on_c, 9, 40, 127
1, 9675, Note_on_c, 7, 46, 0
1, 9677, Note_on_c, 2, 53, 0
1, 9677, Note_on_c, 7, 41, 0
1, 9677, Note_on_c, 9, 69, 0
1, 9680, Note_on_c, 9, 40, 0
1, 9690, Note_on_c, 7, 46, 74
1, 9690, Note_on_c, 9, 70, 5
1, 9702, Note_on_c, 7, 46, 0
1, 9711, Note_on_c, 9, 70, 0
1, 9720, Note_on_c, 1, 72, 0
1, 9720, Note_on_c, 1, 48, 0
1, 9720, Note_on_c, 1, 53, 0
1, 9720, Note_on_c, 1, 41, 0
1, 9720, Note_on_c, 1, 89, 0
1, 9720, Note_on_c, 1, 77, 0
1, 9720, Note_on_c, 1, 65, 0
1, 9720, Note_on_c, 2, 53, 127
1, 9720, Note_on_c, 5, 77, 0
1, 9720, Note_on_c, 5, 65, 0
1, 9720, Note_on_c, 7, 46, 85
1, 9720, Note_on_c, 7, 41, 127
1, 9720, Note_on_c, 9, 69, 7
1, 9720, Note_on_c, 9, 40, 127
1, 9733, Note_on_c, 2, 53, 0
1, 9735, Note_on_c, 7, 41, 0
1, 9737, Note_on_c, 7, 46, 0
1, 9741, Note_on_c, 9, 40, 0
1, 9743, Note_on_c, 9, 69, 0
1, 9750, Note_on_c, 2, 53, 127
1, 9750, Note_on_c, 7, 46, 97
1, 9750, Note_on_c, 7, 41, 127
1, 9750, Note_on_c, 9, 70, 9
1, 9750, Note_on_c, 9, 40, 127
1, 9763, Note_on_c, 7, 46, 0
1, 9765, Note_on_c, 2, 53, 0
1, 9768, Note_on_c, 7, 41, 0
1, 9770, Note_on_c, 9, 40, 0
1, 9773, Note_on_c, 9, 70, 0
1, 9780, Note_on_c, 2, 53, 127
1, 9780, Note_on_c, 7, 46, 108
1, 9780, Note_on_c, 7, 41, 127
1, 9780, Note_on_c, 9, 69, 19
1, 9780, Note_on_c, 9, 40, 127
1, 9791, Note_on_c, 9, 69, 0
1, 9793, Note_on_c, 2, 53, 0
1, 9796, Note_on_c, 7, 41, 0
1, 9796, Note_on_c, 7, 46, 0
1, 9800, Note_on_c, 9, 40, 0
1, 9810, Note_on_c, 2, 53, 127
1, 9810, Note_on_c, 7, 46, 120
1, 9810, Note_on_c, 7, 41, 127
1, 9810, Note_on_c, 9, 70, 13
1, 9810, Note_on_c, 9, 40, 127
1, 9822, Note_on_c, 7, 46, 0
1, 9826, Note_on_c, 2, 53, 0
1, 9828, Note_on_c, 7, 41, 0
1, 9829, Note_on_c, 9, 70, 0
1, 9831, Note_on_c, 9, 40, 0
1, 9840, Note_on_c, 9, 69, 15
1, 9863, Note_on_c, 9, 69, 0
1, 9870, Note_on_c, 9, 70, 17
1, 9895, Note_on_c, 9, 70, 0
1, 9900, Note_on_c, 9, 69, 32
1, 9914, Note_on_c, 9, 69, 0
1, 9930, Note_on_c, 9, 70, 21
1, 9952, Note_on_c, 9, 70, 0
1, 9960, Note_on_c, 9, 69, 23
1, 9984, Note_on_c, 9, 69, 0
1, 9990, Note_on_c, 9, 70, 25
1, 10012, Note_on_c, 9, 70, 0
1, 10020, Note_on_c, 9, 69, 44
1, 10040, Note_on_c, 9, 69, 0
1, 10050, Note_on_c, 9, 70, 29
1, 10068, Note_on_c, 9, 70, 0
1, 10080, Note_on_c, 9, 69, 31
1, 10095, Note_on_c, 9, 69, 0
1, 10110, Note_on_c, 9, 70, 31
1, 10135, Note_on_c, 9, 70, 0
1, 10140, Note_on_c, 9, 69, 50
1, 10157, Note_on_c, 9, 69, 0
1, 10170, Note_on_c, 9, 70, 31
1, 10191, Note_on_c, 9, 70, 0
1, 10200, Note_on_c, 9, 69, 31
1, 10223, Note_on_c, 9, 69, 0
1, 10230, Note_on_c, 9, 70, 31
1, 10253, Note_on_c, 9, 70, 0
1, 10260, Note_on_c, 9, 69, 50
1, 10271, Note_on_c, 9, 69, 0
1, 10290, Note_on_c, 9, 70, 31
1, 10309, Note_on_c, 9, 70, 0
1, 10320, Note_on_c, 9, 69, 31
1, 10343, Note_on_c, 9, 69, 0
1, 10350, Note_on_c, 9, 70, 31
1, 10375, Note_on_c, 9, 70, 0
1, 10380, Note_on_c, 9, 69, 50
1, 10394, Note_on_c, 9, 69, 0
1, 10410, Note_on_c, 9, 70, 31
1, 10432, Note_on_c, 9, 70, 0
1, 10440, Note_on_c, 9, 69, 31
1, 10464, Note_on_c, 9, 69, 0
1, 10470, Note_on_c, 9, 70, 31
1, 10492, Note_on_c, 9, 70, 0
1, 10500, Note_on_c, 9, 69, 50
1, 10520, Note_on_c, 9, 69, 0
1, 10530, Note_on_c, 9, 70, 31
1, 10548, Note_on_c, 9, 70, 0
1, 10560, Note_on_c, 9, 69, 31
1, 10575, Note_on_c, 9, 69, 0
1, 10590, Note_on_c, 9, 70, 31
1, 10615, Note_on_c, 9, 70, 0
1, 10620, Note_on_c, 9, 69, 50
1, 10637, Note_on_c, 9, 69, 0
1, 10650, Note_on_c, 9, 70, 31
1, 10671, Note_on_c, 9, 70, 0
1, 10680, Note_on_c, 9, 69, 31
1, 10703, Note_on_c, 9, 69, 0
1, 10710, Note_on_c, 9, 70, 31
1, 10733, Note_on_c, 9, 70, 0
1, 10740, Note_on_c, 9, 69, 50
1, 10751, Note_on_c, 9, 69, 0
1, 10770, Note_on_c, 9, 70, 31
1, 10789, Note_on_c, 9, 70, 0
1, 10800, Note_on_c, 9, 69, 31
1, 10823, Note_on_c, 9, 69, 0
1, 10830, Note_on_c, 9, 70, 31
1, 10855, Note_on_c, 9, 70, 0
1, 10860, Note_on_c, 9, 69, 50
1, 10874, Note_on_c, 9, 69, 0
1, 10890, Note_on_c, 9, 70, 31
1, 10912, Note_on_c, 9, 70, 0
1, 10920, Note_on_c, 9, 69, 31
1, 10944, Note_on_c, 9, 69, 0
1, 10950, Note_on_c, 9, 70, 31
1, 10972, Note_on_c, 9, 70, 0
1, 10980, Note_on_c, 9, 69, 50
1, 11000, Note_on_c, 9, 69, 0
1, 11010, Note_on_c, 9, 70, 31
1, 11028, Note_on_c, 9, 70, 0
1, 11040, Note_on_c, 9, 69, 31
1, 11055, Note_on_c, 9, 69, 0
1, 11070, Note_on_c, 9, 70, 31
1, 11095, Note_on_c, 9, 70, 0
1, 11100, Note_on_c, 9, 69, 50
1, 11117, Note_on_c, 9, 69, 0
1, 11130, Note_on_c, 9, 70, 31
1, 11151, Note_on_c, 9, 70, 0
1, 11160, Note_on_c, 9, 69, 31
1, 11183, Note_on_c, 9, 69, 0
1, 11190, Note_on_c, 9, 70, 31
1, 11213, Note_on_c, 9, 70, 0
1, 11220, Note_on_c, 9, 69, 50
1, 11231, Note_on_c, 9, 69, 0
1, 11250, Note_on_c, 9, 70, 31
1, 11269, Note_on_c, 9, 70, 0
1, 11280, Note_on_c, 9, 69, 31
1, 11303, Note_on_c, 9, 69, 0
1, 11310, Note_on_c, 9, 70, 31
1, 11335, Note_on_c, 9, 70, 0
1, 11340, Note_on_c, 9, 69, 50
1, 11354, Note_on_c, 9, 69, 0
1, 11370, Note_on_c, 9, 70, 31
1, 11392, Note_on_c, 9, 70, 0
1, 11400, Note_on_c, 9, 69, 31
1, 11424, Note_on_c, 9, 69, 0
1, 11430, Note_on_c, 9, 70, 31
1, 11452, Note_on_c, 9, 70, 0
1, 11460, Note_on_c, 9, 69, 50
1, 11480, Note_on_c, 9, 69, 0
1, 11490, Note_on_c, 9, 70, 31
1, 11508, Note_on_c, 9, 70, 0
1, 11520, Note_on_c, 9, 69, 31
1, 11535, Note_on_c, 9, 69, 0
1, 11550, Note_on_c, 9, 70, 31
1, 11575, Note_on_c, 9, 70, 0
1, 11580, Note_on_c, 9, 69, 50
1, 11597, Note_on_c, 9, 69, 0
1, 11610, Note_on_c, 9, 70, 31
1, 11631, Note_on_c, 9, 70, 0
1, 11640, Note_on_c, 9, 69, 31
1, 11663, Note_on_c, 9, 69, 0
1, 11670, Note_on_c, 9, 70, 31
1, 11693, Note_on_c, 9, 70, 0
1, 11700, Note_on_c, 9, 69, 50
1, 11711, Note_on_c, 9, 69, 0
1, 11730, Note_on_c, 9, 70, 31
1, 11749, Note_on_c, 9, 70, 0
1, 11760, Note_on_c, 9, 69, 31
1, 11783, Note_on_c, 9, 69, 0
1, 11790, Note_on_c, 9, 70, 31
1, 11815, Note_on_c, 9, 70, 0
1, 11820, Note_on_c, 9, 69, 50
1, 11834, Note_on_c, 9, 69, 0
1, 11850, Note_on_c, 9, 70, 31
1, 11872, Note_on_c, 9, 70, 0
1, 11880, Note_on_c, 9, 69, 31
1, 11904, Note_on_c, 9, 69, 0
1, 11910, Note_on_c, 9, 70, 31
1, 11932, Note_on_c, 9, 70, 0
1, 11940, Note_on_c, 9, 69, 50
1, 11960, Note_on_c, 9, 69, 0
1, 11970, Note_on_c, 9, 70, 31
1, 11988, Note_on_c, 9, 70, 0
1, 12000, Control_c, 9, 7, 127
1, 12000, Note_on_c, 9, 69, 31
1, 12015, Note_on_c, 9, 69, 0
1, 12015, Control_c, 9, 7, 126
1, 12030, Control_c, 9, 7, 125
1, 12030, Note_on_c, 9, 70, 31
1, 12046, Control_c, 9, 7, 124
1, 12055, Note_on_c, 9, 70, 0
1, 12060, Note_on_c, 9, 69, 50
1, 12061, Control_c, 9, 7, 123
1, 12076, Control_c, 9, 7, 122
1, 12077, Note_on_c, 9, 69, 0
1, 12090, Note_on_c, 9, 70, 31
1, 12092, Control_c, 9, 7, 121
1, 12107, Control_c, 9, 7, 120
1, 12111, Note_on_c, 9, 70, 0
1, 12120, Note_on_c, 9, 69, 31
1, 12123, Control_c, 9, 7, 119
1, 12138, Control_c, 9, 7, 118
1, 12143, Note_on_c, 9, 69, 0
1, 12150, Note_on_c, 9, 70, 31
1, 12153, Control_c, 9, 7, 117
1, 12166, Control_c, 9, 7, 116
1, 12173, Note_on_c, 9, 70, 0
1, 12180, Note_on_c, 9, 69, 50
1, 12181, Control_c, 9, 7, 115
1, 12191, Note_on_c, 9, 69, 0
1, 12196, Control_c, 9, 7, 114
1, 12210, Note_on_c, 9, 70, 31
1, 12212, Control_c, 9, 7, 113
1, 12227, Control_c, 9, 7, 112
1, 12229, Note_on_c, 9, 70, 0
1, 12240, Note_on_c, 9, 69, 31
1, 12243, Control_c, 9, 7, 111
1, 12258, Control_c, 9, 7, 110
1, 12263, Note_on_c, 9, 69, 0
1, 12270, Note_on_c, 9, 70, 31
1, 12273, Control_c, 9, 7, 109
1, 12289, Control_c, 9, 7, 108
1, 12295, Note_on_c, 9, 70, 0
1, 12300, Note_on_c, 9, 69, 50
1, 12304, Control_c, 9, 7, 107
1, 12314, Note_on_c, 9, 69, 0
1, 12320, Control_c, 9, 7, 106
1, 12330, Note_on_c, 9, 70, 31
1, 12332, Control_c, 9, 7, 105
1, 12347, Control_c, 9, 7, 104
1, 12352, Note_on_c, 9, 70, 0
1, 12360, Note_on_c, 9, 69, 31
1, 12363, Control_c, 9, 7, 103
1, 12378, Control_c, 9, 7, 102
1, 12384, Note_on_c, 9, 69, 0
1, 12390, Note_on_c, 9, 70, 31
1, 12393, Control_c, 9, 7, 101
1, 12409, Control_c, 9, 7, 100
1, 12412, Note_on_c, 9, 70, 0
1, 12420, Note_on_c, 9, 69, 50
1, 12424, Control_c, 9, 7, 99
1, 12440, Note_on_c, 9, 69, 0
1, 12440, Control_c, 9, 7, 98
1, 12450, Note_on_c, 9, 70, 31
1, 12455, Control_c, 9, 7, 97
1, 12468, Note_on_c, 9, 70, 0
1, 12470, Control_c, 9, 7, 96
1, 12480, Note_on_c, 9, 69, 31
1, 12483, Control_c, 9, 7, 95
1, 12495, Note_on_c, 9, 69, 0
1, 12498, Control_c, 9, 7, 94
1, 12510, Note_on_c, 9, 70, 31
1, 12513, Control_c, 9, 7, 93
1, 12529, Control_c, 9, 7, 92
1, 12535, Note_on_c, 9, 70, 0
1, 12540, Note_on_c, 9, 69, 50
1, 12544, Control_c, 9, 7, 91
1, 12557, Note_on_c, 9, 69, 0
1, 12560, Control_c, 9, 7, 90
1, 12570, Note_on_c, 9, 70, 31
1, 12575, Control_c, 9, 7, 89
1, 12590, Control_c, 9, 7, 88
1, 12591, Note_on_c, 9, 70, 0
1, 12600, Note_on_c, 9, 69, 31
1, 12606, Control_c, 9, 7, 87
1, 12621, Control_c, 9, 7, 86
1, 12623, Note_on_c, 9, 69, 0
1, 12630, Note_on_c, 9, 70, 31
1, 12636, Control_c, 9, 7, 85
1, 12649, Control_c, 9, 7, 84
1, 12653, Note_on_c, 9, 70, 0
1, 12660, Note_on_c, 9, 69, 50
1, 12664, Control_c, 9, 7, 83
1, 12671, Note_on_c, 9, 69, 0
1, 12680, Control_c, 9, 7, 82
1, 12690, Note_on_c, 9, 70, 31
1, 12695, Control_c, 9, 7, 81
1, 12709, Note_on_c, 9, 70, 0
1, 12710, Control_c, 9, 7, 80
1, 12720, Note_on_c, 9, 69, 31
1, 12726, Control_c, 9, 7, 79
1, 12741, Control_c, 9, 7, 78
1, 12743, Note_on_c, 9, 69, 0
1, 12750, Note_on_c, 9, 70, 31
1, 12756, Control_c, 9, 7, 77
1, 12772, Control_c, 9, 7, 76
1, 12775, Note_on_c, 9, 70, 0
1, 12780, Note_on_c, 9, 69, 50
1, 12787, Control_c, 9, 7, 75
1, 12794, Note_on_c, 9, 69, 0
1, 12800, Control_c, 9, 7, 74
1, 12810, Note_on_c, 9, 70, 31
1, 12815, Control_c, 9, 7, 73
1, 12830, Control_c, 9, 7, 72
1, 12832, Note_on_c, 9, 70, 0
1, 12840, Note_on_c, 9, 69, 31
1, 12846, Control_c, 9, 7, 71
1, 12861, Control_c, 9, 7, 70
1, 12864, Note_on_c, 9, 69, 0
1, 12870, Note_on_c, 9, 70, 31
1, 12876, Control_c, 9, 7, 69
1, 12892, Note_on_c, 9, 70, 0
1, 12892, Control_c, 9, 7, 68
1, 12900, Note_on_c, 9, 69, 50
1, 12907, Control_c, 9, 7, 67
1, 12920, Note_on_c, 9, 69, 0
1, 12923, Control_c, 9, 7, 66
1, 12930, Note_on_c, 9, 70, 31
1, 12938, Control_c, 9, 7, 65
1, 12948, Note_on_c, 9, 70, 0
1, 12953, Control_c, 9, 7, 64
1, 12960, Note_on_c, 9, 69, 31
1, 12966, Control_c, 9, 7, 63
1, 12975, Note_on_c, 9, 69, 0
1, 12981, Control_c, 9, 7, 62
1, 12990, Note_on_c, 9, 70, 31
1, 12996, Control_c, 9, 7, 61
1, 13012, Control_c, 9, 7, 60
1, 13015, Note_on_c, 9, 70, 0
1, 13020, Note_on_c, 9, 69, 50
1, 13027, Control_c, 9, 7, 59
1, 13037, Note_on_c, 9, 69, 0
1, 13043, Control_c, 9, 7, 58
1, 13050, Note_on_c, 9, 70, 31
1, 13058, Control_c, 9, 7, 57
1, 13071, Note_on_c, 9, 70, 0
1, 13073, Control_c, 9, 7, 56
1, 13080, Note_on_c, 9, 69, 31
1, 13089, Control_c, 9, 7, 55
1, 13103, Note_on_c, 9, 69, 0
1, 13104, Control_c, 9, 7, 54
1, 13110, Note_on_c, 9, 70, 31
1, 13120, Control_c, 9, 7, 53
1, 13132, Control_c, 9, 7, 52
1, 13133, Note_on_c, 9, 70, 0
1, 13140, Note_on_c, 9, 69, 50
1, 13147, Control_c, 9, 7, 51
1, 13151, Note_on_c, 9, 69, 0
1, 13163, Control_c, 9, 7, 50
1, 13170, Note_on_c, 9, 70, 31
1, 13178, Control_c, 9, 7, 49
1, 13189, Note_on_c, 9, 70, 0
1, 13193, Control_c, 9, 7, 48
1, 13200, Note_on_c, 9, 69, 31
1, 13209, Control_c, 9, 7, 47
1, 13223, Note_on_c, 9, 69, 0
1, 13224, Control_c, 9, 7, 46
1, 13230, Note_on_c, 9, 70, 31
1, 13240, Control_c, 9, 7, 45
1, 13255, Note_on_c, 9, 70, 0
1, 13255, Control_c, 9, 7, 44
1, 13260, Note_on_c, 9, 69, 50
1, 13270, Control_c, 9, 7, 43
1, 13274, Note_on_c, 9, 69, 0
1, 13283, Control_c, 9, 7, 42
1, 13290, Note_on_c, 9, 70, 31
1, 13298, Control_c, 9, 7, 41
1, 13312, Note_on_c, 9, 70, 0
1, 13313, Control_c, 9, 7, 40
1, 13320, Note_on_c, 9, 69, 31
1, 13329, Control_c, 9, 7, 39
1, 13344, Note_on_c, 9, 69, 0
1, 13344, Control_c, 9, 7, 38
1, 13350, Note_on_c, 9, 70, 31
1, 13360, Control_c, 9, 7, 37
1, 13372, Note_on_c, 9, 70, 0
1, 13375, Control_c, 9, 7, 36
1, 13380, Note_on_c, 9, 69, 50
1, 13390, Control_c, 9, 7, 35
1, 13400, Note_on_c, 9, 69, 0
1, 13406, Control_c, 9, 7, 34
1, 13410, Note_on_c, 9, 70, 31
1, 13421, Control_c, 9, 7, 33
1, 13428, Note_on_c, 9, 70, 0
1, 13436, Control_c, 9, 7, 32
1, 13440, Note_on_c, 9, 69, 31
1, 13449, Control_c, 9, 7, 31
1, 13455, Note_on_c, 9, 69, 0
1, 13464, Control_c, 9, 7, 30
1, 13470, Note_on_c, 9, 70, 31
1, 13480, Control_c, 9, 7, 29
1, 13495, Note_on_c, 9, 70, 0
1, 13495, Control_c, 9, 7, 28
1, 13500, Note_on_c, 9, 69, 50
1, 13510, Control_c, 9, 7, 27
1, 13517, Note_on_c, 9, 69, 0
1, 13526, Control_c, 9, 7, 26
1, 13530, Note_on_c, 9, 70, 31
1, 13541, Control_c, 9, 7, 25
1, 13551, Note_on_c, 9, 70, 0
1, 13556, Control_c, 9, 7, 24
1, 13560, Note_on_c, 9, 69, 31
1, 13572, Control_c, 9, 7, 23
1, 13583, Note_on_c, 9, 69, 0
1, 13587, Control_c, 9, 7, 22
1, 13590, Note_on_c, 9, 70, 31
1, 13600, Control_c, 9, 7, 21
1, 13613, Note_on_c, 9, 70, 0
1, 13615, Control_c, 9, 7, 20
1, 13620, Note_on_c, 9, 69, 50
1, 13630, Control_c, 9, 7, 19
1, 13631, Note_on_c, 9, 69, 0
1, 13646, Control_c, 9, 7, 18
1, 13650, Note_on_c, 9, 70, 31
1, 13661, Control_c, 9, 7, 17
1, 13669, Note_on_c, 9, 70, 0
1, 13676, Control_c, 9, 7, 16
1, 13680, Note_on_c, 9, 69, 31
1, 13692, Control_c, 9, 7, 15
1, 13703, Note_on_c, 9, 69, 0
1, 13707, Control_c, 9, 7, 14
1, 13710, Note_on_c, 9, 70, 31
1, 13723, Control_c, 9, 7, 13
1, 13735, Note_on_c, 9, 70, 0
1, 13738, Control_c, 9, 7, 12
1, 13740, Note_on_c, 9, 69, 50
1, 13753, Control_c, 9, 7, 11
1, 13754, Note_on_c, 9, 69, 0
1, 13766, Control_c, 9, 7, 10
1, 13770, Note_on_c, 9, 70, 31
1, 13781, Control_c, 9, 7, 9
1, 13792, Note_on_c, 9, 70, 0
1, 13796, Control_c, 9, 7, 8
1, 13800, Note_on_c, 9, 69, 31
1, 13812, Control_c, 9, 7, 7
1, 13824, Note_on_c, 9, 69, 0
1, 13827, Control_c, 9, 7, 6
1, 13830, Note_on_c, 9, 70, 31
1, 13843, Control_c, 9, 7, 5
1, 13852, Note_on_c, 9, 70, 0
1, 13858, Control_c, 9, 7, 4
1, 13860, Note_on_c, 9, 69, 50
1, 13873, Control_c, 9, 7, 3
1, 13880, Note_on_c, 9, 69, 0
1, 13889, Control_c, 9, 7, 2
1, 13890, Note_on_c, 9, 70, 31
1, 13904, Control_c, 9, 7, 1
1, 13908, Note_on_c, 9, 70, 0
1, 13916, Control_c, 9, 7, 0
1, 13916, End_track
0, 0, End_of_file