0, 0, Header, 0, 1, 480
1, 0, Start_track
1, 0, Title_t, ""
1, 0, Program_c, 0, 39
1, 0, Note_on_c, 0, 45, 79
1, 161, Program_c, 0, 39
1, 161, Note_on_c, 0, 45, 0
1, 164, Program_c, 0, 39
1, 164, Note_on_c, 0, 47, 79
1, 326, Program_c, 0, 39
1, 326, Note_on_c, 0, 47, 0
1, 329, Program_c, 1, 81
1, 329, Note_on_c, 1, 77, 79
1, 329, Program_c, 1, 81
1, 329, Note_on_c, 1, 72, 79
1, 329, Program_c, 0, 39
1, 329, Note_on_c, 0, 48, 79
1, 490, Program_c, 0, 39
1, 490, Note_on_c, 0, 48, 0
1, 494, Program_c, 0, 39
1, 494, Note_on_c, 0, 53, 79
1, 655, Program_c, 1, 81
1, 655, Note_on_c, 1, 72, 0
1, 655, Program_c, 1, 81
1, 655, Note_on_c, 1, 77, 0
1, 655, Program_c, 0, 39
1, 655, Note_on_c, 0, 53, 0
1, 658, Note_on_c, 9, 57, 79
1, 658, Note_on_c, 9, 44, 79
1, 658, Note_on_c, 9, 36, 79
1, 658, Program_c, 1, 81
1, 658, Note_on_c, 1, 83, 79
1, 658, Program_c, 0, 39
1, 658, Note_on_c, 0, 35, 79
1, 737, Note_on_c, 9, 36, 0
1, 737, Note_on_c, 9, 57, 0
1, 737, Note_on_c, 9, 44, 0
1, 737, Program_c, 1, 81
1, 737, Note_on_c, 1, 83, 0
1, 740, Program_c, 1, 81
1, 740, Note_on_c, 1, 83, 79
1, 819, Program_c, 1, 81
1, 819, Note_on_c, 1, 83, 0
1, 819, Program_c, 0, 39
1, 819, Note_on_c, 0, 35, 0
1, 823, Note_on_c, 9, 44, 79
1, 823, Program_c, 1, 81
1, 823, Note_on_c, 1, 83, 79
1, 823, Program_c, 0, 39
1, 823, Note_on_c, 0, 35, 79
1, 902, Note_on_c, 9, 44, 0
1, 902, Program_c, 1, 81
1, 902, Note_on_c, 1, 83, 0
1, 905, Note_on_c, 9, 44, 79
1, 905, Program_c, 1, 81
1, 905, Note_on_c, 1, 83, 79
1, 984, Note_on_c, 9, 44, 0
1, 984, Program_c, 1, 81
1, 984, Note_on_c, 1, 83, 0
1, 984, Program_c, 0, 39
1, 984, Note_on_c, 0, 35, 0
1, 987, Note_on_c, 9, 44, 79
1, 987, Note_on_c, 9, 38, 79
1, 987, Program_c, 1, 81
1, 987, Note_on_c, 1, 79, 79
1, 987, Program_c, 0, 39
1, 987, Note_on_c, 0, 43, 79
1, 1066, Note_on_c, 9, 38, 0
1, 1066, Note_on_c, 9, 44, 0
1, 1066, Program_c, 1, 81
1, 1066, Note_on_c, 1, 79, 0
1, 1070, Program_c, 1, 81
1, 1070, Note_on_c, 1, 79, 79
1, 1148, Program_c, 1, 81
1, 1148, Note_on_c, 1, 79, 0
1, 1148, Program_c, 0, 39
1, 1148, Note_on_c, 0, 43, 0
1, 1152, Note_on_c, 9, 44, 79
1, 1152, Program_c, 1, 81
1, 1152, Note_on_c, 1, 79, 79
1, 1152, Program_c, 0, 39
1, 1152, Note_on_c, 0, 35, 79
1, 1231, Note_on_c, 9, 44, 0
1, 1231, Program_c, 1, 81
1, 1231, Note_on_c, 1, 79, 0
1, 1234, Program_c, 1, 81
1, 1234, Note_on_c, 1, 79, 79
1, 1313, Program_c, 1, 81
1, 1313, Note_on_c, 1, 79, 0
1, 1313, Program_c, 0, 39
1, 1313, Note_on_c, 0, 35, 0
1, 1316, Note_on_c, 9, 44, 79
1, 1316, Note_on_c, 9, 36, 79
1, 1316, Program_c, 1, 81
1, 1316, Note_on_c, 1, 76, 79
1, 1316, Program_c, 0, 39
1, 1316, Note_on_c, 0, 35, 79
1, 1395, Note_on_c, 9, 44, 0
1, 1395, Note_on_c, 9, 36, 0
1, 1395, Program_c, 1, 81
1, 1395, Note_on_c, 1, 76, 0
1, 1399, Program_c, 1, 81
1, 1399, Note_on_c, 1, 76, 79
1, 1478, Program_c, 1, 81
1, 1478, Note_on_c, 1, 76, 0
1, 1478, Program_c, 0, 39
1, 1478, Note_on_c, 0, 35, 0
1, 1481, Note_on_c, 9, 44, 79
1, 1481, Program_c, 1, 81
1, 1481, Note_on_c, 1, 76, 79
1, 1481, Program_c, 0, 39
1, 1481, Note_on_c, 0, 43, 79
1, 1560, Note_on_c, 9, 44, 0
1, 1560, Program_c, 1, 81
1, 1560, Note_on_c, 1, 76, 0
1, 1563, Note_on_c, 9, 44, 79
1, 1563, Program_c, 1, 81
1, 1563, Note_on_c, 1, 76, 79
1, 1642, Note_on_c, 9, 44, 0
1, 1642, Program_c, 1, 81
1, 1642, Note_on_c, 1, 76, 0
1, 1642, Program_c, 0, 39
1, 1642, Note_on_c, 0, 43, 0
1, 1646, Note_on_c, 9, 44, 79
1, 1646, Note_on_c, 9, 38, 79
1, 1646, Program_c, 1, 81
1, 1646, Note_on_c, 1, 72, 79
1, 1646, Program_c, 0, 39
1, 1646, Note_on_c, 0, 35, 79
1, 1724, Note_on_c, 9, 38, 0
1, 1724, Note_on_c, 9, 44, 0
1, 1724, Program_c, 1, 81
1, 1724, Note_on_c, 1, 72, 0
1, 1728, Program_c, 1, 81
1, 1728, Note_on_c, 1, 72, 79
1, 1807, Program_c, 1, 81
1, 1807, Note_on_c, 1, 72, 0
1, 1807, Program_c, 1, 81
1, 1807, Note_on_c, 1, 72, 79
1, 1886, Program_c, 1, 81
1, 1886, Note_on_c, 1, 72, 0
1, 1889, Program_c, 0, 39
1, 1889, Note_on_c, 0, 35, 0
1, 1893, Note_on_c, 9, 44, 79
1, 1893, Note_on_c, 9, 36, 79
1, 1893, Program_c, 1, 81
1, 1893, Note_on_c, 1, 76, 79
1, 1893, Program_c, 0, 39
1, 1893, Note_on_c, 0, 40, 79
1, 1972, Note_on_c, 9, 36, 0
1, 1972, Note_on_c, 9, 44, 0
1, 1972, Program_c, 1, 81
1, 1972, Note_on_c, 1, 76, 0
1, 1975, Note_on_c, 9, 44, 79
1, 1975, Note_on_c, 9, 36, 79
1, 1975, Program_c, 1, 81
1, 1975, Note_on_c, 1, 76, 79
1, 2054, Program_c, 1, 81
1, 2054, Note_on_c, 1, 76, 0
1, 2054, Program_c, 0, 39
1, 2054, Note_on_c, 0, 40, 0
1, 2058, Note_on_c, 9, 44, 0
1, 2058, Note_on_c, 9, 36, 0
1, 2058, Note_on_c, 9, 36, 79
1, 2058, Program_c, 1, 81
1, 2058, Note_on_c, 1, 76, 79
1, 2137, Program_c, 1, 81
1, 2137, Note_on_c, 1, 76, 0
1, 2139, Program_c, 0, 39
1, 2139, Note_on_c, 0, 40, 0
1, 2142, Note_on_c, 9, 44, 79
1, 2142, Program_c, 1, 81
1, 2142, Note_on_c, 1, 76, 79
1, 2221, Program_c, 1, 81
1, 2221, Note_on_c, 1, 76, 0
1, 2224, Program_c, 0, 39
1, 2224, Note_on_c, 0, 40, 79
1, 2303, Note_on_c, 9, 44, 0
1, 2303, Program_c, 1, 81
1, 2303, Note_on_c, 1, 76, 0
1, 2306, Program_c, 0, 39
1, 2306, Note_on_c, 0, 40, 0
1, 2309, Note_on_c, 9, 44, 79
1, 2309, Note_on_c, 9, 36, 79
1, 2309, Program_c, 0, 39
1, 2309, Note_on_c, 0, 35, 79
1, 2388, Note_on_c, 9, 36, 0
1, 2388, Note_on_c, 9, 44, 0
1, 2388, Program_c, 1, 81
1, 2388, Note_on_c, 1, 76, 0
1, 2391, Program_c, 0, 39
1, 2391, Note_on_c, 0, 35, 0
1, 2395, Note_on_c, 9, 44, 79
1, 2395, Program_c, 1, 81
1, 2395, Note_on_c, 1, 76, 79
1, 2474, Program_c, 1, 81
1, 2474, Note_on_c, 1, 76, 0
1, 2477, Note_on_c, 9, 44, 0
1, 2477, Program_c, 1, 81
1, 2477, Note_on_c, 1, 76, 0
1, 2481, Program_c, 0, 39
1, 2481, Note_on_c, 0, 35, 79
1, 2560, Note_on_c, 9, 44, 79
1, 2560, Program_c, 1, 81
1, 2560, Note_on_c, 1, 76, 79
1, 2639, Program_c, 1, 81
1, 2639, Note_on_c, 1, 76, 0
1, 2642, Program_c, 0, 39
1, 2642, Note_on_c, 0, 35, 0
1, 2645, Note_on_c, 9, 44, 0
1, 2645, Program_c, 1, 81
1, 2645, Note_on_c, 1, 76, 0
1, 2649, Program_c, 0, 39
1, 2649, Note_on_c, 0, 35, 79
1, 2728, Note_on_c, 9, 44, 79
1, 2728, Program_c, 1, 81
1, 2728, Note_on_c, 1, 76, 79
1, 2807, Program_c, 1, 81
1, 2807, Note_on_c, 1, 76, 0
1, 2810, Program_c, 0, 39
1, 2810, Note_on_c, 0, 35, 0
1, 2814, Note_on_c, 9, 44, 0
1, 2814, Note_on_c, 9, 36, 79
1, 2814, Program_c, 1, 81
1, 2814, Note_on_c, 1, 76, 79
1, 2893, Program_c, 1, 81
1, 2893, Note_on_c, 1, 76, 0
1, 2897, Program_c, 1, 81
1, 2897, Note_on_c, 1, 76, 79
1, 2976, Program_c, 1, 81
1, 2976, Note_on_c, 1, 76, 0
1, 2979, Program_c, 0, 39
1, 2979, Note_on_c, 0, 35, 79
1, 3058, Note_on_c, 9, 44, 79
1, 3058, Program_c, 1, 81
1, 3058, Note_on_c, 1, 76, 79
1, 3137, Program_c, 1, 81
1, 3137, Note_on_c, 1, 76, 0
1, 3139, Program_c, 0, 39
1, 3139, Note_on_c, 0, 35, 0
1, 3143, Note_on_c, 9, 44, 0
1, 3143, Note_on_c, 9, 36, 0
1, 3143, Note_on_c, 9, 36, 79
1, 3143, Program_c, 1, 81
1, 3143, Note_on_c, 1, 76, 79
1, 3222, Program_c, 1, 81
1, 3222, Note_on_c, 1, 76, 0
1, 3224, Program_c, 0, 39
1, 3224, Note_on_c, 0, 35, 79
1, 3303, Note_on_c, 9, 36, 0
1, 3303, Note_on_c, 9, 36, 79
1, 3303, Program_c, 1, 81
1, 3303, Note_on_c, 1, 76, 79
1, 3382, Program_c, 1, 81
1, 3382, Note_on_c, 1, 76, 0
1, 3385, Program_c, 0, 39
1, 3385, Note_on_c, 0, 35, 0
1, 3387, Note_on_c, 9, 44, 79
1, 3387, Note_on_c, 9, 36, 79
1, 3387, Program_c, 1, 81
1, 3387, Note_on_c, 1, 76, 79
1, 3466, Program_c, 1, 81
1, 3466, Note_on_c, 1, 76, 0
1, 3469, Program_c, 0, 39
1, 3469, Note_on_c, 0, 35, 79
1, 3548, Note_on_c, 9, 36, 0
1, 3548, Note_on_c, 9, 36, 79
1, 3548, Note_on_c, 9, 36, 79
1, 3627, Program_c, 1, 81
1, 3627, Note_on_c, 1, 76, 0
1, 3631, Program_c, 0, 39
1, 3631, Note_on_c, 0, 35, 0
1, 3634, Note_on_c, 9, 44, 0
1, 3634, Program_c, 1, 81
1, 3634, Note_on_c, 1, 76, 0
1, 3638, Program_c, 0, 39
1, 3638, Note_on_c, 0, 35, 79
1, 3717, Note_on_c, 9, 36, 0
1, 3717, Note_on_c, 9, 36, 79
1, 3796, Program_c, 1, 81
1, 3796, Note_on_c, 1, 76, 0
1, 3799, Program_c, 0, 39
1, 3799, Note_on_c, 0, 35, 0
1, 3801, Note_on_c, 9, 36, 0
1, 3801, Note_on_c, 9, 36, 79
1, 3880, Program_c, 1, 81
1, 3880, Note_on_c, 1, 76, 79
1, 3959, Program_c, 1, 81
1, 3959, Note_on_c, 1, 76, 0
1, 3963, Program_c, 0, 39
1, 3963, Note_on_c, 0, 35, 79
1, 4042, Note_on_c, 9, 36, 0
1, 4042, Note_on_c, 9, 36, 79
1, 4121, Program_c, 1, 81
1, 4121, Note_on_c, 1, 76, 79
1, 4200, Program_c, 1, 81
1, 4200, Note_on_c, 1, 76, 0
1, 4203, Note_on_c, 9, 36, 0
1, 4203, Note_on_c, 9, 36, 79
1, 4282, Program_c, 1, 81
1, 4282, Note_on_c, 1, 76, 79
1, 4361, Program_c, 1, 81
1, 4361, Note_on_c, 1, 76, 0
1, 4364, Program_c, 0, 39
1, 4364, Note_on_c, 0, 35, 0
1, 4367, Note_on_c, 9, 36, 0
1, 4370, Note_on_c, 9, 44, 79
1, 4370, Note_on_c, 9, 44, 79
1, 4449, Program_c, 1, 81
1, 4449, Note_on_c, 1, 76, 79
1, 4528, Program_c, 1, 81
1, 4528, Note_on_c, 1, 76, 0
1, 4532, Program_c, 0, 39
1, 4532, Note_on_c, 0, 35, 79
1, 4611, Note_on_c, 9, 44, 0
1, 4611, Note_on_c, 9, 36, 79
1, 4690, Program_c, 1, 81
1, 4690, Note_on_c, 1, 76, 79
1, 4769, Program_c, 1, 81
1, 4769, Note_on_c, 1, 76, 0
1, 4772, Program_c, 0, 39
1, 4772, Note_on_c, 0, 35, 0
1, 4775, Note_on_c, 9, 36, 0
1, 4778, Note_on_c, 9, 36, 79
1, 4857, Program_c, 1, 81
1, 4857, Note_on_c, 1, 76, 79
1, 4936, Program_c, 1, 81
1, 4936, Note_on_c, 1, 76, 0
1, 4939, Program_c, 0, 39
1, 4939, Note_on_c, 0, 35, 79
1, 5018, Note_on_c, 9, 36, 0
1, 5018, Note_on_c, 9, 36, 79
1, 5097, Program_c, 1, 81
1, 5097, Note_on_c, 1, 76, 79
1, 5176, Program_c, 1, 81
1, 5176, Note_on_c, 1, 76, 0
1, 5179, Program_c, 0, 39
1, 5179, Note_on_c, 0, 35, 0
1, 5183, Note_on_c, 9, 36, 0
1, 5186, Note_on_c, 9, 36, 79
1, 5265, Program_c, 1, 81
1, 5265, Note_on_c, 1, 76, 79
1, 5344, Program_c, 1, 81
1, 5344, Note_on_c, 1, 76, 0
1, 5348, Program_c, 0, 39
1, 5348, Note_on_c, 0, 35, 79
1, 5427, Note_on_c, 9, 36, 0
1, 5427, Note_on_c, 9, 36, 79
1, 5506, Program_c, 1, 81
1, 5506, Note_on_c, 1, 76, 79
1, 5585, Program_c, 1, 81
1, 5585, Note_on_c, 1, 76, 0
1, 5588, Program_c, 0, 39
1, 5588, Note_on_c, 0, 35, 0
1, 5590, Note_on_c, 9, 36, 0
1, 5590, Note_on_c, 9, 36, 79
1, 5669, Program_c, 1, 81
1, 5669, Note_on_c, 1, 76, 79
1, 5748, Program_c, 1, 81
1, 5748, Note_on_c, 1, 76, 0
1, 5751, Program_c, 0, 39
1, 5751, Note_on_c, 0, 35, 79
1, 5830, Note_on_c, 9, 36, 0
1, 5830, Note_on_c, 9, 36, 79
1, 5909, Program_c, 1, 81
1, 5909, Note_on_c, 1, 76, 79
1, 5988, Program_c, 1, 81
1, 5988, Note_on_c, 1, 76, 0
1, 5991, Program_c, 0, 39
1, 5991, Note_on_c, 0, 35, 0
1, 5995, Note_on_c, 9, 36, 0
1, 5998, Note_on_c, 9, 36, 79
1, 6077, Program_c, 1, 81
1, 6077, Note_on_c, 1, 76, 79
1, 6156, Program_c, 1, 81
1, 6156, Note_on_c, 1, 76, 0
1, 6159, Program_c, 0, 39
1, 6159, Note_on_c, 0, 35, 79
1, 6238, Note_on_c, 9, 36, 0
1, 6241, Note_on_c, 9, 36, 79
1, 6320, Program_c, 1, 81
1, 6320, Note_on_c, 1, 76, 79
1, 6399, Program_c, 1, 81
1, 6399, Note_on_c, 1, 76, 0
1, 6403, Program_c, 0, 39
1, 6403, Note_on_c, 0, 35, 0
1, 6407, Program_c, 0, 39
1, 6407, Note_on_c, 0, 35, 79
1, 6486, Note_on_c, 9, 36, 0
1, 6489, Note_on_c, 9, 36, 79
1, 6568, Program_c, 1, 81
1, 6568, Note_on_c, 1, 76, 79
1, 6647, Program_c, 1, 81
1, 6647, Note_on_c, 1, 76, 0
1, 6651, Program_c, 0, 39
1, 6651, Note_on_c, 0, 35, 0
1, 6655, Note_on_c, 9, 36, 0
1, 6658, Note_on_c, 9, 36, 79
1, 6737, Program_c, 1, 81
1, 6737, Note_on_c, 1, 76, 79
1, 6816, Program_c, 1, 81
1, 6816, Note_on_c, 1, 76, 0
1, 6820, Program_c, 0, 39
1, 6820, Note_on_c, 0, 35, 79
1, 6899, Note_on_c, 9, 36, 0
1, 6902, Note_on_c, 9, 36, 79
1, 6981, Program_c, 1, 81
1, 6981, Note_on_c, 1, 76, 79
1, 7060, Program_c, 1, 81
1, 7060, Note_on_c, 1, 76, 0
1, 7064, Program_c, 0, 39
1, 7064, Note_on_c, 0, 35, 0
1, 7067, Note_on_c, 9, 36, 0
1, 7070, Note_on_c, 9, 36, 79
1, 7149, Program_c, 1, 81
1, 7149, Note_on_c, 1, 76, 79
1, 7228, Program_c, 1, 81
1, 7228, Note_on_c, 1, 76, 0
1, 7232, Program_c, 0, 39
1, 7232, Note_on_c, 0, 35, 79
1, 7311, Note_on_c, 9, 36, 0
1, 7314, Note_on_c, 9, 36, 79
1, 7393, Program_c, 1, 81
1, 7393, Note_on_c, 1, 76, 79
1, 7472, Program_c, 1, 81
1, 7472, Note_on_c, 1, 76, 0
1, 7475, Program_c, 0, 39
1, 7475, Note_on_c, 0, 35, 0
1, 7479, Note_on_c, 9, 36, 0
1, 7482, Note_on_c, 9, 36, 79
1, 7561, Program_c, 1, 81
1, 7561, Note_on_c, 1, 76, 79
1, 7640, Program_c, 1, 81
1, 7640, Note_on_c, 1, 76, 0
1, 7642, Program_c, 0, 39
1, 7642, Note_on_c, 0, 35, 79
1, 7721, Note_on_c, 9, 36, 0
1, 7724, Note_on_c, 9, 36, 79
1, 7803, Program_c, 1, 81
1, 7803, Note_on_c, 1, 76, 79
1, 7882, Program_c, 1, 81
1, 7882, Note_on_c, 1, 76, 0
1, 7885, Program_c, 0, 39
1, 7885, Note_on_c, 0, 35, 0
1, 7889, Note_on_c, 9, 36, 0
1, 7892, Note_on_c, 9, 36, 79
1, 7971, Program_c, 1, 81
1, 7971, Note_on_c, 1, 76, 79
1, 8050, Program_c, 1, 81
1, 8050, Note_on_c, 1, 76, 0
1, 8054, Program_c, 0, 39
1, 8054, Note_on_c, 0, 35, 79
1, 8133, Note_on_c, 9, 36, 0
1, 8136, Note_on_c, 9, 36, 79
1, 8215, Program_c, 1, 81
1, 8215, Note_on_c, 1, 76, 79
1, 8294, Program_c, 1, 81
1, 8294, Note_on_c, 1, 76, 0
1, 8298, Program_c, 0, 39
1, 8298, Note_on_c, 0, 35, 0
1, 8302, Note_on_c, 9, 36, 0
1, 8305, Note_on_c, 9, 36, 79
1, 8384, Program_c, 1, 81
1, 8384, Note_on_c, 1, 76, 79
1, 8463, Program_c, 1, 81
1, 8463, Note_on_c, 1, 76, 0
1, 8467, Program_c, 0, 39
1, 8467, Note_on_c, 0, 35, 79
1, 8546, Note_on_c, 9, 36, 0
1, 8549, Note_on_c, 9, 36, 79
1, 8628, Program_c, 1, 81
1, 8628, Note_on_c, 1, 76, 79
1, 8707, Program_c, 1, 81
1, 8707, Note_on_c, 1, 76, 0
1, 8711, Program_c, 0, 39
1, 8711, Note_on_c, 0, 35, 0
1, 8714, Note_on_c, 9, 36, 0
1, 8717, Note_on_c, 9, 36, 79
1, 8796, Program_c, 1, 81
1, 8796, Note_on_c, 1, 76, 79
1, 8875, Program_c, 1, 81
1, 8875, Note_on_c, 1, 76, 0
1, 8878, Program_c, 0, 39
1, 8878, Note_on_c, 0, 35, 79
1, 8957, Note_on_c, 9, 36, 0
1, 8960, Note_on_c, 9, 36, 79
1, 9039, Program_c, 1, 81
1, 9039, Note_on_c, 1, 76, 79
1, 9118, Program_c, 1, 81
1, 9118, Note_on_c, 1, 76, 0
1, 9121, Program_c, 0, 39
1, 9121, Note_on_c, 0, 35, 0
1, 9125, Note_on_c, 9, 36, 0
1, 9128, Note_on_c, 9, 36, 79
1, 9207, Program_c, 1, 81
1, 9207, Note_on_c, 1, 76, 79
1, 9286, Program_c, 1, 81
1, 9286, Note_on_c, 1, 76, 0
1, 9290, Program_c, 0, 39
1, 9290, Note_on_c, 0, 35, 79
1, 9369, Note_on_c, 9, 36, 0
1, 9372, Note_on_c, 9, 36, 79
1, 9451, Program_c, 1, 81
1, 9451, Note_on_c, 1, 76, 79
1, 9530, Program_c, 1, 81
1, 9530, Note_on_c, 1, 76, 0
1, 9533, Program_c, 0, 39
1, 9533, Note_on_c, 0, 35, 0
1, 9537, Note_on_c, 9, 36, 0
1, 9540, Note_on_c, 9, 36, 79
1, 9619, Program_c, 1, 81
1, 9619, Note_on_c, 1, 76, 79
1, 9698, Program_c, 1, 81
1, 9698, Note_on_c, 1, 76, 0
1, 9701, Program_c, 0, 39
1, 9701, Note_on_c, 0, 35, 79
1, 9780, Note_on_c, 9, 36, 0
1, 9783, Note_on_c, 9, 36, 79
1, 9862, Program_c, 1, 81
1, 9862, Note_on_c, 1, 76, 79
1, 9941, Program_c, 1, 81
1, 9941, Note_on_c, 1, 76, 0
1, 9945, Program_c, 0, 39
1, 9945, Note_on_c, 0, 35, 0
1, 9947, Program_c, 0, 39
1, 9947, Note_on_c, 0, 35, 79
1, 10026, Note_on_c, 9, 36, 0
1, 10029, Note_on_c, 9, 36, 79
1, 10108, Program_c, 1, 81
1, 10108, Note_on_c, 1, 76, 79
1, 10187, Program_c, 1, 81
1, 10187, Note_on_c, 1, 76, 0
1, 10191, Program_c, 0, 39
1, 10191, Note_on_c, 0, 35, 0
1, 10195, Note_on_c, 9, 36, 0
1, 10198, Note_on_c, 9, 36, 79
1, 10277, Program_c, 1, 81
1, 10277, Note_on_c, 1, 76, 79
1, 10356, Program_c, 1, 81
1, 10356, Note_on_c, 1, 76, 0
1, 10360, Program_c, 0, 39
1, 10360, Note_on_c, 0, 35, 79
1, 10439, Note_on_c, 9, 36, 0
1, 10442, Note_on_c, 9, 36, 79
1, 10521, Program_c, 1, 81
1, 10521, Note_on_c, 1, 76, 79
1, 10600, Program_c, 1, 81
1, 10600, Note_on_c, 1, 76, 0
1, 10603, Program_c, 0, 39
1, 10603, Note_on_c, 0, 35, 0
1, 10607, Note_on_c, 9, 36, 0
1, 10610, Note_on_c, 9, 36, 79
1, 10689, Program_c, 1, 81
1, 10689, Note_on_c, 1, 76, 79
1, 10768, Program_c, 1, 81
1, 10768, Note_on_c, 1, 76, 0
1, 10771, Program_c, 0, 39
1, 10771, Note_on_c, 0, 35, 79
1, 10850, Note_on_c, 9, 36, 0
1, 10853, Note_on_c, 9, 36, 79
1, 10932, Program_c, 1, 81
1, 10932, Note_on_c, 1, 76, 79
1, 11011, Program_c, 1, 81
1, 11011, Note_on_c, 1, 76, 0
1, 11015, Program_c, 0, 39
1, 11015, Note_on_c, 0, 35, 0
1, 11017, Program_c, 0, 39
1, 11017, Note_on_c, 0, 35, 79
1, 11096, Note_on_c, 9, 36, 0
1, 11099, Note_on_c, 9, 36, 79
1, 11178, Program_c, 1, 81
1, 11178, Note_on_c, 1, 76, 79
1, 11257, Program_c, 1, 81
1, 11257, Note_on_c, 1, 76, 0
1, 11260, Program_c, 0, 39
1, 11260, Note_on_c, 0, 35, 0
1, 11262, Program_c, 0, 39
1, 11262, Note_on_c, 0, 35, 79
1, 11341, Note_on_c, 9, 36, 0
1, 11344, Note_on_c, 9, 36, 79
1, 11423, Program_c, 1, 81
1, 11423, Note_on_c, 1, 76, 79
1, 11502, Program_c, 1, 81
1, 11502, Note_on_c, 1, 76, 0
1, 11505, Program_c, 0, 39
1, 11505, Note_on_c, 0, 35, 0
1, 11509, Note_on_c, 9, 36, 0
1, 11512, Note_on_c, 9, 36, 79
1, 11591, Program_c, 1, 81
1, 11591, Note_on_c, 1, 76, 79
1, 11670, Program_c, 1, 81
1, 11670, Note_on_c, 1, 76, 0
1, 11673, Program_c, 0, 39
1, 11673, Note_on_c, 0, 35, 79
1, 11752, Note_on_c, 9, 36, 0
1, 11755, Note_on_c, 9, 36, 79
1, 11834, Program_c, 1, 81
1, 11834, Note_on_c, 1, 76, 79
1, 11913, Program_c, 1, 81
1, 11913, Note_on_c, 1, 76, 0
1, 11916, Program_c, 0, 39
1, 11916, Note_on_c, 0, 35, 0
1, 11918, Note_on_c, 9, 36, 0
1, 11921, Note_on_c, 9, 36, 79
1, 12000, Program_c, 1, 81
1, 12000, Note_on_c, 1, 76, 79
1, 12079, Program_c, 1, 81
1, 12079, Note_on_c, 1, 76, 0
1, 12082, Program_c, 0, 39
1, 12082, Note_on_c, 0, 35, 79
1, 12161, Note_on_c, 9, 36, 0
1, 12164, Note_on_c, 9, 36, 79
1, 12243, Program_c, 1, 81
1, 12243, Note_on_c, 1, 76, 79
1, 12322, Program_c, 1, 81
1, 12322, Note_on_c, 1, 76, 0
1, 12325, Program_c, 0, 39
1, 12325, Note_on_c, 0, 35, 0
1, 12327, Program_c, 0, 39
1, 12327, Note_on_c, 0, 35, 79
1, 12406, Note_on_c, 9, 36, 0
1, 12409, Note_on_c, 9, 36, 79
1, 12488, Program_c, 1, 81
1, 12488, Note_on_c, 1, 76, 79
1, 12567, Program_c, 1, 81
1, 12567, Note_on_c, 1, 76, 0
1, 12570, Program_c, 0, 39
1, 12570, Note_on_c, 0, 35, 0
1, 12572, Program_c, 0, 39
1, 12572, Note_on_c, 0, 35, 79
1, 12651, Note_on_c, 9, 36, 0
1, 12654, Note_on_c, 9, 36, 79
1, 12733, Program_c, 1, 81
1, 12733, Note_on_c, 1, 76, 79
1, 12812, Program_c, 1, 81
1, 12812, Note_on_c, 1, 76, 0
1, 12815, Program_c, 1, 81
1, 12815, Note_on_c, 1, 76, 79
1, 12894, Program_c, 1, 81
1, 12894, Note_on_c, 1, 76, 79
1, 12973, Program_c, 1, 81
1, 12973, Note_on_c, 1, 76, 0
1, 12976, Program_c, 0, 39
1, 12976, Note_on_c, 0, 35, 0
1, 12978, Program_c, 0, 39
1, 12978, Note_on_c, 0, 35, 79
1, 13057, Note_on_c, 9, 36, 0
1, 13060, Note_on_c, 9, 36, 79
1, 13139, Program_c, 1, 81
1, 13139, Note_on_c, 1, 76, 79
1, 13218, Program_c, 1, 81
1, 13218, Note_on_c, 1, 76, 0
1, 13221, Program_c, 0, 39
1, 13221, Note_on_c, 0, 35, 0
1, 13223, Program_c, 0, 39
1, 13223, Note_on_c, 0, 35, 79
1, 13302, Note_on_c, 9, 36, 0
1, 13305, Note_on_c, 9, 36, 79
1, 13384, Program_c, 1, 81
1, 13384, Note_on_c, 1, 76, 79
1, 13463, Program_c, 1, 81
1, 13463, Note_on_c, 1, 76, 0
1, 13466, Program_c, 0, 39
1, 13466, Note_on_c, 0, 35, 0
1, 13468, Program_c, 0, 39
1, 13468, Note_on_c, 0, 35, 79
1, 13547, Note_on_c, 9, 36, 0
1, 13550, Note_on_c, 9, 36, 79
1, 13629, Program_c, 1, 81
1, 13629, Note_on_c, 1, 76, 79
1, 13708, Program_c, 1, 81
1, 13708, Note_on_c, 1, 76, 0
1, 13711, Program_c, 0, 39
1, 13711, Note_on_c, 0, 35, 0
1, 13713, Program_c, 0, 39
1, 13713, Note_on_c, 0, 35, 79
1, 13792, Note_on_c, 9, 36, 0
1, 13795, Note_on_c, 9, 36, 79
1, 13874, Program_c, 1, 81
1, 13874, Note_on_c, 1, 76, 79
1, 13953, Program_c, 1, 81
1, 13953, Note_on_c, 1, 76, 0
1, 13956, Program_c, 0, 39
1, 13956, Note_on_c, 0, 35, 0
1, 13958, Note_on_c, 9, 36, 0
1, 13961, Note_on_c, 9, 36, 79
1, 14040, Program_c, 1, 81
1, 14040, Note_on_c, 1, 76, 79
1, 14119, Program_c, 1, 81
1, 14119, Note_on_c, 1, 76, 0
1, 14122, Program_c, 0, 39
1, 14122, Note_on_c, 0, 35, 79
1, 14201, Note_on_c, 9, 36, 0
1, 14204, Note_on_c, 9, 36, 79
1, 14283, Program_c, 1, 81
1, 14283, Note_on_c, 1, 76, 79
1, 14362, Program_c, 1, 81
1, 14362, Note_on_c, 1, 76, 0
1, 14365, Program_c, 1, 81
1, 14365, Note_on_c, 1, 76, 79
1, 14444, Program_c, 1, 81
1, 14444, Note_on_c, 1, 76, 79
1, 14523, Program_c, 1, 81
1, 14523, Note_on_c, 1, 76, 0
1, 14526, Program_c, 1, 81
1, 14526, Note_on_c, 1, 76, 79
1, 14605, Program_c, 1, 81
1, 14605, Note_on_c, 1, 76, 79
1, 14684, Program_c, 1, 81
1, 14684, Note_on_c, 1, 76, 0
1, 14687, Program_c, 0, 39
1, 14687, Note_on_c, 0, 35, 0
1, 14689, Program_c, 0, 39
1, 14689, Note_on_c, 0, 35, 79
1, 14768, Note_on_c, 9, 36, 0
1, 14771, Note_on_c, 9, 36, 79
1, 14850, Program_c, 1, 81
1, 14850, Note_on_c, 1, 76, 79
1, 14929, Program_c, 1, 81
1, 14929, Note_on_c, 1, 76, 0
1, 14932, Program_c, 0, 39
1, 14932, Note_on_c, 0, 35, 0
1, 14934, Note_on_c, 9, 36, 0
1, 14937, Note_on_c, 9, 36, 79
1, 15016, Program_c, 1, 81
1, 15016, Note_on_c, 1, 76, 79
1, 15095, Program_c, 1, 81
1, 15095, Note_on_c, 1, 76, 0
1, 15098, Program_c, 0, 39
1, 15098, Note_on_c, 0, 35, 79
1, 15177, Note_on_c, 9, 36, 0
1, 15180, Note_on_c, 9, 36, 79
1, 15259, Program_c, 1, 81
1, 15259, Note_on_c, 1, 76, 79
1, 15338, Program_c, 1, 81
1, 15338, Note_on_c, 1, 76, 0
1, 15341, Program_c, 0, 39
1, 15341, Note_on_c, 0, 35, 0
1, 15343, Program_c, 0, 39
1, 15343, Note_on_c, 0, 35, 79
1, 15422, Note_on_c, 9, 36, 0
1, 15425, Note_on_c, 9, 36, 79
1, 15504, Program_c, 1, 81
1, 15504, Note_on_c, 1, 76, 79
1, 15583, Program_c, 1, 81
1, 15583, Note_on_c, 1, 76, 0
1, 15586, Program_c, 0, 39
1, 15586, Note_on_c, 0, 35, 0
1, 15588, Note_on_c, 9, 36, 0
1, 15591, Note_on_c, 9, 36, 79
1, 15670, Program_c, 1, 81
1, 15670, Note_on_c, 1, 76, 79
1, 15749, Program_c, 1, 81
1, 15749, Note_on_c, 1, 76, 0
1, 15752, Program_c, 0, 39
1, 15752, Note_on_c, 0, 35, 79
1, 15831, Note_on_c, 9, 36, 0
1, 15834, Note_on_c, 9, 36, 79
1, 15913, Program_c, 1, 81
1, 15913, Note_on_c, 1, 76, 79
1, 15992, Program_c, 1, 81
1, 15992, Note_on_c, 1, 76, 0
1, 15995, Program_c, 0, 39
1, 15995, Note_on_c, 0, 35, 0
1, 15997, Program_c, 0, 39
1, 15997, Note_on_c, 0, 35, 79
1, 16076, Note_on_c, 9, 36, 0
1, 16079, Note_on_c, 9, 36, 79
1, 16158, Program_c, 1, 81
1, 16158, Note_on_c, 1, 76, 79
1, 16237, Program_c, 1, 81
1, 16237, Note_on_c, 1, 76, 0
1, 16240, Program_c, 0, 39
1, 16240, Note_on_c, 0, 35, 0
1, 16242, Note_on_c, 9, 36, 0
1, 16245, Note_on_c, 9, 36, 79
1, 16324, Program_c, 1, 81
1, 16324, Note_on_c, 1, 76, 79
1, 16403, Program_c, 1, 81
1, 16403, Note_on_c, 1, 76, 0
1, 16406, Program_c, 0, 39
1, 16406, Note_on_c, 0, 35, 79
1, 16485, Note_on_c, 9, 36, 0
1, 16488, Note_on_c, 9, 36, 79
1, 16567, Program_c, 1, 81
1, 16567, Note_on_c, 1, 76, 79
1, 16646, Program_c, 1, 81
1, 16646, Note_on_c, 1, 76, 0
1, 16649, Program_c, 0, 39
1, 16649, Note_on_c, 0, 35, 0
1, 16651, Program_c, 0, 39
1, 16651, Note_on_c, 0, 35, 79
1, 16730, Note_on_c, 9, 36, 0
1, 16733, Note_on_c, 9, 36, 79
1, 16812, Program_c, 1, 81
1, 16812, Note_on_c, 1, 76, 79
1, 16891, Program_c, 1, 81
1, 16891, Note_on_c, 1, 76, 0
1, 16894, Program_c, 0, 39
1, 16894, Note_on_c, 0, 35, 0
1, 16896, Note_on_c, 9, 36, 0
1, 16899, Note_on_c, 9, 36, 79
1, 16978, Program_c, 1, 81
1, 16978, Note_on_c, 1, 76, 79
1, 17057, Program_c, 1, 81
1, 17057, Note_on_c, 1, 76, 0
1, 17060, Program_c, 0, 39
1, 17060, Note_on_c, 0, 35, 79
1, 17139, Note_on_c, 9, 36, 0
1, 17142, Note_on_c, 9, 36, 79
1, 17221, Program_c, 1, 81
1, 17221, Note_on_c, 1, 76, 79
1, 17300, Program_c, 1, 81
1, 17300, Note_on_c, 1, 76, 0
1, 17303, Program_c, 0, 39
1, 17303, Note_on_c, 0, 35, 0
1, 17305, Note_on_c, 9, 36, 0
1, 17308, Program_c, 0, 39
1, 17308, Note_on_c, 0, 35, 79
1, 17387, Note_on_c, 9, 36, 0
1, 17390, Note_on_c, 9, 36, 79
1, 17469, Program_c, 1, 81
1, 17469, Note_on_c, 1, 76, 79
1, 17548, Program_c, 1, 81
1, 17548, Note_on_c, 1, 76, 0
1, 17551, Program_c, 0, 39
1, 17551, Note_on_c, 0, 35, 0
1, 17553, Program_c, 0, 39
1, 17553, Note_on_c, 0, 35, 79
1, 17632, Note_on_c, 9, 36, 0
1, 17635, Note_on_c, 9, 36, 79
1, 17714, Program_c, 1, 81
1, 17714, Note_on_c, 1, 76, 79
1, 17793, Program_c, 1, 81
1, 17793, Note_on_c, 1, 76, 0
1, 17796, Program_c, 0, 39
1, 17796, Note_on_c, 0, 35, 0
1, 17798, Note_on_c, 9, 36, 0
1, 17801, Program_c, 0, 39
1, 17801, Note_on_c, 0, 35, 79
1, 17801, End_track
0, 0, End_of_file